<svg width="45" height="45" viewBox="0 0 45 45" fill="none" xmlns="http://www.w3.org/2000/svg">
<path d="M35.625 20.625H24.375V9.375C24.375 8.33812 23.535 7.5 22.5 7.5C21.465 7.5 20.625 8.33812 20.625 9.375V20.625H9.375C8.34 20.625 7.5 21.4631 7.5 22.5C7.5 23.5369 8.34 24.375 9.375 24.375H20.625V35.625C20.625 36.6619 21.465 37.5 22.5 37.5C23.535 37.5 24.375 36.6619 24.375 35.625V24.375H35.625C36.66 24.375 37.5 23.5369 37.5 22.5C37.5 21.4631 36.66 20.625 35.625 20.625Z" fill="#00A0E3"/>
<mask id="mask0" mask-type="alpha" maskUnits="userSpaceOnUse" x="7" y="7" width="31" height="31">
<path d="M35.625 20.625H24.375V9.375C24.375 8.33812 23.535 7.5 22.5 7.5C21.465 7.5 20.625 8.33812 20.625 9.375V20.625H9.375C8.34 20.625 7.5 21.4631 7.5 22.5C7.5 23.5369 8.34 24.375 9.375 24.375H20.625V35.625C20.625 36.6619 21.465 37.5 22.5 37.5C23.535 37.5 24.375 36.6619 24.375 35.625V24.375H35.625C36.66 24.375 37.5 23.5369 37.5 22.5C37.5 21.4631 36.66 20.625 35.625 20.625Z" fill="white"/>
</mask>
<g mask="url(#mask0)">
<path d="M29.688 24.6875H20.313V15.3125C20.313 14.4484 19.613 13.75 18.7505 13.75C17.888 13.75 17.188 14.4484 17.188 15.3125V24.6875H7.81305C6.95055 24.6875 6.25055 25.3859 6.25055 26.25C6.25055 27.1141 6.95055 27.8125 7.81305 27.8125H17.188V37.1875C17.188 38.0516 17.888 38.75 18.7505 38.75C19.613 38.75 20.313 38.0516 20.313 37.1875V27.8125H29.688C30.5505 27.8125 31.2505 27.1141 31.2505 26.25C31.2505 25.3859 30.5505 24.6875 29.688 24.6875Z" fill="#00A0E3"/>
<mask id="mask1" mask-type="alpha" maskUnits="userSpaceOnUse" x="6" y="13" width="26" height="26">
<path d="M29.688 24.6875H20.313V15.3125C20.313 14.4484 19.613 13.75 18.7505 13.75C17.888 13.75 17.188 14.4484 17.188 15.3125V24.6875H7.81305C6.95055 24.6875 6.25055 25.3859 6.25055 26.25C6.25055 27.1141 6.95055 27.8125 7.81305 27.8125H17.188V37.1875C17.188 38.0516 17.888 38.75 18.7505 38.75C19.613 38.75 20.313 38.0516 20.313 37.1875V27.8125H29.688C30.5505 27.8125 31.2505 27.1141 31.2505 26.25C31.2505 25.3859 30.5505 24.6875 29.688 24.6875Z" fill="white"/>
</mask>
<g mask="url(#mask1)">
</g>
</g>
</svg>
