<?xml version="1.0" encoding="UTF-8"?>
<svg width="245px" height="208px" viewBox="0 0 245 208" xmlns="http://www.w3.org/2000/svg" xmlns:xlink="http://www.w3.org/1999/xlink" version="1.1">
 <!-- Generated by Pixelmator Pro 2.0.8 -->
 <g id="group">
  <path id="Path" d="M244.246 143.005 L123.781 207.983 3.316 143.005 123.781 78.008 Z" fill="#e9e9e9" fill-opacity="1" stroke="none"/>
  <defs>
   <linearGradient id="linear-gradient" gradientUnits="userSpaceOnUse" x1="202.444" y1="173.863" x2="214.578" y2="46.418">
    <stop offset="0" stop-color="#c6803a" stop-opacity="1"/>
    <stop offset="1" stop-color="#a4601d" stop-opacity="1"/>
   </linearGradient>
  </defs>
  <path id="Path-1" d="M204.091 67.994 L204.091 136.455 125.855 175.567 47.62 136.455 47.62 67.994 125.855 28.871 Z" fill-opacity="1" fill="url(#linear-gradient)" stroke="none"/>
  <defs>
   <linearGradient id="linear-gradient-1" gradientUnits="userSpaceOnUse" x1="137.296" y1="128.172" x2="72.476" y2="59.751">
    <stop offset="0" stop-color="#9b5f1f" stop-opacity="1"/>
    <stop offset="1" stop-color="#824c1b" stop-opacity="1"/>
   </linearGradient>
  </defs>
  <path id="Path-2" d="M125.855 28.871 L125.855 175.567 47.62 136.455 47.62 67.994 Z" fill-opacity="1" fill="url(#linear-gradient-1)" stroke="none"/>
  <defs>
   <linearGradient id="linear-gradient-2" gradientUnits="userSpaceOnUse" x1="193.885" y1="150.185" x2="184.685" y2="84.783">
    <stop offset="0" stop-color="#9b5f1f" stop-opacity="1"/>
    <stop offset="1" stop-color="#824c1b" stop-opacity="1"/>
   </linearGradient>
  </defs>
  <path id="Path-3" d="M204.088 136.449 L125.852 175.572 125.852 107.112 204.088 67.988 Z" fill-opacity="1" fill="url(#linear-gradient-2)" stroke="none"/>
  <defs>
   <linearGradient id="linear-gradient-3" gradientUnits="userSpaceOnUse" x1="57.216" y1="149.314" x2="67.743" y2="84.466">
    <stop offset="0" stop-color="#c6803a" stop-opacity="1"/>
    <stop offset="1" stop-color="#a4601d" stop-opacity="1"/>
   </linearGradient>
  </defs>
  <path id="Path-4" d="M47.605 136.449 L125.852 175.572 125.852 107.112 47.605 67.988 Z" fill-opacity="1" fill="url(#linear-gradient-3)" stroke="none"/>
  <defs>
   <linearGradient id="linear-gradient-4" gradientUnits="userSpaceOnUse" x1="40.775" y1="78.09" x2="27.481" y2="7.636">
    <stop offset="0" stop-color="#eec089" stop-opacity="1"/>
    <stop offset="1" stop-color="#c18b54" stop-opacity="1"/>
   </linearGradient>
  </defs>
  <path id="Path-5" d="M86.689 77.753 L47.621 67.988 125.856 28.876 164.936 38.63 Z" fill-opacity="1" fill="url(#linear-gradient-4)" stroke="none"/>
  <defs>
   <linearGradient id="linear-gradient-5" gradientUnits="userSpaceOnUse" x1="-142.19" y1="15.725" x2="-48.133" y2="212.195">
    <stop offset="0" stop-color="#eec089" stop-opacity="1"/>
    <stop offset="1" stop-color="#c18b54" stop-opacity="1"/>
   </linearGradient>
  </defs>
  <path id="Path-6" d="M204.046 68.011 L170.346 41.331 92.1 80.454 125.81 107.134 Z" fill-opacity="1" fill="url(#linear-gradient-5)" stroke="none"/>
 </g>
 <path id="Path-7" d="M3.684 96.818 L3.684 101 3.138 101 3.138 99.104 1.008 99.104 1.008 101 0.462 101 0.462 96.818 1.008 96.818 1.008 98.654 3.138 98.654 3.138 96.818 Z M7.616 99.23 C7.616 99.334 7.61 99.444 7.598 99.56 L4.97 99.56 C4.99 99.884 5.1 100.138 5.3 100.322 5.504 100.502 5.75 100.592 6.038 100.592 6.274 100.592 6.47 100.538 6.626 100.43 6.786 100.318 6.898 100.17 6.962 99.986 L7.55 99.986 C7.462 100.302 7.286 100.56 7.022 100.76 6.758 100.956 6.43 101.054 6.038 101.054 5.726 101.054 5.446 100.984 5.198 100.844 4.954 100.704 4.762 100.506 4.622 100.25 4.482 99.99 4.412 99.69 4.412 99.35 4.412 99.01 4.48 98.712 4.616 98.456 4.752 98.2 4.942 98.004 5.186 97.868 5.434 97.728 5.718 97.658 6.038 97.658 6.35 97.658 6.626 97.726 6.866 97.862 7.106 97.998 7.29 98.186 7.418 98.426 7.55 98.662 7.616 98.93 7.616 99.23 Z M7.052 99.116 C7.052 98.908 7.006 98.73 6.914 98.582 6.822 98.43 6.696 98.316 6.536 98.24 6.38 98.16 6.206 98.12 6.014 98.12 5.738 98.12 5.502 98.208 5.306 98.384 5.114 98.56 5.004 98.804 4.976 99.116 Z M8.619 97.178 C8.515 97.178 8.427 97.142 8.355 97.07 8.283 96.998 8.247 96.91 8.247 96.806 8.247 96.702 8.283 96.614 8.355 96.542 8.427 96.47 8.515 96.434 8.619 96.434 8.719 96.434 8.803 96.47 8.871 96.542 8.943 96.614 8.979 96.702 8.979 96.806 8.979 96.91 8.943 96.998 8.871 97.07 8.803 97.142 8.719 97.178 8.619 97.178 Z M8.883 97.712 L8.883 101 8.337 101 8.337 97.712 Z M11.17 97.658 C11.454 97.658 11.702 97.72 11.914 97.844 12.13 97.968 12.29 98.124 12.394 98.312 L12.394 97.712 12.946 97.712 12.946 101.072 C12.946 101.372 12.882 101.638 12.754 101.87 12.626 102.106 12.442 102.29 12.202 102.422 11.966 102.554 11.69 102.62 11.374 102.62 10.942 102.62 10.582 102.518 10.294 102.314 10.006 102.11 9.836 101.832 9.784 101.48 L10.324 101.48 C10.384 101.68 10.508 101.84 10.696 101.96 10.884 102.084 11.11 102.146 11.374 102.146 11.674 102.146 11.918 102.052 12.106 101.864 12.298 101.676 12.394 101.412 12.394 101.072 L12.394 100.382 C12.286 100.574 12.126 100.734 11.914 100.862 11.702 100.99 11.454 101.054 11.17 101.054 10.878 101.054 10.612 100.982 10.372 100.838 10.136 100.694 9.95 100.492 9.814 100.232 9.678 99.972 9.61 99.676 9.61 99.344 9.61 99.008 9.678 98.714 9.814 98.462 9.95 98.206 10.136 98.008 10.372 97.868 10.612 97.728 10.878 97.658 11.17 97.658 Z M12.394 99.35 C12.394 99.102 12.344 98.886 12.244 98.702 12.144 98.518 12.008 98.378 11.836 98.282 11.668 98.182 11.482 98.132 11.278 98.132 11.074 98.132 10.888 98.18 10.72 98.276 10.552 98.372 10.418 98.512 10.318 98.696 10.218 98.88 10.168 99.096 10.168 99.344 10.168 99.596 10.218 99.816 10.318 100.004 10.418 100.188 10.552 100.33 10.72 100.43 10.888 100.526 11.074 100.574 11.278 100.574 11.482 100.574 11.668 100.526 11.836 100.43 12.008 100.33 12.144 100.188 12.244 100.004 12.344 99.816 12.394 99.598 12.394 99.35 Z M15.5 97.652 C15.748 97.652 15.972 97.706 16.172 97.814 16.372 97.918 16.528 98.076 16.64 98.288 16.756 98.5 16.814 98.758 16.814 99.062 L16.814 101 16.274 101 16.274 99.14 C16.274 98.812 16.192 98.562 16.028 98.39 15.864 98.214 15.64 98.126 15.356 98.126 15.068 98.126 14.838 98.216 14.666 98.396 14.498 98.576 14.414 98.838 14.414 99.182 L14.414 101 13.868 101 13.868 96.56 14.414 96.56 14.414 98.18 C14.522 98.012 14.67 97.882 14.858 97.79 15.05 97.698 15.264 97.652 15.5 97.652 Z M18.372 98.162 L18.372 100.1 C18.372 100.26 18.406 100.374 18.474 100.442 18.542 100.506 18.66 100.538 18.828 100.538 L19.23 100.538 19.23 101 18.738 101 C18.434 101 18.206 100.93 18.054 100.79 17.902 100.65 17.826 100.42 17.826 100.1 L17.826 98.162 17.4 98.162 17.4 97.712 17.826 97.712 17.826 96.884 18.372 96.884 18.372 97.712 19.23 97.712 19.23 98.162 Z M21.269 100.034 L21.269 99.62 23.375 96.704 24.029 96.704 24.029 99.56 24.629 99.56 24.629 100.034 24.029 100.034 24.029 101 23.489 101 23.489 100.034 Z M23.513 97.274 L21.899 99.56 23.513 99.56 Z M25.031 97.16 L25.031 96.662 26.159 96.662 26.159 101 25.607 101 25.607 97.16 Z M28.582 99.35 C28.582 99.01 28.65 98.714 28.786 98.462 28.922 98.206 29.11 98.008 29.35 97.868 29.594 97.728 29.872 97.658 30.184 97.658 30.588 97.658 30.92 97.756 31.18 97.952 31.444 98.148 31.618 98.42 31.702 98.768 L31.114 98.768 C31.058 98.568 30.948 98.41 30.784 98.294 30.624 98.178 30.424 98.12 30.184 98.12 29.872 98.12 29.62 98.228 29.428 98.444 29.236 98.656 29.14 98.958 29.14 99.35 29.14 99.746 29.236 100.052 29.428 100.268 29.62 100.484 29.872 100.592 30.184 100.592 30.424 100.592 30.624 100.536 30.784 100.424 30.944 100.312 31.054 100.152 31.114 99.944 L31.702 99.944 C31.614 100.28 31.438 100.55 31.174 100.754 30.91 100.954 30.58 101.054 30.184 101.054 29.872 101.054 29.594 100.984 29.35 100.844 29.11 100.704 28.922 100.506 28.786 100.25 28.65 99.994 28.582 99.694 28.582 99.35 Z M36.385 97.652 C36.641 97.652 36.869 97.706 37.069 97.814 37.269 97.918 37.427 98.076 37.543 98.288 37.659 98.5 37.717 98.758 37.717 99.062 L37.717 101 37.177 101 37.177 99.14 C37.177 98.812 37.095 98.562 36.931 98.39 36.771 98.214 36.553 98.126 36.277 98.126 35.993 98.126 35.767 98.218 35.599 98.402 35.431 98.582 35.347 98.844 35.347 99.188 L35.347 101 34.807 101 34.807 99.14 C34.807 98.812 34.725 98.562 34.561 98.39 34.401 98.214 34.183 98.126 33.907 98.126 33.623 98.126 33.397 98.218 33.229 98.402 33.061 98.582 32.977 98.844 32.977 99.188 L32.977 101 32.431 101 32.431 97.712 32.977 97.712 32.977 98.186 C33.085 98.014 33.229 97.882 33.409 97.79 33.593 97.698 33.795 97.652 34.015 97.652 34.291 97.652 34.535 97.714 34.747 97.838 34.959 97.962 35.117 98.144 35.221 98.384 35.313 98.152 35.465 97.972 35.677 97.844 35.889 97.716 36.125 97.652 36.385 97.652 Z" fill="#333333" fill-opacity="1" stroke="none"/>
 <path id="Path-8" d="M55.718 176.818 L54.506 181 53.894 181 52.922 177.634 51.914 181 51.308 181.006 50.138 176.818 50.72 176.818 51.632 180.364 52.64 176.818 53.252 176.818 54.212 180.352 55.13 176.818 Z M56.597 177.178 C56.493 177.178 56.405 177.142 56.333 177.07 56.261 176.998 56.225 176.91 56.225 176.806 56.225 176.702 56.261 176.614 56.333 176.542 56.405 176.47 56.493 176.434 56.597 176.434 56.697 176.434 56.781 176.47 56.849 176.542 56.921 176.614 56.957 176.702 56.957 176.806 56.957 176.91 56.921 176.998 56.849 177.07 56.781 177.142 56.697 177.178 56.597 177.178 Z M56.861 177.712 L56.861 181 56.315 181 56.315 177.712 Z M57.588 179.344 C57.588 179.008 57.656 178.714 57.792 178.462 57.928 178.206 58.114 178.008 58.35 177.868 58.59 177.728 58.858 177.658 59.154 177.658 59.41 177.658 59.648 177.718 59.868 177.838 60.088 177.954 60.256 178.108 60.372 178.3 L60.372 176.56 60.924 176.56 60.924 181 60.372 181 60.372 180.382 C60.264 180.578 60.104 180.74 59.892 180.868 59.68 180.992 59.432 181.054 59.148 181.054 58.856 181.054 58.59 180.982 58.35 180.838 58.114 180.694 57.928 180.492 57.792 180.232 57.656 179.972 57.588 179.676 57.588 179.344 Z M60.372 179.35 C60.372 179.102 60.322 178.886 60.222 178.702 60.122 178.518 59.986 178.378 59.814 178.282 59.646 178.182 59.46 178.132 59.256 178.132 59.052 178.132 58.866 178.18 58.698 178.276 58.53 178.372 58.396 178.512 58.296 178.696 58.196 178.88 58.146 179.096 58.146 179.344 58.146 179.596 58.196 179.816 58.296 180.004 58.396 180.188 58.53 180.33 58.698 180.43 58.866 180.526 59.052 180.574 59.256 180.574 59.46 180.574 59.646 180.526 59.814 180.43 59.986 180.33 60.122 180.188 60.222 180.004 60.322 179.816 60.372 179.598 60.372 179.35 Z M62.513 178.162 L62.513 180.1 C62.513 180.26 62.547 180.374 62.615 180.442 62.683 180.506 62.801 180.538 62.969 180.538 L63.371 180.538 63.371 181 62.879 181 C62.575 181 62.347 180.93 62.195 180.79 62.043 180.65 61.967 180.42 61.967 180.1 L61.967 178.162 61.541 178.162 61.541 177.712 61.967 177.712 61.967 176.884 62.513 176.884 62.513 177.712 63.371 177.712 63.371 178.162 Z M65.664 177.652 C65.912 177.652 66.136 177.706 66.336 177.814 66.536 177.918 66.692 178.076 66.804 178.288 66.92 178.5 66.978 178.758 66.978 179.062 L66.978 181 66.438 181 66.438 179.14 C66.438 178.812 66.356 178.562 66.192 178.39 66.028 178.214 65.804 178.126 65.52 178.126 65.232 178.126 65.002 178.216 64.83 178.396 64.662 178.576 64.578 178.838 64.578 179.182 L64.578 181 64.032 181 64.032 176.56 64.578 176.56 64.578 178.18 C64.686 178.012 64.834 177.882 65.022 177.79 65.214 177.698 65.428 177.652 65.664 177.652 Z M69.248 180.034 L69.248 179.62 71.354 176.704 72.008 176.704 72.008 179.56 72.608 179.56 72.608 180.034 72.008 180.034 72.008 181 71.468 181 71.468 180.034 Z M71.492 177.274 L69.878 179.56 71.492 179.56 Z M73.009 177.16 L73.009 176.662 74.137 176.662 74.137 181 73.585 181 73.585 177.16 Z M76.561 179.35 C76.561 179.01 76.629 178.714 76.765 178.462 76.901 178.206 77.089 178.008 77.329 177.868 77.573 177.728 77.851 177.658 78.163 177.658 78.567 177.658 78.899 177.756 79.159 177.952 79.423 178.148 79.597 178.42 79.681 178.768 L79.093 178.768 C79.037 178.568 78.927 178.41 78.763 178.294 78.603 178.178 78.403 178.12 78.163 178.12 77.851 178.12 77.599 178.228 77.407 178.444 77.215 178.656 77.119 178.958 77.119 179.35 77.119 179.746 77.215 180.052 77.407 180.268 77.599 180.484 77.851 180.592 78.163 180.592 78.403 180.592 78.603 180.536 78.763 180.424 78.923 180.312 79.033 180.152 79.093 179.944 L79.681 179.944 C79.593 180.28 79.417 180.55 79.153 180.754 78.889 180.954 78.559 181.054 78.163 181.054 77.851 181.054 77.573 180.984 77.329 180.844 77.089 180.704 76.901 180.506 76.765 180.25 76.629 179.994 76.561 179.694 76.561 179.35 Z M84.363 177.652 C84.619 177.652 84.847 177.706 85.047 177.814 85.247 177.918 85.405 178.076 85.521 178.288 85.637 178.5 85.695 178.758 85.695 179.062 L85.695 181 85.155 181 85.155 179.14 C85.155 178.812 85.073 178.562 84.909 178.39 84.749 178.214 84.531 178.126 84.255 178.126 83.971 178.126 83.745 178.218 83.577 178.402 83.409 178.582 83.325 178.844 83.325 179.188 L83.325 181 82.785 181 82.785 179.14 C82.785 178.812 82.703 178.562 82.539 178.39 82.379 178.214 82.161 178.126 81.885 178.126 81.601 178.126 81.375 178.218 81.207 178.402 81.039 178.582 80.955 178.844 80.955 179.188 L80.955 181 80.409 181 80.409 177.712 80.955 177.712 80.955 178.186 C81.063 178.014 81.207 177.882 81.387 177.79 81.571 177.698 81.773 177.652 81.993 177.652 82.269 177.652 82.513 177.714 82.725 177.838 82.937 177.962 83.095 178.144 83.199 178.384 83.291 178.152 83.443 177.972 83.655 177.844 83.867 177.716 84.103 177.652 84.363 177.652 Z" fill="#333333" fill-opacity="1" stroke="none"/>
 <path id="Path-9" d="M47.764 15.818 C48.22 15.818 48.614 15.904 48.946 16.076 49.282 16.244 49.538 16.486 49.714 16.802 49.894 17.118 49.984 17.49 49.984 17.918 49.984 18.346 49.894 18.718 49.714 19.034 49.538 19.346 49.282 19.586 48.946 19.754 48.614 19.918 48.22 20 47.764 20 L46.462 20 46.462 15.818 Z M47.764 19.55 C48.304 19.55 48.716 19.408 49 19.124 49.284 18.836 49.426 18.434 49.426 17.918 49.426 17.398 49.282 16.992 48.994 16.7 48.71 16.408 48.3 16.262 47.764 16.262 L47.008 16.262 47.008 19.55 Z M53.704 18.23 C53.704 18.334 53.698 18.444 53.686 18.56 L51.058 18.56 C51.078 18.884 51.188 19.138 51.388 19.322 51.592 19.502 51.838 19.592 52.126 19.592 52.362 19.592 52.558 19.538 52.714 19.43 52.874 19.318 52.986 19.17 53.05 18.986 L53.638 18.986 C53.55 19.302 53.374 19.56 53.11 19.76 52.846 19.956 52.518 20.054 52.126 20.054 51.814 20.054 51.534 19.984 51.286 19.844 51.042 19.704 50.85 19.506 50.71 19.25 50.57 18.99 50.5 18.69 50.5 18.35 50.5 18.01 50.568 17.712 50.704 17.456 50.84 17.2 51.03 17.004 51.274 16.868 51.522 16.728 51.806 16.658 52.126 16.658 52.438 16.658 52.714 16.726 52.954 16.862 53.194 16.998 53.378 17.186 53.506 17.426 53.638 17.662 53.704 17.93 53.704 18.23 Z M53.14 18.116 C53.14 17.908 53.094 17.73 53.002 17.582 52.91 17.43 52.784 17.316 52.624 17.24 52.468 17.16 52.294 17.12 52.102 17.12 51.826 17.12 51.59 17.208 51.394 17.384 51.202 17.56 51.092 17.804 51.064 18.116 Z M54.971 17.318 C55.079 17.13 55.239 16.974 55.451 16.85 55.667 16.722 55.917 16.658 56.201 16.658 56.493 16.658 56.757 16.728 56.993 16.868 57.233 17.008 57.421 17.206 57.557 17.462 57.693 17.714 57.761 18.008 57.761 18.344 57.761 18.676 57.693 18.972 57.557 19.232 57.421 19.492 57.233 19.694 56.993 19.838 56.757 19.982 56.493 20.054 56.201 20.054 55.921 20.054 55.673 19.992 55.457 19.868 55.245 19.74 55.083 19.582 54.971 19.394 L54.971 21.56 54.425 21.56 54.425 16.712 54.971 16.712 Z M57.203 18.344 C57.203 18.096 57.153 17.88 57.053 17.696 56.953 17.512 56.817 17.372 56.645 17.276 56.477 17.18 56.291 17.132 56.087 17.132 55.887 17.132 55.701 17.182 55.529 17.282 55.361 17.378 55.225 17.52 55.121 17.708 55.021 17.892 54.971 18.106 54.971 18.35 54.971 18.598 55.021 18.816 55.121 19.004 55.225 19.188 55.361 19.33 55.529 19.43 55.701 19.526 55.887 19.574 56.087 19.574 56.291 19.574 56.477 19.526 56.645 19.43 56.817 19.33 56.953 19.188 57.053 19.004 57.153 18.816 57.203 18.596 57.203 18.344 Z M59.146 17.162 L59.146 19.1 C59.146 19.26 59.18 19.374 59.248 19.442 59.316 19.506 59.434 19.538 59.602 19.538 L60.004 19.538 60.004 20 59.512 20 C59.208 20 58.98 19.93 58.828 19.79 58.676 19.65 58.6 19.42 58.6 19.1 L58.6 17.162 58.174 17.162 58.174 16.712 58.6 16.712 58.6 15.884 59.146 15.884 59.146 16.712 60.004 16.712 60.004 17.162 Z M64.941 16.136 L62.835 16.136 62.835 17.504 C62.927 17.376 63.063 17.272 63.243 17.192 63.423 17.108 63.617 17.066 63.825 17.066 64.157 17.066 64.427 17.136 64.635 17.276 64.843 17.412 64.991 17.59 65.079 17.81 65.171 18.026 65.217 18.256 65.217 18.5 65.217 18.788 65.163 19.046 65.055 19.274 64.947 19.502 64.781 19.682 64.557 19.814 64.337 19.946 64.063 20.012 63.735 20.012 63.315 20.012 62.975 19.904 62.715 19.688 62.455 19.472 62.297 19.184 62.241 18.824 L62.775 18.824 C62.827 19.052 62.937 19.23 63.105 19.358 63.273 19.486 63.485 19.55 63.741 19.55 64.057 19.55 64.295 19.456 64.455 19.268 64.615 19.076 64.695 18.824 64.695 18.512 64.695 18.2 64.615 17.96 64.455 17.792 64.295 17.62 64.059 17.534 63.747 17.534 63.535 17.534 63.349 17.586 63.189 17.69 63.033 17.79 62.919 17.928 62.847 18.104 L62.331 18.104 62.331 15.656 64.941 15.656 Z M65.798 16.16 L65.798 15.662 66.926 15.662 66.926 20 66.374 20 66.374 16.16 Z M69.35 18.35 C69.35 18.01 69.418 17.714 69.554 17.462 69.69 17.206 69.878 17.008 70.118 16.868 70.362 16.728 70.64 16.658 70.952 16.658 71.356 16.658 71.688 16.756 71.948 16.952 72.212 17.148 72.386 17.42 72.47 17.768 L71.882 17.768 C71.826 17.568 71.716 17.41 71.552 17.294 71.392 17.178 71.192 17.12 70.952 17.12 70.64 17.12 70.388 17.228 70.196 17.444 70.004 17.656 69.908 17.958 69.908 18.35 69.908 18.746 70.004 19.052 70.196 19.268 70.388 19.484 70.64 19.592 70.952 19.592 71.192 19.592 71.392 19.536 71.552 19.424 71.712 19.312 71.822 19.152 71.882 18.944 L72.47 18.944 C72.382 19.28 72.206 19.55 71.942 19.754 71.678 19.954 71.348 20.054 70.952 20.054 70.64 20.054 70.362 19.984 70.118 19.844 69.878 19.704 69.69 19.506 69.554 19.25 69.418 18.994 69.35 18.694 69.35 18.35 Z M77.152 16.652 C77.408 16.652 77.636 16.706 77.836 16.814 78.036 16.918 78.194 17.076 78.31 17.288 78.426 17.5 78.484 17.758 78.484 18.062 L78.484 20 77.944 20 77.944 18.14 C77.944 17.812 77.862 17.562 77.698 17.39 77.538 17.214 77.32 17.126 77.044 17.126 76.76 17.126 76.534 17.218 76.366 17.402 76.198 17.582 76.114 17.844 76.114 18.188 L76.114 20 75.574 20 75.574 18.14 C75.574 17.812 75.492 17.562 75.328 17.39 75.168 17.214 74.95 17.126 74.674 17.126 74.39 17.126 74.164 17.218 73.996 17.402 73.828 17.582 73.744 17.844 73.744 18.188 L73.744 20 73.198 20 73.198 16.712 73.744 16.712 73.744 17.186 C73.852 17.014 73.996 16.882 74.176 16.79 74.36 16.698 74.562 16.652 74.782 16.652 75.058 16.652 75.302 16.714 75.514 16.838 75.726 16.962 75.884 17.144 75.988 17.384 76.08 17.152 76.232 16.972 76.444 16.844 76.656 16.716 76.892 16.652 77.152 16.652 Z" fill="#333333" fill-opacity="1" stroke="none"/>
 <path id="Path-10" d="M22.669 90.158 L22.336 62.158" fill="none" stroke="#989898" stroke-width="1" stroke-opacity="1" stroke-linejoin="round" stroke-linecap="round"/>
 <path id="Path-11" d="M22.669 137.71 L22.336 109.71" fill="none" stroke="#989898" stroke-width="1" stroke-opacity="1" stroke-linejoin="round" stroke-linecap="round"/>
 <path id="Path-12" d="M17.583 61.658 L27.093 61.658" fill="none" stroke="#989898" stroke-width="1" stroke-opacity="1" stroke-linejoin="round" stroke-linecap="round"/>
 <path id="Path-13" d="M17.581 137.741 L27.091 137.741" fill="none" stroke="#989898" stroke-width="1" stroke-opacity="1" stroke-linejoin="round" stroke-linecap="round"/>
 <path id="Path-14" d="M88.308 19.331 L115.695 4.982" fill="none" stroke="#989898" stroke-width="1" stroke-opacity="1" stroke-linejoin="round" stroke-linecap="round"/>
 <path id="Path-15" d="M32.005 48.059 L60.248 33.273" fill="none" stroke="#989898" stroke-width="1" stroke-opacity="1" stroke-linejoin="round" stroke-linecap="round"/>
 <path id="Path-16" d="M113.975 0.52 L118.297 8.991" fill="none" stroke="#989898" stroke-width="1" stroke-opacity="1" stroke-linejoin="round" stroke-linecap="round"/>
 <path id="Path-17" d="M29.548 43.601 L33.871 52.072" fill="none" stroke="#989898" stroke-width="1" stroke-opacity="1" stroke-linejoin="round" stroke-linecap="round"/>
 <path id="Path-18" d="M62.783 173.892 L29.127 157.03" fill="none" stroke="#989898" stroke-width="1" stroke-opacity="1" stroke-linejoin="round" stroke-linecap="round"/>
 <path id="Path-19" d="M119.689 203.033 L86.033 186.17" fill="none" stroke="#989898" stroke-width="1" stroke-opacity="1" stroke-linejoin="round" stroke-linecap="round"/>
 <path id="Path-20" d="M26.517 161.033 L30.852 152.568" fill="none" stroke="#989898" stroke-width="1" stroke-opacity="1" stroke-linejoin="round" stroke-linecap="round"/>
 <path id="Path-21" d="M117.555 207.66 L121.89 199.195" fill="none" stroke="#989898" stroke-width="1" stroke-opacity="1" stroke-linejoin="round" stroke-linecap="round"/>
</svg>
