<svg width="15" height="15" viewBox="0 0 15 15" fill="none" xmlns="http://www.w3.org/2000/svg">
<path fill-rule="evenodd" clip-rule="evenodd" d="M7.5 13.75C4.05375 13.75 1.25 10.9469 1.25 7.5C1.25 4.05312 4.05375 1.25 7.5 1.25C10.9462 1.25 13.75 4.05312 13.75 7.5C13.75 10.9469 10.9462 13.75 7.5 13.75ZM7.5 0C3.36437 0 0 3.36563 0 7.5C0 11.6344 3.36437 15 7.5 15C11.6356 15 15 11.6344 15 7.5C15 3.36563 11.6356 0 7.5 0Z" fill="#333333"/>
<path fill-rule="evenodd" clip-rule="evenodd" d="M10.4419 4.55937C10.1982 4.31562 9.80192 4.31562 9.55817 4.55937L7.50004 6.61562L5.44192 4.55937C5.19817 4.31562 4.80192 4.31562 4.55817 4.55937C4.31411 4.80312 4.31411 5.19687 4.55817 5.44374L6.61629 7.49999L4.55817 9.55937C4.31411 9.80312 4.31411 10.1969 4.55817 10.4437C4.68004 10.5656 4.84004 10.625 5.00004 10.625C5.16004 10.625 5.32004 10.5656 5.44192 10.4437L7.50004 8.38437L9.55817 10.4437C9.68004 10.5656 9.84004 10.625 10 10.625C10.16 10.625 10.32 10.5656 10.4419 10.4437C10.686 10.1969 10.686 9.80312 10.4419 9.55937L8.38379 7.49999L10.4419 5.44374C10.686 5.19687 10.686 4.80312 10.4419 4.55937Z" fill="#333333"/>
</svg>
