<svg width="20" height="21" viewBox="0 0 20 21" fill="none" xmlns="http://www.w3.org/2000/svg">
<path fill-rule="evenodd" clip-rule="evenodd" d="M3.48749 6.38656H2.49999C2.03916 6.38656 1.66666 6.01406 1.66666 5.55322C1.66666 5.09239 2.03916 4.71989 2.49999 4.71989H3.48749C3.83249 3.75239 4.74832 3.05322 5.83332 3.05322C6.91832 3.05322 7.83416 3.75239 8.17916 4.71989H17.5C17.9608 4.71989 18.3333 5.09239 18.3333 5.55322C18.3333 6.01406 17.9608 6.38656 17.5 6.38656H8.17916C7.83416 7.35406 6.91832 8.05322 5.83332 8.05322C4.74832 8.05322 3.83249 7.35406 3.48749 6.38656ZM5.83332 4.7199C6.29332 4.7199 6.66666 5.09323 6.66666 5.55323C6.66666 6.01323 6.29332 6.38656 5.83332 6.38656C5.37332 6.38656 4.99999 6.01323 4.99999 5.55323C4.99999 5.09323 5.37332 4.7199 5.83332 4.7199ZM13.4875 9.71989C13.8325 8.75239 14.7483 8.05322 15.8333 8.05322C17.2117 8.05322 18.3333 9.17489 18.3333 10.5532C18.3333 11.9316 17.2117 13.0532 15.8333 13.0532C14.7483 13.0532 13.8325 12.3541 13.4875 11.3866H2.49999C2.03916 11.3866 1.66666 11.0141 1.66666 10.5532C1.66666 10.0924 2.03916 9.71989 2.49999 9.71989H13.4875ZM15.8333 11.3866C15.3733 11.3866 15 11.0132 15 10.5532C15 10.0932 15.3733 9.7199 15.8333 9.7199C16.2933 9.7199 16.6667 10.0932 16.6667 10.5532C16.6667 11.0132 16.2933 11.3866 15.8333 11.3866ZM11.5125 14.7199H17.5C17.9608 14.7199 18.3333 15.0924 18.3333 15.5532C18.3333 16.0141 17.9608 16.3866 17.5 16.3866H11.5125C11.1675 17.3541 10.2517 18.0532 9.16666 18.0532C8.08166 18.0532 7.16582 17.3541 6.82082 16.3866H2.49999C2.03916 16.3866 1.66666 16.0141 1.66666 15.5532C1.66666 15.0924 2.03916 14.7199 2.49999 14.7199H6.82082C7.16582 13.7524 8.08166 13.0532 9.16666 13.0532C10.2517 13.0532 11.1675 13.7524 11.5125 14.7199ZM8.33332 15.5532C8.33332 16.0132 8.70666 16.3866 9.16666 16.3866C9.62666 16.3866 9.99999 16.0132 9.99999 15.5532C9.99999 15.0932 9.62666 14.7199 9.16666 14.7199C8.70666 14.7199 8.33332 15.0932 8.33332 15.5532Z" fill="white"/>
<mask id="mask0" mask-type="alpha" maskUnits="userSpaceOnUse" x="1" y="3" width="18" height="16">
<path fill-rule="evenodd" clip-rule="evenodd" d="M3.48749 6.38656H2.49999C2.03916 6.38656 1.66666 6.01406 1.66666 5.55322C1.66666 5.09239 2.03916 4.71989 2.49999 4.71989H3.48749C3.83249 3.75239 4.74832 3.05322 5.83332 3.05322C6.91832 3.05322 7.83416 3.75239 8.17916 4.71989H17.5C17.9608 4.71989 18.3333 5.09239 18.3333 5.55322C18.3333 6.01406 17.9608 6.38656 17.5 6.38656H8.17916C7.83416 7.35406 6.91832 8.05322 5.83332 8.05322C4.74832 8.05322 3.83249 7.35406 3.48749 6.38656ZM5.83332 4.7199C6.29332 4.7199 6.66666 5.09323 6.66666 5.55323C6.66666 6.01323 6.29332 6.38656 5.83332 6.38656C5.37332 6.38656 4.99999 6.01323 4.99999 5.55323C4.99999 5.09323 5.37332 4.7199 5.83332 4.7199ZM13.4875 9.71989C13.8325 8.75239 14.7483 8.05322 15.8333 8.05322C17.2117 8.05322 18.3333 9.17489 18.3333 10.5532C18.3333 11.9316 17.2117 13.0532 15.8333 13.0532C14.7483 13.0532 13.8325 12.3541 13.4875 11.3866H2.49999C2.03916 11.3866 1.66666 11.0141 1.66666 10.5532C1.66666 10.0924 2.03916 9.71989 2.49999 9.71989H13.4875ZM15.8333 11.3866C15.3733 11.3866 15 11.0132 15 10.5532C15 10.0932 15.3733 9.7199 15.8333 9.7199C16.2933 9.7199 16.6667 10.0932 16.6667 10.5532C16.6667 11.0132 16.2933 11.3866 15.8333 11.3866ZM11.5125 14.7199H17.5C17.9608 14.7199 18.3333 15.0924 18.3333 15.5532C18.3333 16.0141 17.9608 16.3866 17.5 16.3866H11.5125C11.1675 17.3541 10.2517 18.0532 9.16666 18.0532C8.08166 18.0532 7.16582 17.3541 6.82082 16.3866H2.49999C2.03916 16.3866 1.66666 16.0141 1.66666 15.5532C1.66666 15.0924 2.03916 14.7199 2.49999 14.7199H6.82082C7.16582 13.7524 8.08166 13.0532 9.16666 13.0532C10.2517 13.0532 11.1675 13.7524 11.5125 14.7199ZM8.33332 15.5532C8.33332 16.0132 8.70666 16.3866 9.16666 16.3866C9.62666 16.3866 9.99999 16.0132 9.99999 15.5532C9.99999 15.0932 9.62666 14.7199 9.16666 14.7199C8.70666 14.7199 8.33332 15.0932 8.33332 15.5532Z" fill="white"/>
</mask>
<g mask="url(#mask0)">
</g>
</svg>
