<svg width="22" height="22" viewBox="0 0 22 22" fill="none" xmlns="http://www.w3.org/2000/svg">
<path d="M7.33333 8.53645C7.33333 6.51141 8.97496 4.86978 11 4.86978C13.025 4.86978 14.6667 6.51141 14.6667 8.53645C14.6667 10.245 13.4981 11.6806 11.9167 12.0876V13.1198C11.9167 13.626 11.5063 14.0364 11 14.0364C10.4937 14.0364 10.0833 13.626 10.0833 13.1198V11.2864C10.0833 10.7802 10.4937 10.3698 11 10.3698C12.0125 10.3698 12.8333 9.54897 12.8333 8.53645C12.8333 7.52393 12.0125 6.70311 11 6.70311C9.98748 6.70311 9.16666 7.52393 9.16666 8.53645C9.16666 9.04271 8.75626 9.45311 8.25 9.45311C7.74374 9.45311 7.33333 9.04271 7.33333 8.53645Z" fill="#EA5B21"/>
<path d="M12.1458 16.0989C12.1458 16.7318 11.6328 17.2448 11 17.2448C10.3672 17.2448 9.85416 16.7318 9.85416 16.0989C9.85416 15.4661 10.3672 14.9531 11 14.9531C11.6328 14.9531 12.1458 15.4661 12.1458 16.0989Z" fill="#EA5B21"/>
<path fill-rule="evenodd" clip-rule="evenodd" d="M3.87001 3.86999C5.69375 2.04628 8.21583 0.916656 11 0.916656C13.7842 0.916656 16.3062 2.04628 18.13 3.86999C19.9537 5.69373 21.0833 8.21582 21.0833 11C21.0833 13.7842 19.9537 16.3062 18.13 18.13C16.3063 19.9537 13.7842 21.0833 11 21.0833C8.21583 21.0833 5.69374 19.9537 3.87001 18.13C2.04629 16.3062 0.916664 13.7842 0.916664 11C0.916664 8.21583 2.0463 5.69373 3.87001 3.86999ZM11 2.74999C8.72159 2.74999 6.66035 3.6724 5.16636 5.16636C3.6724 6.66035 2.75 8.72159 2.75 11C2.75 13.2784 3.67241 15.3396 5.16637 16.8336C6.66035 18.3276 8.7216 19.25 11 19.25C13.2784 19.25 15.3396 18.3276 16.8336 16.8336C18.3276 15.3396 19.25 13.2784 19.25 11C19.25 8.72159 18.3276 6.66034 16.8336 5.16636C15.3396 3.6724 13.2784 2.74999 11 2.74999Z" fill="#EA5B21"/>
</svg>
