<svg xmlns="http://www.w3.org/2000/svg" fill="none" viewBox="0.72 0 14 13.89">
<path fill-rule="evenodd" clip-rule="evenodd" d="M7.71873 4.25C6.21109 4.25 4.98907 5.46023 4.98907 6.95642C4.98907 8.4526 6.21109 9.66572 7.71873 9.66572C9.22637 9.66572 10.4484 8.4526 10.4484 6.95642C10.4484 5.46023 9.22637 4.25 7.71873 4.25ZM7.71861 5.40419C8.58161 5.40419 9.28361 6.10029 9.28361 6.95525C9.28361 7.8131 8.58161 8.5092 7.71861 8.5092C6.8556 8.5092 6.1536 7.8131 6.1536 6.95525C6.1536 6.10029 6.8556 5.40419 7.71861 5.40419Z" fill="#989898"/>
<path fill-rule="evenodd" clip-rule="evenodd" d="M7.71879 11.3582C5.2704 11.3582 3.27856 9.38251 3.27856 6.95337C3.27856 4.52424 5.2704 2.54859 7.71879 2.54859C10.1672 2.54859 12.159 4.52424 12.159 6.95337C12.159 9.38251 10.1672 11.3582 7.71879 11.3582ZM14.136 6.366H13.2913C13.0144 3.76357 10.9271 1.69548 8.3008 1.42686V0.577677C8.3008 0.257066 8.03991 0 7.71847 0C7.39702 0 7.13614 0.257066 7.13614 0.577677V1.42686C4.50985 1.69548 2.4225 3.76357 2.1456 6.366H1.30065C0.979205 6.366 0.718323 6.62596 0.718323 6.94368C0.718323 7.2614 0.979205 7.52136 1.30065 7.52136H2.1424C2.40882 10.1353 4.5017 12.215 7.13614 12.4865V13.3097C7.13614 13.6303 7.39702 13.8874 7.71847 13.8874C8.03991 13.8874 8.3008 13.6303 8.3008 13.3097V12.4865C10.9352 12.215 13.0281 10.1353 13.2945 7.52136H14.136C14.4577 7.52136 14.7183 7.2614 14.7183 6.94368C14.7183 6.62596 14.4577 6.366 14.136 6.366Z" fill="#989898"/>
</svg>