<svg width="16" height="16" viewBox="0 0 16 16" fill="none" xmlns="http://www.w3.org/2000/svg">
<path fill-rule="evenodd" clip-rule="evenodd" d="M2.66666 6.61471C2.66666 3.70204 5.05932 1.33337 7.99999 1.33337C10.9407 1.33337 13.3333 3.70204 13.3333 6.61471C13.3333 10.2647 8.63399 14.334 8.43399 14.5054C8.30866 14.6127 8.15466 14.6667 7.99999 14.6667C7.84532 14.6667 7.69132 14.6127 7.56599 14.5054C7.36599 14.334 2.66666 10.2647 2.66666 6.61471ZM7.99999 13.0974C6.88332 12.0414 3.99999 9.07671 3.99999 6.61471C3.99999 4.43804 5.79399 2.66671 7.99999 2.66671C10.206 2.66671 12 4.43804 12 6.61471C12 9.07671 9.11666 12.0414 7.99999 13.0974ZM5.66666 6.33304C5.66666 5.04637 6.71332 3.9997 7.99999 3.9997C9.28666 3.9997 10.3333 5.04637 10.3333 6.33304C10.3333 7.6197 9.28666 8.66637 7.99999 8.66637C6.71332 8.66637 5.66666 7.6197 5.66666 6.33304ZM6.99999 6.33304C6.99999 6.88437 7.44866 7.33304 7.99999 7.33304C8.55132 7.33304 8.99999 6.88437 8.99999 6.33304C8.99999 5.7817 8.55132 5.33304 7.99999 5.33304C7.44866 5.33304 6.99999 5.7817 6.99999 6.33304Z" fill="#333333"/>
<mask id="mask0" mask-type="alpha" maskUnits="userSpaceOnUse" x="2" y="1" width="12" height="14">
<path fill-rule="evenodd" clip-rule="evenodd" d="M2.66666 6.61471C2.66666 3.70204 5.05932 1.33337 7.99999 1.33337C10.9407 1.33337 13.3333 3.70204 13.3333 6.61471C13.3333 10.2647 8.63399 14.334 8.43399 14.5054C8.30866 14.6127 8.15466 14.6667 7.99999 14.6667C7.84532 14.6667 7.69132 14.6127 7.56599 14.5054C7.36599 14.334 2.66666 10.2647 2.66666 6.61471ZM7.99999 13.0974C6.88332 12.0414 3.99999 9.07671 3.99999 6.61471C3.99999 4.43804 5.79399 2.66671 7.99999 2.66671C10.206 2.66671 12 4.43804 12 6.61471C12 9.07671 9.11666 12.0414 7.99999 13.0974ZM5.66666 6.33304C5.66666 5.04637 6.71332 3.9997 7.99999 3.9997C9.28666 3.9997 10.3333 5.04637 10.3333 6.33304C10.3333 7.6197 9.28666 8.66637 7.99999 8.66637C6.71332 8.66637 5.66666 7.6197 5.66666 6.33304ZM6.99999 6.33304C6.99999 6.88437 7.44866 7.33304 7.99999 7.33304C8.55132 7.33304 8.99999 6.88437 8.99999 6.33304C8.99999 5.7817 8.55132 5.33304 7.99999 5.33304C7.44866 5.33304 6.99999 5.7817 6.99999 6.33304Z" fill="white"/>
</mask>
<g mask="url(#mask0)">
</g>
</svg>
