<svg width="20" height="21" viewBox="0 0 20 21" fill="none" xmlns="http://www.w3.org/2000/svg">
<path fill-rule="evenodd" clip-rule="evenodd" d="M2.01589 2.29658C1.75786 2.17749 1.45693 2.19811 1.21755 2.35127C0.978169 2.50443 0.833344 2.76903 0.833344 3.05321V15.5532C0.833344 15.8783 1.02234 16.1736 1.31746 16.3098L6.72759 18.8068C6.77478 18.8291 6.82369 18.8468 6.87362 18.8597C6.99486 18.8913 7.12104 18.8949 7.24271 18.8712C7.30247 18.8595 7.36113 18.8413 7.41758 18.8166L12.9041 16.4652L17.9841 18.8098C18.2422 18.9289 18.5431 18.9083 18.7825 18.7552C19.0218 18.602 19.1667 18.3374 19.1667 18.0532V5.55321C19.1667 5.22817 18.9777 4.9328 18.6826 4.79659L13.2701 2.29852C13.2344 2.28179 13.1977 2.2677 13.1603 2.25628C13.0807 2.23194 12.9986 2.21987 12.9166 2.21988C12.8514 2.21988 12.7859 2.22754 12.7217 2.243C12.6745 2.25437 12.628 2.26991 12.583 2.28958L7.09589 4.6412L2.01589 2.29658ZM12.0833 4.31699L7.91668 6.10271V16.7894L12.0833 15.0037V4.31699ZM13.75 15.02L17.5 16.7508V6.0864L13.75 4.35563V15.02ZM2.50001 4.35564L6.25001 6.0864V16.7508L2.50001 15.02V4.35564Z" fill="white"/>
</svg>
