<svg xmlns="http://www.w3.org/2000/svg" fill="none" viewBox="10 5.55 50.95 50.95">
<g filter="url(#filter0_d)">
<circle cx="35.4745" cy="31.0252" r="25.4745" fill="white"/>
</g>
<path d="M37.5974 43.7638C37.5706 43.7638 37.5451 43.7625 37.5197 43.7612C36.9439 43.7268 36.4637 43.309 36.3491 42.7435L34.3901 33.1053C34.2882 32.6034 33.8972 32.2124 33.3953 32.1105L23.7571 30.1502C23.1916 30.0369 22.7738 29.5567 22.7394 28.9809C22.705 28.4039 23.0604 27.8766 23.6081 27.6958L43.9876 20.903C44.4449 20.7476 44.9493 20.8673 45.2906 21.21C45.632 21.5513 45.7505 22.0557 45.5989 22.513L38.8048 42.8925C38.6316 43.416 38.1425 43.7638 37.5974 43.7638Z" fill="#0D1C2E"/>
<mask id="mask0" mask-type="alpha" maskUnits="userSpaceOnUse" x="22" y="20" width="24" height="24">
<path d="M37.5974 43.7638C37.5706 43.7638 37.5451 43.7625 37.5197 43.7612C36.9439 43.7268 36.4637 43.309 36.3491 42.7435L34.3901 33.1053C34.2882 32.6034 33.8972 32.2124 33.3953 32.1105L23.7571 30.1502C23.1916 30.0369 22.7738 29.5567 22.7394 28.9809C22.705 28.4039 23.0604 27.8766 23.6081 27.6958L43.9876 20.903C44.4449 20.7476 44.9493 20.8673 45.2906 21.21C45.632 21.5513 45.7505 22.0557 45.5989 22.513L38.8048 42.8925C38.6316 43.416 38.1425 43.7638 37.5974 43.7638Z" fill="white"/>
</mask>
<g mask="url(#mask0)">
</g>
<defs>
<filter id="filter0_d" x="0" y="0.550781" width="70.9489" height="70.9489" filterUnits="userSpaceOnUse" color-interpolation-filters="sRGB">
<feFlood flood-opacity="0" result="BackgroundImageFix"/>
<feColorMatrix in="SourceAlpha" type="matrix" values="0 0 0 0 0 0 0 0 0 0 0 0 0 0 0 0 0 0 127 0"/>
<feOffset dy="5"/>
<feGaussianBlur stdDeviation="5"/>
<feColorMatrix type="matrix" values="0 0 0 0 0.247059 0 0 0 0 0.317647 0 0 0 0 0.709804 0 0 0 0.1 0"/>
<feBlend mode="normal" in2="BackgroundImageFix" result="effect1_dropShadow"/>
<feBlend mode="normal" in="SourceGraphic" in2="effect1_dropShadow" result="shape"/>
</filter>
</defs>
</svg>