<svg width="16" height="16" viewBox="0 0 16 16" fill="none" xmlns="http://www.w3.org/2000/svg">
<path d="M11.7077 14.0004C11.6024 14.0004 11.4964 13.9758 11.3991 13.9251L7.99972 12.1491L4.60105 13.9251C4.37572 14.0418 4.10372 14.0218 3.89972 13.8724C3.69438 13.7231 3.59238 13.4704 3.63572 13.2204L4.28305 9.46844L1.53638 6.81177C1.35372 6.6351 1.28772 6.36977 1.36572 6.1271C1.44372 5.88577 1.65238 5.7091 1.90438 5.6731L5.70438 5.1211L7.40305 1.70377C7.62839 1.25044 8.37172 1.25044 8.59705 1.70377L10.2957 5.1211L14.0957 5.6731C14.3477 5.7091 14.5564 5.88577 14.6344 6.1271C14.7124 6.36977 14.6464 6.6351 14.4637 6.81177L11.7171 9.46844L12.3644 13.2204C12.4077 13.4704 12.3051 13.7231 12.1004 13.8724C11.9844 13.9578 11.8464 14.0004 11.7077 14.0004Z" fill="#333333"/>
<mask id="mask0" mask-type="alpha" maskUnits="userSpaceOnUse" x="1" y="1" width="14" height="14">
<path d="M11.7077 14.0004C11.6024 14.0004 11.4964 13.9758 11.3991 13.9251L7.99972 12.1491L4.60105 13.9251C4.37572 14.0418 4.10372 14.0218 3.89972 13.8724C3.69438 13.7231 3.59238 13.4704 3.63572 13.2204L4.28305 9.46844L1.53638 6.81177C1.35372 6.6351 1.28772 6.36977 1.36572 6.1271C1.44372 5.88577 1.65238 5.7091 1.90438 5.6731L5.70438 5.1211L7.40305 1.70377C7.62839 1.25044 8.37172 1.25044 8.59705 1.70377L10.2957 5.1211L14.0957 5.6731C14.3477 5.7091 14.5564 5.88577 14.6344 6.1271C14.7124 6.36977 14.6464 6.6351 14.4637 6.81177L11.7171 9.46844L12.3644 13.2204C12.4077 13.4704 12.3051 13.7231 12.1004 13.8724C11.9844 13.9578 11.8464 14.0004 11.7077 14.0004Z" fill="white"/>
</mask>
<g mask="url(#mask0)">
</g>
</svg>
