<svg width="207" height="82" viewBox="0 0 207 82" fill="none" xmlns="http://www.w3.org/2000/svg">
<path d="M112.838 81.3483L197.158 68.5458L186.104 54.4834L195.44 37.4219L116.558 49.0861L112.838 81.3483Z" fill="url(#paint0_linear)"/>
<path d="M157.249 42.9854L112.838 81.3483L116.304 43.6632L153.382 42.9854H157.249Z" fill="url(#paint1_linear)"/>
<path d="M160.861 0.446777L157.249 42.9792L115.833 48.7282L2.59876e-05 64.6386L3.50475e-05 58.5017L4.36306e-05 36.1108L3.50475e-05 21.3449L160.861 0.446777Z" fill="url(#paint2_linear)"/>
<path d="M36.2372 31.407L36.1398 34.1441L32.4329 34.6408L31.9565 46.1459L28.5667 46.6L29.0432 35.0949L25.3562 35.5889L25.4734 32.849L36.2372 31.407ZM43.9842 44.6758C42.808 44.8334 41.7378 44.7279 40.7737 44.3593C39.8228 43.9889 39.0435 43.3938 38.4359 42.5739C37.8283 41.754 37.4475 40.7692 37.2935 39.6194C37.0757 37.994 37.2321 36.5 37.7625 35.1375C38.2912 33.7618 39.1288 32.6339 40.2755 31.7538C41.4353 30.872 42.8081 30.3249 44.394 30.1124C45.5833 29.9531 46.6601 30.0577 47.6242 30.4262C48.5866 30.7816 49.3716 31.3692 49.9792 32.1892C50.585 32.9959 50.964 33.9675 51.1163 35.104C51.3341 36.7294 51.1795 38.2367 50.6526 39.6256C50.1239 41.0013 49.2806 42.1367 48.1225 43.0317C46.9626 43.9135 45.5832 44.4616 43.9842 44.6758ZM44.0799 41.4747C44.9522 41.3579 45.6885 41.0305 46.2891 40.4927C46.8897 39.9548 47.3179 39.2854 47.5738 38.4843C47.8411 37.6682 47.9155 36.8175 47.7969 35.9321C47.6694 34.9806 47.3051 34.2693 46.7039 33.7983C46.1027 33.3273 45.3263 33.1556 44.3748 33.283C43.5026 33.3999 42.7596 33.7281 42.1458 34.2677C41.5453 34.8056 41.1104 35.4759 40.8413 36.2788C40.5836 37.0666 40.515 37.9099 40.6354 38.8085C40.7629 39.76 41.1281 40.4779 41.7311 40.9621C42.3323 41.4331 43.1152 41.604 44.0799 41.4747ZM63.9344 32.2567C63.9102 33.0805 63.6988 33.8622 63.3002 34.6017C62.8997 35.3279 62.3041 35.9526 61.5132 36.4756C60.7355 36.9968 59.7784 37.3335 58.6419 37.4858L56.5406 37.7673L56.3179 42.8822L52.9281 43.3363L53.5219 29.0913L59.0128 28.3557C60.4665 28.1609 61.6067 28.3377 62.4335 28.8861C63.2586 29.4213 63.7446 30.2373 63.8915 31.3342C63.9358 31.6646 63.9501 31.9721 63.9344 32.2567ZM58.4842 34.8029C59.7529 34.633 60.4199 33.9383 60.4852 32.7188C60.4833 32.5038 60.4762 32.3501 60.4638 32.2575C60.4071 31.8347 60.225 31.5295 59.9174 31.342C59.6212 31.1395 59.1956 31.0755 58.6405 31.1498L56.797 31.3968L56.6605 35.0473L58.4842 34.8029ZM80.8923 29.9848C80.8681 30.8086 80.6567 31.5903 80.258 32.3298C79.8576 33.0561 79.2619 33.6807 78.471 34.2037C77.6933 34.7249 76.7363 35.0616 75.5997 35.2139L73.4985 35.4954L73.2757 40.6103L69.886 41.0644L70.4797 26.8194L75.9707 26.0838C77.4244 25.889 78.5646 26.0658 79.3914 26.6142C80.2164 27.1494 80.7024 27.9655 80.8494 29.0623C80.8936 29.3927 80.9079 29.7002 80.8923 29.9848ZM75.4421 32.5311C76.7108 32.3611 77.3778 31.6664 77.4431 30.4469C77.4412 30.2319 77.434 30.0782 77.4216 29.9857C77.365 29.5628 77.1828 29.2576 76.8752 29.0701C76.5791 28.8676 76.1534 28.8036 75.5984 28.8779L73.7549 29.1249L73.6184 32.7754L75.4421 32.5311ZM86.2394 24.708L85.6457 38.953L82.256 39.4072L82.8497 25.1622L86.2394 24.708ZM87.8413 31.556C87.8951 30.1497 88.2401 28.8591 88.8764 27.6842C89.5241 26.4944 90.3896 25.5242 91.4729 24.7737C92.5544 24.01 93.7691 23.5378 95.1171 23.3572C96.769 23.1359 98.1622 23.3932 99.2966 24.1291C100.444 24.8632 101.185 25.9747 101.519 27.4635L97.7923 27.9628C97.5444 27.4176 97.1697 27.0305 96.6682 26.8018C96.1782 26.558 95.6028 26.4804 94.942 26.5689C93.898 26.7088 93.0414 27.1935 92.3723 28.023C91.7014 28.8393 91.3408 29.863 91.2905 31.0939C91.274 31.4728 91.2843 31.801 91.3215 32.0785C91.4455 33.0035 91.8014 33.7025 92.3894 34.1752C92.9774 34.648 93.7207 34.8242 94.6193 34.7038C95.2669 34.6171 95.8478 34.3845 96.3621 34.0062C96.8897 33.6261 97.307 33.1263 97.6141 32.5067L101.341 32.0074C100.882 33.6025 100.043 34.9255 98.8256 35.9766C97.6059 37.0144 96.1701 37.6439 94.5182 37.8652C93.3289 38.0246 92.2605 37.9323 91.3131 37.5884C90.3657 37.2445 89.5975 36.6815 89.0084 35.8995C88.4194 35.1174 88.0496 34.1647 87.8991 33.0415C87.8318 32.5393 87.8126 32.0441 87.8413 31.556ZM110.121 28.4501L115.413 34.9651L111.27 35.5201L106.858 29.8557L106.591 36.1469L103.202 36.601L103.795 22.356L107.185 21.9019L106.933 28.1508L111.843 21.2778L115.808 20.7466L110.121 28.4501ZM122.573 34.1471C121.066 34.3489 119.794 34.1898 118.755 33.6697C117.729 33.1347 117.135 32.2658 116.974 31.0632C116.958 30.9443 116.947 30.7641 116.942 30.5227L120.47 30.05C120.498 30.5575 120.67 30.938 120.986 31.1916C121.303 31.4451 121.745 31.5338 122.313 31.4577C122.829 31.3886 123.217 31.2223 123.477 30.9587C123.751 30.6933 123.861 30.3558 123.806 29.9461C123.749 29.5232 123.511 29.2053 123.093 28.9924C122.687 28.7776 122.066 28.5582 121.229 28.334C120.42 28.1195 119.752 27.9063 119.226 27.6943C118.711 27.4673 118.243 27.1332 117.821 26.6921C117.398 26.2509 117.138 25.6603 117.038 24.9202C116.903 24.0101 117.021 23.1871 117.394 22.4512C117.766 21.7152 118.338 21.114 119.109 20.6474C119.881 20.1808 120.795 19.8767 121.853 19.7351C122.804 19.6076 123.67 19.6463 124.451 19.8511C125.23 20.0426 125.862 20.3951 126.348 20.9085C126.832 21.4087 127.126 22.042 127.228 22.8085C127.255 23.0067 127.268 23.1529 127.267 23.2472L123.659 23.7306C123.665 23.6759 123.661 23.5958 123.647 23.49C123.597 23.12 123.425 22.8404 123.131 22.6511C122.848 22.4469 122.482 22.3749 122.033 22.4351C121.557 22.4988 121.183 22.67 120.911 22.9486C120.65 23.2122 120.547 23.5422 120.6 23.9387C120.653 24.3351 120.883 24.6473 121.29 24.8753C121.696 25.09 122.312 25.3235 123.14 25.5759C123.967 25.8282 124.646 26.0736 125.175 26.3121C125.718 26.5488 126.203 26.9009 126.628 27.3685C127.053 27.8229 127.314 28.4201 127.413 29.1601C127.523 29.9795 127.403 30.7421 127.054 31.4481C126.705 32.1541 126.145 32.747 125.375 33.2268C124.604 33.6933 123.67 34.0001 122.573 34.1471Z" fill="white"/>
<path d="M129.848 60.0173L130.049 61.3584L126.595 61.875L126.913 63.9993L129.559 63.6035L129.756 64.9208L127.11 65.3167L127.634 68.8177L125.972 69.0663L124.733 60.7824L129.848 60.0173ZM136.123 67.6329C135.348 67.7488 134.608 67.6734 133.905 67.4065C133.202 67.1396 132.612 66.7141 132.137 66.13C131.66 65.538 131.361 64.8346 131.239 64.0196C131.118 63.2126 131.2 62.4603 131.483 61.7626C131.766 61.057 132.205 60.4737 132.799 60.0127C133.393 59.5517 134.078 59.2632 134.854 59.1473C135.637 59.0301 136.376 59.1056 137.072 59.3737C137.775 59.6406 138.361 60.0706 138.83 60.6638C139.305 61.2478 139.604 61.9434 139.724 62.7504C139.846 63.5653 139.766 64.3256 139.483 65.0312C139.207 65.7277 138.772 66.3064 138.177 66.7674C137.583 67.2284 136.898 67.5169 136.123 67.6329ZM135.901 66.1494C136.399 66.0748 136.822 65.8984 137.169 65.62C137.514 65.3338 137.762 64.965 137.913 64.5137C138.064 64.0624 138.098 63.5599 138.015 63.006C137.932 62.4522 137.753 61.9855 137.478 61.6061C137.202 61.2187 136.857 60.9426 136.444 60.7779C136.031 60.6132 135.576 60.5681 135.077 60.6426C134.579 60.7172 134.152 60.8942 133.798 61.1737C133.451 61.4521 133.202 61.8169 133.052 62.2682C132.899 62.7116 132.865 63.2102 132.948 63.764C133.031 64.3179 133.21 64.7885 133.486 65.1758C133.763 65.5632 134.108 65.8432 134.522 66.0159C134.943 66.1794 135.403 66.2239 135.901 66.1494ZM145.856 66.0921L143.545 63.1374L142.762 63.2546L143.245 66.4826L141.583 66.7312L140.344 58.4473L143.454 57.9822C144.095 57.8864 144.658 57.9194 145.143 58.0814C145.627 58.2355 146.009 58.4898 146.289 58.8444C146.575 59.1898 146.753 59.5999 146.824 60.0746C146.906 60.6206 146.822 61.1387 146.572 61.6291C146.32 62.1116 145.894 62.4827 145.294 62.7423L147.779 65.8045L145.856 66.0921ZM142.576 62.0084L143.964 61.8007C144.415 61.7333 144.736 61.5762 144.925 61.3294C145.114 61.0747 145.179 60.7535 145.121 60.3659C145.064 59.9861 144.909 59.7099 144.657 59.5373C144.404 59.3568 144.051 59.3003 143.6 59.3678L142.212 59.5755L142.576 62.0084ZM157.362 55.9019L155.369 61.7208L155.8 64.6047L154.139 64.8532L153.707 61.9693L150.087 56.9901L151.962 56.7096L154.309 60.2292L155.511 56.1788L157.362 55.9019ZM163.417 63.5503C162.642 63.6663 161.902 63.5909 161.199 63.324C160.496 63.057 159.906 62.6316 159.431 62.0475C158.954 61.4555 158.655 60.7521 158.533 59.9371C158.412 59.1301 158.494 58.3777 158.778 57.6801C159.06 56.9745 159.499 56.3912 160.093 55.9302C160.687 55.4692 161.372 55.1807 162.148 55.0647C162.931 54.9476 163.67 55.0231 164.366 55.2911C165.069 55.5581 165.655 55.9881 166.124 56.5813C166.599 57.1653 166.898 57.8609 167.018 58.6679C167.14 59.4828 167.06 60.2431 166.777 60.9487C166.501 61.6452 166.066 62.2239 165.472 62.6849C164.877 63.1459 164.192 63.4344 163.417 63.5503ZM163.195 62.0669C163.694 61.9923 164.116 61.8158 164.463 61.5375C164.808 61.2513 165.056 60.8825 165.207 60.4312C165.358 59.9799 165.392 59.4773 165.309 58.9235C165.226 58.3697 165.047 57.903 164.772 57.5235C164.496 57.1362 164.151 56.8601 163.738 56.6954C163.326 56.5306 162.87 56.4856 162.371 56.5601C161.873 56.6347 161.446 56.8117 161.092 57.0912C160.745 57.3696 160.496 57.7344 160.346 58.1857C160.193 58.6291 160.159 59.1277 160.242 59.6815C160.325 60.2353 160.504 60.7059 160.78 61.0933C161.057 61.4807 161.402 61.7607 161.816 61.9334C162.237 62.0969 162.697 62.1414 163.195 62.0669ZM169.276 54.1198L170.043 59.2468C170.127 59.8085 170.338 60.2179 170.676 60.4747C171.012 60.7237 171.446 60.8085 171.976 60.7292C172.514 60.6487 172.907 60.4402 173.156 60.1037C173.404 59.7593 173.486 59.3062 173.402 58.7444L172.635 53.6175L174.308 53.3672L175.073 58.4823C175.179 59.1864 175.114 59.8069 174.879 60.3436C174.65 60.8712 174.297 61.2961 173.819 61.6183C173.35 61.9393 172.802 62.1465 172.177 62.24C171.56 62.3323 170.98 62.2937 170.437 62.1242C169.902 61.9535 169.452 61.6487 169.087 61.2098C168.721 60.7631 168.485 60.1876 168.38 59.4834L167.615 54.3684L169.276 54.1198Z" fill="white"/>
<defs>
<linearGradient id="paint0_linear" x1="48.1517" y1="135.233" x2="165.665" y2="53.5264" gradientUnits="userSpaceOnUse">
<stop stop-color="#D7293B"/>
<stop offset="0.6796" stop-color="#FE425D"/>
<stop offset="1" stop-color="#FF7456"/>
</linearGradient>
<linearGradient id="paint1_linear" x1="133.036" y1="51.4297" x2="83.675" y2="80.7124" gradientUnits="userSpaceOnUse">
<stop stop-color="#D32737"/>
<stop offset="0.6796" stop-color="#FC3A5D"/>
<stop offset="1" stop-color="#FF7456"/>
</linearGradient>
<linearGradient id="paint2_linear" x1="5.70189" y1="93.3795" x2="127.459" y2="-3.90754" gradientUnits="userSpaceOnUse">
<stop stop-color="#C7212C"/>
<stop offset="0.6796" stop-color="#FE3B5E"/>
<stop offset="1" stop-color="#FF7456"/>
</linearGradient>
</defs>
</svg>
