<svg width="207" height="82" viewBox="0 0 207 82" fill="none" xmlns="http://www.w3.org/2000/svg">
<path d="M112.84 81.3483L197.16 68.5458L186.106 54.4834L195.442 37.4219L116.56 49.0861L112.84 81.3483Z" fill="url(#paint0_linear)"/>
<path d="M157.251 42.9844L112.84 81.3473L116.306 43.6622L153.384 42.9844H157.251Z" fill="url(#paint1_linear)"/>
<path d="M160.861 0.445312L157.249 42.9777L115.833 48.7267L0 64.6371L9.0599e-06 58.5002L1.7643e-05 36.1093L9.0599e-06 21.3434L160.861 0.445312Z" fill="url(#paint2_linear)"/>
<path d="M42.5832 29.4696L47.8212 28.8051L48.9945 37.5772L52.1367 28.2577L55.8569 27.7858L57.5361 36.4937L60.1723 27.2383L65.4103 26.5739L59.6326 43.4854L55.3172 44.0329L53.5336 35.2172L50.2875 44.6709L45.6745 45.2561L42.5832 29.4696Z" fill="white"/>
<path d="M46.7356 23.802L60.9318 22.0011L60.6626 25.3617L46.4663 27.1626L46.7356 23.802Z" fill="white"/>
<path d="M69.4502 42.24C68.478 42.3633 67.7149 42.2283 67.161 41.8349C66.6046 41.4216 66.2722 40.7884 66.164 39.9352C66.1162 39.5582 66.1106 39.1961 66.1471 38.8487L67.1923 26.3478L72.4303 25.6833L71.4945 36.9003L71.4953 37.384C71.5306 37.6618 71.6252 37.8514 71.7792 37.9528C71.9505 38.0319 72.2147 38.0488 72.5719 38.0035L73.6135 37.8713L73.3192 41.7492L69.4502 42.24Z" fill="white"/>
<path d="M76.0554 31.7554C76.4462 27.0488 79.4591 24.3381 85.0939 23.6233C86.2645 23.4748 87.3436 23.479 88.3312 23.636L89.434 22.3167L95.0887 21.5994L91.8882 25.4528C92.4575 26.1265 92.8076 26.9792 92.9384 28.0109C92.9988 28.4871 93.006 29.0205 92.96 29.611L92.1703 39.3578L86.9323 40.0223L87.7002 30.5806C87.7415 30.1117 87.7433 29.7284 87.7055 29.4308C87.6225 28.776 87.3525 28.3164 86.8955 28.0518C86.4361 27.7673 85.7202 27.6867 84.748 27.8101C83.6171 27.9535 82.7781 28.3322 82.231 28.9459C81.6813 29.5398 81.3616 30.3565 81.2717 31.3961L81.1298 33.1378C81.412 32.8198 81.7712 32.5524 82.2074 32.3358C82.6411 32.0993 83.096 31.9509 83.5722 31.8905L85.7746 31.6111L85.4505 35.4928L83.0398 35.7986C82.4049 35.8791 81.8732 36.1381 81.4449 36.5755C81.014 36.993 80.7706 37.538 80.7148 38.2104L80.5038 40.8378L75.2658 41.5023L76.0554 31.7554Z" fill="white"/>
<path d="M103.68 38.3514C101.478 38.6308 99.6786 38.355 98.283 37.524C96.9046 36.6707 96.111 35.4206 95.9021 33.7738C95.8492 33.3571 95.8384 32.8747 95.8697 32.3264L96.6631 22.6093L101.901 21.9448L101.14 31.2042C101.092 31.7748 101.093 32.2585 101.143 32.6554C101.226 33.3101 101.485 33.7611 101.919 34.0084C102.352 34.2358 103.054 34.2879 104.026 34.1646C106.149 33.8952 107.31 32.6391 107.509 30.3962L107.56 29.6035L104.643 29.9735L104.967 26.0919L107.884 25.7219L108.27 21.1369L113.508 20.4724L113.122 25.0574L114.521 24.88L114.197 28.7616L112.798 28.9391L112.715 30.1895C112.52 32.4721 111.665 34.3143 110.15 35.7162C108.634 37.1181 106.478 37.9965 103.68 38.3514Z" fill="white"/>
<path d="M125.164 69.2341C124.393 69.351 123.752 69.2553 123.24 68.9471C122.736 68.629 122.429 68.1058 122.319 67.3775C122.206 66.632 122.371 66.0153 122.814 65.5273C123.265 65.0296 123.931 64.7138 124.814 64.58C125.191 64.5229 125.569 64.5007 125.947 64.5134C126.335 64.5248 126.675 64.5697 126.967 64.6482L126.934 64.4296C126.874 64.0355 126.689 63.7656 126.377 63.6199C126.065 63.4657 125.583 63.4379 124.932 63.5366C124.512 63.6002 124.099 63.711 123.693 63.8689C123.287 64.0182 122.936 64.1897 122.641 64.3834L122.391 62.7382C122.661 62.5484 123.041 62.368 123.532 62.1972C124.023 62.0263 124.543 61.8993 125.092 61.8162C125.657 61.7305 126.143 61.7227 126.548 61.7928L126.894 61.2144L129.336 60.8443L128.305 62.4599C128.551 62.6331 128.75 62.879 128.904 63.1976C129.056 63.5077 129.159 63.8426 129.214 64.2025L129.839 68.3284L127.577 68.6712L127.203 66.2034C126.722 66.0396 126.199 66.0005 125.634 66.0862C125.248 66.1446 124.975 66.2517 124.814 66.4075C124.661 66.5535 124.605 66.7593 124.645 67.0249C124.719 67.5133 125.086 67.7076 125.746 67.6076C126.003 67.5686 126.223 67.4914 126.408 67.3758L126.628 68.8282C126.286 69.0027 125.798 69.138 125.164 69.2341Z" fill="white"/>
<path d="M127.646 61.0084C127.192 61.0772 126.783 60.9814 126.419 60.721C126.054 60.452 125.837 60.0904 125.768 59.6363C125.722 59.3363 125.754 59.0511 125.862 58.7805C125.969 58.5014 126.139 58.2695 126.374 58.0849C126.601 57.9016 126.86 57.7878 127.151 57.7437C127.442 57.6995 127.728 57.7308 128.007 57.8375C128.277 57.9455 128.505 58.117 128.69 58.352C128.873 58.5784 128.987 58.8416 129.033 59.1415C129.101 59.5957 129.001 60.0053 128.732 60.3704C128.462 60.7269 128.1 60.9396 127.646 61.0084ZM127.476 59.8902C127.605 59.8707 127.709 59.8067 127.789 59.6981C127.868 59.581 127.897 59.4582 127.878 59.3297C127.857 59.1926 127.797 59.0834 127.697 59.0021C127.588 58.9222 127.465 58.8925 127.328 58.9133C127.191 58.9341 127.087 58.9981 127.015 59.1054C126.936 59.2139 126.906 59.3367 126.927 59.4738C126.946 59.6023 127.011 59.7109 127.121 59.7994C127.229 59.8794 127.348 59.9097 127.476 59.8902Z" fill="white"/>
<path d="M132.454 63.672C132.396 63.2864 132.262 63.013 132.054 62.8518C131.854 62.6892 131.54 62.6404 131.111 62.7054C130.691 62.769 130.283 62.9404 129.887 63.2195L129.63 61.5229C129.812 61.3902 130.072 61.2587 130.412 61.1283C130.76 60.9967 131.097 60.9062 131.423 60.8568C132.348 60.7166 133.092 60.8537 133.654 61.2681C134.216 61.6739 134.566 62.3352 134.705 63.2521L135.347 67.4937L133.085 67.8365L132.454 63.672Z" fill="white"/>
<path d="M135.462 60.4419L137.724 60.0991L138.058 62.297L139.974 59.7582L142.544 59.3687L140.99 61.4318C141.671 61.5302 142.169 61.7527 142.485 62.0994C142.808 62.4362 143.018 62.9259 143.115 63.5685L143.522 66.2549L141.26 66.5977L140.886 64.1299C140.829 63.7528 140.722 63.4841 140.567 63.3236C140.418 63.1533 140.17 63.0506 139.823 63.0156L138.433 64.7777L138.767 66.9756L136.504 67.3184L135.462 60.4419Z" fill="white"/>
<path d="M147.391 65.8658C146.869 65.945 146.329 65.9741 145.774 65.9531C145.22 65.9406 144.774 65.8635 144.437 65.7217L144.18 64.0251C144.581 64.1835 145.027 64.2913 145.518 64.3484C146.017 64.4042 146.455 64.4035 146.832 64.3464C147.226 64.2867 147.513 64.2082 147.691 64.1111C147.868 64.0054 147.942 63.8626 147.915 63.6827C147.89 63.5198 147.781 63.405 147.587 63.338C147.392 63.271 147.039 63.1974 146.528 63.1171L146.11 63.049C145.345 62.9194 144.767 62.7221 144.376 62.457C143.993 62.182 143.758 61.7618 143.673 61.1962C143.569 60.5107 143.763 59.9422 144.256 59.4906C144.747 59.0305 145.451 58.731 146.368 58.592C146.882 58.5141 147.387 58.4902 147.882 58.5203C148.378 58.5504 148.783 58.6248 149.099 58.7435L149.36 60.4658C149.058 60.3188 148.687 60.2172 148.249 60.1609C147.82 60.1032 147.416 60.103 147.039 60.1601C146.285 60.2744 145.934 60.5029 145.986 60.8456C146.012 61.017 146.127 61.1356 146.329 61.2012C146.541 61.2656 146.879 61.3283 147.344 61.3893L147.856 61.4696C148.672 61.5913 149.252 61.8058 149.597 62.113C149.94 62.4116 150.153 62.8308 150.234 63.3706C150.327 63.979 150.135 64.5077 149.66 64.9566C149.193 65.4043 148.437 65.7074 147.391 65.8658Z" fill="white"/>
<path d="M146.401 57.9953C145.527 58.1277 145.027 57.7784 144.901 56.9472L144.728 55.8032L146.746 55.4974L146.849 56.1787C146.866 56.2901 146.903 56.3633 146.961 56.3983C147.011 56.4347 147.091 56.4444 147.202 56.4275L150.004 56.0029L150.219 57.4168L146.401 57.9953Z" fill="white"/>
<path d="M155.083 64.7002C154.354 64.8106 153.697 64.7831 153.111 64.6177C152.524 64.4437 152.046 64.1524 151.677 63.7437C151.308 63.335 151.08 62.8436 150.993 62.2695L150.374 58.1822L152.636 57.8394L153.226 61.7339C153.297 62.1966 153.457 62.5317 153.707 62.7391C153.967 62.9453 154.336 63.012 154.816 62.9393C155.733 62.8004 156.12 62.2596 155.977 61.3171L155.387 57.4225L157.649 57.0797L158.268 61.167C158.355 61.7411 158.283 62.278 158.052 62.7776C157.821 63.2772 157.451 63.6971 156.941 64.0372C156.431 64.3689 155.811 64.5899 155.083 64.7002Z" fill="white"/>
<path d="M159.23 59.6802C159.082 58.7034 159.3 57.9165 159.884 57.3195C160.468 56.7139 161.316 56.3268 162.43 56.158C163.553 55.9879 164.478 56.1062 165.206 56.5131C165.941 56.9101 166.382 57.597 166.53 58.5739L167.152 62.6741L164.89 63.0169L164.274 58.9553C164.148 58.1241 163.622 57.7786 162.697 57.9189C161.772 58.0591 161.372 58.5448 161.498 59.376L161.622 60.1986C161.716 60.0617 161.847 59.9454 162.017 59.8496C162.185 59.7452 162.372 59.6774 162.577 59.6463L163.529 59.5021L163.776 61.1345L162.735 61.2922C162.461 61.3338 162.25 61.449 162.103 61.6377C161.955 61.818 161.903 62.0494 161.946 62.3322L162.113 63.4376L159.851 63.7804L159.23 59.6802Z" fill="white"/>
<path d="M165.499 65.3702C165.474 65.2074 165.426 65.0962 165.356 65.0368C165.287 64.9859 165.171 64.9728 165.008 64.9975L164.61 65.0579L164.396 63.644L165.887 63.418C166.375 63.344 166.739 63.4028 166.978 63.5945C167.218 63.7861 167.374 64.1261 167.448 64.6145L167.698 66.2598L165.68 66.5656L165.499 65.3702Z" fill="white"/>
<path d="M175.628 61.5868C174.797 61.7128 174.121 61.561 173.6 61.1315C173.086 60.6922 172.769 60.0741 172.648 59.2772L172.413 57.7219C172.348 57.2935 172.202 56.9956 171.975 56.8284C171.755 56.6513 171.448 56.5927 171.054 56.6524C170.771 56.6953 170.521 56.777 170.302 56.8978C170.083 57.01 169.88 57.1766 169.694 57.3975L170.293 58.1352L170.567 59.9475C170.596 60.1361 170.66 60.2667 170.758 60.3394C170.864 60.4022 171.016 60.4187 171.213 60.3888L171.817 60.2973L172.064 61.9296L170.201 62.2121C169.704 62.2874 169.297 62.2044 168.979 61.9632C168.661 61.7134 168.464 61.3357 168.387 60.8302L168.025 58.4395L167.213 57.4186C168.062 55.9663 169.254 55.1239 170.787 54.8915C171.884 54.7253 172.762 54.8508 173.422 55.2681C174.081 55.6854 174.477 56.331 174.609 57.205L174.851 58.7988C174.904 59.1501 175.039 59.4058 175.256 59.5657C175.48 59.7158 175.76 59.7655 176.094 59.7149C176.625 59.6344 177.013 59.2995 177.257 58.7103L176.575 54.2117L178.837 53.8689L179.879 60.7454L177.771 61.0648L177.664 60.3579C177.425 60.6921 177.129 60.9649 176.776 61.1762C176.43 61.3863 176.048 61.5232 175.628 61.5868Z" fill="white"/>
<defs>
<linearGradient id="paint0_linear" x1="48.1535" y1="135.233" x2="165.667" y2="53.5264" gradientUnits="userSpaceOnUse">
<stop stop-color="#D7293B"/>
<stop offset="0.6796" stop-color="#FE425D"/>
<stop offset="1" stop-color="#FF7456"/>
</linearGradient>
<linearGradient id="paint1_linear" x1="133.038" y1="51.4287" x2="83.6768" y2="80.7114" gradientUnits="userSpaceOnUse">
<stop stop-color="#D32737"/>
<stop offset="0.6796" stop-color="#FC3A5D"/>
<stop offset="1" stop-color="#FF7456"/>
</linearGradient>
<linearGradient id="paint2_linear" x1="5.70186" y1="93.378" x2="127.459" y2="-3.90899" gradientUnits="userSpaceOnUse">
<stop stop-color="#C7212C"/>
<stop offset="0.6796" stop-color="#FE3B5E"/>
<stop offset="1" stop-color="#FF7456"/>
</linearGradient>
</defs>
</svg>
