<svg width="31" height="21" viewBox="0 0 31 21" fill="none" xmlns="http://www.w3.org/2000/svg">
<path d="M23.8083 12.689L22.4483 10.5655C22.3422 10.3998 22.1746 10.2831 21.9825 10.241C21.7903 10.1989 21.5893 10.2348 21.4237 10.3409C21.258 10.447 21.1413 10.6145 21.0992 10.8067C21.0571 10.9988 21.093 11.1998 21.1991 11.3655L23.6245 15.1525L22.1801 14.405C22.0936 14.3601 21.9991 14.3327 21.902 14.3244C21.8049 14.3161 21.7071 14.327 21.6143 14.3565C21.5214 14.386 21.4352 14.4335 21.3607 14.4963C21.2862 14.5591 21.2248 14.636 21.18 14.7225C21.1352 14.8091 21.1079 14.9036 21.0997 15.0007C21.0914 15.0978 21.1024 15.1956 21.132 15.2884C21.1615 15.3813 21.2091 15.4674 21.272 15.5419C21.3348 15.6163 21.4118 15.6777 21.4984 15.7224C23.8897 17.2168 24.9886 17.57 26.3684 16.6863C26.6965 16.4762 26.9799 16.2035 27.2026 15.8838C27.4253 15.5641 27.5829 15.2037 27.6663 14.8231C27.7497 14.4426 27.7573 14.0493 27.6888 13.6658C27.6202 13.2823 27.4767 12.916 27.2666 12.5879L26.4666 11.3388C26.3605 11.1731 26.193 11.0564 26.0008 11.0143C25.8087 10.9722 25.6077 11.0081 25.442 11.1142C25.2764 11.2203 25.1596 11.3879 25.1175 11.58C25.0754 11.7722 25.1114 11.9732 25.2175 12.1388" stroke="#EA5B21" stroke-width="0.904153" stroke-linecap="round" stroke-linejoin="round"/>
<path d="M25.2174 12.1388L24.9774 11.7641C24.8713 11.5984 24.7038 11.4817 24.5116 11.4396C24.3195 11.3975 24.1185 11.4334 23.9528 11.5395C23.7872 11.6456 23.6705 11.8131 23.6283 12.0053C23.5862 12.1974 23.6222 12.3984 23.7283 12.5641L23.8083 12.689" stroke="#EA5B21" stroke-width="0.904153" stroke-linecap="round" stroke-linejoin="round"/>
<rect x="0.5" y="0.5" width="27.0287" height="9.93804" rx="2.91814" stroke="#EA5B21"/>
<path d="M7.94036 5.30787C8.23614 5.36302 8.47929 5.51091 8.66979 5.75155C8.86029 5.99219 8.95555 6.26792 8.95555 6.57874C8.95555 6.85948 8.88536 7.10764 8.74499 7.32321C8.60963 7.53377 8.41161 7.6992 8.15092 7.81952C7.89023 7.93984 7.58191 8 7.22597 8H4.96248V2.75111H7.12821C7.48415 2.75111 7.78996 2.80876 8.04564 2.92406C8.30633 3.03937 8.50185 3.19979 8.63219 3.40534C8.76755 3.61088 8.83523 3.844 8.83523 4.10469C8.83523 4.4105 8.75251 4.66618 8.58707 4.87172C8.42665 5.07726 8.21108 5.22265 7.94036 5.30787ZM6.01526 4.91684H6.97781C7.22847 4.91684 7.42149 4.86169 7.55684 4.7514C7.6922 4.6361 7.75988 4.47317 7.75988 4.26261C7.75988 4.05205 7.6922 3.88912 7.55684 3.77381C7.42149 3.65851 7.22847 3.60086 6.97781 3.60086H6.01526V4.91684ZM7.07557 7.14273C7.33125 7.14273 7.52927 7.08257 7.66964 6.96225C7.81503 6.84193 7.88772 6.67148 7.88772 6.4509C7.88772 6.2253 7.81252 6.04984 7.66212 5.92451C7.51172 5.79416 7.30869 5.72899 7.05301 5.72899H6.01526V7.14273H7.07557ZM11.6445 8.06768C11.2434 8.06768 10.8825 7.97995 10.5616 7.80448C10.2408 7.624 9.98761 7.37083 9.80212 7.04497C9.62164 6.71911 9.53141 6.34311 9.53141 5.91699C9.53141 5.49086 9.62415 5.11486 9.80964 4.789C10.0001 4.46314 10.2583 4.21248 10.5842 4.03701C10.9101 3.85653 11.2735 3.76629 11.6746 3.76629C12.0756 3.76629 12.4391 3.85653 12.765 4.03701C13.0908 4.21248 13.3465 4.46314 13.532 4.789C13.7225 5.11486 13.8178 5.49086 13.8178 5.91699C13.8178 6.34311 13.72 6.71911 13.5245 7.04497C13.334 7.37083 13.0733 7.624 12.7424 7.80448C12.4165 7.97995 12.0506 8.06768 11.6445 8.06768ZM11.6445 7.15025C11.835 7.15025 12.013 7.10513 12.1784 7.01489C12.3489 6.91964 12.4842 6.77927 12.5845 6.59378C12.6848 6.40829 12.7349 6.18269 12.7349 5.91699C12.7349 5.52094 12.6296 5.21764 12.419 5.00708C12.2135 4.79151 11.9603 4.68372 11.6595 4.68372C11.3587 4.68372 11.1056 4.79151 10.9 5.00708C10.6995 5.21764 10.5992 5.52094 10.5992 5.91699C10.5992 6.31303 10.697 6.61884 10.8925 6.83441C11.093 7.04497 11.3437 7.15025 11.6445 7.15025ZM16.4399 8.06768C16.0388 8.06768 15.6779 7.97995 15.357 7.80448C15.0362 7.624 14.783 7.37083 14.5975 7.04497C14.4171 6.71911 14.3268 6.34311 14.3268 5.91699C14.3268 5.49086 14.4196 5.11486 14.605 4.789C14.7956 4.46314 15.0537 4.21248 15.3796 4.03701C15.7055 3.85653 16.0689 3.76629 16.47 3.76629C16.871 3.76629 17.2345 3.85653 17.5604 4.03701C17.8862 4.21248 18.1419 4.46314 18.3274 4.789C18.5179 5.11486 18.6132 5.49086 18.6132 5.91699C18.6132 6.34311 18.5154 6.71911 18.3199 7.04497C18.1294 7.37083 17.8687 7.624 17.5378 7.80448C17.2119 7.97995 16.846 8.06768 16.4399 8.06768ZM16.4399 7.15025C16.6304 7.15025 16.8084 7.10513 16.9738 7.01489C17.1443 6.91964 17.2796 6.77927 17.3799 6.59378C17.4802 6.40829 17.5303 6.18269 17.5303 5.91699C17.5303 5.52094 17.425 5.21764 17.2145 5.00708C17.0089 4.79151 16.7557 4.68372 16.4549 4.68372C16.1541 4.68372 15.901 4.79151 15.6954 5.00708C15.4949 5.21764 15.3946 5.52094 15.3946 5.91699C15.3946 6.31303 15.4924 6.61884 15.6879 6.83441C15.8884 7.04497 16.1391 7.15025 16.4399 7.15025ZM21.8519 8L20.4382 6.2253V8H19.3854V2.43527H20.4382V5.60115L21.8369 3.83397H23.2055L21.3707 5.92451L23.2206 8H21.8519Z" fill="#EA5B21"/>
</svg>
