<svg width="40" height="40" viewBox="0 0 40 40" fill="none" xmlns="http://www.w3.org/2000/svg">
<path fill-rule="evenodd" clip-rule="evenodd" d="M0.95098 10.4355C1.1301 10.0946 1.40682 9.83651 1.72944 9.67862L19.2173 0.934754C19.7099 0.688415 20.2899 0.688415 20.7825 0.934754L38.2692 9.67806C38.5923 9.8359 38.8695 10.0941 39.0488 10.4355C39.0628 10.4621 39.0761 10.489 39.0887 10.5163C39.2036 10.7648 39.2553 11.0274 39.2499 11.2852V28.75C39.2499 29.4128 38.8754 30.0188 38.2825 30.3153L20.8131 39.05C20.5841 39.1704 20.325 39.2415 20.0502 39.2493C20.0334 39.2498 20.0167 39.25 19.9999 39.25C19.9679 39.25 19.936 39.2491 19.9041 39.2474C19.6461 39.2335 19.403 39.1637 19.1867 39.05L1.71727 30.3153C1.1244 30.0188 0.749895 29.4128 0.749895 28.75V11.2852C0.74449 11.0274 0.796151 10.7649 0.911117 10.5163C0.923717 10.489 0.93701 10.4621 0.95098 10.4355ZM28.7503 8.83176L33.5868 11.25L19.9999 18.0434L15.1634 15.6252L28.7503 8.83176ZM24.8371 6.87518L19.9999 4.45654L6.41304 11.25L11.2502 13.6686L24.8371 6.87518ZM10.4301 17.1717L4.2499 14.0816V27.6684L18.2499 34.6684V21.0816L10.5022 17.2077C10.4779 17.1963 10.4539 17.1842 10.4301 17.1717ZM21.7499 34.6684V21.0816L35.7499 14.0816V27.6684L21.7499 34.6684Z" fill="#EA5B21"/>
</svg>
