<svg width="25" height="21" viewBox="0 0 25 21" fill="none" xmlns="http://www.w3.org/2000/svg">
<path fill-rule="evenodd" clip-rule="evenodd" d="M0.842529 2.3117C0.842529 1.5203 1.42083 0.878754 2.1342 0.878754H22.8009C23.5142 0.878754 24.0925 1.5203 24.0925 2.3117C24.0925 3.10309 23.5142 3.74464 22.8009 3.74464H2.1342C1.42083 3.74464 0.842529 3.10309 0.842529 2.3117ZM0.842529 10.9094C0.842529 10.118 1.42083 9.47641 2.1342 9.47641H22.8009C23.5142 9.47641 24.0925 10.118 24.0925 10.9094C24.0925 11.7007 23.5142 12.3423 22.8009 12.3423H2.1342C1.42083 12.3423 0.842529 11.7007 0.842529 10.9094ZM0.842529 19.507C0.842529 18.7156 1.42083 18.0741 2.1342 18.0741H22.8009C23.5142 18.0741 24.0925 18.7156 24.0925 19.507C24.0925 20.2984 23.5142 20.94 22.8009 20.94H2.1342C1.42083 20.94 0.842529 20.2984 0.842529 19.507Z" fill="#333333"/>
</svg>
