<svg width="17" height="27" viewBox="0 0 17 27" fill="none" xmlns="http://www.w3.org/2000/svg">
<path d="M7.67188 26.0947H9.25391V23.6924C13.1797 23.4287 16.1533 21.3193 16.1533 17.6719C16.1533 14.5078 14.0586 12.9258 10.1475 12.0176L9.25391 11.8125V6.11426C11.0557 6.33398 12.2861 7.34473 12.4912 9.08789H15.9043C15.7725 5.68945 13.1064 3.44824 9.25391 3.16992V0.738281H7.67188V3.16992C3.81934 3.41895 1.05078 5.63086 1.05078 9.01465C1.05078 12.0762 3.10156 13.7754 6.86621 14.6396L7.67188 14.8301V20.7627C5.43066 20.543 4.34668 19.3711 4.08301 17.7451H0.669922C0.772461 21.3193 3.76074 23.458 7.67188 23.6924V26.0947ZM4.58105 8.72168C4.58105 7.43262 5.65039 6.33398 7.67188 6.09961V11.4463C5.45996 10.875 4.58105 9.99609 4.58105 8.72168ZM12.6377 18.0381C12.6377 19.5029 11.583 20.5869 9.25391 20.7627V15.1963C11.8174 15.8262 12.6377 16.6172 12.6377 18.0381Z" fill="#333333"/>
</svg>
