<svg width="38" height="38" viewBox="0 0 38 38" fill="none" xmlns="http://www.w3.org/2000/svg">
<path fill-rule="evenodd" clip-rule="evenodd" d="M17.9589 1.02928C18.5676 0.542323 19.4325 0.542323 20.0412 1.02928L36.7079 14.3626C37.1033 14.6789 37.3334 15.1578 37.3334 15.6641V35.6641C37.3334 36.5845 36.5872 37.3307 35.6667 37.3307H25.6667C24.7463 37.3307 24.0001 36.5845 24.0001 35.6641V22.3307H14.0001V35.6641C14.0001 36.5845 13.2539 37.3307 12.3334 37.3307H2.33341C1.41294 37.3307 0.666748 36.5845 0.666748 35.6641V15.6641C0.666748 15.1578 0.896898 14.6789 1.29226 14.3626L17.9589 1.02928ZM4.00008 16.4651V33.9974H10.6667V20.6641C10.6667 19.7436 11.4129 18.9974 12.3334 18.9974H25.6667C26.5872 18.9974 27.3334 19.7436 27.3334 20.6641V33.9974H34.0001V16.4651L19.0001 4.4651L4.00008 16.4651ZM19.0001 25.6641C19.9206 25.6641 20.6667 26.4103 20.6667 27.3307V35.6641C20.6667 36.5845 19.9206 37.3307 19.0001 37.3307C18.0796 37.3307 17.3334 36.5845 17.3334 35.6641V27.3307C17.3334 26.4103 18.0796 25.6641 19.0001 25.6641Z" fill="#EA5B21"/>
</svg>
