<svg width="198" height="135" viewBox="0 0 198 135" fill="none" xmlns="http://www.w3.org/2000/svg">
<g clip-path="url(#clip0)">
<path d="M74.5386 98.6579C74.5089 94.0933 77.607 86.214 70.5486 76.6982C64.6021 68.682 38.3604 52.2688 51.5616 22.7928C64.7627 -6.68317 95.6783 -5.40962 122.152 14.3243C146.104 32.1777 160.007 58.0057 155.452 86.1783C151.462 110.852 139.706 129.336 118.239 134.061C99.4126 138.197 74.723 125.771 74.5386 98.6579Z" fill="url(#paint0_linear)"/>
<path d="M110.86 17.0977C112.81 15.7766 114.011 17.1453 114.011 17.1453C114.011 17.1453 116.652 14.5863 118.84 15.5207C121.028 16.4609 121.123 18.9128 121.123 18.9128C121.123 18.9128 123.442 18.9247 123.906 20.4779C124.37 22.0252 122.277 23.5428 122.277 23.5428C122.277 23.5428 123.603 23.9356 122.848 25.5305C122.087 27.1254 119.345 26.9349 119.345 26.9349C119.345 26.9349 119.399 26.8695 119.482 26.7624C119.993 26.072 121.7 23.519 119.137 23.1381C117.579 22.906 115.212 23.5309 114.874 23.6618C114.552 23.7868 111.775 24.5723 110.866 24.2688C110.818 24.251 110.77 24.2331 110.729 24.2093C109.504 23.4416 107.934 19.0854 110.86 17.0977Z" fill="black"/>
<path d="M110.2 25.1554C110.217 24.233 110.604 24.233 110.86 24.2627C111.769 24.5722 114.546 23.7807 114.868 23.6557C115.207 23.5248 117.579 22.8999 119.131 23.132C121.694 23.5129 119.987 26.0659 119.476 26.7562C119.423 26.8217 119.375 26.8812 119.339 26.9288C118.887 27.5894 119.488 28.6666 119.488 28.6666L117.936 29.3807C117.936 29.3807 116.491 31.4338 115.421 31.1779C115.373 31.166 115.319 31.1482 115.266 31.1303L115.319 33.9631C115.319 33.9631 114.535 36.0519 113.577 36.3138C112.614 36.5756 110.996 33.7012 110.996 33.7012L111.068 26.8217C110.8 26.5599 110.182 26.1968 110.2 25.1554Z" fill="#EF6744"/>
<path d="M98.2116 129.312H96.9569L104.253 103.454H108.344L98.2116 129.312Z" fill="black"/>
<path d="M163.218 129.312H161.969L151.831 103.454H155.922L163.218 129.312Z" fill="black"/>
<path d="M120.749 37.5694C120.749 30.2793 128.729 30.9339 128.729 30.9339C128.729 30.9339 146.824 30.9339 153.502 30.9339C160.18 30.9339 162.618 38.837 162.618 38.837V97.6044C162.618 100.836 160.001 103.454 156.772 103.454H155.922H151.831H108.344H104.253H100.245C97.0163 103.454 94.3999 100.836 94.3999 97.6044V96.1583C94.3999 96.1583 120.749 52.5603 120.749 37.5694Z" fill="#2755A3"/>
<path d="M111.549 99.8841C111.549 99.8841 89.9281 97.8547 74.7231 93.7961C66.9213 91.7132 57.2346 87.9163 57.2346 87.9163L34.2932 99.5508L29.6074 84.8039L53.1018 71.6876C56.5388 69.5274 60.5467 68.4442 64.6082 68.5811L92.4554 73.1694L103.266 75.8772L111.549 99.8841Z" fill="url(#paint1_linear)"/>
<path d="M116.271 28.3809C116.271 28.3809 116.158 28.8808 116.889 29.214" stroke="black" stroke-width="0.5" stroke-miterlimit="10" stroke-linecap="round" stroke-linejoin="round"/>
<path d="M119.203 24.6319C119.203 24.6319 119.012 24.1677 117.912 24.3879C117.24 24.5248 116.669 24.8402 116.669 24.8402" stroke="black" stroke-width="0.5" stroke-miterlimit="10" stroke-linecap="round" stroke-linejoin="round"/>
<path d="M117.43 25.8875C117.43 25.8875 117.633 26.2683 118.227 26.0898" stroke="black" stroke-width="0.5" stroke-miterlimit="10" stroke-linecap="round" stroke-linejoin="round"/>
<path d="M81.8885 101.068L81.0917 109.084L49.9323 116.368L47.3813 109.566C48.1365 108.918 53.0482 104.228 60.8262 99.4494C65.072 96.8368 68.3128 95.8608 68.3128 95.8608L81.8885 101.068Z" fill="black"/>
<path d="M73.6884 101.609C73.6884 101.609 72.0709 101.865 69.6507 100.39C67.4386 99.0446 66.9272 97.9436 66.9272 97.9436" stroke="white" stroke-miterlimit="10" stroke-linecap="round" stroke-linejoin="round"/>
<path d="M71.2266 103.478C71.2266 103.478 69.6091 103.734 67.1889 102.258C64.9768 100.913 64.4654 99.8125 64.4654 99.8125" stroke="white" stroke-miterlimit="10" stroke-linecap="round" stroke-linejoin="round"/>
<path d="M68.7588 105.311C68.7588 105.311 67.1414 105.567 64.7211 104.091C62.5091 102.746 61.9977 101.645 61.9977 101.645" stroke="white" stroke-miterlimit="10" stroke-linecap="round" stroke-linejoin="round"/>
<path d="M66.2434 107.019C66.2434 107.019 64.626 107.275 62.2058 105.799C59.9937 104.454 59.4823 103.353 59.4823 103.353" stroke="white" stroke-miterlimit="10" stroke-linecap="round" stroke-linejoin="round"/>
<path d="M81.2583 107.507L53.3813 113.875C52.5548 114.065 51.6985 113.679 51.2941 112.935L48.7728 108.311L47.2446 109.668C46.7629 110.096 46.6083 110.792 46.87 111.382L48.9512 116.101C49.2307 116.738 49.9146 117.095 50.5984 116.958L79.8312 111.203C80.4734 111.078 80.955 110.542 81.0204 109.894L81.2583 107.507Z" fill="#EF6744"/>
<path d="M134.598 79.7212C134.598 79.7212 134.806 107.037 108.213 98.9672C96.6892 95.4679 90.16 77.3646 90.16 77.3646L81.9064 101.157L68.3068 95.8488L78.7964 62.3439C80.1997 57.8568 85.0877 55.4704 89.4821 57.1367C95.6486 59.4755 103.997 63.0105 109.718 66.8787C119.809 73.7106 125.494 78.1025 125.494 78.1025L134.598 79.7212Z" fill="url(#paint2_linear)"/>
<path d="M81.3891 94.8493C81.5258 94.8493 81.6626 94.7719 81.7221 94.635C81.8053 94.4505 81.7221 94.2363 81.5377 94.1589L72.2375 90.0288C72.0531 89.9515 71.8391 90.0288 71.7618 90.2133C71.6785 90.3978 71.7618 90.612 71.9461 90.6894L81.2464 94.8195C81.288 94.8433 81.3415 94.8493 81.3891 94.8493Z" fill="white"/>
<path d="M90.4038 74.8057C90.4098 74.8057 90.4098 74.8057 90.4157 74.8057C90.6179 74.7998 90.7725 74.6331 90.7666 74.4308L90.6298 70.0031C90.6238 69.8008 90.4514 69.6461 90.2552 69.652C90.053 69.658 89.8984 69.8246 89.9043 70.0269L90.0411 74.4546C90.047 74.651 90.2076 74.8057 90.4038 74.8057Z" fill="white"/>
<path d="M89.4644 75.877C89.5119 75.877 89.5595 75.8651 89.6071 75.8472C89.7914 75.7639 89.8747 75.5556 89.7914 75.3711L88.3167 72.0147C88.2394 71.8302 88.0253 71.7469 87.841 71.8302C87.6566 71.9135 87.5734 72.1218 87.6566 72.3063L89.1314 75.6627C89.1908 75.7996 89.3276 75.877 89.4644 75.877Z" fill="white"/>
<path d="M57.4665 86.7973C57.6389 86.7973 57.7935 86.6723 57.8233 86.4937L58.4357 82.8219C58.4714 82.6255 58.3346 82.4351 58.1384 82.4053C57.9422 82.3696 57.7519 82.5065 57.7222 82.7029L57.1097 86.3747C57.074 86.5711 57.2108 86.7615 57.407 86.7913C57.4248 86.7973 57.4427 86.7973 57.4665 86.7973Z" fill="white"/>
<path d="M56.2771 87.2197C56.3069 87.2197 56.3307 87.2197 56.3604 87.2078C56.5566 87.1602 56.6756 86.9697 56.6339 86.7733L56.0036 84.0596C55.956 83.8632 55.7657 83.7442 55.5695 83.7859C55.3733 83.8335 55.2543 84.0239 55.296 84.2203L55.9263 86.934C55.962 87.1066 56.1106 87.2197 56.2771 87.2197Z" fill="white"/>
<path d="M157.224 40.2237C157.289 40.2237 157.355 40.2058 157.414 40.1701C157.581 40.063 157.634 39.8369 157.527 39.6702L155.381 36.2662C155.274 36.0936 155.048 36.046 154.881 36.1531C154.715 36.2602 154.661 36.4864 154.768 36.653L156.915 40.0571C156.986 40.1642 157.105 40.2237 157.224 40.2237Z" fill="white"/>
<path d="M151.67 47.2163C151.813 47.2163 151.956 47.127 152.009 46.9842L153.442 43.2231C153.514 43.0386 153.418 42.8243 153.234 42.7589C153.05 42.6875 152.836 42.7827 152.764 42.9672L151.331 46.7283C151.26 46.9128 151.355 47.127 151.539 47.1925C151.587 47.2103 151.629 47.2163 151.67 47.2163Z" fill="white"/>
<path d="M159.733 54.3875C159.799 54.3875 159.864 54.3696 159.924 54.3339C160.096 54.2268 160.144 54.0066 160.043 53.834L157.712 50.0729C157.605 49.9003 157.385 49.8468 157.212 49.9539C157.04 50.061 156.992 50.2812 157.093 50.4538L159.424 54.2149C159.49 54.328 159.609 54.3875 159.733 54.3875Z" fill="white"/>
<path d="M135.192 99.2469C135.228 99.2469 135.27 99.241 135.305 99.229L139.504 97.8365C139.694 97.771 139.795 97.5687 139.736 97.3783C139.67 97.1878 139.468 97.0867 139.278 97.1462L135.079 98.5387C134.889 98.6042 134.788 98.8065 134.848 98.997C134.901 99.1517 135.038 99.2469 135.192 99.2469Z" fill="white"/>
<path d="M151.141 57.7142C151.147 57.7142 151.147 57.7142 151.141 57.7142L155.565 57.6844C155.767 57.6844 155.928 57.5178 155.922 57.3214C155.922 57.1191 155.761 56.9882 155.559 56.9644L151.135 56.9941C150.933 56.9941 150.772 57.1607 150.778 57.3571C150.784 57.5535 150.945 57.7142 151.141 57.7142Z" fill="white"/>
<path d="M148.328 69.5747C148.447 69.5747 148.56 69.5152 148.631 69.4081L151.052 65.7065C151.159 65.5399 151.117 65.3137 150.945 65.2066C150.778 65.0935 150.552 65.1411 150.445 65.3137L148.025 69.0153C147.918 69.182 147.96 69.4081 148.132 69.5152C148.191 69.5569 148.263 69.5747 148.328 69.5747Z" fill="white"/>
<path d="M140.901 87.9935C141.074 87.9935 141.228 87.8685 141.258 87.696C141.294 87.4996 141.163 87.3091 140.967 87.2734L136.614 86.4819C136.418 86.4462 136.227 86.5772 136.192 86.7735C136.156 86.9699 136.287 87.1604 136.483 87.1961L140.836 87.9876C140.86 87.9935 140.883 87.9935 140.901 87.9935Z" fill="white"/>
<path d="M158.098 78.6262C158.17 78.6262 158.241 78.6084 158.3 78.5608C158.467 78.4477 158.509 78.2215 158.396 78.0549L155.904 74.4009C155.791 74.2343 155.565 74.1926 155.399 74.3057C155.232 74.4188 155.19 74.6449 155.303 74.8115L157.795 78.4655C157.866 78.5727 157.979 78.6262 158.098 78.6262Z" fill="white"/>
<path d="M152.961 89.9218C152.984 89.9218 153.008 89.9218 153.032 89.9158L157.373 89.0529C157.569 89.0113 157.694 88.8208 157.658 88.6244C157.617 88.4281 157.432 88.2971 157.23 88.3388L152.889 89.2017C152.693 89.2434 152.568 89.4338 152.604 89.6302C152.639 89.8028 152.794 89.9218 152.961 89.9218Z" fill="white"/>
<path d="M146.836 83.286C146.907 83.286 146.978 83.2682 147.038 83.2206L150.695 80.7271C150.861 80.614 150.903 80.3879 150.79 80.2212C150.677 80.0546 150.451 80.0129 150.285 80.126L146.628 82.6195C146.461 82.7326 146.419 82.9587 146.532 83.1254C146.604 83.2325 146.717 83.286 146.836 83.286Z" fill="white"/>
<path d="M153.062 99.7113C153.115 99.7113 153.169 99.6994 153.216 99.6756C153.395 99.5923 153.472 99.3721 153.389 99.1935L151.492 95.1944C151.408 95.0159 151.188 94.9385 151.01 95.0218C150.832 95.1051 150.754 95.3253 150.838 95.5038L152.735 99.503C152.8 99.6339 152.925 99.7113 153.062 99.7113Z" fill="white"/>
<path d="M88.8638 37.7065C90.1958 36.8495 91.5873 36.2008 92.9312 35.7069C92.9312 35.7069 105.74 30.5949 111.002 33.7073C113.696 35.3022 115.325 33.9692 115.325 33.9692C115.325 33.9692 119.767 31.6661 128.449 32.3505C134.509 32.8325 138.582 34.4453 140.925 35.695C150.32 40.4261 152.259 53.7805 146.735 62.7429C146.693 62.8143 146.651 62.8857 146.61 62.9512C140.425 72.6991 130.584 78.2992 130.584 78.2992L126.13 73.6513C126.13 73.6513 126.659 73.0741 127.474 72.1159C127.635 71.9255 127.807 71.7232 127.985 71.503C127.991 71.497 127.991 71.497 127.997 71.4911C128.164 71.2887 128.342 71.0745 128.521 70.8483C128.538 70.8245 128.562 70.8007 128.58 70.771C128.764 70.5448 128.955 70.3008 129.151 70.0568C129.175 70.0211 129.204 69.9854 129.228 69.9557C129.401 69.7355 129.573 69.5093 129.752 69.2713C129.787 69.2237 129.823 69.182 129.859 69.1344C130.055 68.8785 130.251 68.6107 130.447 68.337C130.489 68.2775 130.531 68.2179 130.578 68.1584C130.751 67.9263 130.917 67.6823 131.09 67.4443C131.131 67.3848 131.173 67.3253 131.214 67.2658C131.411 66.9861 131.607 66.6945 131.803 66.4028C131.851 66.3314 131.898 66.2541 131.946 66.1827C132.112 65.9327 132.279 65.6768 132.439 65.415C132.481 65.3554 132.517 65.29 132.558 65.2305C132.749 64.9329 132.933 64.6294 133.111 64.3259C133.159 64.2426 133.206 64.1652 133.254 64.0819C133.409 63.8141 133.563 63.5463 133.712 63.2785C133.742 63.219 133.777 63.1654 133.807 63.1059C133.974 62.7965 134.14 62.481 134.295 62.1716C134.336 62.0883 134.378 62.005 134.42 61.9216C134.556 61.636 134.693 61.3503 134.818 61.0647C134.836 61.023 134.854 60.9814 134.871 60.9397C135.008 60.6243 135.133 60.3089 135.252 59.9994C135.282 59.9221 135.312 59.8387 135.341 59.7614C135.448 59.4638 135.549 59.1663 135.639 58.8747C135.645 58.8509 135.65 58.833 135.662 58.8092C135.757 58.4997 135.829 58.1962 135.9 57.8927C135.918 57.8154 135.93 57.7439 135.948 57.6666C136.007 57.3631 136.061 57.0596 136.096 56.768C136.221 55.6253 136.227 54.566 136.156 53.5722C130.334 51.8583 124.263 52.62 122.544 52.8938C122.253 52.9414 121.968 52.8224 121.789 52.5843C121.183 51.7452 119.649 49.7635 118.001 48.7161C117.639 48.484 117.74 48.5375 117.436 48.3412C116.58 48.8172 115.213 49.5492 114.344 49.9599C114.243 50.9358 114.202 51.4357 114.124 52.2034C113.999 53.4532 114.118 54.4589 114.214 55.0183C114.267 55.3159 114.142 55.6134 113.892 55.786C113.215 56.2621 111.865 57.2857 111.02 58.4045C110.164 59.5471 109.308 61.0052 108.915 61.6955C108.778 61.9395 108.517 62.0883 108.237 62.0883H107.351C106.917 62.0883 106.566 62.4394 106.566 62.8738V64.9329C100.917 61.7074 95.4168 59.315 95.4168 59.315C95.4168 59.315 95.286 56.7144 95.1016 53.5603C93.0501 53.4591 91.0402 53.1378 89.1908 52.4653C81.1572 49.5611 81.0442 42.7352 88.8638 37.7065Z" fill="white"/>
<path d="M124.209 52.6796C124.239 52.2868 124.311 51.8881 124.447 51.5012C125.274 49.091 127.896 47.8115 130.305 48.6388C132.195 49.2874 133.385 51.049 133.409 52.9355C129.763 52.3106 126.32 52.4653 124.209 52.6796Z" fill="#EF6744"/>
<path d="M133.153 54.5007C133.04 54.8339 132.885 55.1434 132.707 55.435H124.887C124.382 54.6257 124.138 53.6616 124.209 52.6796C126.326 52.4594 129.763 52.3047 133.403 52.9355C133.409 53.4592 133.331 53.9829 133.153 54.5007Z" fill="#EF6744"/>
<path d="M107.363 62.0827H108.249C108.529 62.0827 108.79 61.9339 108.927 61.6899C109.319 60.9996 110.176 59.5416 111.032 58.3989C111.871 57.2742 113.22 56.2565 113.904 55.7804C114.154 55.6079 114.273 55.3103 114.225 55.0128C114.124 54.4533 114.011 53.4476 114.136 52.1979C114.196 51.5849 114.231 50.7874 114.362 50.0019C114.398 49.7817 117.371 48.2523 117.52 48.401C117.65 48.532 117.841 48.6034 118.007 48.7105C119.654 49.7579 121.189 51.7396 121.795 52.5787C121.968 52.8168 122.253 52.9358 122.55 52.8882C122.919 52.8287 123.49 52.7513 124.209 52.674C124.138 53.6559 124.388 54.614 124.887 55.4293H132.707C132.885 55.1377 133.04 54.8283 133.153 54.495C133.331 53.9773 133.409 53.4536 133.397 52.9358C134.312 53.0965 135.234 53.2988 136.15 53.5666C136.221 54.5605 136.221 55.6257 136.09 56.7624C135.502 62.0529 130.049 69.0574 127.462 72.1104C126.647 73.0744 126.118 73.6458 126.118 73.6458L130.572 78.2936C130.572 78.2936 140.413 72.6876 146.598 62.9456C146.639 62.8742 146.681 62.8028 146.723 62.7373C148.185 68.1469 143.387 74.4015 142.162 75.8893C141.989 76.0976 141.942 76.3833 142.031 76.6451L143.089 79.71C143.208 80.0492 143.077 80.43 142.774 80.6264L139.634 82.6617C139.325 82.8641 138.915 82.8224 138.653 82.5546L136.328 80.2277C136.132 80.0313 135.859 79.954 135.591 80.0194C134.729 80.2337 132.439 80.674 128.069 80.674H118.079C117.9 80.674 117.728 80.7336 117.591 80.8466L114.612 83.2092C114.315 83.4473 113.886 83.4354 113.601 83.1795L111.026 80.8704C110.77 80.6383 110.693 80.2753 110.836 79.9599L112.221 76.9129C112.334 76.657 112.311 76.3654 112.15 76.1333C111.74 75.5442 110.895 74.3123 110.069 72.9257C109.284 71.6164 108.945 70.1346 108.802 69.3074C108.737 68.9325 108.41 68.6587 108.029 68.6587H107.369C106.935 68.6587 106.584 68.3076 106.584 67.8732V67.1412V62.8563C106.578 62.4338 106.929 62.0827 107.363 62.0827Z" fill="#F1C4D9"/>
<path d="M118.061 63.1057C117.624 63.1057 117.27 62.7513 117.27 62.3142C117.27 61.8771 117.624 61.5227 118.061 61.5227C118.498 61.5227 118.852 61.8771 118.852 62.3142C118.852 62.7513 118.498 63.1057 118.061 63.1057Z" fill="black"/>
<path d="M123.894 43.2111C123.894 43.2111 122.348 42.9255 121.26 41.1223C120.172 39.3191 120.273 37.8848 120.273 37.8848C120.273 37.8848 122.354 36.3495 125.321 35.314C128.289 34.2785 130.322 34.5998 130.756 34.7962C132.029 35.3675 131.559 35.9805 131.559 35.9805C131.559 35.9805 132.356 36.5756 132.219 37.2838C132.118 37.8015 131.327 37.867 131.327 37.867C131.327 37.867 131.755 38.3788 131.417 38.837C131.078 39.2953 129.02 38.8846 128.063 39.2358C127.105 39.5869 126.469 39.9737 126.469 39.9737C126.469 39.9737 127.991 40.2891 127.742 40.908C127.492 41.5269 126.38 41.4674 125.476 42.009C124.572 42.5565 123.894 43.2111 123.894 43.2111Z" fill="#EF6744"/>
<path d="M126.13 73.6514C126.13 73.6514 127.706 73.6752 129.074 75.2701C130.441 76.8709 130.584 78.2992 130.584 78.2992C130.584 78.2992 128.788 80.156 126.029 81.6735C123.276 83.1851 121.212 83.2029 120.754 83.0839C119.411 82.7328 119.767 82.0484 119.767 82.0484C119.767 82.0484 118.881 81.5961 118.899 80.8701C118.911 80.3464 119.684 80.144 119.684 80.144C119.684 80.144 119.179 79.7096 119.434 79.2038C119.69 78.6979 121.789 78.7574 122.675 78.2516C123.561 77.7457 124.126 77.2578 124.126 77.2578C124.126 77.2578 122.568 77.1982 122.717 76.5496C122.865 75.9009 123.966 75.7759 124.768 75.0915C125.565 74.4131 126.13 73.6514 126.13 73.6514Z" fill="#EF6744"/>
<path d="M126.231 73.8833C126.32 73.8833 126.404 73.8535 126.475 73.7881C126.6 73.675 138.903 62.3679 136.221 50.8346C135.056 45.8118 132.201 44.6335 132.083 44.5859C131.898 44.5085 131.684 44.6037 131.613 44.7882C131.541 44.9727 131.631 45.1869 131.815 45.2584C131.839 45.2703 134.443 46.3772 135.514 50.9952C138.094 62.112 126.106 73.1394 125.987 73.2465C125.839 73.3834 125.827 73.6096 125.964 73.7583C126.035 73.8476 126.13 73.8833 126.231 73.8833Z" fill="#2755A3"/>
<path d="M97.8012 54.304C100.988 54.304 104.83 53.8219 109.296 52.4175C119.571 49.186 123.692 43.83 123.864 43.6038C123.983 43.4432 123.954 43.217 123.793 43.098C123.633 42.979 123.407 43.0087 123.288 43.1694C123.246 43.223 119.119 48.573 109.082 51.7331C95.3631 56.0417 87.4246 51.376 87.3473 51.3284C87.1749 51.2272 86.9548 51.2808 86.8478 51.4534C86.7467 51.626 86.8002 51.8462 86.9727 51.9533C87.1927 52.0842 90.9746 54.304 97.8012 54.304Z" fill="#2755A3"/>
<path d="M30.0414 84.5836L34.6023 99.4078L28.7807 103.104L5.13167 83.8992C4.42999 83.3279 4.19213 82.3578 4.54892 81.5247L6.761 76.377C9.66881 76.9245 15.3477 78.1444 22.1147 80.6558C27.0919 82.5066 30.0414 84.5836 30.0414 84.5836Z" fill="black"/>
<path d="M6.761 76.3769L4.54892 81.5246C4.19214 82.3578 4.43 83.3278 5.13168 83.8991L28.7807 103.103L28.7866 103.109L26.634 104.472C26.0453 104.847 25.2782 104.788 24.7549 104.335L0.719433 83.5837C0.160467 83.1017 0.00584984 82.2923 0.356689 81.6377L2.93744 76.7875C3.2645 76.1805 3.9424 75.8532 4.6203 75.9722L6.761 76.365V76.3769Z" fill="#EF6744"/>
<path d="M27.074 84.6073C27.0681 84.6133 27.0681 84.6192 27.0621 84.6252C27.0383 84.6787 26.4318 85.9047 26.7648 88.7255C27.1335 91.826 28.4536 93.0877 28.5071 93.1353C28.6558 93.2722 28.8817 93.2662 29.0185 93.1174C29.1612 92.9746 29.1493 92.7425 29.0007 92.6056C28.9888 92.5937 27.8114 91.4452 27.4784 88.6362C27.1751 86.0713 27.6984 84.9584 27.7043 84.9465C27.7935 84.768 27.7162 84.5478 27.5438 84.4645C27.3713 84.3812 27.1691 84.4466 27.074 84.6073Z" fill="white"/>
<path d="M23.8929 83.7743C23.8869 83.7803 23.8869 83.7862 23.881 83.7922C23.8572 83.8457 23.2506 85.0717 23.5836 87.8925C23.9523 90.9871 25.2724 92.2547 25.3259 92.3023C25.4746 92.4392 25.7006 92.4332 25.8374 92.2844C25.9801 92.1357 25.9682 91.9095 25.8195 91.7726C25.7957 91.7488 24.6302 90.5943 24.3032 87.8032C23.9999 85.2383 24.5232 84.1254 24.5291 84.1135C24.6183 83.935 24.541 83.7148 24.3686 83.6315C24.1961 83.5482 23.988 83.6136 23.8929 83.7743Z" fill="white"/>
<path d="M20.7291 82.9112C20.7231 82.9171 20.7231 82.9231 20.7172 82.929C20.6934 82.9826 20.0869 84.2085 20.4199 87.0294C20.7885 90.1299 22.1086 91.3915 22.1622 91.4391C22.3108 91.576 22.5368 91.5701 22.6735 91.4213C22.8163 91.2725 22.8044 91.0464 22.6557 90.9095C22.6319 90.8916 21.4664 89.7371 21.1394 86.9401C20.8361 84.3751 21.3594 83.2623 21.3653 83.2504C21.4545 83.0719 21.3772 82.8517 21.2048 82.7683C21.0323 82.685 20.8242 82.7445 20.7291 82.9112Z" fill="white"/>
<path d="M17.6429 81.9174C17.6369 81.9233 17.6369 81.9293 17.631 81.9352C17.6072 81.9888 17.0006 83.2147 17.3336 86.0356C17.7023 89.1302 19.0224 90.3977 19.076 90.4454C19.2246 90.5822 19.4506 90.5763 19.5874 90.4275C19.7301 90.2787 19.7182 90.0526 19.5695 89.9157C19.5576 89.9038 18.3802 88.7552 18.0472 85.9463C17.7439 83.3814 18.2672 82.2685 18.2732 82.2566C18.3624 82.0781 18.2851 81.8579 18.1126 81.7745C17.9461 81.6912 17.738 81.7567 17.6429 81.9174Z" fill="white"/>
<path d="M64.6319 29.9698C65.2325 29.6009 66.4515 28.9522 68.1344 28.5832C68.5804 28.4821 69.0263 28.4702 69.4604 28.5237C69.0144 27.9524 68.616 27.3573 68.3306 26.7741C67.5635 25.1792 67.2127 23.3641 67.064 22.2691C67.0105 21.8823 67.4505 21.6264 67.7597 21.8644C68.9847 22.8047 71.2919 24.7031 72.279 26.417C72.4693 26.7503 72.6121 27.0954 72.731 27.4466C72.8618 25.7921 73.2008 23.989 73.9678 22.6083C75.2582 20.2754 76.6497 17.77 77.3871 16.4429C77.5417 16.1692 77.9579 16.2644 77.9698 16.5798C78.0114 18.2997 77.946 21.7097 76.9113 24.1853C76.4297 25.3339 75.8231 26.5836 75.2225 27.7382C75.3653 27.643 75.5199 27.5596 75.6804 27.4942C77.5238 26.7681 79.058 25.6077 79.9262 24.8578C80.2176 24.6079 80.6576 24.8519 80.6041 25.2268C80.4733 26.1076 80.17 27.3156 79.4564 28.006C78.2374 29.1843 77.1135 29.1902 76.168 29.6485C76.0253 29.7199 75.8469 29.827 75.6566 29.952C75.841 29.9937 76.0313 30.0413 76.2215 30.1067C77.2979 30.4757 79.4088 30.071 80.7349 29.7437C81.062 29.6663 81.282 30.071 81.0263 30.3031C80.4554 30.8149 79.611 31.5052 78.5169 32.2075C76.6735 33.3858 74.3068 33.0347 73.177 32.3503C73.0164 32.5705 72.7904 32.6955 72.5823 32.7252C71.8509 32.8383 70.8281 32.5467 69.5377 31.5052C68.5268 30.6899 65.839 30.3745 64.7211 30.2734C64.5487 30.2734 64.4892 30.0591 64.6319 29.9698Z" fill="#2755A3"/>
<path d="M85.2839 32.2314L73.5219 43.7171L61.7657 32.2314H85.2839Z" fill="white"/>
<path d="M84.5168 32.2016C84.5584 32.2016 84.5941 32.1956 84.6357 32.1837C84.826 32.1182 84.9271 31.91 84.8617 31.7195L74.503 1.89243C74.4554 1.74961 74.3186 1.65439 74.17 1.64844H74.164C74.0154 1.64844 73.8845 1.7377 73.8251 1.88053L62.0571 31.7076C61.9857 31.8921 62.0749 32.1063 62.2592 32.1778C62.4436 32.2492 62.6576 32.1599 62.729 31.9754L74.1343 3.05291L84.1779 31.9576C84.2254 32.1063 84.3681 32.2016 84.5168 32.2016Z" fill="white"/>
<path d="M166.352 89.0588H183.591V130.991H166.352V89.0588Z" fill="#EF6744"/>
<path d="M176.812 85.6607C177.091 82.935 177.519 81.0485 177.971 79.7393C177.65 79.293 177.436 78.7097 177.365 78.0194C177.228 76.7578 178.179 74.4666 179.268 72.3896C178.512 72.6098 177.924 72.6277 177.501 72.586C177.097 74.0917 176.699 76.2579 176.449 79.3584C176.146 83.1195 176.158 86.4462 176.276 89.0588H174.035C173.654 85.1905 172.81 79.2751 170.972 75.0141C169.266 71.0566 168.415 68.0632 168.041 65.8255C167.684 65.7065 167.327 65.522 166.964 65.2483C163.581 62.6952 163.932 58.2438 164.181 56.6548C164.235 56.3097 164.514 56.0478 164.859 56.0062C165.549 55.9228 165.793 55.0421 165.246 54.6076L164.604 54.1018C164.366 53.9114 164.259 53.6138 164.324 53.3162C164.544 52.3284 165.169 49.936 166.512 47.0616C167.981 43.9075 170.051 40.5273 170.699 39.4799C170.83 39.2716 171.044 39.1406 171.287 39.1168L172.245 39.0216L171.662 37.5398C171.585 37.3375 171.591 37.1232 171.68 36.9268C171.846 36.5638 172.173 35.8794 172.667 34.9272C173.137 34.0286 174.058 32.3564 174.707 31.2018C175.022 30.6424 175.836 30.6722 176.104 31.2554C176.425 31.9517 176.77 32.8741 176.96 33.8679C177.365 35.9984 177.198 36.7959 177.68 41.6461C178.043 45.3179 178.078 47.9662 178.072 49.0433C178.072 49.3647 177.876 49.6444 177.579 49.7634L176.538 50.18L177.162 50.6442C177.412 50.8287 177.525 51.1381 177.46 51.4416C177.234 52.4593 176.669 54.9052 175.949 57.4047C175.23 59.9101 172.798 65.0102 169.825 65.8672C170.193 67.8846 170.996 70.6341 172.59 74.3357C173.446 76.3233 174.094 78.6145 174.588 80.8938C174.623 80.3522 174.659 79.7928 174.707 79.2275C174.992 75.7104 175.462 73.2823 175.961 71.6041C174.939 70.4139 173.357 67.956 174.189 64.7424C175.379 60.1482 181.325 52.5843 184.81 50.1145C188.294 47.6508 189.145 46.6272 189.145 46.6272C189.145 46.6272 189.822 47.99 190.417 47.6448C191.012 47.3056 191.267 45.6036 191.862 45.431C192.457 45.2584 196.197 42.5387 196.875 43.3898C197.553 44.2408 196.792 48.3232 192.54 52.8283C188.294 57.3333 186.849 57.9284 185.743 62.4393C185.535 63.2903 185.291 64.1235 185.018 64.9269C187.955 63.4689 191.125 60.8087 192.885 59.5471C193.872 58.8449 195.115 58.214 196.031 57.7975C196.613 57.5297 197.261 58.0236 197.137 58.6544C196.899 59.8803 196.322 61.8918 194.919 64.6532C192.457 69.4974 190.756 69.7533 188.205 72.7288C185.654 75.7044 184.893 78.0016 182.175 79.7869C181.153 80.4594 180.261 80.7093 179.523 80.6439C179.172 81.7627 178.816 83.4111 178.56 85.8511C178.435 87.0592 178.334 88.1185 178.257 89.0647H176.496C176.574 88.059 176.681 86.9461 176.812 85.6607Z" fill="url(#paint3_linear)"/>
<path d="M150.106 57.7796C151.819 58.2617 154.768 59.4519 157.42 62.3204C159.668 64.7484 163.242 66.6052 164.503 67.2181C164.776 67.3491 164.919 67.6466 164.853 67.9442L164.485 69.6879L165.614 69.0689C165.882 68.9202 166.215 68.9737 166.417 69.1999C167.339 70.2294 169.831 73.1633 170.812 75.9544C171.49 77.8885 171.323 79.1859 170.824 80.0785C171.484 81.4354 172.15 83.0422 172.709 84.8692C173.149 86.3153 173.517 87.7317 173.827 89.0588H172.019C171.739 87.8805 171.412 86.6367 171.026 85.381C170.574 83.8992 170.039 82.5661 169.498 81.3997C169.426 81.4473 169.349 81.489 169.278 81.5247C168.13 82.1555 165.519 81.4295 164.17 80.9831C163.747 80.8403 163.587 80.3344 163.848 79.9714L165.674 77.4719L163.206 79.4001C162.927 79.6203 162.522 79.5786 162.296 79.2989C160.982 77.6743 156.772 72.3599 154.322 67.7954C152.294 64.0224 150.356 60.5291 149.351 58.7318C149.077 58.226 149.547 57.6249 150.106 57.7796Z" fill="url(#paint4_linear)"/>
<path d="M168.76 65.4328C168.766 65.4328 168.772 65.4328 168.772 65.4328C168.867 65.4268 168.939 65.3376 168.933 65.2483C168.403 58.9579 169.557 55.6134 172.215 48.6506C174.784 41.9377 175.676 31.9457 175.682 31.8446C175.688 31.7493 175.622 31.666 175.521 31.6541C175.426 31.6422 175.343 31.7136 175.331 31.8148C175.325 31.916 174.433 41.8544 171.882 48.5256C169.2 55.536 168.041 58.9044 168.576 65.278C168.594 65.3673 168.671 65.4328 168.76 65.4328Z" fill="white"/>
<path d="M177.133 71.3541C177.204 71.3541 177.27 71.3124 177.293 71.2469C177.317 71.1874 179.678 65.2125 181.426 60.5409C183.168 55.8871 185.589 53.7447 189.174 51.6201C192.784 49.4836 196.494 44.2347 196.53 44.1871C196.584 44.1098 196.566 44.0027 196.489 43.9431C196.411 43.8896 196.304 43.9074 196.245 43.9848C196.215 44.0384 192.54 49.2218 189.002 51.3166C185.351 53.4769 182.889 55.6609 181.105 60.4099C179.357 65.0816 176.996 71.0506 176.972 71.1101C176.937 71.1993 176.978 71.3005 177.067 71.3362C177.091 71.3541 177.115 71.3541 177.133 71.3541Z" fill="white"/>
<path d="M179.202 79.6977C179.25 79.6977 179.297 79.6798 179.333 79.6382C179.351 79.6144 181.206 77.4541 182.526 75.1094C183.299 73.7287 186.118 68.9975 189.787 66.0755C193.01 63.5047 196.423 58.9282 196.459 58.8806C196.518 58.8033 196.5 58.6961 196.423 58.6366C196.346 58.5831 196.239 58.595 196.179 58.6723C196.144 58.7199 192.76 63.2607 189.573 65.8018C185.85 68.7655 183.008 73.5383 182.223 74.9368C180.921 77.2577 179.089 79.3882 179.071 79.412C179.012 79.4834 179.018 79.5965 179.089 79.656C179.119 79.6858 179.161 79.6977 179.202 79.6977Z" fill="white"/>
<path d="M169.979 80.6557C169.997 80.6557 170.015 80.6557 170.033 80.6498C170.122 80.62 170.175 80.5248 170.146 80.4296C170.098 80.2749 168.897 76.6447 164.265 72.6693C159.793 68.8308 156.659 64.7484 155.155 62.7904L154.994 62.5821C153.519 60.6659 150.302 58.2914 150.166 58.1902C150.088 58.1307 149.981 58.1485 149.922 58.2259C149.862 58.3033 149.88 58.4104 149.957 58.4699C149.987 58.4937 153.276 60.9158 154.715 62.7904L154.875 62.9987C156.386 64.9686 159.537 69.0689 164.033 72.9312C168.582 76.8351 169.795 80.4951 169.807 80.5308C169.836 80.6141 169.908 80.6557 169.979 80.6557Z" fill="white"/>
<path d="M166.346 91.1477H183.597V91.844H166.346V91.1477Z" fill="#2755A3"/>
<path d="M166.346 93.4746H183.597V94.1709H166.346V93.4746Z" fill="#2755A3"/>
</g>
<defs>
<linearGradient id="paint0_linear" x1="138.777" y1="124.591" x2="69.7462" y2="2.9866" gradientUnits="userSpaceOnUse">
<stop stop-color="#EF6744"/>
<stop offset="0.0596" stop-color="#F07456"/>
<stop offset="0.1763" stop-color="#F18874"/>
<stop offset="0.2976" stop-color="#F19990"/>
<stop offset="0.4221" stop-color="#F1A8A8"/>
<stop offset="0.5508" stop-color="#F1B4BC"/>
<stop offset="0.6852" stop-color="#F1BDCB"/>
<stop offset="0.8293" stop-color="#F1C2D5"/>
<stop offset="1" stop-color="#F1C4D9"/>
</linearGradient>
<linearGradient id="paint1_linear" x1="111.551" y1="84.2319" x2="29.6154" y2="84.2319" gradientUnits="userSpaceOnUse">
<stop offset="0.2808" stop-color="#151E27"/>
<stop offset="0.3581" stop-color="#1D2838"/>
<stop offset="0.5192" stop-color="#283A5B"/>
<stop offset="0.6694" stop-color="#2C4678"/>
<stop offset="0.8044" stop-color="#2B4E8E"/>
<stop offset="0.9191" stop-color="#28529C"/>
<stop offset="1" stop-color="#2755A3"/>
</linearGradient>
<linearGradient id="paint2_linear" x1="134.599" y1="78.8885" x2="68.3072" y2="78.8885" gradientUnits="userSpaceOnUse">
<stop offset="0.2808" stop-color="#151E27"/>
<stop offset="0.3581" stop-color="#1D2838"/>
<stop offset="0.5192" stop-color="#283A5B"/>
<stop offset="0.6694" stop-color="#2C4678"/>
<stop offset="0.8044" stop-color="#2B4E8E"/>
<stop offset="0.9191" stop-color="#28529C"/>
<stop offset="1" stop-color="#2755A3"/>
</linearGradient>
<linearGradient id="paint3_linear" x1="197.149" y1="59.9219" x2="164.037" y2="59.9219" gradientUnits="userSpaceOnUse">
<stop offset="0.0667" stop-color="#F1C4D9"/>
<stop offset="0.8654" stop-color="#2755A3"/>
</linearGradient>
<linearGradient id="paint4_linear" x1="173.825" y1="73.4057" x2="149.278" y2="73.4057" gradientUnits="userSpaceOnUse">
<stop offset="0.0667" stop-color="#F1C4D9"/>
<stop offset="0.8654" stop-color="#2755A3"/>
</linearGradient>
<clipPath id="clip0">
<rect width="196.976" height="134.835" fill="white" transform="matrix(-1 0 0 1 197.149 0)"/>
</clipPath>
</defs>
</svg>
