<svg width="17" height="22" viewBox="0 0 17 22" fill="none" xmlns="http://www.w3.org/2000/svg">
<path d="M6.06394 10.2597C5.82371 10.0139 5.43414 10.0139 5.19387 10.2597C4.9536 10.5055 4.9536 10.9041 5.19387 11.1499L7.10795 13.1083C7.22808 13.2312 7.38554 13.2927 7.54296 13.2927C7.70038 13.2927 7.85788 13.2313 7.97797 13.1083L11.8061 9.19154C12.0463 8.9457 12.0463 8.54716 11.8061 8.30132C11.5659 8.05548 11.1763 8.05548 10.936 8.30132L7.54292 11.773L6.06394 10.2597Z" fill="#EA5B21"/>
<path d="M16.2893 2.93751C14.516 2.93751 12.9004 1.9406 12.073 0.335799C11.9666 0.12925 11.7571 0 11.5289 0H5.47112C5.24291 0 5.0334 0.12925 4.92692 0.335799C4.09964 1.9406 2.48403 2.93751 0.707031 2.93751C0.367258 2.93751 0.0917969 3.21934 0.0917969 3.56697V9.97707C0.0917969 12.554 0.878764 15.0147 2.36759 17.0932C3.8565 19.1717 5.91294 20.6805 8.31473 21.4565C8.37503 21.476 8.43749 21.4857 8.5 21.4857C8.56251 21.4857 8.62497 21.476 8.68527 21.4565C11.0871 20.6805 13.1435 19.1717 14.6324 17.0932C16.1212 15.0147 16.9082 12.554 16.9082 9.97707V3.56697C16.9082 3.21934 16.6291 2.93751 16.2893 2.93751ZM15.6777 9.97707C15.6777 14.6357 12.8015 18.7166 8.5 20.1943C4.19853 18.7166 1.32227 14.6357 1.32227 9.97707V4.16484C3.18429 3.97147 4.84953 2.90234 5.82898 1.25893H11.1711C12.15 2.9015 13.8142 3.97038 15.6777 4.16454V9.97707Z" fill="#EA5B21"/>
<path d="M10.6984 2.74896C10.5815 2.60268 10.4066 2.51782 10.2219 2.51782H6.77804C6.59339 2.51782 6.4185 2.60268 6.30169 2.74896C5.43174 3.83799 4.28167 4.64581 2.97581 5.08502C2.72336 5.16991 2.55273 5.41108 2.55273 5.68301V9.97714C2.55273 13.8321 4.7942 17.2793 8.26322 18.7593C8.33901 18.7916 8.41953 18.8077 8.5 18.8077C8.58047 18.8077 8.66103 18.7916 8.73678 18.7593C12.2058 17.2793 14.4473 13.8321 14.4473 9.97714V5.68343C14.4473 5.41154 14.2767 5.17037 14.0242 5.08544C12.7183 4.64606 11.5683 3.83816 10.6984 2.74896ZM13.2168 9.97714C13.2168 13.2338 11.3739 16.1548 8.5 17.4918C5.62608 16.1549 3.7832 13.2338 3.7832 9.97714V6.12587C5.04583 5.6238 6.16855 4.82018 7.06314 3.77676H9.93682C10.8315 4.8203 11.954 5.62405 13.2168 6.1262V9.97714Z" fill="#EA5B21"/>
</svg>
