<svg width="23" height="26" viewBox="0 0 23 26" fill="none" xmlns="http://www.w3.org/2000/svg">
<path d="M7.18755 11.5C7.18755 10.0785 7.60909 8.68882 8.39886 7.50684C9.18863 6.32486 10.3112 5.40362 11.6245 4.85962C12.9379 4.31561 14.383 4.17328 15.7773 4.45061C17.1715 4.72794 18.4522 5.41248 19.4574 6.41767C20.4626 7.42286 21.1471 8.70355 21.4244 10.0978C21.7018 11.492 21.5594 12.9372 21.0154 14.2505C20.4714 15.5639 19.5502 16.6864 18.3682 17.4762C17.1862 18.266 15.7966 18.6875 14.375 18.6875H6.4688C5.75529 18.6868 5.0501 18.5344 4.40001 18.2403C3.74993 17.9462 3.16983 17.5172 2.69822 16.9818C2.22661 16.4464 1.87427 15.8168 1.66459 15.1348C1.45492 14.4528 1.3927 13.734 1.48206 13.0261C1.57143 12.3182 1.81034 11.6374 2.18293 11.0289C2.55553 10.4204 3.05328 9.89815 3.64317 9.49674C4.23305 9.09533 4.90156 8.82397 5.60433 8.70068C6.30711 8.5774 7.02807 8.60499 7.71936 8.78165" stroke="#EA5B21" stroke-width="1.4375" stroke-linecap="round" stroke-linejoin="round"/>
<line x1="11.8594" y1="18.6875" x2="11.8594" y2="24.4375" stroke="#EA5B21" stroke-width="0.71875"/>
<circle cx="16.8906" cy="24.7969" r="1.07812" fill="#EA5B21"/>
<circle cx="11.8594" cy="24.7969" r="1.07812" fill="#EA5B21"/>
<circle cx="6.82812" cy="24.7969" r="1.07812" fill="#EA5B21"/>
<line y1="24.7969" x2="23" y2="24.7969" stroke="#EA5B21" stroke-width="0.71875"/>
</svg>
