<svg width="16" height="16" viewBox="0 0 16 16" fill="none" xmlns="http://www.w3.org/2000/svg">
<path fill-rule="evenodd" clip-rule="evenodd" d="M2.66663 6.61533C2.66663 3.70266 5.05929 1.33333 7.99996 1.33333C10.9406 1.33333 13.3333 3.70266 13.3333 6.61533C13.3333 10.2647 8.63396 14.3347 8.43396 14.506C8.30863 14.6133 8.15463 14.6667 7.99996 14.6667C7.84529 14.6667 7.69129 14.6133 7.56596 14.506C7.36596 14.3347 2.66663 10.2647 2.66663 6.61533ZM7.99996 8.66666C6.71329 8.66666 5.66663 7.61999 5.66663 6.33333C5.66663 5.04666 6.71329 3.99999 7.99996 3.99999C9.28663 3.99999 10.3333 5.04666 10.3333 6.33333C10.3333 7.61999 9.28663 8.66666 7.99996 8.66666ZM7.99996 5.33333C7.44863 5.33333 6.99996 5.78199 6.99996 6.33333C6.99996 6.88466 7.44863 7.33333 7.99996 7.33333C8.55129 7.33333 8.99996 6.88466 8.99996 6.33333C8.99996 5.78199 8.55129 5.33333 7.99996 5.33333Z" fill="#0D1C2E"/>
<mask id="mask0" mask-type="alpha" maskUnits="userSpaceOnUse" x="2" y="1" width="12" height="14">
<path fill-rule="evenodd" clip-rule="evenodd" d="M2.66663 6.61533C2.66663 3.70266 5.05929 1.33333 7.99996 1.33333C10.9406 1.33333 13.3333 3.70266 13.3333 6.61533C13.3333 10.2647 8.63396 14.3347 8.43396 14.506C8.30863 14.6133 8.15463 14.6667 7.99996 14.6667C7.84529 14.6667 7.69129 14.6133 7.56596 14.506C7.36596 14.3347 2.66663 10.2647 2.66663 6.61533ZM7.99996 8.66666C6.71329 8.66666 5.66663 7.61999 5.66663 6.33333C5.66663 5.04666 6.71329 3.99999 7.99996 3.99999C9.28663 3.99999 10.3333 5.04666 10.3333 6.33333C10.3333 7.61999 9.28663 8.66666 7.99996 8.66666ZM7.99996 5.33333C7.44863 5.33333 6.99996 5.78199 6.99996 6.33333C6.99996 6.88466 7.44863 7.33333 7.99996 7.33333C8.55129 7.33333 8.99996 6.88466 8.99996 6.33333C8.99996 5.78199 8.55129 5.33333 7.99996 5.33333Z" fill="white"/>
</mask>
<g mask="url(#mask0)">
</g>
</svg>
