<svg width="25" height="25" viewBox="0 0 25 25" fill="none" xmlns="http://www.w3.org/2000/svg">
<g clip-path="url(#clip0)">
<path d="M22.1786 4.03373L3.17857 4.00392C1.80059 4.00176 0.676829 5.122 0.674667 6.50003L0.657409 17.5C0.655247 18.878 1.77549 20.0018 3.15347 20.0039L22.1534 20.0337C23.5314 20.0359 24.6552 18.9157 24.6573 17.5377L24.6746 6.53768C24.6768 5.15965 23.5566 4.03589 22.1786 4.03373ZM23.6574 17.5361C23.6561 18.3631 22.9821 19.035 22.155 19.0337L3.15504 19.0039C2.32802 19.0026 1.65609 18.3286 1.65739 17.5016L1.67465 6.5016C1.67595 5.67458 2.34999 5.00265 3.177 5.00395L22.177 5.03376C23.004 5.03506 23.6759 5.7091 23.6746 6.53611L23.6573 17.5361L23.6574 17.5361Z" fill="#EA5B21"/>
<path d="M24.1738 7.03687L1.17384 7.00078C0.897843 7.00035 0.673477 7.22402 0.673044 7.50002L0.668337 10.5C0.667904 10.776 0.891568 11.0004 1.16757 11.0008L24.1676 11.0369C24.4436 11.0373 24.6679 10.8137 24.6684 10.5377L24.6731 7.53767C24.6734 7.26167 24.4498 7.0373 24.1738 7.03687ZM23.6691 10.0361L1.6691 10.0016L1.67224 8.00155L23.6722 8.03607L23.6691 10.0361L23.6691 10.0361Z" fill="#EA5B21"/>
<path d="M10.1629 14.0149L4.16286 14.0055C3.88686 14.0051 3.66249 14.2287 3.66206 14.5047C3.66162 14.7807 3.88529 15.005 4.16129 15.0055L10.1613 15.0149C10.4373 15.0153 10.6616 14.7917 10.6621 14.5157C10.6625 14.2397 10.4388 14.0153 10.1629 14.0149Z" fill="#EA5B21"/>
<path d="M10.1597 16.0149L4.15968 16.0055C3.88368 16.0051 3.65932 16.2287 3.65888 16.5047C3.65845 16.7807 3.88211 17.0051 4.15811 17.0055L10.1581 17.0149C10.4341 17.0154 10.6585 16.7917 10.6589 16.5157C10.6593 16.2397 10.4357 16.0153 10.1597 16.0149Z" fill="#EA5B21"/>
<path d="M20.1644 13.0306L19.1644 13.029C18.3374 13.0277 17.6634 13.6997 17.6621 14.5267L17.6605 15.5267C17.6592 16.3537 18.3311 17.0277 19.1582 17.029L20.1581 17.0306C20.9851 17.0319 21.6592 16.3599 21.6605 15.5329L21.6621 14.5329C21.6634 13.706 20.9914 13.0319 20.1644 13.0306ZM20.6605 15.5314C20.6601 15.8074 20.4357 16.0311 20.1597 16.0306L19.1597 16.0291C18.8837 16.0286 18.6601 15.8043 18.6605 15.5283L18.6621 14.5283C18.6625 14.2523 18.8869 14.0286 19.1629 14.0291L20.1628 14.0306C20.4388 14.0311 20.6625 14.2554 20.6621 14.5314L20.6605 15.5314Z" fill="#EA5B21"/>
</g>
<defs>
<clipPath id="clip0">
<rect width="24" height="24" fill="white" transform="translate(0.684814) rotate(0.0898899)"/>
</clipPath>
</defs>
</svg>
