<svg width="34" height="34" viewBox="0 0 34 34" fill="none" xmlns="http://www.w3.org/2000/svg">
<g clip-path="url(#clip0)">
<path d="M23.8765 16.9172L23.5105 11.6095C23.4464 10.7086 23.0394 9.86472 22.3764 9.25279L23.5919 7.47726C23.7477 7.24963 23.689 6.93588 23.4613 6.78006C23.2337 6.62423 22.9199 6.68297 22.7641 6.9106L21.5486 8.68613C20.7411 8.28528 19.8071 8.21119 18.9454 8.4844L13.8537 10.062C13.411 10.2027 13.0235 10.4845 12.76 10.8694L5.6797 21.2122C5.04352 22.1504 5.28656 23.4291 6.22476 24.0652C6.22889 24.0681 6.22889 24.0681 6.23303 24.0709L13.5711 29.0943C14.5007 29.7429 15.7821 29.5138 16.4307 28.5841C16.4335 28.58 16.4335 28.58 16.4363 28.5758L23.5167 18.2331C23.7802 17.8482 23.9027 17.385 23.8765 16.9172ZM19.2001 13.0048C19.8664 13.4609 20.0361 14.3673 19.58 15.0336C19.1238 15.7 18.2175 15.8697 17.5511 15.4135C16.8848 14.9574 16.7151 14.051 17.1712 13.3846C17.6245 12.7224 18.5337 12.5486 19.2001 13.0048ZM15.6127 28.012C15.2812 28.4962 14.6261 28.6009 14.1418 28.2694L6.79969 23.2432C6.31545 22.9117 6.17596 22.263 6.50745 21.7788L13.5878 11.436C13.7238 11.2374 13.9232 11.0882 14.1522 11.0201L19.2397 9.4396C19.8095 9.26436 20.4241 9.29 20.9735 9.5263L19.3245 11.9351C18.0678 11.409 16.6275 12.0035 16.1015 13.2602C15.5755 14.5169 16.1699 15.9572 17.4267 16.4832C18.6834 17.0092 20.1237 16.4148 20.6497 15.1581C21.0253 14.2542 20.8336 13.2113 20.1523 12.5017L21.8012 10.093C21.9483 10.2422 22.0741 10.4135 22.1804 10.5957C22.3684 10.9249 22.4807 11.2936 22.5052 11.6751L22.8795 16.9885C22.896 17.2307 22.8291 17.4706 22.6931 17.6692L15.6127 28.012Z" fill="#EA5B21"/>
<path d="M14.4487 22.7779C14.6604 22.078 14.3957 21.3193 13.7914 20.9057C13.4851 20.696 13.4068 20.2777 13.6165 19.9714C13.8261 19.6651 14.2445 19.5868 14.5507 19.7965C14.857 20.0061 14.9353 20.4245 14.7257 20.7307C14.5698 20.9584 14.6286 21.2721 14.8562 21.4279C15.0838 21.5838 15.3976 21.525 15.5534 21.2974C15.9671 20.6931 15.9394 19.8901 15.4888 19.3141L15.6134 19.132C15.7693 18.9044 15.7105 18.5907 15.4829 18.4348C15.2552 18.279 14.9415 18.3377 14.7857 18.5654L14.661 18.7475C13.7768 18.4765 12.8385 18.9769 12.5675 19.8611C12.3558 20.5611 12.6205 21.3198 13.2248 21.7334C13.531 21.9431 13.6094 22.3614 13.3997 22.6677C13.19 22.9739 12.7717 23.0523 12.4654 22.8426C12.1592 22.6329 12.0808 22.2146 12.2905 21.9083C12.4463 21.6807 12.3876 21.367 12.16 21.2111C11.9323 21.0553 11.6186 21.1141 11.4628 21.3417C11.0491 21.946 11.0768 22.749 11.5274 23.3249L11.3857 23.5319C11.2299 23.7595 11.2887 24.0733 11.5163 24.2291C11.7439 24.3849 12.0577 24.3262 12.2135 24.0985L12.3552 23.8916C13.2394 24.1626 14.1777 23.6622 14.4487 22.7779Z" fill="#EA5B21"/>
</g>
<defs>
<clipPath id="clip0">
<rect width="24" height="24" fill="white" transform="translate(13.5573) rotate(34.3944)"/>
</clipPath>
</defs>
</svg>
