<svg width="69" height="11" viewBox="0 0 69 11" fill="none" xmlns="http://www.w3.org/2000/svg">
<path opacity="0.4" fill-rule="evenodd" clip-rule="evenodd" d="M63.1072 1.00025C65.5009 1.00025 67.4415 2.79106 67.4415 5.00013C67.4415 7.20919 65.5009 9 63.1072 9C60.7131 9 58.7727 7.20919 58.7727 5.00013C58.7727 2.79106 60.7131 1.00025 63.1072 1.00025Z" fill="#EA5B21"/>
<path fill-rule="evenodd" clip-rule="evenodd" d="M49.0202 1.00025C51.4139 1.00025 53.3546 2.79106 53.3546 5.00013C53.3546 7.20919 51.4139 9 49.0202 9C46.6262 9 44.6855 7.20919 44.6855 5.00013C44.6855 2.79106 46.6262 1.00025 49.0202 1.00025Z" fill="#EA5B21"/>
<path fill-rule="evenodd" clip-rule="evenodd" d="M34.933 1.00025C37.3268 1.00025 39.2675 2.79106 39.2675 5.00013C39.2675 7.20919 37.3268 9 34.933 9C32.5393 9 30.5986 7.20919 30.5986 5.00013C30.5986 2.79106 32.5393 1.00025 34.933 1.00025Z" fill="#EA5B21"/>
<path fill-rule="evenodd" clip-rule="evenodd" d="M20.8463 1.00025C23.24 1.00025 25.1806 2.79106 25.1806 5.00013C25.1806 7.20919 23.24 9 20.8463 9C18.4522 9 16.5118 7.20919 16.5118 5.00013C16.5118 2.79106 18.4522 1.00025 20.8463 1.00025Z" fill="#EA5B21"/>
<path fill-rule="evenodd" clip-rule="evenodd" d="M6.7593 1.00025C9.15306 1.00025 11.0938 2.79106 11.0938 5.00013C11.0938 7.20919 9.15306 9 6.7593 9C4.36555 9 2.42467 7.20919 2.42467 5.00013C2.42467 2.79106 4.36555 1.00025 6.7593 1.00025Z" fill="#EA5B21"/>
</svg>
