<svg width="40" height="40" viewBox="0 0 40 40" fill="none" xmlns="http://www.w3.org/2000/svg">
<path d="M35 23.3334C35.8548 23.3334 36.5592 23.9768 36.6555 24.8057L36.6667 25V35C36.6667 35.8548 36.0233 36.5592 35.1944 36.6555L35 36.6667H25C24.0796 36.6667 23.3334 35.9205 23.3334 35C23.3334 34.1453 23.9768 33.4409 24.8057 33.3446L25 33.3334H33.3334V25C33.3334 24.1453 33.9768 23.4409 34.8057 23.3446L35 23.3334ZM17.0119 22.9882C17.6127 23.589 17.6589 24.5344 17.1505 25.1882L17.0119 25.3452L9.02337 33.3334H15C15.8548 33.3334 16.5592 33.9768 16.6555 34.8057L16.6667 35C16.6667 35.8548 16.0233 36.5592 15.1944 36.6555L15 36.6667H5.00004L4.94628 36.6658C4.91626 36.6649 4.88627 36.6631 4.85632 36.6605L5.00004 36.6667C4.91567 36.6667 4.83277 36.6604 4.75177 36.6483C4.72346 36.644 4.69442 36.6389 4.6655 36.633C4.6288 36.6256 4.59265 36.617 4.55697 36.6072C4.53094 36.5999 4.50529 36.5922 4.4798 36.5838C4.44704 36.5732 4.41408 36.5612 4.38161 36.5482C4.35205 36.5364 4.32321 36.5239 4.29467 36.5106C4.26022 36.4944 4.22622 36.4771 4.19291 36.4586C4.17272 36.4475 4.15235 36.4357 4.13219 36.4234C4.08958 36.3972 4.04816 36.3692 4.00811 36.3395C3.9957 36.3305 3.98364 36.3212 3.97167 36.3118C3.8664 36.2291 3.77096 36.1337 3.68802 36.028L3.82153 36.1786C3.76254 36.1196 3.7089 36.0573 3.6606 35.9922C3.63086 35.9519 3.60291 35.9105 3.57682 35.8678C3.56439 35.8477 3.55254 35.8274 3.54116 35.8068C3.52303 35.7739 3.50567 35.7399 3.48946 35.7052C3.47617 35.6769 3.4637 35.648 3.45208 35.6189C3.4389 35.586 3.42691 35.553 3.41595 35.5196C3.40792 35.4948 3.4002 35.4691 3.39312 35.4434C3.3831 35.4074 3.37444 35.3713 3.36698 35.3347C3.36121 35.3057 3.35609 35.2766 3.35174 35.2475C3.34907 35.2304 3.34668 35.2125 3.34459 35.1944L3.33998 35.1488C3.33653 35.11 3.33443 35.0712 3.33368 35.0323L3.33337 35V25C3.33337 24.0796 4.07957 23.3334 5.00004 23.3334C5.85477 23.3334 6.55922 23.9768 6.65549 24.8057L6.66671 25V30.9734L14.6549 22.9882C15.3057 22.3373 16.361 22.3373 17.0119 22.9882ZM35 3.33337L35.0323 3.33368C35.0712 3.33443 35.11 3.33653 35.1488 3.33998L35 3.33337C35.0844 3.33337 35.1673 3.33964 35.2483 3.35174C35.2766 3.35609 35.3057 3.36121 35.3346 3.36711C35.3713 3.37444 35.4074 3.3831 35.4431 3.39291C35.4692 3.4002 35.4948 3.40792 35.5203 3.41627C35.553 3.42691 35.586 3.4389 35.6185 3.45188C35.648 3.4637 35.6769 3.47617 35.7054 3.4895C35.7399 3.50567 35.7739 3.52303 35.8072 3.5415C35.8274 3.55254 35.8477 3.56439 35.8679 3.5767C35.9105 3.60291 35.9519 3.63086 35.992 3.66056C36.0044 3.66963 36.0164 3.67885 36.0284 3.68825C36.1337 3.77096 36.2291 3.8664 36.3121 3.97212L36.1786 3.82153C36.2375 3.88052 36.2912 3.94283 36.3395 4.00786C36.3692 4.04816 36.3972 4.08958 36.4233 4.13227C36.4357 4.15235 36.4475 4.17272 36.4589 4.19327C36.4771 4.22622 36.4944 4.26022 36.5106 4.29488C36.5239 4.32321 36.5364 4.35205 36.548 4.38115C36.5612 4.41408 36.5732 4.44704 36.5841 4.48048C36.5922 4.50529 36.5999 4.53094 36.607 4.55672C36.617 4.59265 36.6256 4.6288 36.6331 4.66538C36.6389 4.69442 36.644 4.72346 36.6483 4.7526C36.651 4.76965 36.6534 4.78762 36.6555 4.80567L36.6605 4.85632C36.6631 4.88627 36.6649 4.91626 36.6658 4.94628L36.6667 5.00004V15C36.6667 15.9205 35.9205 16.6667 35 16.6667C34.1453 16.6667 33.4409 16.0233 33.3446 15.1944L33.3334 15V9.02337L25.3452 17.0119C24.6943 17.6628 23.6391 17.6628 22.9882 17.0119C22.3874 16.4111 22.3412 15.4657 22.8495 14.8119L22.9882 14.6549L30.9734 6.66671H25C24.1453 6.66671 23.4409 6.02331 23.3446 5.19441L23.3334 5.00004C23.3334 4.14531 23.9768 3.44086 24.8057 3.34459L25 3.33337H35ZM15 3.33337C15.9205 3.33337 16.6667 4.07957 16.6667 5.00004C16.6667 5.85477 16.0233 6.55922 15.1944 6.65549L15 6.66671H6.66671V15C6.66671 15.8548 6.02331 16.5592 5.19441 16.6555L5.00004 16.6667C4.14531 16.6667 3.44086 16.0233 3.34459 15.1944L3.33337 15V5.00004C3.33337 4.14531 3.97677 3.44086 4.80567 3.34459L5.00004 3.33337H15Z" fill="#EA5B21"/>
</svg>
