<svg width="120" height="25" viewBox="0 0 120 25" fill="none" xmlns="http://www.w3.org/2000/svg">
<path fill-rule="evenodd" clip-rule="evenodd" d="M12.9357 4.71408C12.7599 4.33348 12.3972 4.09253 12 4.09253C11.6028 4.09253 11.2401 4.33348 11.0643 4.71408L9.1573 8.84276L4.89259 9.50892C4.49966 9.5703 4.17338 9.8647 4.0509 10.2684C3.92842 10.6721 4.03097 11.1151 4.31544 11.4112L7.40052 14.6224L6.67243 19.159C6.60528 19.5774 6.76623 20.0002 7.0876 20.2497C7.40897 20.4992 7.83501 20.5321 8.18657 20.3345L12 18.1913L15.8134 20.3345C16.165 20.5321 16.591 20.4992 16.9124 20.2497C17.2338 20.0002 17.3947 19.5774 17.3276 19.159L16.5995 14.6224L19.6846 11.4112C19.969 11.1151 20.0716 10.6721 19.9491 10.2684C19.8266 9.8647 19.5003 9.5703 19.1074 9.50892L14.8427 8.84276L12.9357 4.71408Z" fill="#EA5B21"/>
<path fill-rule="evenodd" clip-rule="evenodd" d="M60.9357 4.71408C60.7599 4.33348 60.3972 4.09253 60 4.09253C59.6028 4.09253 59.2401 4.33348 59.0643 4.71408L57.1573 8.84276L52.8926 9.50892C52.4997 9.5703 52.1734 9.8647 52.0509 10.2684C51.9284 10.6721 52.031 11.1151 52.3154 11.4112L55.4005 14.6224L54.6724 19.159C54.6053 19.5774 54.7662 20.0002 55.0876 20.2497C55.409 20.4992 55.835 20.5321 56.1866 20.3345L60 18.1913L63.8134 20.3345C64.165 20.5321 64.591 20.4992 64.9124 20.2497C65.2338 20.0002 65.3947 19.5774 65.3276 19.159L64.5995 14.6224L67.6846 11.4112C67.969 11.1151 68.0716 10.6721 67.9491 10.2684C67.8266 9.8647 67.5003 9.5703 67.1074 9.50892L62.8427 8.84276L60.9357 4.71408Z" fill="#EA5B21"/>
<path fill-rule="evenodd" clip-rule="evenodd" d="M36.9357 4.71408C36.7599 4.33348 36.3972 4.09253 36 4.09253C35.6028 4.09253 35.2401 4.33348 35.0643 4.71408L33.1573 8.84276L28.8926 9.50892C28.4997 9.5703 28.1734 9.8647 28.0509 10.2684C27.9284 10.6721 28.031 11.1151 28.3154 11.4112L31.4005 14.6224L30.6724 19.159C30.6053 19.5774 30.7662 20.0002 31.0876 20.2497C31.409 20.4992 31.835 20.5321 32.1866 20.3345L36 18.1913L39.8134 20.3345C40.165 20.5321 40.591 20.4992 40.9124 20.2497C41.2338 20.0002 41.3947 19.5774 41.3276 19.159L40.5995 14.6224L43.6846 11.4112C43.969 11.1151 44.0716 10.6721 43.9491 10.2684C43.8266 9.8647 43.5003 9.5703 43.1074 9.50892L38.8427 8.84276L36.9357 4.71408Z" fill="#EA5B21"/>
<path fill-rule="evenodd" clip-rule="evenodd" d="M84.9357 4.71408C84.7599 4.33348 84.3972 4.09253 84 4.09253C83.6028 4.09253 83.2401 4.33348 83.0643 4.71408L81.1573 8.84276L76.8926 9.50892C76.4997 9.5703 76.1734 9.8647 76.0509 10.2684C75.9284 10.6721 76.031 11.1151 76.3154 11.4112L79.4005 14.6224L78.6724 19.159C78.6053 19.5774 78.7662 20.0002 79.0876 20.2497C79.409 20.4992 79.835 20.5321 80.1866 20.3345L84 18.1913L87.8134 20.3345C88.165 20.5321 88.591 20.4992 88.9124 20.2497C89.2338 20.0002 89.3947 19.5774 89.3276 19.159L88.5995 14.6224L91.6846 11.4112C91.969 11.1151 92.0716 10.6721 91.9491 10.2684C91.8266 9.8647 91.5003 9.5703 91.1074 9.50892L86.8427 8.84276L84.9357 4.71408Z" fill="#EA5B21"/>
<g clip-path="url(#clip0)">
<path d="M108 5.20764L110.15 9.86145L114.957 10.6123L111.478 14.2328L112.299 19.3475L108 16.9314L103.701 19.3475L104.522 14.2328L101.044 10.6123L105.85 9.86145L108 5.20764Z" fill="#EA5B21"/>
<rect x="108" y="6.13879" width="8" height="18.4164" fill="#F9F9F9"/>
<path fill-rule="evenodd" clip-rule="evenodd" d="M108 4.09253C108.397 4.09253 108.76 4.33348 108.936 4.71408L110.843 8.84276L115.107 9.50892C115.5 9.57029 115.827 9.8647 115.949 10.2684C116.072 10.6721 115.969 11.1151 115.685 11.4112L112.599 14.6224L113.328 19.159C113.395 19.5774 113.234 20.0002 112.912 20.2497C112.591 20.4992 112.165 20.5321 111.813 20.3345L108 18.1913L104.187 20.3345C103.835 20.5321 103.409 20.4992 103.088 20.2497C102.766 20.0002 102.605 19.5774 102.672 19.159L103.401 14.6224L100.315 11.4112C100.031 11.1151 99.9284 10.6721 100.051 10.2684C100.173 9.8647 100.5 9.57029 100.893 9.50892L105.157 8.84276L107.064 4.71408C107.24 4.33348 107.603 4.09253 108 4.09253ZM108 7.72702L106.786 10.3551C106.634 10.6838 106.341 10.9118 106.001 10.9649L103.285 11.3891L105.25 13.4339C105.496 13.6901 105.608 14.0594 105.55 14.4213L105.087 17.3087L107.514 15.9444C107.818 15.7735 108.182 15.7735 108.486 15.9444L110.913 17.3087L110.45 14.4213C110.392 14.0594 110.504 13.6901 110.75 13.4339L112.715 11.3891L109.999 10.9649C109.659 10.9118 109.366 10.6838 109.214 10.3551L108 7.72702Z" fill="#EA5B21"/>
</g>
<defs>
<clipPath id="clip0">
<rect width="24" height="24.5552" fill="white" transform="translate(96)"/>
</clipPath>
</defs>
</svg>
