<svg width="16" height="16" viewBox="0 0 16 16" fill="none" xmlns="http://www.w3.org/2000/svg">
<path d="M11.7077 14.0005C11.6024 14.0005 11.4964 13.9758 11.3991 13.9251L7.99975 12.1491L4.60108 13.9251C4.37575 14.0418 4.10375 14.0218 3.89975 13.8725C3.69442 13.7231 3.59242 13.4705 3.63575 13.2205L4.28308 9.46847L1.53642 6.8118C1.35375 6.63513 1.28775 6.3698 1.36575 6.12713C1.44375 5.8858 1.65242 5.70913 1.90442 5.67313L5.70442 5.12113L7.40308 1.7038C7.62842 1.25047 8.37175 1.25047 8.59708 1.7038L10.2957 5.12113L14.0957 5.67313C14.3477 5.70913 14.5564 5.8858 14.6344 6.12713C14.7124 6.3698 14.6464 6.63513 14.4637 6.8118L11.7171 9.46847L12.3644 13.2205C12.4077 13.4705 12.3051 13.7231 12.1004 13.8725C11.9844 13.9578 11.8464 14.0005 11.7077 14.0005Z" fill="#EA5B21"/>
<mask id="mask0" mask-type="alpha" maskUnits="userSpaceOnUse" x="1" y="1" width="14" height="14">
<path d="M11.7077 14.0005C11.6024 14.0005 11.4964 13.9758 11.3991 13.9251L7.99975 12.1491L4.60108 13.9251C4.37575 14.0418 4.10375 14.0218 3.89975 13.8725C3.69442 13.7231 3.59242 13.4705 3.63575 13.2205L4.28308 9.46847L1.53642 6.8118C1.35375 6.63513 1.28775 6.3698 1.36575 6.12713C1.44375 5.8858 1.65242 5.70913 1.90442 5.67313L5.70442 5.12113L7.40308 1.7038C7.62842 1.25047 8.37175 1.25047 8.59708 1.7038L10.2957 5.12113L14.0957 5.67313C14.3477 5.70913 14.5564 5.8858 14.6344 6.12713C14.7124 6.3698 14.6464 6.63513 14.4637 6.8118L11.7171 9.46847L12.3644 13.2205C12.4077 13.4705 12.3051 13.7231 12.1004 13.8725C11.9844 13.9578 11.8464 14.0005 11.7077 14.0005Z" fill="white"/>
</mask>
<g mask="url(#mask0)">
</g>
</svg>
