<svg width="15" height="15" viewBox="0 0 15 15" fill="none" xmlns="http://www.w3.org/2000/svg">
<g clip-path="url(#clip0)">
<path d="M7.13178 0.00924107C3.14008 0.197327 -0.00963031 3.49821 0.00296734 7.465C0.00443219 8.63307 0.284217 9.78356 0.818592 10.8218L0.0228892 14.6571C-0.00875141 14.8141 0.0934947 14.9676 0.250526 14.9999L0.376795 14.9975L4.16166 14.1069C5.1639 14.6026 6.2643 14.8674 7.38168 14.883C11.4621 14.9454 14.8629 11.7289 14.9901 7.68063C15.1272 3.33942 11.5187 -0.198474 7.13178 0.00865513V0.00924107ZM11.6485 11.5625C10.5463 12.6602 9.05306 13.2746 7.49799 13.2696C6.59213 13.2719 5.69769 13.0639 4.88646 12.6617L4.35941 12.4009L2.03851 12.9464L2.52689 10.5927L2.26703 10.0877C1.84574 9.27057 1.62689 8.36295 1.62982 7.44391C1.62982 5.88737 2.24008 4.4234 3.34867 3.3236C4.45287 2.23024 5.94408 1.61647 7.49828 1.61647C9.06654 1.61647 10.5399 2.22203 11.6488 3.32272C12.7515 4.40934 13.3711 5.89381 13.3676 7.44303C13.3676 8.98551 12.748 10.4723 11.6488 11.5633V11.5625H11.6485Z" fill="#333333"/>
<path d="M11.1366 9.05301L9.68527 8.63963C9.49425 8.58455 9.28888 8.63817 9.14943 8.77908L8.79406 9.13885C8.64435 9.2909 8.4173 9.33778 8.21925 9.25926C7.53283 8.98328 6.0879 7.70799 5.71847 7.06991C5.61271 6.88563 5.6297 6.65506 5.76095 6.48778L6.07003 6.08905C6.19191 5.93407 6.21769 5.7243 6.13771 5.54354L5.52687 4.17215C5.40353 3.89823 5.08185 3.77635 4.80822 3.89969L4.68107 3.97967C4.27589 4.32039 3.79484 4.8366 3.73683 5.41053C3.634 6.4201 4.07023 7.69305 5.71906 9.22176C7.62511 10.9881 9.15207 11.2216 10.1455 10.9822C10.7095 10.8463 11.1601 10.3031 11.4437 9.85897C11.6036 9.60936 11.5319 9.2783 11.2822 9.11805L11.1366 9.05301Z" fill="#333333"/>
</g>
<defs>
<clipPath id="clip0">
<rect width="15" height="15" fill="white"/>
</clipPath>
</defs>
</svg>
