<svg width="278" height="278" viewBox="0 0 278 278" fill="none" xmlns="http://www.w3.org/2000/svg">
<mask id="mask0" mask-type="alpha" maskUnits="userSpaceOnUse" x="0" y="0" width="278" height="278">
<rect width="278" height="278" fill="white"/>
</mask>
<g mask="url(#mask0)">
<mask id="mask1" mask-type="alpha" maskUnits="userSpaceOnUse" x="74" y="18" width="153" height="153">
<rect x="74" y="18" width="153" height="153" fill="white"/>
</mask>
<g mask="url(#mask1)">
<path d="M110.492 87.2553C114.841 85.568 123.501 85.5782 129.967 75.3183C135.414 66.675 141.363 35.5486 174.374 37.2337C207.384 38.9188 217.616 68.9142 208.593 101.481C200.428 130.953 180.932 153.784 152.359 159.866C127.345 165.188 105.364 160.831 92.8973 142.066C81.9533 125.643 84.684 97.4693 110.492 87.2553Z" fill="url(#paint0_linear)"/>
<path d="M96.1859 54.5167L96.3897 54.3717L96.2447 54.168L93.0826 49.7223L92.9377 49.5186L92.734 49.6635L92.2701 49.9934L92.0664 50.1383L92.2113 50.3421L95.3734 54.7878L95.5183 54.9915L95.722 54.8466L96.1859 54.5167Z" fill="black" stroke="black" stroke-width="0.5"/>
<path d="M103.158 50.3579L103.407 50.3395L103.389 50.0902L103.14 46.7121L103.122 46.4628L102.872 46.4811L102.305 46.523L102.055 46.5413L102.074 46.7907L102.322 50.1688L102.341 50.4181L102.59 50.3998L103.158 50.3579Z" fill="black" stroke="black" stroke-width="0.5"/>
<path d="M92.4137 62.0436L92.663 62.0253L92.6446 61.7759L92.6028 61.2082L92.5845 60.9589L92.3352 60.9772L89.0991 61.2154L88.8498 61.2338L88.8681 61.4831L88.9099 62.0508L88.9283 62.3001L89.1776 62.2818L92.4137 62.0436Z" fill="black" stroke="black" stroke-width="0.5"/>
<path d="M137.674 33.3538C136.671 27.079 138.824 24.2558 141.749 22.6871C140.842 23.3146 145.755 20.8044 148.019 24.8827C151.634 31.3945 161.152 34.0859 161.185 40.8835C162.125 50.5048 161.248 72.4457 158.991 78.2185C156.169 85.4344 147.705 87.6306 129.524 84.807C111.342 81.9833 110.402 57.8256 122.627 51.5509C134.853 45.2761 138.928 41.1972 137.674 33.3538Z" fill="black"/>
<path d="M144.181 24.9961C144.181 24.9961 147.445 26.6984 148.801 28.9872C149.602 30.4563 149.964 32.1271 149.833 33.7979C149.796 34.2771 149.514 34.6996 149.095 34.9265L148.433 35.2859C148.433 35.2859 148.851 36.0488 149.195 36.5469C149.896 37.5873 149.452 38.4384 148.239 38.8672C147.501 38.9807 146.751 38.9239 146.038 38.6906L141.905 31.1624C141.249 29.9014 141.405 28.3693 142.305 27.2722L144.181 24.9961Z" fill="#EF6744"/>
<path d="M147.316 30.8448C147.359 30.8448 147.395 30.8323 147.425 30.8073L148.122 30.2693C148.201 30.2005 148.207 30.0817 148.147 30.0066C148.141 30.0004 148.135 29.9879 148.122 29.9816L146.831 28.6743C146.759 28.5992 146.643 28.5992 146.577 28.668C146.577 28.668 146.577 28.668 146.571 28.6743C146.498 28.7494 146.498 28.8682 146.571 28.9433L147.704 30.0942L147.183 30.4945C147.104 30.5571 147.086 30.6759 147.147 30.7635C147.183 30.8198 147.25 30.8511 147.316 30.8448Z" fill="black"/>
<path d="M147.074 33.0727C147.485 32.6341 147.922 32.5156 148.467 32.5156" stroke="black" stroke-width="0.5" stroke-linecap="round" stroke-linejoin="round"/>
<path d="M117.791 62.3905C118.075 62.7989 118.267 63.254 118.356 63.7289C118.446 64.2037 118.43 64.6887 118.311 65.155C118.156 66.0991 117.709 66.9789 117.022 67.6904C115.309 67.4739 113.633 67.0452 112.04 66.416C109.398 65.3727 108.214 64.0278 108.039 63.6627C107.539 62.6022 108.21 62.4867 108.21 62.4867C108.21 62.4867 108.025 61.6738 108.551 61.3198C108.933 61.056 109.511 61.4661 109.511 61.4661C109.511 61.4661 109.557 60.9313 110.038 60.8214C110.519 60.7114 111.695 62.1419 112.558 62.4684C113.052 62.6584 113.562 62.8082 114.083 62.9158C114.083 62.9158 113.241 61.8638 113.785 61.63C114.33 61.3962 115.047 62.055 115.987 62.2319C116.582 62.3399 117.186 62.3931 117.791 62.3905Z" fill="#EF6744"/>
<path d="M146.482 153.91C147.128 153.03 147.224 150.273 147.085 147.97C146.946 145.666 148.896 144.154 148.896 144.154L149.024 143.938L144.826 144.881C144.823 144.893 144.823 144.906 144.826 144.918C144.222 149.219 144.291 156.456 144.291 156.751C144.356 156.129 144.382 155.697 144.382 155.697C145.194 155.243 145.907 154.635 146.482 153.91Z" fill="#EF6744"/>
<path d="M143.998 163.07C145.608 162.074 146.872 160.625 147.622 158.912C148.956 155.534 149.678 153.715 149.678 153.715C149.678 153.715 149.237 152.187 149.599 151.746C149.644 151.692 149.699 151.648 149.762 151.616C149.825 151.584 149.894 151.564 149.965 151.558C150.396 151.486 150.629 151.34 150.741 151.039L152.064 147.687C152.099 147.496 152.095 147.3 152.051 147.11C152.007 146.921 151.925 146.742 151.809 146.585C151.497 146.051 151.084 145.58 150.592 145.197C150.063 144.767 149.458 144.434 148.807 144.215C148.807 144.215 146.873 145.706 147.006 147.978C147.138 150.249 147.048 152.967 146.405 153.835C145.838 154.553 145.132 155.155 144.328 155.607C144.328 155.607 144.301 156.028 144.237 156.646C144.141 157.77 143.963 158.884 143.706 159.983C143.483 160.848 143.306 161.724 143.175 162.608C143.169 162.704 143.191 162.8 143.238 162.884C143.285 162.969 143.355 163.039 143.441 163.087C143.526 163.135 143.623 163.159 143.722 163.156C143.82 163.153 143.916 163.123 143.998 163.07Z" fill="#151E27"/>
<path d="M194.499 101.598C193.419 101.598 191.123 103.137 189.33 104.605C187.537 106.074 185.203 105.367 185.203 105.367H184.957L188.103 108.283H188.14C191.972 106.236 197.813 101.895 198.049 101.716C197.525 102.035 197.147 102.256 197.147 102.256C196.315 101.859 195.416 101.635 194.499 101.598Z" fill="#EF6744"/>
<path d="M203.606 98.1511C201.859 97.4115 199.929 97.226 198.075 97.6195L192.575 99.0068C192.575 99.0068 191.561 100.266 190.99 100.235C190.919 100.23 190.85 100.21 190.786 100.177C190.722 100.144 190.666 100.099 190.621 100.043C190.523 99.9064 190.387 99.8022 190.229 99.7444C190.072 99.6866 189.901 99.6777 189.738 99.719L186.199 100.617C185.84 100.718 185.592 101.149 185.433 101.473C185.168 102.045 185.012 102.661 184.973 103.291C184.922 103.977 184.993 104.666 185.185 105.326C185.185 105.326 187.53 106.028 189.342 104.577C191.154 103.126 193.463 101.601 194.551 101.616C195.465 101.657 196.362 101.877 197.192 102.265C197.192 102.265 197.557 102.042 198.101 101.733C199.091 101.153 200.12 100.641 201.181 100.203C202.024 99.8708 202.849 99.4947 203.653 99.0759C203.732 99.0254 203.797 98.9547 203.84 98.871C203.883 98.7873 203.903 98.6936 203.898 98.5995C203.893 98.5054 203.863 98.4143 203.812 98.3355C203.761 98.2567 203.689 98.193 203.606 98.1511Z" fill="#151E27"/>
<path d="M188 108.297L184.856 105.461C184.673 105.461 184.395 105.461 184.028 105.461H183.038C181.3 105.4 179.57 105.189 177.867 104.831C175.248 104.337 171.664 103.528 167.164 102.268C164.527 101.557 161.772 101.402 159.073 101.813C156.374 102.225 153.789 103.193 151.483 104.657C151.483 104.657 153.217 102.467 155.292 97.3045C157.366 92.1417 161.579 87.3256 157.911 79.1114C154.742 71.9897 148.214 71.5117 148.214 71.5117C148.214 71.5117 141.89 76.5799 139.422 90.6291C137.851 99.7099 139.103 113.16 141.235 115.114C143.367 117.068 150.241 118.418 164.109 116.653C172.562 115.545 180.7 112.714 188.021 108.334L188 108.297Z" fill="#2755A3"/>
<path d="M143.817 113.651C143.702 112.027 143.656 110.335 143.63 109.172C143.278 104.503 143.452 99.8087 144.15 95.1791C146.579 81.1651 147.114 79.7611 147.114 79.7611C147.114 79.7611 158.203 72.7305 158.239 72.6886C163.633 66.6744 165.406 71.688 166.29 74.145C169.655 83.4702 161.958 96.6722 159.909 101.822C158.198 106.102 159.259 118.833 154.708 134.565C152.804 141.14 149.32 144.975 149.132 145.085C147.931 145.771 144.81 144.807 144.81 144.807C144.81 144.807 144.264 120.127 143.817 113.651Z" fill="url(#paint1_linear)"/>
<path d="M147.902 145.604C146.838 145.567 145.783 145.39 144.764 145.079L144.546 145.01V144.779C144.546 144.532 143.981 119.962 143.54 113.553C143.431 111.914 143.379 110.196 143.353 109.051C142.997 104.348 143.171 99.6192 143.872 94.9561C146.273 81.0294 146.823 79.4902 146.844 79.4324L146.88 79.3326L146.968 79.2748C150.624 76.9423 157.522 72.5452 158.025 72.2143C160.016 69.9868 161.691 69.0622 163.149 69.3301C165.093 69.7189 166.001 72.2563 166.545 73.7745C169.387 81.6861 164.538 92.2191 161.639 98.5126C161.048 99.805 160.535 100.919 160.187 101.791C159.539 103.43 159.29 106.471 158.974 110.327C158.455 116.511 157.781 124.974 155.017 134.593C153.098 141.259 149.561 145.184 149.312 145.331C148.871 145.537 148.387 145.631 147.902 145.604ZM145.169 144.516C146.133 144.79 148.197 145.231 149.011 144.758C149.385 144.448 152.642 140.597 154.426 134.398C157.174 124.843 157.859 116.416 158.362 110.233C158.694 106.172 158.932 103.235 159.617 101.507C159.97 100.619 160.488 99.5003 161.085 98.2027C163.937 91.9985 168.718 81.6125 165.98 73.9846C165.462 72.561 164.637 70.2337 163.045 69.9185C161.837 69.6821 160.301 70.591 158.481 72.6293C158.445 72.6765 158.419 72.7028 147.419 79.7108C147.279 80.1994 146.61 82.8628 144.51 95.0244C143.812 99.64 143.638 104.322 143.991 108.977C143.991 110.138 144.064 111.84 144.178 113.464C144.588 119.579 145.106 141.969 145.169 144.516Z" fill="white"/>
<path d="M189.136 46.944C189.136 46.944 193.206 43.4712 197.798 42.6816C198.887 42.489 199.839 41.9177 200.418 42.3285C200.997 42.7394 199.839 43.9333 199.839 43.9333C200.456 43.8948 201.072 43.7985 201.669 43.6445C202.715 43.3941 204.289 41.7957 204.849 42.0076C205.409 42.2194 205.328 42.9384 205.328 42.9384C205.328 42.9384 206.063 42.5275 206.448 42.9384C206.984 43.4968 206.623 44.5111 206.623 44.5111C206.623 44.5111 207.388 44.7935 206.623 46.0646C206.355 46.4946 204.756 47.9903 201.545 48.8377C199.69 49.332 197.792 49.6465 195.881 49.7877H195.639C194.898 49.4218 189.26 46.7065 189.136 46.944Z" fill="#EF6744"/>
<path d="M135.393 45.5935L135.393 45.5927C137.726 42.0181 140.381 40.4321 142.428 39.7305C143.455 39.3784 144.336 39.2468 144.956 39.2027C145.265 39.1807 145.509 39.1806 145.672 39.1856C145.754 39.1881 145.815 39.1919 145.855 39.1949C145.869 39.196 145.88 39.197 145.889 39.1977C147.394 39.4948 148.928 38.8427 149.769 37.5615C150.062 37.1709 150.724 36.6709 151.586 36.2151C152.441 35.7632 153.421 35.3924 154.275 35.2316L154.275 35.2315C156.633 34.7866 158.728 34.8467 160.764 35.8081C162.81 36.7746 164.86 38.682 167.057 42.0614L167.057 42.0616C168.404 44.1306 169.391 46.0062 170.277 47.6887C170.758 48.6024 171.209 49.4592 171.671 50.2591C172.962 52.4927 174.317 54.222 176.584 55.0417C178.945 55.8992 181.267 55.6532 183.448 54.3001C185.538 53.0034 187.476 50.7062 189.234 47.4545C189.371 47.5009 189.545 47.5658 189.752 47.6472C190.303 47.8641 191.038 48.1803 191.799 48.5169C193.053 49.0724 194.358 49.6763 194.973 49.9627C194.955 50.0428 194.934 50.1348 194.91 50.2379C194.812 50.6609 194.66 51.2695 194.444 52.0069C194.013 53.4832 193.331 55.4691 192.328 57.5134C190.31 61.6275 187.06 65.848 182.061 66.807L182.06 66.807C176.34 67.9088 171.553 66.0957 168.175 63.9865C166.487 62.9322 165.158 61.8078 164.252 60.9476C163.799 60.5178 163.453 60.1548 163.221 59.9007C163.106 59.7737 163.018 59.674 162.961 59.6069C162.944 59.5872 162.93 59.5704 162.918 59.5564C162.909 59.5466 162.902 59.5382 162.897 59.5314L162.882 59.5132L162.878 59.5092L162.878 59.5087L135.393 45.5935ZM135.393 45.5935C134.615 46.7808 134.197 48.3055 134.024 49.9607C133.851 51.6118 133.925 53.3588 134.105 54.9627C134.284 56.5648 134.567 58.0115 134.806 59.0582C134.925 59.5811 135.033 60.0031 135.11 60.2934C135.149 60.4386 135.18 60.5508 135.202 60.6262C135.213 60.6639 135.221 60.6924 135.226 60.7112L135.229 60.7197L135.393 45.5935Z" fill="white" stroke="#2C4E8B"/>
<path d="M116.99 62.349C118.871 64.7951 117.774 66.9921 116.99 67.7848C130.759 75.9387 140.499 67.7848 141.17 62.349C141.842 56.9133 138.13 30.6933 130.759 57.5927C128.027 67.5642 121.356 62.349 116.99 62.349Z" fill="white"/>
<path d="M175.092 27.0882L175.342 27.0862L175.34 26.8362L175.297 21.3808L175.295 21.1308L175.045 21.1328L174.476 21.1374L174.226 21.1394L174.228 21.3894L174.271 26.8448L174.273 27.0948L174.523 27.0928L175.092 27.0882Z" fill="black" stroke="black" stroke-width="0.5"/>
<path d="M183.189 27.6767L183.404 27.8045L183.532 27.5897L185.264 24.6786L185.392 24.4638L185.177 24.3359L184.687 24.0448L184.473 23.917L184.345 24.1319L182.613 27.0429L182.485 27.2578L182.7 27.3856L183.189 27.6767Z" fill="black" stroke="black" stroke-width="0.5"/>
<path d="M167.685 31.0947L167.899 31.2225L168.027 31.0077L168.318 30.5185L168.446 30.3036L168.231 30.1758L165.443 28.5165L165.228 28.3886L165.1 28.6035L164.809 29.0927L164.681 29.3075L164.896 29.4354L167.685 31.0947Z" fill="black" stroke="black" stroke-width="0.5"/>
<path d="M118.019 97.375C117.975 97.7389 117.66 98.0091 117.297 97.9648C116.933 97.9206 116.663 97.6052 116.707 97.2414C116.751 96.8775 117.066 96.6073 117.429 96.6515C117.793 96.6958 118.05 97.0182 118.019 97.375Z" fill="black"/>
<path d="M116.076 96.9826L114.086 96.8867" stroke="black" stroke-width="2" stroke-linecap="round" stroke-linejoin="round"/>
<path d="M116.352 98.0084L114.787 99.2516" stroke="black" stroke-width="2" stroke-linecap="round" stroke-linejoin="round"/>
<path d="M117.284 98.7015L116.534 100.548" stroke="black" stroke-width="2" stroke-linecap="round" stroke-linejoin="round"/>
<path fill-rule="evenodd" clip-rule="evenodd" d="M102.835 66.4486L100.534 69.8201C100.392 70.032 100.111 70.0796 99.9125 69.9303L94.3933 66.1516C94.1813 66.0094 94.1336 65.7285 94.2827 65.5298L96.5833 62.1583C97.3846 60.9821 99.0081 60.6777 100.184 61.4799L102.188 62.8449C103.338 63.6613 103.649 65.2653 102.835 66.4486Z" fill="white" stroke="#EA5B21" stroke-linecap="round" stroke-linejoin="round"/>
<path d="M100.849 61.9588C100.849 61.9588 102.003 58.4157 105.558 57.5236C109.127 56.6244 111.22 59.3372 113.199 62.5366C115.164 65.7431 111.813 77.3167 116.827 82.5729C124.08 90.1754 118.367 96.5243 118.367 96.5243" stroke="#EA5B21" stroke-linecap="round" stroke-linejoin="round"/>
<path d="M184.264 38.6636L180.944 39.196C180.741 39.2269 180.542 39.1015 180.503 38.9096L179.39 33.7545C179.351 33.5627 179.477 33.3787 179.679 33.3477L183 32.8154C184.161 32.6282 185.297 33.365 185.534 34.4676L185.932 36.3262C186.181 37.432 185.426 38.4764 184.264 38.6636Z" fill="white"/>
<path fill-rule="evenodd" clip-rule="evenodd" d="M184.264 38.6636L180.944 39.196C180.741 39.2269 180.542 39.1015 180.503 38.9096L179.39 33.7545C179.351 33.5627 179.477 33.3787 179.679 33.3477L183 32.8154C184.161 32.6282 185.297 33.365 185.534 34.4676L185.932 36.3262C186.181 37.432 185.426 38.4764 184.264 38.6636Z" stroke="#EA5B21" stroke-linecap="round" stroke-linejoin="round"/>
<path d="M179.67 35.0352L177.48 35.3965C177.197 35.4421 176.922 35.2603 176.864 34.9911C176.806 34.7219 176.99 34.4684 177.274 34.4229L179.463 34.0616L179.67 35.0352Z" fill="#EA5B21"/>
<path fill-rule="evenodd" clip-rule="evenodd" d="M179.67 35.0352L177.48 35.3965C177.197 35.4421 176.922 35.2603 176.864 34.9911C176.806 34.7219 176.99 34.4684 177.274 34.4229L179.463 34.0616L179.67 35.0352Z" stroke="#EA5B21" stroke-linecap="round" stroke-linejoin="round"/>
<path d="M180.441 38.6016L178.252 38.9629C177.968 39.0085 177.693 38.8267 177.636 38.5575C177.578 38.2883 177.762 38.0349 178.045 37.9893L180.235 37.628L180.441 38.6016Z" fill="#EA5B21"/>
<path fill-rule="evenodd" clip-rule="evenodd" d="M180.441 38.6016L178.252 38.9629C177.968 39.0085 177.693 38.8267 177.636 38.5575C177.578 38.2883 177.762 38.0349 178.045 37.9893L180.235 37.628L180.441 38.6016Z" stroke="#EA5B21" stroke-linecap="round" stroke-linejoin="round"/>
<path d="M185.766 35.3886C185.766 35.3886 196.206 32.2381 199.781 39.7517C204.212 49.0524 188.397 60.6639 189.637 70.4466C190.889 80.2326 195.964 82.3421 193.345 86.1677" stroke="#EA5B21" stroke-linecap="round" stroke-linejoin="round"/>
<path d="M193.012 86.8884C192.94 87.1594 192.639 87.3211 192.349 87.2442C192.06 87.1672 191.878 86.8772 191.95 86.6062C192.022 86.3352 192.323 86.1735 192.613 86.2505C192.903 86.3274 193.087 86.6061 193.012 86.8884Z" fill="#EA5B21"/>
<path d="M191.461 86.3054L189.834 85.958" stroke="#EA5B21" stroke-linecap="round" stroke-linejoin="round"/>
<path d="M191.565 87.1321L190.127 87.8744" stroke="#EA5B21" stroke-linecap="round" stroke-linejoin="round"/>
<path d="M192.242 87.7944L191.411 89.1212" stroke="#EA5B21" stroke-linecap="round" stroke-linejoin="round"/>
<circle cx="144.315" cy="29.7214" r="0.651064" fill="black"/>
</g>
<path d="M109.816 188.432H81.016V199.088C82.232 197.808 83.896 196.784 86.008 196.016C88.12 195.248 90.456 194.864 93.016 194.864C97.624 194.864 101.464 195.92 104.536 198.032C107.672 200.144 109.976 202.928 111.448 206.384C112.92 209.84 113.656 213.616 113.656 217.712C113.656 225.264 111.512 231.216 107.224 235.568C102.936 239.856 96.984 242 89.368 242C84.056 242 79.448 241.104 75.544 239.312C71.704 237.456 68.76 234.896 66.712 231.632C64.664 228.368 63.608 224.624 63.544 220.4H81.88C82.072 221.872 82.712 223.152 83.8 224.24C84.888 225.328 86.488 225.872 88.6 225.872C90.84 225.872 92.536 225.104 93.688 223.568C94.84 222.032 95.416 219.984 95.416 217.424C95.416 214.928 94.808 213.04 93.592 211.76C92.376 210.416 90.616 209.744 88.312 209.744C86.584 209.744 85.176 210.192 84.088 211.088C83.064 211.92 82.456 212.976 82.264 214.256H63.928V171.824H109.816V188.432ZM122.15 205.904C122.15 194.896 124.39 186.224 128.87 179.888C133.35 173.552 140.39 170.384 149.99 170.384C159.59 170.384 166.63 173.552 171.11 179.888C175.654 186.224 177.926 194.896 177.926 205.904C177.926 217.04 175.686 225.776 171.206 232.112C166.726 238.448 159.654 241.616 149.99 241.616C140.326 241.616 133.254 238.448 128.774 232.112C124.358 225.776 122.15 217.04 122.15 205.904ZM159.302 205.904C159.302 200.144 158.694 195.76 157.478 192.752C156.262 189.68 153.766 188.144 149.99 188.144C146.214 188.144 143.718 189.68 142.502 192.752C141.286 195.76 140.678 200.144 140.678 205.904C140.678 211.792 141.254 216.272 142.406 219.344C143.622 222.352 146.15 223.856 149.99 223.856C153.83 223.856 156.326 222.352 157.478 219.344C158.694 216.272 159.302 211.792 159.302 205.904ZM185.744 205.904C185.744 194.896 187.984 186.224 192.464 179.888C196.944 173.552 203.984 170.384 213.584 170.384C223.184 170.384 230.224 173.552 234.704 179.888C239.248 186.224 241.52 194.896 241.52 205.904C241.52 217.04 239.28 225.776 234.8 232.112C230.32 238.448 223.248 241.616 213.584 241.616C203.92 241.616 196.848 238.448 192.368 232.112C187.952 225.776 185.744 217.04 185.744 205.904ZM222.896 205.904C222.896 200.144 222.288 195.76 221.072 192.752C219.856 189.68 217.36 188.144 213.584 188.144C209.808 188.144 207.312 189.68 206.096 192.752C204.88 195.76 204.272 200.144 204.272 205.904C204.272 211.792 204.848 216.272 206 219.344C207.216 222.352 209.744 223.856 213.584 223.856C217.424 223.856 219.92 222.352 221.072 219.344C222.288 216.272 222.896 211.792 222.896 205.904Z" fill="white"/>
<path d="M109.816 188.432V189.432H110.816V188.432H109.816ZM81.016 188.432V187.432H80.016V188.432H81.016ZM81.016 199.088H80.016V201.593L81.741 199.777L81.016 199.088ZM86.008 196.016L85.6663 195.076V195.076L86.008 196.016ZM104.536 198.032L103.969 198.856L103.977 198.861L104.536 198.032ZM111.448 206.384L112.368 205.992L111.448 206.384ZM107.224 235.568L107.931 236.275L107.936 236.27L107.224 235.568ZM75.544 239.312L75.1088 240.212L75.1178 240.217L75.1268 240.221L75.544 239.312ZM66.712 231.632L65.8649 232.163L66.712 231.632ZM63.544 220.4V219.4H62.5287L62.5441 220.415L63.544 220.4ZM81.88 220.4L82.8716 220.271L82.758 219.4H81.88V220.4ZM83.8 224.24L83.0929 224.947V224.947L83.8 224.24ZM93.688 223.568L94.488 224.168L93.688 223.568ZM93.592 211.76L92.8505 212.431L92.8586 212.44L92.867 212.449L93.592 211.76ZM84.088 211.088L84.7186 211.864L84.7237 211.86L84.088 211.088ZM82.264 214.256V215.256H83.1252L83.2529 214.404L82.264 214.256ZM63.928 214.256H62.928V215.256H63.928V214.256ZM63.928 171.824V170.824H62.928V171.824H63.928ZM109.816 171.824H110.816V170.824H109.816V171.824ZM109.816 187.432H81.016V189.432H109.816V187.432ZM80.016 188.432V199.088H82.016V188.432H80.016ZM81.741 199.777C82.8254 198.635 84.3447 197.685 86.3497 196.956L85.6663 195.076C83.4473 195.883 81.6387 196.981 80.291 198.399L81.741 199.777ZM86.3497 196.956C88.3381 196.233 90.5565 195.864 93.016 195.864V193.864C90.3555 193.864 87.9019 194.263 85.6663 195.076L86.3497 196.956ZM93.016 195.864C97.4699 195.864 101.1 196.883 103.969 198.856L105.103 197.208C101.828 194.957 97.7781 193.864 93.016 193.864V195.864ZM103.977 198.861C106.954 200.866 109.132 203.499 110.528 206.776L112.368 205.992C110.82 202.357 108.39 199.422 105.095 197.203L103.977 198.861ZM110.528 206.776C111.943 210.097 112.656 213.738 112.656 217.712H114.656C114.656 213.494 113.897 209.583 112.368 205.992L110.528 206.776ZM112.656 217.712C112.656 225.067 110.574 230.743 106.512 234.866L107.936 236.27C112.45 231.689 114.656 225.461 114.656 217.712H112.656ZM106.517 234.861C102.462 238.916 96.7904 241 89.368 241V243C97.1776 243 103.41 240.796 107.931 236.275L106.517 234.861ZM89.368 241C84.1668 241 79.7071 240.123 75.9612 238.403L75.1268 240.221C79.1889 242.085 83.9452 243 89.368 243V241ZM75.9792 238.412C72.2897 236.628 69.4967 234.189 67.5591 231.101L65.8649 232.163C68.0233 235.603 71.1183 238.284 75.1088 240.212L75.9792 238.412ZM67.5591 231.101C65.6175 228.006 64.6054 224.444 64.5439 220.385L62.5441 220.415C62.6106 224.804 63.7105 228.73 65.8649 232.163L67.5591 231.101ZM63.544 221.4H81.88V219.4H63.544V221.4ZM80.8884 220.529C81.11 222.228 81.8551 223.709 83.0929 224.947L84.5071 223.533C83.5689 222.595 83.034 221.516 82.8716 220.271L80.8884 220.529ZM83.0929 224.947C84.4295 226.284 86.3238 226.872 88.6 226.872V224.872C86.6522 224.872 85.3465 224.372 84.5071 223.533L83.0929 224.947ZM88.6 226.872C91.0953 226.872 93.1141 226 94.488 224.168L92.888 222.968C91.9579 224.208 90.5847 224.872 88.6 224.872V226.872ZM94.488 224.168C95.8071 222.409 96.416 220.129 96.416 217.424H94.416C94.416 219.839 93.8729 221.655 92.888 222.968L94.488 224.168ZM96.416 217.424C96.416 214.778 95.7713 212.602 94.317 211.071L92.867 212.449C93.8447 213.478 94.416 215.078 94.416 217.424H96.416ZM94.3335 211.089C92.8793 209.482 90.8168 208.744 88.312 208.744V210.744C90.4152 210.744 91.8727 211.35 92.8505 212.431L94.3335 211.089ZM88.312 208.744C86.4062 208.744 84.7571 209.242 83.4523 210.316L84.7237 211.86C85.5949 211.142 86.7618 210.744 88.312 210.744V208.744ZM83.4574 210.312C82.244 211.298 81.5048 212.576 81.2751 214.108L83.2529 214.404C83.4072 213.376 83.884 212.542 84.7186 211.864L83.4574 210.312ZM82.264 213.256H63.928V215.256H82.264V213.256ZM64.928 214.256V171.824H62.928V214.256H64.928ZM63.928 172.824H109.816V170.824H63.928V172.824ZM108.816 171.824V188.432H110.816V171.824H108.816ZM128.87 179.888L129.687 180.465V180.465L128.87 179.888ZM171.11 179.888L170.294 180.465L170.298 180.471L171.11 179.888ZM171.206 232.112L170.39 231.535L171.206 232.112ZM128.774 232.112L127.954 232.684L127.958 232.689L128.774 232.112ZM157.478 192.752L156.548 193.12L156.551 193.127L157.478 192.752ZM142.502 192.752L143.429 193.127L143.432 193.12L142.502 192.752ZM142.406 219.344L141.47 219.695L141.474 219.707L141.479 219.719L142.406 219.344ZM157.478 219.344L156.548 218.976L156.544 218.986L157.478 219.344ZM123.15 205.904C123.15 195.019 125.367 186.575 129.687 180.465L128.054 179.311C123.414 185.873 121.15 194.773 121.15 205.904H123.15ZM129.687 180.465C133.934 174.458 140.628 171.384 149.99 171.384V169.384C140.152 169.384 132.766 172.646 128.054 179.311L129.687 180.465ZM149.99 171.384C159.352 171.384 166.046 174.458 170.294 180.465L171.927 179.311C167.214 172.646 159.828 169.384 149.99 169.384V171.384ZM170.298 180.471C174.679 186.58 176.926 195.022 176.926 205.904H178.926C178.926 194.77 176.63 185.868 171.923 179.305L170.298 180.471ZM176.926 205.904C176.926 216.92 174.709 225.426 170.39 231.535L172.023 232.689C176.664 226.126 178.926 217.16 178.926 205.904H176.926ZM170.39 231.535C166.143 237.54 159.419 240.616 149.99 240.616V242.616C159.889 242.616 167.309 239.356 172.023 232.689L170.39 231.535ZM149.99 240.616C140.561 240.616 133.837 237.54 129.591 231.535L127.958 232.689C132.671 239.356 140.091 242.616 149.99 242.616V240.616ZM129.595 231.54C125.337 225.431 123.15 216.922 123.15 205.904H121.15C121.15 217.158 123.38 226.121 127.954 232.684L129.595 231.54ZM160.302 205.904C160.302 200.1 159.693 195.563 158.405 192.377L156.551 193.127C157.695 195.957 158.302 200.188 158.302 205.904H160.302ZM158.408 192.384C157.731 190.674 156.673 189.34 155.218 188.444C153.773 187.555 152.011 187.144 149.99 187.144V189.144C151.746 189.144 153.119 189.501 154.17 190.148C155.211 190.788 156.009 191.758 156.548 193.12L158.408 192.384ZM149.99 187.144C147.97 187.144 146.207 187.555 144.762 188.444C143.307 189.34 142.249 190.674 141.572 192.384L143.432 193.12C143.971 191.758 144.769 190.788 145.81 190.148C146.861 189.501 148.235 189.144 149.99 189.144V187.144ZM141.575 192.377C140.287 195.563 139.678 200.1 139.678 205.904H141.678C141.678 200.188 142.285 195.957 143.429 193.127L141.575 192.377ZM139.678 205.904C139.678 211.832 140.255 216.455 141.47 219.695L143.343 218.993C142.254 216.089 141.678 211.752 141.678 205.904H139.678ZM141.479 219.719C142.16 221.403 143.232 222.712 144.703 223.587C146.162 224.455 147.944 224.856 149.99 224.856V222.856C148.197 222.856 146.794 222.505 145.726 221.869C144.669 221.24 143.868 220.293 143.333 218.969L141.479 219.719ZM149.99 224.856C152.036 224.856 153.813 224.456 155.258 223.585C156.718 222.705 157.765 221.391 158.412 219.702L156.544 218.986C156.039 220.305 155.263 221.247 154.226 221.871C153.176 222.504 151.785 222.856 149.99 222.856V224.856ZM158.408 219.712C159.693 216.465 160.302 211.835 160.302 205.904H158.302C158.302 211.749 157.695 216.079 156.548 218.976L158.408 219.712ZM192.464 179.888L193.281 180.465V180.465L192.464 179.888ZM234.704 179.888L233.887 180.465L233.891 180.471L234.704 179.888ZM234.8 232.112L233.983 231.535L234.8 232.112ZM192.368 232.112L191.548 232.684L191.551 232.689L192.368 232.112ZM221.072 192.752L220.142 193.12L220.145 193.127L221.072 192.752ZM206.096 192.752L207.023 193.127L207.026 193.12L206.096 192.752ZM206 219.344L205.064 219.695L205.068 219.707L205.073 219.719L206 219.344ZM221.072 219.344L220.142 218.976L220.138 218.986L221.072 219.344ZM186.744 205.904C186.744 195.019 188.96 186.575 193.281 180.465L191.647 179.311C187.008 185.873 184.744 194.773 184.744 205.904H186.744ZM193.281 180.465C197.528 174.458 204.222 171.384 213.584 171.384V169.384C203.746 169.384 196.36 172.646 191.647 179.311L193.281 180.465ZM213.584 171.384C222.946 171.384 229.64 174.458 233.887 180.465L235.521 179.311C230.808 172.646 223.422 169.384 213.584 169.384V171.384ZM233.891 180.471C238.273 186.58 240.52 195.022 240.52 205.904H242.52C242.52 194.77 240.223 185.868 235.517 179.305L233.891 180.471ZM240.52 205.904C240.52 216.92 238.302 225.426 233.983 231.535L235.617 232.689C240.258 226.126 242.52 217.16 242.52 205.904H240.52ZM233.983 231.535C229.737 237.54 223.013 240.616 213.584 240.616V242.616C223.483 242.616 230.903 239.356 235.617 232.689L233.983 231.535ZM213.584 240.616C204.155 240.616 197.431 237.54 193.185 231.535L191.551 232.689C196.265 239.356 203.685 242.616 213.584 242.616V240.616ZM193.188 231.54C188.931 225.431 186.744 216.922 186.744 205.904H184.744C184.744 217.158 186.973 226.121 191.548 232.684L193.188 231.54ZM223.896 205.904C223.896 200.1 223.287 195.563 221.999 192.377L220.145 193.127C221.289 195.957 221.896 200.188 221.896 205.904H223.896ZM222.002 192.384C221.325 190.674 220.267 189.34 218.812 188.444C217.367 187.555 215.605 187.144 213.584 187.144V189.144C215.339 189.144 216.713 189.501 217.764 190.148C218.805 190.788 219.603 191.758 220.142 193.12L222.002 192.384ZM213.584 187.144C211.563 187.144 209.801 187.555 208.356 188.444C206.901 189.34 205.843 190.674 205.166 192.384L207.026 193.12C207.565 191.758 208.363 190.788 209.404 190.148C210.455 189.501 211.829 189.144 213.584 189.144V187.144ZM205.169 192.377C203.881 195.563 203.272 200.1 203.272 205.904H205.272C205.272 200.188 205.879 195.957 207.023 193.127L205.169 192.377ZM203.272 205.904C203.272 211.832 203.849 216.455 205.064 219.695L206.936 218.993C205.847 216.089 205.272 211.752 205.272 205.904H203.272ZM205.073 219.719C205.754 221.403 206.825 222.712 208.297 223.587C209.756 224.455 211.538 224.856 213.584 224.856V222.856C211.79 222.856 210.388 222.505 209.319 221.869C208.263 221.24 207.462 220.293 206.927 218.969L205.073 219.719ZM213.584 224.856C215.63 224.856 217.406 224.456 218.852 223.585C220.311 222.705 221.359 221.391 222.006 219.702L220.138 218.986C219.633 220.305 218.857 221.247 217.82 221.871C216.77 222.504 215.378 222.856 213.584 222.856V224.856ZM222.002 219.712C223.287 216.465 223.896 211.835 223.896 205.904H221.896C221.896 211.749 221.289 216.079 220.142 218.976L222.002 219.712Z" fill="black"/>
<path d="M101.816 181.432H73.016V192.088C74.232 190.808 75.896 189.784 78.008 189.016C80.12 188.248 82.456 187.864 85.016 187.864C89.624 187.864 93.464 188.92 96.536 191.032C99.672 193.144 101.976 195.928 103.448 199.384C104.92 202.84 105.656 206.616 105.656 210.712C105.656 218.264 103.512 224.216 99.224 228.568C94.936 232.856 88.984 235 81.368 235C76.056 235 71.448 234.104 67.544 232.312C63.704 230.456 60.76 227.896 58.712 224.632C56.664 221.368 55.608 217.624 55.544 213.4H73.88C74.072 214.872 74.712 216.152 75.8 217.24C76.888 218.328 78.488 218.872 80.6 218.872C82.84 218.872 84.536 218.104 85.688 216.568C86.84 215.032 87.416 212.984 87.416 210.424C87.416 207.928 86.808 206.04 85.592 204.76C84.376 203.416 82.616 202.744 80.312 202.744C78.584 202.744 77.176 203.192 76.088 204.088C75.064 204.92 74.456 205.976 74.264 207.256H55.928V164.824H101.816V181.432ZM114.15 198.904C114.15 187.896 116.39 179.224 120.87 172.888C125.35 166.552 132.39 163.384 141.99 163.384C151.59 163.384 158.63 166.552 163.11 172.888C167.654 179.224 169.926 187.896 169.926 198.904C169.926 210.04 167.686 218.776 163.206 225.112C158.726 231.448 151.654 234.616 141.99 234.616C132.326 234.616 125.254 231.448 120.774 225.112C116.358 218.776 114.15 210.04 114.15 198.904ZM151.302 198.904C151.302 193.144 150.694 188.76 149.478 185.752C148.262 182.68 145.766 181.144 141.99 181.144C138.214 181.144 135.718 182.68 134.502 185.752C133.286 188.76 132.678 193.144 132.678 198.904C132.678 204.792 133.254 209.272 134.406 212.344C135.622 215.352 138.15 216.856 141.99 216.856C145.83 216.856 148.326 215.352 149.478 212.344C150.694 209.272 151.302 204.792 151.302 198.904ZM177.744 198.904C177.744 187.896 179.984 179.224 184.464 172.888C188.944 166.552 195.984 163.384 205.584 163.384C215.184 163.384 222.224 166.552 226.704 172.888C231.248 179.224 233.52 187.896 233.52 198.904C233.52 210.04 231.28 218.776 226.8 225.112C222.32 231.448 215.248 234.616 205.584 234.616C195.92 234.616 188.848 231.448 184.368 225.112C179.952 218.776 177.744 210.04 177.744 198.904ZM214.896 198.904C214.896 193.144 214.288 188.76 213.072 185.752C211.856 182.68 209.36 181.144 205.584 181.144C201.808 181.144 199.312 182.68 198.096 185.752C196.88 188.76 196.272 193.144 196.272 198.904C196.272 204.792 196.848 209.272 198 212.344C199.216 215.352 201.744 216.856 205.584 216.856C209.424 216.856 211.92 215.352 213.072 212.344C214.288 209.272 214.896 204.792 214.896 198.904Z" fill="#EA5B21"/>
<path d="M101.816 181.432V183.432H103.816V181.432H101.816ZM73.016 181.432V179.432H71.016V181.432H73.016ZM73.016 192.088H71.016V197.097L74.466 193.465L73.016 192.088ZM78.008 189.016L77.3245 187.136V187.136L78.008 189.016ZM96.536 191.032L95.4029 192.68L95.4108 192.686L95.4188 192.691L96.536 191.032ZM103.448 199.384L105.288 198.6V198.6L103.448 199.384ZM99.224 228.568L100.638 229.982L100.643 229.977L100.649 229.972L99.224 228.568ZM67.544 232.312L66.6737 234.113L66.6916 234.121L66.7097 234.13L67.544 232.312ZM58.712 224.632L57.0179 225.695L58.712 224.632ZM55.544 213.4V211.4H53.5135L53.5442 213.43L55.544 213.4ZM73.88 213.4L75.8632 213.141L75.6361 211.4H73.88V213.4ZM75.8 217.24L74.3858 218.654H74.3858L75.8 217.24ZM85.688 216.568L87.288 217.768L85.688 216.568ZM85.592 204.76L84.1089 206.102L84.1252 206.12L84.142 206.137L85.592 204.76ZM76.088 204.088L77.3492 205.64L77.3594 205.632L76.088 204.088ZM74.264 207.256V209.256H75.9864L76.2419 207.553L74.264 207.256ZM55.928 207.256H53.928V209.256H55.928V207.256ZM55.928 164.824V162.824H53.928V164.824H55.928ZM101.816 164.824H103.816V162.824H101.816V164.824ZM101.816 179.432H73.016V183.432H101.816V179.432ZM71.016 181.432V192.088H75.016V181.432H71.016ZM74.466 193.465C75.4187 192.463 76.7933 191.586 78.6915 190.896L77.3245 187.136C74.9987 187.982 73.0453 189.153 71.566 190.71L74.466 193.465ZM78.6915 190.896C80.5562 190.218 82.6571 189.864 85.016 189.864V185.864C82.2549 185.864 79.6838 186.278 77.3245 187.136L78.6915 190.896ZM85.016 189.864C89.3158 189.864 92.7358 190.846 95.4029 192.68L97.6691 189.384C94.1922 186.994 89.9323 185.864 85.016 185.864V189.864ZM95.4188 192.691C98.2366 194.589 100.288 197.07 101.608 200.168L105.288 198.6C103.664 194.786 101.107 191.699 97.6532 189.373L95.4188 192.691ZM101.608 200.168C102.965 203.354 103.656 206.861 103.656 210.712H107.656C107.656 206.371 106.875 202.326 105.288 198.6L101.608 200.168ZM103.656 210.712C103.656 217.87 101.636 223.271 97.7994 227.164L100.649 229.972C105.388 225.161 107.656 218.658 107.656 210.712H103.656ZM97.8098 227.154C93.9872 230.976 88.5967 233 81.368 233V237C89.3713 237 95.8848 234.736 100.638 229.982L97.8098 227.154ZM81.368 233C76.2776 233 71.9663 232.141 68.3783 230.494L66.7097 234.13C70.9297 236.067 75.8344 237 81.368 237V233ZM68.4143 230.511C64.8754 228.801 62.2334 226.481 60.4061 223.569L57.0179 225.695C59.2866 229.311 62.5326 232.111 66.6737 234.113L68.4143 230.511ZM60.4061 223.569C58.571 220.644 57.6028 217.264 57.5438 213.37L53.5442 213.43C53.6132 217.984 54.757 222.092 57.0179 225.695L60.4061 223.569ZM55.544 215.4H73.88V211.4H55.544V215.4ZM71.8968 213.659C72.1481 215.585 72.9981 217.267 74.3858 218.654L77.2142 215.826C76.4259 215.037 75.996 214.159 75.8632 213.141L71.8968 213.659ZM74.3858 218.654C75.971 220.239 78.1596 220.872 80.6 220.872V216.872C78.8164 216.872 77.805 216.417 77.2142 215.826L74.3858 218.654ZM80.6 220.872C83.3505 220.872 85.6922 219.896 87.288 217.768L84.088 215.368C83.3798 216.312 82.3295 216.872 80.6 216.872V220.872ZM87.288 217.768C88.7741 215.786 89.416 213.273 89.416 210.424H85.416C85.416 212.695 84.9059 214.278 84.088 215.368L87.288 217.768ZM89.416 210.424C89.416 207.628 88.7346 205.164 87.042 203.382L84.142 206.137C84.8814 206.916 85.416 208.228 85.416 210.424H89.416ZM87.0751 203.418C85.3825 201.547 83.0175 200.744 80.312 200.744V204.744C82.2145 204.744 83.3695 205.285 84.1089 206.102L87.0751 203.418ZM80.312 200.744C78.2285 200.744 76.3382 201.291 74.8166 202.544L77.3594 205.632C78.0138 205.093 78.9395 204.744 80.312 204.744V200.744ZM74.8268 202.536C73.424 203.676 72.5537 205.176 72.2861 206.959L76.2419 207.553C76.3583 206.776 76.704 206.164 77.3492 205.64L74.8268 202.536ZM74.264 205.256H55.928V209.256H74.264V205.256ZM57.928 207.256V164.824H53.928V207.256H57.928ZM55.928 166.824H101.816V162.824H55.928V166.824ZM99.816 164.824V181.432H103.816V164.824H99.816ZM120.87 172.888L122.503 174.043L120.87 172.888ZM163.11 172.888L161.477 174.043L161.485 174.054L163.11 172.888ZM163.206 225.112L161.573 223.957L163.206 225.112ZM120.774 225.112L119.133 226.256L119.141 226.267L120.774 225.112ZM149.478 185.752L147.619 186.488L147.621 186.495L147.624 186.502L149.478 185.752ZM134.502 185.752L136.356 186.502L136.359 186.495L136.362 186.488L134.502 185.752ZM134.406 212.344L132.534 213.046L132.543 213.07L132.552 213.094L134.406 212.344ZM149.478 212.344L147.619 211.608L147.615 211.618L147.611 211.629L149.478 212.344ZM116.15 198.904C116.15 188.143 118.343 179.926 122.503 174.043L119.237 171.733C114.437 178.522 112.15 187.649 112.15 198.904H116.15ZM122.503 174.043C126.518 168.364 132.866 165.384 141.99 165.384V161.384C131.914 161.384 124.182 164.74 119.237 171.733L122.503 174.043ZM141.99 165.384C151.114 165.384 157.462 168.364 161.477 174.043L164.743 171.733C159.798 164.74 152.066 161.384 141.99 161.384V165.384ZM161.485 174.054C165.703 179.936 167.926 188.147 167.926 198.904H171.926C171.926 187.644 169.605 178.512 164.735 171.722L161.485 174.054ZM167.926 198.904C167.926 209.799 165.731 218.077 161.573 223.957L164.839 226.267C169.641 219.475 171.926 210.281 171.926 198.904H167.926ZM161.573 223.957C157.561 229.632 151.184 232.616 141.99 232.616V236.616C152.125 236.616 159.892 233.264 164.839 226.267L161.573 223.957ZM141.99 232.616C132.797 232.616 126.42 229.632 122.407 223.957L119.141 226.267C124.089 233.264 131.856 236.616 141.99 236.616V232.616ZM122.415 223.968C118.315 218.086 116.15 209.804 116.15 198.904H112.15C112.15 210.276 114.401 219.466 119.133 226.256L122.415 223.968ZM153.302 198.904C153.302 193.055 152.692 188.366 151.332 185.002L147.624 186.502C148.696 189.154 149.302 193.233 149.302 198.904H153.302ZM151.338 185.016C150.592 183.132 149.404 181.615 147.742 180.593C146.1 179.582 144.143 179.144 141.99 179.144V183.144C143.613 183.144 144.792 183.474 145.646 183.999C146.48 184.513 147.148 185.3 147.619 186.488L151.338 185.016ZM141.99 179.144C139.837 179.144 137.88 179.582 136.238 180.593C134.576 181.615 133.388 183.132 132.643 185.016L136.362 186.488C136.832 185.3 137.5 184.513 138.334 183.999C139.188 183.474 140.367 183.144 141.99 183.144V179.144ZM132.648 185.002C131.288 188.366 130.678 193.055 130.678 198.904H134.678C134.678 193.233 135.284 189.154 136.356 186.502L132.648 185.002ZM130.678 198.904C130.678 204.872 131.255 209.638 132.534 213.046L136.279 211.642C135.253 208.906 134.678 204.712 134.678 198.904H130.678ZM132.552 213.094C133.306 214.959 134.513 216.448 136.192 217.447C137.846 218.431 139.818 218.856 141.99 218.856V214.856C140.323 214.856 139.111 214.529 138.237 214.009C137.387 213.504 136.722 212.737 136.26 211.594L132.552 213.094ZM141.99 218.856C144.161 218.856 146.131 218.431 147.774 217.441C149.445 216.434 150.628 214.933 151.346 213.059L147.611 211.629C147.176 212.763 146.536 213.518 145.71 214.015C144.858 214.529 143.659 214.856 141.99 214.856V218.856ZM151.338 213.08C152.693 209.658 153.302 204.878 153.302 198.904H149.302C149.302 204.706 148.696 208.886 147.619 211.608L151.338 213.08ZM184.464 172.888L186.097 174.043L184.464 172.888ZM226.704 172.888L225.071 174.043L225.079 174.054L226.704 172.888ZM226.8 225.112L225.167 223.957L226.8 225.112ZM184.368 225.112L182.727 226.256L182.735 226.267L184.368 225.112ZM213.072 185.752L211.212 186.488L211.215 186.495L211.218 186.502L213.072 185.752ZM198.096 185.752L199.95 186.502L199.953 186.495L199.956 186.488L198.096 185.752ZM198 212.344L196.127 213.046L196.136 213.07L196.146 213.094L198 212.344ZM213.072 212.344L211.212 211.608L211.208 211.618L211.204 211.629L213.072 212.344ZM179.744 198.904C179.744 188.143 181.937 179.926 186.097 174.043L182.831 171.733C178.031 178.522 175.744 187.649 175.744 198.904H179.744ZM186.097 174.043C190.112 168.364 196.46 165.384 205.584 165.384V161.384C195.508 161.384 187.776 164.74 182.831 171.733L186.097 174.043ZM205.584 165.384C214.708 165.384 221.056 168.364 225.071 174.043L228.337 171.733C223.392 164.74 215.66 161.384 205.584 161.384V165.384ZM225.079 174.054C229.297 179.936 231.52 188.147 231.52 198.904H235.52C235.52 187.644 233.199 178.512 228.329 171.722L225.079 174.054ZM231.52 198.904C231.52 209.799 229.325 218.077 225.167 223.957L228.433 226.267C233.235 219.475 235.52 210.281 235.52 198.904H231.52ZM225.167 223.957C221.154 229.632 214.778 232.616 205.584 232.616V236.616C215.718 236.616 223.486 233.264 228.433 226.267L225.167 223.957ZM205.584 232.616C196.39 232.616 190.014 229.632 186.001 223.957L182.735 226.267C187.682 233.264 195.45 236.616 205.584 236.616V232.616ZM186.009 223.968C181.909 218.086 179.744 209.804 179.744 198.904H175.744C175.744 210.276 177.995 219.466 182.727 226.256L186.009 223.968ZM216.896 198.904C216.896 193.055 216.286 188.366 214.926 185.002L211.218 186.502C212.29 189.154 212.896 193.233 212.896 198.904H216.896ZM214.932 185.016C214.186 183.132 212.998 181.615 211.336 180.593C209.694 179.582 207.737 179.144 205.584 179.144V183.144C207.207 183.144 208.386 183.474 209.24 183.999C210.074 184.513 210.742 185.3 211.212 186.488L214.932 185.016ZM205.584 179.144C203.431 179.144 201.474 179.582 199.832 180.593C198.17 181.615 196.982 183.132 196.236 185.016L199.956 186.488C200.426 185.3 201.094 184.513 201.928 183.999C202.782 183.474 203.961 183.144 205.584 183.144V179.144ZM196.242 185.002C194.882 188.366 194.272 193.055 194.272 198.904H198.272C198.272 193.233 198.878 189.154 199.95 186.502L196.242 185.002ZM194.272 198.904C194.272 204.872 194.849 209.638 196.127 213.046L199.873 211.642C198.847 208.906 198.272 204.712 198.272 198.904H194.272ZM196.146 213.094C196.9 214.959 198.107 216.448 199.785 217.447C201.44 218.431 203.411 218.856 205.584 218.856V214.856C203.917 214.856 202.704 214.529 201.831 214.009C200.981 213.504 200.316 212.737 199.854 211.594L196.146 213.094ZM205.584 218.856C207.755 218.856 209.725 218.431 211.368 217.441C213.039 216.434 214.222 214.933 214.94 213.059L211.204 211.629C210.77 212.763 210.129 213.518 209.304 214.015C208.451 214.529 207.253 214.856 205.584 214.856V218.856ZM214.932 213.08C216.286 209.658 216.896 204.878 216.896 198.904H212.896C212.896 204.706 212.29 208.886 211.212 211.608L214.932 213.08Z" fill="#EA5B21"/>
</g>
<defs>
<linearGradient id="paint0_linear" x1="118.234" y1="123.022" x2="155.64" y2="-36.867" gradientUnits="userSpaceOnUse">
<stop stop-color="#E9E9E9"/>
<stop offset="1" stop-color="white"/>
</linearGradient>
<linearGradient id="paint1_linear" x1="181.172" y1="102.177" x2="139.046" y2="118.366" gradientUnits="userSpaceOnUse">
<stop offset="0.28" stop-color="#151E27"/>
<stop offset="0.39" stop-color="#192A41"/>
<stop offset="0.58" stop-color="#1F3C6B"/>
<stop offset="0.75" stop-color="#234A8A"/>
<stop offset="0.9" stop-color="#26529C"/>
<stop offset="1" stop-color="#2755A3"/>
</linearGradient>
</defs>
</svg>
