<svg width="306" height="306" viewBox="0 0 306 306" fill="none" xmlns="http://www.w3.org/2000/svg">
<mask id="mask0" mask-type="alpha" maskUnits="userSpaceOnUse" x="0" y="0" width="306" height="306">
<rect width="306" height="306" fill="white"/>
</mask>
<g mask="url(#mask0)">
<path d="M204.014 124.485C195.258 125.713 181.173 134.013 160.553 122.876C143.188 113.494 102.917 66.724 50.7923 100.916C-1.3326 135.109 11.4618 195.31 58.1709 241.59C100.426 283.466 154.654 303.391 207.149 286.51C253.138 271.724 284.663 243.465 286.542 200.078C288.186 162.037 256.099 117.185 204.014 124.485Z" fill="url(#paint0_linear)"/>
<path d="M59.896 251.48H58.896V252.48H59.896V251.48ZM59.896 235.928L59.0771 235.354L58.896 235.612V235.928H59.896ZM89.368 193.88V192.88H88.8477L88.5491 193.306L89.368 193.88ZM110.008 193.88H111.008V192.88H110.008V193.88ZM110.008 235.16H109.008V236.16H110.008V235.16ZM117.4 235.16H118.4V234.16H117.4V235.16ZM117.4 251.48V252.48H118.4V251.48H117.4ZM110.008 251.48V250.48H109.008V251.48H110.008ZM110.008 263V264H111.008V263H110.008ZM91 263H90V264H91V263ZM91 251.48H92V250.48H91V251.48ZM92.44 215.096H93.44V211.767L91.6055 214.545L92.44 215.096ZM79.192 235.16L78.3575 234.609L77.3334 236.16H79.192V235.16ZM92.44 235.16V236.16H93.44V235.16H92.44ZM60.896 251.48V235.928H58.896V251.48H60.896ZM60.7149 236.502L90.1869 194.454L88.5491 193.306L59.0771 235.354L60.7149 236.502ZM89.368 194.88H110.008V192.88H89.368V194.88ZM109.008 193.88V235.16H111.008V193.88H109.008ZM110.008 236.16H117.4V234.16H110.008V236.16ZM116.4 235.16V251.48H118.4V235.16H116.4ZM117.4 250.48H110.008V252.48H117.4V250.48ZM109.008 251.48V263H111.008V251.48H109.008ZM110.008 262H91V264H110.008V262ZM92 263V251.48H90V263H92ZM91 250.48H59.896V252.48H91V250.48ZM91.6055 214.545L78.3575 234.609L80.0265 235.711L93.2745 215.647L91.6055 214.545ZM79.192 236.16H92.44V234.16H79.192V236.16ZM93.44 235.16V215.096H91.44V235.16H93.44ZM132.339 200.888L133.156 201.465V201.465L132.339 200.888ZM174.579 200.888L173.762 201.465L173.766 201.471L174.579 200.888ZM174.675 253.112L173.858 252.535L174.675 253.112ZM132.243 253.112L131.423 253.684L131.426 253.689L132.243 253.112ZM160.947 213.752L160.017 214.12L160.02 214.127L160.947 213.752ZM145.971 213.752L146.898 214.127L146.901 214.12L145.971 213.752ZM145.875 240.344L144.939 240.695L144.943 240.707L144.948 240.719L145.875 240.344ZM160.947 240.344L160.017 239.976L160.013 239.986L160.947 240.344ZM126.619 226.904C126.619 216.019 128.835 207.575 133.156 201.465L131.522 200.311C126.883 206.873 124.619 215.773 124.619 226.904H126.619ZM133.156 201.465C137.403 195.458 144.097 192.384 153.459 192.384V190.384C143.621 190.384 136.235 193.646 131.522 200.311L133.156 201.465ZM153.459 192.384C162.821 192.384 169.515 195.458 173.762 201.465L175.396 200.311C170.683 193.646 163.297 190.384 153.459 190.384V192.384ZM173.766 201.471C178.148 207.58 180.395 216.022 180.395 226.904H182.395C182.395 215.77 180.098 206.868 175.392 200.305L173.766 201.471ZM180.395 226.904C180.395 237.92 178.177 246.426 173.858 252.535L175.492 253.689C180.133 247.126 182.395 238.16 182.395 226.904H180.395ZM173.858 252.535C169.612 258.54 162.888 261.616 153.459 261.616V263.616C163.358 263.616 170.778 260.356 175.492 253.689L173.858 252.535ZM153.459 261.616C144.03 261.616 137.306 258.54 133.06 252.535L131.426 253.689C136.14 260.356 143.56 263.616 153.459 263.616V261.616ZM133.063 252.54C128.806 246.431 126.619 237.922 126.619 226.904H124.619C124.619 238.158 126.848 247.121 131.423 253.684L133.063 252.54ZM163.771 226.904C163.771 221.1 163.162 216.563 161.874 213.377L160.02 214.127C161.164 216.957 161.771 221.188 161.771 226.904H163.771ZM161.877 213.384C161.2 211.674 160.142 210.34 158.687 209.444C157.242 208.555 155.48 208.144 153.459 208.144V210.144C155.214 210.144 156.588 210.501 157.639 211.148C158.68 211.788 159.478 212.758 160.017 214.12L161.877 213.384ZM153.459 208.144C151.438 208.144 149.676 208.555 148.231 209.444C146.776 210.34 145.718 211.674 145.041 213.384L146.901 214.12C147.44 212.758 148.238 211.788 149.279 211.148C150.33 210.501 151.704 210.144 153.459 210.144V208.144ZM145.044 213.377C143.756 216.563 143.147 221.1 143.147 226.904H145.147C145.147 221.188 145.754 216.957 146.898 214.127L145.044 213.377ZM143.147 226.904C143.147 232.832 143.724 237.455 144.939 240.695L146.811 239.993C145.722 237.089 145.147 232.752 145.147 226.904H143.147ZM144.948 240.719C145.629 242.403 146.7 243.712 148.172 244.587C149.631 245.455 151.413 245.856 153.459 245.856V243.856C151.665 243.856 150.263 243.505 149.194 242.869C148.138 242.24 147.337 241.293 146.802 239.969L144.948 240.719ZM153.459 245.856C155.505 245.856 157.281 245.456 158.727 244.585C160.186 243.705 161.234 242.391 161.881 240.702L160.013 239.986C159.508 241.305 158.732 242.247 157.695 242.871C156.645 243.504 155.253 243.856 153.459 243.856V245.856ZM161.877 240.712C163.162 237.465 163.771 232.835 163.771 226.904H161.771C161.771 232.749 161.164 237.079 160.017 239.976L161.877 240.712ZM195.933 200.888L196.749 201.465V201.465L195.933 200.888ZM238.173 200.888L237.356 201.465L237.36 201.471L238.173 200.888ZM238.269 253.112L237.452 252.535L238.269 253.112ZM195.837 253.112L195.016 253.684L195.02 253.689L195.837 253.112ZM224.541 213.752L223.611 214.12L223.614 214.127L224.541 213.752ZM209.565 213.752L210.492 214.127L210.495 214.12L209.565 213.752ZM209.469 240.344L208.532 240.695L208.537 240.707L208.542 240.719L209.469 240.344ZM224.541 240.344L223.611 239.976L223.607 239.986L224.541 240.344ZM190.213 226.904C190.213 216.019 192.429 207.575 196.749 201.465L195.116 200.311C190.476 206.873 188.213 215.773 188.213 226.904H190.213ZM196.749 201.465C200.997 195.458 207.691 192.384 217.053 192.384V190.384C207.215 190.384 199.829 193.646 195.116 200.311L196.749 201.465ZM217.053 192.384C226.415 192.384 233.109 195.458 237.356 201.465L238.989 200.311C234.277 193.646 226.891 190.384 217.053 190.384V192.384ZM237.36 201.471C241.741 207.58 243.989 216.022 243.989 226.904H245.989C245.989 215.77 243.692 206.868 238.985 200.305L237.36 201.471ZM243.989 226.904C243.989 237.92 241.771 246.426 237.452 252.535L239.085 253.689C243.726 247.126 245.989 238.16 245.989 226.904H243.989ZM237.452 252.535C233.206 258.54 226.482 261.616 217.053 261.616V263.616C226.952 263.616 234.372 260.356 239.085 253.689L237.452 252.535ZM217.053 261.616C207.624 261.616 200.9 258.54 196.653 252.535L195.02 253.689C199.734 260.356 207.154 263.616 217.053 263.616V261.616ZM196.657 252.54C192.399 246.431 190.213 237.922 190.213 226.904H188.213C188.213 238.158 190.442 247.121 195.016 253.684L196.657 252.54ZM227.365 226.904C227.365 221.1 226.756 216.563 225.468 213.377L223.614 214.127C224.758 216.957 225.365 221.188 225.365 226.904H227.365ZM225.471 213.384C224.794 211.674 223.736 210.34 222.281 209.444C220.836 208.555 219.073 208.144 217.053 208.144V210.144C218.808 210.144 220.182 210.501 221.233 211.148C222.274 211.788 223.072 212.758 223.611 214.12L225.471 213.384ZM217.053 208.144C215.032 208.144 213.27 208.555 211.825 209.444C210.37 210.34 209.312 211.674 208.635 213.384L210.495 214.12C211.034 212.758 211.832 211.788 212.873 211.148C213.924 210.501 215.297 210.144 217.053 210.144V208.144ZM208.638 213.377C207.35 216.563 206.741 221.1 206.741 226.904H208.741C208.741 221.188 209.348 216.957 210.492 214.127L208.638 213.377ZM206.741 226.904C206.741 232.832 207.317 237.455 208.532 240.695L210.405 239.993C209.316 237.089 208.741 232.752 208.741 226.904H206.741ZM208.542 240.719C209.223 242.403 210.294 243.712 211.765 244.587C213.225 245.455 215.006 245.856 217.053 245.856V243.856C215.259 243.856 213.857 243.505 212.788 242.869C211.731 242.24 210.931 241.293 210.396 239.969L208.542 240.719ZM217.053 245.856C219.098 245.856 220.875 245.456 222.321 244.585C223.78 243.705 224.828 242.391 225.475 240.702L223.607 239.986C223.102 241.305 222.325 242.247 221.289 242.871C220.238 243.504 218.847 243.856 217.053 243.856V245.856ZM225.471 240.712C226.756 237.465 227.365 232.835 227.365 226.904H225.365C225.365 232.749 224.758 237.079 223.611 239.976L225.471 240.712Z" fill="black"/>
<path d="M51.896 244.48V228.928L81.368 186.88H102.008V228.16H109.4V244.48H102.008V256H83V244.48H51.896ZM84.44 208.096L71.192 228.16H84.44V208.096ZM117.619 219.904C117.619 208.896 119.859 200.224 124.339 193.888C128.819 187.552 135.859 184.384 145.459 184.384C155.059 184.384 162.099 187.552 166.579 193.888C171.123 200.224 173.395 208.896 173.395 219.904C173.395 231.04 171.155 239.776 166.675 246.112C162.195 252.448 155.123 255.616 145.459 255.616C135.795 255.616 128.723 252.448 124.243 246.112C119.827 239.776 117.619 231.04 117.619 219.904ZM154.771 219.904C154.771 214.144 154.163 209.76 152.947 206.752C151.731 203.68 149.235 202.144 145.459 202.144C141.683 202.144 139.187 203.68 137.971 206.752C136.755 209.76 136.147 214.144 136.147 219.904C136.147 225.792 136.723 230.272 137.875 233.344C139.091 236.352 141.619 237.856 145.459 237.856C149.299 237.856 151.795 236.352 152.947 233.344C154.163 230.272 154.771 225.792 154.771 219.904ZM181.213 219.904C181.213 208.896 183.453 200.224 187.933 193.888C192.413 187.552 199.453 184.384 209.053 184.384C218.653 184.384 225.693 187.552 230.173 193.888C234.717 200.224 236.989 208.896 236.989 219.904C236.989 231.04 234.749 239.776 230.269 246.112C225.789 252.448 218.717 255.616 209.053 255.616C199.389 255.616 192.317 252.448 187.837 246.112C183.421 239.776 181.213 231.04 181.213 219.904ZM218.365 219.904C218.365 214.144 217.757 209.76 216.541 206.752C215.325 203.68 212.829 202.144 209.053 202.144C205.277 202.144 202.781 203.68 201.565 206.752C200.349 209.76 199.741 214.144 199.741 219.904C199.741 225.792 200.317 230.272 201.469 233.344C202.685 236.352 205.213 237.856 209.053 237.856C212.893 237.856 215.389 236.352 216.541 233.344C217.757 230.272 218.365 225.792 218.365 219.904Z" fill="#EA5B21"/>
<path d="M122.115 126.989L152.353 90.566L190.993 107.181" stroke="black" stroke-linecap="round" stroke-linejoin="round"/>
<path d="M131.032 63.0503C131.032 63.0503 120.093 54.7158 122 32.9198C122.016 32.6352 122.5 31 123.397 32.9201C127.122 36.6083 146.749 56.3502 164.5 58.5" fill="#2C4E8B"/>
<path d="M172.955 46.5078L181 51.0029L170.899 52.1082" fill="black"/>
<path d="M169.757 55.7813L168.63 54.0088L172.651 51.4562L173.778 53.2287C174.483 54.3358 174.155 55.8115 173.039 56.5134C171.931 57.2192 170.465 56.8952 169.757 55.7813Z" fill="#E53535"/>
<path d="M172.785 56.9036C172.288 57.1157 171.738 57.1654 171.198 57.0498C170.521 56.8962 169.939 56.4929 169.566 55.9034L168.328 53.945L172.725 51.1598L173.962 53.1181C174.335 53.7077 174.455 54.4047 174.302 55.0818C174.148 55.759 173.745 56.3414 173.155 56.7137C173.041 56.7864 172.915 56.8484 172.785 56.9036ZM169.946 55.661C170.258 56.1474 170.732 56.4844 171.294 56.6146C171.854 56.7379 172.433 56.6436 172.919 56.3314C173.406 56.0192 173.743 55.5455 173.873 54.983C173.996 54.4234 173.902 53.844 173.59 53.3576L172.585 51.7748L168.936 54.0879L169.946 55.661Z" fill="black"/>
<path d="M170.795 52.6552L170.402 52.9062L171.785 55.0707L172.178 54.8196L170.795 52.6552Z" fill="black"/>
<path d="M128.413 74.6542C128.413 74.6542 136.597 74.5749 144.255 70.1943L128.413 74.6542Z" fill="white"/>
<path d="M138.308 89.4402C138.308 89.4402 134.171 89.5588 132.178 88.707L138.308 89.4402Z" fill="white"/>
<path d="M129.213 58.6354C129.213 58.6354 120.786 51.2261 122.05 31.754C122.059 31.4995 122.382 31.3881 122.542 31.5765C125.645 34.927 144.07 54.2341 158.647 56.401" stroke="black" stroke-linecap="round" stroke-linejoin="round"/>
<path d="M172.892 46.9082L179.994 51.1213L171.132 52.0591" stroke="black" stroke-width="2.86853" stroke-linecap="round" stroke-linejoin="round"/>
<path d="M168.447 54.5413C166.103 56.094 166.07 57.7429 165.326 67.3004C164.545 77.3698 158.432 86.1809 141.579 87.4688C141.4 87.4823 141.241 87.6009 141.181 87.7739C140.655 89.1853 138.2 95.6149 135.003 100.804C132.788 104.41 130.197 107.415 127.648 107.704C121.882 108.382 112.595 105.188 110.24 100.766C109.671 99.6933 109.921 98.349 110.821 97.5214L133.96 76.1606C133.96 76.1606 128.101 76.9276 119.269 71.6125C109.993 66.033 104.04 53.0212 104.104 43.1872C104.102 42.9709 104.349 42.8368 104.528 42.9315C107.192 44.4098 122.468 52.4656 150.032 58.9408C150.032 58.9408 153.411 53.7559 155.789 49.344C159.404 42.6367 166.017 39.4973 170.392 42.5864C174.791 45.7074 172.959 51.5753 168.447 54.5413Z" fill="white"/>
<path fill-rule="evenodd" clip-rule="evenodd" d="M168.447 54.5413C166.103 56.094 166.07 57.7429 165.326 67.3004C164.545 77.3698 158.432 86.1809 141.579 87.4688C141.4 87.4823 141.241 87.6009 141.181 87.7739C140.655 89.1853 138.2 95.6149 135.003 100.804C132.788 104.41 130.197 107.415 127.648 107.704C121.882 108.382 112.595 105.188 110.24 100.766C109.671 99.6933 109.921 98.349 110.821 97.5214L133.96 76.1606C133.96 76.1606 128.101 76.9276 119.269 71.6125C109.993 66.033 104.04 53.0212 104.104 43.1872C104.102 42.9709 104.349 42.8368 104.528 42.9315C107.192 44.4098 122.468 52.4656 150.032 58.9408C150.032 58.9408 153.411 53.7559 155.789 49.344C159.404 42.6367 166.017 39.4973 170.392 42.5864C174.791 45.7074 172.959 51.5753 168.447 54.5413Z" fill="#2C4E8B" stroke="black" stroke-linecap="round" stroke-linejoin="round"/>
<path d="M152.993 85.0295C152.993 85.0295 153.055 88.5396 151.127 89.5852C149.179 90.6164 147.537 90.1128 147.537 90.1128" stroke="black" stroke-linecap="round" stroke-linejoin="round"/>
<path d="M152.242 88.3396C152.242 88.3396 149.672 89.4269 148.17 88.8984" stroke="black" stroke-linecap="round" stroke-linejoin="round"/>
<path d="M153.889 84.5825C153.889 84.5825 156.444 86.9827 155.843 89.0934C155.225 91.2073 153.71 92.0353 153.71 92.0353" stroke="black" stroke-linecap="round" stroke-linejoin="round"/>
<path d="M155.746 87.4321C155.746 87.4321 154.726 90.0324 153.298 90.7368" stroke="black" stroke-linecap="round" stroke-linejoin="round"/>
<path d="M168.498 46.7719L167.111 46.4424L167.404 45.0483L166.615 44.8841L166.327 46.2532L164.965 45.9283L164.779 46.7111L166.164 47.0453L165.871 48.4361L166.661 48.6036L166.947 47.2312L168.309 47.5561L168.498 46.7719Z" fill="black"/>
<path d="M166.745 48.7274L165.749 48.5176L166.04 47.1204L164.651 46.7876L164.886 45.7966L166.245 46.1229L166.529 44.7551L167.525 44.965L167.234 46.3622L168.623 46.695L168.388 47.686L167.029 47.3597L166.745 48.7274ZM165.997 48.3546L166.58 48.4765L166.866 47.1041L168.233 47.4309L168.372 46.8516L166.992 46.5193L167.282 45.1299L166.698 45.008L166.412 46.3803L165.046 46.0536L164.907 46.6328L166.29 46.9638L165.997 48.3546Z" fill="black"/>
<path d="M110.77 63.3848L118.306 60.5692" stroke="black" stroke-linecap="round" stroke-linejoin="round"/>
<path d="M119.254 71.6305L126.436 65.2844" stroke="black" stroke-linecap="round" stroke-linejoin="round"/>
<path d="M113.887 104.328L129.648 89.0229" stroke="black" stroke-linecap="round" stroke-linejoin="round"/>
<path d="M123.726 107.673L133.414 91.9274" stroke="black" stroke-linecap="round" stroke-linejoin="round"/>
<path d="M105.924 53.6602L114.406 55.0647" stroke="black" stroke-linecap="round" stroke-linejoin="round"/>
<path d="M122.58 43.8125L129.348 46.4418" stroke="black" stroke-linecap="round" stroke-linejoin="round"/>
<path d="M133.946 76.1786C133.946 76.1786 140.2 76.118 146.054 72.7699" stroke="black" stroke-linecap="round" stroke-linejoin="round"/>
<path d="M141.51 87.4783C141.51 87.4783 138.348 87.569 136.824 86.918" stroke="black" stroke-linecap="round" stroke-linejoin="round"/>
<path d="M147.016 114.784L120.237 127.747C118.867 128.401 118.289 130.05 118.952 131.418L134.621 163.541C135.288 164.917 136.948 165.472 138.309 164.791L166.307 151.237L159.698 141.864L158.018 132.881L150.281 125.013L151.553 120.238L147.016 114.784Z" fill="black"/>
<path d="M146.012 115.6L119.173 128.391C117.802 129.046 117.225 130.695 117.888 132.062L133.557 164.186C134.223 165.562 135.883 166.117 137.245 165.436L165.098 151.47L158.634 142.508L156.954 133.526L149.217 125.658L150.489 120.882L146.012 115.6Z" fill="white"/>
<path d="M137.009 165.838C136.374 166.061 135.692 166.069 135.056 165.849C134.289 165.588 133.665 165.045 133.311 164.312L117.642 132.188C117.291 131.463 117.243 130.641 117.504 129.875C117.774 129.105 118.322 128.498 119.047 128.147L146.075 115.261L150.784 120.818L149.516 125.582L157.199 133.402L157.217 133.482L158.888 142.41L165.501 151.579L137.363 165.694C137.254 165.742 137.137 165.792 137.009 165.838ZM145.944 115.933L119.297 128.638C118.694 128.926 118.242 129.423 118.028 130.047C117.813 130.672 117.847 131.345 118.144 131.944L133.804 164.071C134.093 164.673 134.604 165.111 135.228 165.325C135.853 165.54 136.531 165.494 137.128 165.188L164.692 151.362L158.379 142.608L158.366 142.545L156.696 133.646L148.912 125.727L150.181 120.943L145.944 115.933Z" fill="black"/>
<path d="M160.561 109.846L164.029 116.041L161.821 120.239L167.657 130.048L166.957 138.815L171.653 149.304L199.781 143.011C201.12 142.704 201.961 141.368 201.661 140.018L193.636 104.515C193.332 103.156 191.981 102.301 190.625 102.613L160.561 109.846Z" fill="black"/>
<path d="M159.221 110.233L162.674 116.385L160.46 120.566L166.271 130.306L165.557 139.031L170.229 149.45L198.321 143.054C199.659 142.748 200.504 141.42 200.203 140.07L192.365 105.099C192.065 103.749 190.716 102.902 189.361 103.214L159.221 110.233Z" fill="white"/>
<path d="M198.692 143.23C198.589 143.267 198.492 143.291 198.386 143.319L170.079 149.761L165.285 139.076L165.997 130.371L160.147 120.578L162.358 116.389L158.802 110.051L189.3 102.954C190.022 102.788 190.769 102.911 191.399 103.306C192.03 103.702 192.469 104.319 192.627 105.044L200.465 140.015C200.783 141.388 199.997 142.772 198.692 143.23ZM170.397 149.129L198.268 142.791C199.455 142.519 200.213 141.328 199.949 140.138L192.111 105.168C191.984 104.586 191.628 104.094 191.119 103.771C190.611 103.448 190.016 103.349 189.429 103.487L159.633 110.414L162.983 116.381L160.768 120.562L166.55 130.245L165.839 138.978L170.397 149.129Z" fill="black"/>
<path d="M118.012 131.082L157.021 134.929" stroke="black"/>
<path d="M134.686 165.686L153.538 134.456" stroke="black"/>
<path d="M166.059 131.362L192.108 103.197" stroke="black"/>
<path d="M166.529 133.344L200.336 141.607" stroke="black"/>
<path d="M198.669 95.6939L198.856 95.86L199.022 95.6732L204.591 89.4123L204.757 89.2255L204.57 89.0593L203.917 88.4782L203.73 88.312L203.564 88.4988L197.995 94.7598L197.829 94.9466L198.016 95.1128L198.669 95.6939Z" fill="black" stroke="black" stroke-width="0.5"/>
<path d="M207.328 104.763L207.402 105.002L207.641 104.928L212.613 103.395L212.852 103.321L212.778 103.083L212.52 102.247L212.447 102.008L212.208 102.082L207.236 103.615L206.997 103.689L207.071 103.927L207.328 104.763Z" fill="black" stroke="black" stroke-width="0.5"/>
<path d="M186.138 92.6906L186.212 92.9295L186.451 92.8559L187.287 92.5983L187.525 92.5246L187.452 92.2857L185.984 87.5231L185.91 87.2841L185.671 87.3578L184.835 87.6154L184.597 87.689L184.67 87.9279L186.138 92.6906Z" fill="black" stroke="black" stroke-width="0.5"/>
<path d="M290.345 165.54C295.925 162.18 279.505 161.15 275.685 161.19C275.685 161.19 272.475 157.65 265.485 157.1C256.405 156.39 254.385 159.7 254.385 159.7C254.385 159.7 253.745 158.78 248.675 159.76C243.605 160.74 244.265 163.54 244.265 163.54C244.265 163.54 235.375 164.26 236.035 166.54C236.695 168.82 285.615 168.38 290.345 165.54Z" fill="white"/>
<path d="M122.865 149.424C128.395 144.536 112.121 143.037 108.334 143.096C108.334 143.096 105.153 137.945 98.2245 137.145C89.2247 136.112 87.2225 140.928 87.2225 140.928C87.2225 140.928 86.5882 139.589 81.563 141.015C76.5378 142.441 77.192 146.514 77.192 146.514C77.192 146.514 68.3805 147.562 69.0347 150.879C69.6889 154.196 118.177 153.556 122.865 149.424Z" fill="#FCFCFC"/>
<path d="M8.13524 196.095C2.60455 192.123 18.8795 190.905 22.6657 190.953C22.6657 190.953 25.8473 186.768 32.7755 186.118C41.7753 185.279 43.7775 189.191 43.7775 189.191C43.7775 189.191 44.4118 188.104 49.437 189.262C54.4622 190.421 53.808 193.731 53.808 193.731C53.808 193.731 62.6195 194.582 61.9653 197.277C61.3111 199.972 12.8234 199.452 8.13524 196.095Z" fill="#FCFCFC"/>
<path d="M47.805 104.989C43.8832 102.239 55.4236 101.396 58.1084 101.429C58.1084 101.429 60.3645 98.5318 65.2772 98.0817C71.6588 97.5007 73.0786 100.209 73.0786 100.209C73.0786 100.209 73.5284 99.4565 77.0917 100.259C80.655 101.06 80.1911 103.352 80.1911 103.352C80.1911 103.352 86.4393 103.941 85.9754 105.807C85.5115 107.673 51.1293 107.313 47.805 104.989Z" fill="#FCFCFC"/>
</g>
<defs>
<linearGradient id="paint0_linear" x1="199" y1="280" x2="-11.8067" y2="-57.307" gradientUnits="userSpaceOnUse">
<stop stop-color="#E9E9E9"/>
<stop offset="0.995658" stop-color="white"/>
</linearGradient>
</defs>
</svg>
