<svg width="372" height="372" viewBox="0 0 372 372" fill="none" xmlns="http://www.w3.org/2000/svg">
<mask id="mask0" mask-type="alpha" maskUnits="userSpaceOnUse" x="0" y="0" width="372" height="372">
<rect width="372" height="372" fill="white"/>
</mask>
<g mask="url(#mask0)">
<path d="M246.858 212.249C239.579 213.883 227.338 221.123 211.382 214.742C197.945 209.365 168.892 178.661 123.298 207.988C77.7037 237.315 83.1095 280.13 117.479 309.933C148.57 336.902 191.322 346.856 235.76 330.119C274.689 315.46 302.904 292.197 308.104 260.404C312.659 232.529 290.15 202.533 246.858 212.249Z" fill="url(#paint0_linear)"/>
<path d="M112.896 214.48H111.896V215.48H112.896V214.48ZM112.896 198.928L112.077 198.354L111.896 198.612V198.928H112.896ZM142.368 156.88V155.88H141.848L141.549 156.306L142.368 156.88ZM163.008 156.88H164.008V155.88H163.008V156.88ZM163.008 198.16H162.008V199.16H163.008V198.16ZM170.4 198.16H171.4V197.16H170.4V198.16ZM170.4 214.48V215.48H171.4V214.48H170.4ZM163.008 214.48V213.48H162.008V214.48H163.008ZM163.008 226V227H164.008V226H163.008ZM144 226H143V227H144V226ZM144 214.48H145V213.48H144V214.48ZM145.44 178.096H146.44V174.767L144.606 177.545L145.44 178.096ZM132.192 198.16L131.358 197.609L130.333 199.16H132.192V198.16ZM145.44 198.16V199.16H146.44V198.16H145.44ZM113.896 214.48V198.928H111.896V214.48H113.896ZM113.715 199.502L143.187 157.454L141.549 156.306L112.077 198.354L113.715 199.502ZM142.368 157.88H163.008V155.88H142.368V157.88ZM162.008 156.88V198.16H164.008V156.88H162.008ZM163.008 199.16H170.4V197.16H163.008V199.16ZM169.4 198.16V214.48H171.4V198.16H169.4ZM170.4 213.48H163.008V215.48H170.4V213.48ZM162.008 214.48V226H164.008V214.48H162.008ZM163.008 225H144V227H163.008V225ZM145 226V214.48H143V226H145ZM144 213.48H112.896V215.48H144V213.48ZM144.606 177.545L131.358 197.609L133.026 198.711L146.275 178.647L144.606 177.545ZM132.192 199.16H145.44V197.16H132.192V199.16ZM146.44 198.16V178.096H144.44V198.16H146.44ZM185.339 163.888L186.156 164.465V164.465L185.339 163.888ZM227.579 163.888L226.762 164.465L226.766 164.471L227.579 163.888ZM227.675 216.112L226.858 215.535L227.675 216.112ZM185.243 216.112L184.423 216.684L184.426 216.689L185.243 216.112ZM213.947 176.752L213.017 177.12L213.02 177.127L213.947 176.752ZM198.971 176.752L199.898 177.127L199.901 177.12L198.971 176.752ZM198.875 203.344L197.939 203.695L197.943 203.707L197.948 203.719L198.875 203.344ZM213.947 203.344L213.017 202.976L213.013 202.986L213.947 203.344ZM179.619 189.904C179.619 179.019 181.835 170.575 186.156 164.465L184.522 163.311C179.883 169.873 177.619 178.773 177.619 189.904H179.619ZM186.156 164.465C190.403 158.458 197.097 155.384 206.459 155.384V153.384C196.621 153.384 189.235 156.646 184.522 163.311L186.156 164.465ZM206.459 155.384C215.821 155.384 222.515 158.458 226.762 164.465L228.396 163.311C223.683 156.646 216.297 153.384 206.459 153.384V155.384ZM226.766 164.471C231.148 170.58 233.395 179.022 233.395 189.904H235.395C235.395 178.77 233.098 169.868 228.392 163.305L226.766 164.471ZM233.395 189.904C233.395 200.92 231.177 209.426 226.858 215.535L228.492 216.689C233.133 210.126 235.395 201.16 235.395 189.904H233.395ZM226.858 215.535C222.612 221.54 215.888 224.616 206.459 224.616V226.616C216.358 226.616 223.778 223.356 228.492 216.689L226.858 215.535ZM206.459 224.616C197.03 224.616 190.306 221.54 186.06 215.535L184.426 216.689C189.14 223.356 196.56 226.616 206.459 226.616V224.616ZM186.063 215.54C181.806 209.431 179.619 200.922 179.619 189.904H177.619C177.619 201.158 179.848 210.121 184.423 216.684L186.063 215.54ZM216.771 189.904C216.771 184.1 216.162 179.563 214.874 176.377L213.02 177.127C214.164 179.957 214.771 184.188 214.771 189.904H216.771ZM214.877 176.384C214.2 174.674 213.142 173.34 211.687 172.444C210.242 171.555 208.48 171.144 206.459 171.144V173.144C208.214 173.144 209.588 173.501 210.639 174.148C211.68 174.788 212.478 175.758 213.017 177.12L214.877 176.384ZM206.459 171.144C204.438 171.144 202.676 171.555 201.231 172.444C199.776 173.34 198.718 174.674 198.041 176.384L199.901 177.12C200.44 175.758 201.238 174.788 202.279 174.148C203.33 173.501 204.704 173.144 206.459 173.144V171.144ZM198.044 176.377C196.756 179.563 196.147 184.1 196.147 189.904H198.147C198.147 184.188 198.754 179.957 199.898 177.127L198.044 176.377ZM196.147 189.904C196.147 195.832 196.724 200.455 197.939 203.695L199.811 202.993C198.722 200.089 198.147 195.752 198.147 189.904H196.147ZM197.948 203.719C198.629 205.403 199.7 206.712 201.172 207.587C202.631 208.455 204.413 208.856 206.459 208.856V206.856C204.665 206.856 203.263 206.505 202.194 205.869C201.138 205.24 200.337 204.293 199.802 202.969L197.948 203.719ZM206.459 208.856C208.505 208.856 210.281 208.456 211.727 207.585C213.186 206.705 214.234 205.391 214.881 203.702L213.013 202.986C212.508 204.305 211.732 205.247 210.695 205.871C209.645 206.504 208.253 206.856 206.459 206.856V208.856ZM214.877 203.712C216.162 200.465 216.771 195.835 216.771 189.904H214.771C214.771 195.749 214.164 200.079 213.017 202.976L214.877 203.712ZM243.077 176.752L242.077 176.717L242.041 177.752H243.077V176.752ZM249.797 160.144L250.469 160.884L250.475 160.878L249.797 160.144ZM280.037 156.88L279.59 157.774L279.599 157.779L279.609 157.784L280.037 156.88ZM288.005 163.792L287.151 164.312L287.156 164.32L288.005 163.792ZM287.525 184.048L288.296 184.684L288.304 184.675L287.525 184.048ZM280.325 189.232L280.009 188.283L279.325 188.511V189.232H280.325ZM280.325 189.616H279.325V190.311L279.976 190.553L280.325 189.616ZM289.157 216.784L288.301 216.267L289.157 216.784ZM281.093 223.984L281.533 224.882L281.093 223.984ZM249.509 220.816L248.862 221.579L248.868 221.584L248.874 221.589L249.509 220.816ZM242.309 202.96V201.96H241.284L241.309 202.984L242.309 202.96ZM260.645 202.96L261.644 203.01L261.696 201.96H260.645V202.96ZM262.277 208.912L261.52 209.566V209.566L262.277 208.912ZM272.069 209.296L271.342 208.609L271.331 208.62L271.321 208.632L272.069 209.296ZM271.301 199.312L270.701 200.112L270.709 200.118L270.716 200.124L271.301 199.312ZM260.357 197.584H259.357V198.584H260.357V197.584ZM260.357 182.32V181.32H259.357V182.32H260.357ZM263.621 182.32L263.647 181.32L263.634 181.32H263.621V182.32ZM269.765 181.168L270.212 182.062L270.219 182.059L270.225 182.056L269.765 181.168ZM270.917 171.472L270.187 172.156L270.198 172.168L270.21 172.179L270.917 171.472ZM262.853 171.952L262.021 171.397L262.014 171.407L262.853 171.952ZM261.413 176.752V177.752H262.348L262.411 176.819L261.413 176.752ZM244.076 176.787C244.325 169.749 246.495 164.497 250.469 160.884L249.124 159.404C244.651 163.471 242.34 169.291 242.077 176.717L244.076 176.787ZM250.475 160.878C254.463 157.193 260.08 155.288 267.461 155.288V153.288C259.738 153.288 253.579 155.287 249.118 159.41L250.475 160.878ZM267.461 155.288C272.275 155.288 276.305 156.132 279.59 157.774L280.484 155.986C276.856 154.172 272.503 153.288 267.461 153.288V155.288ZM279.609 157.784C282.976 159.376 285.473 161.556 287.151 164.312L288.859 163.272C286.952 160.14 284.137 157.712 280.464 155.976L279.609 157.784ZM287.156 164.32C288.842 167.03 289.693 170.108 289.693 173.584H291.693C291.693 169.764 290.752 166.314 288.854 163.264L287.156 164.32ZM289.693 173.584C289.693 177.775 288.677 181.021 286.746 183.421L288.304 184.675C290.596 181.827 291.693 178.097 291.693 173.584H289.693ZM286.753 183.412C284.74 185.852 282.49 187.456 280.009 188.283L280.641 190.181C283.536 189.216 286.085 187.364 288.296 184.684L286.753 183.412ZM279.325 189.232V189.616H281.325V189.232H279.325ZM279.976 190.553C283.702 191.939 286.423 193.927 288.219 196.479C290.014 199.03 290.941 202.226 290.941 206.128H292.941C292.941 201.902 291.932 198.282 289.855 195.329C287.778 192.377 284.691 190.173 280.673 188.679L279.976 190.553ZM290.941 206.128C290.941 210.001 290.051 213.37 288.301 216.267L290.013 217.301C291.974 214.054 292.941 210.319 292.941 206.128H290.941ZM288.301 216.267C286.553 219.16 284.017 221.435 280.652 223.086L281.533 224.882C285.209 223.077 288.048 220.552 290.013 217.301L288.301 216.267ZM280.652 223.086C277.298 224.733 273.264 225.576 268.517 225.576V227.576C273.498 227.576 277.847 226.691 281.533 224.882L280.652 223.086ZM268.517 225.576C260.673 225.576 254.586 223.695 250.144 220.043L248.874 221.589C253.775 225.617 260.36 227.576 268.517 227.576V225.576ZM250.155 220.053C245.83 216.389 243.496 210.748 243.308 202.936L241.309 202.984C241.506 211.172 243.971 217.435 248.862 221.579L250.155 220.053ZM242.309 203.96H260.645V201.96H242.309V203.96ZM259.646 202.91C259.51 205.629 260.081 207.899 261.52 209.566L263.034 208.258C262.041 207.109 261.523 205.411 261.644 203.01L259.646 202.91ZM261.52 209.566C262.98 211.257 265.121 212.024 267.749 212.024V210.024C265.512 210.024 264.005 209.383 263.034 208.258L261.52 209.566ZM267.749 212.024C269.827 212.024 271.564 211.369 272.816 209.96L271.321 208.632C270.526 209.527 269.383 210.024 267.749 210.024V212.024ZM272.796 209.983C274.095 208.607 274.701 206.806 274.701 204.688H272.701C272.701 206.41 272.219 207.681 271.342 208.609L272.796 209.983ZM274.701 204.688C274.701 202.019 273.808 199.885 271.885 198.5L270.716 200.124C271.994 201.043 272.701 202.493 272.701 204.688H274.701ZM271.901 198.512C270.098 197.16 267.296 196.584 263.717 196.584V198.584C267.178 198.584 269.431 199.16 270.701 200.112L271.901 198.512ZM263.717 196.584H260.357V198.584H263.717V196.584ZM261.357 197.584V182.32H259.357V197.584H261.357ZM260.357 183.32H263.621V181.32H260.357V183.32ZM263.594 183.32C266.142 183.387 268.363 182.987 270.212 182.062L269.318 180.274C267.839 181.013 265.964 181.381 263.647 181.32L263.594 183.32ZM270.225 182.056C272.4 180.928 273.357 178.735 273.357 175.888H271.357C271.357 178.289 270.586 179.616 269.304 180.28L270.225 182.056ZM273.357 175.888C273.357 173.761 272.843 171.984 271.624 170.765L270.21 172.179C270.911 172.88 271.357 174.047 271.357 175.888H273.357ZM271.646 170.788C270.462 169.525 268.865 168.936 266.981 168.936V170.936C268.424 170.936 269.451 171.371 270.187 172.156L271.646 170.788ZM266.981 168.936C264.848 168.936 263.132 169.73 262.021 171.397L263.685 172.507C264.365 171.486 265.401 170.936 266.981 170.936V168.936ZM262.014 171.407C261.068 172.863 260.551 174.639 260.415 176.685L262.411 176.819C262.53 175.025 262.974 173.601 263.691 172.497L262.014 171.407ZM261.413 175.752H243.077V177.752H261.413V175.752Z" fill="#EA5B21"/>
<path d="M104.896 207.48V191.928L134.368 149.88H155.008V191.16H162.4V207.48H155.008V219H136V207.48H104.896ZM137.44 171.096L124.192 191.16H137.44V171.096ZM170.619 182.904C170.619 171.896 172.859 163.224 177.339 156.888C181.819 150.552 188.859 147.384 198.459 147.384C208.059 147.384 215.099 150.552 219.579 156.888C224.123 163.224 226.395 171.896 226.395 182.904C226.395 194.04 224.155 202.776 219.675 209.112C215.195 215.448 208.123 218.616 198.459 218.616C188.795 218.616 181.723 215.448 177.243 209.112C172.827 202.776 170.619 194.04 170.619 182.904ZM207.771 182.904C207.771 177.144 207.163 172.76 205.947 169.752C204.731 166.68 202.235 165.144 198.459 165.144C194.683 165.144 192.187 166.68 190.971 169.752C189.755 172.76 189.147 177.144 189.147 182.904C189.147 188.792 189.723 193.272 190.875 196.344C192.091 199.352 194.619 200.856 198.459 200.856C202.299 200.856 204.795 199.352 205.947 196.344C207.163 193.272 207.771 188.792 207.771 182.904ZM235.077 169.752C235.333 162.52 237.573 156.984 241.797 153.144C246.021 149.24 251.909 147.288 259.461 147.288C264.389 147.288 268.581 148.152 272.037 149.88C275.557 151.544 278.213 153.848 280.005 156.792C281.797 159.672 282.693 162.936 282.693 166.584C282.693 170.936 281.637 174.424 279.525 177.048C277.413 179.608 275.013 181.336 272.325 182.232V182.616C280.069 185.496 283.941 191 283.941 199.128C283.941 203.16 283.013 206.712 281.157 209.784C279.301 212.856 276.613 215.256 273.093 216.984C269.573 218.712 265.381 219.576 260.517 219.576C252.517 219.576 246.181 217.656 241.509 213.816C236.901 209.912 234.501 203.96 234.309 195.96H252.645C252.517 198.52 253.061 200.504 254.277 201.912C255.493 203.32 257.317 204.024 259.749 204.024C261.605 204.024 263.045 203.448 264.069 202.296C265.157 201.144 265.701 199.608 265.701 197.688C265.701 195.256 264.901 193.464 263.301 192.312C261.765 191.16 259.237 190.584 255.717 190.584H252.357V175.32H255.621C258.053 175.384 260.101 175 261.765 174.168C263.493 173.272 264.357 171.512 264.357 168.888C264.357 166.904 263.877 165.432 262.917 164.472C261.957 163.448 260.645 162.936 258.981 162.936C257.125 162.936 255.749 163.608 254.853 164.952C254.021 166.232 253.541 167.832 253.413 169.752H235.077Z" fill="#EA5B21"/>
<ellipse cx="200" cy="182" rx="16" ry="23" fill="#EA5B21"/>
<path fill-rule="evenodd" clip-rule="evenodd" d="M207.847 174.936C207.847 170.376 204.007 166.735 199.406 167.015C195.366 167.255 192.125 170.616 192.005 174.616C191.885 177.896 193.766 180.777 196.526 182.097V199.339C196.526 201.219 198.046 202.739 199.926 202.739C201.807 202.739 203.327 201.219 203.327 199.339V182.097C206.007 180.817 207.847 178.096 207.847 174.936Z" fill="black" stroke="black" stroke-width="2.43489" stroke-linecap="round" stroke-linejoin="round"/>
<path d="M240.336 140.665C240.279 140.663 240.224 140.65 240.172 140.626C240.121 140.589 240.078 140.542 240.045 140.488C240.012 140.433 239.99 140.371 239.979 140.306C239.969 140.242 239.971 140.175 239.985 140.11C239.999 140.045 240.025 139.984 240.061 139.929C240.17 139.768 250.773 123.412 252.368 112.683L252.545 111.341C253.556 103.301 255.031 100.892 258.778 96.5519L259.68 95.3906C262.152 92.2167 264.936 86.603 265.546 82.0433C265.813 79.9242 266.185 73.4733 266.185 73.4054C266.189 73.3394 266.205 73.2744 266.232 73.2141C266.259 73.1539 266.297 73.0995 266.343 73.0542C266.39 73.0088 266.444 72.9734 266.502 72.9499C266.561 72.9264 266.623 72.9153 266.685 72.9172C266.747 72.9191 266.807 72.934 266.863 72.961C266.919 72.988 266.969 73.0267 267.01 73.0747C267.051 73.1227 267.083 73.1792 267.103 73.2409C267.123 73.3027 267.131 73.3684 267.128 73.4344C267.111 73.7023 266.748 79.9853 266.479 82.1464C265.856 87.0937 262.886 92.8244 260.408 95.9885L259.488 97.1623C255.902 101.354 254.459 103.66 253.486 111.412L253.305 112.77C251.677 123.737 241.276 139.776 240.838 140.453C240.783 140.538 240.705 140.603 240.616 140.641C240.526 140.679 240.429 140.687 240.336 140.665Z" fill="#EF6744"/>
<path d="M305.077 45.8719C306.115 40.1932 305.478 34.3301 303.242 28.9814C301.005 23.6328 297.265 19.0244 292.465 15.7057C287.666 12.387 282.01 10.498 276.172 10.2641C270.335 10.0301 264.562 11.461 259.542 14.3861C254.522 17.3113 250.467 21.6072 247.859 26.7618C245.252 31.9163 244.204 37.7119 244.838 43.4575C245.473 49.2032 247.764 54.6564 251.438 59.167C255.112 63.6776 260.015 67.0552 265.562 68.8972L262.379 74.7305L271.504 76.4098L269.938 69.9978C277.854 71.3913 285.99 69.6376 292.572 65.1187C299.153 60.5998 303.648 53.6819 305.077 45.8719Z" fill="#FFD8C8"/>
<path d="M272.054 39.7178C270.371 38.7055 268.146 38.8754 266.629 40.3077C264.889 41.9552 264.748 44.7209 266.314 46.5354C267.966 48.4446 270.852 48.6299 272.73 46.9567C274.243 45.6083 274.631 43.475 273.837 41.7238L283.225 33.3577L284.721 35.0331C284.795 35.1142 284.917 35.1202 284.992 35.0462L286.525 33.6795C286.606 33.6058 286.612 33.4833 286.538 33.4087L285.171 31.8753C285.098 31.7941 285.11 31.672 285.185 31.6045L285.894 30.9668C285.975 30.8932 286.097 30.9055 286.165 30.9799L287.531 32.5133C287.605 32.5944 287.728 32.6004 287.802 32.5264L289.335 31.1596C289.417 31.086 289.423 30.9635 289.349 30.8888L287.853 29.2135L287.369 28.6665L286.199 27.3559C286.125 27.2748 286.002 27.2689 285.928 27.3428L272.054 39.7178ZM270.717 44.4936C270.138 45.1182 269.139 45.0633 268.642 44.3735C268.273 43.8644 268.314 43.149 268.737 42.6848C269.317 42.0602 270.316 42.1152 270.812 42.8049C271.188 43.3144 271.14 44.0294 270.717 44.4936Z" fill="black"/>
<path d="M305.183 173.901C305.149 173.898 305.117 173.889 305.087 173.873C305.058 173.851 305.034 173.822 305.016 173.789C304.998 173.756 304.986 173.719 304.982 173.681C304.977 173.643 304.98 173.604 304.99 173.566C305 173.528 305.016 173.493 305.039 173.461C305.107 173.369 311.738 164.023 312.939 157.76L313.076 156.976C313.868 152.278 314.794 150.899 317.102 148.442L317.66 147.782C319.19 145.979 320.964 142.75 321.434 140.086C321.643 138.848 322.02 135.068 322.022 135.028C322.026 134.99 322.037 134.952 322.055 134.917C322.072 134.882 322.096 134.851 322.124 134.826C322.152 134.8 322.185 134.781 322.22 134.768C322.255 134.756 322.292 134.751 322.328 134.754C322.364 134.756 322.4 134.767 322.432 134.784C322.464 134.801 322.492 134.825 322.515 134.854C322.538 134.883 322.555 134.917 322.565 134.954C322.576 134.991 322.579 135.03 322.575 135.068C322.559 135.225 322.191 138.907 321.98 140.17C321.492 143.061 319.606 146.354 318.073 148.151L317.503 148.818C315.294 151.192 314.39 152.511 313.627 157.041L313.487 157.834C312.261 164.236 305.757 173.402 305.483 173.788C305.448 173.837 305.401 173.873 305.347 173.893C305.294 173.913 305.236 173.916 305.183 173.901Z" fill="#EF6744"/>
<path d="M345.546 119.812C346.296 116.502 346.066 113.042 344.884 109.845C343.702 106.648 341.618 103.849 338.881 101.781C336.143 99.7139 332.867 98.4651 329.444 98.1839C326.021 97.9027 322.595 98.6011 319.574 100.196C316.553 101.79 314.065 104.214 312.407 107.178C310.748 110.141 309.99 113.52 310.221 116.91C310.452 120.301 311.664 123.561 313.711 126.301C315.758 129.041 318.555 131.146 321.768 132.364L319.754 135.712L325.073 136.923L324.311 133.118C328.927 134.132 333.749 133.302 337.727 130.81C341.704 128.317 344.515 124.364 345.546 119.812Z" fill="#FFD8C8"/>
<path d="M167.451 128.028C167.418 128.035 167.384 128.037 167.351 128.031C167.317 128.018 167.285 127.998 167.258 127.972C167.231 127.947 167.208 127.915 167.192 127.88C167.177 127.845 167.167 127.807 167.165 127.768C167.163 127.729 167.168 127.69 167.18 127.653C167.217 127.545 170.68 116.621 169.914 110.29L169.805 109.502C169.127 104.786 169.588 103.191 171.036 100.147L171.366 99.3484C172.274 97.164 172.978 93.5479 172.614 90.8679C172.435 89.625 171.641 85.91 171.631 85.8714C171.623 85.8334 171.622 85.7941 171.628 85.7557C171.634 85.7173 171.647 85.6806 171.666 85.6477C171.685 85.6147 171.71 85.5862 171.74 85.5638C171.769 85.5413 171.803 85.5253 171.838 85.5168C171.874 85.5082 171.91 85.5072 171.946 85.5139C171.982 85.5205 172.016 85.5346 172.047 85.5555C172.078 85.5763 172.104 85.6034 172.126 85.6353C172.147 85.6671 172.162 85.7031 172.17 85.7411C172.202 85.8955 172.975 89.514 173.159 90.7811C173.576 93.6829 172.785 97.3942 171.872 99.5739L171.533 100.383C170.154 103.317 169.695 104.85 170.35 109.396L170.459 110.194C171.244 116.665 167.845 127.377 167.702 127.83C167.684 127.886 167.65 127.935 167.605 127.971C167.56 128.006 167.506 128.026 167.451 128.028Z" fill="#EF6744"/>
<path d="M189.392 64.2063C189.096 60.8254 187.822 57.6006 185.721 54.9166C183.621 52.2325 180.782 50.2025 177.544 49.0684C174.307 47.9344 170.806 47.7442 167.46 48.5206C164.114 49.297 161.064 51.0072 158.674 53.4473C156.284 55.8874 154.653 58.9544 153.978 62.2826C153.303 65.6108 153.611 69.0597 154.865 72.2183C156.12 75.3768 158.268 78.1116 161.053 80.0966C163.839 82.0815 167.144 83.2329 170.575 83.4134L169.679 87.2161L175.114 86.7472L173.228 83.3559C177.933 82.9131 182.272 80.652 185.3 77.0652C188.327 73.4784 189.798 68.8565 189.392 64.2063Z" fill="#FFD8C8"/>
<path d="M101.152 291.958L101.213 291.892C101.607 291.134 101.874 290.317 102.002 289.473C102.131 288.68 102.108 287.87 101.935 287.086C101.908 286.833 101.83 286.589 101.707 286.367C101.584 286.146 101.418 285.951 101.218 285.794L96.9857 283.654C96.6056 283.45 96.2617 283.507 95.7848 283.814C95.7135 283.87 95.6314 283.91 95.5437 283.933C95.456 283.955 95.3645 283.96 95.2751 283.945C94.5573 283.844 93.6169 281.967 93.6169 281.967L87.1119 278.702C84.3423 277.306 81.5751 277.575 80.0127 277.775C79.8843 277.792 79.7635 277.845 79.665 277.929C79.5664 278.013 79.4944 278.124 79.4575 278.248C79.4207 278.372 79.4207 278.504 79.4575 278.628C79.4944 278.752 79.5665 278.863 79.665 278.947C80.5585 279.696 81.4915 280.397 82.46 281.046C84.0266 282.17 85.507 283.409 86.8891 284.754L86.9093 284.732C88.0559 284.488 89.2393 284.474 90.3913 284.691C91.7543 284.971 94.2484 287.548 96.1063 289.856C97.9641 292.163 101.152 291.958 101.152 291.958Z" fill="#151E27"/>
<path d="M106.366 293.276C104.611 293.024 102.892 292.57 101.242 291.92L101.198 291.88L101.138 291.946C101.138 291.946 98.0098 292.174 96.1391 289.863C94.2684 287.551 91.796 284.987 90.4241 284.698C89.2722 284.481 88.0887 284.495 86.9421 284.739C89.8255 287.333 97.725 294.441 98.6874 295.237C99.8116 296.165 101.27 297.611 102.186 298.405C102.8 297.834 106.139 293.585 106.366 293.276Z" fill="#EF6744"/>
<path d="M107.787 339.621L107.791 339.527C107.787 338.675 107.641 337.829 107.361 337.025C107.107 336.259 106.707 335.551 106.184 334.937C106.042 334.727 105.86 334.547 105.647 334.409C105.434 334.27 105.196 334.176 104.946 334.132L100.246 334.22C100.028 334.224 99.8173 334.295 99.6403 334.421C99.4632 334.548 99.3286 334.725 99.2538 334.929C99.2162 335.011 99.1621 335.085 99.095 335.146C99.0279 335.207 98.9491 335.254 98.8634 335.283C98.1597 335.52 96.4743 334.302 96.4743 334.302L89.1921 334.448C86.1078 334.506 83.7694 336.036 82.4856 336.938C82.3775 337.011 82.2934 337.114 82.2436 337.235C82.1939 337.355 82.1808 337.488 82.206 337.616C82.2312 337.743 82.2936 337.861 82.3853 337.954C82.4771 338.046 82.5941 338.11 82.7218 338.136C83.8616 338.383 85.014 338.569 86.1739 338.692C88.0835 338.954 89.9707 339.359 91.8199 339.903L91.8441 339.877C92.7469 339.114 93.7919 338.538 94.9187 338.181C96.2666 337.799 99.6531 338.903 102.384 340.084C105.115 341.266 107.787 339.621 107.787 339.621Z" fill="#151E27"/>
<path d="M113.017 338.357C111.35 338.956 109.62 339.359 107.861 339.558L107.821 339.521L107.817 339.614C107.817 339.614 105.137 341.268 102.402 340.091C99.6669 338.914 96.2672 337.798 94.9193 338.18C93.7966 338.533 92.7545 339.103 91.8524 339.859C95.6126 340.811 105.916 343.419 107.142 343.671C108.561 343.97 110.525 344.576 111.723 344.859C111.98 344.042 112.957 338.74 113.017 338.357Z" fill="#EF6744"/>
<path d="M199.276 266.717C199.276 266.717 200.851 269.518 200.754 271.836C200.64 273.283 200.105 274.665 199.215 275.811C199.088 275.972 198.924 276.1 198.735 276.182C198.547 276.263 198.341 276.297 198.137 276.278L197.484 276.221C197.392 276.976 197.356 277.737 197.377 278.497C197.122 278.665 196.832 278.772 196.53 278.813C196.228 278.853 195.92 278.825 195.63 278.731C194.938 278.549 194.102 277.432 194.102 277.432L194.664 270.103C194.721 269.501 194.956 268.93 195.338 268.462C195.721 267.994 196.234 267.65 196.812 267.475L199.276 266.717Z" fill="#EF6744"/>
<path fill-rule="evenodd" clip-rule="evenodd" d="M197.455 271.298C197.204 271.273 197.029 270.972 197.064 270.626C197.099 270.28 197.331 270.02 197.581 270.045C197.832 270.07 198.007 270.37 197.972 270.717C197.937 271.063 197.705 271.323 197.455 271.298Z" fill="#191919"/>
<path d="M199.289 270.652L199.635 272.251L198.856 272.296" stroke="black" stroke-width="0.5" stroke-linecap="round" stroke-linejoin="round"/>
<path d="M200.751 271.357C200.751 271.357 199.66 266.302 196.911 267.6C194.24 268.848 196.179 274.691 194.818 276.673C192.084 280.644 184.344 279.436 180.295 281.363C165.246 288.519 154.415 272.24 160.806 258.535C164.049 251.587 170.885 248.066 178.194 249.549C184.169 250.763 185.309 254.583 186.4 257.54C187.616 260.854 188.537 262.268 192.71 261.476C196.069 260.82 198.611 261.519 200.568 264.494C201.245 265.504 201.621 266.684 201.653 267.899C201.685 269.114 201.373 270.313 200.751 271.357Z" fill="#151E27"/>
<path d="M191.411 306.127C191.411 306.127 187.024 305.442 181.346 302.167C178.263 300.302 175.452 298.019 172.996 295.382C172.996 295.382 166.58 293.941 156.045 297.175C149.675 299.132 143.216 301.679 139.107 303.389C137.725 304.013 136.226 304.337 134.709 304.339C133.193 304.342 131.693 304.023 130.308 303.404L106.763 292.253L100.439 299.934L126.717 320.04C130.842 323.199 136.045 324.608 141.201 323.963C144.162 323.597 147.635 323.135 151.111 322.642C149.121 325.222 147.35 327.614 146.024 329.499C145.178 330.757 144.076 331.823 142.79 332.625C141.503 333.427 140.061 333.948 138.559 334.153L112.685 337.111L111.372 346.976L144.3 350.178C149.494 350.698 159.398 347.525 179.049 328.187C192.443 315.011 191.411 306.127 191.411 306.127Z" fill="url(#paint1_linear)"/>
<path d="M110.989 347.28L112.392 336.761L138.556 333.762C140.007 333.561 141.399 333.056 142.641 332.281C143.884 331.505 144.948 330.476 145.765 329.261C146.81 327.79 148.419 325.582 150.32 323.099C147.306 323.521 144.131 323.942 141.283 324.298C136.024 324.973 130.712 323.537 126.509 320.303L99.9344 299.965L106.667 291.76L130.462 303.036C131.802 303.63 133.251 303.935 134.716 303.932C136.182 303.928 137.63 303.616 138.966 303.016C143.216 301.25 149.609 298.73 155.937 296.792C166.443 293.564 172.805 294.931 173.069 294.987L173.184 295.012L173.267 295.088C175.708 297.715 178.501 299.99 181.566 301.851C187.11 305.051 191.455 305.763 191.498 305.77L191.774 305.813L191.807 306.086C191.848 306.456 192.68 315.31 179.34 328.463C163.696 343.866 151.911 351.299 144.308 350.558L110.989 347.28ZM113.036 337.418L111.81 346.625L144.357 349.8C151.739 350.516 163.329 343.155 178.815 327.915C190.651 316.265 191.117 307.973 191.086 306.412C187.6 305.625 184.262 304.29 181.195 302.457C178.11 300.593 175.297 298.315 172.832 295.685C171.951 295.524 165.758 294.564 156.182 297.496C149.883 299.428 143.511 301.934 139.278 303.7C137.852 304.341 136.306 304.673 134.742 304.676C133.179 304.678 131.632 304.35 130.204 303.714L106.887 292.684L100.99 299.857L126.963 319.74C131.006 322.852 136.116 324.238 141.178 323.593C144.291 323.213 147.818 322.735 151.079 322.273L151.965 322.147L151.421 322.854C149.294 325.608 147.482 328.1 146.341 329.702C145.473 330.999 144.341 332.099 143.019 332.929C141.697 333.76 140.214 334.302 138.669 334.521L113.036 337.418Z" fill="white"/>
<path d="M218.921 282.706C218.906 283.027 218.876 283.45 218.816 283.951C218.674 285.143 218.363 286.77 217.694 288.514C216.359 291.991 213.601 295.924 207.865 297.806C203.736 299.119 200.051 299.324 196.874 298.093L196.5 297.948L196.277 298.282L191.394 305.602C188 304.706 184.724 303.411 181.636 301.742C178.673 300.068 176.001 297.928 173.722 295.404L175.966 293.024L176.873 292.063L175.557 292.183C168.38 292.84 160.746 287.94 157.743 280.887C155.686 276.046 154.876 271.043 154.582 267.241C154.436 265.341 154.418 263.747 154.437 262.629C154.447 262.07 154.465 261.63 154.481 261.332C154.481 261.33 154.482 261.328 154.482 261.326L159.554 261.207C159.563 261.242 159.572 261.28 159.582 261.319C159.665 261.643 159.788 262.109 159.952 262.68C160.278 263.823 160.765 265.392 161.406 267.095C162.679 270.474 164.599 274.484 167.152 276.684C172.196 281.029 177.061 280.2 178.975 278.568C179.231 278.349 179.502 278.112 179.788 277.863C180.463 277.273 181.216 276.615 182.03 275.976C183.185 275.069 184.42 274.236 185.639 273.746C187.786 272.899 189.67 273.686 191.117 274.824C192.568 275.966 193.497 277.403 193.653 277.65L193.725 277.763L193.843 277.825C194.584 278.215 195.36 278.534 196.161 278.777L196.191 278.786L196.221 278.791C199.474 279.35 201.162 280.95 202.464 282.638C202.79 283.061 203.09 283.488 203.389 283.912L203.4 283.928C203.7 284.354 204.001 284.78 204.313 285.177C204.936 285.972 205.638 286.694 206.571 287.146L206.571 287.146C208.17 287.919 209.485 288.144 210.567 287.996C211.656 287.847 212.455 287.327 213.026 286.71C213.592 286.099 213.934 285.395 214.135 284.856C214.232 284.594 214.298 284.367 214.34 284.199L218.921 282.706Z" fill="white" stroke="#2C4E8B"/>
<path d="M198.405 274.337C198.55 274.44 198.767 274.384 198.889 274.211C199.011 274.039 198.992 273.817 198.847 273.714C198.702 273.611 198.485 273.667 198.363 273.839C198.241 274.011 198.26 274.234 198.405 274.337Z" stroke="black" stroke-width="0.5" stroke-linecap="round" stroke-linejoin="round"/>
<path d="M219.329 282.541C218.836 282.745 218.308 282.848 217.775 282.844C217.411 283.376 216.609 284.022 216.12 283.81C215.119 283.455 214.683 284.744 214.025 283.91C214.536 282.231 214.949 277.422 215.915 275.957C216.214 275.423 216.632 274.964 217.135 274.614C217.639 274.265 218.215 274.035 218.82 273.941C219.699 273.831 220.592 273.938 221.42 274.251C221.666 274.288 221.891 274.41 222.054 274.598C222.217 274.785 222.309 275.024 222.311 275.273C222.28 275.795 220.64 276.458 220.141 277.258C219.851 277.717 219.601 278.2 219.395 278.702C219.395 278.702 220.683 278.067 220.852 278.663C221.021 279.258 220.177 279.842 219.827 280.748C219.603 281.328 219.437 281.929 219.329 282.541Z" fill="#EF6744"/>
<path d="M158.01 299.688C157.967 299.658 157.932 299.619 157.906 299.575C157.88 299.53 157.863 299.48 157.858 299.429C157.852 299.378 157.858 299.325 157.874 299.276C157.89 299.227 157.917 299.182 157.952 299.144C157.987 299.106 158.029 299.076 158.077 299.056C158.125 299.035 158.176 299.025 158.228 299.027C158.279 299.028 158.33 299.04 158.377 299.062C158.423 299.085 158.465 299.117 158.498 299.156C158.524 299.18 161.292 301.724 164.299 301.953C167.307 302.181 170.402 300.657 170.435 300.639C170.52 300.602 170.617 300.598 170.704 300.63C170.792 300.661 170.865 300.725 170.907 300.808C170.949 300.892 170.957 300.988 170.93 301.077C170.903 301.167 170.843 301.242 170.762 301.288C170.625 301.357 167.461 302.939 164.237 302.673C161.012 302.408 158.128 299.797 158.01 299.688Z" fill="white"/>
<path d="M159.934 260.697C159.538 261.055 159.075 261.33 158.571 261.505C158.067 261.681 157.533 261.754 157 261.72C155.937 261.734 154.891 261.447 153.984 260.892C153.914 259.139 154.082 257.385 154.483 255.677C155.141 252.846 156.403 251.42 156.768 251.173C157.84 250.465 158.088 251.13 158.088 251.13C158.088 251.13 158.948 250.802 159.432 251.263C159.788 251.59 159.448 252.251 159.448 252.251C159.608 252.227 159.77 252.253 159.914 252.325C160.058 252.398 160.176 252.514 160.251 252.656C160.44 253.147 159.102 254.55 158.904 255.47C158.785 256.004 158.712 256.547 158.685 257.092C158.685 257.092 159.693 256.058 160.048 256.562C160.402 257.067 159.808 257.898 159.786 258.875C159.775 259.485 159.824 260.096 159.934 260.697Z" fill="#EF6744"/>
<path d="M92.7859 302.542L89.6734 301.877L88.9783 298.795C88.9481 298.674 88.8574 298.613 88.7366 298.613C88.6157 298.613 88.525 298.704 88.4948 298.795L87.7997 301.907L84.6872 302.632C84.5663 302.663 84.5059 302.753 84.5059 302.874C84.5059 302.995 84.5965 303.086 84.6872 303.116L87.7997 303.781L88.4948 306.863C88.525 306.984 88.6157 307.044 88.7366 307.044C88.8574 307.044 88.9481 306.954 88.9783 306.863L89.6734 303.751L92.7859 303.025C92.9068 302.995 92.9672 302.904 92.9672 302.784C92.9672 302.663 92.8766 302.572 92.7859 302.542Z" fill="#007FAF"/>
<path d="M282.563 286.225L279.451 285.561L278.756 282.478C278.725 282.357 278.635 282.297 278.514 282.297C278.393 282.297 278.302 282.388 278.272 282.478L277.577 285.591L274.465 286.316C274.344 286.346 274.283 286.437 274.283 286.558C274.283 286.679 274.374 286.769 274.465 286.8L277.577 287.464L278.272 290.547C278.302 290.668 278.393 290.728 278.514 290.728C278.635 290.728 278.725 290.637 278.756 290.547L279.451 287.434L282.563 286.709C282.684 286.679 282.745 286.588 282.745 286.467C282.745 286.346 282.654 286.256 282.563 286.225Z" fill="#007FAF"/>
<path d="M169.725 246.818L167.7 246.364L167.247 244.34C167.217 244.279 167.156 244.219 167.096 244.219C167.035 244.219 166.945 244.279 166.945 244.34L166.491 246.364L164.467 246.848C164.406 246.878 164.346 246.939 164.346 246.999C164.346 247.059 164.406 247.15 164.467 247.15L166.491 247.603L166.945 249.628C166.975 249.688 167.035 249.749 167.096 249.749C167.156 249.749 167.247 249.688 167.247 249.628L167.7 247.603L169.725 247.12C169.785 247.09 169.846 247.029 169.846 246.969C169.846 246.878 169.785 246.818 169.725 246.818Z" fill="#007FAF"/>
<path d="M301.481 307.861L299.456 307.407L299.003 305.383C298.972 305.322 298.912 305.262 298.852 305.262C298.791 305.262 298.7 305.322 298.7 305.383L298.247 307.407L296.222 307.891C296.162 307.921 296.102 307.981 296.102 308.042C296.102 308.102 296.162 308.193 296.222 308.193L298.247 308.646L298.7 310.671C298.731 310.731 298.791 310.792 298.852 310.792C298.912 310.792 299.003 310.731 299.003 310.671L299.456 308.646L301.481 308.163C301.541 308.133 301.601 308.072 301.601 308.012C301.601 307.921 301.541 307.861 301.481 307.861Z" fill="#007FAF"/>
<path d="M144.427 271.684C144.427 271.684 141.285 263.041 132.884 265.398C132.884 265.398 131.826 252.827 118.197 252.041C104.568 251.255 100.368 262.013 100.368 262.013C100.368 262.013 88.8241 255.728 80.9671 265.428C80.9671 265.428 72.0524 265.428 70.209 271.714H144.427V271.684Z" fill="white"/>
<path d="M145.696 272.591H69L69.3324 271.443C71.1154 265.339 78.6097 264.613 80.5136 264.523C87.464 256.333 97.0132 259.567 99.9143 260.806C100.458 259.748 101.607 257.905 103.541 256.061C106.17 253.583 110.884 250.712 118.227 251.136C130.103 251.831 132.974 261.138 133.609 264.311C141.979 262.679 145.213 271.322 145.243 271.413L145.696 272.591ZM71.5686 270.778H143.007C141.859 268.663 138.837 264.674 133.155 266.275L132.098 266.578L132.007 265.49C131.977 265.006 130.829 253.674 118.167 252.949C105.323 252.193 101.274 262.226 101.244 262.347L100.881 263.314L99.9747 262.83C99.5214 262.589 89.0052 257.028 81.7223 266.003L81.4503 266.336H81.0273C80.9064 266.306 73.8955 266.366 71.5686 270.778Z" fill="white"/>
<path d="M294.556 260.048C294.556 260.048 292.138 253.399 285.702 255.212C285.702 255.212 284.886 245.542 274.4 244.938C263.914 244.334 260.68 252.583 260.68 252.583C260.68 252.583 251.826 247.748 245.752 255.212C245.752 255.212 238.892 255.212 237.502 260.048H294.556Z" fill="white"/>
<path d="M295.856 260.955H236.324L236.657 259.807C238.047 255.063 243.728 254.428 245.36 254.337C250.648 248.173 257.84 250.409 260.288 251.406C261.497 249.2 265.516 243.519 274.461 244.033C283.496 244.546 285.854 251.467 286.428 254.126C291.565 253.25 294.526 257.329 295.403 259.747L295.856 260.955ZM238.893 259.142H293.076C292.109 257.51 289.873 254.972 285.914 256.09L284.856 256.392L284.766 255.304C284.735 254.942 283.859 246.42 274.34 245.846C264.64 245.272 261.557 252.857 261.527 252.917L261.164 253.884L260.258 253.401C259.925 253.219 251.978 249.019 246.478 255.788L246.206 256.12H245.783C245.722 256.12 240.797 256.151 238.893 259.142Z" fill="white"/>
</g>
<defs>
<linearGradient id="paint0_linear" x1="229.632" y1="326.06" x2="87.5208" y2="96.5615" gradientUnits="userSpaceOnUse">
<stop stop-color="#E9E9E9"/>
<stop offset="0.995658" stop-color="white"/>
</linearGradient>
<linearGradient id="paint1_linear" x1="-11361.4" y1="21884.8" x2="256.466" y2="24907" gradientUnits="userSpaceOnUse">
<stop offset="0.28" stop-color="#151E27"/>
<stop offset="0.39" stop-color="#192A41"/>
<stop offset="0.58" stop-color="#1F3C6B"/>
<stop offset="0.75" stop-color="#234A8A"/>
<stop offset="0.9" stop-color="#26529C"/>
<stop offset="1" stop-color="#2755A3"/>
</linearGradient>
</defs>
</svg>
