<svg width="304" height="304" viewBox="0 0 304 304" fill="none" xmlns="http://www.w3.org/2000/svg">
<mask id="mask0" mask-type="alpha" maskUnits="userSpaceOnUse" x="0" y="0" width="304" height="304">
<rect width="304" height="304" fill="white"/>
</mask>
<g mask="url(#mask0)">
<ellipse cx="151.5" cy="265" rx="97.5" ry="4" fill="black"/>
<path d="M66.896 88.48H65.896V89.48H66.896V88.48ZM66.896 72.928L66.0771 72.354L65.896 72.6124V72.928H66.896ZM96.368 30.88V29.88H95.8477L95.5491 30.306L96.368 30.88ZM117.008 30.88H118.008V29.88H117.008V30.88ZM117.008 72.16H116.008V73.16H117.008V72.16ZM124.4 72.16H125.4V71.16H124.4V72.16ZM124.4 88.48V89.48H125.4V88.48H124.4ZM117.008 88.48V87.48H116.008V88.48H117.008ZM117.008 100V101H118.008V100H117.008ZM98 100H97V101H98V100ZM98 88.48H99V87.48H98V88.48ZM99.44 52.096H100.44V48.7667L98.6055 51.545L99.44 52.096ZM86.192 72.16L85.3575 71.609L84.3334 73.16H86.192V72.16ZM99.44 72.16V73.16H100.44V72.16H99.44ZM67.896 88.48V72.928H65.896V88.48H67.896ZM67.7149 73.502L97.1869 31.454L95.5491 30.306L66.0771 72.354L67.7149 73.502ZM96.368 31.88H117.008V29.88H96.368V31.88ZM116.008 30.88V72.16H118.008V30.88H116.008ZM117.008 73.16H124.4V71.16H117.008V73.16ZM123.4 72.16V88.48H125.4V72.16H123.4ZM124.4 87.48H117.008V89.48H124.4V87.48ZM116.008 88.48V100H118.008V88.48H116.008ZM117.008 99H98V101H117.008V99ZM99 100V88.48H97V100H99ZM98 87.48H66.896V89.48H98V87.48ZM98.6055 51.545L85.3575 71.609L87.0265 72.711L100.275 52.647L98.6055 51.545ZM86.192 73.16H99.44V71.16H86.192V73.16ZM100.44 72.16V52.096H98.44V72.16H100.44ZM139.339 37.888L140.156 38.4653V38.4653L139.339 37.888ZM181.579 37.888L180.762 38.4653L180.766 38.4708L181.579 37.888ZM181.675 90.112L180.858 89.5347L181.675 90.112ZM139.243 90.112L138.423 90.6838L138.426 90.6893L139.243 90.112ZM167.947 50.752L167.017 51.1201L167.02 51.1268L167.947 50.752ZM152.971 50.752L153.898 51.1268L153.901 51.12L152.971 50.752ZM152.875 77.344L151.939 77.6951L151.943 77.707L151.948 77.7188L152.875 77.344ZM167.947 77.344L167.017 76.9759L167.013 76.9864L167.947 77.344ZM133.619 63.904C133.619 53.0193 135.835 44.5752 140.156 38.4653L138.522 37.3107C133.883 43.8728 131.619 52.7727 131.619 63.904H133.619ZM140.156 38.4653C144.403 32.458 151.097 29.384 160.459 29.384V27.384C150.621 27.384 143.235 30.646 138.522 37.3107L140.156 38.4653ZM160.459 29.384C169.821 29.384 176.515 32.458 180.762 38.4653L182.396 37.3107C177.683 30.646 170.297 27.384 160.459 27.384V29.384ZM180.766 38.4708C185.148 44.5798 187.395 53.0217 187.395 63.904H189.395C189.395 52.7702 187.098 43.8682 182.392 37.3052L180.766 38.4708ZM187.395 63.904C187.395 74.9196 185.177 83.4265 180.858 89.5347L182.492 90.6893C187.133 84.1255 189.395 75.1604 189.395 63.904H187.395ZM180.858 89.5347C176.612 95.5401 169.888 98.616 160.459 98.616V100.616C170.358 100.616 177.778 97.3559 182.492 90.6893L180.858 89.5347ZM160.459 98.616C151.03 98.616 144.306 95.5401 140.06 89.5347L138.426 90.6893C143.14 97.3559 150.56 100.616 160.459 100.616V98.616ZM140.063 89.5402C135.806 83.4311 133.619 74.922 133.619 63.904H131.619C131.619 75.158 133.848 84.1209 138.423 90.6838L140.063 89.5402ZM170.771 63.904C170.771 58.0995 170.162 53.5631 168.874 50.3772L167.02 51.1268C168.164 53.9569 168.771 58.1885 168.771 63.904H170.771ZM168.877 50.384C168.2 48.674 167.142 47.3397 165.687 46.4443C164.242 45.5551 162.48 45.144 160.459 45.144V47.144C162.214 47.144 163.588 47.5009 164.639 48.1477C165.68 48.7883 166.478 49.758 167.017 51.12L168.877 50.384ZM160.459 45.144C158.438 45.144 156.676 45.5551 155.231 46.4443C153.776 47.3397 152.718 48.674 152.041 50.384L153.901 51.12C154.44 49.758 155.238 48.7883 156.279 48.1477C157.33 47.5009 158.704 47.144 160.459 47.144V45.144ZM152.044 50.3772C150.756 53.5631 150.147 58.0995 150.147 63.904H152.147C152.147 58.1885 152.754 53.9569 153.898 51.1268L152.044 50.3772ZM150.147 63.904C150.147 69.8322 150.724 74.4548 151.939 77.6951L153.811 76.9929C152.722 74.0892 152.147 69.7518 152.147 63.904H150.147ZM151.948 77.7188C152.629 79.4034 153.7 80.7121 155.172 81.5874C156.631 82.4555 158.413 82.856 160.459 82.856V80.856C158.665 80.856 157.263 80.5045 156.194 79.8686C155.138 79.2399 154.337 78.2926 153.802 76.9692L151.948 77.7188ZM160.459 82.856C162.505 82.856 164.281 82.4557 165.727 81.5845C167.186 80.7052 168.234 79.3906 168.881 77.7016L167.013 76.9864C166.508 78.3054 165.732 79.2468 164.695 79.8715C163.645 80.5043 162.253 80.856 160.459 80.856V82.856ZM168.877 77.712C170.162 74.4648 170.771 69.8351 170.771 63.904H168.771C168.771 69.7489 168.164 74.0792 167.017 76.976L168.877 77.712ZM194.197 47.488H193.197V48.488H194.197V47.488ZM194.197 29.824V28.824H193.197V29.824H194.197ZM223.765 29.824H224.765V28.824H223.765V29.824ZM223.765 100V101H224.765V100H223.765ZM204.085 100H203.085V101H204.085V100ZM204.085 47.488H205.085V46.488H204.085V47.488ZM195.197 47.488V29.824H193.197V47.488H195.197ZM194.197 30.824H223.765V28.824H194.197V30.824ZM222.765 29.824V100H224.765V29.824H222.765ZM223.765 99H204.085V101H223.765V99ZM205.085 100V47.488H203.085V100H205.085ZM204.085 46.488H194.197V48.488H204.085V46.488Z" fill="black"/>
<path d="M58.896 81.48V65.928L88.368 23.88H109.008V65.16H116.4V81.48H109.008V93H90V81.48H58.896ZM91.44 45.096L78.192 65.16H91.44V45.096ZM124.619 56.904C124.619 45.896 126.859 37.224 131.339 30.888C135.819 24.552 142.859 21.384 152.459 21.384C162.059 21.384 169.099 24.552 173.579 30.888C178.123 37.224 180.395 45.896 180.395 56.904C180.395 68.04 178.155 76.776 173.675 83.112C169.195 89.448 162.123 92.616 152.459 92.616C142.795 92.616 135.723 89.448 131.243 83.112C126.827 76.776 124.619 68.04 124.619 56.904ZM161.771 56.904C161.771 51.144 161.163 46.76 159.947 43.752C158.731 40.68 156.235 39.144 152.459 39.144C148.683 39.144 146.187 40.68 144.971 43.752C143.755 46.76 143.147 51.144 143.147 56.904C143.147 62.792 143.723 67.272 144.875 70.344C146.091 73.352 148.619 74.856 152.459 74.856C156.299 74.856 158.795 73.352 159.947 70.344C161.163 67.272 161.771 62.792 161.771 56.904ZM186.197 40.488V22.824H215.765V93H196.085V40.488H186.197Z" fill="#EA5B21"/>
<path d="M139 75L165.5 36.5" stroke="#EA5B21" stroke-width="10"/>
<mask id="mask1" mask-type="alpha" maskUnits="userSpaceOnUse" x="40" y="101" width="209" height="209">
<rect x="40" y="101" width="209" height="209" fill="white"/>
</mask>
<g mask="url(#mask1)">
<path fill-rule="evenodd" clip-rule="evenodd" d="M203.697 151.349C202.579 150.382 201.484 149.389 200.414 148.371C192.188 140.547 156.162 108.833 141.217 138.306C124.292 171.681 112.905 173.202 99.1665 174.964C85.4276 176.727 65.1268 194.138 92.7236 225.302C120.32 256.467 156.926 258.427 172.544 254.518C196.209 248.597 237.485 230.812 232.603 200.326C228.455 174.445 209.368 156.252 203.697 151.349Z" fill="url(#paint0_linear)"/>
<path fill-rule="evenodd" clip-rule="evenodd" d="M136.098 189.032C136.645 186.032 139.441 183.867 142.563 184.006C145.789 184.158 148.26 186.614 148.52 189.589C148.598 189.589 148.663 189.589 148.741 189.601C150.198 189.753 151.239 191.083 150.952 192.526C150.744 193.589 149.808 194.399 148.702 194.5C148.234 194.538 147.792 194.462 147.415 194.285L148.338 199.653C148.572 202.07 145.346 204.121 142.849 203.994C140.378 203.868 139.805 201.64 140.274 199.273L140.937 196.07C137.698 195.399 135.5 192.336 136.098 189.032Z" fill="#EA5B21"/>
<path d="M142.063 186.035C140.484 185.703 137.363 186.632 136 187.138C136 182.724 137.974 180.242 145.024 181.207C150.663 181.98 150.381 187.414 149.535 190.035L148.125 189.345L146.293 191L145.024 186.586C144.695 186.54 143.642 186.366 142.063 186.035Z" fill="black" stroke="black"/>
<path fill-rule="evenodd" clip-rule="evenodd" d="M189.807 211.512C189.807 211.512 191.425 208.147 191.581 205.493C191.736 202.839 191.138 199.144 192.07 199.343C193.003 199.543 193.841 203.641 193.841 203.641C193.841 203.641 197.115 195.11 198.126 196.259C199.136 197.408 196.474 202.702 196.474 202.702C196.474 202.702 199.62 196.596 200.424 197.157C201.388 197.844 198.581 203.795 198.581 203.795C198.581 203.795 201.583 197.671 202.636 198.834C203.329 199.597 199.88 205.134 199.88 205.134C199.88 205.134 203.334 201.143 203.515 202.386C203.696 203.629 198.402 210.288 196.63 212.18C194.858 214.072 192.852 218.633 192.852 218.633L189.807 211.512Z" fill="#EA5B21"/>
<path d="M193.859 203.635C193.859 203.635 194.085 205.049 194.703 205.848C195.322 206.647 195.532 208.647 194.525 209.313" stroke="black" stroke-linecap="round" stroke-linejoin="round"/>
<path d="M177.481 228.425L186.688 206.085C186.822 205.789 187.181 205.722 187.378 205.983L195.262 216.202C195.98 217.121 196.192 218.388 195.821 219.524C193.715 226.058 188.41 250.028 179.232 252.607C162.289 256.139 148.284 216.865 152.912 206.779C156.614 198.71 164.583 203.274 168.105 206.564C173.973 212.011 177.481 228.425 177.481 228.425Z" fill="#2C4E8B"/>
<path fill-rule="evenodd" clip-rule="evenodd" d="M104.504 212.036C104.504 212.036 103.09 208.661 102.938 206.007C102.785 203.353 103.274 199.663 102.474 199.856C101.674 200.049 100.982 204.139 100.982 204.139C100.982 204.139 98.1078 195.589 97.2472 196.73C96.3866 197.872 98.7116 203.183 98.7116 203.183C98.7116 203.183 95.9649 197.057 95.2773 197.612C94.454 198.292 96.9086 204.26 96.9086 204.26C96.9086 204.26 94.2846 198.118 93.3878 199.274C92.7973 200.031 95.8011 205.59 95.8011 205.59C95.8011 205.59 92.8043 201.576 92.6574 202.818C92.5104 204.059 97.1074 210.752 98.6439 212.656C100.18 214.56 101.936 219.134 101.936 219.134L104.504 212.036Z" fill="#EA5B21"/>
<path d="M100.966 204.137C100.966 204.137 100.781 205.548 100.256 206.343C99.7297 207.137 99.5624 209.135 100.433 209.808" stroke="black" stroke-linecap="round" stroke-linejoin="round"/>
<path d="M115.663 229.487L106.389 207.713C106.256 207.425 105.944 207.378 105.791 207.649L99.6617 218.296C99.1029 219.254 98.9998 220.53 99.388 221.643C101.596 228.046 107.625 251.668 115.653 253.722C130.399 256.285 139.983 216.293 135.393 206.489C131.721 198.646 125.169 203.653 122.352 207.137C117.657 212.905 115.663 229.487 115.663 229.487Z" fill="#2C4E8B"/>
<path d="M138.511 189C138.371 189.748 138.258 190.499 138.137 191.242C138.113 191.39 137.909 191.677 138.049 191.833C138.275 192.085 138.834 191.63 139 192" stroke="black" stroke-linecap="round" stroke-linejoin="round"/>
<path d="M140 189C140.169 189 140.475 189 140.71 189C140.784 189 141.044 189 140.994 189" stroke="black" stroke-linecap="round" stroke-linejoin="round"/>
<path d="M150 199.001C145.2 204.601 140 201.335 138 199.001C114.4 199.001 112.166 242.001 114 263.501H194.5C178 206.001 156 192.001 150 199.001Z" fill="#2C4E8B"/>
<path d="M222.451 182.501C222.451 186.194 219.452 189.194 215.764 189.194C212.075 189.194 209.076 186.194 209.076 182.501C209.076 178.81 212.073 175.81 215.76 175.809C219.482 175.833 222.451 178.813 222.451 182.501Z" stroke="black" stroke-width="2"/>
<path d="M211.5 187.5L221 178" stroke="black" stroke-width="2"/>
<path d="M71.5003 158.691C71.5003 160.796 69.7906 162.506 67.6877 162.506C65.5847 162.506 63.875 160.796 63.875 158.691C63.875 156.586 65.5839 154.876 67.6861 154.875C69.8073 154.889 71.5003 156.588 71.5003 158.691Z" stroke="black"/>
<path d="M65.2949 161.494L70.6245 156.164" stroke="black"/>
<path d="M168.127 116.816C168.127 118.093 167.09 119.131 165.814 119.131C164.538 119.131 163.5 118.093 163.5 116.816C163.5 115.539 164.537 114.501 165.812 114.5C167.101 114.509 168.127 115.54 168.127 116.816Z" stroke="black"/>
<path d="M164.252 118.645L167.729 115.168" stroke="black"/>
<path d="M105.311 185.5C105.311 186.603 104.415 187.5 103.313 187.5C102.211 187.5 101.314 186.603 101.314 185.5C101.314 184.397 102.21 183.501 103.311 183.5C104.425 183.508 105.311 184.399 105.311 185.5Z" stroke="black"/>
<path d="M101.928 187.123L105.015 184.035" stroke="black"/>
<path d="M224.127 142.816C224.127 144.093 223.09 145.131 221.814 145.131C220.538 145.131 219.5 144.093 219.5 142.816C219.5 141.539 220.537 140.501 221.812 140.5C223.101 140.509 224.127 141.54 224.127 142.816Z" stroke="black"/>
<path d="M220.252 144.645L223.729 141.168" stroke="black"/>
<path d="M71.1247 219.816C71.1247 222.197 69.1909 224.131 66.8123 224.131C64.4337 224.131 62.5 222.197 62.5 219.816C62.5 217.435 64.4329 215.501 66.8108 215.5C69.2094 215.516 71.1247 217.437 71.1247 219.816Z" stroke="black"/>
<path d="M64.1426 222.943L70.0896 216.996" stroke="black"/>
</g>
</g>
<defs>
<linearGradient id="paint0_linear" x1="165.5" y1="215" x2="104.5" y2="110.5" gradientUnits="userSpaceOnUse">
<stop stop-color="#E9E9E9"/>
<stop offset="1" stop-color="white"/>
</linearGradient>
</defs>
</svg>
