<svg width="300" height="301" viewBox="0 0 300 301" fill="none" xmlns="http://www.w3.org/2000/svg">
<mask id="mask0" mask-type="alpha" maskUnits="userSpaceOnUse" x="0" y="0" width="300" height="301">
<rect y="0.226562" width="300" height="300" fill="white"/>
</mask>
<g mask="url(#mask0)">
<path d="M177.868 86.1946C179.577 94.5044 176.366 110.146 194.116 124.577C209.069 136.733 267.954 155.823 252.485 215.005C237.016 274.188 174.388 284.632 113.809 259.604C58.987 236.954 21.3707 195.615 19.9638 142.367C18.7376 95.7525 35.3865 57.2109 76.8002 39.7195C113.058 24.3508 167.335 36.8351 177.868 86.1946Z" fill="url(#paint0_linear)"/>
<path d="M102.816 177.659V178.659H103.816V177.659H102.816ZM74.016 177.659V176.659H73.016V177.659H74.016ZM74.016 188.315H73.016V190.819L74.741 189.003L74.016 188.315ZM79.008 185.243L78.6663 184.303V184.303L79.008 185.243ZM97.536 187.259L96.9694 188.083L96.9774 188.088L97.536 187.259ZM104.448 195.611L105.368 195.219L104.448 195.611ZM100.224 224.795L100.931 225.502L100.936 225.496L100.224 224.795ZM68.544 228.539L68.1088 229.439L68.1178 229.443L68.1268 229.447L68.544 228.539ZM59.712 220.859L58.8649 221.39L59.712 220.859ZM56.544 209.627V208.627H55.5287L55.5441 209.642L56.544 209.627ZM74.88 209.627L75.8716 209.497L75.758 208.627H74.88V209.627ZM76.8 213.467L76.0929 214.174V214.174L76.8 213.467ZM86.688 212.795L87.488 213.395L86.688 212.795ZM86.592 200.987L85.8505 201.657L85.8586 201.666L85.867 201.675L86.592 200.987ZM77.088 200.315L77.7186 201.091L77.7237 201.086L77.088 200.315ZM75.264 203.483V204.483H76.1252L76.2529 203.631L75.264 203.483ZM56.928 203.483H55.928V204.483H56.928V203.483ZM56.928 161.051V160.051H55.928V161.051H56.928ZM102.816 161.051H103.816V160.051H102.816V161.051ZM102.816 176.659H74.016V178.659H102.816V176.659ZM73.016 177.659V188.315H75.016V177.659H73.016ZM74.741 189.003C75.8254 187.862 77.3447 186.911 79.3497 186.182L78.6663 184.303C76.4473 185.11 74.6387 186.207 73.291 187.626L74.741 189.003ZM79.3497 186.182C81.3381 185.459 83.5565 185.091 86.016 185.091V183.091C83.3555 183.091 80.9019 183.49 78.6663 184.303L79.3497 186.182ZM86.016 185.091C90.4699 185.091 94.0999 186.11 96.9695 188.083L98.1025 186.435C94.8281 184.183 90.7781 183.091 86.016 183.091V185.091ZM96.9774 188.088C99.9543 190.093 102.132 192.725 103.528 196.002L105.368 195.219C103.82 191.584 101.39 188.648 98.0946 186.429L96.9774 188.088ZM103.528 196.002C104.943 199.324 105.656 202.965 105.656 206.939H107.656C107.656 202.72 106.897 198.809 105.368 195.219L103.528 196.002ZM105.656 206.939C105.656 214.294 103.574 219.97 99.5117 224.093L100.936 225.496C105.45 220.915 107.656 214.688 107.656 206.939H105.656ZM99.5169 224.087C95.4616 228.143 89.7904 230.227 82.368 230.227V232.227C90.1776 232.227 96.4104 230.022 100.931 225.502L99.5169 224.087ZM82.368 230.227C77.1668 230.227 72.7071 229.349 68.9612 227.63L68.1268 229.447C72.1889 231.312 76.9452 232.227 82.368 232.227V230.227ZM68.9792 227.638C65.2897 225.855 62.4967 223.415 60.5591 220.327L58.8649 221.39C61.0233 224.83 64.1183 227.51 68.1088 229.439L68.9792 227.638ZM60.5591 220.327C58.6175 217.233 57.6054 213.671 57.5439 209.611L55.5441 209.642C55.6106 214.03 56.7105 217.956 58.8649 221.39L60.5591 220.327ZM56.544 210.627H74.88V208.627H56.544V210.627ZM73.8884 209.756C74.11 211.455 74.8551 212.936 76.0929 214.174L77.5071 212.759C76.5689 211.821 76.034 210.742 75.8716 209.497L73.8884 209.756ZM76.0929 214.174C77.4295 215.51 79.3238 216.099 81.6 216.099V214.099C79.6522 214.099 78.3465 213.599 77.5071 212.759L76.0929 214.174ZM81.6 216.099C84.0953 216.099 86.1141 215.226 87.488 213.395L85.888 212.195C84.9579 213.435 83.5847 214.099 81.6 214.099V216.099ZM87.488 213.395C88.8071 211.636 89.416 209.355 89.416 206.651H87.416C87.416 209.066 86.8729 210.881 85.888 212.195L87.488 213.395ZM89.416 206.651C89.416 204.005 88.7713 201.829 87.317 200.298L85.867 201.675C86.8447 202.704 87.416 204.304 87.416 206.651H89.416ZM87.3335 200.316C85.8793 198.708 83.8168 197.971 81.312 197.971V199.971C83.4152 199.971 84.8727 200.577 85.8505 201.657L87.3335 200.316ZM81.312 197.971C79.4062 197.971 77.7571 198.468 76.4523 199.543L77.7237 201.086C78.5949 200.369 79.7618 199.971 81.312 199.971V197.971ZM76.4574 199.538C75.244 200.524 74.5048 201.802 74.2751 203.334L76.2529 203.631C76.4072 202.603 76.884 201.769 77.7186 201.091L76.4574 199.538ZM75.264 202.483H56.928V204.483H75.264V202.483ZM57.928 203.483V161.051H55.928V203.483H57.928ZM56.928 162.051H102.816V160.051H56.928V162.051ZM101.816 161.051V177.659H103.816V161.051H101.816ZM121.87 169.115L122.687 169.692V169.692L121.87 169.115ZM164.11 169.115L163.294 169.692L163.298 169.697L164.11 169.115ZM164.206 221.339L163.39 220.761L164.206 221.339ZM121.774 221.339L120.954 221.91L120.958 221.916L121.774 221.339ZM150.478 181.979L149.548 182.347L149.551 182.353L150.478 181.979ZM135.502 181.979L136.429 182.353L136.432 182.347L135.502 181.979ZM135.406 208.571L134.47 208.922L134.474 208.934L134.479 208.945L135.406 208.571ZM150.478 208.571L149.548 208.202L149.544 208.213L150.478 208.571ZM116.15 195.131C116.15 184.246 118.367 175.802 122.687 169.692L121.054 168.537C116.414 175.099 114.15 183.999 114.15 195.131H116.15ZM122.687 169.692C126.934 163.685 133.628 160.611 142.99 160.611V158.611C133.152 158.611 125.766 161.873 121.054 168.537L122.687 169.692ZM142.99 160.611C152.352 160.611 159.046 163.685 163.294 169.692L164.927 168.537C160.214 161.873 152.828 158.611 142.99 158.611V160.611ZM163.298 169.697C167.679 175.806 169.926 184.248 169.926 195.131H171.926C171.926 183.997 169.63 175.095 164.923 168.532L163.298 169.697ZM169.926 195.131C169.926 206.146 167.709 214.653 163.39 220.761L165.023 221.916C169.664 215.352 171.926 206.387 171.926 195.131H169.926ZM163.39 220.761C159.143 226.767 152.419 229.843 142.99 229.843V231.843C152.889 231.843 160.309 228.582 165.023 221.916L163.39 220.761ZM142.99 229.843C133.561 229.843 126.837 226.767 122.591 220.761L120.958 221.916C125.671 228.582 133.091 231.843 142.99 231.843V229.843ZM122.595 220.767C118.337 214.658 116.15 206.149 116.15 195.131H114.15C114.15 206.385 116.38 215.347 120.954 221.91L122.595 220.767ZM153.302 195.131C153.302 189.326 152.693 184.79 151.405 181.604L149.551 182.353C150.695 185.183 151.302 189.415 151.302 195.131H153.302ZM151.408 181.611C150.731 179.901 149.673 178.566 148.218 177.671C146.773 176.782 145.011 176.371 142.99 176.371V178.371C144.746 178.371 146.119 178.727 147.17 179.374C148.211 180.015 149.009 180.985 149.548 182.347L151.408 181.611ZM142.99 176.371C140.97 176.371 139.207 176.782 137.762 177.671C136.307 178.566 135.249 179.901 134.572 181.611L136.432 182.347C136.971 180.985 137.769 180.015 138.81 179.374C139.861 178.727 141.235 178.371 142.99 178.371V176.371ZM134.575 181.604C133.287 184.79 132.678 189.326 132.678 195.131H134.678C134.678 189.415 135.285 185.183 136.429 182.353L134.575 181.604ZM132.678 195.131C132.678 201.059 133.255 205.681 134.47 208.922L136.343 208.219C135.254 205.316 134.678 200.978 134.678 195.131H132.678ZM134.479 208.945C135.16 210.63 136.232 211.939 137.703 212.814C139.162 213.682 140.944 214.083 142.99 214.083V212.083C141.197 212.083 139.794 211.731 138.726 211.095C137.669 210.466 136.868 209.519 136.333 208.196L134.479 208.945ZM142.99 214.083C145.036 214.083 146.813 213.682 148.258 212.811C149.718 211.932 150.765 210.617 151.412 208.928L149.544 208.213C149.039 209.532 148.263 210.473 147.226 211.098C146.176 211.731 144.785 212.083 142.99 212.083V214.083ZM151.408 208.939C152.693 205.691 153.302 201.062 153.302 195.131H151.302C151.302 200.975 150.695 205.306 149.548 208.203L151.408 208.939ZM179.608 181.979L178.609 181.943L178.572 182.979H179.608V181.979ZM186.328 165.371L187.001 166.111L187.007 166.105L186.328 165.371ZM216.568 162.107L216.121 163.001L216.131 163.006L216.141 163.011L216.568 162.107ZM224.536 169.019L223.682 169.539L223.687 169.547L224.536 169.019ZM224.056 189.275L224.827 189.911L224.835 189.902L224.056 189.275ZM216.856 194.459L216.54 193.51L215.856 193.738V194.459H216.856ZM216.856 194.843H215.856V195.538L216.507 195.78L216.856 194.843ZM225.688 222.011L224.832 221.493L225.688 222.011ZM217.624 229.211L218.065 230.108L217.624 229.211ZM186.04 226.043L185.394 226.806L185.399 226.81L185.405 226.815L186.04 226.043ZM178.84 208.187V207.187H177.816L177.84 208.211L178.84 208.187ZM197.176 208.187L198.175 208.236L198.227 207.187H197.176V208.187ZM198.808 214.139L198.051 214.792V214.792L198.808 214.139ZM208.6 214.523L207.873 213.836L207.863 213.847L207.853 213.858L208.6 214.523ZM207.832 204.539L207.232 205.339L207.24 205.344L207.248 205.35L207.832 204.539ZM196.888 202.811H195.888V203.811H196.888V202.811ZM196.888 187.547V186.547H195.888V187.547H196.888ZM200.152 187.547L200.178 186.547L200.165 186.547H200.152V187.547ZM206.296 186.395L206.743 187.289L206.75 187.286L206.756 187.282L206.296 186.395ZM207.448 176.699L206.718 177.383L206.729 177.394L206.741 177.406L207.448 176.699ZM199.384 177.179L198.552 176.624L198.546 176.634L199.384 177.179ZM197.944 181.979V182.979H198.88L198.942 182.045L197.944 181.979ZM180.607 182.014C180.857 174.975 183.026 169.724 187.001 166.11L185.655 164.631C181.182 168.697 178.871 174.518 178.609 181.943L180.607 182.014ZM187.007 166.105C190.994 162.42 196.611 160.515 203.992 160.515V158.515C196.269 158.515 190.11 160.513 185.649 164.636L187.007 166.105ZM203.992 160.515C208.806 160.515 212.837 161.359 216.121 163.001L217.015 161.212C213.387 159.398 209.034 158.515 203.992 158.515V160.515ZM216.141 163.011C219.508 164.602 222.004 166.783 223.682 169.539L225.39 168.499C223.484 165.367 220.668 162.939 216.995 161.202L216.141 163.011ZM223.687 169.547C225.373 172.256 226.224 175.335 226.224 178.811H228.224C228.224 174.99 227.283 171.541 225.385 168.49L223.687 169.547ZM226.224 178.811C226.224 183.002 225.209 186.247 223.277 188.648L224.835 189.902C227.127 187.054 228.224 183.323 228.224 178.811H226.224ZM223.285 188.638C221.271 191.079 219.021 192.683 216.54 193.51L217.172 195.407C220.067 194.442 222.617 192.59 224.827 189.911L223.285 188.638ZM215.856 194.459V194.843H217.856V194.459H215.856ZM216.507 195.78C220.234 197.166 222.955 199.154 224.75 201.706C226.545 204.257 227.472 207.453 227.472 211.355H229.472C229.472 207.128 228.463 203.508 226.386 200.555C224.309 197.604 221.222 195.4 217.205 193.905L216.507 195.78ZM227.472 211.355C227.472 215.227 226.583 218.596 224.832 221.493L226.544 222.528C228.505 219.281 229.472 215.546 229.472 211.355H227.472ZM224.832 221.493C223.084 224.386 220.548 226.661 217.183 228.313L218.065 230.108C221.74 228.304 224.58 225.779 226.544 222.528L224.832 221.493ZM217.183 228.313C213.829 229.959 209.795 230.803 205.048 230.803V232.803C210.029 232.803 214.379 231.918 218.065 230.108L217.183 228.313ZM205.048 230.803C197.204 230.803 191.117 228.921 186.675 225.27L185.405 226.815C190.307 230.844 196.892 232.803 205.048 232.803V230.803ZM186.686 225.28C182.361 221.615 180.027 215.975 179.84 208.163L177.84 208.211C178.037 216.398 180.503 222.662 185.394 226.806L186.686 225.28ZM178.84 209.187H197.176V207.187H178.84V209.187ZM196.177 208.137C196.041 210.855 196.612 213.126 198.051 214.792L199.565 213.485C198.572 212.335 198.055 210.638 198.175 208.236L196.177 208.137ZM198.051 214.792C199.512 216.483 201.653 217.251 204.28 217.251V215.251C202.043 215.251 200.536 214.61 199.565 213.485L198.051 214.792ZM204.28 217.251C206.358 217.251 208.095 216.596 209.347 215.187L207.853 213.858C207.057 214.753 205.914 215.251 204.28 215.251V217.251ZM209.327 215.209C210.626 213.834 211.232 212.033 211.232 209.915H209.232C209.232 211.636 208.75 212.907 207.873 213.836L209.327 215.209ZM211.232 209.915C211.232 207.245 210.339 205.111 208.416 203.727L207.248 205.35C208.525 206.27 209.232 207.72 209.232 209.915H211.232ZM208.432 203.739C206.629 202.387 203.827 201.811 200.248 201.811V203.811C203.709 203.811 205.963 204.387 207.232 205.339L208.432 203.739ZM200.248 201.811H196.888V203.811H200.248V201.811ZM197.888 202.811V187.547H195.888V202.811H197.888ZM196.888 188.547H200.152V186.547H196.888V188.547ZM200.126 188.546C202.673 188.613 204.894 188.214 206.743 187.289L205.849 185.5C204.37 186.24 202.495 186.608 200.178 186.547L200.126 188.546ZM206.756 187.282C208.931 186.155 209.888 183.962 209.888 181.115H207.888C207.888 183.515 207.117 184.842 205.836 185.507L206.756 187.282ZM209.888 181.115C209.888 178.988 209.374 177.211 208.155 175.991L206.741 177.406C207.442 178.107 207.888 179.274 207.888 181.115H209.888ZM208.178 176.015C206.994 174.752 205.397 174.163 203.512 174.163V176.163C204.955 176.163 205.982 176.597 206.718 177.383L208.178 176.015ZM203.512 174.163C201.38 174.163 199.663 174.957 198.552 176.624L200.216 177.733C200.897 176.713 201.932 176.163 203.512 176.163V174.163ZM198.546 176.634C197.599 178.09 197.083 179.865 196.946 181.912L198.942 182.045C199.061 180.252 199.505 178.828 200.222 177.724L198.546 176.634ZM197.944 180.979H179.608V182.979H197.944V180.979Z" fill="#EA5B21"/>
<path d="M94.816 170.659H66.016V181.315C67.232 180.035 68.896 179.011 71.008 178.243C73.12 177.475 75.456 177.091 78.016 177.091C82.624 177.091 86.464 178.147 89.536 180.259C92.672 182.371 94.976 185.155 96.448 188.611C97.92 192.067 98.656 195.843 98.656 199.939C98.656 207.491 96.512 213.443 92.224 217.795C87.936 222.083 81.984 224.227 74.368 224.227C69.056 224.227 64.448 223.331 60.544 221.539C56.704 219.683 53.76 217.123 51.712 213.859C49.664 210.595 48.608 206.851 48.544 202.627H66.88C67.072 204.099 67.712 205.379 68.8 206.467C69.888 207.555 71.488 208.099 73.6 208.099C75.84 208.099 77.536 207.331 78.688 205.795C79.84 204.259 80.416 202.211 80.416 199.651C80.416 197.155 79.808 195.267 78.592 193.987C77.376 192.643 75.616 191.971 73.312 191.971C71.584 191.971 70.176 192.419 69.088 193.315C68.064 194.147 67.456 195.203 67.264 196.483H48.928V154.051H94.816V170.659ZM107.15 188.131C107.15 177.123 109.39 168.451 113.87 162.115C118.35 155.779 125.39 152.611 134.99 152.611C144.59 152.611 151.63 155.779 156.11 162.115C160.654 168.451 162.926 177.123 162.926 188.131C162.926 199.267 160.686 208.003 156.206 214.339C151.726 220.675 144.654 223.843 134.99 223.843C125.326 223.843 118.254 220.675 113.774 214.339C109.358 208.003 107.15 199.267 107.15 188.131ZM144.302 188.131C144.302 182.371 143.694 177.987 142.478 174.979C141.262 171.907 138.766 170.371 134.99 170.371C131.214 170.371 128.718 171.907 127.502 174.979C126.286 177.987 125.678 182.371 125.678 188.131C125.678 194.019 126.254 198.499 127.406 201.571C128.622 204.579 131.15 206.083 134.99 206.083C138.83 206.083 141.326 204.579 142.478 201.571C143.694 198.499 144.302 194.019 144.302 188.131ZM171.608 174.979C171.864 167.747 174.104 162.211 178.328 158.371C182.552 154.467 188.44 152.515 195.992 152.515C200.92 152.515 205.112 153.379 208.568 155.107C212.088 156.771 214.744 159.075 216.536 162.019C218.328 164.899 219.224 168.163 219.224 171.811C219.224 176.163 218.168 179.651 216.056 182.275C213.944 184.835 211.544 186.563 208.856 187.459V187.843C216.6 190.723 220.472 196.227 220.472 204.355C220.472 208.387 219.544 211.939 217.688 215.011C215.832 218.083 213.144 220.483 209.624 222.211C206.104 223.939 201.912 224.803 197.048 224.803C189.048 224.803 182.712 222.883 178.04 219.043C173.432 215.139 171.032 209.187 170.84 201.187H189.176C189.048 203.747 189.592 205.731 190.808 207.139C192.024 208.547 193.848 209.251 196.28 209.251C198.136 209.251 199.576 208.675 200.6 207.523C201.688 206.371 202.232 204.835 202.232 202.915C202.232 200.483 201.432 198.691 199.832 197.539C198.296 196.387 195.768 195.811 192.248 195.811H188.888V180.547H192.152C194.584 180.611 196.632 180.227 198.296 179.395C200.024 178.499 200.888 176.739 200.888 174.115C200.888 172.131 200.408 170.659 199.448 169.699C198.488 168.675 197.176 168.163 195.512 168.163C193.656 168.163 192.28 168.835 191.384 170.179C190.552 171.459 190.072 173.059 189.944 174.979H171.608Z" fill="#EA5B21"/>
<path d="M180.566 124.676C180.566 124.676 174.523 121.973 164.808 125.831C164.195 126.069 164.198 126.949 164.822 127.187C166.972 127.972 170.478 129.362 171.874 130.374L180.566 124.676Z" fill="#989898"/>
<path d="M184.509 134.208C184.509 134.208 182.151 140.397 172.556 144.55C171.941 144.811 171.347 144.195 171.609 143.573C172.554 141.506 174.084 138.035 174.336 136.319L184.509 134.208Z" fill="#989898"/>
<path d="M173.359 128.089C172.605 128.625 171.824 129.182 171.04 129.787L174.186 137.354C175.171 137.217 176.11 137.076 177.026 136.909C190.908 134.491 197.695 129.763 201.004 126.026L197.998 118.803C193.006 118.487 184.878 119.972 173.359 128.089Z" fill="black"/>
<path d="M192.945 128.678C194.614 127.986 195.406 126.073 194.714 124.404C194.022 122.735 192.109 121.943 190.44 122.634C188.771 123.326 187.979 125.24 188.67 126.909C189.362 128.578 191.276 129.37 192.945 128.678Z" fill="white"/>
<path d="M201.006 126.003L198 118.78C202.07 119.025 204.051 120.462 204.051 120.462L204.071 120.511C204.071 120.511 203.693 122.931 201.006 126.003Z" fill="#989898"/>
<path d="M182.272 129.353C182.454 129.771 182.273 130.257 181.877 130.464L177.166 132.951C176.199 133.47 175.168 133.89 174.12 134.213L169.029 135.791C168.591 135.923 168.133 135.698 167.951 135.279C167.77 134.861 167.95 134.376 168.346 134.169L173.057 131.681C174.024 131.162 175.055 130.743 176.103 130.42L181.194 128.841C181.631 128.733 182.091 128.935 182.272 129.353Z" fill="#989898"/>
<path d="M151.257 145.213C151.357 145.934 151.381 147.127 149.045 147.5C149.045 147.5 147.926 150.085 145.068 148.942C145.068 148.942 145.068 152.397 141.041 151.229C141.041 151.229 140.469 158.686 133.583 156.399C133.583 156.399 130.724 159.258 127.841 158.114C127.841 158.114 128.413 162.713 123.814 162.713C123.814 162.713 122.67 165.572 119.787 164.428C119.787 164.428 120.359 167.883 116.928 168.455C116.928 168.455 117.5 172.482 114.07 173.054C114.07 173.054 114.07 177.653 111.211 179.368C111.211 179.368 119.24 183.967 114.666 191.424C114.666 191.424 119.837 193.139 115.81 198.881C115.81 198.881 120.98 200.025 118.097 205.195C118.097 205.195 124.411 206.339 120.955 212.653C120.955 212.653 128.413 210.938 130.128 218.395C130.128 218.395 132.986 217.823 134.727 219.538C134.727 219.538 135.87 216.68 138.754 217.251C138.754 217.251 138.754 210.938 144.496 210.938C144.496 210.938 144.496 206.339 149.094 204.624C149.094 204.624 147.951 200.025 150.238 198.881C150.238 198.881 145.639 190.852 153.693 188.54C153.693 188.54 151.406 185.682 153.693 182.227C153.693 182.227 150.835 180.511 151.406 177.628C151.406 177.628 146.236 175.913 147.951 170.742C147.951 170.742 145.664 169.599 146.236 166.143C146.236 166.143 143.377 162.116 147.379 160.401C147.379 160.401 150.238 159.829 150.835 163.26C150.835 163.26 158.292 160.973 158.292 169.002C158.292 169.002 163.462 169.574 161.747 175.316C161.747 175.316 169.205 179.343 161.176 187.372C161.176 187.372 162.891 189.659 161.176 192.543C161.176 192.543 164.631 195.401 160.604 199.428C160.604 199.428 162.891 205.17 156.577 209.769C156.577 209.769 160.032 218.37 150.263 219.538C150.263 219.538 149.691 223.565 145.664 223.565C145.664 223.565 144.521 226.424 142.209 225.852C142.209 225.852 139.922 229.879 135.895 226.996C135.895 226.996 131.868 230.451 127.866 225.852C127.866 225.852 123.267 232.738 116.381 227.567C116.381 227.567 114.094 225.852 114.094 221.254C114.094 221.254 110.639 218.395 111.807 214.94C111.807 214.94 104.35 213.224 105.494 204.599C105.494 204.599 98.0362 199.428 104.35 191.399C104.35 191.399 100.895 187.944 105.494 181.63C105.494 181.63 98.6079 174.744 107.209 169.002C107.209 169.002 107.209 163.832 112.379 162.688C112.379 162.688 112.951 159.233 116.406 160.401C116.406 160.401 116.406 157.543 119.265 158.114C119.265 158.114 119.837 155.256 123.864 155.827C123.864 155.827 123.864 146.058 133.633 149.513C133.633 149.513 134.354 145.959 138.803 147.798C138.803 147.798 139.947 143.771 143.974 146.083C143.974 146.083 146.037 143.995 148.001 145.263C148.001 145.263 148.548 143.498 150.735 144.194C151.058 144.293 151.207 144.79 151.257 145.213Z" fill="white"/>
<path d="M121.427 230.227C119.588 230.227 117.748 229.531 115.909 228.163C115.809 228.089 113.423 226.249 113.323 221.576C112.528 220.83 110.316 218.419 110.862 215.411C108.923 214.69 103.902 212.105 104.648 204.921C103.753 204.2 101.566 202.112 101.093 198.955C100.72 196.469 101.466 193.934 103.33 191.398C102.485 190.18 100.969 186.825 104.474 181.679C103.629 180.66 101.789 178.074 102.112 174.967C102.361 172.556 103.803 170.418 106.438 168.579C106.562 167.286 107.333 163.284 111.708 162.066C111.906 161.469 112.354 160.45 113.323 159.854C114.019 159.431 114.815 159.307 115.71 159.456C115.834 158.934 116.132 158.312 116.679 157.865C117.226 157.417 117.897 157.219 118.693 157.268C119.14 156.349 120.284 154.857 123.068 154.981C123.217 153.564 123.789 150.681 126.051 149.09C127.816 147.847 130.177 147.673 133.061 148.543C133.309 148.021 133.781 147.35 134.602 146.903C135.596 146.381 136.839 146.331 138.281 146.803C138.604 146.157 139.225 145.262 140.294 144.814C141.314 144.392 142.482 144.491 143.75 145.113C144.62 144.417 146.111 143.696 147.578 144.218C147.777 143.969 148.05 143.696 148.423 143.522C149.094 143.174 149.914 143.124 150.834 143.422C151.257 143.547 151.779 143.944 151.953 145.063C152.176 146.679 151.356 147.698 149.492 148.121C148.92 149.09 147.627 150.258 145.614 149.861C145.465 150.408 145.142 151.079 144.495 151.551C143.75 152.098 142.805 152.297 141.612 152.098C141.363 153.316 140.692 155.503 138.877 156.697C137.485 157.616 135.77 157.79 133.732 157.194C132.936 157.865 130.873 159.381 128.561 159.058C128.487 159.903 128.238 161.072 127.418 161.991C126.672 162.837 125.603 163.309 124.261 163.408C123.689 164.427 122.421 165.67 120.532 165.372C120.507 165.695 120.458 166.043 120.333 166.416C120.035 167.361 119.339 168.504 117.674 169.001C117.698 170.592 117.102 172.904 114.74 173.6C114.641 174.818 114.243 177.577 112.428 179.268C113.671 180.187 115.809 182.126 116.53 184.935C117.027 186.924 116.754 188.962 115.66 191.025C116.381 191.448 117.4 192.219 117.823 193.561C118.295 194.978 117.972 196.619 116.903 198.433C117.698 198.781 118.792 199.477 119.339 200.695C119.861 201.839 119.786 203.181 119.115 204.673C120.085 205.021 121.551 205.791 122.272 207.283C122.869 208.526 122.844 210.017 122.173 211.683C122.943 211.633 123.963 211.683 125.031 211.931C127.02 212.403 129.556 213.771 130.649 217.499C131.544 217.425 133.11 217.474 134.453 218.32C135.099 217.35 136.292 216.306 138.007 216.331C138.256 213.945 139.698 210.464 143.774 210.116C143.973 208.724 144.818 205.617 148.199 204.076C147.975 202.783 147.677 199.925 149.243 198.533C148.647 197.265 147.528 194.232 148.597 191.548C149.243 189.957 150.561 188.763 152.5 188.018C151.853 186.7 151.431 184.562 152.649 182.325C151.804 181.629 150.387 180.138 150.536 178C148.597 177.13 146.036 174.843 147.031 170.94C146.285 170.344 145.042 168.902 145.39 166.217C144.992 165.571 144.098 163.831 144.57 162.165C144.893 161.047 145.713 160.202 147.031 159.63L147.105 159.605L147.18 159.58C147.23 159.58 148.622 159.307 149.865 160.152C150.561 160.624 151.058 161.345 151.331 162.29C152.524 162.066 154.861 161.892 156.676 163.209C158.093 164.253 158.863 165.969 158.963 168.305C159.783 168.529 161.15 169.051 162.02 170.369C162.816 171.562 162.99 173.078 162.542 174.893C163.412 175.514 165.152 177.006 165.525 179.442C165.898 181.927 164.73 184.587 162.045 187.396C162.493 188.291 163.114 190.131 162.02 192.318C162.492 192.865 163.164 193.884 163.213 195.251C163.288 196.693 162.666 198.135 161.374 199.552C161.772 201.068 162.542 205.915 157.397 209.942C157.769 211.16 158.416 214.119 156.924 216.604C155.806 218.494 153.767 219.662 150.834 220.109C150.412 221.7 149.069 223.962 146.111 224.186C145.539 225.28 144.296 226.697 142.532 226.572C142.059 227.194 141.065 228.263 139.573 228.586C138.38 228.859 137.137 228.586 135.87 227.815C134.652 228.586 131.296 230.202 127.865 226.896C126.995 227.89 125.181 229.605 122.62 230.053C122.247 230.202 121.85 230.227 121.427 230.227ZM115.063 160.922C114.715 160.922 114.392 160.997 114.144 161.171C113.298 161.668 113.1 162.837 113.1 162.837L113.025 163.334L112.528 163.433C108.004 164.427 107.954 168.827 107.954 169.026V169.424L107.631 169.648C105.195 171.263 103.877 173.128 103.654 175.141C103.33 178.373 105.99 181.107 106.015 181.132L106.463 181.579L106.09 182.101C101.963 187.769 104.747 190.777 104.872 190.901L105.319 191.374L104.921 191.896C103.057 194.257 102.286 196.569 102.61 198.781C103.107 202.062 105.866 204.001 105.891 204.026L106.264 204.275L106.214 204.722C105.17 212.577 111.683 214.168 111.956 214.218L112.752 214.392L112.503 215.163C111.534 218.071 114.541 220.631 114.566 220.656L114.84 220.88V221.228C114.84 225.33 116.754 226.896 116.853 226.945C118.767 228.362 120.632 228.934 122.446 228.636C125.404 228.138 127.244 225.429 127.269 225.404L127.816 224.584L128.462 225.305C131.917 229.257 135.323 226.498 135.447 226.374L135.894 226.001L136.367 226.324C137.411 227.07 138.405 227.343 139.3 227.169C140.742 226.871 141.587 225.429 141.587 225.429L141.86 224.957L142.407 225.081C144.048 225.504 144.968 223.266 144.968 223.241L145.166 222.769H145.664C148.97 222.769 149.492 219.538 149.517 219.388L149.591 218.817L150.163 218.742C152.897 218.419 154.762 217.45 155.681 215.883C157.173 213.348 155.88 210.017 155.855 209.992L155.632 209.445L156.104 209.097C161.846 204.921 159.957 199.85 159.858 199.651L159.684 199.204L160.032 198.856C161.225 197.663 161.796 196.494 161.747 195.351C161.672 193.959 160.653 193.064 160.653 193.064L160.156 192.666L160.479 192.119C161.921 189.733 160.578 187.869 160.529 187.769L160.156 187.247L160.603 186.8C163.213 184.19 164.357 181.828 164.059 179.715C163.711 177.254 161.374 175.937 161.349 175.937L160.827 175.638L161.001 175.067C161.473 173.451 161.424 172.158 160.802 171.239C159.932 169.921 158.192 169.697 158.192 169.697L157.521 169.623V168.952C157.521 166.789 156.949 165.273 155.831 164.452C153.941 163.06 151.058 163.93 151.033 163.93L150.213 164.179L150.063 163.334C149.914 162.439 149.566 161.792 149.044 161.42C148.448 160.997 147.777 161.047 147.553 161.072C146.708 161.444 146.21 161.942 146.036 162.588C145.639 163.98 146.807 165.621 146.807 165.645L146.981 165.894L146.931 166.192C146.459 169.001 148.174 169.971 148.249 169.996L148.796 170.294L148.597 170.891C147.13 175.266 151.381 176.782 151.58 176.832L152.201 177.03L152.077 177.677C151.605 180.013 153.991 181.48 154.016 181.48L154.687 181.878L154.265 182.524C152.301 185.482 154.215 187.943 154.215 187.968L154.911 188.838L153.842 189.136C151.853 189.708 150.536 190.702 149.964 192.094C148.845 194.854 150.809 198.334 150.834 198.383L151.232 199.079L150.536 199.427C149.094 200.148 149.517 203.28 149.79 204.325L149.939 204.971L149.318 205.195C145.291 206.711 145.216 210.638 145.216 210.812V211.558H144.47C139.524 211.558 139.474 216.903 139.474 217.126V218.046L138.579 217.872C136.342 217.425 135.447 219.612 135.397 219.712L134.975 220.756L134.179 219.96C132.762 218.543 130.277 219.016 130.252 219.016L129.531 219.165L129.357 218.469C128.711 215.685 127.144 213.945 124.683 213.348C122.794 212.901 121.104 213.273 121.079 213.273L119.463 213.646L120.259 212.18C121.228 210.415 121.452 208.973 120.93 207.879C120.159 206.263 117.947 205.816 117.922 205.816L116.903 205.642L117.4 204.722C118.171 203.305 118.37 202.162 117.972 201.242C117.375 199.925 115.61 199.502 115.585 199.477L114.492 199.229L115.138 198.309C116.356 196.569 116.779 195.102 116.406 193.959C115.958 192.542 114.392 191.995 114.367 191.995L113.497 191.697L113.995 190.901C115.188 188.937 115.561 187.048 115.113 185.234C114.268 181.878 110.862 179.914 110.813 179.889L109.719 179.268L110.813 178.621C113.299 177.13 113.323 172.979 113.323 172.954V172.332L113.945 172.233C116.63 171.785 116.207 168.628 116.207 168.479L116.107 167.758L116.828 167.634C117.972 167.435 118.668 166.888 118.966 165.919C119.19 165.173 119.09 164.477 119.09 164.477L118.867 163.16L120.085 163.657C122.123 164.477 122.993 162.712 123.142 162.339L123.341 161.867H123.838C124.957 161.867 125.802 161.569 126.349 160.947C127.318 159.854 127.12 158.138 127.12 158.114L126.97 156.871L128.139 157.343C130.525 158.288 133.061 155.802 133.086 155.777L133.409 155.454L133.856 155.603C135.621 156.199 137.063 156.125 138.132 155.404C140.071 154.111 140.319 151.104 140.344 151.079L140.419 150.159L141.289 150.408C142.034 150.631 143.054 150.78 143.675 150.308C144.321 149.811 144.346 148.841 144.346 148.817L144.371 147.723L145.39 148.121C147.453 148.941 148.274 147.4 148.398 147.077L148.572 146.704L148.97 146.629C150.735 146.331 150.635 145.685 150.561 145.162C150.536 144.914 150.461 144.765 150.436 144.715C149.914 144.566 149.517 144.566 149.193 144.715C148.821 144.914 148.696 145.287 148.696 145.287L148.398 146.231L147.578 145.685C146.161 144.765 144.57 146.331 144.495 146.405L144.098 146.803L143.6 146.53C142.556 145.933 141.662 145.784 140.965 146.057C139.921 146.48 139.524 147.797 139.524 147.822L139.3 148.618L138.529 148.295C137.212 147.748 136.168 147.673 135.422 148.071C134.577 148.518 134.378 149.463 134.378 149.463L134.204 150.308L133.384 150.035C130.649 149.065 128.512 149.115 127.02 150.159C124.634 151.849 124.609 155.603 124.609 155.653V156.523L123.764 156.398C120.582 155.951 120.06 157.89 120.01 158.114L119.861 158.834L119.14 158.71C118.519 158.586 118.046 158.66 117.723 158.909C117.276 159.282 117.152 160.028 117.152 160.276V161.295L116.182 160.972C115.735 160.972 115.387 160.922 115.063 160.922Z" fill="#EA5B21"/>
<path d="M234.585 43.4536L239.655 44.5412L240.859 49.597C240.913 49.7565 241.074 49.9154 241.234 49.9144C241.394 49.9134 241.553 49.8058 241.605 49.5923L242.745 44.4686L247.801 43.2112C247.96 43.1569 248.119 42.996 248.118 42.8361C248.117 42.6762 248.01 42.517 247.796 42.465L242.726 41.3775L241.522 36.3218C241.468 36.1622 241.307 36.0033 241.147 36.0043C240.987 36.0053 240.828 36.1129 240.776 36.3264L239.635 41.4501L234.58 42.7075C234.42 42.7618 234.261 42.9227 234.262 43.0826C234.264 43.2957 234.371 43.455 234.585 43.4536Z" fill="#2C4E8B"/>
<path d="M195.327 260.248L199.063 261.024L199.939 264.75C199.993 264.856 200.1 264.962 200.206 264.961C200.366 264.96 200.472 264.853 200.472 264.746L201.301 261.01L205.026 260.081C205.132 260.027 205.238 259.92 205.238 259.813C205.237 259.653 205.129 259.548 205.023 259.548L201.287 258.772L200.411 255.047C200.357 254.94 200.25 254.835 200.143 254.835C199.983 254.836 199.877 254.943 199.878 255.05L199.049 258.786L195.324 259.715C195.217 259.769 195.111 259.877 195.112 259.983C195.113 260.09 195.22 260.249 195.327 260.248Z" fill="#2C4E8B"/>
<path d="M52.0801 32.6551L46.4384 33.9162L45.1946 39.5735C45.1427 39.787 44.9834 39.8946 44.7702 39.8959C44.5571 39.8973 44.3961 39.7384 44.3418 39.5788L43.0272 33.8842L37.3695 32.5871C37.156 32.5352 37.0485 32.3759 37.0472 32.1628C37.0458 31.9496 37.2047 31.7887 37.4175 31.7341L43.0591 30.473L44.303 24.8157C44.3549 24.6022 44.5142 24.4946 44.7273 24.4933C44.9405 24.4919 45.1013 24.6508 45.1556 24.8104L46.4704 30.505L52.1279 31.8021C52.3415 31.854 52.4491 32.0132 52.4504 32.2264C52.4518 32.4396 52.2932 32.6538 52.0801 32.6551Z" fill="#2C4E8B"/>
<path d="M62.5707 56.8953L59.6434 57.5532L59.0222 60.4884C59.0229 60.595 58.9167 60.649 58.8101 60.6496C58.7035 60.6503 58.5965 60.5977 58.5959 60.4911L57.8847 57.5642L54.9491 56.8897C54.8425 56.8903 54.7887 56.7841 54.788 56.6775C54.7873 56.5709 54.8398 56.4639 54.9464 56.4633L57.8737 55.8054L58.495 52.8702C58.4944 52.7636 58.6006 52.7096 58.7071 52.709C58.8137 52.7083 58.9206 52.761 58.9213 52.8675L59.6325 55.7945L62.568 56.469C62.6746 56.4683 62.7286 56.5745 62.7293 56.6811C62.7299 56.7877 62.6769 56.8414 62.5707 56.8953Z" fill="#2C4E8B"/>
<path d="M127.269 75.5466C133.157 75.5466 137.929 70.7739 137.929 64.8866C137.929 58.9992 133.157 54.2266 127.269 54.2266C121.382 54.2266 116.609 58.9992 116.609 64.8866C116.609 70.7739 121.382 75.5466 127.269 75.5466Z" fill="#EF6744"/>
<path d="M141.07 62.7064C139.97 62.3464 138.74 62.0164 137.42 61.7064C137.553 62.1423 137.656 62.5866 137.73 63.0364C138.79 63.3064 139.79 63.5864 140.73 63.8764C144.73 65.1564 145.52 66.1764 145.49 66.4264C145.46 66.6764 144.43 67.4264 140.25 67.7464C135.818 67.9549 131.376 67.7608 126.98 67.1664C122.576 66.6736 118.225 65.7867 113.98 64.5164C109.98 63.2264 109.19 62.2164 109.22 61.9564C109.3 61.2964 112.22 60.5564 117.53 60.5464C117.709 60.1279 117.92 59.7234 118.16 59.3364C112.98 59.2764 108.26 59.8164 108.01 61.8064C107.85 63.1464 109.68 64.4064 113.61 65.6764C117.93 66.9689 122.358 67.8725 126.84 68.3764C130.253 68.8103 133.689 69.0407 137.13 69.0664C138.27 69.0664 139.35 69.0664 140.34 68.9664C144.46 68.6964 146.55 67.9164 146.71 66.5764C146.87 65.2364 145.07 63.9864 141.07 62.7064Z" fill="#2755A3"/>
<path d="M59.6209 282.047C68.9601 282.047 76.5309 274.476 76.5309 265.137C76.5309 255.797 68.9601 248.227 59.6209 248.227C50.2818 248.227 42.7109 255.797 42.7109 265.137C42.7109 274.476 50.2818 282.047 59.6209 282.047Z" fill="#2755A3"/>
<path d="M76.3002 250.448C74.5202 250.918 72.5902 251.508 70.5502 252.208C71.1005 252.676 71.6184 253.18 72.1002 253.718C73.7402 253.178 75.3202 252.718 76.7802 252.318C83.2102 250.658 85.1602 251.318 85.3302 251.698C85.5002 252.078 84.8002 253.998 79.4402 257.918C73.6784 261.961 67.5636 265.475 61.1702 268.418C54.8462 271.498 48.2601 274.008 41.4902 275.918C35.0602 277.588 33.1202 276.918 32.9402 276.538C32.4902 275.538 35.7602 272.128 42.8702 267.538C42.7597 266.823 42.6996 266.101 42.6902 265.378C35.6902 269.698 29.8302 274.438 31.2002 277.318C32.1102 279.238 35.6302 279.378 41.9702 277.738C48.8511 275.796 55.5445 273.243 61.9702 270.108C66.9088 267.794 71.7041 265.186 76.3302 262.298C77.8569 261.318 79.2635 260.361 80.5502 259.428C85.8302 255.568 87.9602 252.748 87.0502 250.818C86.1402 248.888 82.6402 248.808 76.3002 250.448Z" fill="#2755A3"/>
</g>
<defs>
<linearGradient id="paint0_linear" x1="89.9996" y1="246.726" x2="156.06" y2="7.29117" gradientUnits="userSpaceOnUse">
<stop stop-color="#E9E9E9"/>
<stop offset="1" stop-color="white"/>
</linearGradient>
</defs>
</svg>
