<svg width="301" height="302" viewBox="0 0 301 302" fill="none" xmlns="http://www.w3.org/2000/svg">
<mask id="mask0" mask-type="alpha" maskUnits="userSpaceOnUse" x="0" y="0" width="301" height="302">
<rect y="0.226562" width="301" height="301" fill="white"/>
</mask>
<g mask="url(#mask0)">
<path d="M65.896 116.152H64.896V117.152H65.896V116.152ZM65.896 100.6L65.0771 100.026L64.896 100.284V100.6H65.896ZM95.368 58.5519V57.5519H94.8477L94.5491 57.9779L95.368 58.5519ZM116.008 58.5519H117.008V57.5519H116.008V58.5519ZM116.008 99.8319H115.008V100.832H116.008V99.8319ZM123.4 99.8319H124.4V98.8319H123.4V99.8319ZM123.4 116.152V117.152H124.4V116.152H123.4ZM116.008 116.152V115.152H115.008V116.152H116.008ZM116.008 127.672V128.672H117.008V127.672H116.008ZM97 127.672H96V128.672H97V127.672ZM97 116.152H98V115.152H97V116.152ZM98.44 79.7679H99.44V76.4385L97.6055 79.2169L98.44 79.7679ZM85.192 99.8319L84.3575 99.2809L83.3334 100.832H85.192V99.8319ZM98.44 99.8319V100.832H99.44V99.8319H98.44ZM66.896 116.152V100.6H64.896V116.152H66.896ZM66.7149 101.174L96.1869 59.1258L94.5491 57.9779L65.0771 100.026L66.7149 101.174ZM95.368 59.5519H116.008V57.5519H95.368V59.5519ZM115.008 58.5519V99.8319H117.008V58.5519H115.008ZM116.008 100.832H123.4V98.8319H116.008V100.832ZM122.4 99.8319V116.152H124.4V99.8319H122.4ZM123.4 115.152H116.008V117.152H123.4V115.152ZM115.008 116.152V127.672H117.008V116.152H115.008ZM116.008 126.672H97V128.672H116.008V126.672ZM98 127.672V116.152H96V127.672H98ZM97 115.152H65.896V117.152H97V115.152ZM97.6055 79.2169L84.3575 99.2809L86.0265 100.383L99.2745 80.3189L97.6055 79.2169ZM85.192 100.832H98.44V98.8319H85.192V100.832ZM99.44 99.8319V79.7679H97.44V99.8319H99.44ZM138.339 65.5599L139.156 66.1372V66.1372L138.339 65.5599ZM180.579 65.5599L179.762 66.1372L179.766 66.1427L180.579 65.5599ZM180.675 117.784L179.858 117.207L180.675 117.784ZM138.243 117.784L137.423 118.356L137.426 118.361L138.243 117.784ZM166.947 78.4239L166.017 78.7919L166.02 78.7987L166.947 78.4239ZM151.971 78.4239L152.898 78.7987L152.901 78.7919L151.971 78.4239ZM151.875 105.016L150.939 105.367L150.943 105.379L150.948 105.391L151.875 105.016ZM166.947 105.016L166.017 104.648L166.013 104.658L166.947 105.016ZM132.619 91.5759C132.619 80.6912 134.835 72.247 139.156 66.1372L137.522 64.9825C132.883 71.5447 130.619 80.4446 130.619 91.5759H132.619ZM139.156 66.1372C143.403 60.1299 150.097 57.0559 159.459 57.0559V55.0559C149.621 55.0559 142.235 58.3179 137.522 64.9825L139.156 66.1372ZM159.459 57.0559C168.821 57.0559 175.515 60.1299 179.762 66.1372L181.396 64.9825C176.683 58.3179 169.297 55.0559 159.459 55.0559V57.0559ZM179.766 66.1427C184.148 72.2517 186.395 80.6936 186.395 91.5759H188.395C188.395 80.4421 186.098 71.54 181.392 64.9771L179.766 66.1427ZM186.395 91.5759C186.395 102.591 184.177 111.098 179.858 117.207L181.492 118.361C186.133 111.797 188.395 102.832 188.395 91.5759H186.395ZM179.858 117.207C175.612 123.212 168.888 126.288 159.459 126.288V128.288C169.358 128.288 176.778 125.028 181.492 118.361L179.858 117.207ZM159.459 126.288C150.03 126.288 143.306 123.212 139.06 117.207L137.426 118.361C142.14 125.028 149.56 128.288 159.459 128.288V126.288ZM139.063 117.212C134.806 111.103 132.619 102.594 132.619 91.5759H130.619C130.619 102.83 132.848 111.793 137.423 118.356L139.063 117.212ZM169.771 91.5759C169.771 85.7714 169.162 81.235 167.874 78.0491L166.02 78.7987C167.164 81.6288 167.771 85.8603 167.771 91.5759H169.771ZM167.877 78.0558C167.2 76.3458 166.142 75.0116 164.687 74.1162C163.242 73.227 161.48 72.8159 159.459 72.8159V74.8159C161.214 74.8159 162.588 75.1728 163.639 75.8195C164.68 76.4601 165.478 77.4299 166.017 78.7919L167.877 78.0558ZM159.459 72.8159C157.438 72.8159 155.676 73.227 154.231 74.1162C152.776 75.0116 151.718 76.3458 151.041 78.0558L152.901 78.7919C153.44 77.4299 154.238 76.4601 155.279 75.8195C156.33 75.1728 157.704 74.8159 159.459 74.8159V72.8159ZM151.044 78.0491C149.756 81.235 149.147 85.7714 149.147 91.5759H151.147C151.147 85.8603 151.754 81.6288 152.898 78.7987L151.044 78.0491ZM149.147 91.5759C149.147 97.5041 149.724 102.127 150.939 105.367L152.811 104.665C151.722 101.761 151.147 97.4237 151.147 91.5759H149.147ZM150.948 105.391C151.629 107.075 152.7 108.384 154.172 109.259C155.631 110.127 157.413 110.528 159.459 110.528V108.528C157.665 108.528 156.263 108.176 155.194 107.54C154.138 106.912 153.337 105.964 152.802 104.641L150.948 105.391ZM159.459 110.528C161.505 110.528 163.281 110.128 164.727 109.256C166.186 108.377 167.234 107.063 167.881 105.374L166.013 104.658C165.508 105.977 164.732 106.919 163.695 107.543C162.645 108.176 161.253 108.528 159.459 108.528V110.528ZM167.877 105.384C169.162 102.137 169.771 97.507 169.771 91.5759H167.771C167.771 97.4207 167.164 101.751 166.017 104.648L167.877 105.384ZM206.541 89.5599L207.002 90.4474L208.661 89.5857L207.023 88.6839L206.541 89.5599ZM200.685 65.4639L199.844 64.9222L199.841 64.927L200.685 65.4639ZM209.037 58.6479L209.446 59.5604L209.452 59.5575L209.459 59.5545L209.037 58.6479ZM236.493 58.6479L236.071 59.5545L236.077 59.5575L236.084 59.5604L236.493 58.6479ZM244.749 65.4639L243.9 65.9922L243.907 66.0033L243.914 66.0142L244.749 65.4639ZM245.229 83.7039L244.377 83.1798L244.373 83.1861L245.229 83.7039ZM238.989 89.5599L238.508 88.6828L236.864 89.5834L238.528 90.4474L238.989 89.5599ZM246.573 96.4719L245.715 96.9864V96.9864L246.573 96.4719ZM245.613 118.744L246.428 119.324L246.433 119.316L245.613 118.744ZM236.013 126.328L235.619 125.409L235.613 125.411L236.013 126.328ZM209.421 126.328L209.021 127.245L209.027 127.247L209.421 126.328ZM199.917 118.744L199.097 119.316L199.102 119.324L199.917 118.744ZM198.957 96.4719L198.099 95.9574L198.957 96.4719ZM227.373 72.6639L226.629 73.3328L226.638 73.3423L226.647 73.3516L227.373 72.6639ZM218.157 72.6639L217.432 71.9751L217.422 71.9849L217.413 71.9949L218.157 72.6639ZM218.157 82.9359L217.431 83.6236L217.44 83.6334L217.45 83.643L218.157 82.9359ZM227.277 82.9359L226.57 82.2288L226.56 82.2383L226.551 82.2481L227.277 82.9359ZM216.813 99.8319L217.504 100.555L217.505 100.554L216.813 99.8319ZM216.813 111.256L216.106 111.963V111.963L216.813 111.256ZM228.621 111.256L227.914 110.549L227.906 110.557L227.898 110.565L228.621 111.256ZM228.621 99.8319L227.914 100.539L227.922 100.547L227.93 100.555L228.621 99.8319ZM207.023 88.6839C204.31 87.1901 202.317 85.3023 200.997 83.0331C199.676 80.7626 198.997 78.0544 198.997 74.8719H196.997C196.997 78.3453 197.741 81.4131 199.268 84.0387C200.796 86.6655 203.076 88.7936 206.058 90.4359L207.023 88.6839ZM198.997 74.8719C198.997 71.599 199.842 68.6504 201.528 66.0007L199.841 64.927C197.943 67.9093 196.997 71.2328 196.997 74.8719H198.997ZM201.525 66.0056C203.258 63.3168 205.877 61.1602 209.446 59.5604L208.628 57.7354C204.773 59.4635 201.823 61.851 199.844 64.9222L201.525 66.0056ZM209.459 59.5545C213.003 57.9047 217.425 57.0559 222.765 57.0559V55.0559C217.225 55.0559 212.495 55.935 208.615 57.7413L209.459 59.5545ZM222.765 57.0559C228.105 57.0559 232.527 57.9047 236.071 59.5545L236.915 57.7413C233.035 55.935 228.305 55.0559 222.765 55.0559V57.0559ZM236.084 59.5604C239.651 61.1594 242.232 63.3124 243.9 65.9922L245.598 64.9356C243.681 61.8553 240.759 59.4643 236.902 57.7354L236.084 59.5604ZM243.914 66.0142C245.659 68.6626 246.533 71.6064 246.533 74.8719H248.533C248.533 71.2254 247.55 67.8971 245.584 64.9136L243.914 66.0142ZM246.533 74.8719C246.533 78.1085 245.802 80.8649 244.377 83.1798L246.08 84.228C247.728 81.5509 248.533 78.4193 248.533 74.8719H246.533ZM244.373 83.1861C243 85.4556 241.054 87.2886 238.508 88.6828L239.469 90.437C242.299 88.8872 244.514 86.8161 246.084 84.2217L244.373 83.1861ZM238.528 90.4474C241.711 92.1003 244.093 94.283 245.715 96.9864L247.43 95.9574C245.596 92.9008 242.922 90.4754 239.45 88.6724L238.528 90.4474ZM245.715 96.9864C247.336 99.6872 248.165 102.895 248.165 106.648H250.165C250.165 102.592 249.266 99.0165 247.43 95.9574L245.715 96.9864ZM248.165 106.648C248.165 111.143 247.029 114.969 244.793 118.171L246.433 119.316C248.933 115.735 250.165 111.497 250.165 106.648H248.165ZM244.798 118.164C242.544 121.331 239.495 123.748 235.619 125.409L236.407 127.247C240.594 125.452 243.945 122.812 246.428 119.324L244.798 118.164ZM235.613 125.411C231.786 127.078 227.508 127.92 222.765 127.92V129.92C227.749 129.92 232.303 129.034 236.412 127.245L235.613 125.411ZM222.765 127.92C218.021 127.92 213.709 127.078 209.815 125.409L209.027 127.247C213.196 129.034 217.78 129.92 222.765 129.92V127.92ZM209.82 125.411C206.008 123.751 202.988 121.335 200.732 118.164L199.102 119.324C201.582 122.809 204.897 125.449 209.021 127.245L209.82 125.411ZM200.737 118.171C198.501 114.969 197.365 111.143 197.365 106.648H195.365C195.365 111.497 196.597 115.735 199.097 119.316L200.737 118.171ZM197.365 106.648C197.365 102.895 198.194 99.6872 199.814 96.9864L198.099 95.9574C196.264 99.0165 195.365 102.592 195.365 106.648H197.365ZM199.814 96.9864C201.436 94.283 203.818 92.1003 207.002 90.4474L206.08 88.6724C202.607 90.4754 199.933 92.9008 198.099 95.9574L199.814 96.9864ZM230.101 77.8479C230.101 75.4403 229.479 73.4334 228.099 71.9761L226.647 73.3516C227.57 74.3264 228.101 75.7754 228.101 77.8479H230.101ZM228.116 71.9949C226.751 70.4787 224.932 69.7439 222.765 69.7439V71.7439C224.438 71.7439 225.69 72.2891 226.629 73.3328L228.116 71.9949ZM222.765 69.7439C220.65 69.7439 218.847 70.4852 217.432 71.9751L218.882 73.3526C219.898 72.2825 221.167 71.7439 222.765 71.7439V69.7439ZM217.413 71.9949C216.056 73.5032 215.429 75.4923 215.429 77.8479H217.429C217.429 75.8514 217.953 74.3846 218.9 73.3328L217.413 71.9949ZM215.429 77.8479C215.429 80.2006 216.055 82.1714 217.431 83.6236L218.883 82.2481C217.954 81.2683 217.429 79.8471 217.429 77.8479H215.429ZM217.45 83.643C218.869 85.0623 220.667 85.7599 222.765 85.7599V83.7599C221.151 83.7599 219.877 83.2414 218.864 82.2288L217.45 83.643ZM222.765 85.7599C224.863 85.7599 226.64 85.0616 228.003 83.6236L226.551 82.2481C225.609 83.2422 224.379 83.7599 222.765 83.7599V85.7599ZM227.984 83.643C229.434 82.1929 230.101 80.2151 230.101 77.8479H228.101C228.101 79.8327 227.552 81.2469 226.57 82.2288L227.984 83.643ZM222.765 96.6239C220.115 96.6239 217.87 97.4337 216.121 99.1099L217.505 100.554C218.828 99.2861 220.551 98.6239 222.765 98.6239V96.6239ZM216.122 99.1092C214.415 100.742 213.605 102.944 213.605 105.592H215.605C215.605 103.376 216.267 101.738 217.504 100.555L216.122 99.1092ZM213.605 105.592C213.605 108.13 214.425 110.283 216.106 111.963L217.52 110.549C216.256 109.285 215.605 107.662 215.605 105.592H213.605ZM216.106 111.963C217.802 113.659 220.06 114.464 222.765 114.464V112.464C220.477 112.464 218.768 111.797 217.52 110.549L216.106 111.963ZM222.765 114.464C225.468 114.464 227.706 113.659 229.343 111.947L227.898 110.565C226.72 111.796 225.054 112.464 222.765 112.464V114.464ZM229.328 111.963C231.008 110.283 231.829 108.13 231.829 105.592H229.829C229.829 107.662 229.177 109.285 227.914 110.549L229.328 111.963ZM231.829 105.592C231.829 102.944 231.019 100.742 229.312 99.1092L227.93 100.555C229.167 101.738 229.829 103.376 229.829 105.592H231.829ZM229.328 99.1248C227.637 97.4337 225.414 96.6239 222.765 96.6239V98.6239C224.98 98.6239 226.661 99.286 227.914 100.539L229.328 99.1248Z" fill="#2C4E8B"/>
<path d="M57.896 109.152V93.5999L87.368 51.5519H108.008V92.8319H115.4V109.152H108.008V120.672H89V109.152H57.896ZM90.44 72.7679L77.192 92.8319H90.44V72.7679ZM123.619 84.5759C123.619 73.5679 125.859 64.8959 130.339 58.5599C134.819 52.2239 141.859 49.0559 151.459 49.0559C161.059 49.0559 168.099 52.2239 172.579 58.5599C177.123 64.8959 179.395 73.5679 179.395 84.5759C179.395 95.7119 177.155 104.448 172.675 110.784C168.195 117.12 161.123 120.288 151.459 120.288C141.795 120.288 134.723 117.12 130.243 110.784C125.827 104.448 123.619 95.7119 123.619 84.5759ZM160.771 84.5759C160.771 78.8159 160.163 74.4319 158.947 71.4239C157.731 68.3519 155.235 66.8159 151.459 66.8159C147.683 66.8159 145.187 68.3519 143.971 71.4239C142.755 74.4319 142.147 78.8159 142.147 84.5759C142.147 90.4639 142.723 94.9439 143.875 98.0159C145.091 101.024 147.619 102.528 151.459 102.528C155.299 102.528 157.795 101.024 158.947 98.0159C160.163 94.9439 160.771 90.4639 160.771 84.5759ZM198.541 82.5599C192.845 79.4239 189.997 74.5279 189.997 67.8719C189.997 64.4159 190.893 61.2799 192.685 58.4639C194.541 55.5839 197.325 53.3119 201.037 51.6479C204.749 49.9199 209.325 49.0559 214.765 49.0559C220.205 49.0559 224.781 49.9199 228.493 51.6479C232.205 53.3119 234.957 55.5839 236.749 58.4639C238.605 61.2799 239.533 64.4159 239.533 67.8719C239.533 71.2639 238.765 74.2079 237.229 76.7039C235.757 79.1359 233.677 81.0879 230.989 82.5599C234.317 84.2879 236.845 86.5919 238.573 89.4719C240.301 92.3519 241.165 95.7439 241.165 99.6479C241.165 104.32 239.981 108.352 237.613 111.744C235.245 115.072 232.045 117.6 228.013 119.328C224.045 121.056 219.629 121.92 214.765 121.92C209.901 121.92 205.453 121.056 201.421 119.328C197.453 117.6 194.285 115.072 191.917 111.744C189.549 108.352 188.365 104.32 188.365 99.6479C188.365 95.7439 189.229 92.3519 190.957 89.4719C192.685 86.5919 195.213 84.2879 198.541 82.5599ZM221.101 70.8479C221.101 68.6079 220.525 66.8799 219.373 65.6639C218.221 64.3839 216.685 63.7439 214.765 63.7439C212.909 63.7439 211.373 64.3839 210.157 65.6639C209.005 66.9439 208.429 68.6719 208.429 70.8479C208.429 73.0239 209.005 74.7199 210.157 75.9359C211.373 77.1519 212.909 77.7599 214.765 77.7599C216.621 77.7599 218.125 77.1519 219.277 75.9359C220.493 74.7199 221.101 73.0239 221.101 70.8479ZM214.765 90.6239C212.333 90.6239 210.349 91.3599 208.813 92.8319C207.341 94.2399 206.605 96.1599 206.605 98.5919C206.605 100.896 207.341 102.784 208.813 104.256C210.285 105.728 212.269 106.464 214.765 106.464C217.261 106.464 219.213 105.728 220.621 104.256C222.093 102.784 222.829 100.896 222.829 98.5919C222.829 96.1599 222.093 94.2399 220.621 92.8319C219.149 91.3599 217.197 90.6239 214.765 90.6239Z" fill="#EA5B21"/>
<path d="M94.9076 187.486C99.989 185.448 110.161 185.451 117.694 173.376C124.036 163.205 130.843 126.645 169.585 128.459C208.327 130.273 220.492 165.408 210.08 203.68C200.664 238.308 177.894 265.207 144.424 272.486C115.102 278.864 89.2762 273.835 74.5595 251.904C61.6584 232.674 64.6847 199.609 94.9076 187.486Z" fill="url(#paint0_linear)"/>
<path d="M140.622 41.4876L140.868 41.4477L140.829 41.2009L139.491 32.9288L139.451 32.682L139.204 32.722L138.341 32.8615L138.094 32.9014L138.134 33.1482L139.472 41.4203L139.512 41.6671L139.758 41.6272L140.622 41.4876Z" fill="black" stroke="black" stroke-width="0.5"/>
<path d="M151.998 43.5275L152.202 43.6718L152.347 43.4676L155.349 39.2185L155.493 39.0143L155.289 38.87L154.575 38.3655L154.37 38.2212L154.226 38.4254L151.224 42.6745L151.08 42.8787L151.284 43.023L151.998 43.5275Z" fill="black" stroke="black" stroke-width="0.5"/>
<path d="M127.847 46.9026L128.051 47.0469L128.196 46.8427L128.7 46.1287L128.845 45.9245L128.64 45.7802L124.57 42.904L124.366 42.7597L124.222 42.9639L123.717 43.6779L123.573 43.8821L123.777 44.0264L127.847 46.9026Z" fill="black" stroke="black" stroke-width="0.5"/>
<path fill-rule="evenodd" clip-rule="evenodd" d="M168.77 286.944H120.31C120.199 286.944 120.109 286.854 120.109 286.744C120.109 286.633 120.199 286.543 120.31 286.543H168.77C168.881 286.543 168.971 286.633 168.971 286.744C168.971 286.854 168.881 286.944 168.77 286.944Z" fill="black"/>
<path fill-rule="evenodd" clip-rule="evenodd" d="M189.942 286.944H171.224C171.113 286.944 171.023 286.854 171.023 286.744C171.023 286.633 171.113 286.543 171.224 286.543H189.942C190.053 286.543 190.143 286.633 190.143 286.744C190.143 286.854 190.053 286.944 189.942 286.944Z" fill="black"/>
<path fill-rule="evenodd" clip-rule="evenodd" d="M203.491 286.944H192.205C192.094 286.944 192.004 286.854 192.004 286.744C192.004 286.633 192.094 286.543 192.205 286.543H203.491C203.602 286.543 203.692 286.633 203.692 286.744C203.692 286.854 203.602 286.944 203.491 286.944Z" fill="black"/>
<path d="M167.812 263.93L169.504 269.9L149.22 283.925L145.468 279.776C147.375 275.887 149.645 272.187 152.249 268.726C153.512 266.998 154.973 265.425 156.603 264.039L167.812 263.93Z" fill="black"/>
<path d="M160.135 267.338C160.859 267.372 161.58 267.226 162.235 266.915C162.304 266.874 162.354 266.808 162.375 266.731C162.395 266.654 162.384 266.571 162.344 266.502C162.325 266.467 162.299 266.437 162.267 266.413C162.236 266.388 162.199 266.37 162.161 266.36C162.123 266.35 162.082 266.348 162.043 266.353C162.004 266.359 161.966 266.372 161.931 266.393C161.931 266.393 160.887 266.965 158.897 266.621C157.071 266.308 156.409 265.721 156.409 265.716C156.35 265.66 156.272 265.631 156.191 265.633C156.11 265.635 156.034 265.67 155.978 265.728C155.923 265.787 155.893 265.865 155.896 265.946C155.898 266.027 155.932 266.103 155.991 266.159C156.021 266.159 156.757 266.865 158.792 267.218C159.235 267.298 159.685 267.338 160.135 267.338Z" fill="white"/>
<path d="M158.9 269.374C159.624 269.408 160.345 269.263 161 268.951C161.07 268.911 161.121 268.845 161.142 268.767C161.163 268.689 161.152 268.606 161.112 268.536C161.072 268.466 161.005 268.415 160.927 268.394C160.849 268.373 160.766 268.384 160.696 268.424C160.696 268.424 159.652 269.001 157.661 268.658C155.835 268.34 155.174 267.757 155.174 267.752C155.115 267.704 155.039 267.68 154.963 267.684C154.886 267.689 154.815 267.722 154.762 267.778C154.709 267.833 154.679 267.906 154.678 267.983C154.677 268.059 154.705 268.133 154.756 268.19C154.786 268.22 155.522 268.902 157.557 269.255C158.001 269.332 158.45 269.372 158.9 269.374Z" fill="white"/>
<path d="M157.651 271.392C158.376 271.427 159.098 271.28 159.751 270.964C159.789 270.946 159.824 270.921 159.852 270.889C159.88 270.857 159.901 270.82 159.914 270.78C159.926 270.739 159.931 270.697 159.926 270.655C159.921 270.613 159.908 270.572 159.887 270.535C159.865 270.499 159.837 270.467 159.802 270.442C159.768 270.417 159.729 270.4 159.688 270.391C159.646 270.382 159.604 270.382 159.562 270.391C159.521 270.399 159.482 270.417 159.447 270.441C159.422 270.441 158.392 271.018 156.407 270.67C154.581 270.357 153.92 269.77 153.92 269.765C153.891 269.734 153.857 269.71 153.819 269.693C153.781 269.677 153.739 269.668 153.698 269.668C153.656 269.668 153.615 269.677 153.577 269.693C153.538 269.71 153.504 269.734 153.476 269.764C153.447 269.795 153.425 269.831 153.411 269.87C153.398 269.909 153.392 269.951 153.395 269.993C153.398 270.034 153.409 270.075 153.428 270.112C153.448 270.149 153.474 270.181 153.507 270.207C153.537 270.237 154.273 270.919 156.308 271.267C156.751 271.348 157.201 271.39 157.651 271.392Z" fill="white"/>
<path d="M156.329 273.325C157.054 273.36 157.776 273.213 158.429 272.897C158.474 272.848 158.502 272.786 158.508 272.72C158.515 272.654 158.499 272.587 158.464 272.531C158.429 272.474 158.377 272.431 158.314 272.407C158.252 272.383 158.184 272.381 158.12 272.4C158.12 272.4 157.07 272.977 155.085 272.628C153.259 272.315 152.598 271.733 152.598 271.723C152.54 271.668 152.463 271.637 152.384 271.637C152.304 271.637 152.227 271.668 152.17 271.723C152.141 271.751 152.118 271.784 152.103 271.821C152.087 271.858 152.079 271.897 152.079 271.937C152.079 271.977 152.087 272.016 152.103 272.053C152.118 272.09 152.141 272.123 152.17 272.151C152.2 272.181 152.936 272.862 154.966 273.211C155.416 273.289 155.872 273.327 156.329 273.325Z" fill="white"/>
<path d="M169.175 268.738L150.991 281.177C150.726 281.353 150.411 281.439 150.094 281.424C149.776 281.409 149.471 281.292 149.224 281.092L146.11 278.49L145.398 279.893C145.287 280.11 145.248 280.356 145.287 280.597C145.325 280.838 145.439 281.06 145.612 281.231L148.438 284.017C148.623 284.2 148.865 284.315 149.123 284.342C149.382 284.369 149.642 284.307 149.861 284.167L169.195 271.778C169.405 271.648 169.567 271.454 169.656 271.224C169.746 270.995 169.759 270.742 169.693 270.505L169.175 268.738Z" fill="#EF6744"/>
<path d="M156.687 194.863L151.692 212.6L170.295 217.839V194.863H156.687Z" fill="#151E27"/>
<path d="M151.692 212.602L151.618 212.86L170.295 218.119V217.841L151.692 212.602Z" fill="#151E27"/>
<path d="M151.618 212.859L151.548 213.118L170.295 218.397V218.118L151.618 212.859Z" fill="#151E28"/>
<path d="M151.548 213.117L151.473 213.376L170.295 218.675V218.396L151.548 213.117Z" fill="#161F29"/>
<path d="M151.473 213.379L151.404 213.638L170.295 218.956V218.678L151.473 213.379Z" fill="#16202A"/>
<path d="M151.404 213.637L151.329 213.895L170.295 219.234V218.955L151.404 213.637Z" fill="#17202B"/>
<path d="M151.329 213.895L151.259 214.148L170.295 219.512V219.233L151.329 213.895Z" fill="#17212C"/>
<path d="M151.259 214.148L151.185 214.407L170.295 219.79V219.512L151.259 214.148Z" fill="#18212C"/>
<path d="M151.185 214.406L151.11 214.665L170.295 220.068V219.79L151.185 214.406Z" fill="#18222D"/>
<path d="M151.11 214.664L151.04 214.923L170.295 220.346V220.067L151.11 214.664Z" fill="#19222E"/>
<path d="M151.04 214.926L150.966 215.18L170.295 220.623V220.349L151.04 214.926Z" fill="#19232F"/>
<path d="M150.966 215.18L150.891 215.438L170.295 220.901V220.623L150.966 215.18Z" fill="#1A2430"/>
<path d="M150.891 215.438L150.822 215.696L170.295 221.179V220.9L150.891 215.438Z" fill="#1A2431"/>
<path d="M150.822 215.695L150.747 215.954L170.295 221.457V221.178L150.822 215.695Z" fill="#1A2532"/>
<path d="M150.747 215.953L150.677 216.212L170.295 221.734V221.456L150.747 215.953Z" fill="#1B2533"/>
<path d="M150.677 216.215L150.603 216.469L170.295 222.016V221.737L150.677 216.215Z" fill="#1B2634"/>
<path d="M150.603 216.465L150.533 216.724L170.295 222.291V222.012L150.603 216.465Z" fill="#1C2635"/>
<path d="M150.533 216.727L150.458 216.985L170.295 222.573V222.294L150.533 216.727Z" fill="#1C2735"/>
<path d="M150.458 216.984L150.384 217.243L170.295 222.85V222.572L150.458 216.984Z" fill="#1C2736"/>
<path d="M150.384 217.242L150.314 217.501L170.295 223.128V222.849L150.384 217.242Z" fill="#1D2837"/>
<path d="M150.314 217.5L150.239 217.754L170.295 223.401V223.127L150.314 217.5Z" fill="#1D2838"/>
<path d="M150.239 217.754L150.17 218.013L170.295 223.68V223.401L150.239 217.754Z" fill="#1E2939"/>
<path d="M150.17 218.016L150.095 218.274L170.295 223.961V223.683L150.17 218.016Z" fill="#1E293A"/>
<path d="M150.095 218.273L150.02 218.532L170.295 224.239V223.96L150.095 218.273Z" fill="#1E2A3B"/>
<path d="M150.02 218.531L149.951 218.79L170.295 224.517V224.238L150.02 218.531Z" fill="#1F2A3C"/>
<path d="M149.951 218.789L149.876 219.043L170.295 224.794V224.516L149.951 218.789Z" fill="#1F2B3C"/>
<path d="M149.876 219.043L149.807 219.302L170.295 225.073V224.794L149.876 219.043Z" fill="#1F2B3D"/>
<path d="M149.807 219.301L149.732 219.559L170.295 225.351V225.072L149.807 219.301Z" fill="#202C3E"/>
<path d="M149.732 219.562L149.662 219.821L170.295 225.632V225.354L149.732 219.562Z" fill="#202C3F"/>
<path d="M149.662 219.82L149.588 220.079L170.295 225.91V225.631L149.662 219.82Z" fill="#202C40"/>
<path d="M149.588 220.078L149.513 220.337L170.295 226.188V225.909L149.588 220.078Z" fill="#202D41"/>
<path d="M149.513 220.336L149.443 220.59L170.295 226.461V226.187L149.513 220.336Z" fill="#212D42"/>
<path d="M149.443 220.59L149.369 220.849L170.295 226.739V226.461L149.443 220.59Z" fill="#212E42"/>
<path d="M149.369 220.848L149.299 221.106L170.295 227.017V226.738L149.369 220.848Z" fill="#212E43"/>
<path d="M149.299 221.109L149.224 221.368L170.295 227.299V227.02L149.299 221.109Z" fill="#222F44"/>
<path d="M149.224 221.367L149.15 221.626L170.295 227.576V227.298L149.224 221.367Z" fill="#222F45"/>
<path d="M149.15 221.625L149.08 221.879L170.295 227.854V227.575L149.15 221.625Z" fill="#223046"/>
<path d="M149.08 221.879L149.006 222.138L170.295 228.133V227.854L149.08 221.879Z" fill="#223047"/>
<path d="M149.006 222.141L148.936 222.399L170.295 228.415V228.136L149.006 222.141Z" fill="#233048"/>
<path d="M148.936 222.398L148.861 222.657L170.295 228.692V228.414L148.936 222.398Z" fill="#233148"/>
<path d="M148.861 222.656L148.792 222.915L170.295 228.97V228.691L148.861 222.656Z" fill="#233149"/>
<path d="M148.792 222.914L148.717 223.168L170.295 229.248V228.969L148.792 222.914Z" fill="#23324A"/>
<path d="M148.717 223.168L148.642 223.427L170.295 229.521V229.248L148.717 223.168Z" fill="#24324B"/>
<path d="M148.642 223.426L148.573 223.684L170.295 229.799V229.521L148.642 223.426Z" fill="#24334C"/>
<path d="M148.573 223.688L148.498 223.946L170.295 230.081V229.802L148.573 223.688Z" fill="#24334D"/>
<path d="M148.498 223.945L148.428 224.204L170.295 230.358V230.08L148.498 223.945Z" fill="#24334D"/>
<path d="M148.428 224.203L148.354 224.457L170.295 230.636V230.358L148.428 224.203Z" fill="#25344E"/>
<path d="M148.354 224.457L148.279 224.716L170.295 230.915V230.636L148.354 224.457Z" fill="#25344F"/>
<path d="M148.279 224.715L148.209 224.974L170.295 231.193V230.914L148.279 224.715Z" fill="#253550"/>
<path d="M148.209 224.973L148.135 225.231L170.295 231.47V231.192L148.209 224.973Z" fill="#253551"/>
<path d="M148.135 225.234L148.065 225.493L170.295 231.752V231.473L148.135 225.234Z" fill="#263552"/>
<path d="M148.065 225.492L147.991 225.746L170.295 232.03V231.751L148.065 225.492Z" fill="#263653"/>
<path d="M147.991 225.746L147.951 225.89V226.015L170.295 232.309V232.03L147.991 225.746Z" fill="#263653"/>
<path d="M147.951 226.294L170.295 232.588V232.309L147.951 226.016V226.294Z" fill="#263754"/>
<path d="M147.951 226.572L170.295 232.86V232.587L147.951 226.293V226.572Z" fill="#273755"/>
<path d="M147.951 226.849L170.295 233.138V232.859L147.951 226.57V226.849Z" fill="#273756"/>
<path d="M147.951 227.13L170.295 233.419V233.14L147.951 226.852V227.13Z" fill="#273857"/>
<path d="M147.951 227.403L170.295 233.696V233.418L147.951 227.129V227.403Z" fill="#273858"/>
<path d="M147.951 227.681L170.295 233.975V233.696L147.951 227.402V227.681Z" fill="#273959"/>
<path d="M147.951 227.958L170.295 234.252V233.973L147.951 227.68V227.958Z" fill="#283959"/>
<path d="M147.951 228.24L170.295 234.533V234.255L147.951 227.961V228.24Z" fill="#28395A"/>
<path d="M147.951 228.517L170.295 234.811V234.532L147.951 228.238V228.517Z" fill="#283A5B"/>
<path d="M147.951 228.794L170.295 235.088V234.809L147.951 228.516V228.794Z" fill="#283A5C"/>
<path d="M147.951 229.075L170.295 235.369V235.091L147.951 228.797V229.075Z" fill="#283B5D"/>
<path d="M147.951 229.353L170.295 235.647V235.368L147.951 229.074V229.353Z" fill="#293B5E"/>
<path d="M147.951 229.63L170.295 235.919V235.645L147.951 229.352V229.63Z" fill="#293B5E"/>
<path d="M147.951 229.911L170.295 236.2V235.922L147.951 229.633V229.911Z" fill="#293C5F"/>
<path d="M147.951 230.189L170.295 236.478V236.199L147.951 229.91V230.189Z" fill="#293C60"/>
<path d="M147.951 230.461L170.295 236.755V236.476L147.951 230.188V230.461Z" fill="#293C61"/>
<path d="M147.951 230.74L170.295 237.033V236.755L147.951 230.461V230.74Z" fill="#293D62"/>
<path d="M147.951 231.021L170.295 237.315V237.036L147.951 230.742V231.021Z" fill="#293D63"/>
<path d="M147.951 231.298L170.295 237.592V237.313L147.951 231.02V231.298Z" fill="#2A3D63"/>
<path d="M147.951 231.575L170.295 237.869V237.591L147.951 231.297V231.575Z" fill="#2A3E64"/>
<path d="M147.951 231.857L170.295 238.151V237.872L147.951 231.578V231.857Z" fill="#2A3E65"/>
<path d="M147.951 232.134L170.295 238.428V238.149L147.951 231.855V232.134Z" fill="#2A3F66"/>
<path d="M147.951 232.411L170.295 238.705V238.427L147.951 232.133V232.411Z" fill="#2A3F67"/>
<path d="M147.951 232.693L170.295 238.981V238.708L147.951 232.414V232.693Z" fill="#2A3F67"/>
<path d="M147.951 232.97L170.295 239.259V238.98L147.951 232.691V232.97Z" fill="#2A4068"/>
<path d="M147.951 233.242L170.295 239.536V239.258L147.951 232.969V233.242Z" fill="#2B4069"/>
<path d="M147.951 233.521L170.295 239.815V239.536L147.951 233.242V233.521Z" fill="#2B406A"/>
<path d="M147.951 233.802L170.295 240.096V239.817L147.951 233.523V233.802Z" fill="#2B416B"/>
<path d="M147.951 234.079L170.295 240.373V240.095L147.951 233.801V234.079Z" fill="#2B416B"/>
<path d="M147.951 234.357L170.295 240.651V240.372L147.951 234.078V234.357Z" fill="#2B416C"/>
<path d="M147.951 234.638L170.295 240.932V240.653L147.951 234.359V234.638Z" fill="#2B426D"/>
<path d="M147.951 234.915L170.295 241.209V240.93L147.951 234.637V234.915Z" fill="#2B426E"/>
<path d="M147.951 235.193L170.295 241.481V241.208L147.951 234.914V235.193Z" fill="#2B426F"/>
<path d="M147.951 235.474L170.295 241.763V241.484L147.951 235.195V235.474Z" fill="#2B436F"/>
<path d="M147.951 235.751L170.295 242.04V241.761L147.951 235.473V235.751Z" fill="#2B4370"/>
<path d="M147.951 236.029L170.295 242.317V242.039L147.951 235.75V236.029Z" fill="#2C4371"/>
<path d="M147.951 236.305L170.295 242.599V242.32L147.951 236.031V236.305Z" fill="#2C4472"/>
<path d="M147.951 236.583L170.295 242.877V242.598L147.951 236.305V236.583Z" fill="#2C4472"/>
<path d="M147.951 236.861L170.295 243.154V242.876L147.951 236.582V236.861Z" fill="#2C4473"/>
<path d="M147.951 237.138L170.295 243.432V243.153L147.951 236.859V237.138Z" fill="#2C4474"/>
<path d="M147.951 237.419L170.295 243.713V243.434L147.951 237.141V237.419Z" fill="#2C4575"/>
<path d="M147.951 237.697L170.295 243.99V243.712L147.951 237.418V237.697Z" fill="#2C4575"/>
<path d="M147.951 237.974L170.295 244.268V243.989L147.951 237.695V237.974Z" fill="#2C4576"/>
<path d="M147.951 238.255L170.295 244.549V244.27L147.951 237.977V238.255Z" fill="#2C4677"/>
<path d="M147.951 238.533L170.295 244.821V244.548L147.951 238.254V238.533Z" fill="#2C4678"/>
<path d="M147.951 238.81L170.295 245.099V244.82L147.951 238.531V238.81Z" fill="#2C4678"/>
<path d="M147.951 239.091L170.295 245.38V245.101L147.951 238.812V239.091Z" fill="#2C4679"/>
<path d="M147.951 239.368L170.295 245.657V245.379L147.951 239.09V239.368Z" fill="#2C477A"/>
<path d="M147.951 239.641L170.295 245.935V245.656L147.951 239.367V239.641Z" fill="#2C477A"/>
<path d="M147.951 239.919L170.295 246.213V245.934L147.951 239.641V239.919Z" fill="#2C477B"/>
<path d="M147.951 240.2L170.295 246.494V246.216L147.951 239.922V240.2Z" fill="#2C477C"/>
<path d="M147.951 240.478L170.295 246.772V246.493L147.951 240.199V240.478Z" fill="#2C487C"/>
<path d="M147.951 240.755L170.295 247.049V246.77L147.951 240.477V240.755Z" fill="#2C487D"/>
<path d="M147.951 241.033L170.295 247.326V247.048L147.951 240.754V241.033Z" fill="#2C487E"/>
<path d="M147.951 241.314L170.295 247.608V247.329L147.951 241.035V241.314Z" fill="#2C487F"/>
<path d="M147.951 241.591L170.295 247.88V247.606L147.951 241.312V241.591Z" fill="#2C497F"/>
<path d="M147.951 241.872L170.295 248.161V247.883L147.951 241.594V241.872Z" fill="#2C4980"/>
<path d="M147.951 242.145L170.295 248.439V248.16L147.951 241.871V242.145Z" fill="#2C4981"/>
<path d="M147.951 242.423L170.295 248.717V248.438L147.951 242.145V242.423Z" fill="#2C4981"/>
<path d="M147.951 242.7L170.295 248.994V248.716L147.951 242.422V242.7Z" fill="#2C4A82"/>
<path d="M147.951 242.982L170.295 249.276V248.997L147.951 242.703V242.982Z" fill="#2C4A83"/>
<path d="M147.951 243.259L170.295 249.553V249.274L147.951 242.98V243.259Z" fill="#2C4A83"/>
<path d="M147.951 243.536L170.295 249.83V249.552L147.951 243.258V243.536Z" fill="#2C4A84"/>
<path d="M147.951 243.818L170.295 250.111V249.833L147.951 243.539V243.818Z" fill="#2C4B85"/>
<path d="M147.951 244.095L170.295 250.389V250.11L147.951 243.816V244.095Z" fill="#2C4B85"/>
<path d="M147.951 244.372L170.295 250.661V250.388L147.951 244.094V244.372Z" fill="#2C4B86"/>
<path d="M147.951 244.65L170.295 250.939V250.66L147.951 244.371V244.65Z" fill="#2C4B87"/>
<path d="M147.951 244.931L170.295 251.22V250.941L147.951 244.652V244.931Z" fill="#2C4C87"/>
<path d="M147.951 245.208L170.295 251.497V251.218L147.951 244.93V245.208Z" fill="#2C4C88"/>
<path d="M147.951 245.485L170.295 251.778V251.5L147.951 245.211V245.485Z" fill="#2C4C88"/>
<path d="M147.951 245.763L170.295 252.057V251.778L147.951 245.484V245.763Z" fill="#2C4C89"/>
<path d="M147.951 246.04L170.295 252.334V252.055L147.951 245.762V246.04Z" fill="#2C4C8A"/>
<path d="M147.951 246.318L170.295 252.611V252.333L147.951 246.039V246.318Z" fill="#2C4D8A"/>
<path d="M147.951 246.599L170.295 252.893V252.614L147.951 246.32V246.599Z" fill="#2B4D8B"/>
<path d="M147.951 246.876L170.295 253.17V252.891L147.951 246.598V246.876Z" fill="#2B4D8B"/>
<path d="M147.951 247.154L170.295 253.447V253.169L147.951 246.875V247.154Z" fill="#2B4D8C"/>
<path d="M147.951 247.435L170.295 253.729V253.45L147.951 247.156V247.435Z" fill="#2B4D8D"/>
<path d="M147.951 247.712L170.295 254.001V253.727L147.951 247.434V247.712Z" fill="#2B4E8D"/>
<path d="M147.951 247.99L170.295 254.278V254L147.951 247.711V247.99Z" fill="#2B4E8E"/>
<path d="M147.951 248.262L170.295 254.556V254.277L147.951 247.988V248.262Z" fill="#2B4E8E"/>
<path d="M147.951 248.54L170.295 254.834V254.555L147.951 248.262V248.54Z" fill="#2B4E8F"/>
<path d="M147.951 248.822L170.295 255.115V254.837L147.951 248.543V248.822Z" fill="#2B4E90"/>
<path d="M147.951 249.099L170.295 255.393V255.114L147.951 248.82V249.099Z" fill="#2B4F90"/>
<path d="M147.951 249.38L170.295 255.674V255.395L147.951 249.102V249.38Z" fill="#2B4F91"/>
<path d="M147.951 249.658L170.295 255.951V255.673L147.951 249.379V249.658Z" fill="#2B4F91"/>
<path d="M147.951 249.935L170.295 256.229V255.95L147.951 249.656V249.935Z" fill="#2A4F92"/>
<path d="M147.951 250.216L170.295 256.51V256.231L147.951 249.938V250.216Z" fill="#2A4F92"/>
<path d="M147.951 250.493L170.295 256.782V256.509L147.951 250.215V250.493Z" fill="#2A4F93"/>
<path d="M147.951 250.771L170.295 257.06V256.781L147.951 250.492V250.771Z" fill="#2A5093"/>
<path d="M147.951 251.048L170.295 257.337V257.058L147.951 250.77V251.048Z" fill="#2A5094"/>
<path d="M147.951 251.329L170.295 257.618V257.34L147.951 251.051V251.329Z" fill="#2A5094"/>
<path d="M147.951 251.602L170.295 257.896V257.617L147.951 251.328V251.602Z" fill="#2A5095"/>
<path d="M147.951 251.88L170.295 258.174V257.895L147.951 251.602V251.88Z" fill="#2A5095"/>
<path d="M147.951 252.158L170.295 258.451V258.173L147.951 251.879V252.158Z" fill="#2A5096"/>
<path d="M147.951 252.439L170.295 258.733V258.454L147.951 252.16V252.439Z" fill="#2A5196"/>
<path d="M147.951 252.716L170.295 259.01V258.731L147.951 252.438V252.716Z" fill="#295197"/>
<path d="M147.951 252.997L170.295 259.291V259.013L147.951 252.719V252.997Z" fill="#295197"/>
<path d="M147.951 253.275L170.295 259.569V259.29L147.951 252.996V253.275Z" fill="#295198"/>
<path d="M147.951 253.552L170.23 259.826L170.295 259.597V259.567L147.951 253.273V253.552Z" fill="#295198"/>
<path d="M147.951 253.833L170.161 260.087L170.23 259.829L147.951 253.555V253.833Z" fill="#295199"/>
<path d="M147.95 254.111L170.086 260.34L170.16 260.086L147.95 253.832V254.111Z" fill="#295199"/>
<path d="M147.951 254.383L170.016 260.597L170.086 260.338L147.951 254.109V254.383Z" fill="#29529A"/>
<path d="M147.95 254.661L169.941 260.856L170.016 260.597L147.95 254.383V254.661Z" fill="#29529A"/>
<path d="M147.95 254.943L169.867 261.117L169.941 260.858L147.95 254.664V254.943Z" fill="#29529B"/>
<path d="M147.951 255.22L169.798 261.374L169.867 261.116L147.951 254.941V255.22Z" fill="#29529B"/>
<path d="M147.95 255.497L169.722 261.627L169.797 261.373L147.95 255.219V255.497Z" fill="#28529B"/>
<path d="M147.951 255.775L169.653 261.884L169.723 261.626L147.951 255.496V255.775Z" fill="#28529C"/>
<path d="M147.95 256.056L169.578 262.146L169.652 261.887L147.95 255.777V256.056Z" fill="#28529C"/>
<path d="M147.95 256.333L169.503 262.403L169.578 262.144L147.95 256.055V256.333Z" fill="#28539D"/>
<path d="M147.951 256.615L169.434 262.665L169.504 262.406L147.951 256.336V256.615Z" fill="#28539D"/>
<path d="M147.95 256.892L169.359 262.917L169.434 262.663L147.95 256.613V256.892Z" fill="#28539E"/>
<path d="M147.951 257.169L169.29 263.174L169.359 262.916L147.951 256.891V257.169Z" fill="#28539E"/>
<path d="M147.95 257.446L169.214 263.436L169.289 263.177L147.95 257.172V257.446Z" fill="#28539E"/>
<path d="M147.95 257.72L169.14 263.69L169.215 263.432L147.95 257.441V257.72Z" fill="#28539F"/>
<path d="M147.951 258.001L169.071 263.952L169.141 263.693L147.951 257.723V258.001Z" fill="#28539F"/>
<path d="M147.95 258.279L168.453 264.055H169.04L169.07 263.95L147.95 258V258.279Z" fill="#2854A0"/>
<path d="M147.95 258.556L167.468 264.054H168.453L147.95 258.277V258.556Z" fill="#2854A0"/>
<path d="M147.951 258.837L166.479 264.056H167.469L147.951 258.559V258.837Z" fill="#2854A0"/>
<path d="M147.95 259.115L165.493 264.055H166.479L147.95 258.836V259.115Z" fill="#2754A1"/>
<path d="M147.951 259.392L164.504 264.054H165.494L147.951 259.113V259.392Z" fill="#2754A1"/>
<path d="M147.951 259.673L163.519 264.056H164.504L147.951 259.395V259.673Z" fill="#2754A2"/>
<path d="M147.95 259.95L162.527 264.055H163.518L147.95 259.672V259.95Z" fill="#2754A2"/>
<path d="M147.952 260.228L161.544 264.054H162.529L147.952 259.949V260.228Z" fill="#2755A2"/>
<path d="M147.95 260.509L160.553 264.056H161.543L147.95 260.23V260.509Z" fill="#2755A3"/>
<path d="M147.95 260.781L159.563 264.055H160.553L147.95 260.508V260.781Z" fill="#2755A3"/>
<path d="M147.95 261.06L158.577 264.055H159.562L147.95 260.781V261.06Z" fill="#2755A3"/>
<path d="M147.951 261.337L157.588 264.054H158.578L147.951 261.059V261.337Z" fill="#2755A3"/>
<path d="M147.951 261.618L156.603 264.056H157.588L147.951 261.34V261.618Z" fill="#2755A3"/>
<path d="M156.604 264.055L147.951 261.617V264.055H156.604Z" fill="#2755A3"/>
<path d="M156.452 259.8L165.089 259.576C165.169 259.573 165.244 259.539 165.299 259.482C165.354 259.424 165.384 259.347 165.383 259.267C165.38 259.187 165.347 259.111 165.289 259.056C165.231 259 165.154 258.969 165.074 258.969L156.437 259.198C156.394 259.192 156.351 259.196 156.31 259.208C156.268 259.221 156.23 259.242 156.198 259.271C156.166 259.299 156.14 259.334 156.122 259.374C156.104 259.413 156.095 259.455 156.095 259.499C156.095 259.542 156.104 259.584 156.122 259.624C156.14 259.663 156.166 259.698 156.198 259.727C156.23 259.755 156.268 259.776 156.31 259.789C156.351 259.801 156.394 259.805 156.437 259.8H156.452Z" fill="white"/>
<path d="M159.338 203.977L181.702 270.367L192.15 274.084L183.065 206.912L159.338 203.977Z" fill="url(#paint1_linear)"/>
<path d="M192.141 274.035L193.35 280.349L168.423 282.439L167.488 276.921C171.184 274.663 175.085 272.761 179.14 271.239C181.133 270.46 183.21 269.916 185.329 269.617L192.141 274.035Z" fill="black"/>
<path d="M186.628 275.414C186.701 275.404 186.768 275.369 186.817 275.313C186.866 275.258 186.893 275.186 186.893 275.113C186.893 275.039 186.866 274.968 186.817 274.912C186.768 274.857 186.701 274.821 186.628 274.812C186.628 274.812 185.434 274.732 183.941 273.374C182.568 272.13 182.329 271.284 182.329 271.274C182.308 271.197 182.258 271.132 182.189 271.092C182.12 271.052 182.038 271.041 181.961 271.06C181.923 271.07 181.887 271.086 181.855 271.11C181.823 271.133 181.796 271.163 181.776 271.196C181.755 271.23 181.742 271.268 181.736 271.307C181.73 271.346 181.732 271.385 181.742 271.424C181.742 271.463 182.006 272.419 183.533 273.822C185.215 275.349 186.548 275.414 186.603 275.414H186.628Z" fill="white"/>
<path d="M184.499 276.471C184.58 276.471 184.657 276.439 184.714 276.382C184.771 276.325 184.803 276.248 184.803 276.167C184.803 276.087 184.771 276.01 184.714 275.953C184.657 275.896 184.58 275.864 184.499 275.864C184.499 275.864 183.305 275.784 181.818 274.431C180.444 273.187 180.206 272.341 180.201 272.331C180.177 272.258 180.126 272.196 180.059 272.159C179.991 272.122 179.912 272.111 179.837 272.13C179.762 272.149 179.697 272.196 179.656 272.261C179.614 272.326 179.599 272.405 179.613 272.481C179.613 272.52 179.882 273.476 181.41 274.879C183.086 276.406 184.395 276.471 184.479 276.471H184.499Z" fill="white"/>
<path d="M182.359 277.5C182.439 277.5 182.516 277.468 182.573 277.412C182.63 277.355 182.662 277.277 182.662 277.197C182.662 277.116 182.63 277.039 182.573 276.982C182.516 276.925 182.439 276.893 182.359 276.893C182.334 276.893 181.165 276.814 179.672 275.461C178.304 274.212 178.06 273.366 178.06 273.361C178.04 273.283 177.99 273.216 177.921 273.175C177.852 273.134 177.77 273.122 177.692 273.142C177.653 273.151 177.617 273.168 177.586 273.191C177.554 273.215 177.527 273.244 177.507 273.278C177.486 273.312 177.473 273.349 177.467 273.388C177.461 273.427 177.463 273.467 177.473 273.505C177.473 273.55 177.737 274.5 179.264 275.908C180.946 277.431 182.279 277.495 182.334 277.5H182.359Z" fill="white"/>
<path d="M180.204 278.419C180.283 278.419 180.359 278.388 180.415 278.333C180.472 278.279 180.505 278.204 180.508 278.125C180.509 278.045 180.479 277.967 180.424 277.909C180.37 277.85 180.294 277.816 180.214 277.812C180.214 277.812 179.02 277.732 177.533 276.379C176.159 275.135 175.921 274.289 175.916 274.279C175.906 274.241 175.888 274.205 175.864 274.173C175.841 274.142 175.811 274.115 175.776 274.095C175.742 274.075 175.704 274.062 175.665 274.057C175.626 274.052 175.586 274.055 175.547 274.065C175.471 274.085 175.405 274.134 175.364 274.202C175.323 274.27 175.31 274.351 175.328 274.429C175.328 274.468 175.597 275.424 177.125 276.827C178.801 278.354 180.14 278.419 180.194 278.419H180.204Z" fill="white"/>
<path d="M193.35 280.299L171.418 281.041C171.103 281.054 170.791 280.964 170.531 280.784C170.271 280.605 170.076 280.345 169.976 280.046L168.742 276.18L167.388 276.981C167.179 277.104 167.015 277.29 166.919 277.513C166.824 277.736 166.801 277.983 166.856 278.22L167.742 282.095C167.799 282.349 167.941 282.575 168.145 282.736C168.348 282.897 168.601 282.984 168.861 282.981L192.529 282.797C193.026 282.797 193.668 282.732 193.618 281.981L193.35 280.299Z" fill="#EF6744"/>
<path d="M182.722 240.616H182.757L185.354 240.313C185.395 240.309 185.434 240.297 185.47 240.278C185.506 240.259 185.538 240.233 185.563 240.201C185.589 240.17 185.608 240.133 185.619 240.094C185.63 240.055 185.634 240.014 185.629 239.973C185.624 239.933 185.61 239.894 185.59 239.858C185.57 239.823 185.542 239.792 185.51 239.768C185.477 239.743 185.44 239.726 185.4 239.716C185.361 239.706 185.32 239.704 185.28 239.711L182.687 240.014C182.607 240.019 182.532 240.055 182.478 240.116C182.424 240.176 182.397 240.255 182.401 240.335C182.406 240.416 182.442 240.491 182.503 240.545C182.563 240.598 182.642 240.626 182.722 240.621V240.616Z" fill="white"/>
<path d="M184.333 243.323C184.409 243.323 184.481 243.294 184.537 243.244L186.383 241.542C186.436 241.485 186.465 241.412 186.465 241.335C186.465 241.258 186.436 241.184 186.383 241.128C186.331 241.072 186.259 241.037 186.183 241.032C186.106 241.027 186.03 241.05 185.97 241.099L184.104 242.821C184.059 242.862 184.027 242.916 184.014 242.975C184 243.035 184.004 243.097 184.026 243.154C184.048 243.211 184.087 243.26 184.137 243.295C184.187 243.329 184.247 243.348 184.308 243.348L184.333 243.323Z" fill="white"/>
<path d="M168.087 165.029L171.799 164.531L180.809 165.029L183.078 174.253L184.779 206.593L152.865 204.411L151.565 184.265L152.865 168.343L168.087 165.029Z" fill="#F1C4D9"/>
<path d="M162.084 160.275C162.084 160.275 163.019 160.126 163.203 159.534C163.203 159.489 163.228 159.434 163.243 159.37C163.412 158.733 164.139 156.479 165.596 157.847C166.463 158.577 167.069 159.569 167.323 160.673C167.467 161.519 167.208 161.927 167.597 162.628C167.865 163.126 168.567 163.305 168.895 163.41C168.944 163.458 168.98 163.518 169 163.584L170.492 165.828C170.377 166.181 170.169 166.496 169.89 166.74C169.61 166.984 169.27 167.149 168.905 167.216C167.786 167.38 166.781 166.345 166.781 166.345L165.875 164.589C164.88 164.619 163.089 164.385 162.512 163.932C161.84 163.405 162.392 161.549 162.392 161.549L162.084 160.275Z" fill="#EF6744"/>
<path d="M164.751 160.341H164.786C164.805 160.337 164.823 160.328 164.84 160.316C164.856 160.304 164.869 160.289 164.879 160.272C164.89 160.255 164.896 160.236 164.899 160.216C164.902 160.196 164.9 160.176 164.895 160.157C164.884 160.08 164.857 160.006 164.817 159.939C164.776 159.872 164.723 159.814 164.66 159.767C164.597 159.721 164.526 159.688 164.45 159.669C164.374 159.651 164.296 159.647 164.218 159.659C164.179 159.667 164.145 159.69 164.123 159.724C164.101 159.757 164.094 159.797 164.101 159.836C164.109 159.875 164.132 159.909 164.166 159.931C164.199 159.953 164.239 159.961 164.278 159.953C164.522 159.903 164.602 160.212 164.602 160.227C164.61 160.26 164.63 160.289 164.657 160.309C164.684 160.33 164.717 160.341 164.751 160.341Z" fill="black"/>
<path d="M178.424 199.789C178.86 199.876 179.275 200.049 179.643 200.298C180.012 200.548 180.326 200.869 180.568 201.242C181.109 201.944 181.437 202.787 181.514 203.67C180.378 204.59 179.123 205.352 177.782 205.934C175.563 206.899 173.981 206.769 173.638 206.645C172.643 206.282 172.951 205.784 172.951 205.784C172.951 205.784 172.299 205.376 172.364 204.819C172.414 204.416 173.021 204.322 173.021 204.322C172.925 204.227 172.861 204.104 172.838 203.971C172.815 203.839 172.834 203.702 172.891 203.58C173.125 203.207 174.732 203.401 175.449 203.083C175.862 202.899 176.258 202.679 176.633 202.426C176.633 202.426 175.444 202.272 175.598 201.779C175.752 201.287 176.593 201.282 177.275 200.784C177.69 200.491 178.075 200.158 178.424 199.789Z" fill="#EF6744"/>
<path d="M170.498 165.834C170.498 165.834 175.553 162.71 182.642 166.108C189.732 169.506 195.305 181.601 192.096 191.024C188.887 200.448 181.508 203.672 181.508 203.672L178.418 199.791C178.418 199.791 185.105 190.631 181.404 183.154C179.075 178.591 175.423 174.838 170.926 172.387L170.498 165.834Z" fill="#F1C4D9"/>
<path d="M179.833 181.344C182.432 184.593 185.812 192.847 178.533 199.865" stroke="#2C4E8B"/>
<path d="M189.897 266.723C189.965 266.721 190.03 266.698 190.083 266.655C190.136 266.613 190.174 266.555 190.19 266.489C190.2 266.45 190.202 266.41 190.196 266.371C190.19 266.331 190.176 266.294 190.155 266.26C190.134 266.226 190.107 266.197 190.074 266.174C190.042 266.151 190.005 266.134 189.967 266.125L180.911 263.961C180.833 263.943 180.75 263.956 180.682 263.999C180.613 264.041 180.564 264.109 180.546 264.188C180.527 264.266 180.541 264.349 180.583 264.417C180.626 264.486 180.694 264.535 180.772 264.553L189.817 266.713L189.897 266.723Z" fill="white"/>
<path d="M159.845 237.212C159.917 237.211 159.986 237.185 160.041 237.138C160.095 237.09 160.13 237.025 160.141 236.954C160.152 236.883 160.137 236.811 160.099 236.75C160.062 236.688 160.003 236.643 159.935 236.62L157.447 235.849C157.371 235.826 157.288 235.834 157.217 235.871C157.146 235.908 157.093 235.972 157.069 236.048C157.057 236.086 157.052 236.126 157.056 236.166C157.059 236.205 157.07 236.244 157.089 236.279C157.108 236.314 157.133 236.346 157.164 236.371C157.194 236.396 157.23 236.415 157.268 236.426L159.756 237.197L159.845 237.212Z" fill="white"/>
<path d="M157.731 239.551H157.831L160.234 238.73C160.311 238.704 160.374 238.649 160.41 238.577C160.446 238.504 160.451 238.421 160.426 238.344C160.4 238.268 160.345 238.204 160.272 238.169C160.2 238.133 160.116 238.127 160.04 238.153L157.632 238.974C157.563 238.996 157.504 239.043 157.466 239.105C157.428 239.167 157.414 239.241 157.426 239.312C157.438 239.384 157.476 239.449 157.532 239.496C157.588 239.542 157.659 239.567 157.731 239.566V239.551Z" fill="white"/>
<path d="M166.511 158.919L163.587 157.295L163.262 154.695C164.345 154.912 166.771 155.41 167.811 155.67C169.111 155.995 170.41 156.645 171.06 158.919C171.58 160.739 169.977 162.71 169.111 163.469L167.811 162.819L167.161 161.519H166.511V158.919Z" fill="black" stroke="black"/>
<ellipse cx="163.587" cy="162.818" rx="0.325026" ry="0.650052" fill="black"/>
<path opacity="0.72" d="M134.881 200.262C148.309 200.262 159.194 189.377 159.194 175.949C159.194 162.522 148.309 151.637 134.881 151.637C121.454 151.637 110.568 162.522 110.568 175.949C110.568 189.377 121.454 200.262 134.881 200.262Z" fill="white"/>
<g opacity="0.72">
<path d="M154.115 170.7C155.122 174.551 154.965 178.613 153.663 182.375C152.361 186.136 149.973 189.426 146.801 191.83C143.629 194.234 139.816 195.644 135.843 195.881C131.87 196.117 127.916 195.171 124.481 193.16C121.046 191.15 118.284 188.166 116.545 184.586C114.805 181.006 114.167 176.991 114.709 173.048C115.252 169.106 116.952 165.412 119.593 162.435C122.235 159.458 125.7 157.331 129.55 156.324C132.107 155.655 134.771 155.496 137.389 155.856C140.008 156.216 142.529 157.089 144.81 158.424C147.092 159.759 149.087 161.53 150.684 163.637C152.28 165.743 153.446 168.143 154.115 170.7Z" fill="white" stroke="#0E1D42" stroke-miterlimit="10" stroke-dasharray="1.03 6.27"/>
</g>
<path d="M134.881 160.328V175.949L140.124 165.257" fill="white"/>
<path d="M134.881 160.328V175.949L140.124 165.257" stroke="#0E1D42" stroke-miterlimit="10"/>
<path fill-rule="evenodd" clip-rule="evenodd" d="M108.976 176.341C108.976 176.341 111.195 175.748 111.324 176.644C111.453 177.54 107.531 177.445 108.976 176.341Z" fill="#EA5B21"/>
<path fill-rule="evenodd" clip-rule="evenodd" d="M108.506 176.985C108.682 177.32 109.281 177.448 109.873 177.448C110.22 177.453 110.566 177.407 110.9 177.312C111.501 177.117 111.548 176.793 111.523 176.616C111.495 176.424 111.384 176.253 111.22 176.148C110.579 175.724 109.093 176.104 108.925 176.148L108.887 176.158L108.856 176.182C108.401 176.528 108.415 176.81 108.506 176.985ZM108.864 176.8C108.848 176.768 108.89 176.669 109.07 176.524H109.068C110.242 176.219 110.86 176.388 111.002 176.48C111.071 176.521 111.118 176.592 111.128 176.671C111.143 176.773 110.958 176.871 110.779 176.928C110.052 177.164 108.978 177.017 108.864 176.8Z" fill="#EA5B21"/>
<path fill-rule="evenodd" clip-rule="evenodd" d="M109.228 177.563C109.228 177.563 111.447 176.971 111.576 177.866C111.705 178.762 107.783 178.671 109.228 177.563Z" fill="#EA5B21"/>
<path fill-rule="evenodd" clip-rule="evenodd" d="M108.758 178.208C108.934 178.542 109.533 178.67 110.125 178.67C110.472 178.675 110.818 178.629 111.152 178.535C111.753 178.34 111.8 178.016 111.775 177.839C111.747 177.647 111.636 177.476 111.472 177.371C110.831 176.946 109.345 177.326 109.177 177.371L109.139 177.381L109.107 177.405C108.653 177.75 108.667 178.032 108.758 178.208ZM109.322 177.746C109.322 177.746 109.322 177.746 109.322 177.746L109.32 177.746C109.321 177.746 109.321 177.746 109.322 177.746ZM109.116 178.021C109.1 177.989 109.142 177.89 109.322 177.746C110.495 177.441 111.112 177.61 111.254 177.702C111.323 177.742 111.37 177.813 111.38 177.893C111.395 177.995 111.21 178.092 111.031 178.15C110.304 178.385 109.23 178.238 109.116 178.021Z" fill="#EA5B21"/>
<path fill-rule="evenodd" clip-rule="evenodd" d="M109.228 178.786C109.228 178.786 111.447 178.193 111.576 179.089C111.705 179.985 107.783 179.891 109.228 178.786Z" fill="#EA5B21"/>
<path fill-rule="evenodd" clip-rule="evenodd" d="M108.758 179.43C108.934 179.765 109.533 179.892 110.125 179.892C110.472 179.898 110.818 179.852 111.152 179.757C111.753 179.563 111.8 179.238 111.775 179.062C111.747 178.869 111.637 178.698 111.472 178.594C110.831 178.169 109.345 178.549 109.177 178.594L109.139 178.604L109.107 178.628C108.653 178.973 108.667 179.254 108.758 179.43ZM109.116 179.243C109.099 179.211 109.142 179.112 109.322 178.968H109.32C110.494 178.662 111.112 178.831 111.254 178.924C111.323 178.964 111.37 179.035 111.38 179.115C111.395 179.217 111.209 179.314 111.031 179.372C110.304 179.607 109.23 179.46 109.116 179.243Z" fill="#EA5B21"/>
<path fill-rule="evenodd" clip-rule="evenodd" d="M109.438 179.953C109.438 179.953 111.198 179.46 111.301 180.205C111.403 180.95 108.291 180.875 109.438 179.953Z" fill="#EA5B21"/>
<path fill-rule="evenodd" clip-rule="evenodd" d="M109.033 180.516C109.184 180.795 109.674 180.912 110.163 180.912C110.434 180.915 110.704 180.876 110.964 180.799C111.48 180.629 111.521 180.338 111.499 180.179C111.477 180.005 111.379 179.851 111.232 179.756C110.698 179.407 109.518 179.724 109.385 179.761L109.345 179.772L109.313 179.798C108.928 180.107 108.948 180.359 109.033 180.516ZM109.385 180.323C109.384 180.311 109.407 180.245 109.533 180.136C109.975 180.018 110.733 179.909 111.012 180.089C111.063 180.119 111.096 180.171 111.103 180.23C111.112 180.295 110.954 180.398 110.674 180.457C110.066 180.591 109.42 180.443 109.385 180.323Z" fill="#EA5B21"/>
</g>
<defs>
<linearGradient id="paint0_linear" x1="100.573" y1="211.902" x2="231.826" y2="60.8885" gradientUnits="userSpaceOnUse">
<stop stop-color="#E9E9E9"/>
<stop offset="1" stop-color="white"/>
</linearGradient>
<linearGradient id="paint1_linear" x1="200.171" y1="269.452" x2="161.612" y2="202.663" gradientUnits="userSpaceOnUse">
<stop offset="0.28" stop-color="#151E27"/>
<stop offset="0.39" stop-color="#192A41"/>
<stop offset="0.58" stop-color="#1F3C6B"/>
<stop offset="0.75" stop-color="#234A8A"/>
<stop offset="0.9" stop-color="#26529C"/>
<stop offset="1" stop-color="#2755A3"/>
</linearGradient>
</defs>
</svg>
