<svg width="307" height="308" viewBox="0 0 307 308" fill="none" xmlns="http://www.w3.org/2000/svg">
<mask id="mask0" mask-type="alpha" maskUnits="userSpaceOnUse" x="0" y="0" width="307" height="308">
<rect y="0.226562" width="307" height="307" fill="white"/>
</mask>
<g mask="url(#mask0)">
<path fill-rule="evenodd" clip-rule="evenodd" d="M252.993 68.9842C250.94 67.2004 248.93 65.3691 246.963 63.4905C231.862 49.0559 165.699 -9.43444 138.255 44.9216C107.175 106.479 86.2668 109.286 61.0336 112.536C35.8004 115.786 -1.47494 147.9 49.202 205.38C99.8789 262.86 167.105 266.481 195.779 259.271C239.237 248.349 315.035 215.547 306.07 159.319C298.459 111.583 263.408 78.0275 252.993 68.9842Z" fill="url(#paint0_linear)"/>
<mask id="mask1" mask-type="alpha" maskUnits="userSpaceOnUse" x="24" y="22" width="283" height="241">
<path fill-rule="evenodd" clip-rule="evenodd" d="M252.993 68.9842C250.94 67.2004 248.93 65.3691 246.963 63.4905C231.862 49.0559 165.699 -9.43444 138.255 44.9216C107.175 106.479 86.2668 109.286 61.0336 112.536C35.8004 115.786 -1.47494 147.9 49.202 205.38C99.8789 262.86 167.105 266.481 195.779 259.271C239.237 248.349 315.035 215.547 306.07 159.319C298.459 111.583 263.408 78.0275 252.993 68.9842Z" fill="url(#paint1_linear)"/>
</mask>
<g mask="url(#mask1)">
<path d="M251.793 178.806L19.6315 180.224C17.6311 193.208 20.3272 206.022 28.5199 217.278C31.5296 221.454 35.3702 225.415 39.9654 229.084C77.4326 258.807 146.07 262.512 199.071 257.189C273.048 249.778 315.525 219.785 341.547 183.81C342.973 181.812 344.452 179.974 346 178.227L251.793 178.806Z" fill="url(#paint2_linear)"/>
<path d="M221.034 156.818C203.322 158.701 204.378 166.123 193.033 163.619C181.688 161.115 180.329 166.865 172.121 169.569C163.913 172.274 156.719 160.675 146.514 155.546C136.309 150.418 120.74 154.685 113.295 151.77C105.851 148.855 102.891 157.189 95.8859 158.781C88.8804 160.374 83.3387 153.673 78.1629 144.759C72.9872 135.844 67.4246 126.539 59.6244 126.989C51.8242 127.44 47.1712 130.485 42.4869 130.535C40.0507 130.535 36.8407 127.861 33.2856 125.227C20.3933 140.061 12.0598 159.843 10.0837 179.455C10.0837 179.716 10.0209 179.966 10 180.227L149.557 178.804L206.187 178.223C206.323 177.963 206.469 177.722 206.615 177.462C210.557 170.323 215.601 163.796 221.578 158.1L223 156.698C222.394 156.698 221.735 156.748 221.034 156.818Z" fill="#E2E0E0"/>
<path d="M114.966 156.818C132.678 158.701 131.622 166.123 142.967 163.619C154.312 161.115 155.671 166.865 163.879 169.569C172.087 172.274 179.281 160.675 189.486 155.546C199.691 150.418 215.26 154.685 222.705 151.77C230.149 148.855 233.109 157.189 240.114 158.781C247.12 160.374 252.661 153.673 257.837 144.759C263.013 135.844 268.575 126.539 276.376 126.989C284.176 127.44 288.829 130.485 293.513 130.535C295.949 130.535 299.159 127.861 302.714 125.227C315.607 140.061 323.94 159.843 325.916 179.455C325.916 179.716 325.979 179.966 326 180.227L186.443 178.804L129.813 178.223C129.677 177.963 129.531 177.722 129.385 177.462C125.443 170.323 120.399 163.796 114.422 158.1L113 156.698C113.606 156.698 114.265 156.748 114.966 156.818Z" fill="#E2E0E0"/>
</g>
<path d="M61.896 254.707H60.896V255.707H61.896V254.707ZM61.896 239.155L61.0771 238.581L60.896 238.839V239.155H61.896ZM91.368 197.107V196.107H90.8477L90.5491 196.533L91.368 197.107ZM112.008 197.107H113.008V196.107H112.008V197.107ZM112.008 238.387H111.008V239.387H112.008V238.387ZM119.4 238.387H120.4V237.387H119.4V238.387ZM119.4 254.707V255.707H120.4V254.707H119.4ZM112.008 254.707V253.707H111.008V254.707H112.008ZM112.008 266.227V267.227H113.008V266.227H112.008ZM93 266.227H92V267.227H93V266.227ZM93 254.707H94V253.707H93V254.707ZM94.44 218.323H95.44V214.993L93.6055 217.772L94.44 218.323ZM81.192 238.387L80.3575 237.836L79.3334 239.387H81.192V238.387ZM94.44 238.387V239.387H95.44V238.387H94.44ZM62.896 254.707V239.155H60.896V254.707H62.896ZM62.7149 239.729L92.1869 197.681L90.5491 196.533L61.0771 238.581L62.7149 239.729ZM91.368 198.107H112.008V196.107H91.368V198.107ZM111.008 197.107V238.387H113.008V197.107H111.008ZM112.008 239.387H119.4V237.387H112.008V239.387ZM118.4 238.387V254.707H120.4V238.387H118.4ZM119.4 253.707H112.008V255.707H119.4V253.707ZM111.008 254.707V266.227H113.008V254.707H111.008ZM112.008 265.227H93V267.227H112.008V265.227ZM94 266.227V254.707H92V266.227H94ZM93 253.707H61.896V255.707H93V253.707ZM93.6055 217.772L80.3575 237.836L82.0265 238.938L95.2745 218.874L93.6055 217.772ZM81.192 239.387H94.44V237.387H81.192V239.387ZM95.44 238.387V218.323H93.44V238.387H95.44ZM134.339 204.115L135.156 204.692V204.692L134.339 204.115ZM176.579 204.115L175.762 204.692L175.766 204.697L176.579 204.115ZM176.675 256.339L175.858 255.761L176.675 256.339ZM134.243 256.339L133.423 256.91L133.426 256.916L134.243 256.339ZM162.947 216.979L162.017 217.347L162.02 217.353L162.947 216.979ZM147.971 216.979L148.898 217.353L148.901 217.347L147.971 216.979ZM147.875 243.571L146.939 243.922L146.943 243.934L146.948 243.945L147.875 243.571ZM162.947 243.571L162.017 243.202L162.013 243.213L162.947 243.571ZM128.619 230.131C128.619 219.246 130.835 210.802 135.156 204.692L133.522 203.537C128.883 210.099 126.619 218.999 126.619 230.131H128.619ZM135.156 204.692C139.403 198.685 146.097 195.611 155.459 195.611V193.611C145.621 193.611 138.235 196.873 133.522 203.537L135.156 204.692ZM155.459 195.611C164.821 195.611 171.515 198.685 175.762 204.692L177.396 203.537C172.683 196.873 165.297 193.611 155.459 193.611V195.611ZM175.766 204.697C180.148 210.806 182.395 219.248 182.395 230.131H184.395C184.395 218.997 182.098 210.095 177.392 203.532L175.766 204.697ZM182.395 230.131C182.395 241.146 180.177 249.653 175.858 255.761L177.492 256.916C182.133 250.352 184.395 241.387 184.395 230.131H182.395ZM175.858 255.761C171.612 261.767 164.888 264.843 155.459 264.843V266.843C165.358 266.843 172.778 263.582 177.492 256.916L175.858 255.761ZM155.459 264.843C146.03 264.843 139.306 261.767 135.06 255.761L133.426 256.916C138.14 263.582 145.56 266.843 155.459 266.843V264.843ZM135.063 255.767C130.806 249.658 128.619 241.149 128.619 230.131H126.619C126.619 241.385 128.848 250.347 133.423 256.91L135.063 255.767ZM165.771 230.131C165.771 224.326 165.162 219.79 163.874 216.604L162.02 217.353C163.164 220.183 163.771 224.415 163.771 230.131H165.771ZM163.877 216.611C163.2 214.901 162.142 213.566 160.687 212.671C159.242 211.782 157.48 211.371 155.459 211.371V213.371C157.214 213.371 158.588 213.727 159.639 214.374C160.68 215.015 161.478 215.985 162.017 217.347L163.877 216.611ZM155.459 211.371C153.438 211.371 151.676 211.782 150.231 212.671C148.776 213.566 147.718 214.901 147.041 216.611L148.901 217.347C149.44 215.985 150.238 215.015 151.279 214.374C152.33 213.727 153.704 213.371 155.459 213.371V211.371ZM147.044 216.604C145.756 219.79 145.147 224.326 145.147 230.131H147.147C147.147 224.415 147.754 220.183 148.898 217.353L147.044 216.604ZM145.147 230.131C145.147 236.059 145.724 240.681 146.939 243.922L148.811 243.219C147.722 240.316 147.147 235.978 147.147 230.131H145.147ZM146.948 243.945C147.629 245.63 148.7 246.939 150.172 247.814C151.631 248.682 153.413 249.083 155.459 249.083V247.083C153.665 247.083 152.263 246.731 151.194 246.095C150.138 245.466 149.337 244.519 148.802 243.196L146.948 243.945ZM155.459 249.083C157.505 249.083 159.281 248.682 160.727 247.811C162.186 246.932 163.234 245.617 163.881 243.928L162.013 243.213C161.508 244.532 160.732 245.473 159.695 246.098C158.645 246.731 157.253 247.083 155.459 247.083V249.083ZM163.877 243.939C165.162 240.691 165.771 236.062 165.771 230.131H163.771C163.771 235.975 163.164 240.306 162.017 243.203L163.877 243.939ZM192.365 254.707H191.365V255.707H192.365V254.707ZM192.365 239.155L191.546 238.581L191.365 238.839V239.155H192.365ZM221.837 197.107V196.107H221.316L221.018 196.533L221.837 197.107ZM242.477 197.107H243.477V196.107H242.477V197.107ZM242.477 238.387H241.477V239.387H242.477V238.387ZM249.869 238.387H250.869V237.387H249.869V238.387ZM249.869 254.707V255.707H250.869V254.707H249.869ZM242.477 254.707V253.707H241.477V254.707H242.477ZM242.477 266.227V267.227H243.477V266.227H242.477ZM223.469 266.227H222.469V267.227H223.469V266.227ZM223.469 254.707H224.469V253.707H223.469V254.707ZM224.909 218.323H225.909V214.993L224.074 217.772L224.909 218.323ZM211.661 238.387L210.826 237.836L209.802 239.387H211.661V238.387ZM224.909 238.387V239.387H225.909V238.387H224.909ZM193.365 254.707V239.155H191.365V254.707H193.365ZM193.184 239.729L222.656 197.681L221.018 196.533L191.546 238.581L193.184 239.729ZM221.837 198.107H242.477V196.107H221.837V198.107ZM241.477 197.107V238.387H243.477V197.107H241.477ZM242.477 239.387H249.869V237.387H242.477V239.387ZM248.869 238.387V254.707H250.869V238.387H248.869ZM249.869 253.707H242.477V255.707H249.869V253.707ZM241.477 254.707V266.227H243.477V254.707H241.477ZM242.477 265.227H223.469V267.227H242.477V265.227ZM224.469 266.227V254.707H222.469V266.227H224.469ZM223.469 253.707H192.365V255.707H223.469V253.707ZM224.074 217.772L210.826 237.836L212.495 238.938L225.743 218.874L224.074 217.772ZM211.661 239.387H224.909V237.387H211.661V239.387ZM225.909 238.387V218.323H223.909V238.387H225.909Z" fill="#EA5B21"/>
<path d="M53.896 247.707V232.155L83.368 190.107H104.008V231.387H111.4V247.707H104.008V259.227H85V247.707H53.896ZM86.44 211.323L73.192 231.387H86.44V211.323ZM119.619 223.131C119.619 212.123 121.859 203.451 126.339 197.115C130.819 190.779 137.859 187.611 147.459 187.611C157.059 187.611 164.099 190.779 168.579 197.115C173.123 203.451 175.395 212.123 175.395 223.131C175.395 234.267 173.155 243.003 168.675 249.339C164.195 255.675 157.123 258.843 147.459 258.843C137.795 258.843 130.723 255.675 126.243 249.339C121.827 243.003 119.619 234.267 119.619 223.131ZM156.771 223.131C156.771 217.371 156.163 212.987 154.947 209.979C153.731 206.907 151.235 205.371 147.459 205.371C143.683 205.371 141.187 206.907 139.971 209.979C138.755 212.987 138.147 217.371 138.147 223.131C138.147 229.019 138.723 233.499 139.875 236.571C141.091 239.579 143.619 241.083 147.459 241.083C151.299 241.083 153.795 239.579 154.947 236.571C156.163 233.499 156.771 229.019 156.771 223.131ZM184.365 247.707V232.155L213.837 190.107H234.477V231.387H241.869V247.707H234.477V259.227H215.469V247.707H184.365ZM216.909 211.323L203.661 231.387H216.909V211.323Z" fill="#EA5B21"/>
<path fill-rule="evenodd" clip-rule="evenodd" d="M169.933 102.678C169.933 102.678 169.011 99.2217 169.361 96.2885C169.711 93.3552 165.525 93.5187 165.117 93.7145C164.709 93.9103 165.651 94.5988 165.479 95.066C165.306 95.5332 163.464 96.8697 162.57 95.646C161.675 94.4223 161.559 93.4213 161.138 92.9019C160.717 92.3826 157.56 95.6709 157.77 96.5303C157.98 97.3897 160.951 101.555 162.936 103.118C164.483 104.334 165.905 106.098 165.985 106.091C166.065 106.084 169.933 102.678 169.933 102.678Z" fill="#EA5B21"/>
<path fill-rule="evenodd" clip-rule="evenodd" d="M185.906 174.024C190.395 178.903 205.946 172.526 224.944 159.096C233.1 153.333 241.886 146.27 250.707 138.24C263.56 126.541 274.351 114.726 281.887 104.556C291.573 91.4827 295.88 81.1221 292.267 77.1999C288.202 72.7769 275.062 77.5948 258.509 88.5178C248.939 94.8325 238.226 103.189 227.467 112.984C216.063 123.365 206.285 133.836 198.96 143.17C187.421 157.875 181.981 169.758 185.906 174.024Z" fill="black"/>
<path fill-rule="evenodd" clip-rule="evenodd" d="M176.406 74.6587C176.406 74.6587 176.812 77.983 177.219 79.2519C177.219 79.2519 177.258 79.5064 176.801 79.8115C176.345 80.1165 175.484 80.6213 176.097 81.0707C176.71 81.5201 178.131 81.4976 178.246 81.7918C178.362 82.0861 179.759 84.9818 181.781 84.3069C183.802 83.632 184.705 82.4556 184.705 82.4556C184.705 82.4556 188.868 86.9323 190.067 87.3475C191.265 87.7627 195.553 83.7142 193.489 79.6668L188.69 77.5948L181.979 73.0617L176.406 74.6587Z" fill="#EA5B21"/>
<path fill-rule="evenodd" clip-rule="evenodd" d="M178.591 78.7576C178.414 78.7558 178.274 78.5569 178.276 78.3134C178.279 78.0699 178.424 77.8739 178.601 77.8757C178.777 77.8775 178.918 78.0763 178.915 78.3198C178.912 78.5634 178.767 78.7593 178.591 78.7576Z" fill="#191919"/>
<path fill-rule="evenodd" clip-rule="evenodd" d="M184.856 81.9521C184.856 81.9521 185.522 81.1722 185.912 80.5286C185.946 80.4736 186.009 80.449 186.068 80.4677C186.128 80.4864 186.17 80.5442 186.172 80.6106C186.209 81.462 186.416 83.0308 187.342 84.5991C187.342 84.5991 185.354 82.5255 184.856 81.9521Z" fill="black"/>
<path fill-rule="evenodd" clip-rule="evenodd" d="M179.135 82.3528C179.147 82.3463 180.313 81.7134 181.972 81.4568L181.925 81.099C180.223 81.3619 179.059 81.9952 179.01 82.0237L179.135 82.3528Z" fill="black"/>
<path d="M181.921 75.5218C181.56 76.6523 180.728 74.3867 180.358 73.1127L176.433 74.4447L174.036 71.3258L186.504 68.6403L188.642 77.469C187.056 77.6765 183.978 77.8476 184.353 76.8728C184.821 75.6542 182.372 74.1088 181.921 75.5218Z" fill="black" stroke="black"/>
<path fill-rule="evenodd" clip-rule="evenodd" d="M162.334 104.019C162.615 104.69 174.065 140.08 198.92 142.735C201.411 142.995 203.926 142.93 206.402 142.542C206.402 142.542 210.539 141.692 213.421 138.919C213.421 138.919 223.902 154.979 224.904 158.661C233.06 152.898 241.845 145.835 250.666 137.805C263.519 126.106 274.311 114.291 281.847 104.121C281.8 104.057 281.747 103.998 281.688 103.945C281.688 103.945 272.237 95.7678 258.476 88.0823C250.54 83.6509 241.169 79.3827 231.351 76.9407C204.505 70.2637 191.585 74.1645 191.585 74.1645C191.585 74.1645 193.611 83.0996 185.772 89.6674C185.772 89.6674 182.989 98.8949 191.189 115.164C191.189 115.164 176.911 105.866 171.174 100.072C171.174 100.072 170.432 99.2999 170.104 99.0498C169.776 98.7998 167.732 102.416 163.279 103.333C163.276 103.335 162.027 103.285 162.334 104.019Z" fill="white"/>
<path fill-rule="evenodd" clip-rule="evenodd" d="M225.056 158.873L224.75 159.089L224.659 158.729C223.751 155.383 214.738 141.413 213.382 139.322C210.501 141.943 206.636 142.762 206.464 142.797L206.451 142.798C203.953 143.188 201.415 143.253 198.901 142.992C193.394 142.403 188.104 140.159 183.18 136.319C179.189 133.208 175.422 129.042 171.969 123.932C166.732 116.177 163.597 108.342 162.19 104.362C162.148 104.242 162.112 104.139 162.103 104.117C161.972 103.807 162.051 103.59 162.14 103.463C162.404 103.086 163.064 103.07 163.263 103.073C166.35 102.427 168.28 100.416 169.208 99.4476L169.214 99.4417C169.731 98.902 169.99 98.6316 170.271 98.8441C170.58 99.0803 171.212 99.7296 171.344 99.8653C171.357 99.8786 171.365 99.8869 171.368 99.8895C176.237 104.806 187.433 112.358 190.533 114.414C186.621 106.392 185.442 100.18 185.15 96.3336C184.821 91.9954 185.497 89.6883 185.526 89.5917L185.549 89.5174L185.609 89.4677C189.588 86.1337 190.933 82.1703 191.361 79.4338C191.802 76.5957 191.377 74.4485 191.335 74.2378C191.333 74.2277 191.332 74.222 191.332 74.221L191.278 73.9855L191.511 73.9151C191.644 73.8753 194.851 72.9283 201.397 72.7885C212.31 72.5551 223.744 74.781 231.414 76.6877C240.017 78.8278 249.167 82.5847 258.6 87.8551C272.229 95.4653 281.767 103.666 281.862 103.751C281.935 103.817 282 103.89 282.057 103.969L282.168 104.123L282.055 104.275C274.265 114.789 263.179 126.765 250.841 137.997C242.326 145.749 233.408 152.969 225.056 158.873ZM250.491 137.613C262.739 126.465 273.747 114.58 281.512 104.136C281.231 103.894 271.793 95.8165 258.344 88.3094C248.947 83.0618 239.844 79.3216 231.286 77.2071C217.466 73.7701 207.427 73.1975 201.439 73.3222C195.918 73.4373 192.73 74.151 191.888 74.3666C192.005 75.0298 192.262 76.9817 191.875 79.5031C191.438 82.3197 190.064 86.3909 186.001 89.8238C185.892 90.2453 185.372 92.5036 185.667 96.3435C186.216 103.465 189.1 110.452 191.421 115.059L191.856 115.921L191.044 115.393C190.901 115.299 176.677 106.013 170.984 100.264C170.984 100.263 170.979 100.258 170.97 100.249C170.878 100.155 170.359 99.6194 170.046 99.3521C169.935 99.4456 169.747 99.6409 169.577 99.818L169.571 99.8245C168.601 100.834 166.589 102.927 163.33 103.598L163.299 103.601L163.267 103.599C162.994 103.59 162.638 103.656 162.56 103.766C162.533 103.803 162.553 103.872 162.574 103.923C162.588 103.955 162.611 104.019 162.663 104.167L162.673 104.196C164.069 108.152 167.188 115.94 172.393 123.647C175.814 128.713 179.549 132.841 183.492 135.915C188.338 139.694 193.539 141.903 198.947 142.481C201.414 142.737 203.904 142.673 206.354 142.291C206.531 142.253 210.493 141.379 213.239 138.737L213.47 138.513L213.642 138.778C214.059 139.415 223.576 154.021 225.046 158.241C233.297 152.389 242.091 145.263 250.491 137.613Z" fill="black"/>
<path fill-rule="evenodd" clip-rule="evenodd" d="M246.55 139.643L247.023 139.421C241.928 128.615 235.65 119.925 228.377 113.594C222.547 108.523 216.065 104.948 209.109 102.96C204.214 101.561 199.119 100.975 194.03 101.226C190.271 101.425 188.013 102.036 187.919 102.062L188.058 102.563C188.08 102.561 190.372 101.938 194.084 101.744C199.116 101.499 204.153 102.082 208.992 103.468C215.869 105.436 222.28 108.98 228.051 114.001C235.264 120.282 241.489 128.91 246.55 139.643Z" fill="#EA5B21"/>
<path fill-rule="evenodd" clip-rule="evenodd" d="M253.078 133.762L253.518 133.481C246.683 122.833 238.905 114.297 230.4 108.109C223.59 103.155 216.303 99.6862 208.735 97.8016C202.003 96.1233 196.294 96.0368 192.689 96.2595C188.773 96.5015 186.492 97.1315 186.396 97.1583L186.537 97.6584C186.56 97.6519 188.882 97.0131 192.749 96.7764C196.318 96.5586 201.971 96.6467 208.639 98.3124C216.133 100.185 223.356 103.627 230.107 108.542C238.554 114.691 246.281 123.175 253.078 133.762Z" fill="#EA5B21"/>
<path fill-rule="evenodd" clip-rule="evenodd" d="M259.25 126.958L259.658 126.63C251.624 116.78 243.081 108.831 234.262 103.004C227.204 98.3385 219.956 95.0143 212.724 93.1241C209.168 92.1953 203.687 91.1343 197.775 91.3514C194.23 91.4818 192.238 92.0049 192.156 92.0289L192.288 92.5322C192.308 92.5305 194.324 92.0017 197.824 91.8719C201.052 91.7568 206.242 91.9682 212.625 93.6395C219.8 95.5209 226.99 98.8206 233.996 103.456C242.759 109.246 251.255 117.155 259.25 126.958Z" fill="#EA5B21"/>
<path fill-rule="evenodd" clip-rule="evenodd" d="M265.656 119.402L266.085 119.103C258.394 108.15 249.25 99.5644 238.905 93.5758C231.039 89.0258 222.339 85.9683 213.756 84.7327C208.627 83.9945 204.669 84.0548 202.253 84.2346C199.59 84.4331 197.456 84.8871 196.821 85.3905L197.148 85.7965C197.59 85.4452 199.387 84.9692 202.292 84.7525C204.682 84.5742 208.598 84.5149 213.681 85.246C222.203 86.4732 230.834 89.5089 238.639 94.0261C248.92 99.9726 258.009 108.51 265.656 119.402Z" fill="#EA5B21"/>
<path fill-rule="evenodd" clip-rule="evenodd" d="M275.05 112.63L275.443 112.286C267.786 103.584 259.249 96.3622 250.067 90.822C242.48 86.2435 234.488 82.8172 226.313 80.6432C218.326 78.5194 211.88 78.0506 207.876 78.0298C202.689 78.0052 199.533 78.69 198.402 79.2883L198.647 79.7477C199.807 79.1355 203.109 78.5273 207.872 78.5497C211.843 78.5683 218.243 79.0334 226.175 81.1439C234.306 83.3061 242.252 86.7114 249.796 91.264C258.928 96.7817 267.426 103.967 275.05 112.63Z" fill="#EA5B21"/>
<path fill-rule="evenodd" clip-rule="evenodd" d="M200.707 125.351C201.387 125.296 202.05 125.109 202.658 124.799C205.011 123.581 206.258 120.533 206.366 115.739C206.445 112.216 205.844 108.996 205.838 108.965L205.321 109.062C205.345 109.188 207.633 121.638 202.414 124.338C200.407 125.375 197.508 124.856 193.787 122.794C189.3 120.304 183.598 115.541 176.833 108.636L176.457 109C187.549 120.317 195.685 125.8 200.707 125.351Z" fill="#EA5B21"/>
<path fill-rule="evenodd" clip-rule="evenodd" d="M202.546 132.757C203.135 132.705 203.717 132.595 204.284 132.427C209.813 130.794 213.11 123.726 214.082 111.418L213.56 111.378C212.607 123.445 209.436 130.359 204.136 131.927C201.441 132.724 198.159 132.142 194.381 130.197C191.327 128.626 187.953 126.169 184.35 122.896C178.202 117.311 173.465 111.208 173.418 111.146L173.003 111.464C173.05 111.525 177.81 117.66 183.992 123.274C187.629 126.579 191.043 129.062 194.136 130.655C197.272 132.275 200.092 132.977 202.546 132.757Z" fill="#EA5B21"/>
<path fill-rule="evenodd" clip-rule="evenodd" d="M203.754 139.434C207.561 139.093 210.851 137.152 213.541 133.659C216.639 129.639 218.982 123.484 220.504 115.366L219.989 115.271C218.482 123.303 216.177 129.382 213.126 133.338C210.461 136.804 207.188 138.688 203.401 138.936C200.101 139.152 196.392 138.139 192.378 135.919C188.972 134.04 185.429 131.35 181.844 127.927C177.569 123.844 170.962 116.094 169.676 112.163L169.18 112.324C170.15 115.294 175.326 122.422 181.481 128.302C185.099 131.756 188.68 134.472 192.124 136.374C196.227 138.638 200.033 139.669 203.434 139.452C203.542 139.452 203.648 139.444 203.754 139.434Z" fill="#EA5B21"/>
<path fill-rule="evenodd" clip-rule="evenodd" d="M240.664 140.994L241.15 140.8C239.567 136.871 236.273 132.279 233.787 129.118C231.099 125.703 228.751 123.173 228.728 123.147L228.344 123.501C228.367 123.526 230.702 126.041 233.377 129.443C235.841 132.575 239.104 137.122 240.664 140.994Z" fill="#EA5B21"/>
<path fill-rule="evenodd" clip-rule="evenodd" d="M238.514 148.194L238.995 147.988C235.151 139.124 227.427 128.669 227.35 128.564L226.928 128.873C227.006 128.978 234.694 139.387 238.514 148.194Z" fill="#EA5B21"/>
<path fill-rule="evenodd" clip-rule="evenodd" d="M233.288 152.364L233.768 152.158C230.144 143.779 225.308 137.178 225.26 137.113L224.837 137.421C224.885 137.486 229.688 144.039 233.288 152.364Z" fill="#EA5B21"/>
<path fill-rule="evenodd" clip-rule="evenodd" d="M229.746 155.18L223.074 144.246L222.627 144.517L229.299 155.45L229.746 155.18Z" fill="#EA5B21"/>
<path fill-rule="evenodd" clip-rule="evenodd" d="M213.321 138.683C213.321 138.683 225.522 123.449 224.638 114.929C224.638 114.929 228.572 124.097 225.345 127.526C220.453 132.726 224.733 134.747 221.413 140.752C219.392 144.405 221.229 151.395 221.229 151.395L213.321 138.683Z" fill="black"/>
<path fill-rule="evenodd" clip-rule="evenodd" d="M191.25 115.431C191.25 115.431 198.032 120.212 200.387 118.405C202.741 116.597 191.986 112.89 187.173 105.248C187.173 105.248 189.612 112.825 191.25 115.431Z" fill="black"/>
<path fill-rule="evenodd" clip-rule="evenodd" d="M224.902 158.241L225.367 158.004C225.347 157.964 223.259 153.908 220.769 149.505C217.418 143.577 214.971 139.872 213.498 138.493L213.14 138.873C216.572 142.084 224.819 158.08 224.902 158.241Z" fill="#FEF7EF"/>
<path fill-rule="evenodd" clip-rule="evenodd" d="M165.117 93.7154L161.554 89.1141C161.383 88.8928 161.069 88.8401 160.834 88.9932L159.327 89.9752C159.203 90.0557 159.118 90.1835 159.092 90.3284C159.066 90.4733 159.102 90.6224 159.19 90.7403L163.187 96.0973C163.187 96.0973 166.308 95.9509 165.117 93.7154Z" fill="black"/>
<path fill-rule="evenodd" clip-rule="evenodd" d="M159.455 86.8865L161.534 90.0069L160.008 90.9757L157.943 88.0664L159.455 86.8865Z" fill="black"/>
<path fill-rule="evenodd" clip-rule="evenodd" d="M159.396 87.2256C158.93 87.5674 158.377 87.7719 157.8 87.8159C157.116 87.8772 156.354 87.7514 155.553 87.4358C154.093 86.8632 152.668 85.7219 151.538 84.2198C150.409 82.7177 149.706 81.0398 149.56 79.4862C149.41 77.8851 149.864 76.6023 150.84 75.8743C151.815 75.1463 153.181 75.071 154.683 75.6641C156.141 76.2359 157.567 77.3815 158.697 78.8793C159.826 80.3771 160.529 82.0593 160.675 83.6129C160.826 85.2139 160.371 86.4967 159.396 87.2256ZM154.49 76.1443C153.767 75.8609 153.091 75.7474 152.483 75.8019C152.003 75.8362 151.542 76.0045 151.153 76.2874C149.41 77.5881 149.772 81.0051 151.957 83.9053C153.029 85.3282 154.375 86.4088 155.746 86.9493C157.073 87.4727 158.262 87.421 159.082 86.8062C160.825 85.5063 160.463 82.0885 158.278 79.1882C157.205 77.7663 155.861 76.6848 154.49 76.1443Z" fill="black"/>
<path fill-rule="evenodd" clip-rule="evenodd" d="M159 86.6989C158.622 86.9759 158.174 87.1416 157.707 87.1767C157.087 87.2323 156.386 87.101 155.641 86.7804C154.361 86.2318 153.093 85.1808 152.072 83.8256C151.05 82.4732 150.393 80.9654 150.219 79.5882C150.04 78.1585 150.402 77.0277 151.239 76.4035C152.076 75.7793 153.268 75.75 154.598 76.3219C155.878 76.8706 157.147 77.9241 158.168 79.2767C159.188 80.6292 159.847 82.1369 160.019 83.5141C160.199 84.9438 159.836 86.0747 159 86.6989ZM154.39 76.7993C153.725 76.5159 153.113 76.3967 152.581 76.4443C152.208 76.4713 151.851 76.6023 151.55 76.8221C150.101 77.9042 150.519 80.9071 152.488 83.5159C154.457 86.1248 157.237 87.3677 158.687 86.2856C159.366 85.7782 159.655 84.8175 159.501 83.5814C159.339 82.2904 158.718 80.8733 157.749 79.5892C156.781 78.305 155.589 77.3143 154.39 76.7993Z" fill="black"/>
<path fill-rule="evenodd" clip-rule="evenodd" d="M158.472 86.9484C158.685 86.6487 158.835 86.3097 158.913 85.9515C159.035 85.4285 159.046 84.8864 158.946 84.3592C158.265 80.573 156.194 78.6522 154.576 77.7074C152.822 76.6842 151.247 76.5599 151.18 76.5554L151.139 77.0744L151.157 76.8116L151.138 77.0744C152.266 77.2157 153.352 77.5882 154.327 78.1684C156.532 79.4636 157.912 81.5769 158.428 84.4517C158.515 84.9087 158.505 85.3787 158.4 85.832C158.338 86.1228 158.218 86.3982 158.047 86.6419L158.472 86.9484Z" fill="black"/>
<path fill-rule="evenodd" clip-rule="evenodd" d="M157.011 88.305C158.219 88.1969 159.207 87.6679 159.887 86.7575L159.467 86.4469C157.857 88.6001 154.85 87.5569 154.724 87.5081C152.21 86.4573 149.391 83.2073 149.218 79.7821C149.148 78.3958 149.555 77.3252 150.429 76.5958C150.813 76.2717 151.266 76.038 151.753 75.9124L151.648 75.3996C151.617 75.4024 148.506 76.0779 148.696 79.8062C148.781 81.4898 149.485 83.2806 150.676 84.8512C151.757 86.275 153.161 87.4182 154.528 87.9878L154.538 87.9913C155.165 88.2045 155.823 88.3166 156.487 88.3233C156.665 88.3265 156.84 88.3203 157.011 88.305Z" fill="black"/>
<path fill-rule="evenodd" clip-rule="evenodd" d="M166.886 110.745C169.422 109.971 171.678 108.48 173.377 106.453C174.667 104.916 175.191 103.624 175.212 103.57L174.726 103.378L174.969 103.474L174.726 103.378C174.706 103.428 172.633 108.445 166.732 110.247L166.886 110.745Z" fill="black"/>
<path fill-rule="evenodd" clip-rule="evenodd" d="M187.213 92.4829C190.136 90.9155 192.408 88.9285 193.966 86.5895C195.22 84.7081 196.031 82.5697 196.338 80.3339C196.887 76.4628 195.883 73.4811 195.84 73.3561L195.345 73.5249C195.354 73.5545 196.354 76.5314 195.817 80.283C195.518 82.4389 194.733 84.5004 193.523 86.3141C192.01 88.576 189.803 90.4979 186.965 92.0256L187.213 92.4829Z" fill="black"/>
<path fill-rule="evenodd" clip-rule="evenodd" d="M169.959 78.4211C169.536 77.5438 169.586 76.6452 170.07 76.4139C170.555 76.1826 171.29 76.7062 171.713 77.5835C172.136 78.4607 172.086 79.3594 171.602 79.5907C171.117 79.822 170.382 79.2983 169.959 78.4211Z" fill="white"/>
<path fill-rule="evenodd" clip-rule="evenodd" d="M177.626 79.8033C177.57 79.83 177.509 79.8466 177.447 79.8521C177.059 79.8868 176.589 79.5191 176.301 78.9232C175.968 78.2338 176.03 77.5402 176.441 77.3437C176.65 77.244 176.907 77.2901 177.165 77.4735C177.4 77.641 177.613 77.9071 177.766 78.2237C178.098 78.9131 178.037 79.6072 177.626 79.8033ZM177.012 77.6867C176.879 77.5919 176.749 77.5467 176.644 77.5561L176.644 77.5579C176.613 77.5598 176.583 77.5673 176.554 77.5799C176.264 77.7192 176.311 78.3405 176.538 78.8106C176.765 79.2807 177.223 79.7073 177.513 79.568C177.803 79.4287 177.756 78.8074 177.529 78.3373C177.397 78.0599 177.212 77.829 177.012 77.6867Z" fill="black"/>
<path fill-rule="evenodd" clip-rule="evenodd" d="M177.369 73.6211L171.536 77.2039L177.369 73.6211Z" fill="white"/>
<path fill-rule="evenodd" clip-rule="evenodd" d="M181.921 75.6542L181.791 75.4271L177.431 77.8992L177.561 78.1263L181.921 75.6542Z" fill="black"/>
<path d="M137.181 146.171C137.181 151.763 132.638 156.307 127.046 156.307C121.454 156.307 116.91 151.763 116.91 146.171C116.91 140.579 121.454 136.035 127.046 136.035C132.673 136.07 137.181 140.579 137.181 146.171Z" fill="white"/>
<path d="M246.159 6.05487C246.159 9.34022 243.502 11.9965 240.217 11.9965C236.932 11.9965 234.275 9.34022 234.275 6.05487C234.275 2.76952 236.932 0.113281 240.217 0.113281C243.502 0.113281 246.159 2.76952 246.159 6.05487Z" fill="white"/>
<path d="M112.241 122.723C113.222 122.316 113.688 121.192 113.282 120.211C112.875 119.23 111.751 118.764 110.77 119.171C109.789 119.577 109.324 120.701 109.73 121.682C110.136 122.663 111.261 123.129 112.241 122.723Z" fill="white" stroke="white" stroke-width="3.02774" stroke-linecap="round" stroke-linejoin="round"/>
<path d="M246.915 38.3827C247.896 37.9765 248.362 36.8519 247.956 35.8711C247.549 34.8902 246.425 34.4245 245.444 34.8307C244.463 35.237 243.997 36.3615 244.404 37.3424C244.81 38.3233 245.934 38.789 246.915 38.3827Z" fill="white" stroke="white" stroke-width="3.02774" stroke-linecap="round" stroke-linejoin="round"/>
<path fill-rule="evenodd" clip-rule="evenodd" d="M291.001 62.0121C291.001 63.0606 290.127 63.9344 289.079 63.9344C288.03 63.9344 287.156 63.0606 287.156 62.0121C287.156 60.9636 288.03 60.0898 289.079 60.0898C290.162 60.0898 291.001 60.9636 291.001 62.0121Z" fill="white" stroke="white" stroke-width="3.02767" stroke-linecap="round" stroke-linejoin="round"/>
<path d="M80.9538 176.3C82.0103 176.196 82.7819 175.255 82.6773 174.198C82.5726 173.142 81.6314 172.37 80.575 172.475C79.5185 172.579 78.7469 173.52 78.8515 174.577C78.9561 175.633 79.8974 176.405 80.9538 176.3Z" fill="white" stroke="white" stroke-width="3.02757" stroke-linecap="round" stroke-linejoin="round"/>
<path fill-rule="evenodd" clip-rule="evenodd" d="M57.8446 117.372C57.8446 118.42 56.9708 119.294 55.9223 119.294C54.8738 119.294 54 118.42 54 117.372C54 116.323 54.8738 115.449 55.9223 115.449C57.0058 115.449 57.8446 116.323 57.8446 117.372Z" fill="white" stroke="white" stroke-width="3.02767" stroke-linecap="round" stroke-linejoin="round"/>
<path fill-rule="evenodd" clip-rule="evenodd" d="M137.462 46.0043C137.462 47.0528 136.588 47.9266 135.539 47.9266C134.491 47.9266 133.617 47.0528 133.617 46.0043C133.617 44.9558 134.491 44.082 135.539 44.082C136.588 44.082 137.462 44.9208 137.462 46.0043Z" fill="white" stroke="white" stroke-width="3.02767" stroke-linecap="round" stroke-linejoin="round"/>
</g>
<defs>
<linearGradient id="paint0_linear" x1="244.701" y1="233.727" x2="122.552" y2="-73.8097" gradientUnits="userSpaceOnUse">
<stop stop-color="#E9E9E9"/>
<stop offset="1" stop-color="white"/>
</linearGradient>
<linearGradient id="paint1_linear" x1="244.701" y1="233.727" x2="122.552" y2="-73.8097" gradientUnits="userSpaceOnUse">
<stop stop-color="#E9E9E9"/>
<stop offset="1" stop-color="white"/>
</linearGradient>
<linearGradient id="paint2_linear" x1="159.143" y1="240.846" x2="204.987" y2="83.4731" gradientUnits="userSpaceOnUse">
<stop stop-color="#E9E9E9"/>
<stop offset="1" stop-color="white"/>
</linearGradient>
</defs>
</svg>
