<svg width="12" height="15" viewBox="0 0 12 15" fill="none" xmlns="http://www.w3.org/2000/svg">
<path fill-rule="evenodd" clip-rule="evenodd" d="M9.21875 2.71875H8.15625V1.65884C8.15625 1.07061 7.68033 0.59375 7.09514 0.59375H4.43611C3.85008 0.59375 3.375 1.06863 3.375 1.65884V2.71875H2.3125H0.1875V3.25H1.25V13.3401C1.25 14.2223 1.95867 14.9375 2.84382 14.9375H8.68743C9.56767 14.9375 10.2812 14.2278 10.2812 13.3401V3.25H11.3438V2.71875H9.21875ZM1.78125 3.25V13.3466C1.78125 13.9318 2.25587 14.4062 2.83944 14.4062H8.69181C9.27623 14.4062 9.75 13.9269 9.75 13.3466V3.25H1.78125ZM3.375 4.3125V13.3438H3.90625V4.3125H3.375ZM5.5 4.3125V13.3438H6.03125V4.3125H5.5ZM7.625 4.3125V13.3438H8.15625V4.3125H7.625ZM4.43906 1.125C4.1448 1.125 3.90625 1.36016 3.90625 1.6557V2.71875H7.625V1.6557C7.625 1.3626 7.39238 1.125 7.09219 1.125H4.43906Z" fill="#D13939"/>
</svg>
