<svg width="18" height="18" viewBox="0 0 18 18" fill="none" xmlns="http://www.w3.org/2000/svg">
<path fill-rule="evenodd" clip-rule="evenodd" d="M9 2.25C12.7279 2.25 15.75 5.27208 15.75 9C15.75 12.7279 12.7279 15.75 9 15.75C5.27208 15.75 2.25 12.7279 2.25 9C2.25 5.27208 5.27208 2.25 9 2.25ZM9 0.75C4.44365 0.75 0.75 4.44365 0.75 9C0.75 13.5563 4.44365 17.25 9 17.25C13.5563 17.25 17.25 13.5563 17.25 9C17.25 4.44365 13.5563 0.75 9 0.75ZM6.53031 12.5303L5.46965 11.4697L7.93934 8.99998L5.46969 6.53033L6.53035 5.46967L9 7.93932L11.4697 5.46967L12.5303 6.53033L10.0607 8.99998L12.5303 11.4697L11.4697 12.5303L9 10.0606L6.53031 12.5303Z" fill="#E53535"/>
</svg>
