<svg width="15" height="15" viewBox="0 0 15 15" fill="none" xmlns="http://www.w3.org/2000/svg">
<path fill-rule="evenodd" clip-rule="evenodd" d="M7.49984 0.417969C11.4119 0.417969 14.5832 3.58929 14.5832 7.5013C14.5832 11.4133 11.4119 14.5846 7.49984 14.5846C3.58782 14.5846 0.416504 11.4133 0.416504 7.5013C0.416504 3.58929 3.58782 0.417969 7.49984 0.417969ZM7.49985 1.83455L7.45954 1.83864C7.08192 1.91425 6.60073 3.03202 6.31883 4.66697L8.01076 4.66612C8.07739 5.10416 8.12846 5.58124 8.16194 6.08373L6.1408 6.08454C6.10381 6.53728 6.08318 7.01197 6.08318 7.50122C6.08318 7.99069 6.10383 8.46559 6.14085 8.91853L8.16192 8.91915C8.12841 9.42176 8.07731 9.89894 8.01065 10.3371L6.31895 10.3362C6.6002 11.9668 7.07966 13.0828 7.4568 13.1632L7.49985 13.1679C7.82671 13.1679 8.243 12.3389 8.53956 11.0434C8.83611 9.74789 8.88081 9.24549 8.91651 8.20955L8.9156 7.29522C8.90217 5.79241 8.60738 4.08549 8.35161 3.24939C8.09583 2.41329 7.7945 1.88957 7.54016 1.83864L7.49985 1.83455ZM5.54444 2.18135L5.51282 2.1931C4.27619 2.65619 3.24455 3.53902 2.59135 4.66816L4.17992 4.66725C4.10519 5.12117 4.04857 5.59536 4.01126 6.08498L2.01159 6.0854C1.89512 6.53805 1.83318 7.0126 1.83318 7.50161C1.83318 7.99087 1.89519 8.46566 2.01177 8.91853L4.01132 8.9191C4.04868 9.40896 4.10536 9.88338 4.18017 10.3375L2.59176 10.3358C3.09673 11.2084 3.82774 11.9338 4.70471 12.4321L4.71534 12.4604L4.75604 12.4609C5.00737 12.6002 5.27042 12.721 5.54333 12.8214C5.49313 12.7061 5.44494 12.5861 5.39878 12.4616C5.39878 12.4616 4.66651 10.3349 4.6702 7.86606L4.66651 7.50161L4.67089 7.10445C4.66651 4.66827 5.40417 2.50242 5.54444 2.18135ZM13.1371 8.0813L13.1513 7.91852L13.1626 7.71102L13.1664 7.50161C13.1664 7.39056 13.1632 7.28025 13.1569 7.17078C13.1503 7.05526 13.1402 6.94063 13.1267 6.82703L13.0901 6.56948L13.046 6.33384L13.02 6.21628L12.988 6.0854C12.8821 5.67384 12.7312 5.28059 12.5409 4.91103L12.4083 4.66816L12.3338 4.54322L12.2223 4.36863L12.1299 4.23387L12.0114 4.07241L11.8757 3.90107L11.7082 3.70677L11.5371 3.52527L11.4084 3.3987L11.2257 3.23204L11.0584 3.0915L10.8988 2.96712L10.7347 2.84848C10.3418 2.57476 9.9123 2.34943 9.45511 2.18135L9.49415 2.27251C9.77262 2.93751 9.98626 3.75218 10.1282 4.66765L11.5688 4.66755C11.8675 5.09556 12.1004 5.57289 12.2527 6.08487L10.2849 6.08505C10.3168 6.54279 10.3331 7.01653 10.3331 7.50161C10.3331 7.98687 10.3168 8.46077 10.2849 8.91867L12.2526 8.91878C12.1001 9.431 11.8671 9.90852 11.5681 10.3367L10.1281 10.3364C9.97965 11.2933 9.75288 12.1401 9.45561 12.8208C9.75614 12.7105 10.0447 12.5754 10.3188 12.418L10.4982 12.3108L10.7089 12.1724L10.9055 12.0308L11.0865 11.8888C11.1983 11.7973 11.3064 11.7018 11.4106 11.6024L11.5991 11.4139L11.7655 11.232L11.9172 11.0511L12.0494 10.8803C12.119 10.7868 12.1858 10.691 12.2496 10.5931L12.4078 10.3358C12.6176 9.9734 12.7885 9.58528 12.9146 9.17737L12.9878 8.91853C13.0143 8.8158 13.0379 8.71194 13.0587 8.60705L13.0788 8.4999L13.1029 8.35307L13.1209 8.22304L13.1371 8.0813Z" fill="#333333"/>
</svg>
