<svg width="64" height="64" viewBox="0 0 64 64" fill="none" xmlns="http://www.w3.org/2000/svg">
<path d="M32.0624 59C16.97 42.158 -4.25738 5.39942 31.9645 5.00314C68.1863 4.60686 47.1548 41.8278 32.0624 59Z" fill="#00A0E3"/>
<path fill-rule="evenodd" clip-rule="evenodd" d="M31.3753 14.2191C31.7406 13.927 32.2595 13.927 32.6247 14.2191L40.1245 20.219C40.1246 20.219 40.1245 20.2189 40.1245 20.219L42.6247 22.2191C43.056 22.5641 43.1259 23.1934 42.7809 23.6247C42.4359 24.056 41.8066 24.1259 41.3753 23.7809L40.5 23.0806V33C40.5 33.5523 40.0523 34 39.5 34H24.5C23.9478 34 23.5 33.5523 23.5 33V23.0806L22.6247 23.7809C22.1935 24.1259 21.5642 24.056 21.2192 23.6247C20.8742 23.1934 20.9441 22.5641 21.3753 22.2191L23.8753 20.2191C23.8754 20.2191 23.8752 20.2192 23.8753 20.2191L31.3753 14.2191ZM25.5 21.4806L32 16.2806L38.5 21.4806V32H35.5V26.5C35.5 25.9477 35.0523 25.5 34.5 25.5H29.5C28.9478 25.5 28.5 25.9477 28.5 26.5V32H25.5V21.4806ZM30.5 32H33.5V27.5H30.5V32Z" fill="white"/>
</svg>
