<svg width="16" height="17" viewBox="0 0 16 17" fill="none" xmlns="http://www.w3.org/2000/svg">
<path d="M1.74609 2.42654C1.74609 1.0864 2.83249 0 4.17263 0H11.9072C13.2474 0 14.3338 1.0864 14.3338 2.42654V10.9953C14.3338 12.3354 13.2474 13.4218 11.9072 13.4218H4.17263C2.83249 13.4218 1.74609 12.3354 1.74609 10.9953V2.42654Z" fill="#333333"/>
<path d="M5.38241 10.6131C5.38241 11.1156 4.97501 11.523 4.47245 11.523C3.9699 11.523 3.5625 11.1156 3.5625 10.6131C3.5625 10.1105 3.9699 9.70312 4.47245 9.70312C4.97501 9.70312 5.38241 10.1105 5.38241 10.6131Z" fill="white"/>
<path d="M12.816 10.6131C12.816 11.1156 12.4086 11.523 11.906 11.523C11.4035 11.523 10.9961 11.1156 10.9961 10.6131C10.9961 10.1105 11.4035 9.70312 11.906 9.70312C12.4086 9.70312 12.816 10.1105 12.816 10.6131Z" fill="white"/>
<path d="M5.76562 1.51518C5.76562 1.22202 6.00327 0.984375 6.29643 0.984375H10.0121C10.3052 0.984375 10.5429 1.22202 10.5429 1.51518C10.5429 1.80834 10.3052 2.04599 10.0121 2.04599H6.29643C6.00327 2.04599 5.76562 1.80834 5.76562 1.51518Z" fill="white"/>
<path d="M3.5625 4.01635C3.5625 3.38816 4.07175 2.87891 4.69994 2.87891H11.6762C12.3044 2.87891 12.8137 3.38816 12.8137 4.01635V6.06374C12.8137 6.69193 12.3044 7.20118 11.6762 7.20118H4.69994C4.07175 7.20118 3.5625 6.69193 3.5625 6.06374V4.01635Z" fill="white"/>
<path d="M0 15.3945H16V16.1528H0V15.3945Z" fill="#333333"/>
<path d="M2.50391 14.2578H13.6508V14.7886H2.50391V14.2578Z" fill="#333333"/>
<path d="M5.76303 12.9297L2.04739 15.6595L0 15.3941L3.6019 12.9297H5.76303Z" fill="#333333"/>
<path d="M10.237 12.9297L13.9526 15.6595L16 15.3941L12.3981 12.9297H10.237Z" fill="#333333"/>
</svg>
