<svg width="28" height="24" viewBox="0 0 28 24" fill="none" xmlns="http://www.w3.org/2000/svg">
<path fill-rule="evenodd" clip-rule="evenodd" d="M1.50782 17.5445C0.427865 19.3117 0.984988 21.6198 2.75219 22.6997C3.34097 23.0595 4.01761 23.2499 4.70763 23.2499H23.2923C25.3634 23.2499 27.0423 21.571 27.0423 19.4999C27.0423 18.8099 26.852 18.1333 26.4922 17.5445L17.1998 2.3388C16.1198 0.571597 13.8118 0.0144738 12.0446 1.09443C11.5369 1.40465 11.1104 1.83118 10.8002 2.3388L1.50782 17.5445ZM24.5423 19.4999C24.5423 20.1903 23.9827 20.7499 23.2923 20.7499H4.70763C4.47763 20.7499 4.25208 20.6865 4.05582 20.5665C3.46675 20.2065 3.28104 19.4372 3.64103 18.8481L12.9334 3.64243C13.0368 3.47322 13.179 3.33104 13.3482 3.22764C13.9372 2.86765 14.7066 3.05336 15.0666 3.64243L24.359 18.8481C24.4789 19.0444 24.5423 19.2699 24.5423 19.4999ZM12.75 8.24991H15.25V15.7499H12.75V8.24991ZM15.25 16.9999H12.75V19.4999H15.25V16.9999Z" fill="#FDDD48"/>
</svg>
