<svg width="442" height="384" viewBox="0 0 442 384" fill="none" xmlns="http://www.w3.org/2000/svg">
<path fill-rule="evenodd" clip-rule="evenodd" d="M132.29 189.09C103.895 187.995 104.293 243.535 72.0103 223.833C38.567 203.41 3.87272 70.3781 3.87272 70.3781L62.0547 49.0707C62.0547 49.0707 73.7793 91.3684 84.1169 116.747C122.718 211.109 130.718 194.498 138.214 200.404" fill="white"/>
<path d="M132.29 189.09C103.895 187.995 104.293 243.535 72.0103 223.833C38.567 203.41 3.87271 70.3781 3.87271 70.3781L62.0547 49.0707C62.0547 49.0707 73.7793 91.3685 84.1169 116.747C122.718 211.109 130.718 194.498 138.214 200.404" stroke="black" stroke-width="1.7999" stroke-miterlimit="10" stroke-linejoin="round"/>
<path fill-rule="evenodd" clip-rule="evenodd" d="M257.39 198.38C257.39 198.38 242.635 177.611 226.652 183.098C212.392 188.031 210.543 196.061 205.629 204.095C201.652 210.586 193.109 229.026 185.779 232.848L243.607 210.204C243.607 210.204 249.12 207.648 252.101 204.941C255.16 202.291 257.39 198.38 257.39 198.38Z" fill="#3564FF"/>
<path fill-rule="evenodd" clip-rule="evenodd" d="M257.39 198.38C257.39 198.38 242.635 177.611 226.652 183.098C212.392 188.031 210.543 196.061 205.629 204.095C201.652 210.586 193.109 229.026 185.779 232.848L243.607 210.204C243.607 210.204 249.12 207.648 252.101 204.941C255.16 202.291 257.39 198.38 257.39 198.38ZM191.74 229.176C193.085 227.567 194.454 225.675 195.801 223.647C200.221 216.877 204.276 208.702 206.642 204.769C211.385 196.972 213.188 189.088 226.984 184.299C232.992 182.222 238.805 184.147 243.615 187.209C249.733 191.036 254.324 196.641 255.806 198.494C255.018 199.666 253.339 202.234 251.201 204.11C248.46 206.57 243.468 208.902 243.014 209.114L191.74 229.176Z" fill="black"/>
<path fill-rule="evenodd" clip-rule="evenodd" d="M227.933 182.823C227.484 182.198 285.865 159.953 285.865 159.953C285.865 159.953 291.068 158.074 301.293 163.613C311.664 169.198 314.627 176.387 326.649 185.749C326.076 186.956 326.583 205.339 295.108 215.469C280.136 220.307 262.453 206.487 250.387 193.37C239.827 181.823 228.349 183.244 227.933 182.823Z" fill="white"/>
<path fill-rule="evenodd" clip-rule="evenodd" d="M285.872 160.021C285.872 160.021 291.076 158.142 301.3 163.681C311.672 169.266 314.635 176.456 326.657 185.817C326.084 187.024 326.591 205.408 295.116 215.538C280.144 220.375 262.461 206.555 250.395 193.438C239.756 181.834 228.221 183.334 227.862 182.834C227.481 182.198 285.872 160.021 285.872 160.021ZM251.441 192.574C258.541 200.355 267.698 208.364 277.003 212.517C283.004 215.179 289.162 216.213 294.863 214.394C322.291 205.539 324.728 190.307 325.374 186.511L325.42 186.364C319.68 181.849 316.04 177.833 312.602 174.203C309.174 170.642 305.891 167.544 300.852 164.798C291.237 159.58 286.408 161.19 286.408 161.19C286.408 161.19 245.818 176.613 232.628 182.14C237.115 182.745 244.442 184.985 251.441 192.574Z" fill="black"/>
<path fill-rule="evenodd" clip-rule="evenodd" d="M390.346 137.568L332.447 160.641C332.447 160.641 327.207 206.215 295.308 215.437L356.436 191.637C356.436 191.637 370.37 186.408 380.61 167.696C390.84 148.916 390.346 137.568 390.346 137.568Z" fill="#3564FF"/>
<path fill-rule="evenodd" clip-rule="evenodd" d="M301.737 212.943L356.436 191.637C356.436 191.637 370.37 186.408 380.61 167.696C390.84 148.916 390.346 137.568 390.346 137.568L332.447 160.641C332.447 160.641 327.936 199.896 301.737 212.943L295.308 215.437C297.575 214.795 299.729 213.892 301.737 212.943ZM389.034 139.38C388.738 143.19 387.172 152.987 379.529 167.033C369.573 185.351 356.036 190.447 356.036 190.447L311.497 207.756C316.377 203.421 320.267 198.129 323.299 192.696C330.758 179.237 333.122 164.853 333.618 161.429L389.034 139.38Z" fill="black"/>
<path fill-rule="evenodd" clip-rule="evenodd" d="M89.4712 228.003L146.183 204.91C146.183 204.91 152.141 201.656 153.331 199.515C153.331 199.515 142.42 184.47 130.164 185.389C117.919 186.375 110.739 195.051 103.326 210.105C95.9816 225.148 89.4712 228.003 89.4712 228.003Z" fill="#3564FF"/>
<path fill-rule="evenodd" clip-rule="evenodd" d="M89.4712 228.003L146.183 204.91C146.183 204.91 152.141 201.656 153.331 199.515C153.331 199.515 142.42 184.47 130.164 185.389C117.919 186.375 110.739 195.051 103.326 210.105C95.9816 225.148 89.4712 228.003 89.4712 228.003ZM95.9433 224.039C98.3477 221.215 101.36 216.97 104.465 210.689C111.614 196.165 118.466 187.612 130.303 186.691C134.909 186.301 139.295 188.455 142.91 191.011C147.245 194.149 150.581 198.004 151.804 199.55C151.451 199.955 151.019 200.303 150.519 200.662C148.598 202.154 146.044 203.609 145.658 203.81L95.9433 224.039Z" fill="black"/>
<path fill-rule="evenodd" clip-rule="evenodd" d="M124.422 186.518L183.202 163.721C183.202 163.721 195.329 159.827 204.666 171.57C213.993 183.245 216.687 190.06 216.687 190.06C216.687 190.06 211.354 194.607 206.574 206.522C202.587 216.428 192.227 236.135 179.723 233.331C167.14 230.469 160.006 212.033 152.041 201.463C139.836 185.303 126.145 185.963 124.422 186.518Z" fill="white"/>
<path opacity="0.15" fill-rule="evenodd" clip-rule="evenodd" d="M154.537 191.378C153.879 189.881 154.568 188.098 156.134 187.429L181.108 176.738C182.605 176.08 184.388 176.77 185.056 178.335C185.714 179.833 185.025 181.615 183.459 182.284L158.485 192.975C156.909 193.576 155.195 192.875 154.537 191.378Z" fill="#3564FF"/>
<path opacity="0.15" fill-rule="evenodd" clip-rule="evenodd" d="M167.691 194.775C167.033 193.278 167.723 191.495 169.288 190.826L185.336 184.004C186.833 183.346 188.616 184.036 189.285 185.601C189.943 187.098 189.253 188.881 187.688 189.55L171.651 196.44C170.075 197.041 168.36 196.34 167.691 194.775Z" fill="#3564FF"/>
<path fill-rule="evenodd" clip-rule="evenodd" d="M189.334 170.682C186.756 172.419 186.784 176.944 189.339 180.715C191.895 184.487 196.137 186.176 198.716 184.439C201.294 182.702 201.266 178.177 198.711 174.406C196.144 170.567 191.913 168.945 189.334 170.682Z" fill="#3564FF"/>
<path opacity="0.15" fill-rule="evenodd" clip-rule="evenodd" d="M168.431 210.683C167.773 209.186 168.463 207.403 170.028 206.734L195.002 196.043C196.499 195.385 198.282 196.075 198.951 197.64C199.609 199.137 198.919 200.92 197.354 201.589L172.38 212.28C170.815 212.949 169.089 212.18 168.431 210.683Z" fill="#3564FF"/>
<path opacity="0.15" fill-rule="evenodd" clip-rule="evenodd" d="M181.598 214.147C180.941 212.65 181.63 210.867 183.195 210.198L199.233 203.308C200.73 202.65 202.513 203.34 203.181 204.905C203.839 206.403 203.15 208.185 201.584 208.854L185.547 215.744C183.971 216.345 182.256 215.644 181.598 214.147Z" fill="#3564FF"/>
<path fill-rule="evenodd" clip-rule="evenodd" d="M203.239 190.055C200.66 191.792 200.689 196.316 203.244 200.088C205.799 203.859 210.042 205.548 212.62 203.811C215.199 202.074 215.17 197.549 212.615 193.778C210.049 189.939 205.807 188.25 203.239 190.055Z" fill="#3564FF"/>
<path fill-rule="evenodd" clip-rule="evenodd" d="M183.202 163.721C183.202 163.721 195.329 159.827 204.666 171.57C213.993 183.245 216.687 190.06 216.687 190.06C216.687 190.06 211.354 194.607 206.574 206.522C202.587 216.428 192.227 236.135 179.723 233.331C167.14 230.469 160.006 212.033 152.041 201.463C139.904 185.292 126.156 186.031 124.433 186.586L183.202 163.721ZM153.03 200.678C157.809 207.019 162.276 216.198 167.775 223.121C171.265 227.509 175.168 230.995 179.946 232.11C184.576 233.18 188.788 230.763 192.521 227.099C198.474 221.198 203.045 211.895 205.389 206.085C209.273 196.404 213.568 191.466 215.185 189.813C214.225 187.737 211.017 181.632 203.677 172.356C195.205 161.659 184.202 164.746 183.602 164.912L130.594 185.46C136.333 186.491 145.054 190.041 153.03 200.678Z" fill="black"/>
<path opacity="0.15" fill-rule="evenodd" clip-rule="evenodd" d="M14.9751 89.2241C14.3742 87.6481 15.2217 85.9794 16.7298 85.3894L59.5728 69.6754C61.1488 69.0744 62.8175 69.9219 63.4076 71.43C64.0085 73.006 63.161 74.6747 61.6529 75.2648L18.8099 90.9788C17.3018 91.5688 15.5651 90.7322 14.9751 89.2241Z" fill="#3564FF"/>
<path opacity="0.15" fill-rule="evenodd" clip-rule="evenodd" d="M55.479 190.667C54.8781 189.091 55.7256 187.422 57.2337 186.832L100.077 171.118C101.653 170.517 103.321 171.364 103.911 172.872C104.512 174.448 103.665 176.117 102.157 176.707L59.3138 192.421C57.8057 193.011 56.0691 192.175 55.479 190.667Z" fill="#3564FF"/>
<path opacity="0.15" fill-rule="evenodd" clip-rule="evenodd" d="M252.432 187.886C251.842 186.378 252.532 184.595 254.108 183.994L296.361 166.772C297.869 166.182 299.652 166.872 300.242 168.38C300.832 169.888 300.142 171.671 298.566 172.272L256.313 189.494C254.816 190.152 253.09 189.383 252.432 187.886Z" fill="#3564FF"/>
<path opacity="0.15" fill-rule="evenodd" clip-rule="evenodd" d="M18.1002 99.5935C17.4992 98.0175 18.3467 96.3488 19.8548 95.7587L62.6978 80.0447C64.2738 79.4438 65.9425 80.2913 66.5326 81.7994C67.1335 83.3754 66.286 85.0441 64.7779 85.6341L21.9349 101.348C20.3589 101.949 18.6223 101.112 18.1002 99.5935Z" fill="#3564FF"/>
<path opacity="0.15" fill-rule="evenodd" clip-rule="evenodd" d="M60.6666 200.008C60.0656 198.432 60.9131 196.764 62.4212 196.174L105.264 180.46C106.84 179.859 108.509 180.706 109.099 182.214C109.7 183.79 108.852 185.459 107.344 186.049L64.5013 201.763C62.9932 202.353 61.2675 201.584 60.6666 200.008Z" fill="#3564FF"/>
<path opacity="0.15" fill-rule="evenodd" clip-rule="evenodd" d="M261.244 195.045C260.654 193.537 261.344 191.754 262.852 191.164L305.105 173.942C306.613 173.352 308.396 174.041 308.986 175.549C309.576 177.058 308.886 178.84 307.378 179.43L265.125 196.653C263.56 197.321 261.845 196.621 261.244 195.045Z" fill="#3564FF"/>
<path opacity="0.15" fill-rule="evenodd" clip-rule="evenodd" d="M40.5759 103.309C39.975 101.733 40.8225 100.064 42.3306 99.4739L65.8892 90.8216C67.4652 90.2207 69.1339 91.0682 69.724 92.5762C70.3249 94.1522 69.4774 95.821 67.9694 96.411L44.4107 105.063C42.8347 105.664 41.1089 104.896 40.5759 103.309Z" fill="#3564FF"/>
<path opacity="0.15" fill-rule="evenodd" clip-rule="evenodd" d="M85.2107 202.277C84.6098 200.701 85.4573 199.032 86.9653 198.442L110.524 189.79C112.1 189.189 113.769 190.037 114.359 191.545C114.96 193.121 114.112 194.789 112.604 195.379L89.0455 204.032C87.4695 204.633 85.8007 203.785 85.2107 202.277Z" fill="#3564FF"/>
<path opacity="0.15" fill-rule="evenodd" clip-rule="evenodd" d="M288.557 195.476C287.967 193.968 288.657 192.185 290.165 191.595L313.379 182.092C314.887 181.502 316.67 182.192 317.27 183.768C317.86 185.276 317.171 187.059 315.595 187.659L292.381 197.162C290.941 197.741 289.158 197.052 288.557 195.476Z" fill="#3564FF"/>
<path fill-rule="evenodd" clip-rule="evenodd" d="M26.3165 124.337L74.4881 106.654C74.4881 106.654 79.0833 118.808 84.4424 131.816C90.3589 146.127 95.7176 157.393 95.7176 157.393L47.546 175.076C47.546 175.076 44.3272 168.902 36.0671 149.531C29.6912 134.527 26.3165 124.337 26.3165 124.337Z" fill="white"/>
<path d="M73.6749 107.69C74.9774 111.035 78.9173 121.273 83.3628 132.058C88.1646 143.761 92.6506 153.494 94.2248 156.796L47.7651 173.856C46.5471 171.473 43.165 164.28 36.6776 149.015C31.517 136.812 28.2595 127.788 27.2044 124.682L73.6749 107.69Z" fill="#E9E9E9"/>
<path opacity="0.15" fill-rule="evenodd" clip-rule="evenodd" d="M22.7964 129.36L71.6256 111.433C71.6256 111.433 76.3215 123.78 81.7024 136.923C87.6515 151.439 93.0999 162.829 93.0999 162.829L44.2707 180.756C44.2707 180.756 40.9622 174.458 32.6015 154.894C26.1929 139.686 22.7964 129.36 22.7964 129.36Z" fill="#3564FF"/>
<path d="M73.6749 107.69C74.9774 111.035 78.9173 121.273 83.3628 132.058C88.1646 143.761 92.6506 153.494 94.2248 156.796L47.7651 173.856C46.5471 171.473 43.165 164.28 36.6776 149.015C31.517 136.812 28.2595 127.788 27.2044 124.682L73.6749 107.69Z" stroke="black" stroke-width="1.8233" stroke-miterlimit="10" stroke-linejoin="round"/>
<path d="M305.289 319.62C310.665 314.747 316.552 302.648 335.282 300.679C351.053 299.019 398.505 312.087 418.78 264.931C439.055 217.775 404.284 182.952 352.681 173.176C306.04 164.371 260.877 175.839 232.816 211.471C208.255 242.661 205.608 278.028 216.858 306.532C228.109 335.037 273.372 348.565 305.289 319.62Z" fill="url(#paint0_linear)"/>
<path d="M253.905 218.144C253.905 218.144 284.129 234.754 298.708 235.926C320.17 237.648 328.461 226.877 328.461 226.877C328.461 226.877 307.109 202.271 296.32 196.735C285.531 191.198 257.129 185.439 257.129 185.439L248.576 195.076L253.905 218.144Z" fill="#EF6744"/>
<path d="M203.463 151.079L210.258 139.483C210.528 139.021 211.123 138.866 211.585 139.137L233.137 151.766C233.6 152.037 233.755 152.631 233.484 153.093L226.689 164.689C226.418 165.151 225.824 165.306 225.362 165.035L203.809 152.407C203.347 152.136 203.192 151.542 203.463 151.079Z" fill="#151E27"/>
<path d="M205.942 151.232L211.594 141.586C211.821 141.2 212.317 141.071 212.703 141.297L229.648 151.226C230.034 151.452 230.164 151.948 229.937 152.334L224.285 161.98C224.059 162.366 223.563 162.496 223.177 162.27L206.232 152.34C205.846 152.114 205.716 151.618 205.942 151.232Z" fill="url(#paint1_linear)"/>
<path d="M279.145 166.468C254.125 178.807 233.699 166.442 233.699 166.442L237.563 158.153C237.563 158.153 253.936 155.92 261.941 147.587C265.412 143.974 269.503 123.891 283.457 129.099C291.29 132.03 288.86 161.678 279.145 166.468Z" fill="white"/>
<path d="M230.913 156.597L231.355 156.83L231.355 156.831L231.354 156.832L231.352 156.835L231.344 156.851L231.313 156.91L231.195 157.134C231.093 157.327 230.948 157.603 230.773 157.934C230.425 158.597 229.962 159.482 229.502 160.369C229.041 161.257 228.585 162.145 228.251 162.815C228.084 163.149 227.95 163.424 227.861 163.618C228.112 163.826 228.504 164.062 229.014 164.311C229.67 164.63 230.451 164.937 231.208 165.206C231.963 165.475 232.684 165.702 233.218 165.862C233.484 165.942 233.703 166.006 233.855 166.049C233.878 166.055 233.899 166.061 233.919 166.067C233.93 166.061 233.942 166.054 233.955 166.047C234.079 165.976 234.275 165.847 234.527 165.623C235.03 165.175 235.758 164.345 236.567 162.846C237.364 161.371 237.586 160.202 237.617 159.422C237.633 159.03 237.601 158.733 237.567 158.54C237.564 158.52 237.56 158.502 237.557 158.485C236.288 157.982 235.105 157.284 234.052 156.415L234.041 156.406L234.031 156.397C233.707 156.097 233.382 155.763 233.072 155.443L233.05 155.421C232.728 155.089 232.421 154.774 232.122 154.502C231.821 154.227 231.55 154.016 231.306 153.884C231.078 153.76 230.912 153.725 230.79 153.736C230.78 153.761 230.767 153.807 230.76 153.885C230.738 154.123 230.784 154.472 230.877 154.868C230.968 155.253 231.092 155.637 231.196 155.93C231.247 156.075 231.292 156.195 231.325 156.279C231.341 156.32 231.354 156.353 231.362 156.375L231.372 156.399L231.374 156.404L231.375 156.406L231.375 156.406L231.375 156.406L231.375 156.406L231.465 156.623L231.355 156.83L230.913 156.597ZM237.506 158.279C237.506 158.279 237.506 158.279 237.506 158.279L237.506 158.279ZM233.802 166.123C233.801 166.123 233.801 166.123 233.802 166.123L233.802 166.123ZM227.661 163.425C227.662 163.426 227.663 163.427 227.664 163.428C227.662 163.425 227.66 163.423 227.658 163.42L227.661 163.425Z" fill="#EF6744" stroke="#333333"/>
<path d="M219.953 154.196C219.899 154.292 219.82 154.371 219.724 154.425C219.628 154.478 219.52 154.504 219.41 154.499L215.495 154.342C215.332 154.335 215.179 154.263 215.07 154.143C214.96 154.023 214.903 153.864 214.91 153.702C214.917 153.54 214.989 153.387 215.109 153.277C215.229 153.168 215.387 153.11 215.55 153.117L218.312 153.234L214.804 147.543C214.737 147.478 214.685 147.397 214.654 147.309C214.623 147.221 214.612 147.126 214.623 147.033C214.634 146.94 214.667 146.85 214.718 146.772C214.77 146.693 214.838 146.627 214.919 146.58C215 146.532 215.091 146.504 215.184 146.497C215.278 146.49 215.372 146.505 215.459 146.54C215.546 146.576 215.623 146.631 215.686 146.701C215.748 146.771 215.793 146.855 215.818 146.945L219.928 153.619C219.979 153.706 220.007 153.804 220.012 153.904C220.016 154.005 219.996 154.105 219.953 154.196Z" fill="white"/>
<path d="M247.275 216.551C243.163 217.011 232.384 212.332 232.384 212.332C231.47 215.059 230.205 217.654 228.62 220.052C223.516 227.376 212.575 239.12 198.443 241.408C170.788 245.897 153.82 245.499 153.82 245.499L145.912 239.054C145.912 239.054 165.619 226.257 191.98 209.048C213.853 194.78 222.296 187.743 228.8 187.453C237.885 187.047 259.697 215.254 247.275 216.551Z" fill="url(#paint2_linear)"/>
<path d="M277.044 257.713C277.044 257.713 280.609 267.718 287.192 273.61C293.774 279.502 306.547 287.884 306.547 287.884L305.41 277.648L290.422 265.951C287.13 262.865 285.029 258.72 284.488 254.24C283.79 248.857 282.79 251.91 282.79 251.91L277.044 257.713Z" fill="#EF6744"/>
<path d="M290.451 265.977C290.451 265.977 290.82 270.913 294.843 273.292C298.866 275.671 303.401 278.964 304.154 281.035C304.747 282.804 304.983 284.673 304.847 286.533C307.25 288.384 309.51 290.412 311.608 292.601C312.837 293.954 314.134 295.242 315.496 296.46C315.638 296.622 315.828 296.733 316.038 296.777C316.248 296.822 316.467 296.798 316.662 296.709C316.858 296.62 317.019 296.47 317.123 296.282C317.226 296.094 317.267 295.877 317.238 295.665C317.351 291.83 316.295 288.053 314.211 284.832L307.672 275.41C307.672 275.41 304.591 274.411 304.232 273.286C304.19 273.149 304.177 273.006 304.193 272.864C304.209 272.722 304.254 272.585 304.324 272.461C304.695 271.663 304.697 271.102 304.302 270.561L300.069 264.503C299.781 264.228 299.441 264.013 299.07 263.871C298.698 263.729 298.302 263.662 297.904 263.674C296.644 263.581 295.378 263.727 294.172 264.102C292.827 264.494 291.566 265.129 290.451 265.977Z" fill="#151E27"/>
<path d="M335.753 197.15C335.753 197.15 343.726 219.019 325.238 229C301.349 241.859 283.541 219.098 274.913 206.179C267.971 195.79 262.905 193.579 262.905 193.579C267.9 197.162 272.098 201.743 275.231 207.032C278.364 212.32 280.366 218.202 281.108 224.304C283.417 244.858 286.312 256.39 287.931 260.104L289.537 263.834L286.093 273.378C270.889 261.533 258.154 246.821 248.61 230.076C233.181 202.64 230.2 187.141 232.43 181.058C234.66 174.975 264.167 166.451 284.738 168.704C322.272 172.79 335.753 197.15 335.753 197.15Z" fill="#2C4E8B"/>
<path d="M332.668 223.79C341.945 212.764 336.398 197.131 336.324 196.938L336.263 196.887C336.129 196.643 322.193 172.2 284.78 168.126C264.291 165.902 234.323 174.103 231.803 180.857C230.415 184.603 229.201 196.964 248.026 230.382C257.635 247.19 270.42 261.969 285.669 273.898L286.32 274.367L290.119 263.841L288.424 259.892C286.72 255.936 283.931 244.232 281.656 224.243C281.193 220.214 280.165 216.269 278.603 212.526C293.766 232.42 309.504 238.148 325.45 229.557C328.204 228.116 330.655 226.158 332.668 223.79ZM335.168 197.442C336.417 201.268 336.984 205.284 336.843 209.307C336.418 217.966 332.408 224.394 324.926 228.424C307.882 237.606 291.687 230.2 275.405 205.796C268.47 195.4 263.364 193.05 263.131 192.985L262.556 194.057C262.694 194.173 278.207 204.299 280.486 224.33C282.764 244.361 285.609 256.295 287.34 260.326L288.849 263.844L285.773 272.377C270.965 260.621 258.523 246.16 249.108 229.764C230.034 195.835 231.936 184.053 232.965 181.246C235.053 175.658 264.24 167.049 284.67 169.314C320.749 173.233 334.55 196.282 335.168 197.442Z" fill="white"/>
<path d="M269.917 126.645L269.467 122.163L268.302 122.306C267.935 122.353 267.563 122.308 267.219 122.174C266.875 122.04 266.571 121.821 266.333 121.538C264.662 119.541 263.615 117.097 263.322 114.509C263.304 114.219 263.301 113.929 263.303 113.63C263.303 113.63 264.888 104.509 269.954 106.628C274.816 108.693 271.952 116.15 274.774 119.413C274.881 119.504 274.98 119.587 275.087 119.677L276.203 124.471C275.237 125.146 274.178 125.677 273.06 126.048C272.047 126.399 270.988 126.6 269.917 126.645Z" fill="#EF6744"/>
<path d="M274.797 119.433C271.955 116.193 274.839 108.712 269.977 106.647C264.931 104.505 263.326 113.65 263.326 113.65C263.181 113.527 256.317 106.837 260.251 97.5483C263.153 90.698 268.591 88.4128 276.052 89.7505C283.513 91.0882 285.543 88.2093 288.303 83.7488C291.063 79.2883 289.212 69.9019 298.065 63.5896C308.006 56.559 332.354 52.4894 347.021 70.9213C366.662 95.6033 341.506 113.199 328.492 106.626C318.661 101.674 316.22 116.022 305.969 120.269C300.117 122.703 296.965 119.398 293.526 120.254C286.195 122.071 281.161 126.33 275.085 119.727C274.99 119.622 274.891 119.538 274.797 119.433Z" fill="#151E27"/>
<path d="M267.011 115.405C267.054 115.353 267.081 115.288 267.087 115.221C267.079 115.141 267.04 115.068 266.978 115.016C266.917 114.964 266.838 114.939 266.758 114.944L265.706 114.921L266.162 112.391C266.164 112.316 266.139 112.243 266.092 112.185C266.045 112.127 265.978 112.088 265.905 112.075C265.831 112.063 265.755 112.077 265.691 112.116C265.627 112.155 265.58 112.215 265.557 112.286L265.045 115.162C265.038 115.204 265.04 115.246 265.05 115.287C265.061 115.328 265.081 115.366 265.108 115.398C265.134 115.434 265.169 115.464 265.209 115.484C265.249 115.504 265.293 115.514 265.338 115.513L266.74 115.556C266.794 115.556 266.847 115.542 266.895 115.515C266.942 115.489 266.982 115.451 267.011 115.405Z" fill="black"/>
<path d="M268.121 117.907C268.16 117.87 268.194 117.829 268.224 117.784C268.243 117.749 268.255 117.709 268.258 117.669C268.262 117.628 268.257 117.588 268.243 117.549C268.23 117.511 268.209 117.476 268.181 117.446C268.153 117.417 268.12 117.393 268.082 117.378C268.011 117.343 267.93 117.337 267.855 117.362C267.78 117.387 267.718 117.441 267.682 117.511C267.682 117.511 267.431 117.888 266.524 117.661C266.445 117.642 266.362 117.655 266.293 117.697C266.223 117.739 266.173 117.806 266.153 117.884C266.142 117.924 266.14 117.964 266.145 118.004C266.151 118.044 266.164 118.083 266.185 118.118C266.206 118.152 266.234 118.182 266.267 118.206C266.3 118.23 266.337 118.247 266.376 118.256C267.434 118.505 267.934 118.129 268.121 117.907Z" fill="black"/>
<path d="M267.83 112.173C267.796 112.243 267.791 112.324 267.815 112.398C267.84 112.472 267.892 112.534 267.962 112.57C267.998 112.588 268.037 112.6 268.078 112.604C268.119 112.607 268.16 112.603 268.199 112.59C268.237 112.578 268.274 112.558 268.305 112.532C268.336 112.505 268.362 112.473 268.38 112.437C268.449 112.266 268.551 112.11 268.682 111.979C268.813 111.849 268.968 111.747 269.14 111.678C269.409 111.61 269.694 111.639 269.945 111.759C270.015 111.798 270.097 111.808 270.174 111.787C270.251 111.765 270.317 111.714 270.356 111.645C270.395 111.575 270.405 111.493 270.384 111.416C270.362 111.339 270.311 111.273 270.241 111.234C269.853 111.023 269.397 110.972 268.972 111.091C268.723 111.183 268.495 111.324 268.301 111.505C268.107 111.686 267.951 111.904 267.842 112.146L267.83 112.173Z" fill="black"/>
<mask id="path-49-inside-1" fill="white">
<path fill-rule="evenodd" clip-rule="evenodd" d="M212.524 107.845L207.694 111.256C207.694 111.256 206.542 110.952 204.911 109.971C202.778 109.546 199.29 108.756 197.579 107.837C195.014 106.459 194.012 104.931 193.9 103.636C193.887 103.504 193.928 103.316 194.039 103.166C192.338 100.123 197.003 98.2095 197.003 98.2095C196.431 97.2126 195.734 96.2925 194.929 95.4711C194.477 95.0158 193.756 94.489 193.032 93.9592C191.842 93.0892 190.641 92.2112 190.596 91.6285C190.59 91.5028 190.61 91.3773 190.656 91.2601C190.702 91.1428 190.772 91.0364 190.861 90.9478C190.95 90.8592 191.057 90.7903 191.175 90.7456C191.292 90.7008 191.418 90.6813 191.544 90.6881C191.544 90.6881 190.489 89.8918 190.802 89.0841C191.232 87.9684 192.874 87.8341 192.874 87.8341C192.874 87.8341 192.726 86.5338 195.01 86.8481C195.77 86.9388 198.901 88.2661 202.167 92.3213C205.433 96.3765 212.524 107.845 212.524 107.845ZM195.553 103.371C196.301 102.613 197.328 101.657 198.705 103.798C198.793 103.934 198.881 104.068 198.969 104.2C198.01 104.203 196.405 103.94 195.553 103.371Z"/>
</mask>
<path fill-rule="evenodd" clip-rule="evenodd" d="M212.524 107.845L207.694 111.256C207.694 111.256 206.542 110.952 204.911 109.971C202.778 109.546 199.29 108.756 197.579 107.837C195.014 106.459 194.012 104.931 193.9 103.636C193.887 103.504 193.928 103.316 194.039 103.166C192.338 100.123 197.003 98.2095 197.003 98.2095C196.431 97.2126 195.734 96.2925 194.929 95.4711C194.477 95.0158 193.756 94.489 193.032 93.9592C191.842 93.0892 190.641 92.2112 190.596 91.6285C190.59 91.5028 190.61 91.3773 190.656 91.2601C190.702 91.1428 190.772 91.0364 190.861 90.9478C190.95 90.8592 191.057 90.7903 191.175 90.7456C191.292 90.7008 191.418 90.6813 191.544 90.6881C191.544 90.6881 190.489 89.8918 190.802 89.0841C191.232 87.9684 192.874 87.8341 192.874 87.8341C192.874 87.8341 192.726 86.5338 195.01 86.8481C195.77 86.9388 198.901 88.2661 202.167 92.3213C205.433 96.3765 212.524 107.845 212.524 107.845ZM195.553 103.371C196.301 102.613 197.328 101.657 198.705 103.798C198.793 103.934 198.881 104.068 198.969 104.2C198.01 104.203 196.405 103.94 195.553 103.371Z" fill="#EF6744"/>
<path d="M207.694 111.256L208.271 112.073C208.029 112.244 207.725 112.299 207.439 112.223L207.694 111.256ZM212.524 107.845L213.375 107.319C213.653 107.769 213.533 108.357 213.101 108.662L212.524 107.845ZM204.911 109.971L205.106 108.99C205.22 109.013 205.328 109.054 205.427 109.114L204.911 109.971ZM197.579 107.837L198.052 106.956L197.579 107.837ZM193.9 103.636L194.895 103.544L194.896 103.549L193.9 103.636ZM194.039 103.166L194.912 102.678C195.103 103.02 195.077 103.443 194.844 103.759L194.039 103.166ZM197.003 98.2095L197.871 97.7114C198.014 97.9613 198.043 98.261 197.949 98.5336C197.856 98.8063 197.65 99.0254 197.383 99.1347L197.003 98.2095ZM194.929 95.4711L195.638 94.7659L195.644 94.7714L194.929 95.4711ZM193.032 93.9592L193.622 93.152L193.622 93.152L193.032 93.9592ZM190.596 91.6285L189.599 91.7068C189.598 91.6962 189.597 91.6856 189.597 91.6749L190.596 91.6285ZM190.656 91.2601L191.588 91.6231L191.588 91.6231L190.656 91.2601ZM190.861 90.9478L191.565 91.6578L191.565 91.6578L190.861 90.9478ZM191.544 90.6881L192.146 89.89C192.497 90.155 192.634 90.6184 192.483 91.0316C192.332 91.4447 191.929 91.7107 191.489 91.6867L191.544 90.6881ZM190.802 89.0841L191.736 89.4431L191.735 89.4462L190.802 89.0841ZM192.874 87.8341L193.867 87.7214C193.898 87.9903 193.818 88.2601 193.646 88.4692C193.474 88.6783 193.225 88.8087 192.955 88.8308L192.874 87.8341ZM195.01 86.8481L194.892 87.8411C194.886 87.8404 194.88 87.8396 194.874 87.8388L195.01 86.8481ZM202.167 92.3213L202.946 91.694L202.167 92.3213ZM195.553 103.371L194.998 104.203C194.75 104.037 194.589 103.77 194.558 103.473C194.528 103.176 194.632 102.882 194.841 102.669L195.553 103.371ZM198.705 103.798L199.546 103.256L199.547 103.258L198.705 103.798ZM198.969 104.2L199.799 103.642C200.005 103.948 200.025 104.343 199.852 104.669C199.679 104.995 199.341 105.199 198.972 105.2L198.969 104.2ZM207.117 110.439L211.948 107.028L213.101 108.662L208.271 112.073L207.117 110.439ZM205.427 109.114C206.192 109.575 206.84 109.873 207.289 110.054C207.513 110.145 207.687 110.206 207.8 110.243C207.857 110.262 207.899 110.275 207.924 110.282C207.937 110.286 207.945 110.288 207.949 110.29C207.952 110.29 207.953 110.29 207.953 110.29C207.952 110.29 207.952 110.29 207.952 110.29C207.951 110.29 207.951 110.29 207.951 110.29C207.95 110.29 207.95 110.29 207.95 110.29C207.95 110.29 207.95 110.29 207.949 110.29C207.949 110.29 207.949 110.289 207.694 111.256C207.439 112.223 207.438 112.223 207.438 112.223C207.438 112.223 207.438 112.223 207.438 112.223C207.437 112.223 207.437 112.223 207.437 112.223C207.436 112.223 207.435 112.222 207.434 112.222C207.433 112.222 207.431 112.221 207.429 112.221C207.424 112.219 207.418 112.218 207.412 112.216C207.398 112.212 207.38 112.207 207.358 112.201C207.314 112.187 207.253 112.169 207.176 112.144C207.023 112.093 206.807 112.017 206.539 111.909C206.004 111.693 205.261 111.348 204.396 110.828L205.427 109.114ZM204.716 110.952C203.638 110.737 202.209 110.428 200.826 110.055C199.465 109.687 198.07 109.235 197.106 108.718L198.052 106.956C198.8 107.357 200.004 107.761 201.348 108.124C202.67 108.481 204.051 108.78 205.106 108.99L204.716 110.952ZM197.106 108.718C194.394 107.261 193.057 105.494 192.903 103.722L194.896 103.549C194.967 104.368 195.634 105.657 198.052 106.956L197.106 108.718ZM192.904 103.728C192.87 103.358 192.974 102.925 193.234 102.573L194.844 103.759C194.87 103.723 194.882 103.692 194.888 103.671C194.893 103.653 194.902 103.612 194.895 103.544L192.904 103.728ZM197.003 98.2095C197.383 99.1347 197.383 99.1346 197.383 99.1345C197.384 99.1345 197.384 99.1344 197.384 99.1343C197.384 99.1342 197.384 99.1341 197.385 99.134C197.385 99.1339 197.385 99.1339 197.385 99.134C197.384 99.1343 197.382 99.1349 197.38 99.136C197.375 99.1383 197.365 99.1423 197.352 99.148C197.326 99.1595 197.284 99.1779 197.231 99.2031C197.123 99.2535 196.968 99.3302 196.785 99.4314C196.413 99.6367 195.953 99.9289 195.552 100.29C195.145 100.657 194.858 101.041 194.735 101.418C194.626 101.753 194.619 102.154 194.912 102.678L193.166 103.654C192.608 102.656 192.547 101.677 192.834 100.797C193.107 99.9599 193.668 99.295 194.214 98.8034C194.767 98.3055 195.368 97.9292 195.818 97.6807C196.045 97.555 196.241 97.4584 196.382 97.3923C196.452 97.3592 196.51 97.3335 196.551 97.3155C196.571 97.3065 196.588 97.2994 196.6 97.2942C196.607 97.2916 196.612 97.2894 196.616 97.2878C196.618 97.287 196.619 97.2863 196.621 97.2857C196.621 97.2854 196.622 97.2851 196.622 97.2849C196.623 97.2848 196.623 97.2846 196.623 97.2846C196.624 97.2844 196.624 97.2843 197.003 98.2095ZM195.644 94.7714C196.508 95.6532 197.256 96.6411 197.871 97.7114L196.136 98.7076C195.606 97.7841 194.96 96.9317 194.215 96.1709L195.644 94.7714ZM193.622 93.152C194.321 93.663 195.117 94.242 195.638 94.7659L194.22 96.1764C193.836 95.7897 193.191 95.315 192.441 94.7664L193.622 93.152ZM191.593 91.5502C191.581 91.4025 191.52 91.3761 191.619 91.5043C191.701 91.6106 191.84 91.7544 192.046 91.9363C192.459 92.3007 193.016 92.7086 193.622 93.152L192.441 94.7664C191.858 94.3398 191.219 93.8738 190.723 93.436C190.475 93.2168 190.23 92.9775 190.037 92.7281C189.861 92.5006 189.633 92.146 189.599 91.7068L191.593 91.5502ZM191.588 91.6231C191.593 91.6101 191.595 91.5961 191.595 91.5822L189.597 91.6749C189.584 91.4096 189.628 91.1446 189.724 90.897L191.588 91.6231ZM191.565 91.6578C191.575 91.6479 191.583 91.6361 191.588 91.6231L189.724 90.897C189.821 90.6495 189.968 90.4249 190.157 90.2378L191.565 91.6578ZM191.53 91.6803C191.543 91.6753 191.555 91.6677 191.565 91.6578L190.157 90.2378C190.345 90.0507 190.571 89.9053 190.819 89.8109L191.53 91.6803ZM191.489 91.6867C191.503 91.6874 191.517 91.6852 191.53 91.6803L190.819 89.8109C191.068 89.7164 191.333 89.6751 191.598 89.6896L191.489 91.6867ZM191.735 89.4462C191.773 89.3475 191.686 89.3631 191.856 89.5898C191.922 89.6779 191.999 89.758 192.064 89.8182C192.095 89.8472 192.121 89.8689 192.136 89.8817C192.144 89.8881 192.149 89.8921 192.151 89.8936C192.152 89.8943 192.152 89.8944 192.151 89.8938C192.151 89.8935 192.15 89.893 192.149 89.8924C192.149 89.8921 192.149 89.8917 192.148 89.8913C192.148 89.8911 192.147 89.8909 192.147 89.8907C192.147 89.8906 192.147 89.8904 192.147 89.8903C192.146 89.8901 192.146 89.89 191.544 90.6881C190.941 91.4863 190.941 91.4861 190.941 91.4859C190.941 91.4859 190.941 91.4857 190.94 91.4855C190.94 91.4853 190.94 91.485 190.939 91.4847C190.938 91.4841 190.938 91.4834 190.937 91.4827C190.935 91.4813 190.933 91.4797 190.93 91.4779C190.926 91.4742 190.92 91.4697 190.913 91.4644C190.9 91.4538 190.882 91.44 190.862 91.423C190.821 91.3891 190.766 91.3423 190.704 91.284C190.58 91.1697 190.414 91.0002 190.255 90.7882C189.975 90.4149 189.518 89.6284 189.87 88.7221L191.735 89.4462ZM192.874 87.8341C192.955 88.8308 192.955 88.8307 192.956 88.8307C192.956 88.8307 192.956 88.8307 192.956 88.8307C192.957 88.8306 192.957 88.8306 192.957 88.8306C192.958 88.8305 192.959 88.8305 192.959 88.8304C192.96 88.8304 192.961 88.8303 192.961 88.8303C192.961 88.8302 192.96 88.8303 192.958 88.8306C192.953 88.831 192.944 88.8321 192.929 88.834C192.9 88.8377 192.853 88.8444 192.794 88.8555C192.673 88.8781 192.513 88.9164 192.348 88.9777C191.982 89.1143 191.796 89.2853 191.736 89.4431L189.869 88.7252C190.238 87.7672 191.088 87.3133 191.65 87.1037C191.949 86.992 192.226 86.927 192.427 86.8895C192.528 86.8706 192.613 86.8581 192.675 86.8501C192.707 86.8461 192.732 86.8432 192.752 86.8412C192.762 86.8402 192.77 86.8394 192.777 86.8388C192.78 86.8384 192.783 86.8382 192.786 86.838C192.787 86.8379 192.788 86.8378 192.789 86.8377C192.79 86.8376 192.79 86.8376 192.791 86.8375C192.791 86.8375 192.791 86.8375 192.791 86.8375C192.792 86.8375 192.792 86.8374 192.874 87.8341ZM194.874 87.8388C193.882 87.7023 193.768 87.9625 193.84 87.8796C193.859 87.8577 193.867 87.8332 193.869 87.8195C193.871 87.8127 193.872 87.8041 193.872 87.7911C193.872 87.7843 193.872 87.7756 193.871 87.7644C193.871 87.7587 193.87 87.7524 193.87 87.7453C193.869 87.7417 193.869 87.738 193.869 87.734C193.868 87.732 193.868 87.73 193.868 87.7279C193.868 87.7268 193.868 87.7258 193.868 87.7247C193.868 87.7242 193.868 87.7233 193.867 87.7231C193.867 87.7222 193.867 87.7214 192.874 87.8341C191.88 87.9468 191.88 87.9459 191.88 87.9451C191.88 87.9448 191.88 87.944 191.88 87.9434C191.88 87.9422 191.879 87.941 191.879 87.9398C191.879 87.9374 191.879 87.9349 191.878 87.9323C191.878 87.9271 191.877 87.9215 191.877 87.9155C191.876 87.9035 191.875 87.8899 191.874 87.8748C191.872 87.8447 191.871 87.8083 191.872 87.7666C191.873 87.6837 191.88 87.5759 191.903 87.4521C191.95 87.2045 192.063 86.8746 192.331 86.5669C192.9 85.9125 193.854 85.6796 195.147 85.8575L194.874 87.8388ZM201.388 92.9486C199.82 91.0012 198.297 89.7254 197.097 88.9322C196.497 88.5352 195.981 88.2614 195.584 88.0852C195.385 87.997 195.222 87.9354 195.096 87.8951C195.034 87.8751 194.984 87.8614 194.947 87.8525C194.908 87.8432 194.891 87.841 194.892 87.8411L195.129 85.8552C195.467 85.8955 195.912 86.0427 196.396 86.2574C196.902 86.4823 197.515 86.8108 198.2 87.2638C199.572 88.1708 201.248 89.5862 202.946 91.694L201.388 92.9486ZM212.524 107.845C211.674 108.371 211.674 108.371 211.674 108.371C211.674 108.371 211.674 108.371 211.674 108.371C211.673 108.37 211.673 108.37 211.673 108.369C211.672 108.368 211.671 108.366 211.669 108.363C211.666 108.358 211.66 108.35 211.654 108.339C211.64 108.317 211.62 108.285 211.594 108.243C211.542 108.158 211.464 108.034 211.365 107.873C211.165 107.553 210.876 107.09 210.519 106.522C209.804 105.386 208.818 103.829 207.731 102.147C205.544 98.7645 202.983 94.9285 201.388 92.9486L202.946 91.694C204.617 93.7693 207.235 97.6953 209.41 101.061C210.504 102.753 211.495 104.317 212.212 105.458C212.571 106.028 212.861 106.493 213.062 106.816C213.163 106.977 213.241 107.103 213.294 107.188C213.32 107.231 213.34 107.264 213.354 107.286C213.361 107.297 213.366 107.305 213.37 107.311C213.371 107.314 213.373 107.316 213.374 107.317C213.374 107.318 213.374 107.318 213.375 107.319C213.375 107.319 213.375 107.319 213.375 107.319C213.375 107.319 213.375 107.319 212.524 107.845ZM194.841 102.669C195.027 102.481 195.282 102.225 195.578 102.009C195.875 101.793 196.276 101.568 196.768 101.505C197.876 101.365 198.79 102.081 199.546 103.256L197.864 104.339C197.562 103.869 197.33 103.651 197.185 103.555C197.064 103.475 197.021 103.489 197.019 103.489C196.989 103.493 196.907 103.516 196.757 103.625C196.607 103.734 196.453 103.883 196.265 104.073L194.841 102.669ZM199.547 103.258C199.631 103.389 199.715 103.517 199.799 103.642L198.139 104.757C198.046 104.619 197.954 104.479 197.863 104.337L199.547 103.258ZM196.109 102.54C196.381 102.722 196.853 102.897 197.433 103.023C197.997 103.145 198.566 103.201 198.966 103.2L198.972 105.2C198.414 105.201 197.701 105.127 197.009 104.977C196.334 104.831 195.577 104.59 194.998 104.203L196.109 102.54Z" fill="#333333" mask="url(#path-49-inside-1)"/>
<path d="M212.491 105.678C212.491 105.678 233.84 122.335 259.011 126.172C282.37 129.739 276.042 117.409 287.387 118.852C298.732 120.296 305.132 136.92 309.24 142.677C345.274 193.137 336.847 208.603 336.847 208.603C336.847 208.603 313.289 172.64 284.49 169.776C263.609 167.706 264.891 155.31 264.891 155.31C264.891 155.31 256.863 156.697 231.699 141.156C203.126 123.517 206.38 111.278 206.38 111.278L212.491 105.678Z" fill="white"/>
<path d="M292.232 138.364C292.232 138.364 282.279 160.258 253.647 153.064" stroke="white" stroke-linecap="round" stroke-linejoin="round"/>
<path d="M143.895 248.348L143.943 248.493C144.381 249.848 144.588 251.268 144.553 252.692C144.544 254.045 144.274 255.384 143.757 256.635C143.632 257.041 143.427 257.417 143.154 257.741C142.881 258.066 142.545 258.333 142.167 258.525L134.629 260.821C134.283 260.929 133.912 260.93 133.566 260.823C133.22 260.716 132.914 260.506 132.689 260.221C132.586 260.11 132.462 260.021 132.323 259.958C132.185 259.896 132.036 259.862 131.884 259.858C130.611 259.818 128.584 262.661 128.584 262.661L116.89 266.23C111.938 267.736 107.426 266.513 104.903 265.737C104.695 265.675 104.51 265.554 104.37 265.389C104.23 265.224 104.142 265.021 104.116 264.806C104.09 264.591 104.127 264.373 104.224 264.179C104.32 263.985 104.471 263.823 104.658 263.714C106.349 262.731 108.088 261.835 109.87 261.029C112.779 259.621 115.579 257.996 118.245 256.17C120.075 256.905 122.031 257.272 124.002 257.25C126.358 257.168 131.171 253.638 134.912 250.342C138.652 247.046 143.895 248.348 143.895 248.348Z" fill="#151E27"/>
<path d="M153.849 245.497C149.893 245.227 144.031 248.436 144.031 248.436L143.966 248.512L143.918 248.367C143.918 248.367 138.786 247.12 135.039 250.424C131.293 253.727 126.486 257.25 124.13 257.332C122.158 257.354 120.202 256.987 118.373 256.252C123.889 252.803 138.931 243.282 140.757 242.231C142.86 241.021 144.206 240.088 145.955 239.051C145.926 239.039 153.842 245.504 153.849 245.497Z" fill="#EF6744"/>
<defs>
<linearGradient id="paint0_linear" x1="207.821" y1="271.939" x2="422.307" y2="222.294" gradientUnits="userSpaceOnUse">
<stop stop-color="#EF6744"/>
<stop offset="0.07" stop-color="#EF755B"/>
<stop offset="0.21" stop-color="#F08D81"/>
<stop offset="0.35" stop-color="#F0A1A1"/>
<stop offset="0.49" stop-color="#F1B0BA"/>
<stop offset="0.64" stop-color="#F1BBCB"/>
<stop offset="0.81" stop-color="#F1C2D6"/>
<stop offset="1" stop-color="#F1C4D9"/>
</linearGradient>
<linearGradient id="paint1_linear" x1="219.814" y1="146.808" x2="195.78" y2="148.953" gradientUnits="userSpaceOnUse">
<stop offset="0.07" stop-color="#EF6744"/>
<stop offset="0.25" stop-color="#F08777"/>
<stop offset="0.43" stop-color="#F0A1A1"/>
<stop offset="0.58" stop-color="#F1B4C0"/>
<stop offset="0.72" stop-color="#F1C0D2"/>
<stop offset="0.81" stop-color="#F1C4D9"/>
</linearGradient>
<linearGradient id="paint2_linear" x1="231.473" y1="220.842" x2="171.447" y2="179.791" gradientUnits="userSpaceOnUse">
<stop offset="0.07" stop-color="#2C4E8B"/>
<stop offset="0.21" stop-color="#597FC4"/>
<stop offset="0.46" stop-color="#83A9ED"/>
<stop offset="0.81" stop-color="#AFC5EC"/>
<stop offset="1" stop-color="#F1C4D9"/>
</linearGradient>
</defs>
</svg>
