<svg width="199" height="199" viewBox="0 0 199 199" fill="none" xmlns="http://www.w3.org/2000/svg">
<mask id="mask0" mask-type="alpha" maskUnits="userSpaceOnUse" x="0" y="0" width="199" height="199">
<rect width="199" height="199" fill="#C4C4C4"/>
</mask>
<g mask="url(#mask0)">
<mask id="mask1" mask-type="alpha" maskUnits="userSpaceOnUse" x="12" y="52" width="180" height="124">
<path d="M134.209 70.2328C135.988 71.6209 137.981 72.6997 140.118 73.4189C145.227 75.1378 155.195 78.3671 165.163 80.8196C179.432 84.3294 213.416 109.933 168.728 147.591C124.041 185.249 50.5071 183.171 25.0765 147.095C-0.354063 111.019 12.2147 81.9416 54.9158 59.4877C91.3575 40.335 125.098 63.1341 134.209 70.2328Z" fill="url(#paint0_linear)"/>
</mask>
<g mask="url(#mask1)">
<rect x="-5" y="40.001" width="229" height="135" fill="url(#paint1_linear)"/>
</g>
<g clip-path="url(#clip0)">
<path d="M177.053 114.777C168.242 113.963 166.287 117.674 166.287 117.674C166.287 117.674 165.656 116.642 160.734 117.733C155.813 118.825 156.464 121.95 156.464 121.95C156.464 121.95 147.834 122.734 148.486 125.333C148.977 127.308 176.461 127.496 191.677 126.077C192.108 124.351 192.509 122.535 192.85 120.601C192.91 120.313 192.95 120.015 193 119.727C190.484 119.46 188.129 119.35 186.976 119.36C186.976 119.36 183.849 115.402 177.053 114.777Z" fill="white"/>
<path d="M151.362 92.473C156.946 89.1493 140.487 88.1175 136.668 88.1571C136.668 88.1571 133.45 84.6449 126.434 84.0992C117.333 83.3948 115.318 86.6788 115.318 86.6788C115.318 86.6788 114.666 85.7561 109.585 86.7384C104.503 87.7206 105.164 90.4887 105.164 90.4887C105.164 90.4887 96.2533 91.2031 96.9149 93.5049C97.5764 95.8067 146.611 95.3007 151.362 92.473Z" fill="white"/>
<path d="M58.7715 103.593C62.2396 101.53 52.0257 100.885 49.6501 100.915C49.6501 100.915 47.6454 98.7318 43.2952 98.3945C37.642 97.9579 36.389 100.002 36.389 100.002C36.389 100.002 35.9881 99.4362 32.8307 100.041C29.6733 100.647 30.0843 102.363 30.0843 102.363C30.0843 102.363 24.5513 102.8 24.9623 104.238C25.3833 105.667 55.8246 105.34 58.7715 103.593Z" fill="white"/>
</g>
<path opacity="0.5" fill-rule="evenodd" clip-rule="evenodd" d="M146.078 43.466C156.063 47.5029 167.429 42.6815 171.466 32.6972C175.503 22.7128 170.682 11.3464 160.697 7.30946C150.713 3.27256 139.347 8.09391 135.31 18.0783C131.273 28.0626 136.094 39.4291 146.078 43.466Z" stroke="#EA5B21" stroke-width="4.0095" stroke-dasharray="8.02 4.41"/>
<path opacity="0.5" fill-rule="evenodd" clip-rule="evenodd" d="M151.068 28.0445L150.53 29.3739L153.441 30.5508L153.812 29.6323C153.936 29.3262 154.066 29.0741 154.203 28.8762C154.339 28.6782 154.494 28.5159 154.668 28.3892C154.841 28.2625 155.042 28.1513 155.268 28.0555C155.495 27.9598 155.764 27.8529 156.075 27.735C156.568 27.5404 157.034 27.3538 157.473 27.1751C157.912 26.9964 158.321 26.7869 158.701 26.5466C159.08 26.3063 159.424 26.0141 159.732 25.6701C160.041 25.3261 160.303 24.8882 160.518 24.3564C160.824 23.599 160.966 22.874 160.946 22.1812C160.925 21.4884 160.764 20.8514 160.462 20.2703C160.161 19.6891 159.741 19.1679 159.204 18.7067C158.666 18.2455 158.033 17.8678 157.305 17.5736C156.529 17.2597 155.773 17.0808 155.039 17.0368C154.304 16.9928 153.605 17.0806 152.942 17.3002C152.28 17.5197 151.673 17.8695 151.121 18.3496C150.57 18.8296 150.089 19.4368 149.679 20.1711L152.686 21.6681C153.018 21.0336 153.495 20.575 154.117 20.2923C154.74 20.0095 155.391 20.0055 156.07 20.2801C156.7 20.5351 157.142 20.9433 157.395 21.5049C157.648 22.0664 157.647 22.6614 157.393 23.2899C157.132 23.9344 156.718 24.3764 156.151 24.6158L153.521 25.746C153.174 25.9058 152.878 26.044 152.634 26.1607C152.389 26.2773 152.173 26.4151 151.987 26.574C151.8 26.733 151.636 26.9292 151.495 27.1626C151.353 27.396 151.211 27.69 151.068 28.0445ZM149.794 31.4388C149.264 31.6558 148.895 32.0221 148.687 32.5377C148.582 32.7956 148.537 33.0585 148.551 33.3266C148.565 33.5947 148.628 33.8453 148.741 34.0784C148.854 34.3115 149.008 34.5237 149.203 34.7152C149.399 34.9067 149.626 35.0548 149.884 35.1594C150.418 35.3752 150.95 35.3745 151.48 35.1576C152.01 34.9406 152.379 34.5743 152.587 34.0586C152.796 33.5429 152.778 33.0294 152.533 32.518C152.288 32.0065 151.907 31.6462 151.39 31.437C150.856 31.2212 150.324 31.2218 149.794 31.4388Z" fill="#EA5B21"/>
<path opacity="0.4" fill-rule="evenodd" clip-rule="evenodd" d="M23.6908 61.5401C30.7581 58.8079 34.2724 50.8638 31.5401 43.7965C28.8079 36.7292 20.8638 33.2149 13.7965 35.9472C6.72918 38.6794 3.21492 46.6235 5.94717 53.6908C8.67941 60.7581 16.6235 64.2724 23.6908 61.5401Z" stroke="#00A0E3" stroke-width="3" stroke-dasharray="8.02 4.41"/>
<path opacity="0.4" fill-rule="evenodd" clip-rule="evenodd" d="M18.8311 51.2238L19.1949 52.1648L21.2553 51.3683L21.004 50.7181C20.9202 50.5014 20.8657 50.3094 20.8405 50.1421C20.8153 49.9749 20.8168 49.817 20.8449 49.6685C20.873 49.5199 20.9222 49.3665 20.9926 49.2082C21.0629 49.0499 21.1496 48.8656 21.2525 48.6554C21.4117 48.3185 21.5611 47.9985 21.7005 47.6955C21.8399 47.3925 21.9492 47.088 22.0283 46.7821C22.1074 46.4762 22.1433 46.1607 22.1361 45.8358C22.1288 45.5108 22.0525 45.1601 21.9069 44.7837C21.6997 44.2475 21.424 43.8067 21.0799 43.4612C20.7358 43.1157 20.3466 42.8662 19.9124 42.7129C19.4781 42.5596 19.0119 42.494 18.5139 42.516C18.0159 42.5381 17.5093 42.6488 16.9942 42.8479C16.4448 43.0603 15.9709 43.332 15.5726 43.663C15.1743 43.994 14.8579 44.3753 14.6234 44.8068C14.3889 45.2384 14.2456 45.71 14.1935 46.2218C14.1414 46.7337 14.1868 47.2766 14.3298 47.8507L16.5937 47.1721C16.4587 46.6867 16.4829 46.2218 16.6663 45.7772C16.8496 45.3326 17.1817 45.0174 17.6625 44.8316C18.1089 44.659 18.532 44.656 18.932 44.8226C19.3319 44.9892 19.6179 45.2949 19.7898 45.7398C19.9662 46.1961 19.9665 46.6221 19.7905 47.0179L18.9844 48.8635C18.8833 49.1124 18.7979 49.3257 18.7285 49.5033C18.659 49.681 18.6146 49.8555 18.5953 50.0268C18.576 50.1981 18.5863 50.3777 18.626 50.5656C18.6657 50.7535 18.7341 50.9729 18.8311 51.2238ZM19.8108 53.5788C19.6432 53.9451 19.63 54.3108 19.7711 54.6758C19.8417 54.8583 19.945 55.015 20.0812 55.1459C20.2173 55.2768 20.3704 55.375 20.5404 55.4404C20.7104 55.5058 20.8916 55.5406 21.0841 55.5449C21.2765 55.5491 21.4643 55.5159 21.6474 55.4451C22.0252 55.299 22.2978 55.0429 22.4654 54.6765C22.633 54.3102 22.6462 53.9445 22.5051 53.5795C22.364 53.2145 22.1076 52.9596 21.7358 52.8149C21.3641 52.6701 20.9951 52.6686 20.6288 52.8102C20.251 52.9562 19.9784 53.2124 19.8108 53.5788Z" fill="#00A0E3"/>
</g>
<g clip-path="url(#clip1)">
<path d="M97.784 141.513L95.832 148.382L119.238 164.525L123.567 159.745C123.153 158.967 120.622 153.5 115.742 147.032C113.078 143.5 110.718 141.639 110.718 141.639L97.784 141.513Z" fill="black"/>
<path d="M106.642 145.423C105.075 145.423 104.26 144.959 104.219 144.936C104.053 144.839 103.995 144.627 104.093 144.461C104.191 144.295 104.403 144.238 104.57 144.335C104.593 144.347 105.775 144.999 108.072 144.599C110.178 144.238 110.936 143.563 110.942 143.557C111.086 143.431 111.304 143.437 111.436 143.574C111.568 143.712 111.562 143.929 111.424 144.061C111.39 144.095 110.54 144.879 108.192 145.286C107.612 145.383 107.096 145.423 106.642 145.423Z" fill="white"/>
<path d="M108.066 147.758C106.499 147.758 105.683 147.295 105.643 147.272C105.477 147.175 105.419 146.963 105.517 146.797C105.614 146.631 105.827 146.574 105.993 146.671C106.016 146.682 107.199 147.335 109.495 146.934C111.602 146.574 112.36 145.898 112.366 145.892C112.504 145.761 112.728 145.772 112.86 145.91C112.992 146.047 112.986 146.264 112.848 146.396C112.814 146.43 111.964 147.215 109.616 147.621C109.036 147.718 108.519 147.758 108.066 147.758Z" fill="white"/>
<path d="M109.507 150.077C107.939 150.077 107.124 149.613 107.084 149.59C106.918 149.493 106.86 149.281 106.958 149.115C107.055 148.949 107.268 148.892 107.434 148.989C107.457 149.001 108.646 149.653 110.936 149.253C113.043 148.892 113.801 148.216 113.807 148.211C113.945 148.079 114.168 148.091 114.3 148.228C114.433 148.365 114.427 148.583 114.289 148.714C114.255 148.749 113.405 149.533 111.057 149.939C110.477 150.037 109.96 150.077 109.507 150.077Z" fill="white"/>
<path d="M111.034 152.304C109.467 152.304 108.652 151.84 108.611 151.817C108.445 151.72 108.388 151.508 108.485 151.342C108.583 151.176 108.795 151.119 108.962 151.216C108.985 151.227 110.173 151.88 112.464 151.479C114.571 151.119 115.328 150.443 115.334 150.437C115.472 150.306 115.696 150.317 115.828 150.455C115.96 150.592 115.954 150.81 115.816 150.941C115.782 150.976 114.932 151.76 112.584 152.166C112.01 152.264 111.488 152.304 111.034 152.304Z" fill="white"/>
<path d="M96.2109 147.032L117.2 161.348C117.826 161.772 118.652 161.731 119.238 161.251L122.832 158.263L123.653 159.877C123.911 160.386 123.814 161.01 123.406 161.411L120.145 164.622C119.703 165.057 119.026 165.126 118.503 164.794L96.1937 150.541C95.7057 150.226 95.476 149.63 95.6368 149.075L96.2109 147.032Z" fill="#EF6744"/>
<path d="M110.621 62.0319L116.385 82.4446L94.9194 88.4723V62.0319H110.621Z" fill="#151E27"/>
<path d="M116.385 82.4446L116.471 82.7422L94.9194 88.7928V88.4722L116.385 82.4446Z" fill="#151E27"/>
<path d="M116.471 82.7422L116.551 83.0342L94.9194 89.1076V88.7928L116.471 82.7422Z" fill="#151E28"/>
<path d="M116.551 83.0342L116.638 83.3318L94.9194 89.4282V89.1076L116.551 83.0342Z" fill="#161F29"/>
<path d="M116.638 83.3318L116.718 83.6295L94.9194 89.7488V89.4282L116.638 83.3318Z" fill="#16202A"/>
<path d="M116.718 83.6295L116.804 83.9272L94.9194 90.0693V89.7488L116.718 83.6295Z" fill="#17202B"/>
<path d="M116.804 83.9272L116.884 84.2248L94.9194 90.3899V90.0693L116.804 83.9272Z" fill="#17212C"/>
<path d="M116.884 84.2249L116.971 84.5168L94.9194 90.7104V90.3899L116.884 84.2249Z" fill="#18212C"/>
<path d="M116.971 84.5168L117.057 84.8144L94.9194 91.031V90.7104L116.971 84.5168Z" fill="#18222D"/>
<path d="M117.057 84.8145L117.137 85.1121L94.9194 91.3516V91.031L117.057 84.8145Z" fill="#19222E"/>
<path d="M117.137 85.1121L117.223 85.4098L94.9194 91.6721V91.3516L117.137 85.1121Z" fill="#19232F"/>
<path d="M117.223 85.4098L117.303 85.7074L94.9194 91.9927V91.6721L117.223 85.4098Z" fill="#1A2430"/>
<path d="M117.303 85.7075L117.39 85.9994L94.9194 92.3133V91.9927L117.303 85.7075Z" fill="#1A2431"/>
<path d="M117.39 85.9994L117.476 86.297L94.9194 92.6281V92.3133L117.39 85.9994Z" fill="#1A2532"/>
<path d="M117.476 86.297L117.556 86.5947L94.9194 92.9486V92.6281L117.476 86.297Z" fill="#1B2533"/>
<path d="M117.556 86.5947L117.642 86.8924L94.9194 93.2692V92.9487L117.556 86.5947Z" fill="#1B2634"/>
<path d="M117.642 86.8923L117.723 87.19L94.9194 93.5897V93.2692L117.642 86.8923Z" fill="#1C2635"/>
<path d="M117.723 87.19L117.809 87.4819L94.9194 93.9103V93.5897L117.723 87.19Z" fill="#1C2735"/>
<path d="M117.809 87.4819L117.895 87.7796L94.9194 94.2309V93.9103L117.809 87.4819Z" fill="#1C2736"/>
<path d="M117.895 87.7797L117.975 88.0773L94.9194 94.5515V94.2309L117.895 87.7797Z" fill="#1D2837"/>
<path d="M117.975 88.0773L118.061 88.3749L94.9194 94.872V94.5514L117.975 88.0773Z" fill="#1D2838"/>
<path d="M118.061 88.3749L118.142 88.6726L94.9194 95.1925V94.872L118.061 88.3749Z" fill="#1E2939"/>
<path d="M118.142 88.6726L118.228 88.9645L94.9194 95.5131V95.1926L118.142 88.6726Z" fill="#1E293A"/>
<path d="M118.228 88.9645L118.308 89.2622L94.9194 95.8337V95.5131L118.228 88.9645Z" fill="#1E2A3B"/>
<path d="M118.308 89.2622L118.394 89.5599L94.9194 96.1485V95.8337L118.308 89.2622Z" fill="#1F2A3C"/>
<path d="M118.394 89.5599L118.48 89.8575L94.9194 96.4691V96.1485L118.394 89.5599Z" fill="#1F2B3C"/>
<path d="M118.48 89.8575L118.561 90.1552L94.9194 96.7896V96.4691L118.48 89.8575Z" fill="#1F2B3D"/>
<path d="M118.561 90.1552L118.647 90.4471L94.9194 97.1102V96.7896L118.561 90.1552Z" fill="#202C3E"/>
<path d="M118.647 90.4471L118.727 90.7447L94.9194 97.4307V97.1101L118.647 90.4471Z" fill="#202C3F"/>
<path d="M118.727 90.7448L118.813 91.0425L94.9194 97.7513V97.4308L118.727 90.7448Z" fill="#202C40"/>
<path d="M118.813 91.0425L118.899 91.3401L94.9194 98.0719V97.7513L118.813 91.0425Z" fill="#202D41"/>
<path d="M118.899 91.3401L118.98 91.6377L94.9194 98.3924V98.0718L118.899 91.3401Z" fill="#212D42"/>
<path d="M118.98 91.6378L119.066 91.9297L94.9194 98.713V98.3924L118.98 91.6378Z" fill="#212E42"/>
<path d="M119.066 91.9297L119.146 92.2274L94.9194 99.0336V98.713L119.066 91.9297Z" fill="#212E43"/>
<path d="M119.146 92.2274L119.232 92.525L94.9194 99.3541V99.0335L119.146 92.2274Z" fill="#222F44"/>
<path d="M119.232 92.525L119.313 92.8227L94.9194 99.6689V99.3541L119.232 92.525Z" fill="#222F45"/>
<path d="M119.313 92.8227L119.399 93.1204L94.9194 99.9895V99.6689L119.313 92.8227Z" fill="#223046"/>
<path d="M119.399 93.1204L119.485 93.4123L94.9194 100.31V99.9895L119.399 93.1204Z" fill="#223047"/>
<path d="M119.485 93.4123L119.565 93.71L94.9194 100.631V100.31L119.485 93.4123Z" fill="#233048"/>
<path d="M119.565 93.71L119.652 94.0076L94.9194 100.951V100.631L119.565 93.71Z" fill="#233148"/>
<path d="M119.652 94.0076L119.732 94.3053L94.9194 101.272V100.951L119.652 94.0076Z" fill="#233149"/>
<path d="M119.732 94.3053L119.818 94.603L94.9194 101.592V101.272L119.732 94.3053Z" fill="#23324A"/>
<path d="M119.818 94.6029L119.904 94.8948L94.9194 101.913V101.592L119.818 94.6029Z" fill="#24324B"/>
<path d="M119.904 94.8949L119.985 95.1926L94.9194 102.233V101.913L119.904 94.8949Z" fill="#24334C"/>
<path d="M119.985 95.1926L120.071 95.4902L94.9194 102.554V102.233L119.985 95.1926Z" fill="#24334D"/>
<path d="M120.071 95.4902L120.151 95.7879L94.9194 102.875V102.554L120.071 95.4902Z" fill="#24334D"/>
<path d="M120.151 95.7879L120.237 96.0856L94.9194 103.189V102.875L120.151 95.7879Z" fill="#25344E"/>
<path d="M120.237 96.0856L120.323 96.3775L94.9194 103.51V103.189L120.237 96.0856Z" fill="#25344F"/>
<path d="M120.323 96.3774L120.404 96.6751L94.9194 103.83V103.51L120.323 96.3774Z" fill="#253550"/>
<path d="M120.404 96.6751L120.49 96.9728L94.9194 104.151V103.83L120.404 96.6751Z" fill="#253551"/>
<path d="M120.49 96.9728L120.57 97.2704L94.9194 104.472V104.151L120.49 96.9728Z" fill="#263552"/>
<path d="M120.57 97.2704L120.656 97.5681L94.9194 104.792V104.472L120.57 97.2704Z" fill="#263653"/>
<path d="M120.656 97.5681L120.702 97.7341V97.8715L94.9194 105.113V104.792L120.656 97.5681Z" fill="#263653"/>
<path d="M120.702 98.1921L94.9194 105.433V105.113L120.702 97.8715V98.1921Z" fill="#263754"/>
<path d="M120.702 98.5126L94.9194 105.754V105.433L120.702 98.1921V98.5126Z" fill="#273755"/>
<path d="M120.702 98.8332L94.9194 106.074V105.754L120.702 98.5126V98.8332Z" fill="#273756"/>
<path d="M120.702 99.1537L94.9194 106.389V106.074L120.702 98.8332V99.1537Z" fill="#273857"/>
<path d="M120.702 99.4743L94.9194 106.71V106.389L120.702 99.1537V99.4743Z" fill="#273858"/>
<path d="M120.702 99.7949L94.9194 107.03V106.71L120.702 99.4743V99.7949Z" fill="#273959"/>
<path d="M120.702 100.115L94.9194 107.351V107.03L120.702 99.7949V100.115Z" fill="#283959"/>
<path d="M120.702 100.43L94.9194 107.671V107.351L120.702 100.115V100.43Z" fill="#28395A"/>
<path d="M120.702 100.751L94.9194 107.992V107.671L120.702 100.43V100.751Z" fill="#283A5B"/>
<path d="M120.702 101.071L94.9194 108.313V107.992L120.702 100.751V101.071Z" fill="#283A5C"/>
<path d="M120.702 101.392L94.9194 108.633V108.313L120.702 101.071V101.392Z" fill="#283B5D"/>
<path d="M120.702 101.712L94.9194 108.954V108.633L120.702 101.392V101.712Z" fill="#293B5E"/>
<path d="M120.702 102.033L94.9194 109.274V108.954L120.702 101.713V102.033Z" fill="#293B5E"/>
<path d="M120.702 102.354L94.9194 109.595V109.274L120.702 102.033V102.354Z" fill="#293C5F"/>
<path d="M120.702 102.674L94.9194 109.91V109.595L120.702 102.354V102.674Z" fill="#293C60"/>
<path d="M120.702 102.995L94.9194 110.23V109.91L120.702 102.674V102.995Z" fill="#293C61"/>
<path d="M120.702 103.315L94.9194 110.551V110.23L120.702 102.995V103.315Z" fill="#293D62"/>
<path d="M120.702 103.636L94.9194 110.871V110.551L120.702 103.315V103.636Z" fill="#293D63"/>
<path d="M120.702 103.951L94.9194 111.192V110.871L120.702 103.636V103.951Z" fill="#2A3D63"/>
<path d="M120.702 104.271L94.9194 111.512V111.192L120.702 103.951V104.271Z" fill="#2A3E64"/>
<path d="M120.702 104.592L94.9194 111.833V111.512L120.702 104.271V104.592Z" fill="#2A3E65"/>
<path d="M120.702 104.912L94.9194 112.154V111.833L120.702 104.592V104.912Z" fill="#2A3F66"/>
<path d="M120.702 105.233L94.9194 112.474V112.154L120.702 104.912V105.233Z" fill="#2A3F67"/>
<path d="M120.702 105.553L94.9194 112.795V112.474L120.702 105.233V105.553Z" fill="#2A3F67"/>
<path d="M120.702 105.874L94.9194 113.115V112.795L120.702 105.553V105.874Z" fill="#2A4068"/>
<path d="M120.702 106.195L94.9194 113.43V113.115L120.702 105.874V106.195Z" fill="#2B4069"/>
<path d="M120.702 106.515L94.9194 113.751V113.43L120.702 106.195V106.515Z" fill="#2B406A"/>
<path d="M120.702 106.836L94.9194 114.071V113.751L120.702 106.515V106.836Z" fill="#2B416B"/>
<path d="M120.702 107.156L94.9194 114.392V114.071L120.702 106.836V107.156Z" fill="#2B416B"/>
<path d="M120.702 107.471L94.9194 114.712V114.392L120.702 107.156V107.471Z" fill="#2B416C"/>
<path d="M120.702 107.792L94.9194 115.033V114.712L120.702 107.471V107.792Z" fill="#2B426D"/>
<path d="M120.702 108.112L94.9194 115.353V115.033L120.702 107.792V108.112Z" fill="#2B426E"/>
<path d="M120.702 108.433L94.9194 115.674V115.353L120.702 108.112V108.433Z" fill="#2B426F"/>
<path d="M120.702 108.753L94.9194 115.995V115.674L120.702 108.433V108.753Z" fill="#2B436F"/>
<path d="M120.702 109.074L94.9194 116.315V115.995L120.702 108.753V109.074Z" fill="#2B4370"/>
<path d="M120.702 109.394L94.9194 116.636V116.315L120.702 109.074V109.394Z" fill="#2C4371"/>
<path d="M120.702 109.715L94.9194 116.951V116.636L120.702 109.394V109.715Z" fill="#2C4472"/>
<path d="M120.702 110.036L94.9194 117.271V116.95L120.702 109.715V110.036Z" fill="#2C4472"/>
<path d="M120.702 110.356L94.9194 117.592V117.271L120.702 110.036V110.356Z" fill="#2C4473"/>
<path d="M120.702 110.671L94.9194 117.912V117.592L120.702 110.356V110.671Z" fill="#2C4474"/>
<path d="M120.702 110.992L94.9194 118.233V117.912L120.702 110.671V110.992Z" fill="#2C4575"/>
<path d="M120.702 111.312L94.9194 118.553V118.233L120.702 110.992V111.312Z" fill="#2C4575"/>
<path d="M120.702 111.633L94.9194 118.874V118.553L120.702 111.312V111.633Z" fill="#2C4576"/>
<path d="M120.702 111.953L94.9194 119.194V118.874L120.702 111.633V111.953Z" fill="#2C4677"/>
<path d="M120.702 112.274L94.9194 119.515V119.194L120.702 111.953V112.274Z" fill="#2C4678"/>
<path d="M120.702 112.594L94.9194 119.836V119.515L120.702 112.274V112.594Z" fill="#2C4678"/>
<path d="M120.702 112.915L94.9194 120.156V119.836L120.702 112.594V112.915Z" fill="#2C4679"/>
<path d="M120.702 113.235L94.9194 120.471V120.156L120.702 112.915V113.235Z" fill="#2C477A"/>
<path d="M120.702 113.556L94.9194 120.791V120.471L120.702 113.235V113.556Z" fill="#2C477A"/>
<path d="M120.702 113.877L94.9194 121.112V120.792L120.702 113.556V113.877Z" fill="#2C477B"/>
<path d="M120.702 114.191L94.9194 121.433V121.112L120.702 113.877V114.191Z" fill="#2C477C"/>
<path d="M120.702 114.512L94.9194 121.753V121.433L120.702 114.191V114.512Z" fill="#2C487C"/>
<path d="M120.702 114.833L94.9194 122.074V121.753L120.702 114.512V114.833Z" fill="#2C487D"/>
<path d="M120.702 115.153L94.9194 122.394V122.074L120.702 114.833V115.153Z" fill="#2C487E"/>
<path d="M120.702 115.474L94.9194 122.715V122.394L120.702 115.153V115.474Z" fill="#2C487F"/>
<path d="M120.702 115.794L94.9194 123.035V122.715L120.702 115.474V115.794Z" fill="#2C497F"/>
<path d="M120.702 116.115L94.9194 123.356V123.035L120.702 115.794V116.115Z" fill="#2C4980"/>
<path d="M120.702 116.435L94.9194 123.677V123.356L120.702 116.115V116.435Z" fill="#2C4981"/>
<path d="M120.702 116.756L94.9194 123.991V123.676L120.702 116.435V116.756Z" fill="#2C4981"/>
<path d="M120.702 117.076L94.9194 124.312V123.991L120.702 116.756V117.076Z" fill="#2C4A82"/>
<path d="M120.702 117.397L94.9194 124.632V124.312L120.702 117.076V117.397Z" fill="#2C4A83"/>
<path d="M120.702 117.712L94.9194 124.953V124.632L120.702 117.397V117.712Z" fill="#2C4A83"/>
<path d="M120.702 118.032L94.9194 125.274V124.953L120.702 117.712V118.032Z" fill="#2C4A84"/>
<path d="M120.702 118.353L94.9194 125.594V125.274L120.702 118.032V118.353Z" fill="#2C4B85"/>
<path d="M120.702 118.673L94.9194 125.915V125.594L120.702 118.353V118.673Z" fill="#2C4B85"/>
<path d="M120.702 118.994L94.9194 126.235V125.915L120.702 118.674V118.994Z" fill="#2C4B86"/>
<path d="M120.702 119.315L94.9194 126.556V126.235L120.702 118.994V119.315Z" fill="#2C4B87"/>
<path d="M120.702 119.635L94.9194 126.876V126.556L120.702 119.315V119.635Z" fill="#2C4C87"/>
<path d="M120.702 119.956L94.9194 127.197V126.876L120.702 119.635V119.956Z" fill="#2C4C88"/>
<path d="M120.702 120.276L94.9194 127.512V127.197L120.702 119.956V120.276Z" fill="#2C4C88"/>
<path d="M120.702 120.597L94.9194 127.832V127.512L120.702 120.276V120.597Z" fill="#2C4C89"/>
<path d="M120.702 120.917L94.9194 128.153V127.832L120.702 120.597V120.917Z" fill="#2C4C8A"/>
<path d="M120.702 121.232L94.9194 128.473V128.153L120.702 120.917V121.232Z" fill="#2C4D8A"/>
<path d="M120.702 121.553L94.9194 128.794V128.473L120.702 121.232V121.553Z" fill="#2B4D8B"/>
<path d="M120.702 121.873L94.9194 129.115V128.794L120.702 121.553V121.873Z" fill="#2B4D8B"/>
<path d="M120.702 122.194L94.9194 129.435V129.115L120.702 121.873V122.194Z" fill="#2B4D8C"/>
<path d="M120.702 122.515L94.9194 129.756V129.435L120.702 122.194V122.515Z" fill="#2B4D8D"/>
<path d="M120.702 122.835L94.9194 130.076V129.756L120.702 122.514V122.835Z" fill="#2B4E8D"/>
<path d="M120.702 123.156L94.9194 130.397V130.076L120.702 122.835V123.156Z" fill="#2B4E8E"/>
<path d="M120.702 123.476L94.9194 130.717V130.397L120.702 123.156V123.476Z" fill="#2B4E8E"/>
<path d="M120.702 123.797L94.9194 131.032V130.717L120.702 123.476V123.797Z" fill="#2B4E8F"/>
<path d="M120.702 124.117L94.9194 131.353V131.032L120.702 123.797V124.117Z" fill="#2B4E90"/>
<path d="M120.702 124.438L94.9194 131.673V131.353L120.702 124.117V124.438Z" fill="#2B4F90"/>
<path d="M120.702 124.753L94.9194 131.994V131.673L120.702 124.438V124.753Z" fill="#2B4F91"/>
<path d="M120.702 125.073L94.9194 132.314V131.994L120.702 124.753V125.073Z" fill="#2B4F91"/>
<path d="M120.702 125.394L94.9194 132.635V132.314L120.702 125.073V125.394Z" fill="#2A4F92"/>
<path d="M120.702 125.714L94.9194 132.956V132.635L120.702 125.394V125.714Z" fill="#2A4F92"/>
<path d="M120.702 126.035L94.9194 133.276V132.956L120.702 125.714V126.035Z" fill="#2A4F93"/>
<path d="M120.702 126.355L94.9194 133.597V133.276L120.702 126.035V126.355Z" fill="#2A5093"/>
<path d="M120.702 126.676L94.9194 133.917V133.597L120.702 126.355V126.676Z" fill="#2A5094"/>
<path d="M120.702 126.997L94.9194 134.232V133.917L120.702 126.676V126.997Z" fill="#2A5094"/>
<path d="M120.702 127.317L94.9194 134.553V134.232L120.702 126.997V127.317Z" fill="#2A5095"/>
<path d="M120.702 127.638L94.9194 134.873V134.553L120.702 127.317V127.638Z" fill="#2A5095"/>
<path d="M120.702 127.958L94.9194 135.194V134.873L120.702 127.638V127.958Z" fill="#2A5096"/>
<path d="M120.702 128.273L94.9194 135.514V135.194L120.702 127.958V128.273Z" fill="#2A5196"/>
<path d="M120.702 128.594L94.9194 135.835V135.514L120.702 128.273V128.594Z" fill="#295197"/>
<path d="M120.702 128.914L94.9194 136.155V135.835L120.702 128.594V128.914Z" fill="#295197"/>
<path d="M120.702 129.235L94.9194 136.476V136.155L120.702 128.914V129.235Z" fill="#295198"/>
<path d="M120.702 129.555L94.9941 136.774L94.9194 136.51V136.476L120.702 129.235V129.555Z" fill="#295198"/>
<path d="M120.702 129.876L95.0745 137.071L94.9941 136.774L120.702 129.555V129.876Z" fill="#295199"/>
<path d="M120.702 130.196L95.1603 137.369L95.0742 137.071L120.702 129.876V130.196Z" fill="#295199"/>
<path d="M120.702 130.517L95.241 137.661L95.1606 137.369L120.702 130.196V130.517Z" fill="#29529A"/>
<path d="M120.702 130.838L95.3268 137.959L95.2407 137.661L120.702 130.517V130.838Z" fill="#29529A"/>
<path d="M120.702 131.158L95.4133 138.256L95.3271 137.959L120.702 130.838V131.158Z" fill="#29529B"/>
<path d="M120.702 131.479L95.4935 138.554L95.4131 138.256L120.702 131.158V131.479Z" fill="#29529B"/>
<path d="M120.702 131.794L95.5798 138.852L95.4937 138.554L120.702 131.479V131.794Z" fill="#28529B"/>
<path d="M120.702 132.114L95.66 139.143L95.5796 138.852L120.702 131.794V132.114Z" fill="#28529C"/>
<path d="M120.702 132.435L95.7463 139.441L95.6602 139.143L120.702 132.114V132.435Z" fill="#28529C"/>
<path d="M120.702 132.755L95.8265 139.739L95.7461 139.441L120.702 132.435V132.755Z" fill="#28539D"/>
<path d="M120.702 133.076L95.9128 140.036L95.8267 139.739L120.702 132.755V133.076Z" fill="#28539D"/>
<path d="M120.702 133.396L95.9987 140.334L95.9126 140.036L120.702 133.076V133.396Z" fill="#28539E"/>
<path d="M120.702 133.717L96.0794 140.626L95.999 140.334L120.702 133.396V133.717Z" fill="#28539E"/>
<path d="M120.702 134.037L96.1652 140.924L96.0791 140.626L120.702 133.717V134.037Z" fill="#28539E"/>
<path d="M120.702 134.358L96.2454 141.221L96.165 140.924L120.702 134.037V134.358Z" fill="#28539F"/>
<path d="M120.702 134.679L96.3317 141.519L96.2456 141.221L120.702 134.358V134.679Z" fill="#28539F"/>
<path d="M120.702 134.993L97.0377 141.639H96.366L96.3315 141.519L120.702 134.679V134.993Z" fill="#2854A0"/>
<path d="M120.702 135.314L98.1805 141.639H97.0381L120.702 134.993V135.314Z" fill="#2854A0"/>
<path d="M120.702 135.635L99.3226 141.639H98.1802L120.702 135.314V135.635Z" fill="#2854A0"/>
<path d="M120.702 135.955L100.459 141.639H99.3228L120.702 135.635V135.955Z" fill="#2754A1"/>
<path d="M120.702 136.276L101.602 141.639H100.459L120.702 135.955V136.276Z" fill="#2754A1"/>
<path d="M120.702 136.596L102.739 141.639H101.602L120.702 136.276V136.596Z" fill="#2754A2"/>
<path d="M120.702 136.917L103.881 141.639H102.739L120.702 136.596V136.917Z" fill="#2754A2"/>
<path d="M120.702 137.237L105.018 141.639H103.881L120.702 136.917V137.237Z" fill="#2755A2"/>
<path d="M120.702 137.558L106.161 141.639H105.018L120.702 137.237V137.558Z" fill="#2755A3"/>
<path d="M120.702 137.878L107.297 141.639H106.16L120.702 137.558V137.878Z" fill="#2755A3"/>
<path d="M120.702 138.199L108.439 141.639H107.297L120.702 137.878V138.199Z" fill="#2755A3"/>
<path d="M120.702 138.514L109.582 141.639H108.439L120.702 138.199V138.514Z" fill="#2755A3"/>
<path d="M120.702 138.834L110.719 141.639H109.582L120.702 138.514V138.834Z" fill="#2755A3"/>
<path d="M110.719 141.639L120.702 138.834V141.639H110.719Z" fill="#2755A3"/>
<path d="M110.891 136.751C110.891 136.751 110.885 136.751 110.879 136.751L100.913 136.493C100.718 136.487 100.569 136.327 100.574 136.138C100.58 135.944 100.741 135.801 100.93 135.801L110.897 136.058C111.092 136.064 111.241 136.224 111.235 136.413C111.235 136.596 111.08 136.751 110.891 136.751Z" fill="white"/>
<path d="M107.561 72.5187L81.7553 148.903L69.6992 153.185L80.1822 75.8961L107.561 72.5187Z" fill="url(#paint2_linear)"/>
<path d="M69.7105 153.122L68.2925 160.363L97.0548 162.773L98.1398 156.425C97.3705 155.99 92.2898 152.733 84.6944 149.882C80.5437 148.325 77.5527 148.022 77.5527 148.022L69.7105 153.122Z" fill="black"/>
<path d="M76.0716 154.714C75.8821 154.714 75.7271 154.565 75.7214 154.376C75.7156 154.181 75.8649 154.021 76.0543 154.015C76.083 154.015 77.4322 153.924 79.1545 152.367C80.739 150.935 81.0145 149.962 81.0145 149.951C81.0662 149.768 81.2557 149.653 81.4394 149.705C81.6231 149.751 81.7379 149.939 81.692 150.123C81.6805 150.168 81.3877 151.285 79.6195 152.882C77.6848 154.639 76.1404 154.714 76.0773 154.714H76.0716Z" fill="white"/>
<path d="M78.5286 155.927C78.3391 155.927 78.1841 155.778 78.1784 155.589C78.1726 155.395 78.3219 155.234 78.5114 155.229C78.5401 155.229 79.8892 155.137 81.6115 153.58C83.196 152.149 83.4716 151.176 83.4716 151.164C83.5232 150.981 83.7127 150.872 83.8964 150.918C84.0801 150.964 84.1949 151.153 84.149 151.336C84.1375 151.382 83.8447 152.498 82.0765 154.095C80.1418 155.853 78.5975 155.927 78.5343 155.927C78.5401 155.927 78.5343 155.927 78.5286 155.927Z" fill="white"/>
<path d="M80.9973 157.106C80.8079 157.106 80.6529 156.957 80.6471 156.769C80.6414 156.574 80.7907 156.414 80.9801 156.408C81.0088 156.408 82.3579 156.316 84.0802 154.759C85.6647 153.328 85.9403 152.355 85.9403 152.344C85.992 152.161 86.1814 152.052 86.3651 152.098C86.5489 152.143 86.6637 152.332 86.6177 152.515C86.6063 152.561 86.3135 153.677 84.551 155.275C82.6105 157.032 81.072 157.106 81.0088 157.106C81.0031 157.106 80.9973 157.106 80.9973 157.106Z" fill="white"/>
<path d="M83.4832 158.165C83.2937 158.165 83.1387 158.016 83.133 157.827C83.1272 157.633 83.2765 157.473 83.4659 157.467C83.4947 157.467 84.8438 157.375 86.5661 155.818C88.1506 154.387 88.4262 153.414 88.4262 153.403C88.4778 153.219 88.6615 153.105 88.851 153.156C89.0347 153.202 89.1495 153.391 89.1036 153.574C89.0921 153.62 88.7993 154.736 87.0368 156.333C85.0964 158.091 83.5578 158.165 83.4947 158.165C83.4889 158.165 83.4889 158.165 83.4832 158.165Z" fill="white"/>
<path d="M68.3155 160.329L93.6217 161.182C94.3795 161.205 95.0569 160.73 95.2866 160.008L96.7103 155.561L98.2719 156.482C98.7656 156.774 99.0182 157.352 98.8862 157.913L97.8643 162.367C97.7265 162.968 97.1868 163.392 96.5726 163.392L69.2627 163.18C68.6829 163.18 67.9423 163.105 67.9997 162.241L68.3155 160.329Z" fill="#EF6744"/>
<path d="M80.5781 114.672C80.5666 114.672 80.5494 114.672 80.5379 114.672L77.5411 114.323C77.3517 114.3 77.2139 114.128 77.2369 113.934C77.2598 113.745 77.4321 113.608 77.6273 113.63L80.6241 113.98C80.8135 114.002 80.9513 114.174 80.9283 114.369C80.9054 114.541 80.7561 114.672 80.5781 114.672Z" fill="white"/>
<path d="M78.7181 117.786C78.632 117.786 78.5459 117.758 78.4828 117.695L76.3299 115.714C76.1864 115.582 76.1806 115.365 76.3127 115.222C76.4447 115.079 76.6629 115.073 76.8064 115.205L78.9593 117.185C79.1028 117.317 79.1085 117.534 78.9765 117.678C78.9019 117.746 78.81 117.786 78.7181 117.786Z" fill="white"/>
<path d="M94.6839 28.6308L98.9667 29.2318C98.9667 29.2318 102.928 31.4242 108.508 30.1477C112.561 29.2204 116 25.8888 114.335 21.5613C112.791 17.5371 106.826 16.7529 106.826 16.7529L107.05 11.0515C107.05 11.0515 119.577 9.80364 125.123 20.4508C129.962 29.747 124.365 37.1943 120.524 40.2968C116.178 43.8058 112.567 44.9907 112.567 44.9907L113.354 75.5125L79.6655 77.0294L81.6347 39.8446L94.6839 28.6308Z" fill="#F1C4D9"/>
<path d="M104.392 22.2367C104.392 22.2367 103.313 22.065 103.1 21.3838C103.083 21.3323 103.072 21.2693 103.054 21.1949C102.859 20.4622 102.021 17.8691 100.339 19.4433C99.3171 20.3992 98.5478 21.4983 98.3468 22.6947C98.1803 23.6678 98.4789 24.1372 98.0311 24.9443C97.7211 25.5053 96.9058 25.7228 96.5327 25.843C96.5269 25.843 96.5212 25.8487 96.5155 25.8487C96.4638 25.906 96.4179 25.9689 96.3949 26.0548L94.6841 28.6307C94.6841 28.6307 95.1032 30.0274 96.5155 30.2335C97.8072 30.4224 98.9668 29.2318 98.9668 29.2318L100.012 27.2111C101.189 27.2455 103.227 26.9764 103.898 26.4555C104.668 25.8545 104.036 23.7193 104.036 23.7193L104.392 22.2367Z" fill="#EF6744"/>
<path d="M104.059 18.1782C103.365 16.77 102.36 17.4798 102.36 17.4798C102.36 17.4798 102.463 15.1901 101.126 14.6635C99.7879 14.1311 98.502 15.7339 98.502 15.7339C98.502 15.7339 96.7395 14.4517 94.8794 15.4535C93.0136 16.4609 93.3408 19.7009 93.3408 19.7009C93.3408 19.7009 91.7219 19.781 91.5669 21.8646C91.3315 24.9901 95.2296 26.3009 96.4352 25.8716C96.4582 25.8659 96.4869 25.8545 96.5156 25.843C96.5213 25.843 96.5271 25.8373 96.5328 25.8373C96.906 25.7228 97.7212 25.5053 98.0312 24.9386C98.479 24.1314 98.1805 23.6621 98.3469 22.6889C98.5479 21.4926 99.3229 20.3935 100.339 19.4375C102.021 17.8634 102.859 20.4565 103.055 21.1892C103.083 21.3037 103.1 21.3781 103.1 21.3781C103.1 21.3781 104.754 19.5864 104.059 18.1782Z" fill="black"/>
<path d="M102.446 24.8699C102.423 24.8699 102.394 24.8641 102.371 24.8527C102.285 24.8126 102.245 24.7096 102.285 24.6237C102.389 24.4005 102.75 23.9826 103.387 24.0627C103.485 24.0742 103.554 24.1601 103.542 24.2574C103.531 24.3547 103.445 24.4291 103.347 24.4119C102.808 24.3547 102.612 24.7554 102.601 24.7725C102.572 24.8355 102.509 24.8699 102.446 24.8699Z" fill="black"/>
<path d="M100.173 22.2653C100.161 22.2653 100.155 22.2653 100.144 22.2653C100.046 22.2482 99.9832 22.1623 100 22.065C100.006 22.0421 100.104 21.4582 100.385 20.903C100.89 19.9241 101.413 20.0329 101.47 20.05C101.562 20.0787 101.619 20.1703 101.591 20.2676C101.562 20.3592 101.47 20.4107 101.384 20.3878C101.367 20.3878 101.057 20.3592 100.701 21.0575C100.442 21.567 100.351 22.1165 100.351 22.1222C100.328 22.2081 100.253 22.2653 100.173 22.2653Z" fill="black"/>
<path d="M101.315 22.3111C101.304 22.3111 101.286 22.3111 101.275 22.3054C101.183 22.2825 101.126 22.1852 101.149 22.0936C101.206 21.8532 101.459 21.4182 101.935 21.5212C102.033 21.5384 102.09 21.6357 102.067 21.7273C102.05 21.8189 101.958 21.8875 101.86 21.8589C101.579 21.8017 101.493 22.1566 101.487 22.1738C101.464 22.2596 101.395 22.3111 101.315 22.3111Z" fill="black"/>
<path d="M106.826 16.7472C106.826 16.7472 107.86 15.8084 107.831 13.9423C107.802 12.0762 107.05 11.0458 107.05 11.0458C107.05 11.0458 104.76 10.8684 102.033 11.4866C99.3058 12.1048 97.9222 13.3012 97.6926 13.6504C97.0037 14.675 97.6467 14.9154 97.6467 14.9154C97.6467 14.9154 97.3252 15.734 97.7615 16.2091C98.083 16.5526 98.7087 16.2263 98.7087 16.2263C98.7087 16.2263 98.6284 16.8102 99.0991 16.9991C99.5699 17.1822 100.93 15.9114 101.815 15.7225C102.704 15.5336 103.365 15.5279 103.365 15.5279C103.365 15.5279 102.366 16.4839 102.848 16.8273C103.33 17.1708 104.14 16.6041 105.075 16.5926C106.006 16.5755 106.826 16.7472 106.826 16.7472Z" fill="#EF6744"/>
<path d="M85.5388 67.6989C85.5388 67.6989 84.1437 67.8477 83.0644 69.3704C81.9794 70.8931 81.9736 72.1638 81.9736 72.1638C81.9736 72.1638 83.7189 73.6579 86.2794 74.7684C88.8398 75.8789 90.6712 75.7301 91.0673 75.587C92.2328 75.1691 91.8596 74.5967 91.8596 74.5967C91.8596 74.5967 92.6059 74.1273 92.5313 73.4861C92.4796 73.0225 91.7792 72.908 91.7792 72.908C91.7792 72.908 92.1926 72.4844 91.9227 72.0551C91.6587 71.6315 89.8043 71.8547 88.9719 71.4827C88.1452 71.1106 87.6055 70.727 87.6055 70.727C87.6055 70.727 88.9776 70.5496 88.7939 69.9829C88.6102 69.4162 87.6228 69.399 86.8592 68.8609C86.1014 68.3229 85.5388 67.6989 85.5388 67.6989Z" fill="#EF6744"/>
<path d="M94.6838 28.6307C94.6838 28.6307 88.8567 25.0359 80.6759 28.9456C72.495 32.8552 66.0593 46.7709 69.7565 57.6127C73.4537 68.4545 81.9733 72.1638 81.9733 72.1638L85.5385 67.6989C85.5385 67.6989 77.8226 57.1605 82.0824 48.5569C86.3422 39.9533 94.1844 36.1524 94.1844 36.1524L94.6838 28.6307Z" fill="#F1C4D9"/>
<path d="M72.3 144.707C72.1393 144.707 71.9957 144.599 71.9613 144.438C71.9154 144.25 72.0302 144.061 72.2196 144.021L82.6567 141.536C82.8462 141.49 83.0356 141.605 83.0758 141.794C83.1217 141.983 83.0069 142.172 82.8175 142.212L72.3804 144.696C72.3517 144.707 72.3287 144.707 72.3 144.707Z" fill="white"/>
<path d="M106.975 110.757C106.826 110.757 106.688 110.66 106.642 110.511C106.585 110.327 106.688 110.133 106.872 110.076L109.754 109.188C109.938 109.131 110.133 109.234 110.19 109.417C110.248 109.601 110.144 109.795 109.961 109.852L107.079 110.74C107.044 110.751 107.01 110.757 106.975 110.757Z" fill="white"/>
<path d="M109.416 113.47C109.375 113.47 109.341 113.464 109.301 113.453L106.528 112.508C106.344 112.445 106.247 112.245 106.31 112.068C106.373 111.884 106.574 111.793 106.752 111.85L109.525 112.795C109.708 112.858 109.806 113.058 109.743 113.235C109.697 113.379 109.559 113.47 109.416 113.47Z" fill="white"/>
<path d="M105.043 40.5964L74.5713 46.2552L79.6001 73.1773L110.072 67.5185L105.043 40.5964Z" fill="white"/>
<path d="M79.6026 73.5262C79.4361 73.5262 79.2926 73.4117 79.2581 73.24L74.229 46.3187C74.2118 46.2272 74.229 46.1356 74.2864 46.0554C74.3381 45.981 74.4185 45.9295 74.5103 45.9123L104.983 40.251C105.167 40.2167 105.357 40.3369 105.391 40.5315L110.42 67.4527C110.437 67.5443 110.42 67.6359 110.363 67.7161C110.305 67.7962 110.231 67.842 110.139 67.8592L79.6657 73.5205C79.6428 73.5205 79.6198 73.5262 79.6026 73.5262ZM74.9811 46.5305L79.8839 72.7649L109.668 67.2295L104.765 40.9952L74.9811 46.5305Z" fill="#2755A3"/>
<path d="M105.046 40.5945L112.355 32.3973L116.729 55.8096L110.075 67.5157L105.046 40.5945Z" fill="white"/>
<path d="M110.075 67.8649C110.058 67.8649 110.035 67.8649 110.018 67.8592C109.874 67.8363 109.759 67.7218 109.731 67.5787L104.702 40.6575C104.684 40.5487 104.713 40.4399 104.782 40.3598L112.096 32.1626C112.182 32.0653 112.326 32.0195 112.452 32.0596C112.578 32.0939 112.676 32.2027 112.705 32.3286L117.079 55.7409C117.096 55.821 117.079 55.9069 117.039 55.9756L110.379 67.6874C110.316 67.7962 110.196 67.8649 110.075 67.8649ZM105.419 40.6975L110.242 66.514L116.362 55.7523L112.142 33.1644L105.419 40.6975Z" fill="#2755A3"/>
<path d="M74.5732 46.2558L82.6795 37.8125L112.314 32.3115L105.046 40.5945L74.5732 46.2558Z" fill="white"/>
<path d="M74.5732 46.5993C74.4469 46.5993 74.3263 46.5306 74.2632 46.4161C74.1886 46.2844 74.2115 46.1184 74.3206 46.0097L82.4269 37.5721C82.4785 37.5206 82.5417 37.4862 82.6163 37.469L112.251 31.9623C112.4 31.9337 112.544 32.0024 112.619 32.134C112.693 32.2657 112.676 32.426 112.578 32.5347L105.305 40.8235C105.253 40.8807 105.184 40.9208 105.104 40.938L74.6306 46.5993C74.6134 46.5993 74.5904 46.5993 74.5732 46.5993ZM82.8517 38.1331L75.5721 45.712L104.857 40.2739L111.384 32.8381L82.8517 38.1331Z" fill="#2755A3"/>
<path d="M111.649 50.0224C111.539 50.0224 111.43 49.9709 111.367 49.8793L104.759 40.8006C104.645 40.646 104.679 40.4285 104.834 40.314C104.989 40.1995 105.207 40.2339 105.322 40.3884L111.333 48.6543L111.959 32.3C111.964 32.1111 112.102 31.9566 112.32 31.9623C112.515 31.968 112.665 32.134 112.659 32.3229L111.993 49.6846C111.987 49.8335 111.89 49.9594 111.746 50.0052C111.717 50.0167 111.683 50.0224 111.649 50.0224Z" fill="#2755A3"/>
<path d="M110.075 67.8649C109.886 67.8649 109.731 67.7104 109.725 67.5215L109.335 46.9599C109.329 46.7653 109.484 46.6107 109.679 46.605C109.897 46.605 110.029 46.7538 110.035 46.9484L110.425 67.51C110.431 67.7046 110.276 67.8592 110.081 67.8649C110.075 67.8649 110.075 67.8649 110.075 67.8649Z" fill="#2755A3"/>
<path d="M116.729 56.1588C116.597 56.1588 116.471 56.0844 116.413 55.9527L111.528 45.2426C111.448 45.0652 111.528 44.8591 111.7 44.779C111.878 44.6988 112.085 44.779 112.165 44.9507L117.051 55.6608C117.131 55.8382 117.051 56.0443 116.878 56.1245C116.827 56.1474 116.781 56.1588 116.729 56.1588Z" fill="#2755A3"/>
<path d="M89.5803 41.1268L86.7959 43.8802L87.7087 48.7573L91.1074 48.1276L90.1946 43.2505L93.1971 40.4514L89.5803 41.1268Z" fill="#EF6744"/>
</g>
<defs>
<linearGradient id="paint0_linear" x1="58.5" y1="157" x2="137" y2="69" gradientUnits="userSpaceOnUse">
<stop stop-color="#F9AB89"/>
<stop offset="1" stop-color="#F1C4D9"/>
</linearGradient>
<linearGradient id="paint1_linear" x1="110" y1="180" x2="133.5" y2="72" gradientUnits="userSpaceOnUse">
<stop stop-color="#FE9B81"/>
<stop offset="1" stop-color="#CDE7FF"/>
</linearGradient>
<linearGradient id="paint2_linear" x1="60.4424" y1="147.853" x2="104.742" y2="70.8997" gradientUnits="userSpaceOnUse">
<stop offset="0.2808" stop-color="#151E27"/>
<stop offset="0.3581" stop-color="#1D2838"/>
<stop offset="0.5192" stop-color="#283A5B"/>
<stop offset="0.6694" stop-color="#2C4678"/>
<stop offset="0.8044" stop-color="#2B4E8E"/>
<stop offset="0.9191" stop-color="#28529C"/>
<stop offset="1" stop-color="#2755A3"/>
</linearGradient>
<clipPath id="clip0">
<rect width="192" height="43" fill="white" transform="matrix(-1 0 0 1 193 84)"/>
</clipPath>
<clipPath id="clip1">
<rect width="59" height="154" fill="white" transform="translate(68 11)"/>
</clipPath>
</defs>
</svg>
