<svg width="29" height="26" viewBox="0 0 29 26" fill="none" xmlns="http://www.w3.org/2000/svg">
<path fill-rule="evenodd" clip-rule="evenodd" d="M14.4 0C6.4467 0 0 4.8357 0 10.8C0 14.5143 2.5011 17.7894 6.3072 19.7334C6.3072 19.7577 6.3 19.7739 6.3 19.8C6.3 21.4137 5.0949 23.1507 4.5648 24.0624C4.5657 24.0624 4.5666 24.0624 4.5666 24.0624C4.5243 24.1614 4.5 24.2703 4.5 24.3846C4.5 24.8346 4.8645 25.2 5.3154 25.2C5.4 25.2 5.5485 25.1775 5.5449 25.1874C8.3574 24.7266 11.007 22.1427 11.6226 21.3939C12.5217 21.5262 13.4487 21.6 14.4 21.6C22.3515 21.6 28.8 16.7643 28.8 10.8C28.8 4.8357 22.3524 0 14.4 0ZM14.4 19.8C13.5747 19.8 12.7278 19.737 11.8836 19.6137C11.7963 19.5993 11.709 19.5948 11.6226 19.5948C11.088 19.5948 10.5759 19.8324 10.2312 20.2518C9.846 20.7207 8.7498 21.7674 7.4547 22.5369C7.8057 21.7314 8.0802 20.8287 8.0991 19.8981C8.1045 19.8405 8.1072 19.782 8.1072 19.7325C8.1072 19.0557 7.7283 18.4374 7.1262 18.1296C3.7908 16.4268 1.8 13.6863 1.8 10.8C1.8 5.8374 7.452 1.8 14.4 1.8C21.3462 1.8 27 5.8374 27 10.8C27 15.7626 21.3471 19.8 14.4 19.8Z" fill="white"/>
</svg>
