<svg width="26" height="26" viewBox="0 0 26 26" fill="none" xmlns="http://www.w3.org/2000/svg">
<path fill-rule="evenodd" clip-rule="evenodd" d="M16.8586 21.1924C18.0835 19.2234 18.8727 16.977 19.1281 14.6H21.9419C21.3872 17.5143 19.4586 19.9398 16.8586 21.1924ZM10.1078 11.1334C10.4291 8.80266 11.379 6.64179 12.8673 4.91771C14.3557 6.64179 15.3056 8.80266 15.6269 11.1334H10.1078ZM12.8673 20.8158C11.379 19.0917 10.4291 16.9308 10.1078 14.6H15.6269C15.3056 16.9308 14.3557 19.0917 12.8673 20.8158ZM6.60654 11.1331H3.7916C4.34743 8.2176 6.27605 5.79325 8.87605 4.54063C7.65116 6.50969 6.86191 8.75609 6.60654 11.1331ZM3.7916 14.6H6.60654C6.86191 16.977 7.65116 19.2234 8.87605 21.1924C6.27605 19.9398 4.34743 17.5143 3.7916 14.6ZM21.9419 11.1331H19.1281C18.8727 8.75609 18.0835 6.50969 16.8586 4.54063C19.4586 5.79325 21.3872 8.2176 21.9419 11.1331ZM12.8674 0.155273C5.85776 0.155273 0.15625 5.85678 0.15625 12.8664C0.15625 19.8748 5.85776 25.5775 12.8674 25.5775C19.8758 25.5775 25.5785 19.8748 25.5785 12.8664C25.5785 5.85678 19.8758 0.155273 12.8674 0.155273Z" fill="#333333"/>
</svg>
