<svg width="411" height="411" viewBox="0 0 411 411" fill="none" xmlns="http://www.w3.org/2000/svg">
<mask id="mask0" mask-type="alpha" maskUnits="userSpaceOnUse" x="0" y="0" width="411" height="411">
<rect width="411" height="411" fill="white"/>
</mask>
<g mask="url(#mask0)">
<path d="M336.189 172.704C323.409 167.921 298.101 168.551 278.673 138.845C262.308 113.819 243.303 22.8982 146.966 29.7978C50.6287 36.6974 22.3242 125.219 50.4095 220.212C75.8168 306.157 133.967 371.961 217.731 388.11C291.092 402.251 355.09 388.114 390.487 332.421C421.508 283.57 412.093 201.132 336.189 172.704Z" fill="url(#paint0_linear)" fill-opacity="0.2"/>
<path d="M123.291 116H86V227.599H123.291V116Z" fill="white"/>
<path d="M160.582 151.422H123.291V227.599H160.582V151.422Z" fill="#E9E9E9"/>
<path d="M100.499 123.103H91.9629V131.473H100.499V123.103Z" fill="#D0D2D9"/>
<path d="M117.326 123.103H108.789V131.473H117.326V123.103Z" fill="#D0D2D9"/>
<path d="M100.499 138.243H91.9629V146.613H100.499V138.243Z" fill="#D0D2D9"/>
<path d="M117.326 138.243H108.789V146.613H117.326V138.243Z" fill="#D0D2D9"/>
<path d="M100.499 153.383H91.9629V161.753H100.499V153.383Z" fill="#D0D2D9"/>
<path d="M117.326 153.383H108.789V161.753H117.326V153.383Z" fill="#D0D2D9"/>
<path d="M100.499 168.523H91.9629V176.893H100.499V168.523Z" fill="#D0D2D9"/>
<path d="M117.326 168.523H108.789V176.893H117.326V168.523Z" fill="#D0D2D9"/>
<path d="M100.499 183.663H91.9629V192.034H100.499V183.663Z" fill="#D0D2D9"/>
<path d="M117.326 183.663H108.789V192.034H117.326V183.663Z" fill="#D0D2D9"/>
<path d="M138.249 158.225H130.652V165.673H138.249V158.225Z" fill="white"/>
<path d="M153.219 158.225H145.623V165.673H153.219V158.225Z" fill="white"/>
<path d="M138.249 171.697H130.652V179.145H138.249V171.697Z" fill="white"/>
<path d="M153.219 171.697H145.623V179.145H153.219V171.697Z" fill="white"/>
<path d="M138.249 184.585H130.652V192.034H138.249V184.585Z" fill="white"/>
<path d="M153.219 184.585H145.623V192.034H153.219V184.585Z" fill="white"/>
<path d="M113.021 202.317H96.2695V227.598H113.021V202.317Z" fill="#D0D2D9"/>
<path d="M151.09 202.317H134.338V227.598H151.09V202.317Z" fill="#D0D2D9"/>
<path d="M229.375 178.911H210.127V235H229.375V178.911Z" fill="#E5EBEB"/>
<path d="M237.293 191.471H218.045V235H237.293V191.471Z" fill="#D0D2D9"/>
<path d="M264.739 153.334H239.99V161.564H264.739V153.334Z" fill="#DBDFE2"/>
<path d="M243.933 153.334H242.857V161.564H243.933V153.334Z" fill="#D0D2D9"/>
<path d="M248.42 153.334H247.344V161.564H248.42V153.334Z" fill="#D0D2D9"/>
<path d="M252.9 153.334H251.824V161.564H252.9V153.334Z" fill="#D0D2D9"/>
<path d="M257.385 153.334H256.309V161.564H257.385V153.334Z" fill="#D0D2D9"/>
<path d="M261.869 153.334H260.793V161.564H261.869V153.334Z" fill="#D0D2D9"/>
<path d="M268.001 161.143H236.727V235H268.001V161.143Z" fill="white"/>
<path d="M295.939 176.203H305.875V205.156H295.939V176.203Z" fill="white"/>
<path d="M291.851 182.687H301.787V205.156H291.851V182.687Z" fill="#D0D2D9"/>
<path d="M277.683 163H290.459V167.248H277.683V163Z" fill="#DBDFE2"/>
<path d="M288.423 163H288.979V167.248H288.423V163Z" fill="#D0D2D9"/>
<path d="M286.109 163H286.664V167.248H286.109V163Z" fill="#D0D2D9"/>
<path d="M283.796 163H284.352V167.248H283.796V163Z" fill="#D0D2D9"/>
<path d="M281.48 163H282.035V167.248H281.48V163Z" fill="#D0D2D9"/>
<path d="M279.165 163H279.721V167.248H279.165V163Z" fill="#D0D2D9"/>
<path d="M276.001 167.031H292.145V205.156H276.001V167.031Z" fill="#E9E9E9"/>
<path d="M126.505 292.99C46.105 281.39 33.005 297.823 36.505 307.49C36.505 321.99 70.5059 328.99 169.506 330.99C268.506 332.99 374.506 332.99 390.506 316.49C406.506 299.99 369.006 292.99 320.506 307.49C272.006 321.99 227.005 307.49 126.505 292.99Z" fill="black"/>
<path d="M298.764 291.361L303.991 312.999H301.209L288.227 291.502L298.764 291.361Z" fill="#2A2869"/>
<path d="M116.362 229.005C116.362 229.005 103.717 212.145 90.2426 224.341C76.7682 236.536 99.572 241.131 100.977 260.717C102.382 280.304 106.597 291.502 134.558 291.502H224.101L229.623 178.073C229.623 178.073 132.675 176.78 125.65 185.098C118.624 193.416 114.494 206.623 116.362 229.005Z" fill="#2C4E8B"/>
<path d="M316.887 229.005C316.887 229.005 329.532 212.145 343.007 224.341C356.481 236.536 333.677 241.131 332.272 260.717C330.867 280.303 326.652 291.502 298.692 291.502H209.148L205.523 178.101C205.523 178.101 300.56 176.78 307.558 185.126C314.555 193.472 318.756 206.623 316.887 229.005Z" fill="#2C4E8B"/>
<path d="M129.921 291.361L124.68 312.999H127.476L140.444 291.502L129.921 291.361Z" fill="#2A2869"/>
<path d="M100.275 232.743C100.275 232.743 100.275 232.391 100.739 232.012C101.37 231.484 102.178 231.213 103.001 231.253C103.584 231.273 104.154 231.437 104.659 231.731C105.236 232.108 105.672 232.666 105.895 233.319C106.026 233.661 106.102 234.021 106.12 234.387C106.145 234.77 106.107 235.154 106.007 235.525C105.807 236.35 105.306 237.072 104.602 237.548C103.899 238.002 103.056 238.186 102.228 238.068C101.849 238.014 101.48 237.905 101.132 237.745C100.795 237.59 100.482 237.386 100.205 237.141C99.6896 236.666 99.3483 236.033 99.2351 235.342C99.1529 234.763 99.2206 234.173 99.4319 233.628C99.7131 232.855 100.282 232.221 101.02 231.858C101.539 231.633 101.863 231.675 101.877 231.731C101.891 231.787 101.624 231.942 101.258 232.237C100.739 232.659 100.365 233.234 100.191 233.881C100.085 234.305 100.085 234.749 100.191 235.173C100.306 235.636 100.567 236.05 100.935 236.354C101.34 236.735 101.863 236.968 102.418 237.012C102.973 237.056 103.526 236.909 103.987 236.597C104.447 236.284 104.787 235.823 104.95 235.291C105.113 234.759 105.089 234.187 104.883 233.67C104.742 233.213 104.456 232.814 104.068 232.532C103.709 232.281 103.295 232.117 102.86 232.054C102.196 231.962 101.519 232.074 100.921 232.377C100.514 232.602 100.275 232.799 100.275 232.743Z" fill="#2A2869"/>
<path d="M327.511 233.235C327.511 233.235 327.511 232.94 327.96 232.701C328.247 232.542 328.563 232.443 328.89 232.412C329.216 232.381 329.545 232.417 329.857 232.518C330.366 232.65 330.818 232.946 331.143 233.36C331.468 233.773 331.648 234.282 331.655 234.808C331.663 235.424 331.482 236.027 331.136 236.536C330.752 237.107 330.172 237.517 329.506 237.689C328.839 237.826 328.145 237.716 327.553 237.38C327.017 237.088 326.582 236.643 326.302 236.101C326.042 235.6 325.953 235.027 326.049 234.471C326.14 234.015 326.337 233.586 326.625 233.221C327.026 232.699 327.608 232.348 328.255 232.237C328.705 232.237 328.944 232.237 328.944 232.349C328.944 232.462 328.719 232.49 328.382 232.673C327.928 232.899 327.548 233.25 327.286 233.684C327.11 233.974 327.016 234.307 327.016 234.647C327.016 234.986 327.11 235.319 327.286 235.609C327.487 235.954 327.789 236.229 328.15 236.4C328.511 236.57 328.915 236.628 329.309 236.565C329.699 236.458 330.045 236.231 330.297 235.915C330.55 235.599 330.696 235.212 330.714 234.808C330.725 234.48 330.633 234.156 330.452 233.882C330.271 233.607 330.009 233.396 329.702 233.277C329.264 233.071 328.772 233.012 328.297 233.108C327.778 233.193 327.567 233.319 327.511 233.235Z" fill="#2A2869"/>
<path d="M218.957 222.261C218.596 220.411 218.436 218.526 218.48 216.641C218.367 213.157 218.325 208.337 218.48 203.026C218.634 197.715 218.971 192.896 219.323 189.425C219.389 187.528 219.663 185.643 220.138 183.805C220.308 185.675 220.308 187.556 220.138 189.425C219.997 192.896 219.8 197.701 219.632 202.998C219.463 208.295 219.379 213.1 219.295 216.585C219.361 218.483 219.248 220.384 218.957 222.261Z" fill="#2A2869"/>
<path d="M311.143 211.499C311.127 211.316 311.127 211.133 311.143 210.951C311.143 210.768 311.143 210.557 311.227 210.29C311.244 209.986 311.244 209.681 311.227 209.377C311.283 207.355 310.944 205.341 310.23 203.448C309.052 200.471 307.195 197.81 304.806 195.678C303.328 194.348 301.685 193.215 299.917 192.306C298.975 191.814 297.978 191.378 296.952 190.901C295.927 190.423 294.817 190.114 293.678 189.791C288.684 188.489 283.59 187.61 278.448 187.163C275.638 186.854 272.828 186.503 269.849 186.222L265.339 185.772L260.702 185.379C254.45 184.831 247.874 184.423 241.032 184.058C237.617 183.904 234.147 183.721 230.62 183.623C228.85 183.623 227.08 183.482 225.295 183.454L219.886 183.328C205.386 183.047 191.574 183.229 179.013 183.595C172.732 183.791 166.761 184.016 161.183 184.269C155.605 184.522 150.392 184.705 145.728 185.267C141.5 185.705 137.35 186.711 133.391 188.259C130.42 189.463 127.666 191.149 125.242 193.247C123.711 194.58 122.364 196.111 121.238 197.799L120.746 198.572C120.605 198.797 120.493 198.994 120.409 199.148C120.331 199.314 120.226 199.466 120.1 199.598C120.149 199.423 120.215 199.254 120.296 199.092L120.591 198.488L121.041 197.673C122.105 195.908 123.421 194.309 124.947 192.924C127.36 190.721 130.13 188.944 133.138 187.669C137.135 186.032 141.338 184.954 145.629 184.466C150.364 183.847 155.577 183.637 161.169 183.328C166.761 183.018 172.718 182.78 179.013 182.541C191.574 182.133 205.414 181.908 219.942 182.189L225.351 182.316C227.136 182.316 228.92 182.428 230.69 182.485C234.217 182.583 237.716 182.78 241.116 182.934C247.958 183.314 254.548 183.763 260.786 184.339C262.346 184.48 264.861 183.623 266.407 183.763C267.952 183.904 268.472 185.07 269.947 185.168C272.912 185.463 275.792 185.829 278.56 186.166C283.75 186.662 288.888 187.603 293.917 188.976C295.069 189.313 296.165 189.721 297.233 190.142C298.264 190.557 299.273 191.026 300.254 191.547C302.066 192.496 303.743 193.682 305.242 195.074C307.663 197.3 309.514 200.076 310.637 203.167C311.337 205.119 311.615 207.197 311.452 209.265C311.438 209.575 311.405 209.885 311.354 210.192C311.354 210.445 311.242 210.67 311.213 210.838C311.218 211.06 311.194 211.282 311.143 211.499Z" fill="#2A2869"/>
<path d="M150 272.534C149.86 272.632 149.017 271.494 147.457 269.85L146.853 269.218C146.628 269.007 146.389 268.796 146.15 268.557C145.687 268.094 145.139 267.658 144.563 267.152C143.313 266.141 141.988 265.225 140.6 264.413C139.206 263.618 137.755 262.928 136.259 262.347C135.556 262.094 134.854 261.841 134.264 261.659C133.941 261.574 133.646 261.462 133.35 261.392L132.493 261.167C131.271 260.983 130.067 260.692 128.896 260.296C130.139 260.063 131.417 260.092 132.648 260.38L133.547 260.535L134.517 260.745C135.191 260.9 135.922 261.125 136.61 261.35C139.789 262.438 142.724 264.137 145.251 266.351C145.813 266.871 146.361 267.349 146.825 267.869C147.05 268.122 147.288 268.347 147.485 268.586C147.682 268.824 147.879 269.077 148.075 269.302C148.958 270.216 149.617 271.322 150 272.534Z" fill="#2A2869"/>
<path d="M216.555 277.339C215.465 276.876 214.437 276.281 213.492 275.568C213.028 275.301 212.522 274.992 211.96 274.683C211.398 274.374 210.808 274.065 210.176 273.728C208.897 273.096 207.464 272.449 205.961 271.873C204.457 271.297 202.926 270.833 201.549 270.468C200.86 270.299 200.144 270.131 199.582 270.004C199.02 269.878 198.374 269.766 197.84 269.667C196.66 269.565 195.496 269.33 194.369 268.965C195.545 268.691 196.763 268.657 197.952 268.866C198.5 268.866 199.104 268.965 199.75 269.077C200.397 269.189 201.071 269.302 201.802 269.442C204.911 270.135 207.905 271.265 210.696 272.8C211.328 273.166 211.932 273.517 212.48 273.882C213.028 274.248 213.52 274.571 213.969 274.908C215.712 276.229 216.639 277.24 216.555 277.339Z" fill="#2A2869"/>
<path d="M313.039 251.584C313.18 251.865 304.412 256.544 293.453 262.052C282.493 267.56 273.515 271.789 273.375 271.508C273.234 271.227 281.988 266.534 292.947 261.026C303.906 255.519 312.899 251.275 313.039 251.584Z" fill="#2A2869"/>
<path d="M131.185 261.04C130.946 261.223 127.771 257.176 124.82 251.612C121.869 246.049 120.268 241.159 120.605 241.047C120.942 240.934 122.951 245.571 125.888 251.079C128.824 256.586 131.466 260.858 131.185 261.04Z" fill="#2A2869"/>
<path d="M188.791 270.581C186.897 271.15 184.947 271.513 182.974 271.662C179.349 272.14 174.319 272.66 168.741 272.983C163.163 273.306 158.119 273.348 154.466 273.264C152.485 273.341 150.502 273.204 148.551 272.857C150.502 272.546 152.477 272.414 154.452 272.463C158.105 272.337 163.135 272.154 168.685 271.845C174.235 271.536 179.251 271.143 182.89 270.862C184.846 270.601 186.82 270.507 188.791 270.581Z" fill="#2A2869"/>
<path d="M129.92 291.361L129.189 294.382L138.21 295.211L140.444 291.502L129.92 291.361Z" fill="#1A144A"/>
<path d="M288.227 291.502L290.447 295.169L299.509 294.452L298.694 291.502H288.227Z" fill="#1A144A"/>
<path d="M148.061 196.207C147.959 196.006 147.717 195.924 147.52 196.024C147.322 196.124 147.244 196.367 147.346 196.568L152.705 207.178C152.807 207.379 153.049 207.461 153.246 207.361C153.444 207.261 153.522 207.018 153.42 206.817L148.061 196.207Z" fill="#262262"/>
<path d="M148.659 198.244L148.647 198.251C148.578 198.286 148.55 198.37 148.585 198.439L149.592 200.433C149.627 200.503 149.712 200.53 149.781 200.495L149.793 200.489C149.863 200.454 149.89 200.37 149.855 200.3L148.848 198.306C148.813 198.237 148.729 198.209 148.659 198.244Z" fill="#708CC7"/>
<path d="M150.012 201.101C150.097 201.101 150.167 201.032 150.167 200.947C150.167 200.861 150.097 200.792 150.012 200.792C149.927 200.792 149.857 200.861 149.857 200.947C149.857 201.032 149.927 201.101 150.012 201.101Z" fill="#708CC7"/>
<path d="M197.094 271.016C195.998 271.016 195.197 269.344 195.015 268.908C193.511 270.313 188.383 267.208 188.158 267.068L188.228 266.955C188.228 266.955 193.666 270.285 194.987 268.74V268.641V268.754C194.987 268.754 195.914 271.03 197.108 270.861V271.002L197.094 271.016Z" fill="#707DBD"/>
<path d="M182.418 165.059C182.391 163.664 181.805 163.664 181.417 163.709C180.038 164.177 175.828 162.979 175.341 162.79C174.827 162.592 171.23 161.647 168.877 161.998C164.992 162.574 167.579 166.437 168.354 167.481C168.435 167.58 168.508 167.67 168.562 167.742C169.247 168.742 168.336 170.372 168.336 170.372L170.689 171.452C170.689 171.452 172.88 174.558 174.502 174.171C174.575 174.153 174.656 174.126 174.737 174.099L174.656 178.385C174.656 178.385 175.846 181.545 177.297 181.941C178.758 182.338 181.21 177.989 181.21 177.989L181.101 167.58C181.507 167.184 182.445 166.635 182.418 165.059Z" fill="#EF6744"/>
<path d="M180.371 278.121C180.371 278.121 213.15 275.05 236.201 268.91C248.028 265.758 262.714 260.014 262.714 260.014L297.494 277.616L304.597 255.305L268.979 235.46C263.769 232.192 257.692 230.553 251.535 230.76L209.318 237.702L192.929 241.799L180.371 278.121Z" fill="url(#paint1_linear)"/>
<path d="M173.213 169.939C173.213 169.939 173.384 170.696 172.275 171.2" stroke="black" stroke-width="0.5" stroke-miterlimit="10" stroke-linecap="round" stroke-linejoin="round"/>
<path d="M168.77 164.267C168.77 164.267 169.058 163.565 170.726 163.898C171.744 164.105 172.61 164.582 172.61 164.582" stroke="black" stroke-width="0.5" stroke-miterlimit="10" stroke-linecap="round" stroke-linejoin="round"/>
<path d="M171.456 166.167C171.456 166.167 171.15 166.743 170.248 166.473" stroke="black" stroke-width="0.5" stroke-miterlimit="10" stroke-linecap="round" stroke-linejoin="round"/>
<path d="M225.338 279.912L226.546 292.04L273.784 303.061L277.652 292.77C276.507 291.788 269.061 284.693 257.269 277.463C250.832 273.511 245.919 272.034 245.919 272.034L225.338 279.912Z" fill="black"/>
<path d="M237.77 280.732C237.77 280.732 240.222 281.119 243.891 278.886C247.244 276.851 248.02 275.185 248.02 275.185" stroke="white" stroke-miterlimit="10" stroke-linecap="round" stroke-linejoin="round"/>
<path d="M241.502 283.559C241.502 283.559 243.954 283.946 247.623 281.713C250.977 279.678 251.752 278.012 251.752 278.012" stroke="white" stroke-miterlimit="10" stroke-linecap="round" stroke-linejoin="round"/>
<path d="M245.242 286.332C245.242 286.332 247.694 286.719 251.363 284.486C254.717 282.451 255.492 280.786 255.492 280.786" stroke="white" stroke-miterlimit="10" stroke-linecap="round" stroke-linejoin="round"/>
<path d="M249.055 288.916C249.055 288.916 251.507 289.303 255.176 287.07C258.529 285.036 259.305 283.37 259.305 283.37" stroke="white" stroke-miterlimit="10" stroke-linecap="round" stroke-linejoin="round"/>
<path d="M226.293 289.654L268.555 299.289C269.808 299.577 271.106 298.991 271.719 297.866L275.542 290.87L277.859 292.923C278.589 293.571 278.823 294.625 278.427 295.516L275.271 302.656C274.848 303.619 273.811 304.16 272.774 303.953L228.457 295.246C227.483 295.057 226.753 294.246 226.654 293.265L226.293 289.654Z" fill="#EF6744"/>
<path d="M145.43 247.616C145.43 247.616 145.114 288.943 185.429 276.734C202.9 271.44 212.799 244.05 212.799 244.05L225.311 280.047L245.929 272.016L230.026 221.324C227.899 214.535 220.488 210.925 213.826 213.446C204.478 216.984 191.821 222.333 183.148 228.185C167.85 238.522 159.232 245.166 159.232 245.166L145.43 247.616Z" fill="url(#paint2_linear)"/>
<path d="M226.097 270.503C225.889 270.503 225.682 270.386 225.592 270.179C225.466 269.9 225.592 269.576 225.871 269.459L239.971 263.21C240.25 263.093 240.575 263.21 240.692 263.489C240.818 263.768 240.692 264.093 240.413 264.21L226.313 270.458C226.25 270.494 226.169 270.503 226.097 270.503Z" fill="white"/>
<path d="M212.429 240.178C212.42 240.178 212.42 240.178 212.411 240.178C212.105 240.169 211.87 239.917 211.879 239.611L212.087 232.912C212.096 232.606 212.357 232.372 212.654 232.381C212.961 232.39 213.195 232.642 213.186 232.948L212.979 239.647C212.97 239.944 212.727 240.178 212.429 240.178Z" fill="white"/>
<path d="M213.853 241.799C213.781 241.799 213.709 241.781 213.637 241.754C213.358 241.628 213.231 241.313 213.358 241.034L215.593 235.956C215.711 235.676 216.035 235.55 216.315 235.676C216.594 235.802 216.72 236.118 216.594 236.397L214.358 241.475C214.268 241.682 214.061 241.799 213.853 241.799Z" fill="white"/>
<path d="M262.363 258.321C262.101 258.321 261.867 258.132 261.822 257.862L260.893 252.307C260.839 252.009 261.047 251.721 261.344 251.676C261.642 251.622 261.93 251.829 261.975 252.126L262.904 257.682C262.958 257.979 262.75 258.267 262.453 258.312C262.426 258.321 262.399 258.321 262.363 258.321Z" fill="white"/>
<path d="M264.167 258.96C264.122 258.96 264.086 258.96 264.041 258.942C263.743 258.87 263.563 258.582 263.626 258.285L264.581 254.179C264.654 253.882 264.942 253.702 265.239 253.765C265.537 253.837 265.717 254.125 265.654 254.422L264.699 258.528C264.645 258.789 264.419 258.96 264.167 258.96Z" fill="white"/>
<path d="M214.765 184.048C212.745 182.752 210.636 181.77 208.598 181.023C208.598 181.023 189.18 173.289 181.202 177.998C177.118 180.411 174.648 178.394 174.648 178.394C174.648 178.394 167.914 174.909 154.752 175.945C145.566 176.674 139.39 179.114 135.839 181.005C121.595 188.163 118.656 208.368 127.031 221.928C127.094 222.036 127.157 222.144 127.22 222.243C136.596 236.991 151.516 245.464 151.516 245.464L158.268 238.432C158.268 238.432 157.465 237.558 156.23 236.109C155.987 235.82 155.726 235.514 155.455 235.181C155.446 235.172 155.446 235.172 155.437 235.163C155.185 234.857 154.914 234.533 154.644 234.191C154.617 234.155 154.581 234.119 154.554 234.074C154.274 233.732 153.986 233.362 153.688 232.993C153.652 232.939 153.607 232.885 153.571 232.84C153.31 232.507 153.048 232.165 152.778 231.805C152.724 231.733 152.669 231.67 152.615 231.598C152.318 231.211 152.02 230.805 151.723 230.391C151.66 230.301 151.597 230.211 151.525 230.121C151.263 229.77 151.011 229.401 150.749 229.041C150.686 228.951 150.623 228.861 150.56 228.77C150.262 228.347 149.965 227.906 149.667 227.465C149.595 227.357 149.523 227.24 149.451 227.132C149.199 226.754 148.946 226.366 148.703 225.97C148.64 225.88 148.586 225.781 148.523 225.691C148.234 225.241 147.955 224.782 147.684 224.323C147.612 224.197 147.54 224.079 147.468 223.953C147.233 223.548 146.999 223.143 146.774 222.738C146.729 222.648 146.675 222.567 146.629 222.477C146.377 222.009 146.125 221.531 145.89 221.063C145.827 220.937 145.764 220.811 145.701 220.685C145.494 220.253 145.286 219.821 145.097 219.388C145.07 219.325 145.043 219.262 145.016 219.199C144.808 218.722 144.619 218.245 144.439 217.777C144.394 217.66 144.349 217.534 144.304 217.417C144.141 216.966 143.988 216.516 143.853 216.075C143.844 216.039 143.835 216.012 143.817 215.976C143.673 215.508 143.564 215.049 143.456 214.589C143.429 214.472 143.411 214.364 143.384 214.247C143.294 213.788 143.213 213.329 143.159 212.888C142.969 211.159 142.96 209.556 143.069 208.053C151.894 205.46 161.098 206.612 163.704 207.026C164.146 207.098 164.578 206.918 164.849 206.558C165.768 205.288 168.094 202.29 170.591 200.705C171.141 200.354 170.988 200.435 171.448 200.138C172.746 200.859 174.819 201.966 176.135 202.587C176.289 204.064 176.352 204.82 176.469 205.982C176.658 207.873 176.478 209.394 176.334 210.241C176.253 210.691 176.442 211.141 176.821 211.402C177.848 212.122 179.895 213.671 181.175 215.364C182.473 217.092 183.771 219.298 184.366 220.343C184.573 220.712 184.97 220.937 185.394 220.937H186.737C187.395 220.937 187.927 221.468 187.927 222.126V225.241C196.491 220.361 204.83 216.741 204.83 216.741C204.83 216.741 205.028 212.807 205.308 208.035C208.418 207.882 211.465 207.395 214.269 206.378C226.448 201.984 226.619 191.657 214.765 184.048Z" fill="white"/>
<path d="M161.179 206.702C161.134 206.108 161.025 205.504 160.818 204.919C159.565 201.273 155.589 199.337 151.938 200.588C149.071 201.57 147.268 204.235 147.232 207.089C152.759 206.144 157.978 206.378 161.179 206.702Z" fill="#EF6744"/>
<path d="M147.621 209.457C147.793 209.961 148.027 210.43 148.297 210.871H160.152C160.918 209.646 161.288 208.188 161.18 206.702C157.971 206.369 152.76 206.135 147.243 207.089C147.234 207.881 147.351 208.674 147.621 209.457Z" fill="#EF6744"/>
<path d="M186.719 220.928H185.376C184.952 220.928 184.556 220.703 184.348 220.334C183.753 219.289 182.455 217.083 181.157 215.354C179.886 213.653 177.839 212.113 176.803 211.393C176.424 211.132 176.244 210.681 176.316 210.231C176.469 209.385 176.641 207.863 176.451 205.972C176.361 205.045 176.307 203.839 176.109 202.65C176.055 202.317 171.547 200.003 171.322 200.228C171.123 200.426 170.835 200.534 170.582 200.696C168.085 202.281 165.759 205.279 164.84 206.549C164.578 206.909 164.146 207.089 163.695 207.017C163.136 206.927 162.271 206.81 161.18 206.693C161.288 208.178 160.909 209.628 160.152 210.862H148.297C148.027 210.42 147.793 209.952 147.621 209.448C147.351 208.665 147.234 207.872 147.252 207.089C145.863 207.332 144.466 207.638 143.078 208.043C142.97 209.547 142.97 211.159 143.168 212.878C144.06 220.883 152.327 231.48 156.249 236.099C157.484 237.558 158.286 238.422 158.286 238.422L151.534 245.454C151.534 245.454 136.614 236.973 127.238 222.233C127.175 222.125 127.112 222.017 127.049 221.918C124.832 230.103 132.107 239.566 133.964 241.817C134.225 242.132 134.297 242.564 134.162 242.96L132.557 247.597C132.377 248.11 132.575 248.687 133.035 248.984L137.795 252.063C138.264 252.369 138.886 252.306 139.282 251.901L142.807 248.381C143.105 248.083 143.52 247.966 143.925 248.065C145.232 248.39 148.703 249.056 155.329 249.056H170.474C170.745 249.056 171.006 249.146 171.213 249.317L175.73 252.891C176.181 253.252 176.83 253.234 177.263 252.846L181.166 249.353C181.554 249.002 181.671 248.453 181.454 247.975L179.354 243.365C179.183 242.978 179.219 242.537 179.462 242.186C180.084 241.295 181.364 239.431 182.617 237.333C183.807 235.352 184.321 233.11 184.538 231.859C184.637 231.291 185.133 230.877 185.71 230.877H186.71C187.368 230.877 187.9 230.346 187.9 229.689V228.581V222.098C187.909 221.459 187.377 220.928 186.719 220.928Z" fill="#F1C4D9"/>
<path d="M170.5 222.477C171.162 222.477 171.699 221.941 171.699 221.279C171.699 220.618 171.162 220.082 170.5 220.082C169.838 220.082 169.301 220.618 169.301 221.279C169.301 221.941 169.838 222.477 170.5 222.477Z" fill="black"/>
<path d="M161.657 192.377C161.657 192.377 164.001 191.945 165.65 189.217C167.3 186.488 167.147 184.319 167.147 184.319C167.147 184.319 163.992 181.996 159.493 180.429C154.995 178.862 151.911 179.348 151.253 179.646C149.324 180.51 150.036 181.437 150.036 181.437C150.036 181.437 148.828 182.338 149.036 183.409C149.189 184.193 150.388 184.292 150.388 184.292C150.388 184.292 149.739 185.066 150.253 185.759C150.767 186.452 153.886 185.831 155.337 186.362C156.789 186.894 157.753 187.479 157.753 187.479C157.753 187.479 155.445 187.956 155.824 188.893C156.203 189.829 157.888 189.739 159.259 190.558C160.629 191.387 161.657 192.377 161.657 192.377Z" fill="#EF6744"/>
<path d="M158.268 238.432C158.268 238.432 155.879 238.468 153.805 240.881C151.732 243.303 151.516 245.464 151.516 245.464C151.516 245.464 154.238 248.273 158.421 250.569C162.595 252.856 165.723 252.883 166.417 252.703C168.455 252.172 167.914 251.136 167.914 251.136C167.914 251.136 169.257 250.452 169.23 249.353C169.212 248.561 168.04 248.255 168.04 248.255C168.04 248.255 168.806 247.598 168.419 246.832C168.031 246.067 164.849 246.157 163.506 245.392C162.162 244.626 161.306 243.888 161.306 243.888C161.306 243.888 163.668 243.798 163.442 242.817C163.217 241.835 161.549 241.646 160.332 240.611C159.124 239.584 158.268 238.432 158.268 238.432Z" fill="#EF6744"/>
<path d="M158.113 238.783C157.978 238.783 157.852 238.738 157.744 238.639C157.554 238.468 138.902 221.36 142.968 203.911C144.735 196.312 149.062 194.529 149.243 194.457C149.522 194.34 149.847 194.484 149.955 194.763C150.063 195.042 149.928 195.366 149.648 195.474C149.612 195.492 145.664 197.167 144.041 204.154C140.129 220.973 158.303 237.657 158.483 237.819C158.708 238.027 158.726 238.369 158.519 238.594C158.411 238.729 158.267 238.783 158.113 238.783Z" fill="#2755A3"/>
<path d="M201.214 209.16C196.382 209.16 190.559 208.431 183.788 206.306C168.211 201.417 161.963 193.313 161.702 192.971C161.521 192.728 161.567 192.386 161.81 192.206C162.053 192.026 162.396 192.071 162.576 192.314C162.639 192.395 168.896 200.489 184.113 205.27C204.911 211.789 216.946 204.73 217.063 204.658C217.324 204.505 217.658 204.586 217.82 204.847C217.973 205.108 217.892 205.442 217.631 205.604C217.297 205.802 211.564 209.16 201.214 209.16Z" fill="#2755A3"/>
<path d="M303.94 254.972L297.025 277.4L305.851 282.992L341.704 253.936C342.767 253.072 343.128 251.604 342.587 250.344L339.233 242.555C334.825 243.384 326.216 245.23 315.957 249.029C308.411 251.829 303.94 254.972 303.94 254.972Z" fill="black"/>
<path d="M339.233 242.555L342.587 250.344C343.128 251.604 342.767 253.072 341.703 253.936L305.851 282.992L305.842 283.001L309.105 285.063C309.998 285.63 311.161 285.54 311.954 284.855L348.392 253.459C349.24 252.73 349.474 251.505 348.942 250.515L345.03 243.177C344.534 242.258 343.506 241.763 342.479 241.943L339.233 242.537V242.555Z" fill="#EF6744"/>
<path d="M308.438 255.008C308.447 255.017 308.447 255.026 308.456 255.035C308.492 255.116 309.412 256.971 308.907 261.238C308.348 265.929 306.347 267.838 306.266 267.91C306.04 268.117 305.698 268.108 305.49 267.883C305.274 267.667 305.292 267.316 305.517 267.109C305.536 267.091 307.321 265.353 307.825 261.103C308.285 257.223 307.492 255.539 307.483 255.521C307.348 255.251 307.465 254.918 307.726 254.792C307.988 254.666 308.294 254.765 308.438 255.008Z" fill="white"/>
<path d="M313.261 253.747C313.27 253.756 313.27 253.765 313.279 253.774C313.315 253.855 314.234 255.71 313.729 259.978C313.171 264.66 311.169 266.578 311.088 266.65C310.863 266.857 310.52 266.848 310.313 266.623C310.096 266.398 310.114 266.055 310.34 265.848C310.376 265.812 312.143 264.066 312.639 259.843C313.098 255.962 312.305 254.278 312.296 254.26C312.161 253.99 312.278 253.657 312.539 253.531C312.801 253.405 313.116 253.504 313.261 253.747Z" fill="white"/>
<path d="M318.057 252.442C318.066 252.451 318.066 252.46 318.075 252.469C318.112 252.55 319.031 254.404 318.526 258.672C317.967 263.363 315.966 265.272 315.885 265.344C315.659 265.551 315.317 265.542 315.11 265.317C314.893 265.092 314.911 264.75 315.137 264.543C315.173 264.516 316.94 262.769 317.435 258.537C317.895 254.657 317.102 252.973 317.093 252.955C316.958 252.685 317.075 252.352 317.336 252.226C317.598 252.099 317.913 252.19 318.057 252.442Z" fill="white"/>
<path d="M322.735 250.938C322.744 250.947 322.744 250.956 322.753 250.965C322.789 251.046 323.709 252.901 323.204 257.169C322.645 261.851 320.644 263.768 320.563 263.84C320.337 264.048 319.995 264.039 319.787 263.813C319.571 263.588 319.589 263.246 319.814 263.039C319.832 263.021 321.617 261.283 322.122 257.034C322.582 253.153 321.789 251.469 321.78 251.451C321.644 251.181 321.762 250.848 322.023 250.722C322.275 250.596 322.591 250.695 322.735 250.938Z" fill="white"/>
<path d="M77.695 241.144H51.5605V304.585H77.695V241.144Z" fill="#EF6744"/>
<path fill-rule="evenodd" clip-rule="evenodd" d="M63.9496 239C66.8534 239 69.528 237.427 70.9324 234.893L72.4885 232.085C74.5815 228.308 74.4956 223.705 72.2633 220.008L72.2567 219.997C69.997 216.256 69.6877 211.656 71.4261 207.647L71.8533 206.662C73.3339 203.247 73.1767 199.346 71.4261 196.061L71.0117 195.284C69.5219 192.488 69.3789 189.171 70.6227 186.258L70.8204 185.795C71.902 183.262 71.4348 180.335 69.6179 178.262C67.7661 176.149 67.1196 173.242 67.9021 170.547L68.3035 169.164C69.1646 166.198 67.451 163.097 64.4761 162.239C64.3669 162.207 64.2568 162.179 64.1459 162.154L64.0293 162.128C61.2019 161.495 58.3952 163.267 57.7602 166.086C57.7039 166.336 57.6661 166.589 57.6471 166.844L57.23 172.435L54.1543 179.961C53.0509 182.661 53.2961 185.723 54.8151 188.214C56.3284 190.696 56.5305 193.758 55.3566 196.416L53.3874 200.875C51.9933 204.032 51.9309 207.615 53.2141 210.818C54.5046 214.039 54.5382 217.625 53.3082 220.869L52.7389 222.371C51.2548 226.286 52.0408 230.697 54.7866 233.862L56.1642 235.451C58.1193 237.705 60.9606 239 63.9496 239Z" fill="url(#paint3_linear)"/>
<path d="M64 243L63 167" stroke="#19243D"/>
<path d="M77.7032 244.304H51.5508V245.358H77.7032V244.304Z" fill="#2755A3"/>
<path d="M77.7032 247.825H51.5508V248.878H77.7032V247.825Z" fill="#2755A3"/>
<path d="M179.5 166L181 163.5C183 164.3 181.833 166.167 181 167V169C182.667 167.833 185.9 164.4 185.5 160C185 154.5 181 156.5 181 155.5C181 154.7 179.333 153.833 178.5 153.5C172.5 152 169 155.5 168 158C167 160.5 166 161.5 164.5 162.5C166.5 165 167.5 163 171 162C174.6 163.2 175.5 162.5 175.5 162L179.5 166Z" fill="black" stroke="black"/>
</g>
<defs>
<linearGradient id="paint0_linear" x1="73.5" y1="34" x2="371.275" y2="351.536" gradientUnits="userSpaceOnUse">
<stop stop-color="white"/>
<stop offset="0.25696" stop-color="#E4F7FF"/>
<stop offset="1" stop-color="#007FAF"/>
</linearGradient>
<linearGradient id="paint1_linear" x1="233.611" y1="267.37" x2="270.899" y2="184.234" gradientUnits="userSpaceOnUse">
<stop stop-color="#A6A7AC"/>
<stop offset="0.533691" stop-color="#E9E9E9"/>
<stop offset="1" stop-color="white"/>
</linearGradient>
<linearGradient id="paint2_linear" x1="181.5" y1="273.5" x2="227.643" y2="179.294" gradientUnits="userSpaceOnUse">
<stop offset="0.0291985" stop-color="#B3B3B9"/>
<stop offset="0.416092" stop-color="#E9E9E9"/>
<stop offset="1" stop-color="white"/>
</linearGradient>
<linearGradient id="paint3_linear" x1="54.42" y1="173.55" x2="98.5863" y2="186.526" gradientUnits="userSpaceOnUse">
<stop stop-color="#00A0E3"/>
<stop offset="1" stop-color="#007FAF"/>
</linearGradient>
</defs>
</svg>
