<svg width="312" height="312" viewBox="0 0 312 312" fill="none" xmlns="http://www.w3.org/2000/svg">
<mask id="mask0" mask-type="alpha" maskUnits="userSpaceOnUse" x="0" y="0" width="312" height="312">
<rect width="312" height="312" fill="white"/>
</mask>
<g mask="url(#mask0)">
<path d="M255.209 131.104C245.507 127.473 226.296 127.951 211.547 105.4C199.124 86.4026 184.697 17.3826 111.565 22.6202C38.4331 27.8579 16.9465 95.057 38.2667 167.168C57.554 232.411 101.697 282.365 165.285 294.624C220.974 305.358 269.557 294.626 296.428 252.349C319.976 215.265 312.829 152.684 255.209 131.104Z" fill="url(#paint0_linear)" fill-opacity="0.2"/>
<path d="M93.5936 88.0585H65.2852V172.776H93.5936V88.0585Z" fill="white"/>
<path d="M121.902 114.948H93.5938V172.776H121.902V114.948Z" fill="#E9E9E9"/>
<path d="M76.2928 93.4506H69.8125V99.8046H76.2928V93.4506Z" fill="#D0D2D9"/>
<path d="M89.0662 93.4506H82.5859V99.8046H89.0662V93.4506Z" fill="#D0D2D9"/>
<path d="M76.2928 104.944H69.8125V111.298H76.2928V104.944Z" fill="#D0D2D9"/>
<path d="M89.0662 104.944H82.5859V111.298H89.0662V104.944Z" fill="#D0D2D9"/>
<path d="M76.2928 116.437H69.8125V122.791H76.2928V116.437Z" fill="#D0D2D9"/>
<path d="M89.0662 116.437H82.5859V122.791H89.0662V116.437Z" fill="#D0D2D9"/>
<path d="M76.2928 127.93H69.8125V134.284H76.2928V127.93Z" fill="#D0D2D9"/>
<path d="M89.0662 127.93H82.5859V134.284H89.0662V127.93Z" fill="#D0D2D9"/>
<path d="M76.2928 139.423H69.8125V145.777H76.2928V139.423Z" fill="#D0D2D9"/>
<path d="M89.0662 139.423H82.5859V145.777H89.0662V139.423Z" fill="#D0D2D9"/>
<path d="M104.948 120.112H99.1816V125.766H104.948V120.112Z" fill="white"/>
<path d="M116.313 120.112H110.547V125.766H116.313V120.112Z" fill="white"/>
<path d="M104.948 130.339H99.1816V135.994H104.948V130.339Z" fill="white"/>
<path d="M116.313 130.339H110.547V135.994H116.313V130.339Z" fill="white"/>
<path d="M104.948 140.123H99.1816V145.777H104.948V140.123Z" fill="white"/>
<path d="M116.313 140.123H110.547V145.777H116.313V140.123Z" fill="white"/>
<path d="M85.7987 153.584H73.082V172.776H85.7987V153.584Z" fill="#D0D2D9"/>
<path d="M114.697 153.584H101.98V172.776H114.697V153.584Z" fill="#D0D2D9"/>
<path d="M174.123 135.816H159.512V178.394H174.123V135.816Z" fill="#E5EBEB"/>
<path d="M180.133 145.35H165.521V178.394H180.133V145.35Z" fill="#D0D2D9"/>
<path d="M200.969 116.4H182.182V122.647H200.969V116.4Z" fill="#DBDFE2"/>
<path d="M185.176 116.4H184.359V122.647H185.176V116.4Z" fill="#D0D2D9"/>
<path d="M188.581 116.4H187.764V122.647H188.581V116.4Z" fill="#D0D2D9"/>
<path d="M191.985 116.4H191.168V122.647H191.985V116.4Z" fill="#D0D2D9"/>
<path d="M195.387 116.4H194.57V122.647H195.387V116.4Z" fill="#D0D2D9"/>
<path d="M198.791 116.4H197.975V122.647H198.791V116.4Z" fill="#D0D2D9"/>
<path d="M203.446 122.328H179.705V178.394H203.446V122.328Z" fill="white"/>
<path d="M224.655 133.76H232.197V155.739H224.655V133.76Z" fill="white"/>
<path d="M221.551 138.682H229.094V155.739H221.551V138.682Z" fill="#D0D2D9"/>
<path d="M210.796 123.737H220.494V126.962H210.796V123.737Z" fill="#DBDFE2"/>
<path d="M218.949 123.737H219.371V126.962H218.949V123.737Z" fill="#D0D2D9"/>
<path d="M217.192 123.737H217.613V126.962H217.192V123.737Z" fill="#D0D2D9"/>
<path d="M215.436 123.737H215.857V126.962H215.436V123.737Z" fill="#D0D2D9"/>
<path d="M213.68 123.737H214.102V126.962H213.68V123.737Z" fill="#D0D2D9"/>
<path d="M211.922 123.737H212.344V126.962H211.922V123.737Z" fill="#D0D2D9"/>
<path d="M209.518 126.797H221.773V155.739H209.518V126.797Z" fill="#E9E9E9"/>
<path d="M96.0327 222.416C34.9991 213.61 25.0546 226.085 27.7115 233.423C27.7115 244.43 53.5224 249.744 128.676 251.262C203.829 252.781 284.296 252.781 296.442 240.255C308.588 227.73 280.121 222.416 243.303 233.423C206.486 244.43 172.325 233.423 96.0327 222.416Z" fill="black"/>
<path d="M226.8 221.179L230.768 237.605H228.656L218.801 221.286L226.8 221.179Z" fill="#2A2869"/>
<path d="M88.3339 173.844C88.3339 173.844 78.7345 161.044 68.5058 170.303C58.2771 179.561 75.588 183.048 76.6546 197.917C77.7212 212.785 80.921 221.286 102.146 221.286H170.121L174.313 135.179C174.313 135.179 100.717 134.198 95.3841 140.512C90.0511 146.827 86.9153 156.853 88.3339 173.844Z" fill="#2C4E8B"/>
<path d="M240.558 173.843C240.558 173.843 250.158 161.044 260.386 170.302C270.615 179.56 253.304 183.048 252.238 197.917C251.171 212.785 247.971 221.286 226.746 221.286H158.771L156.02 135.201C156.02 135.201 228.164 134.198 233.476 140.534C238.788 146.869 241.977 156.853 240.558 173.843Z" fill="#2C4E8B"/>
<path d="M98.6249 221.179L94.6465 237.605H96.769L106.614 221.286L98.6249 221.179Z" fill="#2A2869"/>
<path d="M76.1217 176.681C76.1217 176.681 76.1217 176.414 76.4737 176.126C76.9533 175.725 77.5664 175.519 78.1909 175.55C78.634 175.565 79.0665 175.689 79.4495 175.913C79.8881 176.198 80.2184 176.623 80.3881 177.118C80.4876 177.377 80.5452 177.651 80.5588 177.929C80.5781 178.219 80.5493 178.511 80.4734 178.793C80.3214 179.419 79.9411 179.967 79.4068 180.328C78.8732 180.673 78.2331 180.813 77.6043 180.723C77.3166 180.682 77.0364 180.599 76.7723 180.478C76.5164 180.36 76.2792 180.206 76.0684 180.019C75.6774 179.659 75.4183 179.178 75.3324 178.654C75.27 178.214 75.3214 177.766 75.4818 177.353C75.6952 176.766 76.127 176.285 76.687 176.009C77.0817 175.838 77.327 175.87 77.3376 175.913C77.3483 175.955 77.1457 176.073 76.8683 176.297C76.4738 176.617 76.1902 177.054 76.0577 177.545C75.9773 177.867 75.9773 178.204 76.0577 178.526C76.1457 178.877 76.3438 179.191 76.623 179.422C76.9305 179.712 77.3276 179.888 77.7487 179.921C78.1699 179.955 78.5899 179.844 78.9393 179.606C79.2887 179.369 79.5466 179.019 79.6704 178.615C79.7942 178.211 79.7765 177.777 79.6202 177.385C79.5125 177.037 79.2955 176.734 79.0015 176.521C78.7283 176.33 78.4141 176.206 78.0843 176.158C77.5801 176.088 77.0665 176.173 76.6124 176.403C76.3031 176.574 76.1217 176.723 76.1217 176.681Z" fill="#2A2869"/>
<path d="M248.622 177.054C248.622 177.054 248.622 176.83 248.963 176.649C249.181 176.528 249.421 176.453 249.669 176.43C249.917 176.406 250.167 176.433 250.403 176.51C250.79 176.61 251.133 176.835 251.379 177.149C251.626 177.463 251.763 177.849 251.769 178.249C251.775 178.716 251.637 179.174 251.374 179.561C251.082 179.994 250.642 180.305 250.137 180.435C249.63 180.539 249.104 180.456 248.654 180.201C248.248 179.979 247.917 179.641 247.705 179.23C247.508 178.85 247.44 178.415 247.513 177.993C247.582 177.646 247.732 177.321 247.95 177.043C248.254 176.648 248.696 176.381 249.187 176.297C249.529 176.297 249.71 176.297 249.71 176.382C249.71 176.467 249.539 176.489 249.283 176.627C248.939 176.799 248.65 177.066 248.452 177.395C248.318 177.616 248.247 177.868 248.247 178.126C248.247 178.384 248.318 178.636 248.452 178.857C248.605 179.118 248.833 179.327 249.107 179.457C249.381 179.586 249.688 179.63 249.987 179.582C250.283 179.501 250.546 179.328 250.738 179.089C250.929 178.849 251.04 178.555 251.054 178.249C251.062 177.999 250.993 177.753 250.855 177.545C250.717 177.337 250.519 177.176 250.286 177.086C249.954 176.93 249.58 176.885 249.219 176.958C248.825 177.022 248.665 177.118 248.622 177.054Z" fill="#2A2869"/>
<path d="M166.216 168.724C165.942 167.319 165.82 165.889 165.854 164.457C165.768 161.812 165.736 158.154 165.854 154.122C165.971 150.09 166.227 146.432 166.494 143.797C166.544 142.357 166.752 140.926 167.112 139.531C167.242 140.95 167.242 142.378 167.112 143.797C167.006 146.432 166.856 150.08 166.728 154.101C166.6 158.122 166.536 161.77 166.472 164.415C166.523 165.856 166.437 167.299 166.216 168.724Z" fill="#2A2869"/>
<path d="M236.196 160.554C236.184 160.415 236.184 160.276 236.196 160.138C236.196 159.999 236.196 159.839 236.26 159.636C236.272 159.406 236.272 159.174 236.26 158.943C236.302 157.408 236.045 155.879 235.502 154.442C234.608 152.182 233.199 150.162 231.385 148.544C230.263 147.534 229.016 146.674 227.674 145.984C226.959 145.611 226.202 145.28 225.423 144.917C224.644 144.555 223.802 144.32 222.938 144.075C219.147 143.086 215.279 142.419 211.376 142.08C209.243 141.846 207.109 141.579 204.848 141.366L201.425 141.024L197.905 140.726C193.158 140.31 188.167 140 182.972 139.723C180.38 139.606 177.746 139.467 175.069 139.392C173.725 139.392 172.381 139.286 171.026 139.264L166.92 139.168C155.913 138.955 145.428 139.094 135.893 139.371C131.125 139.52 126.592 139.691 122.357 139.883C118.123 140.075 114.166 140.214 110.625 140.64C107.415 140.973 104.265 141.737 101.26 142.912C99.004 143.826 96.914 145.105 95.0737 146.699C93.9112 147.71 92.8889 148.872 92.0339 150.154L91.6606 150.741C91.5539 150.912 91.4686 151.061 91.4046 151.178C91.3452 151.304 91.266 151.419 91.1699 151.52C91.2072 151.387 91.2572 151.259 91.3192 151.136L91.5432 150.677L91.8845 150.058C92.6922 148.719 93.6912 147.504 94.8497 146.453C96.6814 144.781 98.7842 143.432 101.068 142.464C104.102 141.222 107.293 140.403 110.55 140.032C114.145 139.563 118.102 139.403 122.347 139.168C126.592 138.934 131.114 138.752 135.893 138.571C145.428 138.262 155.934 138.091 166.963 138.304L171.069 138.4C172.424 138.4 173.778 138.486 175.122 138.528C177.799 138.603 180.455 138.752 183.036 138.87C188.231 139.158 193.233 139.499 197.969 139.936C199.153 140.043 201.062 139.392 202.235 139.499C203.408 139.606 203.803 140.491 204.923 140.566C207.174 140.79 209.36 141.067 211.461 141.323C215.401 141.7 219.301 142.414 223.119 143.456C223.994 143.712 224.826 144.021 225.636 144.341C226.419 144.656 227.184 145.012 227.93 145.408C229.305 146.129 230.578 147.029 231.716 148.085C233.554 149.775 234.959 151.882 235.812 154.229C236.343 155.711 236.554 157.288 236.43 158.858C236.419 159.094 236.395 159.329 236.356 159.562C236.356 159.754 236.27 159.924 236.249 160.052C236.253 160.221 236.235 160.39 236.196 160.554Z" fill="#2A2869"/>
<path d="M113.868 206.887C113.761 206.962 113.121 206.098 111.937 204.85L111.479 204.37C111.308 204.21 111.127 204.05 110.946 203.868C110.594 203.516 110.178 203.186 109.74 202.802C108.791 202.034 107.786 201.339 106.732 200.722C105.674 200.119 104.572 199.595 103.437 199.154C102.903 198.962 102.37 198.77 101.922 198.631C101.677 198.567 101.453 198.482 101.229 198.429L100.578 198.258C99.6503 198.119 98.7365 197.897 97.8477 197.597C98.7911 197.42 99.7609 197.442 100.695 197.661L101.378 197.778L102.114 197.938C102.626 198.055 103.181 198.226 103.703 198.397C106.116 199.223 108.345 200.513 110.263 202.194C110.69 202.589 111.106 202.951 111.458 203.346C111.628 203.538 111.809 203.708 111.959 203.89C112.108 204.071 112.257 204.263 112.407 204.434C113.077 205.128 113.577 205.967 113.868 206.887Z" fill="#2A2869"/>
<path d="M164.392 210.535C163.565 210.183 162.785 209.732 162.067 209.191C161.715 208.988 161.331 208.753 160.905 208.519C160.478 208.284 160.03 208.049 159.55 207.793C158.579 207.313 157.492 206.823 156.35 206.386C155.209 205.948 154.046 205.596 153.001 205.319C152.478 205.191 151.935 205.063 151.508 204.967C151.081 204.871 150.591 204.786 150.185 204.711C149.29 204.634 148.406 204.455 147.551 204.178C148.443 203.97 149.368 203.944 150.271 204.103C150.687 204.103 151.145 204.178 151.636 204.263C152.126 204.348 152.638 204.434 153.193 204.54C155.553 205.066 157.826 205.924 159.945 207.09C160.425 207.367 160.883 207.633 161.299 207.911C161.715 208.188 162.089 208.433 162.43 208.689C163.752 209.692 164.456 210.46 164.392 210.535Z" fill="#2A2869"/>
<path d="M237.637 190.984C237.743 191.197 231.088 194.749 222.768 198.93C214.449 203.111 207.633 206.322 207.527 206.108C207.42 205.895 214.065 202.333 222.384 198.152C230.704 193.97 237.53 190.749 237.637 190.984Z" fill="#2A2869"/>
<path d="M99.5867 198.162C99.4054 198.301 96.9948 195.229 94.755 191.005C92.5151 186.781 91.2992 183.07 91.5552 182.984C91.8112 182.899 93.3364 186.419 95.5656 190.6C97.7948 194.781 99.8 198.023 99.5867 198.162Z" fill="#2A2869"/>
<path d="M143.317 205.404C141.879 205.837 140.399 206.112 138.901 206.226C136.149 206.588 132.331 206.983 128.097 207.228C123.862 207.473 120.033 207.505 117.26 207.441C115.756 207.5 114.251 207.396 112.77 207.132C114.251 206.896 115.75 206.796 117.249 206.834C120.022 206.738 123.841 206.599 128.054 206.364C132.267 206.13 136.075 205.831 138.837 205.618C140.322 205.42 141.82 205.349 143.317 205.404Z" fill="#2A2869"/>
<path d="M98.6249 221.179L98.0703 223.473L104.918 224.102L106.614 221.286L98.6249 221.179Z" fill="#1A144A"/>
<path d="M218.801 221.286L220.486 224.07L227.366 223.526L226.747 221.286H218.801Z" fill="#1A144A"/>
<path d="M112.397 148.945C112.32 148.793 112.136 148.731 111.986 148.806C111.836 148.882 111.777 149.067 111.854 149.22L115.923 157.274C116 157.426 116.184 157.488 116.334 157.413C116.483 157.337 116.542 157.152 116.465 157L112.397 148.945Z" fill="#262262"/>
<path d="M112.853 150.492L112.843 150.497C112.791 150.523 112.77 150.588 112.796 150.64L113.561 152.154C113.587 152.206 113.651 152.228 113.704 152.201L113.714 152.196C113.766 152.17 113.787 152.105 113.761 152.053L112.996 150.539C112.97 150.487 112.905 150.465 112.853 150.492Z" fill="#708CC7"/>
<path d="M113.879 152.661C113.944 152.661 113.996 152.608 113.996 152.544C113.996 152.479 113.944 152.426 113.879 152.426C113.814 152.426 113.762 152.479 113.762 152.544C113.762 152.608 113.814 152.661 113.879 152.661Z" fill="#708CC7"/>
<path d="M149.62 205.735C148.788 205.735 148.18 204.466 148.041 204.135C146.9 205.202 143.007 202.844 142.836 202.738L142.889 202.652C142.889 202.652 147.017 205.18 148.02 204.007V203.932V204.018C148.02 204.018 148.724 205.746 149.63 205.618V205.724L149.62 205.735Z" fill="#707DBD"/>
<path d="M138.478 125.3C138.457 124.241 138.012 124.241 137.718 124.275C136.671 124.631 133.475 123.722 133.106 123.578C132.716 123.428 129.985 122.71 128.199 122.977C125.249 123.414 127.213 126.346 127.802 127.139C127.864 127.214 127.918 127.283 127.959 127.337C128.479 128.096 127.788 129.333 127.788 129.333L129.574 130.153C129.574 130.153 131.237 132.511 132.469 132.217C132.524 132.204 132.586 132.183 132.647 132.163L132.586 135.416C132.586 135.416 133.489 137.815 134.591 138.116C135.699 138.417 137.561 135.116 137.561 135.116L137.479 127.214C137.787 126.913 138.498 126.497 138.478 125.3Z" fill="#EF6744"/>
<path d="M136.924 211.128C136.924 211.128 161.807 208.797 179.306 204.136C188.284 201.744 199.432 197.383 199.432 197.383L225.834 210.745L231.227 193.808L204.188 178.744C200.233 176.263 195.62 175.019 190.946 175.176L158.898 180.446L146.457 183.555L136.924 211.128Z" fill="url(#paint1_linear)"/>
<path d="M131.491 129.005C131.491 129.005 131.621 129.579 130.779 129.962" stroke="black" stroke-width="0.5" stroke-miterlimit="10" stroke-linecap="round" stroke-linejoin="round"/>
<path d="M128.117 124.699C128.117 124.699 128.336 124.166 129.602 124.419C130.376 124.576 131.033 124.938 131.033 124.938" stroke="black" stroke-width="0.5" stroke-miterlimit="10" stroke-linecap="round" stroke-linejoin="round"/>
<path d="M130.157 126.141C130.157 126.141 129.925 126.579 129.24 126.374" stroke="black" stroke-width="0.5" stroke-miterlimit="10" stroke-linecap="round" stroke-linejoin="round"/>
<path d="M171.059 212.488L171.976 221.695L207.835 230.061L210.771 222.249C209.902 221.504 204.25 216.118 195.298 210.629C190.412 207.629 186.682 206.508 186.682 206.508L171.059 212.488Z" fill="black"/>
<path d="M180.496 213.11C180.496 213.11 182.358 213.404 185.143 211.709C187.689 210.164 188.277 208.9 188.277 208.9" stroke="white" stroke-miterlimit="10" stroke-linecap="round" stroke-linejoin="round"/>
<path d="M183.33 215.256C183.33 215.256 185.192 215.55 187.977 213.855C190.523 212.311 191.111 211.046 191.111 211.046" stroke="white" stroke-miterlimit="10" stroke-linecap="round" stroke-linejoin="round"/>
<path d="M186.17 217.362C186.17 217.362 188.031 217.655 190.817 215.96C193.362 214.416 193.951 213.151 193.951 213.151" stroke="white" stroke-miterlimit="10" stroke-linecap="round" stroke-linejoin="round"/>
<path d="M189.062 219.323C189.062 219.323 190.924 219.617 193.709 217.922C196.255 216.377 196.844 215.113 196.844 215.113" stroke="white" stroke-miterlimit="10" stroke-linecap="round" stroke-linejoin="round"/>
<path d="M171.783 219.884L203.865 227.197C204.817 227.416 205.802 226.972 206.268 226.117L209.169 220.806L210.928 222.365C211.482 222.857 211.66 223.657 211.359 224.333L208.964 229.753C208.642 230.485 207.855 230.895 207.068 230.738L173.426 224.128C172.687 223.985 172.132 223.37 172.057 222.625L171.783 219.884Z" fill="#EF6744"/>
<path d="M110.398 187.971C110.398 187.971 110.159 219.344 140.763 210.075C154.026 206.056 161.54 185.264 161.54 185.264L171.039 212.591L186.69 206.494L174.618 168.013C173.003 162.859 167.377 160.118 162.32 162.032C155.223 164.718 145.615 168.778 139.032 173.221C127.418 181.067 120.876 186.112 120.876 186.112L110.398 187.971Z" fill="url(#paint2_linear)"/>
<path d="M171.635 205.346C171.478 205.346 171.32 205.257 171.252 205.099C171.156 204.888 171.252 204.642 171.464 204.553L182.167 199.809C182.38 199.72 182.626 199.809 182.715 200.021C182.811 200.233 182.715 200.479 182.503 200.568L171.8 205.311C171.752 205.339 171.69 205.346 171.635 205.346Z" fill="white"/>
<path d="M161.259 182.325C161.253 182.325 161.253 182.325 161.246 182.325C161.013 182.318 160.835 182.127 160.842 181.894L160.999 176.809C161.006 176.577 161.205 176.399 161.431 176.406C161.663 176.413 161.841 176.604 161.834 176.837L161.677 181.922C161.67 182.147 161.485 182.325 161.259 182.325Z" fill="white"/>
<path d="M162.341 183.555C162.287 183.555 162.232 183.542 162.177 183.521C161.965 183.426 161.869 183.186 161.965 182.974L163.662 179.12C163.751 178.908 163.997 178.812 164.21 178.908C164.422 179.003 164.518 179.243 164.422 179.454L162.725 183.309C162.656 183.467 162.499 183.555 162.341 183.555Z" fill="white"/>
<path d="M199.167 196.098C198.968 196.098 198.791 195.954 198.756 195.749L198.051 191.532C198.01 191.306 198.168 191.088 198.394 191.053C198.619 191.012 198.838 191.17 198.873 191.395L199.578 195.612C199.619 195.838 199.461 196.057 199.235 196.091C199.215 196.098 199.194 196.098 199.167 196.098Z" fill="white"/>
<path d="M200.535 196.583C200.501 196.583 200.474 196.583 200.44 196.569C200.214 196.515 200.077 196.296 200.125 196.07L200.85 192.954C200.905 192.728 201.124 192.591 201.35 192.639C201.576 192.694 201.712 192.913 201.665 193.138L200.939 196.255C200.898 196.453 200.727 196.583 200.535 196.583Z" fill="white"/>
<path d="M163.033 139.716C161.5 138.731 159.899 137.986 158.352 137.419C158.352 137.419 143.611 131.548 137.555 135.122C134.455 136.954 132.58 135.423 132.58 135.423C132.58 135.423 127.467 132.778 117.476 133.564C110.502 134.118 105.815 135.97 103.118 137.405C92.3057 142.839 90.0747 158.177 96.4323 168.471C96.4802 168.553 96.5281 168.635 96.576 168.71C103.693 179.906 115.019 186.337 115.019 186.337L120.145 180.999C120.145 180.999 119.536 180.336 118.598 179.236C118.414 179.017 118.215 178.785 118.01 178.532C118.003 178.525 118.003 178.525 117.996 178.518C117.804 178.286 117.599 178.04 117.394 177.78C117.373 177.753 117.346 177.725 117.325 177.691C117.113 177.431 116.894 177.151 116.668 176.871C116.641 176.83 116.607 176.789 116.579 176.755C116.381 176.502 116.183 176.242 115.977 175.969C115.936 175.914 115.895 175.866 115.854 175.811C115.628 175.517 115.402 175.21 115.177 174.895C115.129 174.827 115.081 174.759 115.026 174.69C114.828 174.424 114.636 174.144 114.437 173.87C114.39 173.802 114.342 173.734 114.294 173.665C114.068 173.344 113.842 173.009 113.616 172.674C113.562 172.592 113.507 172.503 113.452 172.421C113.26 172.134 113.069 171.84 112.884 171.539C112.836 171.471 112.795 171.396 112.747 171.328C112.528 170.986 112.316 170.637 112.111 170.289C112.056 170.193 112.001 170.104 111.946 170.008C111.769 169.701 111.591 169.393 111.42 169.086C111.385 169.017 111.344 168.956 111.31 168.887C111.118 168.532 110.927 168.17 110.749 167.814C110.701 167.719 110.653 167.623 110.605 167.527C110.448 167.199 110.29 166.871 110.147 166.543C110.126 166.495 110.106 166.447 110.085 166.4C109.928 166.037 109.784 165.675 109.647 165.32C109.613 165.231 109.579 165.135 109.544 165.046C109.421 164.704 109.305 164.363 109.202 164.028C109.195 164 109.189 163.98 109.175 163.953C109.065 163.597 108.983 163.249 108.901 162.9C108.881 162.811 108.867 162.729 108.846 162.64C108.778 162.292 108.716 161.943 108.675 161.608C108.532 160.296 108.525 159.079 108.607 157.938C115.307 155.969 122.294 156.844 124.272 157.159C124.607 157.213 124.935 157.077 125.141 156.803C125.839 155.839 127.604 153.563 129.5 152.36C129.917 152.094 129.801 152.155 130.15 151.93C131.136 152.477 132.71 153.317 133.709 153.789C133.825 154.91 133.873 155.484 133.962 156.366C134.106 157.801 133.969 158.956 133.859 159.599C133.798 159.94 133.941 160.282 134.229 160.48C135.009 161.027 136.562 162.203 137.534 163.488C138.52 164.8 139.505 166.475 139.957 167.268C140.114 167.548 140.415 167.719 140.737 167.719H141.757C142.256 167.719 142.66 168.122 142.66 168.621V170.986C149.161 167.281 155.492 164.534 155.492 164.534C155.492 164.534 155.642 161.547 155.854 157.924C158.215 157.808 160.528 157.439 162.657 156.666C171.902 153.331 172.032 145.491 163.033 139.716Z" fill="white"/>
<path d="M122.356 156.912C122.322 156.461 122.24 156.003 122.083 155.559C121.131 152.791 118.113 151.321 115.342 152.271C113.166 153.016 111.797 155.04 111.77 157.206C115.965 156.489 119.927 156.666 122.356 156.912Z" fill="#EF6744"/>
<path d="M112.063 159.004C112.193 159.387 112.371 159.742 112.576 160.077H121.576C122.157 159.147 122.438 158.04 122.356 156.912C119.92 156.66 115.964 156.482 111.776 157.206C111.769 157.808 111.858 158.409 112.063 159.004Z" fill="#EF6744"/>
<path d="M141.744 167.712H140.724C140.403 167.712 140.101 167.541 139.944 167.261C139.492 166.468 138.507 164.793 137.521 163.481C136.557 162.189 135.003 161.02 134.216 160.473C133.929 160.275 133.792 159.933 133.847 159.592C133.963 158.949 134.093 157.794 133.949 156.359C133.881 155.655 133.84 154.739 133.689 153.837C133.648 153.584 130.226 151.827 130.055 151.998C129.905 152.148 129.686 152.23 129.494 152.353C127.598 153.556 125.833 155.832 125.135 156.796C124.936 157.069 124.608 157.206 124.266 157.152C123.841 157.083 123.184 156.994 122.356 156.905C122.438 158.033 122.151 159.134 121.576 160.07H112.577C112.372 159.735 112.194 159.38 112.064 158.997C111.858 158.402 111.769 157.801 111.783 157.206C110.729 157.391 109.669 157.623 108.615 157.931C108.533 159.072 108.533 160.296 108.683 161.601C109.361 167.677 115.636 175.722 118.613 179.229C119.551 180.336 120.16 180.992 120.16 180.992L115.034 186.33C115.034 186.33 103.708 179.892 96.5906 168.703C96.5427 168.621 96.4948 168.539 96.4469 168.463C94.7634 174.677 100.286 181.86 101.696 183.569C101.894 183.808 101.949 184.136 101.846 184.437L100.628 187.957C100.491 188.347 100.642 188.784 100.991 189.01L104.604 191.347C104.96 191.58 105.432 191.532 105.734 191.224L108.409 188.552C108.635 188.326 108.95 188.237 109.258 188.312C110.25 188.558 112.885 189.064 117.915 189.064H129.412C129.617 189.064 129.816 189.133 129.973 189.262L133.402 191.976C133.744 192.249 134.237 192.236 134.565 191.942L137.528 189.29C137.823 189.023 137.912 188.606 137.747 188.244L136.153 184.745C136.023 184.451 136.05 184.116 136.235 183.849C136.707 183.172 137.679 181.758 138.63 180.165C139.533 178.661 139.924 176.959 140.088 176.009C140.163 175.579 140.539 175.264 140.977 175.264H141.737C142.237 175.264 142.64 174.861 142.64 174.362V173.521V168.6C142.647 168.115 142.243 167.712 141.744 167.712Z" fill="#F1C4D9"/>
<path d="M129.43 168.887C129.932 168.887 130.34 168.48 130.34 167.978C130.34 167.476 129.932 167.069 129.43 167.069C128.927 167.069 128.52 167.476 128.52 167.978C128.52 168.48 128.927 168.887 129.43 168.887Z" fill="black"/>
<path d="M122.718 146.038C122.718 146.038 124.498 145.71 125.75 143.639C127.002 141.568 126.886 139.921 126.886 139.921C126.886 139.921 124.491 138.157 121.076 136.968C117.661 135.779 115.32 136.148 114.821 136.373C113.356 137.029 113.897 137.733 113.897 137.733C113.897 137.733 112.98 138.417 113.137 139.23C113.254 139.825 114.164 139.9 114.164 139.9C114.164 139.9 113.671 140.488 114.061 141.014C114.451 141.54 116.819 141.069 117.921 141.472C119.023 141.875 119.755 142.32 119.755 142.32C119.755 142.32 118.003 142.682 118.29 143.393C118.578 144.104 119.858 144.035 120.898 144.657C121.938 145.286 122.718 146.038 122.718 146.038Z" fill="#EF6744"/>
<path d="M120.145 180.999C120.145 180.999 118.332 181.026 116.758 182.858C115.184 184.697 115.02 186.337 115.02 186.337C115.02 186.337 117.086 188.47 120.262 190.213C123.43 191.949 125.805 191.969 126.332 191.833C127.878 191.429 127.468 190.643 127.468 190.643C127.468 190.643 128.487 190.124 128.467 189.29C128.453 188.688 127.564 188.456 127.564 188.456C127.564 188.456 128.145 187.957 127.851 187.376C127.557 186.795 125.141 186.864 124.121 186.283C123.102 185.702 122.452 185.141 122.452 185.141C122.452 185.141 124.245 185.073 124.073 184.328C123.902 183.583 122.636 183.439 121.712 182.653C120.795 181.874 120.145 180.999 120.145 180.999Z" fill="#EF6744"/>
<path d="M120.027 181.266C119.924 181.266 119.828 181.232 119.746 181.156C119.603 181.027 105.443 168.04 108.53 154.794C109.871 149.025 113.156 147.672 113.293 147.617C113.505 147.528 113.751 147.637 113.833 147.849C113.916 148.061 113.813 148.307 113.601 148.389C113.573 148.403 110.576 149.674 109.344 154.978C106.374 167.746 120.171 180.411 120.307 180.534C120.479 180.692 120.492 180.951 120.335 181.122C120.253 181.225 120.143 181.266 120.027 181.266Z" fill="#2755A3"/>
<path d="M152.746 158.778C149.078 158.778 144.657 158.225 139.518 156.612C127.692 152.9 122.95 146.749 122.751 146.489C122.615 146.305 122.649 146.045 122.834 145.908C123.018 145.771 123.278 145.806 123.415 145.99C123.463 146.052 128.213 152.196 139.764 155.826C155.552 160.774 164.688 155.416 164.777 155.361C164.976 155.245 165.229 155.306 165.352 155.504C165.468 155.703 165.407 155.956 165.208 156.079C164.955 156.229 160.603 158.778 152.746 158.778Z" fill="#2755A3"/>
<path d="M230.727 193.555L225.479 210.581L232.178 214.826L259.395 192.769C260.202 192.113 260.476 190.999 260.065 190.042L257.52 184.13C254.173 184.758 247.638 186.16 239.85 189.044C234.122 191.17 230.727 193.555 230.727 193.555Z" fill="black"/>
<path d="M257.52 184.13L260.066 190.042C260.476 190.999 260.203 192.113 259.395 192.769L232.179 214.826L232.172 214.833L234.649 216.398C235.327 216.828 236.21 216.76 236.812 216.241L264.473 192.407C265.116 191.853 265.294 190.924 264.89 190.172L261.92 184.601C261.544 183.904 260.764 183.528 259.984 183.665L257.52 184.116V184.13Z" fill="#EF6744"/>
<path d="M234.143 193.582C234.15 193.589 234.15 193.596 234.156 193.603C234.184 193.664 234.882 195.072 234.499 198.312C234.074 201.873 232.555 203.322 232.493 203.377C232.322 203.534 232.062 203.527 231.905 203.357C231.741 203.192 231.754 202.926 231.925 202.769C231.939 202.755 233.294 201.436 233.677 198.21C234.026 195.264 233.424 193.986 233.417 193.972C233.315 193.767 233.404 193.514 233.602 193.418C233.801 193.323 234.033 193.398 234.143 193.582Z" fill="white"/>
<path d="M237.803 192.625C237.81 192.632 237.81 192.639 237.817 192.646C237.844 192.708 238.542 194.116 238.159 197.355C237.734 200.91 236.215 202.365 236.154 202.42C235.983 202.577 235.722 202.57 235.565 202.4C235.401 202.229 235.414 201.969 235.586 201.812C235.613 201.784 236.954 200.458 237.331 197.253C237.68 194.307 237.077 193.029 237.071 193.015C236.968 192.81 237.057 192.557 237.255 192.461C237.454 192.366 237.693 192.441 237.803 192.625Z" fill="white"/>
<path d="M241.445 191.634C241.452 191.641 241.452 191.648 241.459 191.655C241.486 191.716 242.185 193.125 241.801 196.364C241.377 199.925 239.858 201.374 239.796 201.429C239.625 201.586 239.365 201.579 239.208 201.409C239.043 201.238 239.057 200.978 239.228 200.821C239.256 200.8 240.597 199.474 240.973 196.262C241.322 193.316 240.72 192.038 240.713 192.024C240.61 191.819 240.699 191.566 240.898 191.47C241.096 191.375 241.336 191.443 241.445 191.634Z" fill="white"/>
<path d="M244.996 190.493C245.003 190.5 245.003 190.507 245.01 190.513C245.037 190.575 245.735 191.983 245.352 195.223C244.928 198.777 243.409 200.233 243.347 200.288C243.176 200.445 242.916 200.438 242.758 200.267C242.594 200.096 242.608 199.836 242.779 199.679C242.793 199.666 244.148 198.346 244.531 195.12C244.88 192.174 244.278 190.896 244.271 190.883C244.168 190.677 244.257 190.425 244.456 190.329C244.647 190.233 244.887 190.308 244.996 190.493Z" fill="white"/>
<path d="M58.9779 183.058H39.1387V231.218H58.9779V183.058Z" fill="#EF6744"/>
<path fill-rule="evenodd" clip-rule="evenodd" d="M48.5458 181.431C50.7502 181.431 52.7805 180.236 53.8466 178.313L55.028 176.181C56.6167 173.314 56.5516 169.82 54.857 167.014L54.8519 167.005C53.1366 164.165 52.9017 160.673 54.2214 157.63L54.5457 156.882C55.6697 154.29 55.5504 151.329 54.2214 148.835L53.9068 148.244C52.7759 146.122 52.6674 143.604 53.6116 141.393L53.7616 141.041C54.5827 139.118 54.228 136.897 52.8488 135.323C51.4431 133.719 50.9523 131.512 51.5463 129.466L51.851 128.416C52.5046 126.165 51.2038 123.811 48.9455 123.16C48.8626 123.136 48.779 123.114 48.6948 123.095L48.6063 123.076C46.46 122.595 44.3293 123.94 43.8473 126.08C43.8046 126.269 43.7759 126.462 43.7615 126.656L43.4448 130.899L41.11 136.613C40.2724 138.663 40.4585 140.987 41.6116 142.878C42.7604 144.762 42.9139 147.087 42.0227 149.104L40.5278 152.489C39.4695 154.886 39.4221 157.605 40.3963 160.037C41.3759 162.482 41.4014 165.204 40.4677 167.667L40.0355 168.807C38.9089 171.779 39.5056 175.128 41.59 177.531L42.6357 178.736C44.1199 180.447 46.2769 181.431 48.5458 181.431Z" fill="url(#paint3_linear)"/>
<path d="M48.5833 184.467L47.8242 126.774" stroke="#19243D"/>
<path d="M58.9857 185.457H39.1328V186.257H58.9857V185.457Z" fill="#2755A3"/>
<path d="M58.9857 188.13H39.1328V188.93H58.9857V188.13Z" fill="#2755A3"/>
<path d="M136.262 126.015L137.401 124.117C138.919 124.724 138.033 126.141 137.401 126.774V128.292C138.666 127.406 141.12 124.8 140.817 121.46C140.437 117.285 137.401 118.803 137.401 118.044C137.401 117.437 136.135 116.779 135.503 116.526C130.948 115.387 128.291 118.044 127.532 119.942C126.773 121.839 126.014 122.599 124.875 123.358C126.393 125.256 127.152 123.737 129.809 122.978C132.542 123.889 133.225 123.358 133.225 122.978L136.262 126.015Z" fill="black" stroke="black"/>
</g>
<defs>
<linearGradient id="paint0_linear" x1="55.7952" y1="25.8102" x2="281.844" y2="266.859" gradientUnits="userSpaceOnUse">
<stop stop-color="white"/>
<stop offset="0.25696" stop-color="#E4F7FF"/>
<stop offset="1" stop-color="#007FAF"/>
</linearGradient>
<linearGradient id="paint1_linear" x1="177.339" y1="202.967" x2="205.646" y2="139.856" gradientUnits="userSpaceOnUse">
<stop stop-color="#A6A7AC"/>
<stop offset="0.533691" stop-color="#E9E9E9"/>
<stop offset="1" stop-color="white"/>
</linearGradient>
<linearGradient id="paint2_linear" x1="137.78" y1="207.62" x2="172.809" y2="136.106" gradientUnits="userSpaceOnUse">
<stop offset="0.0291985" stop-color="#B3B3B9"/>
<stop offset="0.416092" stop-color="#E9E9E9"/>
<stop offset="1" stop-color="white"/>
</linearGradient>
<linearGradient id="paint3_linear" x1="41.3117" y1="131.746" x2="74.8394" y2="141.596" gradientUnits="userSpaceOnUse">
<stop stop-color="#00A0E3"/>
<stop offset="1" stop-color="#007FAF"/>
</linearGradient>
</defs>
</svg>
