<svg width="29" height="30" viewBox="0 0 29 30" fill="none" xmlns="http://www.w3.org/2000/svg">
<path d="M19.9375 30H9.0625C4.0583 30 0 25.8018 0 20.625V9.375C0 4.19824 4.0583 0 9.0625 0H19.9375C24.9417 0 29 4.19824 29 9.375V20.625C29 25.8018 24.9417 30 19.9375 30ZM26.2812 9.375C26.2812 5.75625 23.4356 2.8125 19.9375 2.8125H9.0625C5.56437 2.8125 2.71875 5.75625 2.71875 9.375V20.625C2.71875 24.2438 5.56437 27.1875 9.0625 27.1875H19.9375C23.4356 27.1875 26.2812 24.2438 26.2812 20.625V9.375Z" fill="#333333"/>
<path d="M14.5 22.5C10.4961 22.5 7.25 19.142 7.25 15C7.25 10.858 10.4961 7.5 14.5 7.5C18.5039 7.5 21.75 10.858 21.75 15C21.75 19.142 18.5039 22.5 14.5 22.5ZM14.5 10.3125C12.0021 10.3125 9.96875 12.416 9.96875 15C9.96875 17.5857 12.0021 19.6875 14.5 19.6875C16.9979 19.6875 19.0312 17.5857 19.0312 15C19.0312 12.416 16.9979 10.3125 14.5 10.3125Z" fill="#333333"/>
<path d="M22.2944 22.0628C22.8281 22.0628 23.2607 22.5103 23.2607 23.0624C23.2607 23.6145 22.8281 24.062 22.2944 24.062C21.7607 24.062 21.3281 23.6145 21.3281 23.0624C21.3281 22.5103 21.7607 22.0628 22.2944 22.0628Z" fill="#333333"/>
</svg>
