<svg width="21" height="22" viewBox="0 0 21 22" fill="none" xmlns="http://www.w3.org/2000/svg">
<path d="M15.1835 18.8131C15.0469 18.8131 14.9094 18.7811 14.7832 18.7154L10.3747 16.4122L5.96702 18.7154C5.67479 18.8667 5.32204 18.8408 5.05748 18.6471C4.79119 18.4534 4.65891 18.1258 4.7151 17.8015L5.55461 12.9357L1.99253 9.4903C1.75564 9.26119 1.67004 8.91708 1.7712 8.60237C1.87235 8.28939 2.14297 8.06028 2.46978 8.01359L7.39791 7.29772L9.60086 2.86586C9.89309 2.27795 10.8571 2.27795 11.1493 2.86586L13.3523 7.29772L18.2804 8.01359C18.6072 8.06028 18.8778 8.28939 18.979 8.60237C19.0802 8.91708 18.9946 9.26119 18.7577 9.4903L15.1956 12.9357L16.0351 17.8015C16.0913 18.1258 15.9581 18.4534 15.6927 18.6471C15.5423 18.7578 15.3633 18.8131 15.1835 18.8131Z" fill="#333333"/>
<mask id="mask0" mask-type="alpha" maskUnits="userSpaceOnUse" x="1" y="2" width="19" height="17">
<path d="M15.1835 18.8131C15.0469 18.8131 14.9094 18.7811 14.7832 18.7154L10.3747 16.4122L5.96702 18.7154C5.67479 18.8667 5.32204 18.8408 5.05748 18.6471C4.79119 18.4534 4.65891 18.1258 4.7151 17.8015L5.55461 12.9357L1.99253 9.4903C1.75564 9.26119 1.67004 8.91708 1.7712 8.60237C1.87235 8.28939 2.14297 8.06028 2.46978 8.01359L7.39791 7.29772L9.60086 2.86586C9.89309 2.27795 10.8571 2.27795 11.1493 2.86586L13.3523 7.29772L18.2804 8.01359C18.6072 8.06028 18.8778 8.28939 18.979 8.60237C19.0802 8.91708 18.9946 9.26119 18.7577 9.4903L15.1956 12.9357L16.0351 17.8015C16.0913 18.1258 15.9581 18.4534 15.6927 18.6471C15.5423 18.7578 15.3633 18.8131 15.1835 18.8131Z" fill="white"/>
</mask>
<g mask="url(#mask0)">
</g>
</svg>
