<svg width="376" height="372" viewBox="0 0 376 372" fill="none" xmlns="http://www.w3.org/2000/svg">
<path d="M264.396 109.305C265.38 109.461 266.668 109.522 267.033 108.426" stroke="black" stroke-linecap="round" stroke-linejoin="round"/>
<path d="M264.75 109.481C266.011 110.703 266.512 110.355 267.738 109.129" stroke="black" stroke-linecap="round" stroke-linejoin="round"/>
<path d="M264.223 109.305C265.068 109.788 266.307 110.233 266.859 109.129" stroke="black" stroke-linecap="round" stroke-linejoin="round"/>
<path d="M180.563 87.9538C174.281 95.4952 169.049 113.121 143.487 118.606C121.953 123.226 52.8 112.104 36.0968 180.4C19.3937 248.696 76.2142 291.814 150.312 297.758C217.351 303.137 277.367 280.561 307.697 227.081C334.258 180.243 338.536 132.327 306.737 93.0653C278.838 58.646 217.891 43.169 180.563 87.9538Z" fill="url(#paint0_linear)" fill-opacity="0.3"/>
<path fill-rule="evenodd" clip-rule="evenodd" d="M226.683 310.41L227.684 319.874L218.617 329.163C217.917 329.879 217.931 331.028 218.648 331.727C219.138 332.206 219.857 332.367 220.505 332.144L241.938 324.769L242.191 305.074L226.683 310.41Z" fill="#19243D"/>
<path fill-rule="evenodd" clip-rule="evenodd" d="M254.071 180.654L224.864 230.016C221.513 235.679 220.102 242.281 220.845 248.819L228.105 312.733L246.653 308.595L244.705 244.341L274.866 207.41C281.018 199.877 282.36 189.504 278.326 180.654L254.071 180.654Z" fill="#19243D"/>
<path fill-rule="evenodd" clip-rule="evenodd" d="M284.742 326.375L285.657 335.157L276.218 340.868C275.361 341.387 275.087 342.502 275.605 343.359C275.934 343.902 276.522 344.233 277.157 344.233L298.03 344.233L297.379 326.135L284.742 326.375Z" fill="#19243D"/>
<path fill-rule="evenodd" clip-rule="evenodd" d="M293.459 181.799L297.739 195.409C299.419 200.751 299.565 206.458 298.162 211.881L296.543 218.137L296.534 218.223L300.311 326.072H282.091L262.874 180.872L293.459 181.799Z" fill="white" stroke="#19243D"/>
<path d="M285.866 181.503L297.232 326.375" stroke="#19243D"/>
<path fill-rule="evenodd" clip-rule="evenodd" d="M228.492 150.425L225.741 153.891L197.193 142.852L193.052 135.589C192.853 135.239 192.407 135.116 192.057 135.316C192.024 135.335 191.992 135.356 191.963 135.38C191.552 135.708 191.353 136.235 191.444 136.753L191.984 139.817L184.795 135.273C184.43 135.043 183.947 135.152 183.717 135.517C183.714 135.521 183.711 135.525 183.708 135.53C183.469 135.926 183.544 136.436 183.888 136.746L188.956 141.311L181.726 139.022C181.195 138.854 180.622 139.102 180.381 139.604C180.147 140.09 180.346 140.673 180.827 140.915L187.348 144.193L181.189 143.001C180.7 142.906 180.226 143.226 180.131 143.716C180.131 143.717 180.131 143.717 180.131 143.717C180.032 144.231 180.317 144.741 180.806 144.927L186.986 147.275L182.06 146.85C181.635 146.814 181.262 147.128 181.225 147.552C181.223 147.574 181.222 147.596 181.222 147.618C181.222 148.113 181.558 148.544 182.038 148.664L190.127 150.698C191.782 151.114 193.498 151.232 195.194 151.045L213.576 164.597C221.611 170.52 232.856 169.234 239.345 161.649L240.77 159.983L228.492 150.425Z" fill="#FE9C9A"/>
<path d="M191.747 139.496C191.747 143.52 192.144 145.917 192.938 146.688" stroke="white" stroke-linecap="round"/>
<path d="M189.564 140.582C188.055 143.814 187.005 146.359 186.416 148.219" stroke="white" stroke-linecap="round"/>
<path fill-rule="evenodd" clip-rule="evenodd" d="M283.076 121.673C294.269 122.631 301.953 124.702 306.127 127.887C310.301 131.072 313.923 141.771 316.992 159.983L300.034 161.37L298.823 171.203C298.304 175.414 296.375 179.326 293.35 182.301H252.753C250.419 178.128 249.272 173.396 249.435 168.617L249.967 153.044L242.884 162.633C239.677 166.974 235.037 170.041 229.786 171.291C224.662 172.511 219.261 171.273 215.18 167.942L195.769 152.1L199.129 143.603L225.739 153.891L238.657 134.875C244.295 126.575 253.685 121.614 263.719 121.634L283.076 121.673Z" fill="#EA5B21"/>
<path fill-rule="evenodd" clip-rule="evenodd" d="M261.192 95.9106L261.533 109.543C261.617 112.898 264.362 115.575 267.718 115.575V120.309C265.202 124.77 265.473 127.63 268.53 128.887C271.587 130.144 275.311 127.779 279.703 121.792L277.91 97.9605L268.53 93.1577L261.192 95.9106Z" fill="#FE9C9A"/>
<path d="M265.355 109.544C266.152 109.809 267.825 109.942 268.144 108.349" stroke="black" stroke-width="0.5"/>
<path d="M263 101.821C263.011 101.709 262.928 101.609 262.816 101.598C262.704 101.587 262.604 101.67 262.594 101.783L262.141 106.606H263.979C264.092 106.606 264.184 106.514 264.184 106.401C264.184 106.288 264.092 106.196 263.979 106.196H262.589L263 101.821Z" fill="#19243D"/>
<path fill-rule="evenodd" clip-rule="evenodd" d="M266.015 98.7454L264.59 98.7954C264.308 98.8053 264.086 99.0426 264.096 99.3255C264.106 99.6083 264.343 99.8295 264.626 99.8197C264.626 99.8197 264.626 99.8197 264.626 99.8197L266.051 99.7697C266.334 99.7598 266.555 99.5225 266.545 99.2396C266.535 98.9568 266.298 98.7356 266.015 98.7454C266.015 98.7454 266.015 98.7454 266.015 98.7454Z" fill="#19243D"/>
<path fill-rule="evenodd" clip-rule="evenodd" d="M262.134 98.9505L260.71 99.0004C260.427 99.0104 260.205 99.2477 260.215 99.5306C260.225 99.8133 260.462 100.035 260.745 100.025C260.745 100.025 260.745 100.025 260.745 100.025L262.17 99.9748C262.453 99.9649 262.674 99.7276 262.664 99.4447C262.655 99.1619 262.417 98.9407 262.135 98.9505C262.134 98.9505 262.134 98.9505 262.134 98.9505Z" fill="#19243D"/>
<path d="M273.465 100.565C274.054 100.784 274.142 101.318 273.729 102.169" stroke="#19243D" stroke-width="0.8" stroke-linecap="round"/>
<path d="M266.736 104.057C268.427 104.057 269.799 102.681 269.799 100.983C269.799 99.2844 268.427 97.9077 266.736 97.9077C265.044 97.9077 263.672 99.2844 263.672 100.983C263.672 102.681 265.044 104.057 266.736 104.057ZM266.736 103.647C265.269 103.647 264.081 102.454 264.081 100.983C264.081 99.5108 265.269 98.3177 266.736 98.3177C268.202 98.3177 269.39 99.5108 269.39 100.983C269.39 102.454 268.202 103.647 266.736 103.647Z" fill="white"/>
<path d="M259.484 104.263C261.175 104.263 262.547 102.886 262.547 101.188C262.547 99.4899 261.175 98.1133 259.484 98.1133C257.792 98.1133 256.42 99.4899 256.42 101.188C256.42 102.886 257.792 104.263 259.484 104.263ZM259.484 103.853C258.017 103.853 256.829 102.66 256.829 101.188C256.829 99.7164 258.017 98.5233 259.484 98.5233C260.95 98.5233 262.138 99.7164 262.138 101.188C262.138 102.66 260.95 103.853 259.484 103.853Z" fill="white"/>
<path d="M261.484 103.519C261.569 103.446 261.579 103.316 261.505 103.23C261.432 103.145 261.303 103.135 261.217 103.209C260.739 103.622 260.131 103.853 259.487 103.853C258.021 103.853 256.832 102.659 256.832 101.188C256.832 99.7159 258.021 98.5228 259.487 98.5228C259.6 98.5228 259.712 98.5299 259.823 98.5439C259.935 98.5581 260.037 98.4786 260.051 98.3663C260.066 98.2539 259.986 98.1514 259.874 98.1372C259.747 98.121 259.617 98.1128 259.487 98.1128C257.795 98.1128 256.424 99.4894 256.424 101.188C256.424 102.886 257.795 104.262 259.487 104.262C260.23 104.262 260.932 103.996 261.484 103.519Z" fill="#19243D"/>
<path d="M261.46 101.587C261.126 101.587 260.855 101.317 260.855 100.983C260.855 100.649 261.126 100.378 261.46 100.378C261.794 100.378 262.064 100.649 262.064 100.983C262.064 101.317 261.794 101.587 261.46 101.587Z" fill="#19243D"/>
<path d="M265.7 101.587C265.366 101.587 265.096 101.317 265.096 100.983C265.096 100.649 265.366 100.378 265.7 100.378C266.034 100.378 266.305 100.649 266.305 100.983C266.305 101.317 266.034 101.587 265.7 101.587Z" fill="#19243D"/>
<path fill-rule="evenodd" clip-rule="evenodd" d="M278.751 109.968L273.969 103.219L275.026 102.042C275.565 101.442 275.634 100.555 275.195 99.8781L275.147 99.8031C274.743 99.1802 273.955 98.9296 273.265 99.2047C272.527 99.4991 271.994 100.153 271.854 100.935L271.6 102.354C271.541 102.686 271.252 102.928 270.914 102.928C270.587 102.928 270.315 102.676 270.29 102.35C270.127 100.243 269.88 99.0363 269.55 98.7314C269.01 98.2337 267.689 98.6085 267.43 95.2195C266.235 95.9889 264.156 96.2191 261.191 95.9103L261.309 99.8647C259.118 97.7368 258.023 95.6699 258.023 93.664C258.023 91.6581 258.902 90.9784 260.66 91.6249C259.912 87.8962 260.776 86.3459 263.251 86.974C266.964 87.9161 273.578 86.4875 277.909 91.6249C282.916 92.9564 282.067 95.4476 281.548 97.9904C281.203 99.6856 280.27 103.678 278.751 109.968Z" fill="#19243D"/>
<path fill-rule="evenodd" clip-rule="evenodd" d="M267.716 115.575H273.316L267.716 118.03V115.575Z" fill="#19243D"/>
<path fill-rule="evenodd" clip-rule="evenodd" d="M278.518 182.301L250.38 165.313L275.66 160.736L293.798 176.885C295.17 178.106 295.292 180.207 294.071 181.579C294.023 181.632 293.975 181.683 293.924 181.733L293.349 182.301H278.518Z" fill="#B7454A"/>
<path d="M247.674 136.173H269.16V165.314H247.674V136.173Z" fill="#85B0FF"/>
<path d="M246.395 136.173H267.881V165.313H246.395V136.173Z" fill="#19243D"/>
<path d="M257.009 142.819C256.232 142.819 255.602 142.189 255.602 141.413C255.602 140.637 256.232 140.007 257.009 140.007C257.786 140.007 258.416 140.637 258.416 141.413C258.416 142.189 257.786 142.819 257.009 142.819Z" fill="white"/>
<path fill-rule="evenodd" clip-rule="evenodd" d="M300.957 161.171L301.737 165.128L273.189 154.089L269.136 149.496V151.716L260.793 146.506C260.425 146.276 259.94 146.389 259.71 146.757C259.708 146.76 259.706 146.763 259.705 146.766C259.465 147.163 259.541 147.673 259.885 147.983L264.952 152.548L257.722 150.259C257.191 150.091 256.618 150.339 256.377 150.841C256.143 151.327 256.342 151.91 256.824 152.152L263.344 155.43L257.186 154.238C256.696 154.143 256.222 154.463 256.127 154.953C256.127 154.953 256.127 154.954 256.127 154.954C256.028 155.468 256.313 155.978 256.802 156.164L262.982 158.512L258.056 158.087C257.632 158.05 257.258 158.365 257.221 158.789C257.219 158.811 257.218 158.833 257.218 158.855C257.218 159.349 257.554 159.78 258.034 159.901L266.124 161.935C267.778 162.351 269.494 162.468 271.19 162.282L297.501 181.679C301.399 184.552 306.558 185.057 310.938 182.993C315.161 181.003 317.585 176.485 316.909 171.865L315.19 160.121L300.957 161.171Z" fill="#FE9C9A"/>
<path d="M300.04 162.453C300.074 162.59 300.212 162.674 300.349 162.641C300.487 162.608 300.571 162.47 300.538 162.333L295.866 143.023C295.832 142.886 295.694 142.802 295.557 142.835C295.42 142.868 295.335 143.006 295.368 143.144L300.04 162.453Z" fill="white"/>
<path fill-rule="evenodd" clip-rule="evenodd" d="M274.123 153.043L271.19 162.537L297.515 182.117C301.875 185.359 307.825 185.433 312.264 182.3C316.82 179.085 319.151 173.559 318.275 168.053L316.992 159.983L315.428 151.965L299.22 156.217L300.992 164.439L274.123 153.043Z" fill="#EA5B21"/>
<path d="M300.035 163.532C300.035 163.532 291.287 160.302 273.792 153.841" stroke="white" stroke-linecap="round"/>
<path fill-rule="evenodd" clip-rule="evenodd" d="M128.829 43.562L129.625 77.048C130.167 99.8791 142.883 120.642 162.909 131.395L171.175 131.191C195.648 119.521 211.002 94.4557 210.356 67.2302L209.746 41.5688L205.08 41.6837C190.803 42.0354 177.236 35.4516 168.629 23.9953L160.363 24.1989C157.536 35.2635 147.745 43.096 136.391 43.3757L128.829 43.562Z" fill="#2C4E8B"/>
<path fill-rule="evenodd" clip-rule="evenodd" d="M120.038 43.8664L120.659 69.8883C121.303 96.8497 137.638 120.916 162.39 131.368C186.862 119.717 202.215 94.6902 201.566 67.5056L200.954 41.8825L196.288 41.997C182.012 42.347 168.444 35.772 159.836 24.3322C151.639 36.1961 138.295 43.4188 123.924 43.7712L120.038 43.8664Z" fill="white"/>
<path fill-rule="evenodd" clip-rule="evenodd" d="M128.425 51.2875L128.922 72.1727C129.441 93.952 142.641 113.387 162.631 121.807C182.398 112.417 194.805 92.2039 194.282 70.2443L193.792 49.6817L189.987 49.7751C178.474 50.058 167.531 44.7612 160.577 35.5401C153.953 45.1045 143.189 50.9248 131.599 51.2095L128.425 51.2875Z" stroke="#333333"/>
<path d="M165.639 79.1702C165.639 78.3085 164.985 77.61 164.178 77.61C163.371 77.61 162.717 78.3085 162.717 79.1702L162.717 83.8507C162.717 84.7124 163.371 85.4109 164.178 85.4109C164.985 85.4109 165.639 84.7124 165.639 83.8507L165.639 79.1702Z" fill="#EA5B21"/>
<path fill-rule="evenodd" clip-rule="evenodd" d="M155.415 66.6889L155.415 71.3694L152.493 71.3694C150.88 71.3694 149.572 72.7664 149.572 74.4897L149.572 88.5312C149.572 90.2545 150.88 91.6515 152.493 91.6515L175.863 91.6515C177.476 91.6515 178.784 90.2545 178.784 88.5312L178.784 74.4897C178.784 72.7664 177.476 71.3694 175.863 71.3694L172.942 71.3694L172.942 66.6889C172.942 61.5189 169.018 57.3279 164.178 57.3279C159.338 57.3279 155.415 61.5189 155.415 66.6889ZM164.178 60.4482C160.951 60.4482 158.336 63.2423 158.336 66.6889L158.336 71.3694L170.02 71.3694L170.02 66.6889C170.02 63.2423 167.405 60.4482 164.178 60.4482ZM152.493 74.4897L175.863 74.4897L175.863 88.5312L152.493 88.5312L152.493 74.4897Z" fill="#EA5B21"/>
<path fill-rule="evenodd" clip-rule="evenodd" d="M133.611 136.902C133.622 136.813 133.633 136.723 133.645 136.632L133.704 136.616C133.865 136.58 134.026 136.544 134.187 136.507C134.498 136.438 134.809 136.368 135.119 136.297C135.388 136.236 135.542 136.005 135.484 135.743C135.352 135.141 135.216 134.54 135.078 133.94C135.061 133.874 135.03 133.812 134.987 133.759C134.859 133.603 134.691 133.563 134.497 133.606C134.282 133.654 134.067 133.701 133.851 133.748C133.594 133.804 133.337 133.86 133.08 133.918C133.061 133.926 133.039 133.926 133.021 133.917C133.002 133.909 132.987 133.893 132.98 133.874C132.762 133.456 132.487 133.07 132.163 132.727C132.148 132.716 132.139 132.7 132.136 132.682C132.134 132.663 132.14 132.645 132.152 132.631C132.296 132.406 132.439 132.181 132.582 131.956C132.704 131.763 132.826 131.57 132.949 131.378C133.019 131.273 133.043 131.144 133.016 131.02C132.99 130.897 132.914 130.789 132.807 130.722L131.277 129.754C131.059 129.614 130.77 129.675 130.627 129.892C130.361 130.304 130.096 130.717 129.834 131.131C129.802 131.184 129.774 131.198 129.711 131.179C129.277 131.041 128.826 130.964 128.372 130.948C128.296 130.946 128.268 130.927 128.252 130.851C128.15 130.379 128.043 129.907 127.936 129.435C127.913 129.311 127.838 129.201 127.731 129.133C127.624 129.065 127.493 129.045 127.371 129.078C127.32 129.089 127.269 129.1 127.218 129.112C126.675 129.233 126.131 129.355 125.589 129.48C125.523 129.495 125.46 129.525 125.406 129.567C125.259 129.676 125.194 129.863 125.242 130.04C125.346 130.522 125.451 131.004 125.558 131.485C125.566 131.503 125.565 131.523 125.557 131.541C125.549 131.559 125.533 131.572 125.515 131.578C125.099 131.795 124.715 132.069 124.373 132.391C124.329 132.433 124.301 132.429 124.255 132.399C123.843 132.137 123.432 131.874 123.019 131.612C122.792 131.468 122.521 131.52 122.37 131.738C122.33 131.797 122.294 131.859 122.258 131.921C122.231 131.968 122.205 132.014 122.176 132.06C122.088 132.2 121.998 132.339 121.908 132.478C121.866 132.543 121.824 132.607 121.782 132.672C121.697 132.804 121.612 132.935 121.528 133.068C121.465 133.161 121.409 133.258 121.358 133.357C121.257 133.576 121.335 133.81 121.542 133.941C121.957 134.208 122.372 134.473 122.787 134.737C122.805 134.745 122.819 134.76 122.826 134.778C122.832 134.797 122.831 134.817 122.822 134.834C122.682 135.275 122.604 135.733 122.588 136.195C122.586 136.271 122.562 136.293 122.493 136.308C122.023 136.411 121.554 136.516 121.085 136.623C120.802 136.688 120.657 136.921 120.72 137.202L121.109 138.936C121.176 139.234 121.398 139.379 121.697 139.315C122.172 139.213 122.647 139.109 123.121 139.003C123.139 138.995 123.161 138.996 123.179 139.004C123.198 139.012 123.212 139.028 123.219 139.047C123.436 139.463 123.71 139.848 124.032 140.189C124.049 140.201 124.059 140.219 124.061 140.24C124.063 140.26 124.057 140.281 124.043 140.296C123.89 140.536 123.737 140.778 123.584 141.02C123.475 141.193 123.365 141.366 123.256 141.538C123.182 141.644 123.156 141.776 123.184 141.902C123.212 142.028 123.291 142.137 123.403 142.202C123.911 142.524 124.419 142.846 124.927 143.168C125.148 143.308 125.441 143.243 125.583 143.024C125.849 142.609 126.114 142.194 126.378 141.778C126.386 141.758 126.402 141.743 126.421 141.736C126.44 141.729 126.462 141.73 126.481 141.739C126.93 141.882 127.397 141.961 127.869 141.973C127.922 141.974 127.935 142 127.944 142.044C128.023 142.399 128.102 142.753 128.182 143.107C128.192 143.148 128.2 143.189 128.209 143.23C128.231 143.334 128.253 143.439 128.285 143.541C128.352 143.763 128.579 143.897 128.806 143.85C129.415 143.715 130.022 143.578 130.63 143.438C130.694 143.422 130.753 143.393 130.804 143.351C130.964 143.222 131.002 143.051 130.958 142.854C130.905 142.618 130.853 142.382 130.802 142.146C130.75 141.91 130.698 141.674 130.645 141.438C130.638 141.42 130.638 141.4 130.647 141.382C130.655 141.364 130.67 141.351 130.689 141.346C131.106 141.129 131.49 140.855 131.831 140.532C131.843 140.515 131.863 140.503 131.884 140.501C131.906 140.498 131.927 140.505 131.943 140.52C132.358 140.786 132.775 141.051 133.192 141.313C133.298 141.383 133.429 141.407 133.554 141.378C133.678 141.349 133.786 141.271 133.851 141.161C134.169 140.656 134.488 140.152 134.808 139.649C134.883 139.542 134.909 139.409 134.881 139.281C134.853 139.154 134.773 139.044 134.66 138.979C134.481 138.864 134.302 138.749 134.122 138.634C133.887 138.483 133.651 138.332 133.415 138.182C133.375 138.156 133.373 138.134 133.384 138.09C133.439 137.912 133.485 137.732 133.521 137.549C133.557 137.336 133.584 137.122 133.611 136.902ZM130.797 135.832C131.141 137.335 130.194 138.821 128.718 139.153C127.749 139.389 126.728 139.084 126.047 138.355C125.366 137.626 125.132 136.586 125.433 135.635C125.735 134.685 126.525 133.97 127.502 133.767C128.978 133.437 130.462 134.372 130.797 135.832Z" fill="black"/>
<path fill-rule="evenodd" clip-rule="evenodd" d="M115.377 117.547C115.805 117.579 116.127 117.759 116.295 118.164C116.35 118.3 116.376 118.446 116.368 118.592C116.284 119.915 116.194 121.236 116.098 122.555L116.09 122.628C116.017 123.162 115.574 123.514 115.005 123.476L114.103 123.415L111.893 123.263C111.834 123.258 111.773 123.253 111.746 123.253C111.667 123.431 111.589 123.608 111.512 123.782C111.32 124.221 111.132 124.648 110.927 125.067C110.74 125.421 110.535 125.764 110.312 126.096C110.264 126.178 110.253 126.229 110.32 126.307C110.767 126.82 111.211 127.335 111.655 127.85C111.903 128.137 112.151 128.424 112.4 128.712C112.798 129.173 112.753 129.78 112.293 130.185C111.708 130.693 111.123 131.201 110.539 131.712C110.347 131.878 110.156 132.045 109.965 132.212C109.774 132.379 109.583 132.546 109.391 132.712C109.189 132.898 108.919 132.993 108.645 132.976C108.37 132.959 108.115 132.831 107.937 132.622C107.669 132.314 107.402 132.006 107.135 131.698C106.737 131.241 106.339 130.783 105.942 130.324L105.854 130.22C105.774 130.127 105.716 130.124 105.615 130.177C104.714 130.633 103.754 130.96 102.763 131.151C102.654 131.172 102.625 131.212 102.617 131.316C102.571 131.972 102.523 132.628 102.474 133.284C102.446 133.666 102.418 134.047 102.391 134.428C102.388 134.475 102.381 134.521 102.375 134.566C102.374 134.572 102.373 134.577 102.372 134.582C102.33 134.931 102.099 135.228 101.771 135.356C101.641 135.41 101.5 135.435 101.359 135.43C100.02 135.344 98.6829 135.252 97.3472 135.156C96.8482 135.116 96.4634 134.7 96.4619 134.199C96.4639 133.969 96.4812 133.737 96.4986 133.505C96.5051 133.418 96.5116 133.331 96.5173 133.244C96.5694 132.465 96.6237 131.686 96.6799 130.906C96.688 130.81 96.6772 130.749 96.5679 130.714C95.9726 130.522 95.3959 130.276 94.8445 129.98C94.5029 129.797 94.1709 129.596 93.8498 129.379C93.754 129.313 93.698 129.328 93.6157 129.395C93.3702 129.61 93.1238 129.824 92.877 130.039C92.7119 130.182 92.5467 130.326 92.3815 130.47C92.0808 130.724 91.7821 130.982 91.4823 131.241C91.3919 131.319 91.3014 131.397 91.2108 131.475C90.7851 131.839 90.1462 131.793 89.7775 131.372C88.9282 130.394 88.0777 129.419 87.2261 128.446C86.83 127.991 86.878 127.376 87.3328 126.985C87.7319 126.641 88.1295 126.294 88.5271 125.948C88.9247 125.601 89.3224 125.255 89.7215 124.91C89.7593 124.887 89.7856 124.849 89.7942 124.806C89.8028 124.763 89.7928 124.717 89.7667 124.682C89.3099 123.781 88.9812 122.821 88.7903 121.83C88.7694 121.719 88.7242 121.686 88.6149 121.679C87.5743 121.605 86.5325 121.527 85.4892 121.445C84.8354 121.394 84.4683 120.958 84.5135 120.304C84.5972 119.031 84.684 117.76 84.774 116.492C84.8165 115.874 85.2605 115.481 85.8833 115.521L87.5379 115.633C87.7511 115.649 87.9639 115.663 88.1767 115.678C88.444 115.697 88.7113 115.715 88.9792 115.736C89.1284 115.75 89.1918 115.718 89.2451 115.563C89.3254 115.32 89.4158 115.082 89.5116 114.848C89.7943 114.166 90.1464 113.514 90.5623 112.903C90.5909 112.873 90.6057 112.832 90.6032 112.79C90.6006 112.748 90.5809 112.709 90.5488 112.683C89.8556 111.881 89.163 111.079 88.4711 110.276C88.1256 109.874 88.1094 109.35 88.4502 108.959C88.6169 108.785 88.7935 108.622 88.9792 108.469C89.176 108.296 89.3756 108.125 89.5758 107.954C89.6331 107.905 89.6905 107.856 89.7478 107.807C89.805 107.759 89.8623 107.71 89.9196 107.661C90.2591 107.372 90.5999 107.082 90.9348 106.785C91.0297 106.705 91.1201 106.62 91.2105 106.535C91.3155 106.436 91.4206 106.337 91.5333 106.245C91.98 105.883 92.5704 105.947 92.9503 106.384L93.1022 106.559C93.2561 106.736 93.4099 106.913 93.5638 107.09C94.0481 107.646 94.5321 108.202 95.0145 108.761C95.0921 108.852 95.1448 108.878 95.2622 108.82C96.0327 108.431 96.8469 108.136 97.6873 107.94C97.8311 107.905 97.9721 107.876 98.1158 107.847C98.1572 107.846 98.1961 107.827 98.2232 107.796C98.2503 107.764 98.2632 107.723 98.2589 107.682C98.3345 106.626 98.4134 105.568 98.4957 104.51C98.5254 104.093 98.7353 103.792 99.124 103.638C99.26 103.585 99.406 103.562 99.5518 103.57C100.121 103.607 100.69 103.645 101.26 103.685C101.783 103.719 102.306 103.755 102.828 103.792C103.043 103.807 103.258 103.821 103.473 103.836C104.061 103.879 104.455 104.329 104.418 104.922L104.405 105.106C104.34 106.082 104.275 107.058 104.2 108.034C104.184 108.199 104.234 108.255 104.386 108.308C105.315 108.617 106.196 109.053 107.005 109.603C107.12 109.683 107.189 109.67 107.288 109.582C107.788 109.145 108.285 108.712 108.788 108.284C109.086 108.026 109.383 107.77 109.684 107.515C110.109 107.155 110.745 107.206 111.107 107.629C111.131 107.657 111.155 107.685 111.179 107.712C111.203 107.739 111.227 107.767 111.251 107.795C112.056 108.719 112.861 109.643 113.666 110.566C113.847 110.77 113.937 111.038 113.917 111.31C113.896 111.582 113.766 111.833 113.557 112.008C113.114 112.39 112.673 112.774 112.231 113.157C111.869 113.471 111.507 113.786 111.145 114.1C111.068 114.167 111.065 114.212 111.11 114.302C111.567 115.207 111.896 116.171 112.089 117.167C112.11 117.281 112.158 117.31 112.265 117.318C112.815 117.358 113.366 117.399 113.916 117.44C114.403 117.476 114.89 117.512 115.377 117.547ZM103.293 124.698C105.08 123.714 106.241 121.886 106.37 119.851V119.853C106.578 116.64 104.094 113.802 100.849 113.57C100.677 113.557 100.505 113.553 100.332 113.559C97.2952 113.613 94.7283 115.993 94.5178 119.078C94.4075 120.653 94.9284 122.207 95.9653 123.397C97.0023 124.587 98.4701 125.315 100.045 125.421C101.175 125.5 102.303 125.248 103.293 124.698Z" fill="white"/>
<path d="M116.295 118.164L116.757 117.973L116.756 117.972L116.295 118.164ZM115.377 117.547L115.414 117.049L115.413 117.049L115.377 117.547ZM116.368 118.592L116.867 118.624L116.867 118.618L116.368 118.592ZM116.098 122.555L116.595 122.611L116.596 122.601L116.597 122.592L116.098 122.555ZM116.09 122.628L116.586 122.695L116.587 122.683L116.09 122.628ZM115.005 123.476L114.971 123.975L114.972 123.975L115.005 123.476ZM114.103 123.415L114.069 123.914L114.069 123.914L114.103 123.415ZM111.893 123.263L111.847 123.761L111.859 123.762L111.893 123.263ZM111.746 123.253V122.753H111.422L111.29 123.049L111.746 123.253ZM111.512 123.782L111.97 123.983H111.97L111.512 123.782ZM110.927 125.067L111.369 125.301L111.373 125.294L111.376 125.287L110.927 125.067ZM110.312 126.096L109.897 125.817L109.888 125.831L109.88 125.845L110.312 126.096ZM110.32 126.307L109.943 126.635L109.943 126.635L110.32 126.307ZM111.655 127.85L111.277 128.176H111.277L111.655 127.85ZM112.4 128.712L112.778 128.385L112.778 128.384L112.4 128.712ZM112.293 130.185L112.621 130.563L112.623 130.561L112.293 130.185ZM110.539 131.712L110.866 132.089L110.867 132.088L110.539 131.712ZM109.965 132.212L110.294 132.588L110.294 132.588L109.965 132.212ZM109.391 132.712L109.064 132.335L109.054 132.344L109.391 132.712ZM108.645 132.976L108.614 133.475H108.614L108.645 132.976ZM107.937 132.622L108.318 132.298L108.314 132.294L107.937 132.622ZM107.135 131.698L106.757 132.026L107.135 131.698ZM105.942 130.324L105.56 130.646L105.564 130.651L105.942 130.324ZM105.854 130.22L106.236 129.897L106.233 129.893L105.854 130.22ZM105.615 130.177L105.84 130.623L105.848 130.62L105.615 130.177ZM102.763 131.151L102.857 131.642L102.857 131.642L102.763 131.151ZM102.617 131.316L102.118 131.277L102.118 131.281L102.617 131.316ZM102.474 133.284L101.976 133.248V133.248L102.474 133.284ZM102.391 134.428L101.892 134.392L101.891 134.402L102.391 134.428ZM102.375 134.566L102.869 134.64L102.869 134.64L102.375 134.566ZM102.372 134.582L101.878 134.51L101.876 134.521L102.372 134.582ZM101.771 135.356L101.589 134.89L101.581 134.894L101.771 135.356ZM101.359 135.43L101.326 135.929L101.334 135.93L101.342 135.93L101.359 135.43ZM97.3472 135.156L97.3066 135.655L97.3115 135.655L97.3472 135.156ZM96.4619 134.199L95.9619 134.195L95.9619 134.2L96.4619 134.199ZM96.4986 133.505L95.9999 133.468V133.468L96.4986 133.505ZM96.5173 133.244L96.0184 133.211L96.0183 133.211L96.5173 133.244ZM96.6799 130.906L96.1816 130.864L96.1812 130.87L96.6799 130.906ZM96.5679 130.714L96.4138 131.19L96.4151 131.19L96.5679 130.714ZM94.8445 129.98L94.6081 130.421L94.6082 130.421L94.8445 129.98ZM93.8498 129.379L93.5658 129.79L93.5696 129.793L93.8498 129.379ZM93.6157 129.395L93.2987 129.008L93.2923 129.014L93.2861 129.019L93.6157 129.395ZM92.877 130.039L93.205 130.416L93.205 130.416L92.877 130.039ZM92.3815 130.47L92.7042 130.852L92.7102 130.847L92.3815 130.47ZM91.4823 131.241L91.8092 131.619H91.8092L91.4823 131.241ZM91.2108 131.475L91.5355 131.856L91.5372 131.854L91.2108 131.475ZM89.7775 131.372L89.4001 131.7L89.4013 131.701L89.7775 131.372ZM87.2261 128.446L86.8491 128.774L86.8498 128.775L87.2261 128.446ZM87.3328 126.985L87.6586 127.365L87.6594 127.364L87.3328 126.985ZM89.7215 124.91L89.4603 124.484L89.4256 124.505L89.3948 124.532L89.7215 124.91ZM89.7942 124.806L90.2847 124.903L90.2847 124.903L89.7942 124.806ZM89.7667 124.682L89.3208 124.908L89.3391 124.944L89.363 124.977L89.7667 124.682ZM88.7903 121.83L88.2989 121.922L88.2993 121.925L88.7903 121.83ZM88.6149 121.679L88.5795 122.178L88.581 122.178L88.6149 121.679ZM85.4892 121.445L85.5286 120.946L85.5278 120.946L85.4892 121.445ZM84.5135 120.304L85.0123 120.338L85.0124 120.337L84.5135 120.304ZM84.774 116.492L85.2727 116.527L85.2728 116.526L84.774 116.492ZM85.8833 115.521L85.9171 115.022L85.9152 115.022L85.8833 115.521ZM87.5379 115.633L87.575 115.134L87.5717 115.134L87.5379 115.633ZM88.1767 115.678L88.2113 115.179H88.2113L88.1767 115.678ZM88.9792 115.736L89.0243 115.238L89.0177 115.238L88.9792 115.736ZM89.2451 115.563L89.7178 115.726L89.7198 115.72L89.2451 115.563ZM89.5116 114.848L89.0497 114.657L89.0489 114.659L89.5116 114.848ZM90.5623 112.903L90.1979 112.561L90.1711 112.589L90.149 112.622L90.5623 112.903ZM90.6032 112.79L91.1023 112.76V112.76L90.6032 112.79ZM90.5488 112.683L90.1706 113.01L90.1974 113.041L90.2289 113.067L90.5488 112.683ZM88.4711 110.276L88.0919 110.602L88.0923 110.602L88.4711 110.276ZM88.4502 108.959L88.0899 108.612L88.0813 108.621L88.0731 108.63L88.4502 108.959ZM88.9792 108.469L89.2967 108.856L89.3035 108.85L89.3101 108.844L88.9792 108.469ZM89.5758 107.954L89.2511 107.574L89.2511 107.574L89.5758 107.954ZM89.7478 107.807L89.4236 107.427L89.4227 107.428L89.7478 107.807ZM89.9196 107.661L90.2436 108.042L90.2436 108.042L89.9196 107.661ZM90.9348 106.785L90.6126 106.402L90.6028 106.411L90.9348 106.785ZM91.2105 106.535L91.5535 106.898V106.898L91.2105 106.535ZM91.5333 106.245L91.8481 106.634L91.8483 106.634L91.5333 106.245ZM92.9503 106.384L93.3284 106.056L93.3275 106.055L92.9503 106.384ZM93.1022 106.559L92.7241 106.886L92.7249 106.887L93.1022 106.559ZM93.5638 107.09L93.941 106.761V106.761L93.5638 107.09ZM95.0145 108.761L95.3939 108.436L95.3931 108.435L95.0145 108.761ZM95.2622 108.82L95.4858 109.267L95.4873 109.266L95.2622 108.82ZM97.6873 107.94L97.8007 108.427L97.8059 108.426L97.6873 107.94ZM98.1158 107.847L98.096 107.348L98.0561 107.349L98.0169 107.357L98.1158 107.847ZM98.2232 107.796L98.6013 108.123L98.6013 108.123L98.2232 107.796ZM98.2589 107.682L97.7602 107.646L97.757 107.69L97.7616 107.734L98.2589 107.682ZM98.4957 104.51L98.9942 104.549L98.9945 104.546L98.4957 104.51ZM99.124 103.638L98.9422 103.172L98.9399 103.173L99.124 103.638ZM99.5518 103.57L99.5843 103.071L99.5813 103.071L99.5518 103.57ZM101.26 103.685L101.224 104.184L101.227 104.184L101.26 103.685ZM102.828 103.792L102.793 104.29L102.828 103.792ZM103.473 103.836L103.509 103.338L103.507 103.337L103.473 103.836ZM104.418 104.922L104.917 104.955L104.917 104.953L104.418 104.922ZM104.405 105.106L103.906 105.072V105.072L104.405 105.106ZM104.2 108.034L104.697 108.083L104.698 108.072L104.2 108.034ZM104.386 108.308L104.22 108.78L104.228 108.782L104.386 108.308ZM107.005 109.603L107.292 109.193L107.287 109.189L107.005 109.603ZM107.288 109.582L106.959 109.205L106.955 109.209L107.288 109.582ZM108.788 108.284L109.112 108.665L109.116 108.662L108.788 108.284ZM109.684 107.515L109.361 107.134L109.361 107.134L109.684 107.515ZM111.107 107.629L111.487 107.304L111.487 107.304L111.107 107.629ZM111.179 107.712L111.555 107.382L111.555 107.382L111.179 107.712ZM111.251 107.795L110.871 108.12L110.874 108.123L111.251 107.795ZM113.666 110.566L113.29 110.895L113.292 110.897L113.666 110.566ZM113.917 111.31L114.415 111.348L113.917 111.31ZM113.557 112.008L113.237 111.624L113.23 111.629L113.557 112.008ZM112.231 113.157L111.903 112.78L112.231 113.157ZM111.145 114.1L110.817 113.722L110.815 113.724L111.145 114.1ZM111.11 114.302L110.663 114.526L110.664 114.527L111.11 114.302ZM112.089 117.167L112.58 117.074L112.58 117.072L112.089 117.167ZM112.265 117.318L112.227 117.817L112.229 117.817L112.265 117.318ZM113.916 117.44L113.879 117.938H113.879L113.916 117.44ZM106.37 119.851H106.87L105.871 119.819L106.37 119.851ZM103.293 124.698L103.052 124.26L103.05 124.261L103.293 124.698ZM106.37 119.853H105.87L106.869 119.885L106.37 119.853ZM100.849 113.57L100.811 114.069L100.813 114.069L100.849 113.57ZM100.332 113.559L100.341 114.059L100.349 114.059L100.332 113.559ZM94.5178 119.078L95.0166 119.113L95.0166 119.112L94.5178 119.078ZM95.9653 123.397L95.5884 123.725H95.5884L95.9653 123.397ZM100.045 125.421L100.08 124.923L100.079 124.922L100.045 125.421ZM116.756 117.972C116.637 117.685 116.452 117.455 116.204 117.295C115.96 117.139 115.686 117.069 115.414 117.049L115.34 118.046C115.495 118.057 115.596 118.093 115.663 118.136C115.724 118.176 115.784 118.238 115.833 118.356L116.756 117.972ZM116.867 118.618C116.879 118.398 116.841 118.177 116.757 117.973L115.832 118.354C115.86 118.422 115.872 118.494 115.869 118.567L116.867 118.618ZM116.597 122.592C116.693 121.271 116.783 119.949 116.867 118.624L115.869 118.561C115.785 119.882 115.695 121.202 115.6 122.519L116.597 122.592ZM116.587 122.683L116.595 122.611L115.601 122.5L115.593 122.572L116.587 122.683ZM114.972 123.975C115.785 124.029 116.475 123.507 116.586 122.695L115.595 122.56C115.56 122.817 115.362 122.999 115.038 122.977L114.972 123.975ZM114.069 123.914L114.971 123.975L115.039 122.977L114.136 122.916L114.069 123.914ZM111.859 123.762L114.069 123.914L114.137 122.916L111.927 122.764L111.859 123.762ZM111.746 123.753C111.739 123.753 111.737 123.752 111.744 123.753C111.749 123.753 111.758 123.754 111.769 123.754C111.791 123.756 111.818 123.759 111.847 123.761L111.939 122.765C111.893 122.761 111.802 122.753 111.746 122.753V123.753ZM111.97 123.983C112.047 123.808 112.124 123.633 112.203 123.456L111.29 123.049C111.21 123.229 111.131 123.407 111.055 123.581L111.97 123.983ZM111.376 125.287C111.587 124.857 111.779 124.42 111.97 123.983L111.055 123.581C110.861 124.021 110.678 124.439 110.478 124.847L111.376 125.287ZM110.727 126.375C110.96 126.028 111.174 125.67 111.369 125.301L110.485 124.833C110.306 125.171 110.11 125.5 109.897 125.817L110.727 126.375ZM110.697 125.979C110.706 125.989 110.774 126.072 110.773 126.21C110.772 126.268 110.758 126.312 110.75 126.333C110.743 126.351 110.737 126.359 110.744 126.348L109.88 125.845C109.853 125.891 109.775 126.023 109.773 126.197C109.77 126.399 109.866 126.547 109.943 126.635L110.697 125.979ZM112.034 127.523C111.59 127.008 111.145 126.492 110.697 125.978L109.943 126.635C110.389 127.147 110.833 127.661 111.277 128.176L112.034 127.523ZM112.778 128.384C112.53 128.098 112.282 127.81 112.034 127.523L111.277 128.176C111.525 128.463 111.773 128.751 112.022 129.039L112.778 128.384ZM112.623 130.561C112.943 130.28 113.138 129.909 113.167 129.506C113.197 129.103 113.057 128.707 112.778 128.385L112.021 129.038C112.141 129.177 112.178 129.316 112.17 129.433C112.161 129.551 112.104 129.686 111.963 129.81L112.623 130.561ZM110.867 132.088C111.452 131.579 112.036 131.07 112.621 130.563L111.965 129.808C111.38 130.315 110.795 130.824 110.21 131.335L110.867 132.088ZM110.294 132.588C110.485 132.421 110.676 132.255 110.866 132.089L110.211 131.334C110.018 131.501 109.827 131.669 109.636 131.836L110.294 132.588ZM109.719 133.09C109.912 132.923 110.103 132.755 110.294 132.588L109.636 131.836C109.445 132.003 109.255 132.169 109.064 132.335L109.719 133.09ZM108.614 133.475C109.024 133.501 109.426 133.358 109.729 133.081L109.054 132.344C108.951 132.438 108.815 132.486 108.676 132.477L108.614 133.475ZM107.556 132.946C107.822 133.259 108.204 133.45 108.614 133.475L108.676 132.477C108.537 132.469 108.408 132.404 108.318 132.298L107.556 132.946ZM106.757 132.026C107.025 132.334 107.292 132.641 107.559 132.949L108.314 132.294C108.047 131.986 107.779 131.678 107.512 131.37L106.757 132.026ZM105.564 130.651C105.962 131.111 106.36 131.569 106.757 132.026L107.512 131.37C107.114 130.913 106.717 130.456 106.32 129.997L105.564 130.651ZM105.472 130.542L105.56 130.646L106.324 130.001L106.236 129.897L105.472 130.542ZM105.848 130.62C105.878 130.604 105.796 130.657 105.667 130.638C105.529 130.617 105.464 130.533 105.476 130.546L106.233 129.893C106.164 129.814 106.03 129.682 105.817 129.649C105.615 129.618 105.453 129.697 105.382 129.735L105.848 130.62ZM102.857 131.642C103.894 131.443 104.898 131.1 105.84 130.623L105.389 129.731C104.53 130.165 103.614 130.478 102.669 130.66L102.857 131.642ZM103.115 131.354C103.117 131.324 103.118 131.426 103.031 131.528C102.941 131.633 102.836 131.646 102.857 131.642L102.669 130.66C102.581 130.677 102.407 130.72 102.272 130.876C102.142 131.029 102.124 131.203 102.118 131.277L103.115 131.354ZM102.973 133.321C103.022 132.665 103.07 132.007 103.115 131.35L102.118 131.281C102.073 131.936 102.024 132.591 101.976 133.248L102.973 133.321ZM102.889 134.464C102.917 134.083 102.945 133.702 102.973 133.321L101.976 133.248C101.948 133.629 101.919 134.01 101.892 134.392L102.889 134.464ZM102.869 134.64C102.876 134.598 102.886 134.529 102.89 134.453L101.891 134.402C101.89 134.422 101.887 134.444 101.88 134.493L102.869 134.64ZM102.867 134.655C102.868 134.65 102.869 134.645 102.869 134.64L101.88 134.493C101.879 134.498 101.879 134.504 101.878 134.51L102.867 134.655ZM101.953 135.822C102.452 135.627 102.804 135.175 102.869 134.643L101.876 134.521C101.856 134.688 101.746 134.829 101.589 134.89L101.953 135.822ZM101.342 135.93C101.554 135.937 101.765 135.899 101.961 135.819L101.581 134.894C101.516 134.92 101.446 134.933 101.375 134.931L101.342 135.93ZM97.3115 135.655C98.6482 135.751 99.9866 135.842 101.326 135.929L101.391 134.931C100.054 134.845 98.7175 134.753 97.383 134.658L97.3115 135.655ZM95.9619 134.2C95.9642 134.961 96.5486 135.593 97.3066 135.655L97.3879 134.658C97.1478 134.638 96.9627 134.438 96.9619 134.197L95.9619 134.2ZM95.9999 133.468C95.9828 133.697 95.9641 133.945 95.962 134.195L96.9619 134.203C96.9637 133.992 96.9796 133.777 96.9972 133.542L95.9999 133.468ZM96.0183 133.211C96.0128 133.296 96.0065 133.38 95.9999 133.468L96.9972 133.542C97.0036 133.456 97.0103 133.366 97.0162 133.277L96.0183 133.211ZM96.1812 130.87C96.1249 131.65 96.0706 132.431 96.0184 133.211L97.0161 133.277C97.0683 132.499 97.1224 131.721 97.1786 130.942L96.1812 130.87ZM96.4151 131.19C96.3948 131.184 96.2839 131.141 96.2183 131.006C96.1912 130.95 96.1846 130.903 96.1828 130.88C96.1811 130.86 96.1828 130.85 96.1817 130.864L97.1781 130.948C97.1825 130.896 97.1978 130.734 97.1175 130.569C97.0212 130.371 96.8502 130.28 96.7207 130.238L96.4151 131.19ZM94.6082 130.421C95.1859 130.731 95.7902 130.988 96.4138 131.19L96.7219 130.239C96.1551 130.055 95.6058 129.821 95.0808 129.539L94.6082 130.421ZM93.5696 129.793C93.9048 130.02 94.2514 130.229 94.6081 130.421L95.0808 129.54C94.7543 129.364 94.437 129.173 94.1301 128.965L93.5696 129.793ZM93.9326 129.782C93.9588 129.76 93.8973 129.822 93.7809 129.834C93.7182 129.841 93.6633 129.831 93.6224 129.817C93.5858 129.805 93.5659 129.79 93.5658 129.79L94.1338 128.967C94.0401 128.903 93.8809 128.818 93.6745 128.84C93.4856 128.86 93.3549 128.962 93.2987 129.008L93.9326 129.782ZM93.205 130.416C93.4517 130.202 93.6989 129.987 93.9452 129.771L93.2861 129.019C93.0416 129.233 92.796 129.447 92.549 129.661L93.205 130.416ZM92.7102 130.847C92.875 130.703 93.0399 130.56 93.205 130.416L92.549 129.661C92.384 129.805 92.2185 129.949 92.0528 130.093L92.7102 130.847ZM91.8092 131.619C92.1093 131.36 92.4059 131.104 92.7042 130.852L92.0588 130.088C91.7557 130.344 91.4549 130.604 91.1555 130.863L91.8092 131.619ZM91.5372 131.854C91.6281 131.776 91.7188 131.697 91.8092 131.619L91.1555 130.863C91.0651 130.941 90.9747 131.019 90.8843 131.097L91.5372 131.854ZM89.4013 131.701C89.9503 132.328 90.9017 132.397 91.5355 131.856L90.886 131.095C90.6685 131.281 90.3421 131.257 90.1537 131.042L89.4013 131.701ZM86.8498 128.775C87.701 129.748 88.5512 130.723 89.4001 131.7L90.1549 131.044C89.3052 130.066 88.4544 129.09 87.6025 128.116L86.8498 128.775ZM87.0069 126.606C86.3431 127.176 86.2695 128.109 86.8491 128.774L87.6032 128.117C87.3906 127.873 87.4128 127.576 87.6586 127.365L87.0069 126.606ZM88.1986 125.571C87.8009 125.918 87.4042 126.263 87.0061 126.607L87.6594 127.364C88.0596 127.019 88.4582 126.671 88.8556 126.325L88.1986 125.571ZM89.3948 124.532C88.9946 124.877 88.5961 125.225 88.1986 125.571L88.8556 126.325C89.2534 125.978 89.6501 125.633 90.0482 125.289L89.3948 124.532ZM89.3037 124.709C89.3222 124.615 89.379 124.534 89.4603 124.484L89.9827 125.337C90.1396 125.241 90.2491 125.083 90.2847 124.903L89.3037 124.709ZM89.363 124.977C89.3067 124.9 89.2852 124.803 89.3037 124.709L90.2847 124.903C90.3204 124.722 90.279 124.535 90.1705 124.387L89.363 124.977ZM88.2993 121.925C88.4991 122.962 88.8429 123.966 89.3208 124.908L90.2126 124.455C89.7769 123.597 89.4634 122.681 89.2813 121.736L88.2993 121.925ZM88.581 122.178C88.6084 122.18 88.5135 122.181 88.416 122.1C88.3113 122.013 88.2967 121.911 88.2989 121.922L89.2817 121.738C89.263 121.638 89.2153 121.464 89.0555 121.331C88.9027 121.204 88.7307 121.186 88.6487 121.18L88.581 122.178ZM85.4499 121.943C86.4944 122.026 87.5376 122.104 88.5795 122.178L88.6502 121.18C87.611 121.106 86.5705 121.029 85.5286 120.946L85.4499 121.943ZM84.0147 120.269C83.9851 120.697 84.0885 121.107 84.3585 121.425C84.6293 121.743 85.019 121.91 85.4507 121.943L85.5278 120.946C85.3056 120.929 85.1849 120.853 85.12 120.776C85.0542 120.699 84.9967 120.564 85.0123 120.338L84.0147 120.269ZM84.2752 116.456C84.1852 117.726 84.0983 118.997 84.0146 120.271L85.0124 120.337C85.096 119.065 85.1828 117.795 85.2727 116.527L84.2752 116.456ZM85.9152 115.022C85.4887 114.995 85.087 115.116 84.7811 115.384C84.4754 115.653 84.3043 116.035 84.2752 116.457L85.2728 116.526C85.2862 116.332 85.3583 116.208 85.441 116.136C85.5234 116.063 85.6551 116.007 85.8514 116.02L85.9152 115.022ZM87.5717 115.134L85.9171 115.022L85.8495 116.02L87.5041 116.132L87.5717 115.134ZM88.2113 115.179C87.9984 115.165 87.7868 115.15 87.575 115.134L87.5008 116.131C87.7154 116.147 87.9294 116.162 88.142 116.177L88.2113 115.179ZM89.0177 115.238C88.7476 115.217 88.4784 115.198 88.2113 115.179L88.142 116.177C88.4097 116.196 88.6751 116.214 88.9408 116.235L89.0177 115.238ZM88.7724 115.4C88.7565 115.446 88.7757 115.355 88.8844 115.288C88.9378 115.255 88.9867 115.244 89.0138 115.24C89.0364 115.238 89.0445 115.24 89.0243 115.238L88.9342 116.234C89.0296 116.243 89.2246 116.254 89.4118 116.137C89.6029 116.019 89.6804 115.835 89.7178 115.726L88.7724 115.4ZM89.0489 114.659C88.9499 114.901 88.8551 115.15 88.7704 115.406L89.7198 115.72C89.7957 115.491 89.8818 115.264 89.9744 115.037L89.0489 114.659ZM90.149 112.622C89.7139 113.261 89.3455 113.943 89.0497 114.657L89.9736 115.039C90.2432 114.389 90.5789 113.767 90.9755 113.185L90.149 112.622ZM90.1041 112.821C90.0983 112.725 90.1322 112.631 90.1979 112.561L90.9266 113.246C91.0497 113.115 91.1132 112.939 91.1023 112.76L90.1041 112.821ZM90.2289 113.067C90.1551 113.006 90.11 112.916 90.1041 112.821L91.1023 112.76C91.0913 112.58 91.0068 112.413 90.8687 112.298L90.2289 113.067ZM88.0923 110.602C88.7844 111.405 89.4772 112.208 90.1706 113.01L90.927 112.356C90.234 111.554 89.5416 110.752 88.8499 109.949L88.0923 110.602ZM88.0731 108.63C87.5559 109.224 87.5982 110.027 88.0919 110.602L88.8504 109.95C88.653 109.72 88.663 109.476 88.8273 109.287L88.0731 108.63ZM88.6617 108.083C88.461 108.248 88.2701 108.425 88.0899 108.612L88.8105 109.305C88.9637 109.146 89.126 108.996 89.2967 108.856L88.6617 108.083ZM89.2511 107.574C89.0514 107.745 88.8487 107.918 88.6484 108.094L89.3101 108.844C89.5032 108.674 89.6997 108.506 89.9004 108.335L89.2511 107.574ZM89.4227 107.428C89.3656 107.476 89.3085 107.525 89.2511 107.574L89.9004 108.335C89.9577 108.286 90.0153 108.237 90.073 108.187L89.4227 107.428ZM89.5956 107.28C89.5383 107.329 89.4809 107.378 89.4236 107.427L90.072 108.188C90.1291 108.139 90.1862 108.091 90.2436 108.042L89.5956 107.28ZM90.6028 106.411C90.2725 106.704 89.9358 106.991 89.5956 107.28L90.2436 108.042C90.5824 107.754 90.9273 107.46 91.2667 107.159L90.6028 106.411ZM90.8675 106.171C90.7753 106.258 90.6951 106.333 90.6127 106.403L91.2568 107.168C91.3643 107.077 91.4648 106.982 91.5535 106.898L90.8675 106.171ZM91.2185 105.857C91.0888 105.962 90.9702 106.074 90.8675 106.171L91.5535 106.898C91.6607 106.797 91.7524 106.711 91.8481 106.634L91.2185 105.857ZM93.3275 106.055C92.7793 105.425 91.8842 105.317 91.2183 105.857L91.8483 106.634C92.0758 106.449 92.3616 106.469 92.5732 106.712L93.3275 106.055ZM93.4803 106.232L93.3284 106.056L92.5723 106.711L92.7241 106.886L93.4803 106.232ZM93.941 106.761C93.7871 106.585 93.6333 106.408 93.4795 106.231L92.7249 106.887C92.8788 107.064 93.0328 107.241 93.1866 107.418L93.941 106.761ZM95.3931 108.435C94.9099 107.875 94.4252 107.318 93.941 106.761L93.1866 107.418C93.6711 107.975 94.1543 108.53 94.6359 109.088L95.3931 108.435ZM95.0386 108.372C95.0223 108.38 95.1188 108.326 95.2586 108.365C95.3218 108.383 95.3638 108.412 95.3834 108.428C95.4003 108.441 95.4054 108.449 95.3939 108.436L94.6351 109.087C94.6786 109.138 94.795 109.274 94.9882 109.328C95.2031 109.388 95.3846 109.317 95.4858 109.267L95.0386 108.372ZM97.574 107.453C96.6948 107.658 95.8431 107.967 95.0371 108.373L95.4873 109.266C96.2223 108.895 96.9989 108.614 97.8007 108.427L97.574 107.453ZM98.0169 107.357C97.8729 107.386 97.7232 107.417 97.5688 107.455L97.8059 108.426C97.939 108.394 98.0713 108.366 98.2148 108.337L98.0169 107.357ZM97.8451 107.468C97.9084 107.395 97.9993 107.351 98.096 107.348L98.1356 108.347C98.3152 108.34 98.4837 108.259 98.6013 108.123L97.8451 107.468ZM97.7616 107.734C97.7515 107.638 97.7817 107.542 97.8451 107.468L98.6013 108.123C98.7188 107.987 98.7749 107.808 98.7562 107.63L97.7616 107.734ZM97.9972 104.472C97.9148 105.531 97.8358 106.589 97.7602 107.646L98.7576 107.718C98.8331 106.662 98.912 105.606 98.9942 104.549L97.9972 104.472ZM98.9399 103.173C98.668 103.281 98.4361 103.45 98.2683 103.685C98.1014 103.918 98.0172 104.19 97.997 104.475L98.9945 104.546C99.0039 104.413 99.0396 104.325 99.0821 104.266C99.1239 104.207 99.1913 104.149 99.308 104.103L98.9399 103.173ZM99.5813 103.071C99.3635 103.058 99.1455 103.093 98.9422 103.172L99.3057 104.104C99.3746 104.077 99.4484 104.065 99.5222 104.07L99.5813 103.071ZM101.295 103.186C100.724 103.146 100.154 103.109 99.5843 103.071L99.5193 104.069C100.089 104.106 100.656 104.143 101.224 104.184L101.295 103.186ZM102.862 103.293C102.341 103.257 101.817 103.22 101.292 103.186L101.227 104.184C101.75 104.218 102.271 104.254 102.793 104.29L102.862 103.293ZM103.507 103.337C103.292 103.323 103.077 103.308 102.862 103.293L102.793 104.29C103.008 104.305 103.223 104.32 103.439 104.335L103.507 103.337ZM104.917 104.953C104.971 104.088 104.372 103.4 103.509 103.338L103.437 104.335C103.75 104.358 103.939 104.57 103.919 104.891L104.917 104.953ZM104.904 105.139L104.917 104.955L103.919 104.889L103.906 105.072L104.904 105.139ZM104.698 108.072C104.773 107.093 104.839 106.115 104.904 105.139L103.906 105.072C103.841 106.049 103.776 107.022 103.701 107.996L104.698 108.072ZM104.552 107.836C104.528 107.828 104.531 107.827 104.545 107.836C104.563 107.846 104.601 107.872 104.636 107.921C104.713 108.028 104.693 108.123 104.697 108.083L103.702 107.985C103.69 108.11 103.688 108.315 103.824 108.504C103.949 108.68 104.131 108.748 104.22 108.78L104.552 107.836ZM107.287 109.189C106.439 108.613 105.516 108.157 104.544 107.834L104.228 108.782C105.113 109.077 105.953 109.492 106.724 110.016L107.287 109.189ZM106.955 109.209C106.927 109.234 106.985 109.17 107.104 109.158C107.233 109.145 107.309 109.205 107.292 109.193L106.719 110.013C106.817 110.081 106.984 110.174 107.201 110.153C107.408 110.133 107.55 110.018 107.62 109.955L106.955 109.209ZM108.464 107.903C107.958 108.334 107.459 108.769 106.959 109.205L107.616 109.959C108.116 109.522 108.612 109.091 109.112 108.664L108.464 107.903ZM109.361 107.134C109.058 107.39 108.759 107.647 108.461 107.906L109.116 108.662C109.412 108.405 109.708 108.15 110.008 107.897L109.361 107.134ZM111.487 107.304C110.946 106.672 109.996 106.596 109.361 107.134L110.008 107.897C110.223 107.715 110.544 107.74 110.728 107.954L111.487 107.304ZM111.555 107.382C111.531 107.355 111.509 107.33 111.487 107.304L110.728 107.954C110.754 107.985 110.78 108.014 110.803 108.041L111.555 107.382ZM111.631 107.47C111.605 107.439 111.579 107.409 111.555 107.382L110.803 108.041C110.828 108.069 110.85 108.094 110.871 108.12L111.631 107.47ZM114.043 110.237C113.237 109.314 112.433 108.391 111.628 107.466L110.874 108.123C111.679 109.047 112.484 109.971 113.29 110.895L114.043 110.237ZM114.415 111.348C114.446 110.941 114.311 110.54 114.041 110.234L113.292 110.897C113.383 111 113.428 111.135 113.418 111.272L114.415 111.348ZM113.877 112.392C114.19 112.131 114.384 111.754 114.415 111.348L113.418 111.272C113.408 111.409 113.342 111.536 113.237 111.624L113.877 112.392ZM112.559 113.535C113.001 113.151 113.442 112.768 113.884 112.386L113.23 111.629C112.787 112.012 112.345 112.396 111.903 112.78L112.559 113.535ZM111.472 114.478C111.835 114.164 112.197 113.849 112.559 113.535L111.903 112.78C111.541 113.094 111.18 113.408 110.817 113.722L111.472 114.478ZM111.557 114.079C111.541 114.045 111.596 114.133 111.576 114.267C111.565 114.338 111.537 114.394 111.512 114.43C111.501 114.447 111.491 114.459 111.484 114.466C111.481 114.469 111.478 114.472 111.477 114.473C111.475 114.475 111.474 114.476 111.474 114.476L110.815 113.724C110.75 113.781 110.619 113.909 110.587 114.118C110.558 114.313 110.634 114.469 110.663 114.526L111.557 114.079ZM112.58 117.072C112.378 116.031 112.034 115.023 111.557 114.077L110.664 114.527C111.1 115.391 111.414 116.312 111.598 117.262L112.58 117.072ZM112.303 116.82C112.27 116.817 112.363 116.816 112.459 116.893C112.51 116.935 112.542 116.982 112.56 117.02C112.569 117.037 112.574 117.051 112.576 117.06C112.578 117.065 112.579 117.068 112.579 117.071C112.58 117.073 112.58 117.074 112.58 117.074L111.597 117.259C111.617 117.365 111.668 117.54 111.831 117.672C111.983 117.794 112.153 117.811 112.227 117.817L112.303 116.82ZM113.953 116.941C113.403 116.9 112.852 116.859 112.3 116.82L112.229 117.817C112.779 117.857 113.328 117.897 113.879 117.938L113.953 116.941ZM115.413 117.049C114.926 117.013 114.44 116.977 113.953 116.941L113.879 117.938C114.366 117.974 114.853 118.011 115.341 118.046L115.413 117.049ZM105.871 119.819C105.753 121.684 104.689 123.359 103.052 124.26L103.534 125.136C105.471 124.07 106.729 122.089 106.869 119.883L105.871 119.819ZM106.87 119.853V119.851H105.87V119.853H106.87ZM100.813 114.069C103.787 114.282 106.061 116.885 105.871 119.821L106.869 119.885C107.095 116.396 104.401 113.323 100.884 113.071L100.813 114.069ZM100.349 114.059C100.503 114.054 100.657 114.057 100.811 114.069L100.886 113.071C100.696 113.057 100.506 113.053 100.316 113.06L100.349 114.059ZM95.0166 119.112C95.2092 116.29 97.5596 114.108 100.341 114.059L100.324 113.059C97.0308 113.117 94.2474 115.696 94.0189 119.044L95.0166 119.112ZM96.3423 123.068C95.3926 121.978 94.9156 120.555 95.0166 119.113L94.019 119.043C93.8995 120.75 94.4641 122.435 95.5884 123.725L96.3423 123.068ZM100.079 124.922C98.6363 124.825 97.292 124.158 96.3423 123.068L95.5884 123.725C96.7126 125.015 98.3039 125.805 100.011 125.92L100.079 124.922ZM103.05 124.261C102.145 124.764 101.113 124.994 100.08 124.923L100.01 125.92C101.237 126.005 102.462 125.732 103.536 125.135L103.05 124.261Z" fill="#333333"/>
<path fill-rule="evenodd" clip-rule="evenodd" d="M251.111 58.382C251.411 58.4042 251.636 58.5303 251.754 58.8137C251.793 58.9087 251.81 59.0111 251.805 59.1137C251.746 60.0397 251.683 60.9644 251.616 61.8876L251.611 61.9381C251.56 62.3122 251.249 62.5583 250.851 62.5318L250.22 62.4893L248.673 62.383C248.632 62.3793 248.589 62.3755 248.57 62.3755C248.515 62.5004 248.46 62.624 248.406 62.7465C248.272 63.0532 248.14 63.3525 247.997 63.6456C247.866 63.893 247.722 64.1334 247.566 64.3658C247.533 64.4235 247.525 64.4589 247.572 64.5132C247.885 64.8724 248.196 65.2327 248.507 65.5931C248.68 65.7943 248.854 65.9955 249.028 66.1965C249.307 66.5196 249.275 66.9447 248.953 67.2281C248.544 67.5833 248.134 67.9394 247.725 68.2965C247.591 68.4129 247.457 68.5298 247.323 68.6467C247.19 68.7636 247.056 68.8805 246.922 68.9969C246.78 69.1269 246.591 69.1936 246.399 69.1817C246.207 69.1698 246.028 69.0802 245.904 68.9336C245.717 68.718 245.53 68.5028 245.343 68.2875C245.064 67.9671 244.786 67.6467 244.507 67.3249L244.446 67.2522C244.39 67.187 244.349 67.1851 244.278 67.2224C243.648 67.5412 242.976 67.7706 242.282 67.904C242.206 67.9186 242.186 67.9465 242.18 68.0192C242.148 68.4785 242.114 68.9379 242.08 69.3972C242.061 69.664 242.041 69.9308 242.022 70.1976C242.02 70.231 242.015 70.2629 242.01 70.2946C242.01 70.2983 242.009 70.302 242.009 70.3057C241.979 70.55 241.817 70.7581 241.588 70.8475C241.497 70.885 241.398 70.9027 241.299 70.8994C240.362 70.8387 239.426 70.7747 238.492 70.7077C238.142 70.6792 237.873 70.3879 237.872 70.0374C237.873 69.8763 237.885 69.7142 237.897 69.5517C237.902 69.4909 237.907 69.43 237.911 69.3691C237.947 68.8237 237.985 68.2782 238.024 67.7325C238.03 67.6655 238.022 67.6229 237.946 67.5984C237.529 67.4635 237.126 67.2915 236.74 67.0845C236.501 66.9562 236.268 66.8158 236.043 66.6637C235.976 66.6174 235.937 66.6278 235.88 66.675C235.708 66.8256 235.535 66.9755 235.363 67.1256C235.247 67.226 235.131 67.3265 235.016 67.4274C234.805 67.6052 234.596 67.7858 234.386 67.967C234.323 68.0217 234.26 68.0764 234.196 68.1312C233.898 68.3857 233.451 68.3533 233.193 68.0584C232.599 67.3745 232.003 66.6919 231.407 66.0105C231.13 65.6921 231.163 65.2618 231.482 64.9884C231.761 64.7472 232.039 64.5047 232.318 64.2622C232.596 64.0197 232.874 63.7771 233.154 63.536C233.18 63.5198 233.199 63.4933 233.205 63.4629C233.211 63.4324 233.204 63.4009 233.185 63.3759C232.866 62.7456 232.636 62.0738 232.502 61.3798C232.487 61.3019 232.456 61.2792 232.379 61.274C231.651 61.2224 230.922 61.1678 230.191 61.1101C229.734 61.0747 229.477 60.7691 229.508 60.3115C229.567 59.4207 229.628 58.5313 229.691 57.6433C229.721 57.2112 230.031 56.9358 230.467 56.9637L231.625 57.0421C231.775 57.0532 231.924 57.0635 232.072 57.0739C232.26 57.0869 232.447 57.0999 232.634 57.1143C232.739 57.1238 232.783 57.1016 232.82 56.9934C232.877 56.8234 232.94 56.6567 233.007 56.4928C233.205 56.015 233.451 55.5589 233.742 55.1315C233.762 55.1102 233.773 55.0815 233.771 55.0523C233.769 55.023 233.755 54.9958 233.733 54.9771C233.248 54.416 232.763 53.8544 232.279 53.2923C232.037 53.0108 232.025 52.6443 232.264 52.3704C232.381 52.2491 232.504 52.1348 232.634 52.0279C232.772 51.9064 232.912 51.7871 233.052 51.6675C233.092 51.6332 233.132 51.599 233.172 51.5646C233.212 51.5305 233.252 51.4964 233.292 51.4623C233.53 51.2601 233.769 51.0571 234.003 50.849C234.07 50.793 234.133 50.7334 234.196 50.6737C234.27 50.6045 234.343 50.5351 234.422 50.4712C234.735 50.2175 235.148 50.2624 235.414 50.568L235.52 50.6908C235.628 50.8147 235.736 50.9385 235.843 51.0623C236.182 51.4518 236.521 51.841 236.859 52.2324C236.913 52.2957 236.95 52.3142 237.032 52.2731C237.571 52.0011 238.141 51.7945 238.73 51.6576C238.83 51.6331 238.929 51.6128 239.029 51.5925C239.058 51.5913 239.086 51.5782 239.105 51.5563C239.124 51.5344 239.133 51.5056 239.13 51.4767C239.183 50.7374 239.238 49.9974 239.295 49.2568C239.316 48.9645 239.463 48.7538 239.735 48.6461C239.83 48.609 239.933 48.5929 240.035 48.5989C240.433 48.6249 240.831 48.6509 241.23 48.6792C241.597 48.7029 241.962 48.7283 242.328 48.7537C242.478 48.7642 242.629 48.7747 242.779 48.785C243.191 48.8147 243.466 49.1298 243.44 49.545L243.432 49.6735C243.386 50.3566 243.34 51.0397 243.288 51.7233C243.277 51.8385 243.312 51.8777 243.418 51.915C244.068 52.1314 244.685 52.4364 245.252 52.8214C245.332 52.8776 245.38 52.8682 245.449 52.8068C245.799 52.5012 246.147 52.198 246.5 51.898C246.708 51.7176 246.916 51.5386 247.127 51.3601C247.424 51.1081 247.869 51.1438 248.123 51.4399C248.14 51.4595 248.157 51.4786 248.173 51.4978C248.19 51.5169 248.207 51.536 248.224 51.5556C248.787 52.2027 249.35 52.8493 249.914 53.4954C250.041 53.6382 250.104 53.8261 250.089 54.0163C250.075 54.2065 249.984 54.3827 249.838 54.5048C249.528 54.7724 249.219 55.0406 248.91 55.309C248.656 55.5291 248.403 55.7492 248.149 55.969C248.095 56.0162 248.093 56.0474 248.125 56.1107C248.444 56.7442 248.675 57.419 248.81 58.1156C248.825 58.1959 248.858 58.2162 248.933 58.2219C249.318 58.2495 249.704 58.2781 250.089 58.3068C250.43 58.3321 250.771 58.3574 251.111 58.382ZM242.654 63.3871C243.905 62.6987 244.717 61.4191 244.808 59.9944V59.9958C244.954 57.7471 243.214 55.7606 240.943 55.5981C240.823 55.589 240.702 55.5865 240.582 55.5905C238.456 55.6278 236.659 57.2942 236.512 59.4536C236.435 60.5557 236.799 61.6433 237.525 62.4762C238.251 63.3092 239.278 63.8191 240.381 63.8934C241.172 63.9482 241.961 63.7724 242.654 63.3871Z" fill="white"/>
<path d="M251.754 58.8137L252.216 58.6232L252.216 58.6221L251.754 58.8137ZM251.111 58.382L251.148 57.8834L251.147 57.8833L251.111 58.382ZM251.805 59.1137L252.304 59.1454L252.305 59.1391L251.805 59.1137ZM251.616 61.8876L252.113 61.9433L252.114 61.9336L252.115 61.9238L251.616 61.8876ZM251.611 61.9381L252.106 62.0057L252.108 61.9939L251.611 61.9381ZM250.851 62.5318L250.818 63.0307L250.818 63.0307L250.851 62.5318ZM250.22 62.4893L250.185 62.9881L250.186 62.9882L250.22 62.4893ZM248.673 62.383L248.627 62.8811L248.639 62.8819L248.673 62.383ZM248.57 62.3755V61.8755H248.246L248.114 62.1716L248.57 62.3755ZM248.406 62.7465L247.949 62.5455V62.5455L248.406 62.7465ZM247.997 63.6456L248.439 63.8794L248.443 63.8725L248.446 63.8654L247.997 63.6456ZM247.566 64.3658L247.151 64.0871L247.142 64.1005L247.134 64.1143L247.566 64.3658ZM247.572 64.5132L247.195 64.8413L247.195 64.8418L247.572 64.5132ZM248.507 65.5931L248.885 65.2666L248.885 65.2666L248.507 65.5931ZM249.028 66.1965L249.406 65.8696L249.406 65.8694L249.028 66.1965ZM248.953 67.2281L249.281 67.6057L249.283 67.6035L248.953 67.2281ZM247.725 68.2965L248.053 68.6741L248.054 68.6733L247.725 68.2965ZM247.323 68.6467L247.653 69.0231L247.653 69.0231L247.323 68.6467ZM246.922 68.9969L246.594 68.6192L246.584 68.6283L246.922 68.9969ZM246.399 69.1817L246.368 69.6807L246.399 69.1817ZM245.904 68.9336L246.284 68.6097L246.281 68.6061L245.904 68.9336ZM245.343 68.2875L244.965 68.6155H244.965L245.343 68.2875ZM244.507 67.3249L244.125 67.6475L244.129 67.652L244.507 67.3249ZM244.446 67.2522L244.828 66.9296L244.825 66.9257L244.446 67.2522ZM244.278 67.2224L244.504 67.6687L244.511 67.6648L244.278 67.2224ZM242.282 67.904L242.376 68.3951L242.377 68.395L242.282 67.904ZM242.18 68.0192L241.681 67.9804L241.681 67.9848L242.18 68.0192ZM242.08 69.3972L241.582 69.3604L242.08 69.3972ZM242.022 70.1976L241.523 70.1615L241.522 70.1723L242.022 70.1976ZM242.01 70.2946L242.505 70.3679V70.3679L242.01 70.2946ZM242.009 70.3057L241.514 70.2331L241.513 70.2449L242.009 70.3057ZM241.588 70.8475L241.406 70.3816L241.398 70.3849L241.588 70.8475ZM241.299 70.8994L241.267 71.3984L241.275 71.3989L241.283 71.3991L241.299 70.8994ZM238.492 70.7077L238.451 71.206L238.456 71.2064L238.492 70.7077ZM237.872 70.0374L237.372 70.0332L237.372 70.0389L237.872 70.0374ZM237.897 69.5517L238.396 69.589L237.897 69.5517ZM237.911 69.3691L237.412 69.3357L237.412 69.3364L237.911 69.3691ZM238.024 67.7325L237.526 67.6904L237.526 67.6966L238.024 67.7325ZM237.946 67.5984L237.792 68.0741L237.793 68.0745L237.946 67.5984ZM236.74 67.0845L236.503 67.5251L236.503 67.5251L236.74 67.0845ZM236.043 66.6637L235.759 67.0752L235.763 67.0777L236.043 66.6637ZM235.88 66.675L235.563 66.2883L235.556 66.2935L235.55 66.299L235.88 66.675ZM235.363 67.1256L235.035 66.7482H235.035L235.363 67.1256ZM235.016 67.4274L235.338 67.8094L235.344 67.8042L235.016 67.4274ZM234.386 67.967L234.713 68.3454L234.713 68.3454L234.386 67.967ZM234.196 68.1312L234.521 68.5113L234.523 68.5099L234.196 68.1312ZM233.193 68.0584L232.816 68.3864L232.817 68.3878L233.193 68.0584ZM231.407 66.0105L231.03 66.3388L231.031 66.3397L231.407 66.0105ZM231.482 64.9884L231.808 65.3676L231.809 65.3669L231.482 64.9884ZM232.318 64.2622L232.646 64.6392H232.646L232.318 64.2622ZM233.154 63.536L232.893 63.1096L232.858 63.1309L232.827 63.1575L233.154 63.536ZM233.205 63.4629L232.714 63.3659L232.714 63.3659L233.205 63.4629ZM233.185 63.3759L232.74 63.6021L232.758 63.6381L232.782 63.6708L233.185 63.3759ZM232.502 61.3798L232.011 61.4722L232.011 61.4744L232.502 61.3798ZM232.379 61.274L232.344 61.7728L232.345 61.7729L232.379 61.274ZM230.191 61.1101L230.231 60.6117L230.23 60.6116L230.191 61.1101ZM229.508 60.3115L230.007 60.3459L230.007 60.3443L229.508 60.3115ZM229.691 57.6433L230.19 57.6787L230.19 57.6777L229.691 57.6433ZM230.467 56.9637L230.501 56.4648L230.499 56.4647L230.467 56.9637ZM231.625 57.0421L231.662 56.5434L231.659 56.5432L231.625 57.0421ZM232.072 57.0739L232.038 57.5727H232.038L232.072 57.0739ZM232.634 57.1143L232.679 56.6163L232.673 56.6158L232.634 57.1143ZM232.82 56.9934L233.293 57.1565L233.295 57.1503L232.82 56.9934ZM233.007 56.4928L232.545 56.3014L232.544 56.3034L233.007 56.4928ZM233.742 55.1315L233.378 54.7891L233.351 54.8177L233.329 54.8501L233.742 55.1315ZM233.733 54.9771L233.355 55.3041L233.381 55.3351L233.413 55.3614L233.733 54.9771ZM232.279 53.2923L231.899 53.6181L231.9 53.6187L232.279 53.2923ZM232.264 52.3704L231.904 52.0237L231.895 52.0326L231.887 52.042L232.264 52.3704ZM232.634 52.0279L232.952 52.4142L232.959 52.4086L232.965 52.4028L232.634 52.0279ZM233.052 51.6675L233.376 52.0477L233.376 52.0477L233.052 51.6675ZM233.172 51.5646L232.848 51.184L232.847 51.1847L233.172 51.5646ZM233.292 51.4623L233.616 51.8431V51.8431L233.292 51.4623ZM234.003 50.849L233.681 50.4664L233.671 50.4751L234.003 50.849ZM234.196 50.6737L234.539 51.0375L234.539 51.0375L234.196 50.6737ZM234.422 50.4712L234.737 50.8596L234.737 50.8595L234.422 50.4712ZM235.414 50.568L235.792 50.2408L235.791 50.2398L235.414 50.568ZM235.52 50.6908L235.142 51.018L235.143 51.0189L235.52 50.6908ZM235.843 51.0623L235.466 51.3905V51.3905L235.843 51.0623ZM236.859 52.2324L237.238 51.9068L237.237 51.9059L236.859 52.2324ZM237.032 52.2731L237.256 52.7203L237.257 52.7195L237.032 52.2731ZM238.73 51.6576L238.843 52.1446L238.848 52.1434L238.73 51.6576ZM239.029 51.5925L239.01 51.0928L238.97 51.0944L238.931 51.1023L239.029 51.5925ZM239.13 51.4767L238.631 51.441L238.628 51.4851L238.632 51.5289L239.13 51.4767ZM239.295 49.2568L239.794 49.2956L239.794 49.2923L239.295 49.2568ZM239.735 48.6461L239.553 48.1803L239.551 48.1812L239.735 48.6461ZM240.035 48.5989L240.067 48.0999L240.064 48.0998L240.035 48.5989ZM241.23 48.6792L241.195 49.1779L241.198 49.1781L241.23 48.6792ZM242.328 48.7537L242.293 49.2525L242.293 49.2525L242.328 48.7537ZM242.779 48.785L242.815 48.2863L242.813 48.2862L242.779 48.785ZM243.44 49.545L243.939 49.5784L243.939 49.5762L243.44 49.545ZM243.432 49.6735L242.933 49.6401V49.6401L243.432 49.6735ZM243.288 51.7233L243.786 51.7722L243.786 51.7615L243.288 51.7233ZM243.418 51.915L243.253 52.3869L243.26 52.3895L243.418 51.915ZM245.252 52.8214L245.539 52.4118L245.533 52.4079L245.252 52.8214ZM245.449 52.8068L245.12 52.4301L245.117 52.4334L245.449 52.8068ZM246.5 51.898L246.824 52.2788L246.827 52.276L246.5 51.898ZM247.127 51.3601L246.804 50.9786L246.804 50.9786L247.127 51.3601ZM248.123 51.4399L248.503 51.1149L248.503 51.1147L248.123 51.4399ZM248.173 51.4978L247.797 51.8273L247.797 51.8273L248.173 51.4978ZM248.224 51.5556L247.844 51.8806L247.846 51.8838L248.224 51.5556ZM249.914 53.4954L249.537 53.8242L249.54 53.8269L249.914 53.4954ZM250.089 54.0163L249.591 53.9785V53.9785L250.089 54.0163ZM249.838 54.5048L249.517 54.1206L249.511 54.1263L249.838 54.5048ZM248.91 55.309L249.238 55.6865L249.238 55.6865L248.91 55.309ZM248.149 55.969L247.822 55.5908L247.819 55.5931L248.149 55.969ZM248.125 56.1107L247.678 56.3343L247.678 56.3358L248.125 56.1107ZM248.81 58.1156L249.301 58.0232L249.301 58.0206L248.81 58.1156ZM248.933 58.2219L248.895 58.7205L248.897 58.7206L248.933 58.2219ZM250.089 58.3068L250.052 58.8054L250.089 58.3068ZM244.808 59.9944H245.308L244.309 59.9626L244.808 59.9944ZM242.654 63.3871L242.413 62.9491L242.411 62.9501L242.654 63.3871ZM244.808 59.9958H244.308L245.307 60.0281L244.808 59.9958ZM240.943 55.5981L240.905 56.0967L240.907 56.0968L240.943 55.5981ZM240.582 55.5905L240.591 56.0905L240.599 56.0902L240.582 55.5905ZM236.512 59.4536L237.011 59.4885L237.011 59.4877L236.512 59.4536ZM237.525 62.4762L237.148 62.8047L237.148 62.8047L237.525 62.4762ZM240.381 63.8934L240.415 63.3946L240.414 63.3946L240.381 63.8934ZM252.216 58.6221C252.121 58.3951 251.973 58.209 251.771 58.0794C251.575 57.953 251.357 57.8989 251.148 57.8834L251.074 58.8807C251.165 58.8874 251.21 58.9074 251.23 58.9205C251.246 58.9303 251.269 58.949 251.292 59.0054L252.216 58.6221ZM252.305 59.1391C252.314 58.9627 252.283 58.7865 252.216 58.6232L251.291 59.0043C251.302 59.0308 251.307 59.0595 251.306 59.0882L252.305 59.1391ZM252.115 61.9238C252.182 60.9991 252.245 60.0729 252.304 59.1454L251.306 59.0819C251.247 60.0065 251.185 60.9296 251.118 61.8514L252.115 61.9238ZM252.108 61.9939L252.113 61.9433L251.119 61.8318L251.114 61.8824L252.108 61.9939ZM250.818 63.0307C251.461 63.0734 252.017 62.657 252.106 62.0057L251.115 61.8706C251.102 61.9674 251.038 62.0431 250.884 62.0329L250.818 63.0307ZM250.186 62.9882L250.818 63.0307L250.885 62.033L250.253 61.9904L250.186 62.9882ZM248.639 62.8819L250.185 62.9881L250.254 61.9905L248.707 61.8842L248.639 62.8819ZM248.57 62.8755C248.565 62.8755 248.561 62.8754 248.56 62.8753C248.559 62.8753 248.559 62.8753 248.56 62.8753C248.562 62.8755 248.567 62.8758 248.574 62.8763C248.589 62.8775 248.607 62.8791 248.627 62.8809L248.719 61.8851C248.691 61.8826 248.618 61.8755 248.57 61.8755V62.8755ZM248.864 62.9475C248.918 62.8248 248.972 62.7026 249.027 62.5794L248.114 62.1716C248.057 62.2982 248.002 62.4232 247.949 62.5455L248.864 62.9475ZM248.446 63.8654C248.595 63.5615 248.73 63.2526 248.864 62.9475L247.949 62.5455C247.813 62.8539 247.686 63.1436 247.548 63.4257L248.446 63.8654ZM247.981 64.6445C248.147 64.3976 248.3 64.1423 248.439 63.8794L247.555 63.4117C247.432 63.6437 247.297 63.8692 247.151 64.0871L247.981 64.6445ZM247.949 64.1851C247.968 64.2073 248.041 64.3 248.039 64.4472C248.037 64.5654 247.985 64.6408 247.998 64.6173L247.134 64.1143C247.114 64.1485 247.041 64.2705 247.039 64.4343C247.036 64.6273 247.128 64.7648 247.195 64.8413L247.949 64.1851ZM248.885 65.2666C248.574 64.9063 248.263 64.545 247.949 64.1846L247.195 64.8418C247.507 65.1998 247.817 65.5591 248.128 65.9197L248.885 65.2666ZM249.406 65.8694C249.232 65.6687 249.059 65.4678 248.885 65.2666L248.128 65.9197C248.301 66.1208 248.475 66.3223 248.649 66.5237L249.406 65.8694ZM249.283 67.6035C249.533 67.3834 249.691 67.0883 249.714 66.7636C249.738 66.4384 249.625 66.123 249.406 65.8696L248.649 66.5234C248.709 66.5932 248.72 66.6518 248.717 66.6908C248.714 66.7303 248.695 66.7893 248.623 66.8527L249.283 67.6035ZM248.054 68.6733C248.463 68.3165 248.872 67.9606 249.281 67.6057L248.625 66.8504C248.216 67.2059 247.806 67.5623 247.396 67.9197L248.054 68.6733ZM247.653 69.0231C247.786 68.9061 247.919 68.7898 248.053 68.6741L247.397 67.9189C247.262 68.036 247.128 68.1535 246.994 68.2703L247.653 69.0231ZM247.25 69.3745C247.385 69.2574 247.519 69.1399 247.653 69.0231L246.994 68.2703C246.86 68.3873 246.727 68.5036 246.594 68.6193L247.25 69.3745ZM246.368 69.6807C246.696 69.7011 247.018 69.5873 247.26 69.3655L246.584 68.6283C246.542 68.6666 246.487 68.6862 246.43 68.6827L246.368 69.6807ZM245.523 69.2576C245.735 69.5076 246.041 69.6604 246.368 69.6807L246.43 68.6827C246.374 68.6792 246.321 68.6528 246.284 68.6097L245.523 69.2576ZM244.965 68.6155C245.152 68.8308 245.339 69.0458 245.526 69.2612L246.281 68.6061C246.094 68.3902 245.907 68.1748 245.72 67.9596L244.965 68.6155ZM244.129 67.652C244.408 67.9743 244.687 68.2952 244.965 68.6155L245.72 67.9596C245.442 67.6391 245.163 67.3191 244.886 66.9979L244.129 67.652ZM244.064 67.5747L244.125 67.6474L244.889 67.0024L244.828 66.9296L244.064 67.5747ZM244.511 67.6648C244.511 67.665 244.507 67.6673 244.499 67.6707C244.491 67.674 244.478 67.6791 244.46 67.6841C244.423 67.6944 244.364 67.704 244.293 67.6932C244.143 67.6704 244.068 67.5792 244.067 67.5787L244.825 66.9257C244.768 66.86 244.645 66.7352 244.443 66.7045C244.251 66.6754 244.102 66.7504 244.045 66.78L244.511 67.6648ZM242.377 68.395C243.116 68.2529 243.832 68.0084 244.504 67.6686L244.053 66.7762C243.464 67.0741 242.836 67.2884 242.188 67.413L242.377 68.395ZM242.678 68.0581C242.678 68.0589 242.678 68.0645 242.676 68.0734C242.675 68.0824 242.672 68.097 242.667 68.1154C242.655 68.1541 242.631 68.2101 242.584 68.2654C242.536 68.3212 242.483 68.3544 242.442 68.373C242.405 68.3896 242.379 68.3946 242.376 68.3951L242.188 67.4129C242.116 67.4267 241.953 67.4654 241.825 67.6142C241.701 67.759 241.686 67.9221 241.681 67.9804L242.678 68.0581ZM242.579 69.4341C242.613 68.9749 242.647 68.5143 242.679 68.0536L241.681 67.9848C241.649 68.4426 241.616 68.9008 241.582 69.3604L242.579 69.4341ZM242.52 70.2336C242.54 69.9673 242.559 69.701 242.579 69.4341L241.582 69.3604C241.562 69.6271 241.542 69.8943 241.523 70.1615L242.52 70.2336ZM242.505 70.3679C242.509 70.3394 242.518 70.2841 242.521 70.2228L241.522 70.1723C241.522 70.1737 241.522 70.1776 241.521 70.1858C241.52 70.1947 241.518 70.2046 241.516 70.2214L242.505 70.3679ZM242.504 70.3783C242.504 70.375 242.505 70.3716 242.505 70.3679L241.516 70.2214C241.515 70.2251 241.515 70.2291 241.514 70.2331L242.504 70.3783ZM241.77 71.3133C242.17 71.157 242.453 70.7934 242.505 70.3665L241.513 70.2449C241.505 70.3066 241.464 70.3591 241.406 70.3816L241.77 71.3133ZM241.283 71.3991C241.452 71.4047 241.621 71.3744 241.778 71.3101L241.398 70.3849C241.372 70.3956 241.344 70.4006 241.316 70.3997L241.283 71.3991ZM238.456 71.2064C239.392 71.2735 240.329 71.3375 241.267 71.3984L241.332 70.4005C240.396 70.3398 239.461 70.2759 238.527 70.2089L238.456 71.2064ZM237.372 70.0389C237.374 70.6492 237.843 71.1564 238.451 71.206L238.532 70.2093C238.442 70.2019 238.372 70.1266 238.372 70.0359L237.372 70.0389ZM237.399 69.5145C237.387 69.674 237.373 69.8527 237.372 70.0332L238.372 70.0417C238.373 69.8999 238.384 69.7543 238.396 69.589L237.399 69.5145ZM237.412 69.3364C237.408 69.3946 237.403 69.4532 237.399 69.5145L238.396 69.589C238.401 69.5285 238.405 69.4654 238.409 69.4018L237.412 69.3364ZM237.526 67.6966C237.486 68.2431 237.448 68.7895 237.412 69.3357L238.409 69.4025C238.446 68.858 238.484 68.3133 238.523 67.7685L237.526 67.6966ZM237.793 68.0745C237.757 68.0627 237.637 68.0126 237.566 67.8683C237.512 67.7569 237.529 67.6614 237.526 67.6904L238.523 67.7746C238.526 67.7366 238.541 67.5862 238.466 67.4307C238.374 67.2423 238.212 67.1586 238.099 67.1223L237.793 68.0745ZM236.503 67.5251C236.916 67.7462 237.347 67.9299 237.792 68.0741L238.1 67.1227C237.712 66.997 237.336 66.8367 236.976 66.6439L236.503 67.5251ZM235.763 67.0777C236.002 67.2394 236.249 67.3888 236.503 67.5251L236.976 66.6439C236.752 66.5237 236.534 66.3921 236.324 66.2496L235.763 67.0777ZM236.197 67.0617C236.197 67.0617 236.196 67.0623 236.194 67.0634C236.193 67.0645 236.191 67.0662 236.188 67.0683C236.182 67.0725 236.171 67.0795 236.157 67.0872C236.127 67.1032 236.077 67.1244 236.011 67.1314C235.866 67.1469 235.772 67.0837 235.759 67.0752L236.327 66.2522C236.248 66.1974 236.1 66.1162 235.905 66.1371C235.727 66.1562 235.606 66.2524 235.563 66.2883L236.197 67.0617ZM235.691 67.503C235.863 67.353 236.036 67.2024 236.209 67.051L235.55 66.299C235.379 66.4488 235.207 66.598 235.035 66.7482L235.691 67.503ZM235.344 67.8042C235.46 67.7037 235.575 67.6035 235.691 67.503L235.035 66.7482C234.919 66.8486 234.803 66.9494 234.687 67.0506L235.344 67.8042ZM234.713 68.3454C234.923 68.1639 235.13 67.9851 235.338 67.8093L234.693 67.0455C234.48 67.2253 234.269 67.4077 234.06 67.5886L234.713 68.3454ZM234.523 68.5099C234.586 68.4549 234.65 68.4 234.713 68.3454L234.06 67.5886C233.996 67.6433 233.933 67.6979 233.87 67.7525L234.523 68.5099ZM232.817 68.3878C233.255 68.8886 234.015 68.9437 234.521 68.5113L233.871 67.751C233.782 67.8277 233.647 67.8179 233.569 67.7291L232.817 68.3878ZM231.031 66.3397C231.627 67.0207 232.222 67.7029 232.816 68.3864L233.57 67.7304C232.976 67.0461 232.38 66.363 231.784 65.6812L231.031 66.3397ZM231.156 64.6091C230.629 65.0621 230.569 65.8098 231.03 66.3388L231.784 65.6821C231.691 65.5744 231.698 65.4616 231.808 65.3676L231.156 64.6091ZM231.989 63.8853C231.711 64.1279 231.433 64.3696 231.155 64.6098L231.809 65.3669C232.089 65.1249 232.368 64.8815 232.646 64.6392L231.989 63.8853ZM232.827 63.1575C232.547 63.3995 232.267 63.6428 231.989 63.8853L232.646 64.6392C232.925 64.3965 233.202 64.1547 233.481 63.9145L232.827 63.1575ZM232.714 63.3659C232.735 63.2593 232.8 63.1664 232.893 63.1096L233.415 63.9623C233.561 63.8732 233.662 63.7272 233.695 63.5598L232.714 63.3659ZM232.782 63.6708C232.718 63.583 232.693 63.4725 232.714 63.3659L233.695 63.5598C233.728 63.3924 233.69 63.2187 233.589 63.0809L232.782 63.6708ZM232.011 61.4744C232.154 62.2141 232.399 62.9303 232.74 63.6021L233.631 63.1496C233.333 62.561 233.118 61.9335 232.993 61.2853L232.011 61.4744ZM232.345 61.7729C232.345 61.7729 232.322 61.7716 232.289 61.7618C232.251 61.7509 232.198 61.7287 232.144 61.6841C232.031 61.5901 232.012 61.4772 232.011 61.4722L232.993 61.2875C232.978 61.2045 232.935 61.0413 232.784 60.9153C232.639 60.7951 232.479 60.7796 232.413 60.7752L232.345 61.7729ZM230.152 61.6086C230.884 61.6663 231.614 61.7211 232.344 61.7728L232.415 60.7753C231.688 60.7237 230.96 60.6692 230.231 60.6117L230.152 61.6086ZM229.01 60.277C228.987 60.6067 229.066 60.9352 229.286 61.1932C229.506 61.4522 229.819 61.5828 230.153 61.6087L230.23 60.6116C230.106 60.602 230.062 60.5622 230.047 60.5451C230.032 60.527 229.998 60.4739 230.007 60.3459L229.01 60.277ZM229.192 57.608C229.129 58.4968 229.068 59.387 229.01 60.2787L230.007 60.3443C230.066 59.4543 230.127 58.5658 230.19 57.6787L229.192 57.608ZM230.499 56.4647C230.166 56.4434 229.844 56.5378 229.597 56.7553C229.349 56.9726 229.215 57.2787 229.192 57.609L230.19 57.6777C230.197 57.5758 230.232 57.5281 230.257 57.5066C230.281 57.4854 230.332 57.4561 230.435 57.4626L230.499 56.4647ZM231.659 56.5432L230.501 56.4648L230.434 57.4625L231.592 57.5409L231.659 56.5432ZM232.107 56.5751C231.958 56.5647 231.81 56.5544 231.662 56.5434L231.588 57.5407C231.739 57.5519 231.889 57.5623 232.038 57.5727L232.107 56.5751ZM232.673 56.6158C232.483 56.6012 232.294 56.588 232.107 56.5751L232.038 57.5727C232.225 57.5857 232.41 57.5986 232.596 57.6128L232.673 56.6158ZM232.348 56.8304C232.34 56.8533 232.368 56.7484 232.489 56.6732C232.606 56.6004 232.711 56.6192 232.679 56.6164L232.589 57.6123C232.662 57.6189 232.841 57.6313 233.016 57.5228C233.195 57.4118 233.264 57.2417 233.293 57.1565L232.348 56.8304ZM232.544 56.3034C232.474 56.4751 232.406 56.6529 232.346 56.8365L233.295 57.1503C233.347 56.9939 233.406 56.8382 233.47 56.6821L232.544 56.3034ZM233.329 54.8501C233.019 55.3057 232.756 55.7921 232.545 56.3014L233.469 56.6841C233.654 56.238 233.884 55.8121 234.156 55.413L233.329 54.8501ZM233.272 55.0828C233.265 54.9745 233.304 54.8682 233.378 54.7891L234.107 55.4739C234.221 55.3522 234.28 55.1886 234.27 55.0217L233.272 55.0828ZM233.413 55.3614C233.33 55.2919 233.279 55.1911 233.272 55.0828L234.27 55.0217C234.26 54.8549 234.181 54.6997 234.053 54.5928L233.413 55.3614ZM231.9 53.6187C232.384 54.181 232.869 54.7428 233.355 55.3041L234.111 54.65C233.626 54.0891 233.142 53.5278 232.657 52.966L231.9 53.6187ZM231.887 52.042C231.472 52.5186 231.509 53.1642 231.899 53.6181L232.658 52.9665C232.605 52.905 232.592 52.8523 232.591 52.8184C232.59 52.7868 232.6 52.7461 232.641 52.6987L231.887 52.042ZM232.317 51.6417C232.172 51.7609 232.034 51.8884 231.904 52.0237L232.624 52.717C232.727 52.6098 232.837 52.5087 232.952 52.4142L232.317 51.6417ZM232.727 51.2872C232.588 51.4064 232.445 51.5283 232.303 51.6531L232.965 52.4028C233.099 52.2844 233.236 52.1678 233.376 52.0477L232.727 51.2872ZM232.847 51.1847C232.807 51.2189 232.767 51.2529 232.727 51.2872L233.376 52.0477C233.417 52.0135 233.457 51.979 233.497 51.9444L232.847 51.1847ZM232.968 51.0814C232.928 51.1155 232.888 51.1497 232.848 51.184L233.496 51.9452C233.536 51.9112 233.576 51.8772 233.616 51.8431L232.968 51.0814ZM233.671 50.4751C233.441 50.6792 233.207 50.8787 232.968 51.0814L233.616 51.8431C233.853 51.6415 234.096 51.4351 234.335 51.2229L233.671 50.4751ZM233.853 50.3099C233.788 50.3713 233.735 50.4211 233.681 50.4666L234.325 51.2315C234.404 51.165 234.477 51.0956 234.539 51.0375L233.853 50.3099ZM234.107 50.0827C234.011 50.1604 233.924 50.2428 233.853 50.3099L234.539 51.0375C234.615 50.9662 234.675 50.9098 234.737 50.8596L234.107 50.0827ZM235.791 50.2398C235.357 49.7407 234.639 49.6514 234.107 50.0829L234.737 50.8595C234.83 50.7836 234.939 50.7841 235.037 50.8962L235.791 50.2398ZM235.898 50.3636L235.792 50.2408L235.036 50.8952L235.142 51.018L235.898 50.3636ZM236.22 50.734C236.113 50.6102 236.005 50.4865 235.897 50.3627L235.143 51.0189C235.251 51.1429 235.358 51.2667 235.466 51.3905L236.22 50.734ZM237.237 51.9059C236.899 51.5135 236.559 51.1234 236.22 50.734L235.466 51.3905C235.805 51.7802 236.143 52.1686 236.48 52.559L237.237 51.9059ZM236.808 51.8258C236.81 51.8252 236.919 51.7681 237.07 51.8105C237.139 51.8299 237.186 51.862 237.211 51.8821C237.233 51.9001 237.244 51.9134 237.238 51.9068L236.479 52.5581C236.511 52.5952 236.618 52.7221 236.8 52.7733C237.003 52.8305 237.172 52.762 237.256 52.7203L236.808 51.8258ZM238.616 51.1706C237.989 51.3166 237.382 51.5368 236.807 51.8266L237.257 52.7195C237.761 52.4655 238.293 52.2725 238.843 52.1446L238.616 51.1706ZM238.931 51.1023C238.83 51.1227 238.722 51.1447 238.611 51.1719L238.848 52.1434C238.938 52.1214 239.028 52.1028 239.128 52.0826L238.931 51.1023ZM238.727 51.2291C238.798 51.1465 238.901 51.0972 239.01 51.0928L239.049 52.0921C239.216 52.0854 239.373 52.0099 239.483 51.8835L238.727 51.2291ZM238.632 51.5289C238.621 51.4203 238.655 51.3117 238.727 51.2291L239.483 51.8835C239.592 51.757 239.644 51.5909 239.627 51.4245L238.632 51.5289ZM238.797 49.2181C238.739 49.9597 238.684 50.7007 238.631 51.441L239.628 51.5124C239.681 50.7741 239.736 50.0352 239.794 49.2956L238.797 49.2181ZM239.551 48.1812C239.337 48.2658 239.15 48.4008 239.014 48.5916C238.879 48.7814 238.812 48.9994 238.797 49.2214L239.794 49.2923C239.799 49.2219 239.817 49.1884 239.828 49.1728C239.838 49.1583 239.861 49.1342 239.919 49.111L239.551 48.1812ZM240.064 48.0998C239.89 48.0895 239.716 48.1169 239.553 48.1803L239.917 49.1119C239.945 49.101 239.975 49.0962 240.005 49.098L240.064 48.0998ZM241.265 48.1804C240.865 48.152 240.466 48.1259 240.067 48.1L240.002 49.0978C240.401 49.1238 240.798 49.1497 241.195 49.1779L241.265 48.1804ZM242.362 48.2549C241.997 48.2296 241.63 48.2041 241.262 48.1802L241.198 49.1781C241.563 49.2018 241.927 49.2271 242.293 49.2525L242.362 48.2549ZM242.813 48.2862C242.663 48.2758 242.513 48.2654 242.362 48.2549L242.293 49.2525C242.443 49.263 242.594 49.2735 242.745 49.2838L242.813 48.2862ZM243.939 49.5762C243.983 48.8886 243.502 48.3359 242.815 48.2863L242.743 49.2837C242.827 49.2898 242.873 49.3213 242.897 49.3489C242.921 49.3765 242.947 49.427 242.941 49.5137L243.939 49.5762ZM243.931 49.7069L243.939 49.5784L242.942 49.5115L242.933 49.6401L243.931 49.7069ZM243.786 51.7615C243.839 51.0752 243.885 50.3896 243.931 49.7069L242.933 49.6401C242.887 50.3236 242.842 51.0043 242.789 51.685L243.786 51.7615ZM243.584 51.4433C243.572 51.439 243.584 51.4423 243.606 51.4554C243.632 51.4704 243.676 51.5017 243.715 51.5568C243.801 51.6759 243.784 51.7876 243.786 51.7722L242.79 51.6743C242.78 51.7742 242.776 51.9631 242.903 52.14C243.02 52.3028 243.186 52.3634 243.253 52.3868L243.584 51.4433ZM245.533 52.4079C244.928 51.997 244.27 51.6715 243.576 51.4406L243.26 52.3895C243.867 52.5913 244.442 52.8758 244.971 53.235L245.533 52.4079ZM245.117 52.4334C245.103 52.4455 245.174 52.3735 245.306 52.3606C245.449 52.3466 245.538 52.4116 245.539 52.4118L244.965 53.231C245.046 53.2875 245.199 53.3759 245.404 53.3558C245.597 53.3368 245.726 53.2295 245.782 53.1802L245.117 52.4334ZM246.176 51.5173C245.821 51.8195 245.47 52.1245 245.12 52.4301L245.778 53.1834C246.128 52.8779 246.474 52.5765 246.824 52.2788L246.176 51.5173ZM246.804 50.9786C246.591 51.1586 246.382 51.3389 246.172 51.5201L246.827 52.276C247.034 52.0964 247.241 51.9186 247.45 51.7415L246.804 50.9786ZM248.503 51.1147C248.07 50.6096 247.311 50.5488 246.804 50.9786L247.45 51.7416C247.538 51.6674 247.669 51.6779 247.743 51.7651L248.503 51.1147ZM248.549 51.1682C248.532 51.1487 248.517 51.1318 248.503 51.1149L247.743 51.7649C247.762 51.7872 247.781 51.8086 247.797 51.8273L248.549 51.1682ZM248.604 51.2306C248.585 51.2083 248.566 51.1869 248.549 51.1682L247.797 51.8273C247.814 51.8468 247.829 51.8637 247.844 51.8806L248.604 51.2306ZM250.291 53.1666C249.727 52.5207 249.164 51.8743 248.601 51.2274L247.846 51.8838C248.41 52.5311 248.973 53.1779 249.537 53.8242L250.291 53.1666ZM250.588 54.0541C250.613 53.7291 250.504 53.4079 250.288 53.1639L249.54 53.8269C249.577 53.8685 249.595 53.9232 249.591 53.9785L250.588 54.0541ZM250.158 54.8889C250.408 54.6803 250.563 54.3791 250.588 54.0541L249.591 53.9785C249.587 54.0338 249.56 54.0851 249.518 54.1206L250.158 54.8889ZM249.238 55.6865C249.547 55.4181 249.855 55.1502 250.164 54.8832L249.511 54.1263C249.2 54.3945 248.891 54.6632 248.582 54.9315L249.238 55.6865ZM248.476 56.3471C248.731 56.1269 248.984 55.9065 249.238 55.6865L248.582 54.9315C248.329 55.1516 248.075 55.3714 247.822 55.5908L248.476 56.3471ZM248.572 55.887C248.572 55.8872 248.573 55.8882 248.574 55.89C248.574 55.8918 248.576 55.8947 248.577 55.8986C248.58 55.906 248.585 55.9191 248.59 55.9367C248.6 55.9731 248.611 56.0337 248.599 56.1081C248.588 56.1845 248.558 56.2444 248.53 56.2854C248.505 56.3218 248.482 56.3419 248.479 56.3448L247.819 55.5931C247.766 55.6401 247.641 55.7594 247.61 55.9595C247.583 56.1453 247.656 56.2907 247.678 56.3343L248.572 55.887ZM249.301 58.0206C249.157 57.2787 248.912 56.5602 248.571 55.8855L247.678 56.3358C247.977 56.9283 248.193 57.5592 248.319 58.2106L249.301 58.0206ZM248.971 57.7234C248.971 57.7234 248.976 57.7237 248.984 57.7249C248.991 57.7261 249.005 57.7286 249.022 57.7334C249.056 57.7433 249.109 57.7642 249.163 57.8077C249.279 57.901 249.3 58.015 249.301 58.0232L248.318 58.2081C248.335 58.2966 248.38 58.4609 248.535 58.5858C248.679 58.702 248.837 58.7161 248.895 58.7205L248.971 57.7234ZM250.126 57.8082C249.741 57.7795 249.355 57.7508 248.969 57.7232L248.897 58.7206C249.282 58.7482 249.667 58.7768 250.052 58.8054L250.126 57.8082ZM251.147 57.8833C250.807 57.8588 250.467 57.8335 250.126 57.8082L250.052 58.8054C250.393 58.8307 250.734 58.8561 251.075 58.8807L251.147 57.8833ZM244.309 59.9626C244.229 61.2167 243.514 62.3431 242.413 62.9491L242.895 63.8251C244.296 63.0543 245.205 61.6215 245.307 60.0262L244.309 59.9626ZM245.308 59.9958V59.9944H244.308V59.9958H245.308ZM240.907 56.0968C242.908 56.2399 244.437 57.9919 244.309 59.9636L245.307 60.0281C245.47 57.5024 243.521 55.2812 240.979 55.0994L240.907 56.0968ZM240.599 56.0902C240.701 56.0868 240.803 56.0889 240.905 56.0967L240.981 55.0995C240.842 55.089 240.704 55.0861 240.565 55.0908L240.599 56.0902ZM237.011 59.4877C237.14 57.591 238.72 56.1233 240.591 56.0905L240.573 55.0906C238.191 55.1324 236.178 56.9973 236.013 59.4196L237.011 59.4877ZM237.902 62.1477C237.263 61.4149 236.943 60.4582 237.011 59.4885L236.013 59.4187C235.927 60.6533 236.335 61.8716 237.148 62.8047L237.902 62.1477ZM240.414 63.3946C239.444 63.3292 238.541 62.8805 237.902 62.1477L237.148 62.8047C237.961 63.7378 239.112 64.309 240.347 64.3923L240.414 63.3946ZM242.411 62.9501C241.803 63.2883 241.11 63.4427 240.415 63.3946L240.346 64.3922C241.233 64.4537 242.12 64.2564 242.897 63.8241L242.411 62.9501Z" fill="#333333"/>
<path d="M50.6348 216.132H67.7554V227.429C67.7554 228.943 67.1536 230.396 66.0824 231.468C65.0111 232.539 63.5582 233.141 62.0432 233.141H56.347C54.832 233.141 53.3791 232.539 52.3078 231.468C51.2366 230.396 50.6348 228.943 50.6348 227.429V216.132Z" fill="#2755A3"/>
<path d="M83.1638 202.421C82.4284 202.582 81.734 202.893 81.1241 203.334C80.5141 203.776 80.0016 204.338 79.6186 204.986C78.3758 205.408 76.4319 206.101 73.9542 207.073C74.3713 206.688 74.6884 206.207 74.8783 205.671C75.8662 203.042 74.6313 199.035 74.6313 199.035C73.3718 199.714 72.2397 200.606 71.2853 201.672C70.1862 200.678 68.8109 200.042 67.3417 199.847C66.6049 199.85 65.8765 200.004 65.2011 200.298C64.5257 200.593 63.9176 201.022 63.4141 201.56C63.5017 201.393 63.5814 201.226 63.669 201.05C63.7767 200.879 63.8674 200.698 63.9399 200.509C64.5513 199.355 65.2379 198.242 65.9953 197.179C66.4494 196.549 66.8956 195.96 67.3417 195.402C67.6118 196.076 68.0892 196.647 68.705 197.032C69.3207 197.418 70.043 197.597 70.7675 197.545C73.5638 197.418 76.7585 194.709 76.7585 194.709C76.7585 194.709 73.7391 192.199 71.1817 192.446C70.5605 192.516 69.9593 192.708 69.4131 193.012C70.6638 191.667 72.0256 190.431 73.4841 189.315C74.0328 189.747 74.7017 189.999 75.3992 190.036C76.0966 190.073 76.7885 189.894 77.3799 189.522C79.77 188.104 81.3633 184.217 81.3633 184.217C81.3633 184.217 77.5233 183.42 75.3723 184.83C74.8022 185.237 74.3186 185.752 73.9493 186.347C73.5801 186.942 73.3326 187.604 73.2212 188.296C71.7378 189.393 70.3518 190.617 69.0785 191.952C69.1033 191.687 69.1033 191.421 69.0785 191.156C68.9192 188.359 66.1626 185.196 66.1626 185.196C66.1626 185.196 63.7009 188.256 63.9797 190.773C64.1169 191.574 64.4257 192.335 64.8851 193.005C65.3444 193.674 65.9433 194.237 66.6406 194.653C66.1626 195.251 65.6687 195.888 65.1827 196.581C64.6967 197.274 64.386 197.736 64.0275 198.326C64.0238 198.31 64.0238 198.294 64.0275 198.278C63.3185 195.569 60.0441 193.004 60.0441 193.004C60.0441 193.004 58.4508 196.055 58.881 198.461C57.9399 198.539 57.032 198.845 56.236 199.353C55.6564 199.808 55.1759 200.375 54.8238 201.022C54.4717 201.669 54.2555 202.381 54.1885 203.114L54.069 202.556C54.0505 202.357 54.0131 202.159 53.9575 201.967C53.7339 200.679 53.5955 199.377 53.5432 198.071C53.5432 197.274 53.5432 196.557 53.5432 195.84C54.1648 196.201 54.8842 196.357 55.5993 196.285C56.3145 196.214 56.9889 195.919 57.5266 195.442C59.6617 193.625 60.5301 189.53 60.5301 189.53C60.5301 189.53 56.6025 189.395 54.7303 191.164C54.2777 191.606 53.9223 192.138 53.6866 192.725C53.8567 190.899 54.1764 189.09 54.6426 187.316C55.338 187.318 56.0172 187.106 56.5876 186.708C57.1579 186.31 57.5916 185.746 57.8294 185.093C58.881 182.496 57.7338 178.457 57.7338 178.457C57.7338 178.457 54.2045 180.177 53.368 182.607C52.9651 183.961 53.114 185.418 53.7822 186.662C53.2814 188.44 52.9349 190.258 52.7465 192.096C52.6167 191.864 52.4617 191.648 52.2845 191.45C50.4441 189.331 46.3333 188.511 46.3333 188.511C46.3333 188.511 46.2536 192.438 48.0461 194.295C48.643 194.845 49.3529 195.259 50.1263 195.506C50.8997 195.754 51.7178 195.83 52.5235 195.729C52.5235 196.525 52.5235 197.322 52.5235 198.119C52.5235 198.828 52.6031 199.521 52.6828 200.214C52.6828 200.214 52.6828 200.214 52.643 200.174C50.4202 198.461 46.2695 198.461 46.2695 198.461C46.2695 198.461 46.9547 202.333 49.0738 203.799C49.7247 204.203 50.453 204.466 51.2117 204.572C51.9705 204.678 52.743 204.623 53.4795 204.412C53.8539 205.847 54.3387 207.251 54.9294 208.611C52.3004 207.743 48.4684 208.93 48.4684 208.93C48.4684 208.93 50.2689 212.419 52.7226 213.192C53.4362 213.383 54.1816 213.426 54.9123 213.316C55.6429 213.206 56.3431 212.947 56.9689 212.554C57.7054 213.771 58.5031 214.949 59.359 216.084H60.5699C60.5396 214.022 60.6648 211.961 60.9444 209.917C61.2625 209.308 61.3876 208.616 61.3029 207.934C61.706 205.954 62.3203 204.023 63.1353 202.174C63.3543 203.035 63.8815 203.786 64.6171 204.285C63.7009 205.233 62.5377 206.715 62.3625 208.268C62.3149 209.024 62.4249 209.78 62.6854 210.491C62.946 211.201 63.3515 211.85 63.8762 212.395C62.7133 213.454 61.7547 214.718 61.048 216.124H62.1394C63.0299 214.558 64.244 213.2 65.7006 212.14C65.8416 212.05 65.9772 211.951 66.1069 211.845C67.1841 211.098 68.3346 210.463 69.5406 209.949L71.5641 209.097C71.5838 209.778 71.8089 210.438 72.2097 210.99C72.6106 211.541 73.1686 211.959 73.8108 212.188C76.4239 213.208 80.4471 212.029 80.4471 212.029C80.4471 212.029 78.6944 208.507 76.2566 207.695C75.9967 207.615 75.73 207.559 75.4599 207.527C77.2524 206.834 78.6944 206.324 79.7142 205.974C80.0557 206.539 80.5557 206.991 81.1519 207.274C81.7482 207.557 82.4145 207.659 83.0682 207.567C85.8566 207.249 88.8601 204.333 88.8601 204.333C88.8601 204.333 85.6893 202.006 83.1638 202.421ZM59.5821 214.817C58.7603 213.685 57.9997 212.509 57.3035 211.296C57.185 210.616 56.8594 209.99 56.3714 209.503C55.4828 207.688 54.7885 205.784 54.3001 203.823C54.5696 204.029 54.864 204.2 55.1764 204.333C55.0416 205.83 55.3638 207.333 56.1006 208.643C56.5478 209.23 57.111 209.719 57.7551 210.079C58.3992 210.44 59.1106 210.664 59.845 210.738C59.6936 212.045 59.606 213.399 59.5821 214.817ZM60.6416 206.364C59.9814 205.462 59.1471 204.7 58.1879 204.126C58.2516 204.086 58.3153 204.062 58.3791 204.014C59.3554 203.326 60.1709 202.435 60.7691 201.401C61.1723 201.716 61.6107 201.984 62.0757 202.198C61.4939 203.549 61.0145 204.941 60.6416 206.364ZM69.1343 209.057C68.4252 209.368 67.7799 209.686 67.1744 210.021C67.1744 209.925 67.2222 209.83 67.2382 209.726C67.3843 208.06 67.1104 206.384 66.4415 204.851C67.7395 204.851 69.0232 204.58 70.2098 204.054C70.0915 205.441 70.4636 206.825 71.2614 207.966C71.4284 207.979 71.5963 207.979 71.7633 207.966C70.9029 208.3 70.0425 208.659 69.1343 209.057Z" fill="#2755A3"/>
<path fill-rule="evenodd" clip-rule="evenodd" d="M225.926 333.359C226.239 335.882 227.633 338.709 230.109 341.841C232.585 344.974 234.996 348.006 237.342 350.938L239.298 349.667L235.328 343.554C240.607 345.92 243.874 346.696 245.127 345.882C247.13 344.581 249.133 343.28 251.136 341.979C251.798 341.549 251.986 340.664 251.556 340.001C251.05 339.222 250.308 338.626 249.438 338.301L239.252 334.493L225.926 333.359Z" fill="#2C4E8B"/>
<path fill-rule="evenodd" clip-rule="evenodd" d="M232.741 324.062C240.682 333.63 245.224 337.511 247.803 337.767C250.383 338.023 246.056 342.791 240.755 340.873C235.454 338.954 228.185 337.946 224.53 332.319C220.876 326.691 208.417 315.645 201.282 308.33C194.147 301.016 224.799 314.494 232.741 324.062Z" fill="#FE9C9A"/>
<path fill-rule="evenodd" clip-rule="evenodd" d="M151.348 245.194L237.238 317.931L222.965 330.069L109.906 240.018H143.319V240.018C146.209 241.387 148.908 243.127 151.348 245.194Z" fill="#19243D"/>
<path fill-rule="evenodd" clip-rule="evenodd" d="M181.54 334.016C180.428 336.303 180.057 339.433 180.428 343.409C180.799 347.384 181.169 351.24 181.54 354.976H183.873V347.688C187.012 352.547 189.328 354.976 190.823 354.976C193.211 354.976 195.599 354.976 197.987 354.976C198.777 354.976 199.417 354.336 199.417 353.546C199.417 352.618 199.119 351.713 198.567 350.967L192.098 342.226L181.54 334.016Z" fill="#2C4E8B"/>
<path fill-rule="evenodd" clip-rule="evenodd" d="M192.316 329.931C193.765 342.28 195.461 348.009 197.485 349.629C199.509 351.248 193.283 352.89 189.882 348.394C186.481 343.898 180.934 339.094 180.934 332.384C180.934 325.673 176.501 309.623 174.501 299.603C172.501 289.583 190.868 317.581 192.316 329.931Z" fill="#FE9C9A"/>
<mask id="mask0" mask-type="alpha" maskUnits="userSpaceOnUse" x="108" y="240" width="91" height="93">
<path d="M125.269 273.682L165.151 288.263L181.069 332.584L198.707 330.605L187.372 279.587C185.283 270.183 178.135 262.723 168.83 260.234L140.7 252.709L137.658 240.018H109.253L108.492 246.329C107.057 258.236 114.006 269.564 125.269 273.682Z" fill="white"/>
</mask>
<g mask="url(#mask0)">
<path d="M125.269 273.682L165.151 288.263L181.069 332.584L198.707 330.605L187.372 279.587C185.283 270.183 178.135 262.723 168.83 260.234L140.7 252.709L137.658 240.018H109.253L108.492 246.329C107.057 258.236 114.006 269.564 125.269 273.682Z" fill="#00A0E3"/>
<path d="M140.617 249.032C127.584 255.088 116.267 254.592 106.666 247.543" stroke="white" stroke-width="0.9"/>
<path fill-rule="evenodd" clip-rule="evenodd" d="M136.545 280.641C141.636 273.657 145.224 269.264 147.309 267.462C149.413 265.643 155.72 262.277 156.468 265.026C157.626 269.286 148.393 267.006 150.385 273.823C151.713 278.369 149.198 282.528 142.841 286.3L136.545 280.641Z" stroke="white" stroke-width="0.9"/>
<path d="M105.965 255.135C115.313 266.184 124.888 270.293 134.691 267.462C149.395 263.215 148.289 238.904 155.309 247.717C162.328 256.53 133.257 272.299 131.53 278.671C129.802 285.043 144.592 293.907 159.942 273.823C175.292 253.739 190.899 255.386 182.805 262.46C174.711 269.535 160.082 277.098 168.583 281.071C177.085 285.043 184.845 261.1 188.859 267.462C192.873 273.823 182.638 286.3 173.012 286.3C163.386 286.3 162.875 280.102 157.625 283.201C152.376 286.3 154.73 294.437 159.942 297.73C165.154 301.022 174.185 300.866 194.591 285.043C214.998 269.22 192.57 299.954 187.278 303.593C183.749 306.019 177.518 308.686 168.583 311.594L171.955 320.105C184.791 311.292 193.031 304.932 196.676 301.022C202.143 295.159 205.823 311.344 200.207 315.725C194.591 320.105 174.711 320.57 174.711 326.577C174.711 330.581 184.497 329.407 204.07 323.055" stroke="white" stroke-width="0.9"/>
</g>
<path fill-rule="evenodd" clip-rule="evenodd" d="M147.414 219.581L151.547 227.858C153.267 231.303 156.787 233.48 160.638 233.48C164.596 233.48 168.325 231.626 170.715 228.471L186.428 207.725L180.587 204.62L161.397 219.581L158.225 214.031L147.414 219.581Z" fill="#FE9C9A"/>
<path fill-rule="evenodd" clip-rule="evenodd" d="M118.914 186.11L112.179 187.704C104.157 189.603 99.0981 197.537 100.762 205.611L104.184 222.224L106.042 225.43C108.564 229.78 109.761 234.771 109.487 239.791L109.465 240.195H144.228L142.637 225.67L143.399 225.493C145.917 224.91 147.701 222.667 147.701 220.082L160.608 217.574L153.845 202.57C150.044 194.139 142.026 188.382 132.821 187.477L118.914 186.11Z" fill="white"/>
<path fill-rule="evenodd" clip-rule="evenodd" d="M135.715 230.476L151.243 209.682L125.452 220.613H106.665L104.184 222.223L107.83 228.391C110.703 233.251 115.746 236.424 121.37 236.91C126.943 237.391 132.369 234.958 135.715 230.476Z" fill="white"/>
<path fill-rule="evenodd" clip-rule="evenodd" d="M165.038 190.082H184.458L181.854 216.542H162.434L165.038 190.082Z" fill="#85B0FF"/>
<path fill-rule="evenodd" clip-rule="evenodd" d="M166.192 190.082H185.613L183.008 216.542H163.588L166.192 190.082Z" fill="#19243D"/>
<path d="M176.02 196.116C176.722 196.116 177.291 195.545 177.291 194.84C177.291 194.135 176.722 193.563 176.02 193.563C175.317 193.563 174.748 194.135 174.748 194.84C174.748 195.545 175.317 196.116 176.02 196.116Z" fill="white"/>
<path fill-rule="evenodd" clip-rule="evenodd" d="M182.544 209.869C182.544 209.869 185.623 209.018 186.388 207.725C186.79 207.047 186.7 205.272 186.117 202.402C185.801 200.841 184.615 199.601 183.07 199.215L179.444 198.307C179.089 198.218 178.73 198.434 178.641 198.788C178.641 198.789 178.641 198.789 178.64 198.789C178.548 199.161 178.737 199.545 179.088 199.698C181.947 200.946 183.245 201.537 182.982 201.471C182.727 201.407 181.158 201.258 178.274 201.022L178.274 201.022C177.755 200.979 177.281 201.319 177.155 201.825C177.035 202.309 177.33 202.8 177.814 202.921L182.341 204.054L178.836 204.717C178.436 204.792 178.173 205.177 178.249 205.577C178.253 205.602 178.259 205.626 178.266 205.65C178.407 206.124 178.816 206.47 179.308 206.529L183.741 207.062L180.159 208.442C179.794 208.583 179.597 208.98 179.706 209.356C179.819 209.745 180.186 210.004 180.59 209.981C181.242 209.943 181.893 209.906 182.544 209.869Z" fill="#FE9C9A"/>
<path fill-rule="evenodd" clip-rule="evenodd" d="M106.664 220.613L118.571 212.699L122.03 216.879L151.311 202.08C152.456 201.502 153.658 201.045 154.899 200.717L163.228 198.516C163.562 198.428 163.904 198.627 163.993 198.961C164.006 199.013 164.013 199.067 164.013 199.121C164.013 199.619 163.732 200.074 163.287 200.297L158.903 202.487V205.186C158.903 207.137 157.753 208.904 155.968 209.693L155.062 210.093C153.806 210.648 152.35 210.492 151.242 209.682L132.796 227.692C130.351 230.079 127.19 231.598 123.799 232.016C120.502 232.423 117.203 231.277 114.868 228.914L106.664 220.613Z" fill="#FE9C9A"/>
<path fill-rule="evenodd" clip-rule="evenodd" d="M137.579 167.542L137.5 188.08L128.084 187.303L128.541 169.437L137.579 167.542Z" fill="#19243D"/>
<path fill-rule="evenodd" clip-rule="evenodd" d="M136.552 166.413L136.242 178.615C136.164 181.686 133.652 184.134 130.581 184.134V188.4C132.883 192.421 132.635 194.998 129.838 196.131C127.041 197.264 123.633 195.132 119.615 189.737L123.285 168.213L129.838 163.932L136.552 166.413Z" fill="#FE9C9A"/>
<path d="M134.702 178.058C134.038 178.457 132.472 178.935 131.516 177.66" stroke="black" stroke-width="0.5"/>
<path d="M125.227 170.121C124.633 170.588 124.633 171.104 125.227 171.669" stroke="#19243D" stroke-linecap="round"/>
<path d="M135.173 171.361C135.163 171.256 135.246 171.164 135.358 171.154C135.471 171.144 135.571 171.221 135.582 171.325L136.037 175.795H134.19C134.076 175.795 133.984 175.71 133.984 175.605C133.984 175.5 134.076 175.415 134.19 175.415H135.586L135.173 171.361Z" fill="#19243D"/>
<path fill-rule="evenodd" clip-rule="evenodd" d="M132.243 168.9L133.535 168.945C133.789 168.954 133.988 169.167 133.979 169.421C133.979 169.421 133.979 169.421 133.979 169.421C133.97 169.675 133.757 169.873 133.503 169.865L132.211 169.82C131.957 169.811 131.758 169.598 131.767 169.344C131.767 169.344 131.767 169.344 131.767 169.344C131.776 169.09 131.989 168.891 132.243 168.9Z" fill="#19243D"/>
<path fill-rule="evenodd" clip-rule="evenodd" d="M135.747 169.084L137.039 169.129C137.293 169.138 137.492 169.351 137.483 169.605C137.483 169.605 137.483 169.605 137.483 169.605C137.474 169.859 137.261 170.058 137.007 170.049L135.715 170.004C135.461 169.995 135.262 169.782 135.271 169.528C135.271 169.528 135.271 169.528 135.271 169.528C135.28 169.274 135.493 169.075 135.747 169.084Z" fill="#19243D"/>
<path d="M136.551 171.727C136.868 171.727 137.125 171.47 137.125 171.153C137.125 170.836 136.868 170.579 136.551 170.579C136.234 170.579 135.977 170.836 135.977 171.153C135.977 171.47 136.234 171.727 136.551 171.727Z" fill="#19243D"/>
<path d="M132.959 171.727C133.276 171.727 133.533 171.47 133.533 171.153C133.533 170.836 133.276 170.579 132.959 170.579C132.642 170.579 132.385 170.836 132.385 171.153C132.385 171.47 132.642 171.727 132.959 171.727Z" fill="#19243D"/>
<path fill-rule="evenodd" clip-rule="evenodd" d="M124.763 188.257C125.277 182.765 125.618 179.306 125.787 177.879C125.955 176.453 125.759 174.744 125.199 172.753L124.245 171.691C123.759 171.149 123.696 170.349 124.092 169.738C124.487 169.129 125.244 168.864 125.933 169.093C131.696 169.45 134.053 168.145 135.384 165.972C135.64 166.653 136.089 167.204 136.731 167.624L136.625 169.726C138.628 168.258 139.63 166.619 139.63 164.809C139.63 162.999 138.663 161.897 136.731 161.502C136.767 159.81 135.867 158.795 134.031 158.455C131.562 157.998 125.302 155.942 119.339 161.913C116.789 164.465 113.376 173.331 109.1 188.509H113.17C113.204 193.099 114.98 195.394 118.497 195.394C122.014 195.394 124.103 193.015 124.763 188.257Z" fill="#19243D"/>
<path fill-rule="evenodd" clip-rule="evenodd" d="M130.906 184.138L125.773 184.047L130.906 186.11V184.138Z" fill="#19243D"/>
<path d="M219.229 233.427H46.2695V238.797H219.229V233.427Z" fill="#EF6744"/>
<defs>
<linearGradient id="paint0_linear" x1="330.407" y1="138.853" x2="48.5364" y2="256.809" gradientUnits="userSpaceOnUse">
<stop stop-color="#EF6744"/>
<stop offset="0.0596" stop-color="#F07456"/>
<stop offset="0.1763" stop-color="#F18874"/>
<stop offset="0.2976" stop-color="#F19990"/>
<stop offset="0.4221" stop-color="#F1A8A8"/>
<stop offset="0.5508" stop-color="#F1B4BC"/>
<stop offset="0.6852" stop-color="#F1BDCB"/>
<stop offset="0.8293" stop-color="#F1C2D5"/>
<stop offset="1" stop-color="#F1C4D9"/>
</linearGradient>
</defs>
</svg>
