<svg width="299" height="204" viewBox="0 0 299 204" fill="none" xmlns="http://www.w3.org/2000/svg">
<g clip-path="url(#clip0)">
<path d="M130.912 25.868C127.955 23.8692 126.134 25.9401 126.134 25.9401C126.134 25.9401 122.131 22.0684 118.814 23.482C115.496 24.9046 115.352 28.6142 115.352 28.6142C115.352 28.6142 111.836 28.6322 111.133 30.9822C110.43 33.3232 113.603 35.6192 113.603 35.6192C113.603 35.6192 111.593 36.2134 112.738 38.6265C113.892 41.0395 118.047 40.7514 118.047 40.7514C118.047 40.7514 117.966 40.6523 117.84 40.4903C117.065 39.4458 114.478 35.5832 118.363 35.0069C120.725 34.6558 124.313 35.6012 124.827 35.7993C125.314 35.9883 129.524 37.1768 130.903 36.7176C130.975 36.6906 131.047 36.6636 131.11 36.6276C132.967 35.4661 135.347 28.8753 130.912 25.868Z" fill="black"/>
<path d="M131.912 38.0592C131.885 36.6636 131.299 36.6636 130.911 36.7086C129.532 37.1768 125.322 35.9793 124.835 35.7902C124.321 35.5921 120.724 34.6467 118.371 34.9979C114.486 35.5741 117.073 39.4368 117.848 40.4812C117.93 40.5802 118.002 40.6703 118.056 40.7423C118.741 41.7417 117.83 43.3714 117.83 43.3714L120.183 44.4519C120.183 44.4519 122.374 47.5582 123.997 47.1711C124.069 47.153 124.15 47.126 124.231 47.099L124.15 51.3849C124.15 51.3849 125.34 54.5452 126.791 54.9414C128.252 55.3375 130.704 50.9887 130.704 50.9887L130.596 40.5802C131.001 40.1841 131.939 39.6348 131.912 38.0592Z" fill="#EF6744"/>
<path d="M150.086 195.644H151.988L140.927 156.523H134.725L150.086 195.644Z" fill="black"/>
<path d="M51.5352 195.644H53.4283L68.7988 156.523H62.5965L51.5352 195.644Z" fill="black"/>
<path d="M115.92 56.8413C115.92 45.8116 103.822 46.802 103.822 46.802C103.822 46.802 76.3891 46.802 66.2653 46.802C56.1415 46.802 52.4453 58.7591 52.4453 58.7591V147.672C52.4453 152.561 56.4119 156.523 61.307 156.523H62.5962H68.7985H134.725H140.927H147.003C151.898 156.523 155.865 152.561 155.865 147.672V145.484C155.865 145.484 115.92 79.522 115.92 56.8413Z" fill="#2755A3"/>
<path d="M129.865 151.12C129.865 151.12 162.644 148.05 185.695 141.91C197.523 138.758 212.208 133.014 212.208 133.014L246.988 150.616L254.092 128.305L218.473 108.46C213.263 105.192 207.187 103.553 201.029 103.76L158.812 110.702L142.423 114.799L129.865 151.12Z" fill="url(#paint0_linear)"/>
<path d="M122.707 42.9393C122.707 42.9393 122.878 43.6957 121.77 44.1999" stroke="black" stroke-width="0.5" stroke-miterlimit="10" stroke-linecap="round" stroke-linejoin="round"/>
<path d="M118.264 37.2668C118.264 37.2668 118.552 36.5645 120.22 36.8977C121.239 37.1047 122.104 37.582 122.104 37.582" stroke="black" stroke-width="0.5" stroke-miterlimit="10" stroke-linecap="round" stroke-linejoin="round"/>
<path d="M120.95 39.1667C120.95 39.1667 120.644 39.743 119.742 39.4729" stroke="black" stroke-width="0.5" stroke-miterlimit="10" stroke-linecap="round" stroke-linejoin="round"/>
<path d="M174.832 152.912L176.04 165.04L223.279 176.061L227.146 165.77C226.001 164.788 218.555 157.693 206.763 150.463C200.326 146.511 195.413 145.034 195.413 145.034L174.832 152.912Z" fill="black"/>
<path d="M187.264 153.732C187.264 153.732 189.716 154.119 193.385 151.886C196.738 149.851 197.514 148.185 197.514 148.185" stroke="white" stroke-miterlimit="10" stroke-linecap="round" stroke-linejoin="round"/>
<path d="M190.996 156.559C190.996 156.559 193.448 156.946 197.117 154.713C200.471 152.678 201.246 151.012 201.246 151.012" stroke="white" stroke-miterlimit="10" stroke-linecap="round" stroke-linejoin="round"/>
<path d="M194.736 159.332C194.736 159.332 197.188 159.719 200.857 157.486C204.211 155.451 204.986 153.786 204.986 153.786" stroke="white" stroke-miterlimit="10" stroke-linecap="round" stroke-linejoin="round"/>
<path d="M198.549 161.916C198.549 161.916 201.001 162.303 204.67 160.07C208.024 158.036 208.799 156.37 208.799 156.37" stroke="white" stroke-miterlimit="10" stroke-linecap="round" stroke-linejoin="round"/>
<path d="M175.787 162.654L218.049 172.289C219.302 172.577 220.601 171.991 221.214 170.866L225.036 163.87L227.353 165.923C228.083 166.571 228.317 167.625 227.921 168.516L224.765 175.656C224.342 176.619 223.305 177.16 222.268 176.953L177.951 168.246C176.977 168.057 176.247 167.246 176.148 166.265L175.787 162.654Z" fill="#EF6744"/>
<path d="M94.9239 120.615C94.9239 120.615 94.6084 161.943 134.923 149.734C152.394 144.44 162.293 117.05 162.293 117.05L174.806 153.047L195.423 145.016L179.52 94.3242C177.393 87.5353 169.983 83.9248 163.32 86.4458C153.972 89.9843 141.315 95.3326 132.643 101.185C117.344 111.522 108.726 118.166 108.726 118.166L94.9239 120.615Z" fill="url(#paint1_linear)"/>
<path d="M175.591 143.503C175.384 143.503 175.176 143.386 175.086 143.179C174.96 142.9 175.086 142.576 175.366 142.459L189.465 136.21C189.744 136.093 190.069 136.21 190.186 136.489C190.312 136.768 190.186 137.093 189.907 137.21L175.807 143.458C175.744 143.494 175.663 143.503 175.591 143.503Z" fill="white"/>
<path d="M161.923 113.178C161.914 113.178 161.914 113.178 161.905 113.178C161.599 113.169 161.364 112.917 161.373 112.611L161.581 105.912C161.59 105.606 161.851 105.372 162.149 105.381C162.455 105.39 162.689 105.642 162.68 105.948L162.473 112.647C162.464 112.944 162.221 113.178 161.923 113.178Z" fill="white"/>
<path d="M163.348 114.799C163.275 114.799 163.203 114.781 163.131 114.754C162.852 114.628 162.726 114.313 162.852 114.034L165.087 108.956C165.205 108.676 165.529 108.55 165.809 108.676C166.088 108.802 166.214 109.118 166.088 109.397L163.852 114.475C163.762 114.682 163.555 114.799 163.348 114.799Z" fill="white"/>
<path d="M211.857 131.321C211.595 131.321 211.361 131.132 211.316 130.862L210.387 125.306C210.333 125.009 210.541 124.721 210.838 124.676C211.136 124.622 211.424 124.829 211.469 125.126L212.398 130.682C212.452 130.979 212.245 131.267 211.947 131.312C211.92 131.321 211.893 131.321 211.857 131.321Z" fill="white"/>
<path d="M213.661 131.96C213.616 131.96 213.58 131.96 213.535 131.942C213.237 131.87 213.057 131.582 213.12 131.285L214.076 127.179C214.148 126.882 214.436 126.702 214.734 126.765C215.031 126.837 215.211 127.125 215.148 127.422L214.193 131.528C214.139 131.789 213.913 131.96 213.661 131.96Z" fill="white"/>
<path d="M60.6219 60.8569C60.5227 60.8569 60.4236 60.8299 60.3334 60.7759C60.081 60.6138 59.9999 60.2717 60.1621 60.0196L63.4165 54.8694C63.5788 54.6083 63.9214 54.5362 64.1738 54.6983C64.4262 54.8604 64.5073 55.2025 64.3451 55.4546L61.0907 60.6048C60.9825 60.7669 60.8022 60.8569 60.6219 60.8569Z" fill="white"/>
<path d="M69.0428 71.4365C68.8264 71.4365 68.6101 71.3014 68.529 71.0853L66.3563 65.3949C66.2482 65.1158 66.3924 64.7916 66.6719 64.6926C66.9513 64.5845 67.2759 64.7286 67.384 65.0077L69.5567 70.6981C69.6648 70.9773 69.5206 71.3014 69.2411 71.4004C69.169 71.4275 69.1059 71.4365 69.0428 71.4365Z" fill="white"/>
<path d="M56.8179 82.286C56.7188 82.286 56.6196 82.259 56.5295 82.205C56.268 82.0429 56.1959 81.7098 56.3492 81.4487L59.883 75.7582C60.0453 75.4971 60.3789 75.4161 60.6403 75.5782C60.9017 75.7402 60.9738 76.0734 60.8206 76.3345L57.2867 82.0249C57.1876 82.196 57.0073 82.286 56.8179 82.286Z" fill="white"/>
<path d="M94.0226 150.157C93.9685 150.157 93.9054 150.148 93.8513 150.13L87.4867 148.023C87.1983 147.924 87.045 147.618 87.1351 147.33C87.2343 147.042 87.5408 146.889 87.8293 146.979L94.1939 149.086C94.4823 149.185 94.6356 149.491 94.5455 149.779C94.4643 150.013 94.257 150.157 94.0226 150.157Z" fill="white"/>
<path d="M69.844 87.3192C69.835 87.3192 69.835 87.3192 69.844 87.3192L63.1368 87.2742C62.8303 87.2742 62.5869 87.0221 62.5959 86.7249C62.5959 86.4188 62.8394 86.2207 63.1459 86.1847L69.853 86.2297C70.1595 86.2297 70.4029 86.4818 70.3939 86.7789C70.3849 87.0761 70.1415 87.3192 69.844 87.3192Z" fill="white"/>
<path d="M74.1084 105.264C73.9281 105.264 73.7568 105.174 73.6487 105.012L69.9796 99.4114C69.8173 99.1593 69.8804 98.8171 70.1418 98.655C70.3942 98.484 70.7368 98.556 70.8991 98.8171L74.5682 104.418C74.7305 104.67 74.6674 105.012 74.4059 105.174C74.3158 105.237 74.2076 105.264 74.1084 105.264Z" fill="white"/>
<path d="M85.3681 133.131C85.1067 133.131 84.8723 132.942 84.8273 132.681C84.7732 132.383 84.9715 132.095 85.269 132.041L91.868 130.844C92.1655 130.79 92.4539 130.988 92.508 131.285C92.5621 131.582 92.3638 131.87 92.0663 131.924L85.4673 133.122C85.4313 133.131 85.3952 133.131 85.3681 133.131Z" fill="white"/>
<path d="M59.2969 118.959C59.1888 118.959 59.0806 118.932 58.9904 118.86C58.738 118.689 58.6749 118.346 58.8462 118.094L62.6235 112.566C62.7948 112.314 63.1373 112.251 63.3897 112.422C63.6422 112.593 63.7053 112.935 63.534 113.187L59.7567 118.716C59.6485 118.878 59.4772 118.959 59.2969 118.959Z" fill="white"/>
<path d="M67.0861 136.048C67.05 136.048 67.014 136.048 66.9779 136.039L60.397 134.734C60.0995 134.671 59.9102 134.382 59.9643 134.085C60.0274 133.788 60.3069 133.59 60.6134 133.653L67.1943 134.959C67.4918 135.022 67.6811 135.31 67.627 135.607C67.5729 135.868 67.3385 136.048 67.0861 136.048Z" fill="white"/>
<path d="M76.3724 126.009C76.2642 126.009 76.1561 125.982 76.0659 125.91L70.5217 122.137C70.2693 121.966 70.2062 121.624 70.3774 121.372C70.5487 121.12 70.8913 121.057 71.1437 121.228L76.6879 125C76.9404 125.171 77.0035 125.513 76.8322 125.766C76.724 125.928 76.5527 126.009 76.3724 126.009Z" fill="white"/>
<path d="M66.9314 150.859C66.8502 150.859 66.7691 150.841 66.697 150.805C66.4265 150.679 66.3093 150.346 66.4355 150.076L69.3113 144.025C69.4375 143.755 69.7711 143.638 70.0415 143.764C70.312 143.89 70.4292 144.224 70.303 144.494L67.4272 150.544C67.328 150.742 67.1387 150.859 66.9314 150.859Z" fill="white"/>
<path d="M164.259 57.0484C162.239 55.7518 160.13 54.7704 158.092 54.0231C158.092 54.0231 138.674 46.2888 130.696 50.9978C126.612 53.4108 124.142 51.394 124.142 51.394C124.142 51.394 117.408 47.9095 104.246 48.9449C95.0598 49.6742 88.8846 52.1143 85.3327 54.0051C71.089 61.1631 68.1501 81.3678 76.525 94.9276C76.5881 95.0356 76.6512 95.1436 76.7143 95.2427C86.0899 109.991 101.01 118.464 101.01 118.464L107.762 111.432C107.762 111.432 106.96 110.558 105.725 109.109C105.481 108.82 105.22 108.514 104.949 108.181C104.94 108.172 104.94 108.172 104.931 108.163C104.679 107.857 104.408 107.533 104.138 107.191C104.111 107.155 104.075 107.119 104.048 107.074C103.768 106.732 103.48 106.362 103.182 105.993C103.146 105.939 103.101 105.885 103.065 105.84C102.804 105.507 102.542 105.165 102.272 104.805C102.218 104.733 102.164 104.67 102.11 104.598C101.812 104.211 101.515 103.805 101.217 103.391C101.154 103.301 101.091 103.211 101.019 103.121C100.757 102.77 100.505 102.401 100.243 102.041C100.18 101.951 100.117 101.861 100.054 101.77C99.7566 101.347 99.4591 100.906 99.1616 100.465C99.0895 100.357 99.0174 100.24 98.9453 100.132C98.6928 99.7536 98.4404 99.3664 98.197 98.9703C98.1339 98.8802 98.0798 98.7812 98.0167 98.6912C97.7282 98.241 97.4488 97.7818 97.1783 97.3226C97.1062 97.1965 97.0341 97.0795 96.962 96.9534C96.7276 96.5482 96.4932 96.1431 96.2678 95.7379C96.2227 95.6479 96.1686 95.5668 96.1236 95.4768C95.8711 95.0086 95.6187 94.5314 95.3843 94.0632C95.3212 93.9371 95.2581 93.8111 95.195 93.685C94.9877 93.2528 94.7803 92.8207 94.591 92.3885C94.564 92.3254 94.5369 92.2624 94.5099 92.1994C94.3026 91.7222 94.1132 91.245 93.9329 90.7768C93.8879 90.6597 93.8428 90.5337 93.7977 90.4166C93.6354 89.9664 93.4822 89.5162 93.347 89.0751C93.3379 89.039 93.3289 89.012 93.3109 88.976C93.1667 88.5078 93.0585 88.0486 92.9503 87.5894C92.9233 87.4724 92.9052 87.3643 92.8782 87.2473C92.788 86.7881 92.7069 86.3289 92.6528 85.8877C92.4635 84.159 92.4545 82.5563 92.5627 81.0526C101.388 78.4595 110.593 79.612 113.198 80.0262C113.64 80.0982 114.072 79.9182 114.343 79.558C115.262 78.2885 117.588 75.2902 120.085 73.7055C120.635 73.3543 120.482 73.4354 120.942 73.1383C122.24 73.8586 124.313 74.966 125.63 75.5873C125.783 77.0639 125.846 77.8203 125.963 78.9818C126.152 80.8726 125.972 82.3942 125.828 83.2406C125.747 83.6908 125.936 84.1409 126.315 84.4021C127.342 85.1224 129.389 86.671 130.669 88.3638C131.967 90.0925 133.265 92.2984 133.86 93.3429C134.068 93.712 134.464 93.9371 134.888 93.9371H136.231C136.889 93.9371 137.421 94.4684 137.421 95.1256V98.241C145.985 93.3609 154.324 89.7413 154.324 89.7413C154.324 89.7413 154.523 85.8067 154.802 81.0346C157.912 80.8816 160.959 80.3954 163.763 79.3779C175.942 74.984 176.113 64.6566 164.259 57.0484Z" fill="white"/>
<path d="M110.673 79.7019C110.628 79.1077 110.519 78.5044 110.312 77.9192C109.059 74.2726 105.083 72.3368 101.432 73.5883C98.5656 74.5698 96.7626 77.2349 96.7266 80.0891C102.253 79.1437 107.472 79.3778 110.673 79.7019Z" fill="#EF6744"/>
<path d="M97.1154 82.4572C97.2867 82.9614 97.5211 83.4296 97.7916 83.8708H109.646C110.413 82.6463 110.782 81.1876 110.674 79.702C107.465 79.3689 102.254 79.1348 96.7368 80.0892C96.7278 80.8815 96.845 81.6738 97.1154 82.4572Z" fill="#EF6744"/>
<path d="M136.213 93.9279H134.87C134.446 93.9279 134.05 93.7028 133.842 93.3336C133.247 92.2892 131.949 90.0832 130.651 88.3545C129.38 86.6528 127.334 85.1131 126.297 84.3928C125.918 84.1317 125.738 83.6815 125.81 83.2313C125.963 82.3849 126.135 80.8633 125.945 78.9725C125.855 78.0451 125.801 76.8386 125.603 75.6501C125.549 75.3169 121.041 73.0029 120.816 73.228C120.617 73.4261 120.329 73.5342 120.077 73.6962C117.579 75.2809 115.254 78.2792 114.334 79.5487C114.073 79.9089 113.64 80.089 113.189 80.0169C112.63 79.9269 111.765 79.8098 110.674 79.6928C110.782 81.1784 110.404 82.628 109.646 83.8616H97.7916C97.5211 83.4204 97.2868 82.9522 97.1155 82.448C96.845 81.6646 96.7278 80.8723 96.7459 80.089C95.3576 80.3321 93.9602 80.6382 92.5719 81.0434C92.4638 82.547 92.4638 84.1587 92.6621 85.8784C93.5546 93.8828 101.821 104.48 105.743 109.099C106.978 110.558 107.78 111.422 107.78 111.422L101.028 118.454C101.028 118.454 86.1082 109.973 76.7326 95.2334C76.6695 95.1254 76.6064 95.0173 76.5433 94.9183C74.3256 103.103 81.6007 112.566 83.4578 114.817C83.7192 115.132 83.7914 115.564 83.6561 115.96L82.0515 120.597C81.8712 121.11 82.0695 121.687 82.5293 121.984L87.2892 125.063C87.7579 125.369 88.38 125.306 88.7766 124.901L92.3015 121.381C92.599 121.083 93.0137 120.966 93.4193 121.065C94.7265 121.39 98.1973 122.056 104.823 122.056H119.968C120.239 122.056 120.5 122.146 120.708 122.317L125.224 125.891C125.675 126.252 126.324 126.234 126.757 125.846L130.66 122.353C131.048 122.002 131.165 121.453 130.949 120.975L128.848 116.365C128.677 115.978 128.713 115.537 128.956 115.186C129.578 114.295 130.858 112.431 132.112 110.333C133.302 108.352 133.815 106.11 134.032 104.859C134.131 104.291 134.627 103.877 135.204 103.877H136.204C136.862 103.877 137.394 103.346 137.394 102.689V101.581V95.0984C137.403 94.4591 136.871 93.9279 136.213 93.9279Z" fill="#F1C4D9"/>
<path d="M119.994 95.4767C120.656 95.4767 121.193 94.9405 121.193 94.2792C121.193 93.6178 120.656 93.0817 119.994 93.0817C119.332 93.0817 118.795 93.6178 118.795 94.2792C118.795 94.9405 119.332 95.4767 119.994 95.4767Z" fill="black"/>
<path d="M111.151 65.3769C111.151 65.3769 113.495 64.9447 115.144 62.2165C116.794 59.4884 116.641 57.3185 116.641 57.3185C116.641 57.3185 113.486 54.9955 108.987 53.4288C104.489 51.8621 101.406 52.3483 100.747 52.6455C98.8183 53.5098 99.5305 54.4372 99.5305 54.4372C99.5305 54.4372 98.3224 55.3376 98.5298 56.4091C98.683 57.1924 99.882 57.2914 99.882 57.2914C99.882 57.2914 99.233 58.0658 99.7468 58.7591C100.261 59.4524 103.38 58.8311 104.831 59.3623C106.283 59.8936 107.247 60.4788 107.247 60.4788C107.247 60.4788 104.939 60.956 105.318 61.8924C105.697 62.8288 107.383 62.7388 108.753 63.5581C110.123 64.3865 111.151 65.3769 111.151 65.3769Z" fill="#EF6744"/>
<path d="M107.762 111.432C107.762 111.432 105.373 111.468 103.3 113.881C101.226 116.303 101.01 118.464 101.01 118.464C101.01 118.464 103.732 121.273 107.915 123.569C112.089 125.856 115.217 125.883 115.912 125.703C117.949 125.171 117.408 124.136 117.408 124.136C117.408 124.136 118.751 123.452 118.724 122.353C118.706 121.561 117.534 121.255 117.534 121.255C117.534 121.255 118.3 120.597 117.913 119.832C117.525 119.067 114.343 119.157 113 118.391C111.656 117.626 110.8 116.888 110.8 116.888C110.8 116.888 113.162 116.798 112.937 115.816C112.711 114.835 111.043 114.646 109.826 113.61C108.618 112.584 107.762 111.432 107.762 111.432Z" fill="#EF6744"/>
<path d="M107.608 111.783C107.472 111.783 107.346 111.738 107.238 111.639C107.049 111.468 88.3966 94.3603 92.4624 76.9108C94.2293 69.3116 98.5565 67.5288 98.7368 67.4568C99.0162 67.3397 99.3408 67.4838 99.449 67.7629C99.5571 68.042 99.4219 68.3662 99.1425 68.4742C99.1064 68.4922 95.1578 70.167 93.5351 77.1539C89.6226 93.9731 107.797 110.657 107.977 110.819C108.203 111.026 108.221 111.369 108.013 111.594C107.905 111.729 107.761 111.783 107.608 111.783Z" fill="#2755A3"/>
<path d="M150.709 82.16C145.877 82.16 140.053 81.4307 133.283 79.3058C117.705 74.4167 111.457 66.3133 111.196 65.9711C111.016 65.728 111.061 65.3859 111.304 65.2058C111.547 65.0257 111.89 65.0707 112.07 65.3138C112.133 65.3949 118.39 73.4893 133.607 78.2703C154.405 84.7891 166.44 77.7301 166.557 77.6581C166.818 77.505 167.152 77.5861 167.314 77.8472C167.467 78.1083 167.386 78.4414 167.125 78.6035C166.791 78.8016 161.058 82.16 150.709 82.16Z" fill="#2755A3"/>
<path d="M253.434 127.972L246.52 150.4L255.345 155.992L291.198 126.936C292.261 126.072 292.622 124.604 292.081 123.344L288.728 115.555C284.319 116.384 275.71 118.229 265.451 122.029C257.905 124.829 253.434 127.972 253.434 127.972Z" fill="black"/>
<path d="M288.727 115.555L292.081 123.344C292.622 124.604 292.261 126.072 291.197 126.936L255.345 155.992L255.336 156L258.599 158.062C259.492 158.63 260.655 158.54 261.448 157.855L297.886 126.459C298.734 125.73 298.968 124.505 298.436 123.515L294.524 116.177C294.028 115.258 293 114.763 291.973 114.943L288.727 115.537V115.555Z" fill="#EF6744"/>
<path d="M257.933 128.008C257.942 128.017 257.942 128.026 257.951 128.035C257.987 128.116 258.906 129.97 258.401 134.238C257.842 138.929 255.841 140.838 255.76 140.91C255.535 141.117 255.192 141.108 254.985 140.883C254.768 140.667 254.786 140.316 255.012 140.109C255.03 140.091 256.815 138.353 257.319 134.103C257.779 130.223 256.986 128.539 256.977 128.521C256.842 128.251 256.959 127.918 257.22 127.792C257.482 127.666 257.788 127.765 257.933 128.008Z" fill="white"/>
<path d="M262.755 126.747C262.764 126.756 262.764 126.765 262.773 126.774C262.809 126.855 263.728 128.71 263.224 132.978C262.665 137.66 260.663 139.578 260.582 139.65C260.357 139.857 260.014 139.848 259.807 139.623C259.59 139.397 259.609 139.055 259.834 138.848C259.87 138.812 261.637 137.065 262.133 132.843C262.593 128.962 261.799 127.278 261.79 127.26C261.655 126.99 261.772 126.657 262.034 126.531C262.295 126.405 262.611 126.504 262.755 126.747Z" fill="white"/>
<path d="M267.552 125.441C267.561 125.45 267.561 125.459 267.57 125.468C267.606 125.55 268.525 127.404 268.02 131.672C267.461 136.363 265.46 138.272 265.379 138.344C265.154 138.551 264.811 138.542 264.604 138.317C264.387 138.092 264.405 137.75 264.631 137.543C264.667 137.516 266.434 135.769 266.93 131.537C267.389 127.656 266.596 125.973 266.587 125.955C266.452 125.685 266.569 125.351 266.83 125.225C267.092 125.099 267.407 125.189 267.552 125.441Z" fill="white"/>
<path d="M272.229 123.938C272.238 123.947 272.238 123.956 272.247 123.965C272.283 124.046 273.203 125.901 272.698 130.169C272.139 134.851 270.138 136.768 270.057 136.84C269.831 137.047 269.489 137.038 269.281 136.813C269.065 136.588 269.083 136.246 269.309 136.039C269.327 136.021 271.112 134.283 271.616 130.033C272.076 126.153 271.283 124.469 271.274 124.451C271.139 124.181 271.256 123.848 271.517 123.722C271.77 123.596 272.085 123.695 272.229 123.938Z" fill="white"/>
<path d="M46.7848 134.742H20.6504V198.184H46.7848V134.742Z" fill="#EF6744"/>
<path d="M30.9267 129.601C30.503 125.478 29.8539 122.623 29.1687 120.642C29.6556 119.967 29.9801 119.085 30.0883 118.04C30.2956 116.132 28.8532 112.665 27.2035 109.523C28.3484 109.856 29.2409 109.883 29.8809 109.82C30.4939 112.098 31.0979 115.375 31.4766 120.066C31.9363 125.757 31.9183 130.79 31.738 134.742H35.1367C35.7136 128.89 36.9937 119.94 39.7794 113.493C42.3667 107.506 43.6558 102.977 44.2237 99.5915C44.7646 99.4114 45.3055 99.1323 45.8554 98.7181C50.985 94.8555 50.4531 88.1206 50.0745 85.7166C49.9933 85.1943 49.5696 84.7982 49.0467 84.7351C48.001 84.6091 47.6314 83.2765 48.4608 82.6192L49.4344 81.8539C49.795 81.5658 49.9573 81.1156 49.8581 80.6654C49.5245 79.1708 48.578 75.5512 46.5406 71.2024C44.3139 66.4303 41.1767 61.3161 40.194 59.7315C39.9957 59.4163 39.6712 59.2183 39.3016 59.1822L37.8502 59.0382L38.7336 56.7962C38.8508 56.4901 38.8418 56.166 38.7066 55.8688C38.4542 55.3196 37.9583 54.2841 37.2101 52.8435C36.4979 51.484 35.1006 48.9539 34.118 47.2071C33.6402 46.3608 32.4051 46.4058 31.9994 47.2882C31.5126 48.3416 30.9898 49.7372 30.7013 51.2409C30.0883 54.4642 30.3407 55.6707 29.6105 63.0089C29.0606 68.5642 29.0065 72.571 29.0155 74.2006C29.0155 74.6869 29.313 75.11 29.7637 75.2901L31.3414 75.9204L30.3948 76.6227C30.0162 76.9018 29.8449 77.37 29.944 77.8292C30.2866 79.3689 31.143 83.0694 32.2338 86.851C33.3246 90.6417 37.0118 98.358 41.5193 99.6545C40.9603 102.707 39.7433 106.867 37.3273 112.467C36.0291 115.474 35.0465 118.941 34.2983 122.389C34.2442 121.57 34.1901 120.723 34.118 119.868C33.6852 114.547 32.9731 110.873 32.2158 108.334C33.7664 106.533 36.1644 102.815 34.9023 97.9528C33.0993 91.0018 24.0843 79.5579 18.8015 75.8213C13.5188 72.0937 12.2296 70.5451 12.2296 70.5451C12.2296 70.5451 11.2019 72.607 10.3004 72.0847C9.39892 71.5715 9.01127 68.9964 8.10978 68.7353C7.20828 68.4742 1.53786 64.3595 0.510157 65.647C-0.51755 66.9345 0.636366 73.1112 7.08207 79.9271C13.5188 86.743 15.7094 87.6434 17.3862 94.4683C17.7017 95.7558 18.0713 97.0164 18.486 98.2319C14.0326 96.026 9.22763 92.0012 6.5592 90.0924C5.06272 89.03 3.17859 88.0756 1.79028 87.4453C0.906815 87.0401 -0.0758164 87.7874 0.113498 88.7418C0.474097 90.5966 1.34855 93.6399 3.47608 97.8177C7.20828 105.147 9.78656 105.534 13.654 110.036C17.5214 114.538 18.6753 118.013 22.7952 120.714C24.3457 121.732 25.698 122.11 26.8158 122.011C27.3477 123.704 27.8886 126.198 28.2763 129.889C28.4656 131.717 28.6188 133.32 28.736 134.751H31.4045C31.2873 133.23 31.125 131.546 30.9267 129.601Z" fill="url(#paint2_linear)"/>
<path d="M71.4119 87.4183C68.8156 88.1476 64.3441 89.9484 60.3235 94.2883C56.9158 97.9618 51.4978 100.771 49.5866 101.698C49.172 101.896 48.9556 102.347 49.0548 102.797L49.6137 105.435L47.9008 104.499C47.4952 104.274 46.9903 104.355 46.6838 104.697C45.2865 106.254 41.5092 110.693 40.0218 114.916C38.9941 117.842 39.2465 119.805 40.0037 121.156C39.0031 123.209 37.9934 125.64 37.146 128.404C36.4789 130.592 35.92 132.735 35.4512 134.742H38.1917C38.6154 132.96 39.1112 131.078 39.6972 129.178C40.3824 126.936 41.1937 124.919 42.0141 123.155C42.1222 123.227 42.2394 123.29 42.3476 123.344C44.0875 124.298 48.0451 123.2 50.0915 122.524C50.7315 122.308 50.9749 121.543 50.5783 120.994L47.8107 117.212L51.5519 120.129C51.9756 120.462 52.5886 120.399 52.9312 119.976C54.9235 117.518 61.3061 109.478 65.0203 102.572C68.0944 96.8633 71.0332 91.5781 72.5568 88.8589C72.9715 88.0936 72.2593 87.1842 71.4119 87.4183Z" fill="url(#paint3_linear)"/>
<path d="M43.1327 98.9973C43.1237 98.9973 43.1146 98.9973 43.1146 98.9973C42.9704 98.9883 42.8622 98.8532 42.8712 98.7181C43.6736 89.2011 41.9247 84.1409 37.895 73.6064C34.0005 63.4501 32.6483 48.3327 32.6392 48.1796C32.6302 48.0355 32.7294 47.9095 32.8826 47.8915C33.0269 47.8735 33.1531 47.9815 33.1711 48.1346C33.1801 48.2877 34.5324 63.3241 38.3998 73.4174C42.4656 84.0239 44.2235 89.1201 43.4121 98.7632C43.3851 98.8982 43.2679 98.9973 43.1327 98.9973Z" fill="white"/>
<path d="M30.4398 107.956C30.3316 107.956 30.2324 107.893 30.1964 107.794C30.1603 107.704 26.5814 98.664 23.931 91.596C21.2896 84.555 17.6205 81.3136 12.1845 78.0993C6.71239 74.8669 1.08705 66.9255 1.03296 66.8535C0.95183 66.7364 0.978875 66.5744 1.09607 66.4843C1.21326 66.4033 1.37553 66.4303 1.46568 66.5474C1.51076 66.6284 7.08201 74.4707 12.4459 77.6401C17.9811 80.9085 21.7133 84.2129 24.4178 91.3979C27.0682 98.466 30.6471 107.497 30.6832 107.587C30.7373 107.722 30.6742 107.875 30.539 107.929C30.5029 107.956 30.4668 107.956 30.4398 107.956Z" fill="white"/>
<path d="M27.303 120.579C27.2309 120.579 27.1588 120.552 27.1047 120.489C27.0776 120.453 24.265 117.185 22.2636 113.638C21.0917 111.549 16.8186 104.391 11.2563 99.9697C6.37023 96.08 1.19564 89.1561 1.14155 89.084C1.0514 88.967 1.07845 88.8049 1.19564 88.7149C1.31284 88.6339 1.47511 88.6519 1.56526 88.7689C1.61934 88.8409 6.74886 95.7109 11.5809 99.5555C17.2243 104.039 21.5334 111.26 22.7234 113.376C24.6977 116.888 27.4743 120.111 27.5013 120.147C27.5915 120.255 27.5825 120.426 27.4743 120.516C27.4292 120.561 27.3661 120.579 27.303 120.579Z" fill="white"/>
<path d="M41.2845 122.029C41.2574 122.029 41.2304 122.029 41.2033 122.02C41.0681 121.975 40.987 121.831 41.0321 121.687C41.1042 121.453 42.9252 115.96 49.9479 109.946C56.7271 104.138 61.478 97.9618 63.7588 94.9995L64.0022 94.6844C66.2379 91.7852 71.115 88.1926 71.3223 88.0396C71.4395 87.9495 71.6018 87.9765 71.692 88.0936C71.7821 88.2106 71.7551 88.3727 71.6379 88.4627C71.5928 88.4988 66.6075 92.1633 64.4259 94.9995L64.1825 95.3147C61.8927 98.2949 57.1147 104.499 50.2994 110.342C43.403 116.249 41.5639 121.786 41.5459 121.84C41.5008 121.966 41.3926 122.029 41.2845 122.029Z" fill="white"/>
<path d="M46.793 137.903H20.6406V138.956H46.793V137.903Z" fill="#2755A3"/>
<path d="M46.793 141.423H20.6406V142.477H46.793V141.423Z" fill="#2755A3"/>
</g>
<defs>
<linearGradient id="paint0_linear" x1="129.863" y1="127.439" x2="254.079" y2="127.439" gradientUnits="userSpaceOnUse">
<stop offset="0.2808" stop-color="#151E27"/>
<stop offset="0.3581" stop-color="#1D2838"/>
<stop offset="0.5192" stop-color="#283A5B"/>
<stop offset="0.6694" stop-color="#2C4678"/>
<stop offset="0.8044" stop-color="#2B4E8E"/>
<stop offset="0.9191" stop-color="#28529C"/>
<stop offset="1" stop-color="#2755A3"/>
</linearGradient>
<linearGradient id="paint1_linear" x1="94.9225" y1="119.355" x2="195.422" y2="119.355" gradientUnits="userSpaceOnUse">
<stop offset="0.2808" stop-color="#151E27"/>
<stop offset="0.3581" stop-color="#1D2838"/>
<stop offset="0.5192" stop-color="#283A5B"/>
<stop offset="0.6694" stop-color="#2C4678"/>
<stop offset="0.8044" stop-color="#2B4E8E"/>
<stop offset="0.9191" stop-color="#28529C"/>
<stop offset="1" stop-color="#2755A3"/>
</linearGradient>
<linearGradient id="paint2_linear" x1="0.095468" y1="90.6595" x2="50.2931" y2="90.6595" gradientUnits="userSpaceOnUse">
<stop offset="0.0667" stop-color="#F1C4D9"/>
<stop offset="0.8654" stop-color="#2755A3"/>
</linearGradient>
<linearGradient id="paint3_linear" x1="35.4536" y1="111.06" x2="72.667" y2="111.06" gradientUnits="userSpaceOnUse">
<stop offset="0.0667" stop-color="#F1C4D9"/>
<stop offset="0.8654" stop-color="#2755A3"/>
</linearGradient>
<clipPath id="clip0">
<rect width="298.621" height="204" fill="white" transform="translate(0.0957031)"/>
</clipPath>
</defs>
</svg>
