<svg width="19" height="19" viewBox="0 0 19 19" fill="none" xmlns="http://www.w3.org/2000/svg">
<path fill-rule="evenodd" clip-rule="evenodd" d="M9.25939 0.419861C9.69824 0.419861 10.099 0.680081 10.2933 1.09112L12.4005 5.55002L17.1128 6.26946C17.547 6.33575 17.9075 6.65369 18.0429 7.08967C18.1782 7.52564 18.0649 8.00406 17.7505 8.32384L14.3417 11.7919L15.1462 16.6914C15.2204 17.1432 15.0425 17.5999 14.6874 17.8693C14.3323 18.1388 13.8616 18.1742 13.4731 17.9609L9.25939 15.6463L5.04569 17.9609C4.65722 18.1742 4.18646 18.1388 3.83136 17.8693C3.47627 17.5999 3.29842 17.1432 3.37261 16.6914L4.17713 11.7919L0.768226 8.32384C0.453897 8.00406 0.340588 7.52564 0.475925 7.08967C0.611261 6.65369 0.971782 6.33575 1.40596 6.26946L6.11831 5.55002L8.22548 1.09112C8.41973 0.680081 8.82053 0.419861 9.25939 0.419861ZM9.25939 4.34504L7.91811 7.18327C7.7503 7.53836 7.4261 7.78459 7.05096 7.84187L4.04983 8.30005L6.22054 10.5084C6.4925 10.7851 6.61663 11.1839 6.55246 11.5747L6.04042 14.6931L8.72272 13.2197C9.05869 13.0351 9.46009 13.0351 9.79605 13.2197L12.4784 14.6931L11.9663 11.5747C11.9021 11.1839 12.0263 10.7851 12.2982 10.5084L14.4689 8.30005L11.4678 7.84187C11.0927 7.78459 10.7685 7.53836 10.6007 7.18327L9.25939 4.34504Z" fill="#EA5B21"/>
</svg>
