<svg width="24" height="24" viewBox="0 0 24 24" fill="none" xmlns="http://www.w3.org/2000/svg">
<path fill-rule="evenodd" clip-rule="evenodd" d="M9.75054 4.47359C10.0636 4.22316 10.5084 4.22316 10.8214 4.47359L19.3929 11.3307C19.5962 11.4934 19.7146 11.7397 19.7146 12.0001V22.2858C19.7146 22.7592 19.3308 23.1429 18.8574 23.1429H13.7146C13.2412 23.1429 12.8574 22.7592 12.8574 22.2858V15.4286H7.71456V22.2858C7.71456 22.7592 7.33081 23.1429 6.85742 23.1429H1.71456C1.24118 23.1429 0.857422 22.7592 0.857422 22.2858V12.0001C0.857422 11.7397 0.975784 11.4934 1.17911 11.3307L9.75054 4.47359ZM2.57171 12.412V21.4286H6.00028V14.5715C6.00028 14.0981 6.38403 13.7143 6.85742 13.7143H13.7146C14.188 13.7143 14.5717 14.0981 14.5717 14.5715V21.4286H18.0003V12.412L10.286 6.24059L2.57171 12.412ZM10.286 17.1429C10.7594 17.1429 11.1431 17.5267 11.1431 18.0001V22.2858C11.1431 22.7592 10.7594 23.1429 10.286 23.1429C9.81261 23.1429 9.42885 22.7592 9.42885 22.2858V18.0001C9.42885 17.5267 9.81261 17.1429 10.286 17.1429Z" fill="white"/>
<path fill-rule="evenodd" clip-rule="evenodd" d="M20.5706 3.42857V0H18.8563V3.42857H15.4277V5.14286H18.8563V8.57143H20.5706V5.14286H23.9992V3.42857H20.5706Z" fill="white"/>
</svg>
