<svg width="24" height="16" viewBox="0 0 24 16" fill="none" xmlns="http://www.w3.org/2000/svg">
<path fill-rule="evenodd" clip-rule="evenodd" d="M2.02287 13.5C5.00784 14.29 7.58533 14.0542 11.4846 13.0142C15.8803 11.8419 18.9565 12.0871 22.0313 12.5C22.0313 8.5 22.0313 5.5 22.0313 2.4862C18.69 1.69273 16.0008 1.88363 12.5494 2.86974C9.08226 3.86037 5.77468 4.08408 2.02287 3.43396C2.02287 5.5 1.96755 11.0029 2.02287 13.5ZM12 0.946696C15.5 -0.0533045 19 -0.553305 24 0.946696V14.9467C19.5941 13.6508 15.8384 13.923 12 14.9467C8.43332 15.8979 4.81656 16.6325 0 14.9467V0.946696C4.86336 2.2154 8.5 1.9467 12 0.946696ZM5.5 10C6.32843 10 7 9.32843 7 8.5C7 7.67157 6.32843 7 5.5 7C4.67157 7 4 7.67157 4 8.5C4 9.32843 4.67157 10 5.5 10ZM18.5 9C19.3284 9 20 8.32843 20 7.5C20 6.67157 19.3284 6 18.5 6C17.6716 6 17 6.67157 17 7.5C17 8.32843 17.6716 9 18.5 9ZM10 6C10 7.54891 12 9 12 9.5C12 10 10.069 9.9885 10 10V12C10.444 11.926 14 11.5 14 9.5C14 8.5 12 7 12 6.5C12 6 13.9323 6 14 6V4C11.5 4 10 5 10 6Z" fill="white"/>
</svg>
