<svg width="22" height="17" viewBox="0 0 22 17" fill="none" xmlns="http://www.w3.org/2000/svg">
<path fill-rule="evenodd" clip-rule="evenodd" d="M20 13H14.0058C12.3457 13 11 11.6526 11 10.0031V6.99687C11 5.34174 12.3488 4 14.0058 4H20V2.9985C20 2.44704 19.5551 2 19.0066 2H2V15H19.0066C19.5552 15 20 14.5525 20 14.0015V13ZM22 3.00013V13.9999C22 15.666 20.6562 17 18.9986 17H0V0H18.9986C20.6569 0 22 1.3432 22 3.00013ZM13 6.99981V10.0002C13 10.5563 13.449 11 14.0029 11H20V6H14.0029C13.4379 6 13 6.44763 13 6.99981ZM15.5 10C14.6716 10 14 9.32843 14 8.5C14 7.67157 14.6716 7 15.5 7C16.3284 7 17 7.67157 17 8.5C17 9.32843 16.3284 10 15.5 10Z" fill="white"/>
</svg>
