<svg width="274" height="247" viewBox="0 0 274 247" fill="none" xmlns="http://www.w3.org/2000/svg">
<path d="M177.858 77.2486C170.579 78.8829 158.338 86.1227 142.382 79.7416C128.945 74.3653 99.8923 43.6615 54.298 72.9883C8.70373 102.315 14.1095 145.13 48.4786 174.933C79.5698 201.902 122.322 211.856 166.76 195.119C205.689 180.46 233.904 157.197 239.104 125.404C243.659 97.5291 221.15 67.5334 177.858 77.2486Z" fill="url(#paint0_linear)"/>
<path d="M75.4255 136.684C75.4255 136.684 72.2826 128.041 63.8817 130.398C63.8817 130.398 62.824 117.827 49.1952 117.041C35.5663 116.255 31.3658 127.013 31.3658 127.013C31.3658 127.013 19.8221 120.728 11.9651 130.428C11.9651 130.428 3.0504 130.428 1.20703 136.714H75.4255V136.684Z" fill="white"/>
<path d="M76.6964 137.591H0L0.332441 136.443C2.11538 130.339 9.60974 129.613 11.5136 129.523C18.464 121.333 28.0132 124.567 30.9143 125.806C31.4582 124.748 32.6066 122.905 34.5406 121.061C37.1697 118.583 41.8838 115.712 49.2271 116.136C61.1032 116.831 63.9741 126.138 64.6087 129.311C72.9794 127.679 76.2129 136.322 76.2431 136.413L76.6964 137.591ZM2.56863 135.778H74.0069C72.8585 133.663 69.8366 129.674 64.1554 131.275L63.0978 131.578L63.0071 130.49C62.9769 130.006 61.8285 118.674 49.1667 117.949C36.3235 117.193 32.2741 127.226 32.2439 127.347L31.8813 128.314L30.9747 127.83C30.5214 127.589 20.0052 122.028 12.7223 131.003L12.4503 131.336H12.0273C11.9064 131.306 4.89551 131.366 2.56863 135.778Z" fill="white"/>
<path d="M200.794 187.104C200.794 187.104 198.519 180.848 192.462 182.554C192.462 182.554 191.695 173.454 181.827 172.885C171.959 172.317 168.917 180.08 168.917 180.08C168.917 180.08 160.585 175.53 154.869 182.554C154.869 182.554 148.414 182.554 147.105 187.104H200.794Z" fill="white"/>
<path d="M202.021 187.955H146L146.313 186.875C147.621 182.41 152.967 181.813 154.503 181.728C159.479 175.927 166.247 178.031 168.551 178.969C169.688 176.893 173.47 171.547 181.887 172.031C190.39 172.514 192.608 179.026 193.148 181.529C197.983 180.704 200.77 184.543 201.594 186.818L202.021 187.955ZM148.417 186.249H199.405C198.495 184.714 196.39 182.325 192.665 183.377L191.67 183.661L191.584 182.638C191.556 182.297 190.731 174.277 181.774 173.737C172.645 173.197 169.745 180.334 169.716 180.391L169.375 181.301L168.522 180.846C168.209 180.676 160.73 176.723 155.555 183.093L155.299 183.406H154.901C154.844 183.406 150.209 183.434 148.417 186.249Z" fill="white"/>
<path d="M271.794 120.104C271.794 120.104 269.519 113.848 263.462 115.554C263.462 115.554 262.695 106.454 252.827 105.885C242.959 105.317 239.917 113.08 239.917 113.08C239.917 113.08 231.585 108.53 225.869 115.554C225.869 115.554 219.414 115.554 218.105 120.104H271.794Z" fill="white"/>
<path d="M273.021 120.955H217L217.313 119.875C218.621 115.41 223.967 114.813 225.503 114.728C230.479 108.927 237.247 111.031 239.551 111.969C240.688 109.893 244.47 104.547 252.887 105.031C261.39 105.514 263.608 112.026 264.148 114.529C268.983 113.704 271.77 117.543 272.594 119.818L273.021 120.955ZM219.417 119.249H270.405C269.495 117.714 267.39 115.325 263.665 116.377L262.67 116.661L262.584 115.638C262.556 115.297 261.731 107.277 252.774 106.737C243.645 106.197 240.745 113.334 240.716 113.391L240.375 114.301L239.522 113.846C239.209 113.676 231.73 109.723 226.555 116.093L226.299 116.406H225.901C225.844 116.406 221.209 116.434 219.417 119.249Z" fill="white"/>
<path d="M143.698 75.1562L132.988 64.3305L167.666 50.2402" fill="white"/>
<path d="M143.698 75.1562L132.988 64.3305L167.666 50.2402" stroke="url(#paint1_linear)" stroke-width="2" stroke-linejoin="round"/>
<path d="M195.077 77.8861L180.603 112.462L169.738 101.479" fill="white"/>
<path d="M195.077 77.8861L180.603 112.462L169.738 101.479" stroke="url(#paint2_linear)" stroke-width="2" stroke-linejoin="round"/>
<path d="M188.174 85.4642C215.244 58.6849 216.121 29.7068 216.121 29.7068C216.121 29.7068 187.104 30.3024 160.065 57.0505C150.941 66.0774 136.73 82.7533 131.676 92.2826L152.649 113.483C162.2 108.563 179.018 94.5222 188.174 85.4642Z" fill="white" stroke="url(#paint3_linear)" stroke-width="2" stroke-linejoin="round"/>
<path d="M172.975 72.3873C176.612 76.0639 182.541 76.0959 186.217 72.4587C189.894 68.8214 189.926 62.8924 186.289 59.2157C182.652 55.5391 176.723 55.5071 173.046 59.1443C169.369 62.7816 169.337 68.7106 172.975 72.3873Z" fill="url(#paint4_linear)"/>
<path d="M158.718 86.4925C160.536 88.3308 163.501 88.3468 165.339 86.5282C167.178 84.7095 167.194 81.745 165.375 79.9067C163.556 78.0684 160.592 78.0524 158.753 79.871C156.915 81.6896 156.899 84.6541 158.718 86.4925Z" stroke="url(#paint5_linear)" stroke-width="2" stroke-linejoin="round"/>
<path d="M132.918 112.246L113.335 131.619" stroke="white" stroke-width="4" stroke-linecap="round" stroke-linejoin="round"/>
<path d="M121.418 100.621L113.459 108.495" stroke="white" stroke-width="4" stroke-linecap="round" stroke-linejoin="round"/>
<path d="M144.406 123.863L136.447 131.737" stroke="white" stroke-width="4" stroke-linecap="round" stroke-linejoin="round"/>
<defs>
<linearGradient id="paint0_linear" x1="208.211" y1="-19.1765" x2="94.3218" y2="188.816" gradientUnits="userSpaceOnUse">
<stop stop-color="#EA5B21"/>
<stop offset="1" stop-color="#F2C4D9"/>
</linearGradient>
<linearGradient id="paint1_linear" x1="145.641" y1="69.9382" x2="133.048" y2="40.8687" gradientUnits="userSpaceOnUse">
<stop stop-color="#EA5B21"/>
<stop offset="1" stop-color="#FFD8C8"/>
</linearGradient>
<linearGradient id="paint2_linear" x1="182.527" y1="107.215" x2="169.905" y2="77.7177" gradientUnits="userSpaceOnUse">
<stop stop-color="#EA5B21"/>
<stop offset="1" stop-color="#FFD8C8"/>
</linearGradient>
<linearGradient id="paint3_linear" x1="162.697" y1="102.019" x2="125.731" y2="26.0419" gradientUnits="userSpaceOnUse">
<stop stop-color="#EA5B21"/>
<stop offset="1" stop-color="#FFD8C8"/>
</linearGradient>
<linearGradient id="paint4_linear" x1="179.48" y1="75.071" x2="177.713" y2="43.7869" gradientUnits="userSpaceOnUse">
<stop stop-color="#EA5B21"/>
<stop offset="1" stop-color="#FFD8C8"/>
</linearGradient>
<linearGradient id="paint5_linear" x1="161.97" y1="87.8343" x2="161.087" y2="72.1923" gradientUnits="userSpaceOnUse">
<stop stop-color="#EA5B21"/>
<stop offset="1" stop-color="#FFD8C8"/>
</linearGradient>
</defs>
</svg>
