<svg width="24" height="24" viewBox="0 0 24 24" fill="none" xmlns="http://www.w3.org/2000/svg">
<path d="M11.5003 2.42619L3.93895 3.93846L2.42667 11.4998C2.40246 11.6209 2.40851 11.7461 2.44429 11.8642C2.48007 11.9824 2.54447 12.0899 2.63178 12.1772L12.4242 21.9697C12.4939 22.0393 12.5766 22.0946 12.6675 22.1323C12.7585 22.17 12.8561 22.1894 12.9546 22.1894C13.053 22.1894 13.1506 22.17 13.2416 22.1323C13.3326 22.0946 13.4152 22.0393 13.4849 21.9697L21.9702 13.4844C22.0398 13.4148 22.0951 13.3321 22.1327 13.2411C22.1704 13.1501 22.1898 13.0526 22.1898 12.9541C22.1898 12.8556 22.1704 12.7581 22.1327 12.6671C22.0951 12.5761 22.0398 12.4934 21.9702 12.4237L12.1777 2.63129C12.0904 2.54398 11.9829 2.47958 11.8647 2.4438C11.7466 2.40802 11.6214 2.40197 11.5003 2.42619V2.42619Z" stroke="#989898" stroke-width="2" stroke-linecap="round" stroke-linejoin="round"/>
<path d="M7.875 9C8.49632 9 9 8.49632 9 7.875C9 7.25368 8.49632 6.75 7.875 6.75C7.25368 6.75 6.75 7.25368 6.75 7.875C6.75 8.49632 7.25368 9 7.875 9Z" fill="#989898"/>
</svg>
