<svg width="24" height="24" viewBox="0 0 24 24" fill="none" xmlns="http://www.w3.org/2000/svg">
<g id="action/customers">
<path id="Transparent BG" d="M0.005 0.005H23.995V23.995H0.005V0.005Z" stroke="white" stroke-opacity="0.01" stroke-width="0.01"/>
<path id="Combined Shape" fill-rule="evenodd" clip-rule="evenodd" d="M4 22V21V20H19.0075C19.546 20 20 19.5449 20 18.9912V4.00879C20 3.44841 19.5539 3 19.0075 3H4V2V1H19.0075C20.6602 1 22 2.34559 22 4.00879V18.9912C22 20.6529 20.6471 22 19.0075 22H4ZM3 5H6V6H3V5ZM14.0927 15C14.7565 15 15.0753 17 15.0753 17H17L16.6504 14.9313C16.3438 13.8583 15.2005 13 14.0927 13H12.0059C10.8981 13 9.75476 13.8583 9.4482 14.9313L9 17H10.9677C10.9677 17 11.3421 15 12.0059 15H14.0927ZM6 8H3V9H6V8ZM3 11H6V12H3V11ZM6 14H3V15H6V14ZM3 17H6V18H3V17ZM14 9C14 9.55229 13.5523 10 13 10C12.4477 10 12 9.55229 12 9C12 8.44772 12.4477 8 13 8C13.5523 8 14 8.44772 14 9ZM10 9C10 10.6569 11.3431 12 13 12C14.6569 12 16 10.6569 16 9C16 7.34315 14.6569 6 13 6C11.3431 6 10 7.34315 10 9Z" fill="#989898"/>
</g>
</svg>
