<svg width="24" height="24" viewBox="0 0 24 24" fill="none" xmlns="http://www.w3.org/2000/svg">
<path d="M0.005 0.005H23.995V23.995H0.005V0.005Z" stroke="white" stroke-opacity="0.01" stroke-width="0.01"/>
<path fill-rule="evenodd" clip-rule="evenodd" d="M12 2C17.5228 2 22 6.47715 22 12C22 17.5228 17.5228 22 12 22C6.47715 22 2 17.5228 2 12C2 6.47715 6.47715 2 12 2ZM11.9998 4.00043L11.9428 4.00621C11.4097 4.11295 10.7304 5.69097 10.3324 7.99913L12.721 7.99793C12.8151 8.61635 12.8872 9.28987 12.9345 9.99927L10.0811 10.0004C10.0289 10.6396 9.99975 11.3097 9.99975 12.0004C9.99975 12.6915 10.0289 13.3619 10.0812 14.0013L12.9344 14.0022C12.8871 14.7118 12.815 15.3855 12.7209 16.004L10.3326 16.0028C10.7297 18.3048 11.4065 19.8803 11.939 19.9939L11.9998 20.0004C12.4612 20.0004 13.0489 18.83 13.4676 17.0011C13.8862 15.1722 13.9493 14.4629 13.9998 13.0004L13.9985 11.7096C13.9795 9.588 13.5633 7.17823 13.2022 5.99785C12.8411 4.81748 12.4157 4.0781 12.0567 4.00621L11.9998 4.00043ZM9.23918 4.48893L9.19454 4.50552C7.4487 5.1593 5.99228 6.40565 5.0701 7.99973L7.31279 7.99844C7.20729 8.63928 7.12736 9.30872 7.07468 9.99994L4.25162 10.0005C4.0872 10.6396 3.99975 11.3095 3.99975 11.9999C3.99975 12.6906 4.08729 13.3609 4.25188 14.0002L7.07478 14.0011C7.12752 14.6926 7.20754 15.3624 7.31315 16.0035L5.07068 16.001C5.78359 17.233 6.8156 18.2572 8.05368 18.9605L8.06869 19.0005L8.12614 19.0012C8.48097 19.198 8.85233 19.3685 9.23761 19.5102C9.16674 19.3474 9.0987 19.178 9.03354 19.0022C9.03354 19.0022 7.99975 15.9999 8.00495 12.5144L7.99975 11.9999L8.00593 11.4392C7.99975 7.99989 9.04115 4.94221 9.23918 4.48893ZM19.9587 12.8183L19.9787 12.5885L19.9947 12.2955L20 11.9999C20 11.8431 19.9955 11.6874 19.9866 11.5328C19.9772 11.3697 19.963 11.2079 19.9439 11.0475L19.8923 10.6839L19.83 10.3513L19.7934 10.1853L19.7482 10.0005C19.5986 9.41952 19.3856 8.86433 19.117 8.34259L18.9297 7.99973L18.8246 7.82334L18.6672 7.57686L18.5367 7.38661L18.3694 7.15867L18.1779 6.91677L17.9413 6.64247L17.6998 6.38623L17.5181 6.20755L17.2602 5.97226L17.0241 5.77385L16.7986 5.59826L16.5671 5.43076C16.0124 5.04434 15.406 4.72623 14.7605 4.48894L14.8156 4.61763C15.2088 5.55645 15.5104 6.70658 15.7108 7.999L17.7446 7.99887C18.1663 8.60311 18.495 9.27699 18.7101 9.99979L15.932 10C15.977 10.6463 16 11.3151 16 11.9999C16 12.685 15.977 13.354 15.932 14.0004L18.7099 14.0006C18.4946 14.7237 18.1656 15.3979 17.7436 16.0023L15.7107 16.0019C15.5011 17.3529 15.1809 18.5483 14.7612 19.5094C15.1855 19.3536 15.5929 19.1628 15.9799 18.9406L16.2331 18.7894L16.5305 18.594L16.8081 18.3941L17.0636 18.1935C17.2215 18.0644 17.3741 17.9296 17.5212 17.7892L17.7874 17.5231L18.0222 17.2663L18.2365 17.011L18.4231 16.7698C18.5213 16.6377 18.6156 16.5025 18.7057 16.3644L18.9291 16.001C19.2252 15.4895 19.4665 14.9415 19.6445 14.3657L19.7479 14.0002C19.7852 13.8552 19.8186 13.7086 19.8479 13.5605L19.8763 13.4092L19.9103 13.202L19.9358 13.0184L19.9587 12.8183Z" fill="#989898"/>
</svg>
