<svg width="24" height="24" viewBox="0 0 24 24" fill="none" xmlns="http://www.w3.org/2000/svg">
<g id="alert/help">
<path id="Transparent BG" d="M0.005 0.005H23.995V23.995H0.005V0.005Z" stroke="white" stroke-opacity="0.01" stroke-width="0.01"/>
<path id="Combined Shape" fill-rule="evenodd" clip-rule="evenodd" d="M12 21C16.9706 21 21 16.9706 21 12C21 7.02944 16.9706 3 12 3C7.02944 3 3 7.02944 3 12C3 16.9706 7.02944 21 12 21ZM12 23C5.92487 23 1 18.0751 1 12C1 5.92487 5.92487 1 12 1C18.0751 1 23 5.92487 23 12C23 18.0751 18.0751 23 12 23ZM9.1396 8.67801L8.63783 8.72294L8.48936 6.91165L8.93933 6.83339C9.02962 6.81769 9.56509 6.72094 9.71516 6.69589C10.4157 6.57894 11.0321 6.532 12.105 6.532C14.2535 6.532 15.433 7.42316 15.433 9.202C15.433 10.2066 15.0153 10.8091 13.9932 11.7029C13.8878 11.7947 13.8878 11.7947 13.7838 11.8852C12.8438 12.7058 12.5074 13.191 12.4787 14.0173L12.462 14.5H10.465L10.4571 14.0081C10.4362 12.7206 10.9299 11.881 11.9759 10.9156C12.0115 10.8828 12.4658 10.4732 12.5827 10.3611C12.9973 9.96373 13.1651 9.69406 13.1732 9.39708C13.1918 8.77587 12.8809 8.54 11.853 8.54C11.0372 8.54 10.5386 8.55824 9.98828 8.60239C9.80424 8.61716 8.90179 8.6993 9.1396 8.67801ZM10.5 16C10.5 15.4554 10.9791 15.248 11.5175 15.248C12.0559 15.248 12.535 15.4554 12.535 16V17C12.535 17.5446 12.0559 17.752 11.5175 17.752C10.9791 17.752 10.5 17.5446 10.5 17V16Z" fill="#989898"/>
</g>
</svg>
