<svg width="21" height="20" viewBox="0 0 21 20" fill="none" xmlns="http://www.w3.org/2000/svg">
<path fill-rule="evenodd" clip-rule="evenodd" d="M12.2929 0.792893C12.6834 0.402369 13.3166 0.402369 13.7071 0.792893L19.7071 6.79289C19.9931 7.07889 20.0787 7.50901 19.9239 7.88268C19.7691 8.25636 19.4045 8.5 19 8.5H1C0.447715 8.5 0 8.05228 0 7.5C0 6.94772 0.447715 6.5 1 6.5H16.5858L12.2929 2.20711C11.9024 1.81658 11.9024 1.18342 12.2929 0.792893ZM0.475615 12.1173C0.630396 11.7436 0.995033 11.5 1.3995 11.5H19.3995C19.9518 11.5 20.3995 11.9477 20.3995 12.5C20.3995 13.0523 19.9518 13.5 19.3995 13.5H3.81371L8.10662 17.7929C8.49714 18.1834 8.49714 18.8166 8.10662 19.2071C7.71609 19.5976 7.08293 19.5976 6.6924 19.2071L0.692389 13.2071C0.406391 12.9211 0.320835 12.491 0.475615 12.1173Z" fill="#989898"/>
</svg>
