<svg width="24" height="24" viewBox="0 0 24 24" fill="none" xmlns="http://www.w3.org/2000/svg">
<path fill-rule="evenodd" clip-rule="evenodd" d="M10.2071 2.24263C9.81658 1.85211 9.18342 1.85211 8.79289 2.24263L2.79289 8.24264C2.40237 8.63316 2.40237 9.26633 2.79289 9.65685C3.18342 10.0474 3.81658 10.0474 4.20711 9.65685L8.5 5.36395V21C8.5 21.5523 8.94772 22 9.5 22C10.0523 22 10.5 21.5523 10.5 21V2.99999C10.5 2.71484 10.4122 2.44767 10.2071 2.24263ZM14.5 2.05025C15.0523 2.05025 15.5 2.49796 15.5 3.05025V18.636L19.7929 14.3431C20.1834 13.9526 20.8166 13.9526 21.2071 14.3431C21.5976 14.7337 21.5976 15.3668 21.2071 15.7573L15.2071 21.7573C14.9211 22.0433 14.491 22.1289 14.1173 21.9741C13.7436 21.8193 13.5 21.4547 13.5 21.0502V3.05025C13.5 2.49796 13.9477 2.05025 14.5 2.05025Z" fill="#989898"/>
</svg>
