<svg width="120" height="24" viewBox="0 0 120 24" fill="none" xmlns="http://www.w3.org/2000/svg">
<path fill-rule="evenodd" clip-rule="evenodd" d="M12.9357 4.60749C12.7599 4.2355 12.3972 4 12 4C11.6028 4 11.2401 4.2355 11.0643 4.60749L9.1573 8.64283L4.89259 9.29393C4.49966 9.35392 4.17338 9.64166 4.0509 10.0362C3.92842 10.4308 4.03097 10.8638 4.31544 11.1532L7.40052 14.2918L6.67243 18.7258C6.60528 19.1348 6.76623 19.548 7.0876 19.7919C7.40897 20.0357 7.83501 20.0678 8.18657 19.8747L12 17.78L15.8134 19.8747C16.165 20.0678 16.591 20.0357 16.9124 19.7919C17.2338 19.548 17.3947 19.1348 17.3276 18.7258L16.5995 14.2918L19.6846 11.1532C19.969 10.8638 20.0716 10.4308 19.9491 10.0362C19.8266 9.64166 19.5003 9.35392 19.1074 9.29393L14.8427 8.64283L12.9357 4.60749Z" fill="#EA5B21"/>
<path fill-rule="evenodd" clip-rule="evenodd" d="M60.9357 4.60749C60.7599 4.2355 60.3972 4 60 4C59.6028 4 59.2401 4.2355 59.0643 4.60749L57.1573 8.64283L52.8926 9.29393C52.4997 9.35392 52.1734 9.64166 52.0509 10.0362C51.9284 10.4308 52.031 10.8638 52.3154 11.1532L55.4005 14.2918L54.6724 18.7258C54.6053 19.1348 54.7662 19.548 55.0876 19.7919C55.409 20.0357 55.835 20.0678 56.1866 19.8747L60 17.78L63.8134 19.8747C64.165 20.0678 64.591 20.0357 64.9124 19.7919C65.2338 19.548 65.3947 19.1348 65.3276 18.7258L64.5995 14.2918L67.6846 11.1532C67.969 10.8638 68.0716 10.4308 67.9491 10.0362C67.8266 9.64166 67.5003 9.35392 67.1074 9.29393L62.8427 8.64283L60.9357 4.60749Z" fill="#EA5B21"/>
<path fill-rule="evenodd" clip-rule="evenodd" d="M36.9357 4.60749C36.7599 4.2355 36.3972 4 36 4C35.6028 4 35.2401 4.2355 35.0643 4.60749L33.1573 8.64283L28.8926 9.29393C28.4997 9.35392 28.1734 9.64166 28.0509 10.0362C27.9284 10.4308 28.031 10.8638 28.3154 11.1532L31.4005 14.2918L30.6724 18.7258C30.6053 19.1348 30.7662 19.548 31.0876 19.7919C31.409 20.0357 31.835 20.0678 32.1866 19.8747L36 17.78L39.8134 19.8747C40.165 20.0678 40.591 20.0357 40.9124 19.7919C41.2338 19.548 41.3947 19.1348 41.3276 18.7258L40.5995 14.2918L43.6846 11.1532C43.969 10.8638 44.0716 10.4308 43.9491 10.0362C43.8266 9.64166 43.5003 9.35392 43.1074 9.29393L38.8427 8.64283L36.9357 4.60749Z" fill="#EA5B21"/>
<path fill-rule="evenodd" clip-rule="evenodd" d="M84.9357 4.60749C84.7599 4.2355 84.3972 4 84 4C83.6028 4 83.2401 4.2355 83.0643 4.60749L81.1573 8.64283L76.8926 9.29393C76.4997 9.35392 76.1734 9.64166 76.0509 10.0362C75.9284 10.4308 76.031 10.8638 76.3154 11.1532L79.4005 14.2918L78.6724 18.7258C78.6053 19.1348 78.7662 19.548 79.0876 19.7919C79.409 20.0357 79.835 20.0678 80.1866 19.8747L84 17.78L87.8134 19.8747C88.165 20.0678 88.591 20.0357 88.9124 19.7919C89.2338 19.548 89.3947 19.1348 89.3276 18.7258L88.5995 14.2918L91.6846 11.1532C91.969 10.8638 92.0716 10.4308 91.9491 10.0362C91.8266 9.64166 91.5003 9.35392 91.1074 9.29393L86.8427 8.64283L84.9357 4.60749Z" fill="#EA5B21"/>
<path d="M108 5.0899L110.15 9.6385L114.957 10.3724L111.479 13.911L112.3 18.9101L108 16.5486L103.701 18.9101L104.522 13.911L101.044 10.3724L105.851 9.6385L108 5.0899Z" fill="#EA5B21"/>
<rect x="108" y="6" width="8" height="18" fill="#F9F9F9"/>
<path fill-rule="evenodd" clip-rule="evenodd" d="M108 4C108.397 4 108.76 4.2355 108.936 4.60749L110.843 8.64283L115.107 9.29393C115.5 9.35392 115.827 9.64166 115.949 10.0362C116.072 10.4308 115.969 10.8638 115.685 11.1532L112.599 14.2918L113.328 18.7258C113.395 19.1348 113.234 19.548 112.912 19.7919C112.591 20.0357 112.165 20.0678 111.813 19.8747L108 17.78L104.187 19.8747C103.835 20.0678 103.409 20.0357 103.088 19.7919C102.766 19.548 102.605 19.1348 102.672 18.7258L103.401 14.2918L100.315 11.1532C100.031 10.8638 99.9284 10.4308 100.051 10.0362C100.173 9.64166 100.5 9.35392 100.893 9.29393L105.157 8.64283L107.064 4.60749C107.24 4.2355 107.603 4 108 4ZM108 7.55232L106.786 10.1209C106.634 10.4423 106.341 10.6651 106.001 10.717L103.285 11.1316L105.25 13.1302C105.496 13.3806 105.608 13.7415 105.55 14.0952L105.087 16.9174L107.514 15.5839C107.818 15.4169 108.182 15.4169 108.486 15.5839L110.913 16.9174L110.45 14.0952C110.392 13.7415 110.504 13.3806 110.75 13.1302L112.715 11.1316L109.999 10.717C109.659 10.6651 109.366 10.4423 109.214 10.1209L108 7.55232Z" fill="#EA5B21"/>
</svg>
