<?xml version="1.0" encoding="UTF-8" standalone="no" ?>
<svg xmlns="http://www.w3.org/2000/svg" xmlns:xlink="http://www.w3.org/1999/xlink" version="1.1" width="512" height="512" viewBox="0 0 512 512" xml:space="preserve">
<g transform="matrix(1 0 0 1 256 256)" id="75912db9-8644-4953-b554-ef95db9f43d4"  >
<rect style="stroke: none; stroke-width: 1; stroke-dasharray: none; stroke-linecap: butt; stroke-dashoffset: 0; stroke-linejoin: miter; stroke-miterlimit: 4; fill: rgb(255,255,255); fill-rule: nonzero; opacity: 1;" vector-effect="non-scaling-stroke"  x="-256" y="-256" rx="0" ry="0" width="512" height="512" />
</g>
<g transform="matrix(Infinity NaN NaN Infinity 0 0)" id="f76c72f5-ca03-4193-817d-ee893dbfa165"  >
</g>
<g transform="matrix(1.07 0 0 1.07 256 256)"  >
<g style="" vector-effect="non-scaling-stroke"   >
		<g transform="matrix(16 0 0 16 0 0)"  >
<path style="stroke: none; stroke-width: 1; stroke-dasharray: none; stroke-linecap: butt; stroke-dashoffset: 0; stroke-linejoin: miter; stroke-miterlimit: 4; fill: rgb(81,94,128); fill-rule: evenodd; opacity: 0.2;" vector-effect="non-scaling-stroke"  transform=" translate(-14.5, -9.5)" d="M 26.58 19 L 2.42 19 C 1.7834738332877795 19.005326487866867 1.1709045231178912 18.757564353711025 0.7170616562317691 18.311223021814754 C 0.26321878934564724 17.864881689918487 0.005282284648003621 17.25652653507238 0 16.62 L 0 2.38 C 0.005282284648002984 1.743473464927622 0.263218789345647 1.1351183100815139 0.7170616562317691 0.6887769781852449 C 1.1709045231178912 0.24243564628897563 1.7834738332877782 -0.005326487866867957 2.419999999999999 0 L 26.58 0 C 27.21652616671222 -0.005326487866868957 27.829095476882106 0.2424356462889748 28.28293834376823 0.6887769781852435 C 28.736781210654353 1.1351183100815123 28.994717715351996 1.743473464927621 29 2.379999999999999 L 29 16.63 C 28.983525683487052 17.95158282918353 27.901638753959478 19.01111672297706 26.58 19 z M 10 5.83 C 10 5.37 9.65 5 9.22 5 L 3.78 5 C 3.3499999999999996 5 3 5.37 3 5.83 L 3 9.17 C 3 9.63 3.35 10 3.7800000000000002 10 L 9.22 10 C 9.65 10 10 9.63 10 9.17 L 10 5.83 z" stroke-linecap="round" />
</g>
		<g transform="matrix(16 0 0 16 0 72)"  >
<path style="stroke: none; stroke-width: 1; stroke-dasharray: none; stroke-linecap: butt; stroke-dashoffset: 0; stroke-linejoin: miter; stroke-miterlimit: 4; fill: rgb(81,94,128); fill-rule: evenodd; opacity: 0.3;" vector-effect="non-scaling-stroke"  transform=" translate(-14.5, -14)" d="M 25 15 L 22 15 C 21.35 15 21 14.7 21 14 C 21 13.3 21.35 13 22 13 L 25 13 C 25.65 13 26 13.3 26 14 C 26 14.7 25.65 15 25 15 z M 19 15 L 16 15 C 15.35 15 15 14.7 15 14 C 15 13.3 15.35 13 16 13 L 19 13 C 19.65 13 20 13.3 20 14 C 20 14.7 19.65 15 19 15 z M 13 15 L 10 15 C 9.35 15 9 14.7 9 14 C 9 13.3 9.35 13 10 13 L 13 13 C 13.65 13 14 13.3 14 14 C 14 14.7 13.65 15 13 15 z M 7 15 L 4 15 C 3.35 15 3 14.7 3 14 C 3 13.3 3.35 13 4 13 L 7 13 C 7.65 13 8 13.3 8 14 C 8 14.7 7.65 15 7 15 z" stroke-linecap="round" />
</g>
</g>
</g>
</svg>
