<?xml version="1.0" encoding="utf-8"?>
<!-- Generator: Adobe Illustrator 22.1.0, SVG Export Plug-In . SVG Version: 6.00 Build 0)  -->
<svg version="1.1" id="Capa_1" xmlns="http://www.w3.org/2000/svg" xmlns:xlink="http://www.w3.org/1999/xlink" x="0px" y="0px"
	 viewBox="0 0 56.5 56.5" style="enable-background:new 0 0 56.5 56.5;" xml:space="preserve"
    width="512px" height="512px">
<style type="text/css">
	.st0{fill:#1C3764;}
</style>
<g>
	<g>
		<path class="st0" d="M12.1,24.9c-0.2-0.1-0.6-0.2-1-0.2l-0.4,0c-0.3,0-0.5,0.2-0.6,0.4l-0.4,1.5C9.8,26.8,9.9,27,10.2,27h0.3
			c0.6,0,1.1-0.1,1.5-0.4c0.4-0.3,0.5-0.6,0.5-1.1C12.5,25.2,12.3,25,12.1,24.9z"/>
	</g>
</g>
<g>
	<g>
		<path class="st0" d="M18.4,28.4c-0.1,0-0.6,0.1-0.9,0.1c-0.3,0-0.6,0.1-0.8,0.2L16.2,29c-0.1,0.1-0.2,0.3-0.2,0.6l0.2,0.4
			c0.2,0.1,0.4,0.1,0.7,0.1c0.2,0,0.4,0,0.6-0.1l0.5-0.2l0.2-0.2c0.1-0.3,0.2-0.9,0.2-1L18.4,28.4z"/>
	</g>
</g>
<g>
	<g>
		<path class="st0" d="M55,9.9H1.5C0.6,9.9,0,10.6,0,11.4v33.7c0,0.8,0.6,1.5,1.5,1.5H55c0.8,0,1.5-0.7,1.5-1.5V11.4
			C56.5,10.6,55.8,9.9,55,9.9z M13.5,27.7c-0.8,0.6-1.9,0.9-3.3,0.9H9.8c-0.3,0-0.5,0.2-0.6,0.4l-0.4,1.7c-0.1,0.2-0.3,0.4-0.6,0.4
			H7.1c-0.3,0-0.4-0.2-0.4-0.4l1.6-7.2c0.1-0.2,0.3-0.4,0.6-0.4l2.4,0c0.5,0,1,0,1.4,0.1c0.4,0.1,0.7,0.2,1,0.4
			c0.3,0.2,0.5,0.4,0.6,0.7c0.2,0.3,0.2,0.6,0.2,1.1C14.7,26.3,14.3,27.1,13.5,27.7z M20.7,26.8l0,0.3l-0.9,3.7
			c0,0.2-0.3,0.4-0.5,0.4l0,0h-0.2h-0.9h0l0,0c-0.2,0-0.4-0.2-0.3-0.4v0l0,0l0-0.2l0,0l-0.4,0.3L17,31.1l-0.6,0.2
			c-0.2,0-0.4,0.1-0.7,0.1c-0.5,0-0.9-0.1-1.2-0.4c-0.3-0.3-0.5-0.7-0.5-1.1c0-0.5,0.1-0.9,0.3-1.2c0.2-0.3,0.6-0.6,1-0.8
			c0.4-0.2,0.9-0.3,1.5-0.4c0.6-0.1,1.1-0.1,1.7-0.2l0.2-0.1l0-0.2c0-0.3-0.1-0.4-0.4-0.5c-0.2-0.1-0.6-0.1-1.1-0.1
			c-0.3,0-0.7,0.1-1.1,0.1c-0.4,0.1-0.5,0.1-0.7,0.2c-0.1,0-0.3,0-0.2-0.3l0.1-0.6c0,0,0.1-0.4,0.5-0.5c0.2,0,0.2-0.1,0.6-0.1
			C17.1,25,17.5,25,18,25c1,0,1.7,0.1,2.1,0.4c0.4,0.2,0.7,0.6,0.7,1.2L20.7,26.8z M22.6,34.1l-1.2,0c-0.3,0-0.3-0.2-0.2-0.4l1-1.8
			c0,0,0.1-0.1,0-0.7c-0.2-1.1-1-5.6-1-5.6c-0.1-0.2,0.1-0.4,0.4-0.4l1,0c0.3,0,0.6,0.2,0.6,0.5l0.5,3.1l0.2,0
			c0.2-0.3,1.8-3.2,1.8-3.2c0.2-0.2,0.5-0.4,0.7-0.4c0,0,1.1,0,1.4,0c0.4,0,0,0.7,0,0.7l-4.7,7.9C23.2,33.9,22.9,34.1,22.6,34.1z
			 M34.7,27.7c-0.8,0.6-1.9,0.9-3.3,0.9h-0.3c-0.3,0-0.5,0.2-0.6,0.4l-0.4,1.7c-0.1,0.2-0.3,0.4-0.6,0.4l-1.2,0
			c-0.2,0-0.4-0.2-0.4-0.4l1.6-7.2c0.1-0.2,0.3-0.4,0.6-0.4l2.4,0c0.5,0,1,0,1.4,0.1c0.4,0.1,0.7,0.2,1,0.4c0.3,0.2,0.5,0.4,0.6,0.7
			c0.2,0.3,0.2,0.6,0.2,1.1C35.9,26.4,35.5,27.1,34.7,27.7z M42,26.8l0,0.3l-0.9,3.7c0,0.2-0.3,0.4-0.5,0.4l0,0h-0.2
			c-0.2,0-0.8,0-0.9,0h0l0,0c-0.2,0-0.4-0.2-0.3-0.4l0,0l0,0l0-0.2l0,0l-0.4,0.3l-0.5,0.3l-0.6,0.2c-0.2,0-0.4,0.1-0.7,0.1
			c-0.5,0-0.9-0.1-1.2-0.4c-0.3-0.3-0.5-0.7-0.5-1.1c0-0.5,0.1-0.9,0.3-1.2c0.2-0.3,0.6-0.6,1-0.8c0.4-0.2,0.9-0.3,1.5-0.4
			c0.6-0.1,1.1-0.1,1.7-0.2l0.2-0.1l0-0.2c0-0.3-0.1-0.4-0.4-0.5c-0.2-0.1-0.6-0.2-1.1-0.2c-0.3,0-0.7,0.1-1.1,0.1
			c-0.4,0.1-0.5,0.1-0.7,0.2c-0.1,0-0.3,0-0.2-0.3l0.1-0.6c0,0,0.1-0.4,0.5-0.5c0.2,0,0.3-0.1,0.6-0.1c0.5-0.1,0.9-0.1,1.4-0.1
			c0.9,0,1.6,0.1,2.1,0.4c0.4,0.2,0.7,0.6,0.7,1.2L42,26.8z M45.8,23.7l-1.6,7.1l-0.1,0.1c-0.1,0.2-0.3,0.4-0.5,0.4h-1.1l0,0
			c-0.2,0-0.3-0.2-0.3-0.4l0,0l0-0.2l1.5-6.7l0.1-0.2l0.1-0.1c0.1-0.2,0.3-0.4,0.5-0.4h1C45.6,23.2,45.8,23.4,45.8,23.7L45.8,23.7z
			 M47.8,22.9h-0.4v0.5l0,0.1l0,0.1l0.1,0.1l0.1,0l0.1,0l0.1,0h0v0.2l-0.1,0l-0.1,0l-0.3-0.1l-0.1-0.3v-0.6h-0.1v-0.2h0.1v-0.3h0.2
			v0.3h0.4V22.9z M49.7,23.1v0.7h-0.2v-0.6l0-0.1l0-0.1l-0.1-0.1l-0.1,0l-0.2,0L49,23l0,0.1l0,0.1v0.7h-0.2v-0.6l0-0.1l0-0.1
			l-0.1-0.1l-0.1,0l-0.2,0L48.3,23v0.9h-0.2v-1.1h0.2v0.1l0.2-0.1l0.2,0l0.2,0l0.1,0.1l0.2-0.1l0.2,0l0.3,0.1L49.7,23.1
			C49.7,23.2,49.7,23.2,49.7,23.1z"/>
	</g>
</g>
<g>
	<g>
		<path class="st0" d="M39.6,28.4c-0.1,0-0.6,0.1-0.9,0.1c-0.3,0-0.6,0.1-0.8,0.2c-0.2,0.1-0.4,0.2-0.5,0.3
			c-0.1,0.1-0.2,0.3-0.2,0.6l0.2,0.4c0.1,0.1,0.4,0.1,0.7,0.1c0.2,0,0.4,0,0.6-0.1l0.5-0.2l0.2-0.2c0.1-0.3,0.2-0.9,0.2-1L39.6,28.4
			z"/>
	</g>
</g>
<g>
	<g>
		<path class="st0" d="M33.4,24.9c-0.2-0.2-0.6-0.2-1-0.2l-0.4,0c-0.3,0-0.5,0.2-0.6,0.4l-0.4,1.5c-0.1,0.2,0.1,0.4,0.4,0.4h0.3
			c0.6,0,1.1-0.1,1.5-0.4c0.3-0.3,0.5-0.6,0.5-1.1C33.7,25.3,33.6,25,33.4,24.9z"/>
	</g>
</g>
</svg>
