<svg width="24" height="24" viewBox="0 0 24 24" fill="none" xmlns="http://www.w3.org/2000/svg">
<g id="alert/alert">
<path id="Transparent BG" d="M0.005 0.005H23.995V23.995H0.005V0.005Z" stroke="white" stroke-opacity="0.01" stroke-width="0.01"/>
<path id="Combined Shape" fill-rule="evenodd" clip-rule="evenodd" d="M2.00699 16.4356C1.14302 17.8493 1.58872 19.6958 3.00249 20.5598C3.47351 20.8476 4.01482 20.9999 4.56684 20.9999H19.4346C21.0915 20.9999 22.4346 19.6568 22.4346 17.9999C22.4346 17.4479 22.2823 16.9066 21.9945 16.4356L14.5606 4.27104C13.6966 2.85728 11.8501 2.41158 10.4364 3.27555C10.0303 3.52372 9.68905 3.86494 9.44088 4.27104L2.00699 16.4356ZM20.4346 17.9999C20.4346 18.5522 19.9869 18.9999 19.4346 18.9999H4.56684C4.38283 18.9999 4.20239 18.9492 4.04539 18.8532C3.57413 18.5652 3.42557 17.9497 3.71355 17.4785L11.1474 5.31394C11.2302 5.17858 11.3439 5.06483 11.4793 4.98211C11.9505 4.69412 12.566 4.84269 12.854 5.31394L20.2879 17.4785C20.3838 17.6355 20.4346 17.8159 20.4346 17.9999ZM11.0007 8.99993H13.0007V14.9999H11.0007V8.99993ZM13.0007 15.9999H11.0007V17.9999H13.0007V15.9999Z" fill="#EA5B21"/>
</g>
</svg>
