<svg width="55" height="36" viewBox="0 0 55 36" fill="none" xmlns="http://www.w3.org/2000/svg">
<rect x="1" y="1" width="53" height="34" rx="8" fill="#E9E9E9" stroke="#333333" stroke-width="2"/>
<rect x="1" y="10" width="52" height="5" fill="#333333"/>
<rect x="6" y="18" width="27" height="6" fill="white"/>
<rect x="35.5" y="18.5" width="14" height="5" fill="white" stroke="#E53535"/>
<path d="M38.484 22.084C38.2413 22.084 38.036 22 37.868 21.832C37.7 21.664 37.616 21.4587 37.616 21.216C37.616 20.9733 37.7 20.768 37.868 20.6C38.036 20.432 38.2413 20.348 38.484 20.348C38.7173 20.348 38.9133 20.432 39.072 20.6C39.24 20.768 39.324 20.9733 39.324 21.216C39.324 21.4587 39.24 21.664 39.072 21.832C38.9133 22 38.7173 22.084 38.484 22.084ZM42.5435 22.084C42.3008 22.084 42.0955 22 41.9275 21.832C41.7595 21.664 41.6755 21.4587 41.6755 21.216C41.6755 20.9733 41.7595 20.768 41.9275 20.6C42.0955 20.432 42.3008 20.348 42.5435 20.348C42.7768 20.348 42.9728 20.432 43.1315 20.6C43.2995 20.768 43.3835 20.9733 43.3835 21.216C43.3835 21.4587 43.2995 21.664 43.1315 21.832C42.9728 22 42.7768 22.084 42.5435 22.084ZM46.6029 22.084C46.3602 22.084 46.1549 22 45.9869 21.832C45.8189 21.664 45.7349 21.4587 45.7349 21.216C45.7349 20.9733 45.8189 20.768 45.9869 20.6C46.1549 20.432 46.3602 20.348 46.6029 20.348C46.8362 20.348 47.0322 20.432 47.1909 20.6C47.3589 20.768 47.4429 20.9733 47.4429 21.216C47.4429 21.4587 47.3589 21.664 47.1909 21.832C47.0322 22 46.8362 22.084 46.6029 22.084Z" fill="#333333"/>
</svg>
