<svg width="19" height="19" viewBox="0 0 19 19" fill="none" xmlns="http://www.w3.org/2000/svg">
<path d="M6.33341 7.37235C6.33341 5.62346 7.75118 4.20569 9.50008 4.20569C11.249 4.20569 12.6667 5.62346 12.6667 7.37235C12.6667 8.84789 11.6576 10.0877 10.2917 10.4393V11.3307C10.2917 11.7679 9.93731 12.1224 9.50008 12.1224C9.06286 12.1224 8.70841 11.7679 8.70841 11.3307V9.74735C8.70841 9.31013 9.06286 8.95569 9.50008 8.95569C10.3745 8.95569 11.0834 8.2468 11.0834 7.37235C11.0834 6.49791 10.3745 5.78902 9.50008 5.78902C8.62563 5.78902 7.91675 6.49791 7.91675 7.37235C7.91675 7.80958 7.56231 8.16402 7.12508 8.16402C6.68786 8.16402 6.33341 7.80958 6.33341 7.37235Z" fill="#989898"/>
<path d="M10.4897 13.9036C10.4897 14.4501 10.0466 14.8932 9.50008 14.8932C8.95355 14.8932 8.5105 14.4501 8.5105 13.9036C8.5105 13.3571 8.95355 12.914 9.50008 12.914C10.0466 12.914 10.4897 13.3571 10.4897 13.9036Z" fill="#989898"/>
<path fill-rule="evenodd" clip-rule="evenodd" d="M3.34236 3.34223C4.91741 1.76721 7.09558 0.791626 9.50008 0.791626C11.9046 0.791626 14.0828 1.76721 15.6578 3.34223C17.2328 4.91728 18.2084 7.09545 18.2084 9.49996C18.2084 11.9045 17.2328 14.0826 15.6578 15.6577C14.0828 17.2327 11.9046 18.2083 9.50008 18.2083C7.09557 18.2083 4.91741 17.2327 3.34236 15.6577C1.76734 14.0826 0.791748 11.9045 0.791748 9.49996C0.791748 7.09545 1.76734 4.91728 3.34236 3.34223ZM9.50008 2.37496C7.53237 2.37496 5.7522 3.17159 4.46194 4.46183C3.1717 5.75209 2.37508 7.53225 2.37508 9.49996C2.37508 11.4677 3.17171 13.2478 4.46195 14.5381C5.7522 15.8283 7.53237 16.625 9.50008 16.625C11.4678 16.625 13.248 15.8283 14.5382 14.5381C15.8284 13.2478 16.6251 11.4677 16.6251 9.49996C16.6251 7.53225 15.8284 5.75208 14.5382 4.46182C13.248 3.17159 11.4678 2.37496 9.50008 2.37496Z" fill="#989898"/>
</svg>
