<svg width="15" height="15" viewBox="0 0 15 15" fill="none" xmlns="http://www.w3.org/2000/svg">
<path fill-rule="evenodd" clip-rule="evenodd" d="M7.33373 4.48691C5.75431 4.48691 4.47412 5.76496 4.47412 7.34499C4.47412 8.92502 5.75431 10.2061 7.33373 10.2061C8.91315 10.2061 10.1933 8.92502 10.1933 7.34499C10.1933 5.76496 8.91315 4.48691 7.33373 4.48691ZM7.3336 5.70703C8.23769 5.70703 8.97311 6.44214 8.97311 7.34502C8.97311 8.25094 8.23769 8.98605 7.3336 8.98605C6.42951 8.98605 5.69409 8.25094 5.69409 7.34502C5.69409 6.44214 6.42951 5.70703 7.3336 5.70703Z" fill="#989898"/>
<path fill-rule="evenodd" clip-rule="evenodd" d="M7.33372 11.9966C4.76877 11.9966 2.68209 9.91024 2.68209 7.34498C2.68209 4.77972 4.76877 2.69336 7.33372 2.69336C9.89867 2.69336 11.9853 4.77972 11.9853 7.34498C11.9853 9.91024 9.89867 11.9966 7.33372 11.9966ZM14.0565 6.72274H13.1716C12.8815 3.97447 10.6948 1.79049 7.94345 1.50682V0.610049C7.94345 0.271472 7.67015 0 7.3334 0C6.99666 0 6.72335 0.271472 6.72335 0.610049V1.50682C3.97203 1.79049 1.78531 3.97447 1.49523 6.72274H0.610049C0.273302 6.72274 0 6.99727 0 7.33279C0 7.66832 0.273302 7.94284 0.610049 7.94284H1.49188C1.77097 10.7033 3.96349 12.8995 6.72335 13.1862V14.0555C6.72335 14.3941 6.99666 14.6656 7.3334 14.6656C7.67015 14.6656 7.94345 14.3941 7.94345 14.0555V13.1862C10.7033 12.8995 12.8958 10.7033 13.1749 7.94284H14.0565C14.3935 7.94284 14.6665 7.66832 14.6665 7.33279C14.6665 6.99727 14.3935 6.72274 14.0565 6.72274Z" fill="#989898"/>
</svg>
