<svg width="18" height="18" viewBox="0 0 18 18" fill="none" xmlns="http://www.w3.org/2000/svg">
<path d="M9.75 11.25C9.75 10.8358 9.41421 10.5 9 10.5C8.58579 10.5 8.25 10.8358 8.25 11.25V13.5C8.25 13.9142 8.58579 14.25 9 14.25C9.41421 14.25 9.75 13.9142 9.75 13.5V11.25Z" fill="white"/>
<path fill-rule="evenodd" clip-rule="evenodd" d="M4.5 5.25V7.5H3C2.17157 7.5 1.5 8.17157 1.5 9V15.75C1.5 16.5784 2.17157 17.25 3 17.25H15C15.8284 17.25 16.5 16.5784 16.5 15.75V9C16.5 8.17157 15.8284 7.5 15 7.5H13.5V5.25C13.5 2.76472 11.4853 0.75 9 0.75C6.51474 0.75 4.5 2.76472 4.5 5.25ZM9 2.25C7.34316 2.25 6 3.59315 6 5.25V7.5H12V5.25C12 3.59315 10.6568 2.25 9 2.25ZM3 9H15V15.75H3V9Z" fill="white"/>
</svg>
