<svg width="63" height="70" viewBox="0 0 63 70" fill="none" xmlns="http://www.w3.org/2000/svg">
<path d="M2.08508 0.237178H59.5043V57.6564H2.08508V0.237178Z" stroke="white" stroke-opacity="0.01" stroke-width="0.01"/>
<path fill-rule="evenodd" clip-rule="evenodd" d="M32.8816 54.047L30.7951 57.7632L28.7086 54.047C28.5929 53.841 28.379 53.4561 28.0809 52.9134C27.5857 52.0119 27.0344 50.9948 26.4409 49.8831C24.7451 46.7067 23.0492 43.4052 21.4644 40.145C20.7679 38.7123 20.1072 37.3161 19.4876 35.9646C16.0126 28.3847 14.0449 22.7615 14.0449 19.3752C14.0449 10.1243 21.5442 2.625 30.7951 2.625C40.046 2.625 47.5453 10.1243 47.5453 19.3752C47.5453 22.7615 45.5776 28.3847 42.1026 35.9646C41.483 37.3161 40.8223 38.7123 40.1259 40.145C38.5411 43.4052 36.8451 46.7067 35.1493 49.8831C34.5558 50.9948 34.0045 52.0119 33.5093 52.9134C33.2112 53.4561 32.9973 53.841 32.8816 54.047ZM30.9274 47.6292C32.5966 44.5026 34.2656 41.2534 35.8215 38.0527C36.5027 36.6513 37.1481 35.2875 37.7521 33.9701C40.9181 27.0641 42.7594 21.8023 42.7594 19.3751C42.7594 12.7674 37.4027 7.41073 30.7949 7.41073C24.1872 7.41073 18.8305 12.7674 18.8305 19.3751C18.8305 21.8023 20.6718 27.0641 23.8378 33.9701C24.4417 35.2875 25.0872 36.6513 25.7684 38.0527C27.3243 41.2534 28.9933 44.5026 30.6625 47.6292L30.7949 47.877L30.9274 47.6292ZM35.5808 19.3751C35.5808 22.0183 33.4381 24.1609 30.795 24.1609C28.1519 24.1609 26.0093 22.0183 26.0093 19.3751C26.0093 16.732 28.1519 14.5894 30.795 14.5894C33.4381 14.5894 35.5808 16.732 35.5808 19.3751Z" fill="#EA5B21"/>
<path d="M54.4496 57.6613C54.4496 58.282 54.0176 59.0302 52.8533 59.8398C51.7112 60.634 50.0095 61.3795 47.8392 62.0179C43.5085 63.2916 37.4812 64.09 30.7922 64.09C24.1031 64.09 18.0759 63.2916 13.7452 62.0179C11.5749 61.3795 9.87318 60.634 8.731 59.8398C7.56675 59.0302 7.13477 58.282 7.13477 57.6613C7.13477 57.0406 7.56675 56.2924 8.731 55.4828C9.87318 54.6886 11.5749 53.9431 13.7452 53.3048C18.0759 52.031 24.1031 51.2327 30.7922 51.2327C37.4812 51.2327 43.5085 52.031 47.8392 53.3048C50.0095 53.9431 51.7112 54.6886 52.8533 55.4828C54.0176 56.2924 54.4496 57.0406 54.4496 57.6613Z" stroke="#EA5B21" stroke-width="1.5"/>
<path d="M62.129 57.6614C62.129 59.1493 61.3194 60.5973 59.7881 61.9445C58.2571 63.2913 56.0274 64.5156 53.2507 65.5488C47.6991 67.6145 40.0129 68.8972 31.5108 68.8972C23.0086 68.8972 15.3224 67.6145 9.77085 65.5488C6.9941 64.5156 4.76443 63.2913 3.23348 61.9445C1.70212 60.5973 0.892578 59.1493 0.892578 57.6614C0.892578 56.1735 1.70212 54.7255 3.23348 53.3783C4.76443 52.0315 6.9941 50.8072 9.77085 49.774C15.3224 47.7083 23.0086 46.4255 31.5108 46.4255C40.0129 46.4255 47.6991 47.7083 53.2507 49.774C56.0274 50.8072 58.2571 52.0315 59.7881 53.3783C61.3194 54.7255 62.129 56.1735 62.129 57.6614Z" stroke="#EA5B21" stroke-width="0.5"/>
</svg>
