<svg width="58" height="40" viewBox="0 0 58 40" fill="none" xmlns="http://www.w3.org/2000/svg">
<g filter="url(#filter0_d)">
<path fill-rule="evenodd" clip-rule="evenodd" d="M8 2C5.79086 2 4 3.79086 4 6V30C4 32.2091 5.79086 34 8 34H50C52.2091 34 54 32.2091 54 30V6C54 3.79086 52.2091 2 50 2H8Z" fill="white"/>
<path fill-rule="evenodd" clip-rule="evenodd" d="M22 28C27.5228 28 32 23.5228 32 18C32 12.4772 27.5228 8 22 8C16.4772 8 12 12.4772 12 18C12 23.5228 16.4772 28 22 28Z" fill="#F6635F"/>
<path fill-rule="evenodd" clip-rule="evenodd" d="M36 28C41.5228 28 46 23.5228 46 18C46 12.4772 41.5228 8 36 8C30.4772 8 26 12.4772 26 18C26 23.5228 30.4772 28 36 28Z" fill="#FFB548"/>
<path fill-rule="evenodd" clip-rule="evenodd" d="M29 10.8585C27.1486 12.6734 26 15.2026 26 18C26 20.7973 27.1486 23.3265 29 25.1414C30.8514 23.3265 32 20.7973 32 18C32 15.2026 30.8514 12.6734 29 10.8585Z" fill="#FF8150"/>
</g>
<defs>
<filter id="filter0_d" x="0" y="0" width="58" height="40" filterUnits="userSpaceOnUse" color-interpolation-filters="sRGB">
<feFlood flood-opacity="0" result="BackgroundImageFix"/>
<feColorMatrix in="SourceAlpha" type="matrix" values="0 0 0 0 0 0 0 0 0 0 0 0 0 0 0 0 0 0 127 0"/>
<feOffset dy="2"/>
<feGaussianBlur stdDeviation="2"/>
<feColorMatrix type="matrix" values="0 0 0 0 0 0 0 0 0 0 0 0 0 0 0 0 0 0 0.2 0"/>
<feBlend mode="normal" in2="BackgroundImageFix" result="effect1_dropShadow"/>
<feBlend mode="normal" in="SourceGraphic" in2="effect1_dropShadow" result="shape"/>
</filter>
</defs>
</svg>
