<svg width="60" height="60" viewBox="0 0 60 60" fill="none" xmlns="http://www.w3.org/2000/svg">
<g filter="url(#filter0_d)">
<circle cx="30" cy="25" r="20" fill="white"/>
</g>
<path d="M31.667 35C31.646 35 31.626 34.999 31.606 34.998C31.154 34.971 30.777 34.643 30.687 34.199L29.149 26.632C29.069 26.238 28.762 25.931 28.368 25.851L20.801 24.312C20.357 24.223 20.029 23.846 20.002 23.394C19.975 22.941 20.254 22.527 20.684 22.385L36.684 17.052C37.043 16.93 37.439 17.024 37.707 17.293C37.975 17.561 38.068 17.957 37.949 18.316L32.615 34.316C32.479 34.727 32.095 35 31.667 35Z" fill="#0D1C2E"/>
<mask id="mask0" mask-type="alpha" maskUnits="userSpaceOnUse" x="20" y="16" width="18" height="19">
<path d="M31.667 35C31.646 35 31.626 34.999 31.606 34.998C31.154 34.971 30.777 34.643 30.687 34.199L29.149 26.632C29.069 26.238 28.762 25.931 28.368 25.851L20.801 24.312C20.357 24.223 20.029 23.846 20.002 23.394C19.975 22.941 20.254 22.527 20.684 22.385L36.684 17.052C37.043 16.93 37.439 17.024 37.707 17.293C37.975 17.561 38.068 17.957 37.949 18.316L32.615 34.316C32.479 34.727 32.095 35 31.667 35Z" fill="white"/>
</mask>
<g mask="url(#mask0)">
</g>
<defs>
<filter id="filter0_d" x="0" y="0" width="60" height="60" filterUnits="userSpaceOnUse" color-interpolation-filters="sRGB">
<feFlood flood-opacity="0" result="BackgroundImageFix"/>
<feColorMatrix in="SourceAlpha" type="matrix" values="0 0 0 0 0 0 0 0 0 0 0 0 0 0 0 0 0 0 127 0"/>
<feOffset dy="5"/>
<feGaussianBlur stdDeviation="5"/>
<feColorMatrix type="matrix" values="0 0 0 0 0.247059 0 0 0 0 0.317647 0 0 0 0 0.709804 0 0 0 0.1 0"/>
<feBlend mode="normal" in2="BackgroundImageFix" result="effect1_dropShadow"/>
<feBlend mode="normal" in="SourceGraphic" in2="effect1_dropShadow" result="shape"/>
</filter>
</defs>
</svg>
