<svg width="18" height="16" viewBox="0 0 18 16" fill="none" xmlns="http://www.w3.org/2000/svg">
<path d="M13.0691 14.0005C12.9515 14.0005 12.8332 13.9758 12.7245 13.9251L8.92992 12.1491L5.13606 13.9251C4.88453 14.0418 4.5809 14.0218 4.35318 13.8725C4.12397 13.7231 4.01011 13.4705 4.05848 13.2205L4.78109 9.46847L1.71504 6.8118C1.51113 6.63513 1.43746 6.3698 1.52453 6.12713C1.6116 5.8858 1.84453 5.70913 2.12583 5.67313L6.36769 5.12113L8.26388 1.7038C8.51541 1.25047 9.34518 1.25047 9.59671 1.7038L11.4929 5.12113L15.7348 5.67313C16.0161 5.70913 16.249 5.8858 16.3361 6.12713C16.4231 6.3698 16.3495 6.63513 16.1456 6.8118L13.0795 9.46847L13.8021 13.2205C13.8505 13.4705 13.7359 13.7231 13.5074 13.8725C13.3779 13.9578 13.2239 14.0005 13.0691 14.0005Z" fill="#EA5B21"/>
<mask id="mask0" mask-type="alpha" maskUnits="userSpaceOnUse" x="1" y="1" width="16" height="14">
<path d="M13.0691 14.0005C12.9515 14.0005 12.8332 13.9758 12.7245 13.9251L8.92992 12.1491L5.13606 13.9251C4.88453 14.0418 4.5809 14.0218 4.35318 13.8725C4.12397 13.7231 4.01011 13.4705 4.05848 13.2205L4.78109 9.46847L1.71504 6.8118C1.51113 6.63513 1.43746 6.3698 1.52453 6.12713C1.6116 5.8858 1.84453 5.70913 2.12583 5.67313L6.36769 5.12113L8.26388 1.7038C8.51541 1.25047 9.34518 1.25047 9.59671 1.7038L11.4929 5.12113L15.7348 5.67313C16.0161 5.70913 16.249 5.8858 16.3361 6.12713C16.4231 6.3698 16.3495 6.63513 16.1456 6.8118L13.0795 9.46847L13.8021 13.2205C13.8505 13.4705 13.7359 13.7231 13.5074 13.8725C13.3779 13.9578 13.2239 14.0005 13.0691 14.0005Z" fill="white"/>
</mask>
<g mask="url(#mask0)">
</g>
</svg>
