<svg width="24" height="24" viewBox="0 0 24 24" fill="none" xmlns="http://www.w3.org/2000/svg">
<g id="finance/promo">
<path id="Transparent BG" d="M0.005 0.005H23.995V23.995H0.005V0.005Z" stroke="white" stroke-opacity="0.01" stroke-width="0.01"/>
<g id="Group 12750">
<path id="Combined Shape" fill-rule="evenodd" clip-rule="evenodd" d="M19 15.4649C17.8044 14.7733 17 13.4806 17 12C17 10.5194 17.8044 9.22675 19 8.53513V8H5.00002V8.53513C6.19562 9.22675 7.00002 10.5194 7.00002 12C7.00002 13.4806 6.19562 14.7733 5.00002 15.4649V16H19V15.4649ZM21 15V14C19.8954 14 19 13.1046 19 12C19 10.8954 19.8954 10 21 10V9V6H3L3 9V10C4.10457 10 5 10.8954 5 12C5 13.1046 4.10457 14 3 14V15L3 18H21V15Z" fill="#EA5B21"/>
<path id="Nunc justo eros, vehicula vel vehicula ut, lacinia a erat. Nam " d="M8.62329 10.4688C8.62329 10.08 8.73369 9.77995 8.95449 9.56875C9.18009 9.35755 9.47049 9.25195 9.82569 9.25195C10.1809 9.25195 10.4689 9.35755 10.6897 9.56875C10.9105 9.77995 11.0209 10.08 11.0209 10.4688C11.0209 10.8576 10.9105 11.1576 10.6897 11.3688C10.4689 11.58 10.1809 11.6856 9.82569 11.6856C9.47049 11.6856 9.18009 11.58 8.95449 11.3688C8.73369 11.1576 8.62329 10.8576 8.62329 10.4688ZM13.5121 9.33115L10.7401 14.4H9.55209L12.3241 9.33115H13.5121ZM9.81849 9.97195C9.58809 9.97195 9.47289 10.1376 9.47289 10.4688C9.47289 10.7952 9.58809 10.9584 9.81849 10.9584C9.92889 10.9584 10.0153 10.9176 10.0777 10.836C10.1401 10.7544 10.1713 10.632 10.1713 10.4688C10.1713 10.1376 10.0537 9.97195 9.81849 9.97195ZM12.0505 13.2624C12.0505 12.8736 12.1609 12.5736 12.3817 12.3624C12.6025 12.1512 12.8905 12.0456 13.2457 12.0456C13.6009 12.0456 13.8889 12.1512 14.1097 12.3624C14.3305 12.5736 14.4409 12.8736 14.4409 13.2624C14.4409 13.6512 14.3305 13.9512 14.1097 14.1624C13.8889 14.3736 13.6009 14.4792 13.2457 14.4792C12.8905 14.4792 12.6025 14.3736 12.3817 14.1624C12.1609 13.9512 12.0505 13.6512 12.0505 13.2624ZM13.2385 12.7656C13.1281 12.7656 13.0417 12.8064 12.9793 12.888C12.9217 12.9696 12.8929 13.0944 12.8929 13.2624C12.8929 13.5888 13.0081 13.752 13.2385 13.752C13.3489 13.752 13.4353 13.7112 13.4977 13.6296C13.5601 13.548 13.5913 13.4256 13.5913 13.2624C13.5913 13.0992 13.5601 12.9768 13.4977 12.8952C13.4353 12.8088 13.3489 12.7656 13.2385 12.7656Z" fill="#EA5B21"/>
</g>
</g>
</svg>
