<svg width="24" height="24" viewBox="0 0 24 24" fill="none" xmlns="http://www.w3.org/2000/svg">
<path d="M0.005 0.005H23.995V23.995H0.005V0.005Z" stroke="white" stroke-opacity="0.01" stroke-width="0.01"/>
<path fill-rule="evenodd" clip-rule="evenodd" d="M12 19C15.866 19 19 15.866 19 12C19 8.13401 15.866 5.00001 12 5.00001C8.13403 5.00001 5.00002 8.13401 5.00002 12C5.00002 15.866 8.13403 19 12 19ZM12 21C7.02944 21 3 16.9706 3 12C3 7.02944 7.02944 3 12 3C16.9706 3 21 7.02944 21 12C21 16.9706 16.9706 21 12 21ZM11 12.4142V6.99999H13V11.5693L15.7071 14.2929L14.2929 15.7071L11 12.4142Z" fill="#EA5B21"/>
</svg>
