<svg width="24" height="25" viewBox="0 0 24 25" fill="none" xmlns="http://www.w3.org/2000/svg">
<path d="M8.5 1.58594C7.94772 1.58594 7.5 2.03365 7.5 2.58594C7.5 3.13822 7.94772 3.58594 8.5 3.58594H15.5C16.0523 3.58594 16.5 3.13822 16.5 2.58594C16.5 2.03365 16.0523 1.58594 15.5 1.58594H8.5Z" fill="#EA5B21"/>
<path d="M13 9.58594C13 9.03365 12.5523 8.58594 12 8.58594C11.4477 8.58594 11 9.03365 11 9.58594V14.0859C11 14.6382 11.4477 15.0859 12 15.0859C12.5523 15.0859 13 14.6382 13 14.0859V9.58594Z" fill="#EA5B21"/>
<path fill-rule="evenodd" clip-rule="evenodd" d="M12 4.58594C6.75332 4.58594 2.5 8.83925 2.5 14.0859C2.5 19.3326 6.75332 23.5859 12 23.5859C17.2467 23.5859 21.5 19.3326 21.5 14.0859C21.5 11.4408 20.4189 9.04811 18.6745 7.32567L19.7071 6.29304C20.0976 5.90252 20.0976 5.26936 19.7071 4.87883C19.3166 4.48831 18.6834 4.48831 18.2929 4.87883L17.1013 6.07039C15.6277 5.13054 13.8774 4.58594 12 4.58594ZM4.5 14.0859C4.5 9.94382 7.85788 6.58594 12 6.58594C16.1421 6.58594 19.5 9.94382 19.5 14.0859C19.5 18.2281 16.1421 21.5859 12 21.5859C7.85788 21.5859 4.5 18.2281 4.5 14.0859Z" fill="#EA5B21"/>
</svg>
