<svg width="117" height="47" viewBox="0 0 117 47" fill="none" xmlns="http://www.w3.org/2000/svg">
<g clip-path="url(#clip0)">
<path d="M84.9701 36.4687L84.8043 36.4687C83.736 36.4687 82.8703 37.3351 82.8703 38.4043L82.8703 39.0403C82.8703 39.0542 82.8703 39.068 82.8703 39.0818C82.8703 40.1741 83.4459 41.1281 84.3024 41.6719C83.4735 44.2666 81.5442 46.0778 79.2879 46.0778C78.7998 46.0778 76.9487 46.0778 76.456 46.0778L76.2349 46.0686C73.7208 46.0686 71.4967 43.9855 70.7231 40.9668L70.4284 40.9668L53.1332 40.9668L48.0772 40.9668L45.913 40.9668L32.8955 40.9668L32.808 40.9576C32.2048 43.8242 30.2754 45.9534 27.8902 46.064C24.8833 46.2023 22.2909 43.0776 22.1021 39.0818C22.0929 38.9251 22.0929 38.773 22.0929 38.6209L22.0744 38.6209L12.7085 38.6209C10.2312 38.6209 8.20508 36.1322 8.20508 33.0905L8.20508 6.80242C8.20508 3.76068 10.2311 1.27197 12.7085 1.27197L95.7773 1.27197C98.1809 1.27196 100.267 2.93571 100.801 5.28154L103.509 17.1951C103.757 18.2873 104.36 19.2598 105.226 19.9695L108.376 22.5504C109.509 23.4767 110.162 24.8639 110.162 26.3295L110.162 36.4687" stroke="#EA5B21" stroke-width="1.5" stroke-linejoin="round"/>
<path d="M84.961 36.4641C85.1775 35.994 85.2972 35.4686 85.2972 34.9155L85.2972 26.3295C85.2972 24.864 84.6387 23.4767 83.5106 22.5504L80.361 19.9695C79.4953 19.2598 78.8921 18.2873 78.6434 17.1951L75.9358 5.28155C75.4017 2.93572 73.3204 1.27197 70.9121 1.27197" stroke="#EA5B21" stroke-width="1.5" stroke-linejoin="round"/>
<path d="M50.7813 46.0733C51.2693 46.0733 53.4796 46.0779 53.9677 46.0779C56.4174 46.0779 58.4941 43.9302 59.1802 40.9714L55.6116 40.9714" stroke="#EA5B21" stroke-width="1.5" stroke-linejoin="round"/>
<path d="M55.8327 40.957C55.2295 43.8282 53.3001 45.9575 50.9149 46.0681C48.3961 46.1833 46.1674 44.008 45.3984 40.9524" stroke="#EA5B21" stroke-width="1.5" stroke-linejoin="round"/>
<path d="M53.1531 40.9392C52.665 42.0223 51.7901 42.755 50.7586 42.8057C49.6627 42.8564 48.6635 42.1144 48.0879 40.9669" stroke="#EA5B21" stroke-width="1.5" stroke-linejoin="round"/>
<path d="M99.084 46.0733C99.5721 46.0733 101.423 46.0733 101.916 46.0733C104.025 46.0733 105.858 44.4787 106.765 42.1467L103.675 42.1467" stroke="#EA5B21" stroke-width="1.5" stroke-linejoin="round"/>
<path d="M103.832 42.1513C103.003 44.4003 101.295 45.9765 99.2546 46.0687C97.072 46.1701 95.1104 44.5524 94.125 42.1375" stroke="#EA5B21" stroke-width="1.5" stroke-linejoin="round"/>
<path d="M100.637 42.1513C100.2 42.5431 99.6746 42.7827 99.1036 42.8104C98.4543 42.8426 97.8373 42.5938 97.3262 42.1467" stroke="#EA5B21" stroke-width="1.5" stroke-linejoin="round"/>
<path d="M27.7449 42.8114C29.396 42.7302 30.647 40.8858 30.5393 38.6918C30.4315 36.4978 29.0057 34.7851 27.3547 34.8663C25.7037 34.9476 24.4526 36.792 24.5604 38.986C24.6681 41.18 26.0939 42.8927 27.7449 42.8114Z" stroke="#EA5B21" stroke-width="1.5" stroke-linejoin="round"/>
<path d="M85.3809 25.3525L110.159 25.3525" stroke="#EA5B21" stroke-width="1.5" stroke-linejoin="round"/>
<path d="M78.9395 17.9785L103.713 17.9785" stroke="#EA5B21" stroke-width="1.5" stroke-linejoin="round"/>
<path d="M8.20508 29.0901L56.7156 29.0901" stroke="#EA5B21" stroke-width="1.5" stroke-linejoin="round"/>
<path d="M56.541 1.27197L56.541 40.4783" stroke="#EA5B21" stroke-width="1.5" stroke-linejoin="round"/>
<path d="M75.7148 4.44263L100.488 4.44262" stroke="#EA5B21" stroke-width="1.5" stroke-linejoin="round"/>
<path d="M92.0899 17.9786L89.0508 4.65479" stroke="#EA5B21" stroke-width="1.5" stroke-linejoin="round"/>
<path d="M90.7768 25.3525L90.7768 26.3019C90.7768 26.8458 90.3347 27.2882 89.7914 27.2882L88.8428 27.2882C88.2995 27.2882 87.8574 26.8458 87.8574 26.3019L87.8574 25.3525" stroke="#EA5B21" stroke-width="1.5" stroke-linejoin="round"/>
<path d="M107.359 25.3525L107.359 26.3019C107.359 26.8458 106.917 27.2882 106.373 27.2882L105.425 27.2882C104.882 27.2882 104.439 26.8458 104.439 26.3019L104.439 25.3525" stroke="#EA5B21" stroke-width="1.5" stroke-linejoin="round"/>
<path d="M91.4824 30.1133L104.279 30.1133" stroke="#EA5B21" stroke-width="1.5" stroke-linejoin="round"/>
<path d="M91.9824 32.1089L103.669 32.1089" stroke="#EA5B21" stroke-width="1.5" stroke-linejoin="round"/>
<path d="M91.2695 34.1045L104.305 34.1045" stroke="#EA5B21" stroke-width="1.5" stroke-linejoin="round"/>
<path d="M91.9837 32.1195C92.063 30.5052 91.143 29.148 89.9289 29.0883C88.7148 29.0286 87.6662 30.2888 87.5869 31.9032C87.5076 33.5175 88.4276 34.8746 89.6418 34.9343C90.8559 34.9941 91.9044 33.7338 91.9837 32.1195Z" stroke="#EA5B21" stroke-width="1.5" stroke-linejoin="round"/>
<path d="M108.097 32.1217C108.176 30.5073 107.256 29.1502 106.042 29.0905C104.828 29.0308 103.779 30.291 103.7 31.9054C103.621 33.5197 104.541 34.8768 105.755 34.9365C106.969 34.9963 108.018 33.736 108.097 32.1217Z" stroke="#EA5B21" stroke-width="1.5" stroke-linejoin="round"/>
<path d="M0.732422 46.5386L116.624 46.5386" stroke="#EA5B21" stroke-width="1.5" stroke-linejoin="round"/>
<path d="M84.9708 36.4685L84.8051 36.4685C83.7368 36.4685 82.8711 37.3349 82.8711 38.4042L82.8711 39.0402C82.8711 39.054 82.8711 39.0678 82.8711 39.0816C82.8757 40.7823 84.2617 42.1557 85.9608 42.1557L108.943 42.1556C110.66 42.1556 112.056 40.7592 112.056 39.0402L112.056 38.4042C112.056 37.3349 111.19 36.4685 110.122 36.4685L84.9708 36.4685Z" stroke="#EA5B21" stroke-width="1.5" stroke-linejoin="round"/>
<path d="M75.5488 31.6018C78.5557 31.4636 81.1481 34.5883 81.3369 38.584C81.5257 42.5798 79.2418 45.9303 76.2349 46.0686" stroke="#EA5B21" stroke-width="1.5" stroke-linejoin="round"/>
<path d="M81.5918 38.6255C82.0431 38.6255 82.4713 38.5471 82.8719 38.3997" stroke="#EA5B21" stroke-width="1.5" stroke-linejoin="round"/>
<path d="M73.2885 28.7351C74.7343 28.1544 75.6829 26.7534 75.6829 25.1956L75.6829 17.8079C75.6829 17.0659 73.4957 7.3046 73.4957 7.3046C73.0398 5.6086 72.0728 4.43799 70.7881 4.43799L61.0123 4.43799C59.7276 4.43799 58.6777 5.72843 58.6777 7.30461L58.6777 34.8462C58.6777 36.4224 59.7276 37.7129 61.0123 37.7129L61.6063 37.7129L62.8358 37.7129L65.3131 37.7129C66.7222 37.7129 67.947 36.7266 68.2371 35.344C68.8956 32.2285 70.8157 29.7306 73.2885 28.7351Z" stroke="#EA5B21" stroke-width="1.5" stroke-linejoin="round"/>
<path d="M58.6777 17.9785L75.6829 17.9785" stroke="#EA5B21" stroke-width="1.5" stroke-linejoin="round"/>
<path d="M69.043 8.1114L69.043 4.44287" stroke="#EA5B21" stroke-width="1.5" stroke-linejoin="round"/>
<path d="M69.043 17.9783L69.043 14.3005" stroke="#EA5B21" stroke-width="1.5" stroke-linejoin="round"/>
<path d="M69.1813 14.3052L68.905 14.3052C68.067 14.3052 67.3809 13.6185 67.3809 12.7797L67.3809 9.64121C67.3809 8.80242 68.067 8.11572 68.905 8.11572L69.1813 8.11572C70.0194 8.11572 70.7055 8.80242 70.7055 9.64121L70.7055 12.7797C70.7009 13.6185 70.0148 14.3052 69.1813 14.3052Z" stroke="#EA5B21" stroke-width="1.5" stroke-linejoin="round"/>
<path d="M62.8919 21.4349L60.8934 21.4349C60.502 21.4349 60.1797 21.1123 60.1797 20.7206L60.1797 20.5915C60.1797 20.1998 60.502 19.8772 60.8934 19.8772L62.8919 19.8772C63.2833 19.8772 63.6056 20.1998 63.6056 20.5915L63.6056 20.7206C63.601 21.1123 63.2833 21.4349 62.8919 21.4349Z" stroke="#EA5B21" stroke-width="1.5" stroke-linejoin="round"/>
<path d="M70.7293 40.9716C70.5773 40.3771 70.4806 39.7457 70.4484 39.0912C70.2596 35.0955 72.5436 31.745 75.5504 31.6067" stroke="#EA5B21" stroke-width="1.5" stroke-linejoin="round"/>
<path d="M76.0867 42.8107C77.7378 42.7295 78.9889 40.885 78.8811 38.6911C78.7733 36.4971 77.3475 34.7844 75.6965 34.8656C74.0455 34.9468 72.7944 36.7913 72.9021 38.9852C73.0099 41.1792 74.4357 42.8919 76.0867 42.8107Z" stroke="#EA5B21" stroke-width="1.5" stroke-linejoin="round"/>
<path d="M28.1172 46.0779C28.6053 46.0779 30.4564 46.0779 30.9491 46.0779C33.3988 46.0779 35.4755 43.9302 36.1616 40.9714L32.7633 40.9714" stroke="#EA5B21" stroke-width="1.5" stroke-linejoin="round"/>
<path d="M32.9967 38.584C33.0382 39.4136 32.9691 40.2109 32.8125 40.9621C32.2093 43.8287 30.28 45.9579 27.8947 46.0686C24.8879 46.2068 22.2954 43.0821 22.1066 39.0864C21.9178 35.0906 24.2018 31.7401 27.2086 31.6018C30.2155 31.4636 32.8033 34.5883 32.9967 38.584Z" stroke="#EA5B21" stroke-width="1.5" stroke-linejoin="round"/>
<path d="M27.7449 42.8104C29.396 42.7292 30.647 40.8848 30.5393 38.6908C30.4315 36.4968 29.0057 34.7841 27.3547 34.8654C25.7037 34.9466 24.4526 36.791 24.5604 38.985C24.6681 41.179 26.0939 42.8917 27.7449 42.8104Z" stroke="#EA5B21" stroke-width="1.5" stroke-linejoin="round"/>
</g>
<defs>
<clipPath id="clip0">
<rect width="115.891" height="46.1885" fill="white" transform="translate(0.732422 0.811035)"/>
</clipPath>
</defs>
</svg>
