<svg width="40" height="13" viewBox="0 0 40 13" fill="none" xmlns="http://www.w3.org/2000/svg">
<path fill-rule="evenodd" clip-rule="evenodd" d="M28.9076 0.547587L28.4451 3.24488C27.0581 2.47389 23.9014 2.29147 23.9014 3.71117C23.9014 4.2753 24.6156 4.66327 25.4765 5.13089C26.782 5.84007 28.4248 6.73243 28.4248 8.70026C28.4248 11.8444 25.0876 13 22.876 13C20.6645 13 19.2172 12.2905 19.2172 12.2905L19.6994 9.47092C21.0261 10.5456 25.0473 10.8506 25.0473 9.14673C25.0473 8.4308 24.2559 8.00857 23.338 7.51892C22.0715 6.84321 20.5642 6.03911 20.5642 4.15764C20.5642 0.709512 24.3839 0 25.9924 0C27.4803 0 28.9076 0.547587 28.9076 0.547587ZM36.7461 12.7836H39.7222L37.1274 0.224383H34.5215C33.3183 0.224383 33.0253 1.16032 33.0253 1.16032L28.1915 12.7836H31.57L32.2457 10.9181H36.3661L36.7461 12.7836ZM33.1795 8.34111L34.8825 3.64126L35.8406 8.34111H33.1795ZM8.1619 8.86286L11.252 0.224747H14.7403L9.58355 12.784H6.20643L3.39044 1.87322C1.56251 0.76528 0 0.437399 0 0.437399L0.0599431 0.224747H5.16842C6.57408 0.224747 6.70595 1.35587 6.70595 1.35587L7.79658 7.00341L7.79625 7.00274L8.1619 8.86286ZM13.9787 12.7837H17.2199L19.246 0.224747H16.0044L13.9787 12.7837Z" fill="#1A1F71"/>
</svg>
