<svg width="18" height="17" viewBox="0 0 18 17" fill="none" xmlns="http://www.w3.org/2000/svg">
  <path fill-rule="evenodd" clip-rule="evenodd" d="M8.25004 11.5607L4.71971 8.03034L5.78037 6.96968L8.25004 9.43935L12.75 4.93935V7.06067L8.25004 11.5607ZM15.7499 8.24999C15.7499 4.52207 12.7278 1.49999 8.99988 1.49999C5.27195 1.49999 2.24988 4.52207 2.24988 8.24999C2.24988 11.9779 5.27195 15 8.99988 15C12.7278 15 15.7499 11.9779 15.7499 8.24999ZM0.75 8.25C0.75 3.69365 4.44365 0 9 0C13.5563 0 17.25 3.69365 17.25 8.25C17.25 12.8064 13.5563 16.5 9 16.5C4.44365 16.5 0.75 12.8064 0.75 8.25Z" fill="#06C270"/>
</svg>
