<svg width="16" height="16" viewBox="0 0 16 16" fill="none" xmlns="http://www.w3.org/2000/svg">
<path fill-rule="evenodd" clip-rule="evenodd" d="M2.66602 6.61468C2.66602 3.70201 5.05868 1.33334 7.99935 1.33334C10.94 1.33334 13.3327 3.70201 13.3327 6.61468C13.3327 10.2647 8.63335 14.334 8.43335 14.5053C8.30802 14.6127 8.15402 14.6667 7.99935 14.6667C7.84468 14.6667 7.69068 14.6127 7.56535 14.5053C7.36535 14.334 2.66602 10.2647 2.66602 6.61468ZM7.99935 13.0973C6.88268 12.0413 3.99935 9.07668 3.99935 6.61468C3.99935 4.43801 5.79335 2.66668 7.99935 2.66668C10.2053 2.66668 11.9993 4.43801 11.9993 6.61468C11.9993 9.07668 9.11602 12.0413 7.99935 13.0973ZM5.66602 6.33301C5.66602 5.04634 6.71268 3.99967 7.99935 3.99967C9.28602 3.99967 10.3327 5.04634 10.3327 6.33301C10.3327 7.61967 9.28602 8.66634 7.99935 8.66634C6.71268 8.66634 5.66602 7.61967 5.66602 6.33301ZM6.99935 6.33301C6.99935 6.88434 7.44802 7.33301 7.99935 7.33301C8.55068 7.33301 8.99935 6.88434 8.99935 6.33301C8.99935 5.78167 8.55068 5.33301 7.99935 5.33301C7.44802 5.33301 6.99935 5.78167 6.99935 6.33301Z" fill="#333333"/>
<mask id="mask0" mask-type="alpha" maskUnits="userSpaceOnUse" x="2" y="1" width="12" height="14">
<path fill-rule="evenodd" clip-rule="evenodd" d="M2.66602 6.61468C2.66602 3.70201 5.05868 1.33334 7.99935 1.33334C10.94 1.33334 13.3327 3.70201 13.3327 6.61468C13.3327 10.2647 8.63335 14.334 8.43335 14.5053C8.30802 14.6127 8.15402 14.6667 7.99935 14.6667C7.84468 14.6667 7.69068 14.6127 7.56535 14.5053C7.36535 14.334 2.66602 10.2647 2.66602 6.61468ZM7.99935 13.0973C6.88268 12.0413 3.99935 9.07668 3.99935 6.61468C3.99935 4.43801 5.79335 2.66668 7.99935 2.66668C10.2053 2.66668 11.9993 4.43801 11.9993 6.61468C11.9993 9.07668 9.11602 12.0413 7.99935 13.0973ZM5.66602 6.33301C5.66602 5.04634 6.71268 3.99967 7.99935 3.99967C9.28602 3.99967 10.3327 5.04634 10.3327 6.33301C10.3327 7.61967 9.28602 8.66634 7.99935 8.66634C6.71268 8.66634 5.66602 7.61967 5.66602 6.33301ZM6.99935 6.33301C6.99935 6.88434 7.44802 7.33301 7.99935 7.33301C8.55068 7.33301 8.99935 6.88434 8.99935 6.33301C8.99935 5.78167 8.55068 5.33301 7.99935 5.33301C7.44802 5.33301 6.99935 5.78167 6.99935 6.33301Z" fill="white"/>
</mask>
<g mask="url(#mask0)">
</g>
</svg>
