<svg width="22" height="29" viewBox="0 0 22 29" fill="none" xmlns="http://www.w3.org/2000/svg">
<path d="M7.81346 13.4224C7.49918 13.1008 6.98953 13.1008 6.6752 13.4224C6.36087 13.744 6.36087 14.2654 6.6752 14.587L9.17928 17.1491C9.33645 17.3099 9.54244 17.3903 9.74839 17.3903C9.95433 17.3903 10.1604 17.31 10.3175 17.1491L15.3256 12.025C15.6399 11.7034 15.6399 11.182 15.3256 10.8604C15.0113 10.5387 14.5017 10.5387 14.1873 10.8604L9.74833 15.4021L7.81346 13.4224Z" fill="#989898"/>
<path fill-rule="evenodd" clip-rule="evenodd" d="M7.09839 14.5023C7.09842 14.5023 7.09836 14.5023 7.09839 14.5023V14.5023ZM10.3175 17.53C10.1604 17.6908 9.95433 17.7712 9.74839 17.7712C9.54244 17.7712 9.33645 17.6908 9.17928 17.53L6.6752 14.9679C6.36087 14.6463 6.36087 14.1249 6.6752 13.8032C6.98953 13.4816 7.49918 13.4816 7.81346 13.8032L9.74833 15.783L14.1873 11.2412C14.5017 10.9196 15.0113 10.9196 15.3256 11.2412C15.6399 11.5628 15.6399 12.0842 15.3256 12.4058L10.3175 17.53Z" fill="#989898"/>
<path d="M21.1903 3.84298C18.8704 3.84298 16.7568 2.53878 15.6744 0.439308C15.5352 0.169091 15.2611 0 14.9625 0H7.03748C6.73892 0 6.46483 0.169091 6.32554 0.439308C5.24324 2.53878 3.12963 3.84298 0.804878 3.84298C0.360371 3.84298 0 4.21169 0 4.66648V13.0525C0 16.4238 1.02955 19.643 2.9773 22.3621C4.92516 25.0813 7.61549 27.0552 10.7576 28.0704C10.8365 28.0959 10.9182 28.1086 11 28.1086C11.0818 28.1086 11.1635 28.0959 11.2424 28.0704C14.3845 27.0552 17.0748 25.0813 19.0227 22.3621C20.9705 19.643 22 16.4238 22 13.0525V4.66648C22 4.21169 21.6348 3.84298 21.1903 3.84298ZM20.3902 13.0525C20.3902 19.1471 16.6274 24.4859 11 26.4191C5.37261 24.4859 1.60976 19.1471 1.60976 13.0525V5.44863C4.04575 5.19566 6.22428 3.79698 7.50565 1.64699H14.4944C15.7751 3.79588 17.9523 5.19423 20.3902 5.44825V13.0525Z" fill="#989898"/>
<path fill-rule="evenodd" clip-rule="evenodd" d="M10.7576 28.0704C7.61549 27.0552 4.92516 25.0813 2.9773 22.3621C1.02955 19.643 0 16.4238 0 13.0525V4.66648C0 4.21169 0.360371 3.84298 0.804878 3.84298C3.12963 3.84298 5.24324 2.53878 6.32554 0.439308C6.46483 0.169091 6.73892 0 7.03748 0H14.9625C15.2611 0 15.5352 0.169091 15.6744 0.439308C16.7568 2.53878 18.8704 3.84298 21.1903 3.84298C21.6348 3.84298 22 4.21169 22 4.66648V13.0525C22 16.4238 20.9705 19.643 19.0227 22.3621C17.0748 25.0813 14.3845 27.0552 11.2424 28.0704C11.1635 28.0959 11.0818 28.1086 11 28.1086C10.9182 28.1086 10.8365 28.0959 10.7576 28.0704ZM11 26.4191C5.37261 24.4859 1.60976 19.1471 1.60976 13.0525V5.44863C4.04575 5.19566 6.22428 3.79698 7.50565 1.64699H14.4944C15.7751 3.79588 17.9523 5.19423 20.3902 5.44825V13.0525C20.3902 19.1471 16.6274 24.4859 11 26.4191Z" fill="#989898"/>
<path d="M13.8752 3.5967C13.7224 3.40532 13.4935 3.29431 13.2519 3.29431H8.74649C8.50492 3.29431 8.27612 3.40532 8.1233 3.5967C6.9852 5.02142 5.48062 6.07825 3.77224 6.65283C3.44197 6.7639 3.21875 7.07941 3.21875 7.43516V13.0529C3.21875 18.0962 6.15114 22.606 10.6895 24.5421C10.7886 24.5844 10.894 24.6055 10.9992 24.6055C11.1045 24.6055 11.2099 24.5844 11.309 24.5421C15.8473 22.606 18.7797 18.0962 18.7797 13.0529V7.43571C18.7797 7.08001 18.5566 6.7645 18.2263 6.65338C16.5179 6.07858 15.0133 5.02164 13.8752 3.5967ZM17.17 13.0529C17.17 17.3134 14.759 21.1349 10.9992 22.8839C7.23944 21.1349 4.82851 17.3135 4.82851 13.0529V8.01452C6.48033 7.3577 7.94913 6.30636 9.11947 4.94132H12.879C14.0494 6.30652 15.518 7.35803 17.17 8.01496V13.0529Z" fill="#989898"/>
<path fill-rule="evenodd" clip-rule="evenodd" d="M13.8752 3.5967C13.7224 3.40532 13.4935 3.29431 13.2519 3.29431H8.74649C8.50492 3.29431 8.27612 3.40532 8.1233 3.5967C6.9852 5.02142 5.48062 6.07825 3.77224 6.65283C3.44197 6.7639 3.21875 7.07941 3.21875 7.43516V13.0529C3.21875 18.0962 6.15114 22.606 10.6895 24.5421C10.7886 24.5844 10.894 24.6055 10.9992 24.6055C11.1045 24.6055 11.2099 24.5844 11.309 24.5421C15.8473 22.606 18.7797 18.0962 18.7797 13.0529V7.43571C18.7797 7.08001 18.5566 6.7645 18.2263 6.65338C16.5179 6.07858 15.0133 5.02164 13.8752 3.5967ZM10.9992 22.8839C14.759 21.1349 17.17 17.3134 17.17 13.0529V8.01496C15.518 7.35803 14.0494 6.30652 12.879 4.94132H9.11947C7.94913 6.30636 6.48033 7.3577 4.82851 8.01452V13.0529C4.82851 17.3135 7.23944 21.1349 10.9992 22.8839Z" fill="#989898"/>
</svg>