<svg width="56" height="56" viewBox="0 0 56 56" fill="none" xmlns="http://www.w3.org/2000/svg">
<path fill-rule="evenodd" clip-rule="evenodd" d="M25.5023 39.0356L13.7345 27.2678L17.2701 23.7323L25.5023 31.9645L40.5024 16.9645V24.0356L25.5023 39.0356ZM50.5008 28C50.5008 15.5736 40.4272 5.49999 28.0008 5.49999C15.5744 5.49999 5.50077 15.5736 5.50077 28C5.50077 40.4264 15.5744 50.5 28.0008 50.5C40.4272 50.5 50.5008 40.4264 50.5008 28ZM0.501953 27.9999C0.501953 12.8121 12.8141 0.5 28.0019 0.5C43.1898 0.5 55.5019 12.8121 55.5019 27.9999C55.5019 43.1877 43.1898 55.4998 28.0019 55.4998C12.8141 55.4998 0.501953 43.1877 0.501953 27.9999Z" fill="#06C270"/>
</svg>
