<svg width="16" height="16" viewBox="0 0 16 16" fill="none" xmlns="http://www.w3.org/2000/svg">
<path fill-rule="evenodd" clip-rule="evenodd" d="M8.93569 0.607494C8.7599 0.235501 8.39717 0 8 0C7.60283 0 7.2401 0.235501 7.06431 0.607494L5.1573 4.64283L0.892589 5.29393C0.499658 5.35392 0.173384 5.64166 0.0509039 6.03622C-0.0715767 6.43078 0.0309684 6.86375 0.315438 7.15316L3.40052 10.2918L2.67243 14.7258C2.60528 15.1348 2.76623 15.548 3.0876 15.7919C3.40897 16.0357 3.83501 16.0678 4.18657 15.8747L8 13.78L11.8134 15.8747C12.165 16.0678 12.591 16.0357 12.9124 15.7919C13.2338 15.548 13.3947 15.1348 13.3276 14.7258L12.5995 10.2918L15.6846 7.15316C15.969 6.86375 16.0716 6.43078 15.9491 6.03622C15.8266 5.64166 15.5003 5.35392 15.1074 5.29393L10.8427 4.64283L8.93569 0.607494Z" fill="#EA5B21"/>
</svg>