<svg width="16" height="16" viewBox="0 0 16 16" fill="none" xmlns="http://www.w3.org/2000/svg">
<path fill-rule="evenodd" clip-rule="evenodd" d="M8 0C8.39717 0 8.7599 0.235501 8.93569 0.607494L10.8427 4.64283L15.1074 5.29393C15.5003 5.35392 15.8266 5.64166 15.9491 6.03622C16.0716 6.43078 15.969 6.86375 15.6846 7.15316L12.5995 10.2918L13.3276 14.7258C13.3947 15.1348 13.2338 15.548 12.9124 15.7919C12.591 16.0357 12.165 16.0678 11.8134 15.8747L8 13.78L4.18657 15.8747C3.83501 16.0678 3.40897 16.0357 3.0876 15.7919C2.76623 15.548 2.60528 15.1348 2.67243 14.7258L3.40052 10.2918L0.315438 7.15316C0.0309684 6.86375 -0.0715767 6.43078 0.0509039 6.03622C0.173384 5.64166 0.499658 5.35392 0.892589 5.29393L5.1573 4.64283L7.06431 0.607494C7.2401 0.235501 7.60283 0 8 0ZM8 3.55232L6.78613 6.12093C6.63427 6.44229 6.34086 6.66514 6.00136 6.71697L3.28532 7.13163L5.24982 9.13021C5.49595 9.38061 5.60829 9.74152 5.55021 10.0952L5.08681 12.9174L7.51431 11.5839C7.81836 11.4169 8.18163 11.4169 8.48569 11.5839L10.9132 12.9174L10.4498 10.0952C10.3917 9.74152 10.5041 9.38061 10.7502 9.13021L12.7147 7.13163L9.99864 6.71697C9.65914 6.66514 9.36573 6.44229 9.21387 6.12093L8 3.55232Z" fill="#EA5B21"/>
</svg>