<svg width="16" height="16" viewBox="0 0 16 16" fill="none" xmlns="http://www.w3.org/2000/svg">
<path d="M11.9995 5.08992L14.149 9.63851L18.956 10.3724L15.4777 13.911L16.2986 18.9101L11.9995 16.5486L7.70035 18.9101L8.52122 13.911L5.04297 10.3724L9.84991 9.63851L11.9995 5.08992Z" fill="#EA5B21"/>
<rect x="12" y="6" width="8" height="18" fill="#F9F9F9"/>
<path fill-rule="evenodd" clip-rule="evenodd" d="M12 4C12.3972 4 12.7599 4.2355 12.9357 4.60749L14.8427 8.64283L19.1074 9.29393C19.5003 9.35392 19.8266 9.64166 19.9491 10.0362C20.0716 10.4308 19.969 10.8638 19.6846 11.1532L16.5995 14.2918L17.3276 18.7258C17.3947 19.1348 17.2338 19.548 16.9124 19.7919C16.591 20.0357 16.165 20.0678 15.8134 19.8747L12 17.78L8.18657 19.8747C7.83501 20.0678 7.40897 20.0357 7.0876 19.7919C6.76623 19.548 6.60528 19.1348 6.67243 18.7258L7.40052 14.2918L4.31544 11.1532C4.03097 10.8638 3.92842 10.4308 4.0509 10.0362C4.17338 9.64166 4.49966 9.35392 4.89259 9.29393L9.1573 8.64283L11.0643 4.60749C11.2401 4.2355 11.6028 4 12 4ZM12 7.55232L10.7861 10.1209C10.6343 10.4423 10.3409 10.6651 10.0014 10.717L7.28532 11.1316L9.24982 13.1302C9.49595 13.3806 9.60829 13.7415 9.55021 14.0952L9.08681 16.9174L11.5143 15.5839C11.8184 15.4169 12.1816 15.4169 12.4857 15.5839L14.9132 16.9174L14.4498 14.0952C14.3917 13.7415 14.5041 13.3806 14.7502 13.1302L16.7147 11.1316L13.9986 10.717C13.6591 10.6651 13.3657 10.4423 13.2139 10.1209L12 7.55232Z" fill="#EA5B21"/>
</svg>