<svg width="29" height="29" viewBox="0 0 29 29" fill="none" xmlns="http://www.w3.org/2000/svg">
<rect x="1.35107" y="20.5714" width="25.9955" height="4.64285" stroke="#C4C4C4" stroke-width="2" stroke-linecap="round" stroke-linejoin="round"/>
<path d="M3.20786 27.0714V25.2143" stroke="#C4C4C4" stroke-width="2" stroke-linecap="round" stroke-linejoin="round"/>
<path d="M1.35107 20.5714L4.13631 9.42857" stroke="#C4C4C4" stroke-width="2" stroke-linecap="round" stroke-linejoin="round"/>
<path d="M25.4896 27.0714V25.2143" stroke="#C4C4C4" stroke-width="2" stroke-linecap="round" stroke-linejoin="round"/>
<path d="M27.3465 20.5714L23.6328 9.42857" stroke="#C4C4C4" stroke-width="2" stroke-linecap="round" stroke-linejoin="round"/>
<path d="M4.13623 9.42856H23.6329" stroke="#C4C4C4" stroke-width="2" stroke-linecap="round" stroke-linejoin="round"/>
<path fill-rule="evenodd" clip-rule="evenodd" d="M7.74767 5.71428H11.6563C11.8754 5.71428 12.0856 5.80135 12.2406 5.95633C12.3955 6.11132 12.4826 6.32153 12.4826 6.54071V9.42856H6.92139V6.54071C6.92139 6.08428 7.29133 5.71428 7.74767 5.71428V5.71428Z" stroke="#C4C4C4" stroke-width="2" stroke-linecap="round" stroke-linejoin="round"/>
<path fill-rule="evenodd" clip-rule="evenodd" d="M16.1036 5.71428H20.0122C20.4686 5.71428 20.8385 6.08428 20.8385 6.54071V9.42856H15.2773V6.54071C15.2773 6.08428 15.6473 5.71428 16.1036 5.71428V5.71428Z" stroke="#C4C4C4" stroke-width="2" stroke-linecap="round" stroke-linejoin="round"/>
<path d="M23.6329 9.42857V2C23.6329 1.48716 23.2172 1.07143 22.7045 1.07143H5.06464C4.55189 1.07143 4.13623 1.48716 4.13623 2V9.42857" stroke="#C4C4C4" stroke-width="2" stroke-linecap="round" stroke-linejoin="round"/>
</svg>
