<svg width="33" height="33" viewBox="0 0 33 33" fill="none" xmlns="http://www.w3.org/2000/svg">
<g opacity="1" clip-path="url(#clip0)">
<path d="M1.35281 33H0.103027L0.121774 31.6L1.47779 25.5H10.7262V33H9.47641V26.75H2.47762L1.35281 31.8063V33Z" fill="#C4C4C4"/>
<path d="M11.3511 26.75H1.35281V23.6688L0.171765 15.8125C0.128023 15.65 0.103027 15.4813 0.103027 15.3125V14.25C0.103027 13.2188 0.940383 12.375 1.9777 12.375C2.47762 12.375 2.95254 12.5687 3.30248 12.925C3.65866 13.2812 3.85238 13.75 3.84613 14.2563L3.83988 15.275C3.83988 15.3375 3.84613 15.4 3.86488 15.4625L3.88363 15.5563L5.00843 22.9688L9.47641 23C10.5012 23.0063 11.3386 23.8438 11.3386 24.875V26.75H11.3511ZM2.6026 25.5H10.1013V24.8688C10.1013 24.525 9.8201 24.2438 9.47641 24.2438L3.93362 24.2063L2.66509 15.7813C2.62134 15.6125 2.59635 15.4438 2.59635 15.2687V14.25C2.59635 14.0813 2.53386 13.925 2.41513 13.8063C2.2964 13.6875 2.14018 13.625 1.9777 13.625C1.63401 13.625 1.35281 13.9063 1.35281 14.25V15.3125C1.35281 15.375 1.35906 15.4375 1.37781 15.4938L1.39655 15.5875L2.6026 23.625V25.5Z" fill="#C4C4C4"/>
<path d="M31.3475 33V31.8063L30.2227 26.75H23.2239V33H21.9741V25.5H31.2225L32.5973 31.7375V33H31.3475Z" fill="#C4C4C4"/>
<path d="M31.3474 26.75H21.3491V24.8688C21.3491 23.8375 22.1865 23 23.2175 22.9938L27.6855 22.9625L28.8291 15.4563C28.8478 15.3938 28.8541 15.3312 28.8541 15.2687L28.8478 14.25C28.8478 13.75 29.0415 13.275 29.3915 12.9188C29.7539 12.5688 30.2226 12.375 30.7288 12.375C31.7598 12.375 32.6034 13.2125 32.6034 14.25V15.3125C32.6034 15.4813 32.5784 15.65 32.5347 15.8125L31.3474 23.6688V26.75ZM22.5989 25.5H30.0976L30.1039 23.5313L31.3162 15.4938C31.3411 15.4375 31.3474 15.375 31.3474 15.3125V14.25C31.3474 13.9063 31.0662 13.625 30.7225 13.625C30.5538 13.625 30.3976 13.6875 30.2788 13.8063C30.1601 13.925 30.0976 14.0813 30.0976 14.25L30.1039 15.2687C30.1039 15.4438 30.0789 15.6125 30.0351 15.7813L28.7603 24.2125L23.2238 24.2438C22.8801 24.2438 22.5989 24.525 22.5989 24.8688V25.5Z" fill="#C4C4C4"/>
<path d="M24.4738 21.75H8.22656V18H24.4738V21.75ZM9.47635 20.5H23.224V19.25H9.47635V20.5Z" fill="#C4C4C4"/>
<path d="M26.9734 18H5.72705V19.25H26.9734V18Z" fill="#C4C4C4"/>
<path d="M6.97683 33H5.72705V32.375C5.72705 29.5125 6.36444 28.0063 6.97683 26.5438C7.62047 25.0187 8.22662 23.5813 8.22662 20.5V19.875H9.4764V20.5C9.4764 23.8313 8.78902 25.4625 8.12664 27.0313C7.53924 28.4375 6.97683 29.7625 6.97683 32.375V33Z" fill="#C4C4C4"/>
<path d="M26.9735 33H25.7237V32.375C25.7237 29.7625 25.1613 28.4375 24.5739 27.0313C23.9115 25.4625 23.2241 23.8313 23.2241 20.5V19.875H24.4739V20.5C24.4739 23.5813 25.0801 25.0187 25.7237 26.5438C26.3361 28 26.9735 29.5063 26.9735 32.375V33Z" fill="#C4C4C4"/>
<path d="M21.3494 11.0893H11.3511V10.4643C11.3511 9.6393 11.676 8.85179 12.2634 8.25804C12.8633 7.66429 13.6507 7.33929 14.4755 7.33929H18.2249C19.9496 7.33929 21.3494 8.73929 21.3494 10.4643V11.0893ZM12.7071 9.8393H19.9933C19.7371 9.1143 19.0435 8.58929 18.2249 8.58929H14.4755C13.9756 8.58929 13.507 8.78304 13.1445 9.13929C12.9508 9.3393 12.8008 9.58305 12.7071 9.8393Z" fill="#C4C4C4"/>
<path d="M16.3503 12.9643C15.3192 12.9643 14.4756 12.1205 14.4756 11.0893C14.4756 10.758 14.5631 10.433 14.7318 10.1455L14.913 9.83929H17.7938L17.975 10.1455C18.1375 10.433 18.2249 10.758 18.2249 11.0893C18.2249 12.1205 17.3876 12.9643 16.3503 12.9643ZM15.7254 11.0893C15.7254 11.433 16.0066 11.7143 16.3503 11.7143C16.694 11.7143 16.9752 11.433 16.9752 11.0893H15.7254Z" fill="#C4C4C4"/>
<path d="M16.9749 4.21428H15.7251V8.58928H16.9749V4.21428Z" fill="#C4C4C4"/>
</g>
<defs>
<clipPath id="clip0">
<rect width="32.4944" height="32.5" fill="#C4C4C4" transform="translate(0.103027 0.5)"/>
</clipPath>
</defs>
</svg>
