<svg width="42" height="24" viewBox="0 0 42 24" fill="none" xmlns="http://www.w3.org/2000/svg">
<g opacity="1" clip-path="url(#clip0)">
<path d="M5.23462 23.9113H2.35334C1.16481 23.9113 0.192383 22.9387 0.192383 21.75V8.78203C0.192383 7.5933 1.16481 6.6207 2.35334 6.6207H5.23462C6.42314 6.6207 7.39558 7.5933 7.39558 8.78203V21.75C7.39558 22.9387 6.42314 23.9113 5.23462 23.9113ZM2.35334 8.06158C1.95717 8.06158 1.63302 8.38578 1.63302 8.78203V21.75C1.63302 22.1463 1.95717 22.4705 2.35334 22.4705H5.23462C5.63079 22.4705 5.95494 22.1463 5.95494 21.75V8.78203C5.95494 8.38578 5.63079 8.06158 5.23462 8.06158H2.35334Z" fill="#C4C4C4"/>
<path d="M39.8098 23.9113H36.9285C35.74 23.9113 34.7676 22.9387 34.7676 21.75V8.78203C34.7676 7.5933 35.74 6.6207 36.9285 6.6207H39.8098C40.9983 6.6207 41.9708 7.5933 41.9708 8.78203V21.75C41.9708 22.9387 40.9983 23.9113 39.8098 23.9113ZM36.9285 8.06158C36.5324 8.06158 36.2082 8.38578 36.2082 8.78203V21.75C36.2082 22.1463 36.5324 22.4705 36.9285 22.4705H39.8098C40.206 22.4705 40.5301 22.1463 40.5301 21.75V8.78203C40.5301 8.38578 40.206 8.06158 39.8098 8.06158H36.9285Z" fill="#C4C4C4"/>
<path d="M34.0475 23.9113H8.11604C6.92751 23.9113 5.95508 22.9387 5.95508 21.75V18.8682C5.95508 17.6795 6.92751 16.7069 8.11604 16.7069H34.0475C35.2361 16.7069 36.2085 17.6795 36.2085 18.8682V21.75C36.2085 22.9387 35.2361 23.9113 34.0475 23.9113ZM8.11604 18.1478C7.71986 18.1478 7.39572 18.472 7.39572 18.8682V21.75C7.39572 22.1463 7.71986 22.4705 8.11604 22.4705H34.0475C34.4437 22.4705 34.7678 22.1463 34.7678 21.75V18.8682C34.7678 18.472 34.4437 18.1478 34.0475 18.1478H8.11604Z" fill="#C4C4C4"/>
<path d="M21.8021 18.1478H5.95508V15.266C5.95508 13.2776 7.56859 11.6638 9.55667 11.6638H18.2005C20.1886 11.6638 21.8021 13.2776 21.8021 15.266V18.1478ZM7.39572 16.7069H20.3615V15.266C20.3615 14.0773 19.389 13.1047 18.2005 13.1047H9.55667C8.36815 13.1047 7.39572 14.0773 7.39572 15.266V16.7069Z" fill="#C4C4C4"/>
<path d="M36.2084 18.1478H20.3613V15.266C20.3613 13.2776 21.9748 11.6638 23.9629 11.6638H32.6068C34.5948 11.6638 36.2084 13.2776 36.2084 15.266V18.1478ZM21.802 16.7069H34.7677V15.266C34.7677 14.0773 33.7953 13.1047 32.6068 13.1047H23.9629C22.7744 13.1047 21.802 14.0773 21.802 15.266V16.7069Z" fill="#C4C4C4"/>
<path d="M21.8018 15.266H20.3612C20.3612 14.0773 19.3888 13.1047 18.2002 13.1047H9.5564C8.36787 13.1047 7.39544 14.0773 7.39544 15.266H5.9548V8.78202C5.9548 8.38578 5.63066 8.06158 5.23448 8.06158H4.51416V4.45936C4.51416 2.47094 6.12768 0.857147 8.11576 0.857147H18.2002C20.1883 0.857147 21.8018 2.47094 21.8018 4.45936V15.266ZM9.5564 11.6638H18.2002C19.007 11.6638 19.7561 11.9304 20.3612 12.3842V4.45936C20.3612 3.27063 19.3888 2.29803 18.2002 2.29803H8.11576C6.92723 2.29803 5.9548 3.27063 5.9548 4.45936V6.74317C6.79037 7.03855 7.39544 7.84545 7.39544 8.78202V12.3842C8.00051 11.9304 8.74964 11.6638 9.5564 11.6638Z" fill="#C4C4C4"/>
<path d="M36.2084 15.266H34.7677C34.7677 14.0773 33.7953 13.1047 32.6068 13.1047H23.9629C22.7744 13.1047 21.802 14.0773 21.802 15.266H20.3613V4.45936C20.3613 2.47094 21.9748 0.857147 23.9629 0.857147H34.0474C36.0355 0.857147 37.649 2.47094 37.649 4.45936V8.06158H36.9287C36.5325 8.06158 36.2084 8.38578 36.2084 8.78202V15.266ZM23.9629 11.6638H32.6068C33.4135 11.6638 34.1626 11.9304 34.7677 12.3842V8.78202C34.7677 7.84545 35.3728 7.03855 36.2084 6.74317V4.45936C36.2084 3.27063 35.2359 2.29803 34.0474 2.29803H23.9629C22.7744 2.29803 21.802 3.27063 21.802 4.45936V12.3842C22.407 11.9304 23.1562 11.6638 23.9629 11.6638Z" fill="#C4C4C4"/>
<path d="M21.802 14.5456H20.3613V18.1478H21.802V14.5456Z" fill="#C4C4C4"/>
<path d="M9.9169 8.06158C9.31904 8.06158 8.83643 7.57889 8.83643 6.98092C8.83643 6.38295 9.31904 5.90025 9.9169 5.90025C10.5148 5.90025 10.9974 6.38295 10.9974 6.98092C10.9974 7.57889 10.5148 8.06158 9.9169 8.06158ZM9.9169 6.6207C9.71522 6.6207 9.55674 6.77919 9.55674 6.98092C9.55674 7.18264 9.71522 7.34114 9.9169 7.34114C10.1186 7.34114 10.2771 7.18264 10.2771 6.98092C10.2771 6.77919 10.1186 6.6207 9.9169 6.6207Z" fill="#C4C4C4"/>
<path d="M16.3993 8.06158C15.8015 8.06158 15.3188 7.57889 15.3188 6.98092C15.3188 6.38295 15.8015 5.90025 16.3993 5.90025C16.9972 5.90025 17.4798 6.38295 17.4798 6.98092C17.4798 7.57889 16.9972 8.06158 16.3993 8.06158ZM16.3993 6.6207C16.1976 6.6207 16.0392 6.77919 16.0392 6.98092C16.0392 7.18264 16.1976 7.34114 16.3993 7.34114C16.601 7.34114 16.7595 7.18264 16.7595 6.98092C16.7595 6.77919 16.601 6.6207 16.3993 6.6207Z" fill="#C4C4C4"/>
<path d="M25.7636 8.06158C25.1657 8.06158 24.6831 7.57889 24.6831 6.98092C24.6831 6.38295 25.1657 5.90025 25.7636 5.90025C26.3614 5.90025 26.8441 6.38295 26.8441 6.98092C26.8441 7.57889 26.3614 8.06158 25.7636 8.06158ZM25.7636 6.6207C25.5619 6.6207 25.4034 6.77919 25.4034 6.98092C25.4034 7.18264 25.5619 7.34114 25.7636 7.34114C25.9653 7.34114 26.1237 7.18264 26.1237 6.98092C26.1237 6.77919 25.9653 6.6207 25.7636 6.6207Z" fill="#C4C4C4"/>
<path d="M32.2465 8.06158C31.6486 8.06158 31.166 7.57889 31.166 6.98092C31.166 6.38295 31.6486 5.90025 32.2465 5.90025C32.8444 5.90025 33.327 6.38295 33.327 6.98092C33.327 7.57889 32.8444 8.06158 32.2465 8.06158ZM32.2465 6.6207C32.0448 6.6207 31.8863 6.77919 31.8863 6.98092C31.8863 7.18264 32.0448 7.34114 32.2465 7.34114C32.4482 7.34114 32.6067 7.18264 32.6067 6.98092C32.6067 6.77919 32.4482 6.6207 32.2465 6.6207Z" fill="#C4C4C4"/>
</g>
<defs>
<clipPath id="clip0">
<rect width="41.7785" height="23.0542" fill="#C4C4C4" transform="translate(0.192383 0.857147)"/>
</clipPath>
</defs>
</svg>
