<svg width="38" height="23" viewBox="0 0 38 23" fill="none" xmlns="http://www.w3.org/2000/svg">
<g opacity="0.5" clip-path="url(#clip0)">
<path d="M35.8037 18.2192H22.998V10.5345H35.8037V18.2192ZM24.2786 16.9384H34.5232V11.8153H24.2786V16.9384Z" fill="#C4C4C4"/>
<path d="M37.7244 0.928574H0.587891V2.20936H37.7244V0.928574Z" fill="#C4C4C4"/>
<path d="M35.8036 5.41133H2.50879V0.928574H35.8036V5.41133ZM3.78936 4.13054H34.523V2.20936H3.78936V4.13054Z" fill="#C4C4C4"/>
<path d="M5.0251 22.702H2.50879V4.13054H6.40172L5.0251 22.702ZM3.78936 21.4212H3.83418L5.0187 5.41133H3.78936V21.4212Z" fill="#C4C4C4"/>
<path d="M35.8037 11.8153H22.998V4.13054H35.8037V11.8153ZM24.2786 10.5345H34.5232V5.41133H24.2786V10.5345Z" fill="#C4C4C4"/>
<path d="M35.8039 22.702H33.326L32.5 16.9384H35.8039V22.702ZM34.4401 21.4212H34.5233V18.2192H33.9791L34.4401 21.4212Z" fill="#C4C4C4"/>
<path d="M30.6813 7.33252H28.1201V8.61331H30.6813V7.33252Z" fill="#C4C4C4"/>
<path d="M30.6813 13.7365H28.1201V15.0172H30.6813V13.7365Z" fill="#C4C4C4"/>
</g>
<defs>
<clipPath id="clip0">
<rect width="37.1365" height="21.7734" fill="#C4C4C4" transform="translate(0.587891 0.928574)"/>
</clipPath>
</defs>
</svg>
