<svg width="24" height="24" viewBox="0 0 24 24" fill="none" xmlns="http://www.w3.org/2000/svg">
<path d="M19 11H13V5C13 4.447 12.552 4 12 4C11.448 4 11 4.447 11 5V11H5C4.448 11 4 11.447 4 12C4 12.553 4.448 13 5 13H11V19C11 19.553 11.448 20 12 20C12.552 20 13 19.553 13 19V13H19C19.552 13 20 12.553 20 12C20 11.447 19.552 11 19 11Z" fill="#0D1C2E"/>
<mask id="mask0" mask-type="alpha" maskUnits="userSpaceOnUse" x="4" y="4" width="16" height="16">
<path d="M19 11H13V5C13 4.447 12.552 4 12 4C11.448 4 11 4.447 11 5V11H5C4.448 11 4 11.447 4 12C4 12.553 4.448 13 5 13H11V19C11 19.553 11.448 20 12 20C12.552 20 13 19.553 13 19V13H19C19.552 13 20 12.553 20 12C20 11.447 19.552 11 19 11Z" fill="white"/>
</mask>
<g mask="url(#mask0)">
<path d="M15.8335 13.1666H10.8335V8.16659C10.8335 7.70575 10.4602 7.33325 10.0002 7.33325C9.54016 7.33325 9.16683 7.70575 9.16683 8.16659V13.1666H4.16683C3.70683 13.1666 3.3335 13.5391 3.3335 13.9999C3.3335 14.4608 3.70683 14.8333 4.16683 14.8333H9.16683V19.8332C9.16683 20.2941 9.54016 20.6666 10.0002 20.6666C10.4602 20.6666 10.8335 20.2941 10.8335 19.8332V14.8333H15.8335C16.2935 14.8333 16.6668 14.4608 16.6668 13.9999C16.6668 13.5391 16.2935 13.1666 15.8335 13.1666Z" fill="#0D1C2E"/>
<mask id="mask1" mask-type="alpha" maskUnits="userSpaceOnUse" x="3" y="7" width="14" height="14">
<path d="M15.8335 13.1666H10.8335V8.16659C10.8335 7.70575 10.4602 7.33325 10.0002 7.33325C9.54016 7.33325 9.16683 7.70575 9.16683 8.16659V13.1666H4.16683C3.70683 13.1666 3.3335 13.5391 3.3335 13.9999C3.3335 14.4608 3.70683 14.8333 4.16683 14.8333H9.16683V19.8332C9.16683 20.2941 9.54016 20.6666 10.0002 20.6666C10.4602 20.6666 10.8335 20.2941 10.8335 19.8332V14.8333H15.8335C16.2935 14.8333 16.6668 14.4608 16.6668 13.9999C16.6668 13.5391 16.2935 13.1666 15.8335 13.1666Z" fill="white"/>
</mask>
<g mask="url(#mask1)">
</g>
</g>
</svg>
