<svg width="32" height="24" viewBox="0 0 32 24" fill="none" xmlns="http://www.w3.org/2000/svg">
<path fill-rule="evenodd" clip-rule="evenodd" d="M11.7333 17.3334C11.7333 19.9492 9.8363 22.1789 7.25431 22.5979C4.67232 23.0169 2.16754 21.5015 1.34036 19.0199C0.513185 16.5384 1.60778 13.8232 3.92477 12.6092C6.24176 11.3952 9.09721 12.0408 10.6667 14.1334C11.3591 15.0566 11.7333 16.1794 11.7333 17.3334Z" stroke="#C4C4C4" stroke-width="2" stroke-linecap="round" stroke-linejoin="round"/>
<path fill-rule="evenodd" clip-rule="evenodd" d="M25.5999 22.6667C28.5455 22.6667 30.9333 20.2789 30.9333 17.3333C30.9333 14.3878 28.5455 12 25.5999 12C22.6544 12 20.2666 14.3878 20.2666 17.3333C20.2666 20.2789 22.6544 22.6667 25.5999 22.6667Z" stroke="#C4C4C4" stroke-width="2" stroke-linecap="round" stroke-linejoin="round"/>
<path d="M25.6001 17.3334L23.4668 1.33337" stroke="#C4C4C4" stroke-width="2" stroke-linecap="round" stroke-linejoin="round"/>
<path d="M21.3335 1.33338H25.6002" stroke="#C4C4C4" stroke-width="2" stroke-linecap="round" stroke-linejoin="round"/>
<path d="M27.7334 3.46671C27.7334 2.2885 26.7783 1.33337 25.6001 1.33337" stroke="#C4C4C4" stroke-width="2" stroke-linecap="round" stroke-linejoin="round"/>
<path d="M6.3999 17.3334L10.6666 7.7334" stroke="#C4C4C4" stroke-width="2" stroke-linecap="round" stroke-linejoin="round"/>
<path d="M6.3999 17.3334H11.7226H11.7332H11.7439L24.3412 7.88269" stroke="#C4C4C4" stroke-width="2" stroke-linecap="round" stroke-linejoin="round"/>
<path d="M24.3198 7.73341H10.6665" stroke="#C4C4C4" stroke-width="2" stroke-linecap="round" stroke-linejoin="round"/>
<path d="M7.4668 3.46668H11.7335" stroke="#C4C4C4" stroke-width="2" stroke-linecap="round" stroke-linejoin="round"/>
<path d="M8.5332 3.46667L10.6665 7.73334" stroke="#C4C4C4" stroke-width="2" stroke-linecap="round" stroke-linejoin="round"/>
</svg>
