<svg width="12" height="13" viewBox="0 0 12 13" fill="none" xmlns="http://www.w3.org/2000/svg">
<path fill-rule="evenodd" clip-rule="evenodd" d="M3.6665 0.582031V2.33203L3.66651 2.33203V4.66536L2.49985 3.4987H1.33318V11.6654H10.6665V3.4987H10.0832V2.33203L11.8332 2.33203V10.832C11.8332 11.9366 10.9377 12.832 9.83317 12.832H2.1665C1.06193 12.832 0.166504 11.9366 0.166504 10.832V2.33203H2.49984V0.582031H3.6665ZM9.49985 2.33203L9.49984 2.33203V0.582031H8.33317V2.33203L4.24985 2.33203V3.4987H8.33318L9.49985 4.66536V2.33203ZM3.08318 6.41536H4.24985V7.58202H3.08318V6.41536ZM6.58317 6.41536H5.4165V7.58202H6.58317V6.41536ZM7.74983 6.41536H8.9165V7.58202H7.74983V6.41536ZM4.24985 8.74871H3.08318V9.91537H4.24985V8.74871ZM5.4165 8.74871H6.58317V9.91537H5.4165V8.74871ZM8.9165 8.74871H7.74983V9.91537H8.9165V8.74871Z" fill="white"/>
</svg>
