<svg width="25" height="26" viewBox="0 0 25 26" fill="none" xmlns="http://www.w3.org/2000/svg">
<g clip-path="url(#clip0)">
<path d="M23.4668 0.801575C22.915 0.801575 22.4707 1.24591 22.4707 1.79767V15.2108H16.7773V12.1346L20.1709 8.77521C20.3613 8.58966 20.7373 7.97443 20.1709 7.35919L15.5566 2.79376C14.8144 2.05646 13.8232 1.65118 12.7734 1.65118C11.7236 1.65118 10.7324 2.05646 9.99021 2.79376L3.92576 8.79962C3.36424 9.42462 3.73533 10.0301 3.92576 10.2156L5.06834 11.3436L1.17674 12.8426C0.756816 12.9842 0.190409 13.7459 0.834941 14.4832L6.30857 19.8983C6.93846 20.4647 7.72947 20.1375 7.93455 19.5565L9.45799 15.6893L10.6201 16.8367C11.2451 17.3592 11.831 17.0272 12.0215 16.8367L14.7803 14.1024V16.202C14.7803 16.7537 15.2246 17.1981 15.7763 17.1981H22.4658V23.7215C22.4658 24.2733 22.9101 24.7176 23.4619 24.7176C24.0137 24.7176 24.458 24.2733 24.458 23.7215V1.79767C24.4629 1.24591 24.0185 0.801575 23.4668 0.801575ZM7.91502 14.1658L6.63084 17.4178L3.32517 14.1463L6.61619 12.8768L7.91502 14.1658ZM11.3232 14.7322L6.0449 9.50763L11.3916 4.21466C12.1289 3.48712 13.4179 3.48224 14.1553 4.21466L18.0517 8.07208L11.3232 14.7322Z" fill="black"/>
</g>
<defs>
<clipPath id="clip0">
<rect width="25" height="25" fill="white" transform="translate(0 0.264465)"/>
</clipPath>
</defs>
</svg>
