<svg width="126" height="83" viewBox="0 0 126 83" fill="none" xmlns="http://www.w3.org/2000/svg">
<path d="M56.0149 42.327C56.0149 46.8626 52.4239 50.2047 48.017 50.2047C43.6101 50.2047 40.0192 46.8626 40.0192 42.327C40.0192 37.7594 43.6101 34.4492 48.017 34.4492C52.4239 34.4492 56.0149 37.7594 56.0149 42.327ZM52.5138 42.327C52.5138 39.4927 50.4326 37.5534 48.017 37.5534C45.6015 37.5534 43.5203 39.4927 43.5203 42.327C43.5203 45.1329 45.6015 47.1005 48.017 47.1005C50.4326 47.1005 52.5138 45.1293 52.5138 42.327Z" fill="#EA4335"/>
<path d="M73.2693 42.327C73.2693 46.8626 69.6784 50.2047 65.2715 50.2047C60.8646 50.2047 57.2736 46.8626 57.2736 42.327C57.2736 37.763 60.8646 34.4492 65.2715 34.4492C69.6784 34.4492 73.2693 37.7594 73.2693 42.327ZM69.7682 42.327C69.7682 39.4927 67.687 37.5534 65.2715 37.5534C62.8559 37.5534 60.7747 39.4927 60.7747 42.327C60.7747 45.1329 62.8559 47.1005 65.2715 47.1005C67.687 47.1005 69.7682 45.1293 69.7682 42.327Z" fill="#FBBC05"/>
<path d="M89.8048 34.9252V49.0682C89.8048 54.886 86.3324 57.2621 82.2275 57.2621C78.3633 57.2621 76.0377 54.7084 75.1606 52.6199L78.2088 51.3662C78.7516 52.6484 80.0815 54.1614 82.2239 54.1614C84.8515 54.1614 86.4798 52.5596 86.4798 49.5441V48.4111H86.3576C85.574 49.3665 84.0643 50.2012 82.1592 50.2012C78.1728 50.2012 74.5208 46.7702 74.5208 42.3554C74.5208 37.9086 78.1728 34.4492 82.1592 34.4492C84.0607 34.4492 85.5704 35.2839 86.3576 36.2109H86.4798V34.9287H89.8048V34.9252ZM86.7278 42.3554C86.7278 39.5815 84.8551 37.5534 82.4719 37.5534C80.0564 37.5534 78.0326 39.5815 78.0326 42.3554C78.0326 45.1009 80.0564 47.1005 82.4719 47.1005C84.8551 47.1005 86.7278 45.1009 86.7278 42.3554Z" fill="#4285F4"/>
<path d="M95.2856 26.6367V49.7231H91.8708V26.6367H95.2856Z" fill="#34A853"/>
<path d="M108.593 44.9214L111.311 46.7114C110.434 47.9936 108.32 50.2028 104.668 50.2028C100.139 50.2028 96.7566 46.7434 96.7566 42.325C96.7566 37.6403 100.168 34.4473 104.276 34.4473C108.414 34.4473 110.437 37.7007 111.099 39.4588L111.462 40.3538L100.804 44.7154C101.62 46.2959 102.889 47.1021 104.668 47.1021C106.451 47.1021 107.688 46.2355 108.593 44.9214ZM100.229 42.0871L107.353 39.164C106.962 38.1801 105.782 37.4947 104.395 37.4947C102.616 37.4947 100.139 39.0468 100.229 42.0871Z" fill="#EA4335"/>
<path d="M27.0946 40.2772V36.935H38.4928C38.6043 37.5175 38.6618 38.2065 38.6618 38.9524C38.6618 41.4599 37.968 44.5606 35.7322 46.7698C33.5575 49.0074 30.779 50.2008 27.0982 50.2008C20.2757 50.2008 14.5388 44.7098 14.5388 37.9685C14.5388 31.2273 20.2757 25.7363 27.0982 25.7363C30.8724 25.7363 33.5611 27.1996 35.5813 29.1069L33.1945 31.4653C31.7459 30.1227 29.7833 29.0785 27.0946 29.0785C22.1125 29.0785 18.2161 33.0458 18.2161 37.9685C18.2161 42.8913 22.1125 46.8586 27.0946 46.8586C30.326 46.8586 32.1664 45.5764 33.3455 44.4114C34.3016 43.4666 34.9306 42.117 35.1787 40.2736L27.0946 40.2772Z" fill="#4285F4"/>
</svg>
