<svg width="24" height="24" viewBox="0 0 24 24" fill="none" xmlns="http://www.w3.org/2000/svg">
<path fill-rule="evenodd" clip-rule="evenodd" d="M11.3753 1.21913C11.7405 0.926956 12.2595 0.926956 12.6247 1.21913L22.6247 9.21913C22.8619 9.4089 23 9.69622 23 10V22C23 22.5523 22.5523 23 22 23H16C15.4477 23 15 22.5523 15 22V14H9V22C9 22.5523 8.55228 23 8 23H2C1.44772 23 1 22.5523 1 22V10C1 9.69622 1.13809 9.4089 1.3753 9.21913L11.3753 1.21913ZM3 10.4806V21H7V13C7 12.4477 7.44772 12 8 12H16C16.5523 12 17 12.4477 17 13V21H21V10.4806L12 3.28062L3 10.4806Z" fill="#EA5B21"/>
<path d="M16 15.5C16 15.7761 15.4883 16 14.8571 16L9.14286 16C8.51167 16 8 15.7761 8 15.5C8 15.2239 8.51167 15 9.14286 15L14.8571 15C15.4883 15 16 15.2239 16 15.5Z" fill="#EA5B21"/>
<path d="M16 17.5C16 17.7761 15.4883 18 14.8571 18L9.14286 18C8.51167 18 8 17.7761 8 17.5C8 17.2239 8.51167 17 9.14286 17L14.8571 17C15.4883 17 16 17.2239 16 17.5Z" fill="#EA5B21"/>
<path d="M16 19.5C16 19.7761 15.4883 20 14.8571 20L9.14286 20C8.51167 20 8 19.7761 8 19.5C8 19.2239 8.51167 19 9.14286 19L14.8571 19C15.4883 19 16 19.2239 16 19.5Z" fill="#EA5B21"/>
</svg>
