<svg width="14" height="14" viewBox="0 0 14 14" fill="none" xmlns="http://www.w3.org/2000/svg">
<g id="alert/help">
<path id="Transparent BG" d="M0.005 0.005H13.995V13.995H0.005V0.005Z" stroke="white" stroke-opacity="0.01" stroke-width="0.01"/>
<g id="alert/info">
<path id="Transparent BG_2" d="M0.005 0.005H13.995V13.995H0.005V0.005Z" stroke="white" stroke-opacity="0.01" stroke-width="0.01"/>
<path id="Oval" fill-rule="evenodd" clip-rule="evenodd" d="M12.2488 6.99851C12.2488 4.09902 9.89829 1.74851 6.99879 1.74851C4.0993 1.74851 1.74879 4.09902 1.74879 6.99851C1.74879 9.89801 4.0993 12.2485 6.99879 12.2485C9.89829 12.2485 12.2488 9.89801 12.2488 6.99851ZM0.582031 6.9987C0.582031 3.45487 3.45487 0.582031 6.9987 0.582031C10.5425 0.582031 13.4154 3.45487 13.4154 6.9987C13.4154 10.5425 10.5425 13.4154 6.9987 13.4154C3.45487 13.4154 0.582031 10.5425 0.582031 6.9987ZM6.41536 6.99888V9.91555H7.58203V5.83222H5.2487V6.99888H6.41536ZM7.58203 5.24907V4.0824H6.41536V5.24907H7.58203Z" fill="#989898"/>
</g>
</g>
</svg>
