<svg width="16" height="16" viewBox="0 0 16 16" fill="none" xmlns="http://www.w3.org/2000/svg">
<path fill-rule="evenodd" clip-rule="evenodd" d="M2.66669 6.61466C2.66669 3.70199 5.05935 1.33333 8.00002 1.33333C10.9407 1.33333 13.3334 3.70199 13.3334 6.61466C13.3334 10.2647 8.63402 14.334 8.43402 14.5053C8.30869 14.6127 8.15469 14.6667 8.00002 14.6667C7.84535 14.6667 7.69135 14.6127 7.56602 14.5053C7.36602 14.334 2.66669 10.2647 2.66669 6.61466ZM8.00002 13.0973C6.88335 12.0413 4.00002 9.07666 4.00002 6.61466C4.00002 4.43799 5.79402 2.66666 8.00002 2.66666C10.206 2.66666 12 4.43799 12 6.61466C12 9.07666 9.11669 12.0413 8.00002 13.0973ZM5.66669 6.33299C5.66669 5.04632 6.71335 3.99966 8.00002 3.99966C9.28669 3.99966 10.3334 5.04632 10.3334 6.33299C10.3334 7.61966 9.28669 8.66632 8.00002 8.66632C6.71335 8.66632 5.66669 7.61966 5.66669 6.33299ZM7.00002 6.33299C7.00002 6.88432 7.44869 7.33299 8.00002 7.33299C8.55135 7.33299 9.00002 6.88432 9.00002 6.33299C9.00002 5.78166 8.55135 5.33299 8.00002 5.33299C7.44869 5.33299 7.00002 5.78166 7.00002 6.33299Z" fill="#333333"/>
<mask id="mask0" mask-type="alpha" maskUnits="userSpaceOnUse" x="2" y="1" width="12" height="14">
<path fill-rule="evenodd" clip-rule="evenodd" d="M2.66669 6.61466C2.66669 3.70199 5.05935 1.33333 8.00002 1.33333C10.9407 1.33333 13.3334 3.70199 13.3334 6.61466C13.3334 10.2647 8.63402 14.334 8.43402 14.5053C8.30869 14.6127 8.15469 14.6667 8.00002 14.6667C7.84535 14.6667 7.69135 14.6127 7.56602 14.5053C7.36602 14.334 2.66669 10.2647 2.66669 6.61466ZM8.00002 13.0973C6.88335 12.0413 4.00002 9.07666 4.00002 6.61466C4.00002 4.43799 5.79402 2.66666 8.00002 2.66666C10.206 2.66666 12 4.43799 12 6.61466C12 9.07666 9.11669 12.0413 8.00002 13.0973ZM5.66669 6.33299C5.66669 5.04632 6.71335 3.99966 8.00002 3.99966C9.28669 3.99966 10.3334 5.04632 10.3334 6.33299C10.3334 7.61966 9.28669 8.66632 8.00002 8.66632C6.71335 8.66632 5.66669 7.61966 5.66669 6.33299ZM7.00002 6.33299C7.00002 6.88432 7.44869 7.33299 8.00002 7.33299C8.55135 7.33299 9.00002 6.88432 9.00002 6.33299C9.00002 5.78166 8.55135 5.33299 8.00002 5.33299C7.44869 5.33299 7.00002 5.78166 7.00002 6.33299Z" fill="white"/>
</mask>
<g mask="url(#mask0)">
</g>
</svg>
