<svg width="24" height="24" viewBox="0 0 24 24" fill="none" xmlns="http://www.w3.org/2000/svg">
<path d="M7.54887 2.85887C8.85026 3.02048 10.0912 2.69402 11.1502 1.89044C11.5034 1.63985 11.7104 1.49465 11.8693 1.40445C11.896 1.38929 11.9178 1.37783 11.9351 1.36925C11.9524 1.37783 11.9742 1.38929 12.0009 1.40445C12.1619 1.49581 12.3722 1.64358 12.7337 1.90014L12.7337 1.90015C13.8384 2.68409 15.0015 3.02083 16.3798 2.85973L16.3798 2.85976L16.387 2.85888C16.7912 2.80868 17.0269 2.78537 17.1899 2.78607C17.2138 2.78617 17.2334 2.78684 17.2491 2.78774C17.2596 2.80305 17.2726 2.82309 17.2881 2.84889C17.3759 2.995 17.4783 3.21074 17.6471 3.57964C18.2073 4.84763 19.1107 5.74411 20.3837 6.29924C20.7549 6.46688 20.9727 6.56888 21.1203 6.65646C21.1454 6.67137 21.1652 6.68398 21.1805 6.69429C21.1812 6.70834 21.1817 6.7253 21.1818 6.74551C21.1825 6.90604 21.1592 7.13893 21.1086 7.54076L21.1086 7.54076L21.1078 7.548C20.9463 8.9115 21.2787 10.1378 22.076 11.2466L22.0827 11.2561L22.0898 11.2654C22.3442 11.6025 22.4927 11.8052 22.5843 11.9588C22.6059 11.995 22.6205 12.0225 22.6303 12.0424C22.6236 12.0582 22.6144 12.0787 22.6015 12.1044C22.5312 12.2455 22.4138 12.4324 22.2079 12.7476C21.9137 13.1194 21.6673 13.5231 21.4964 14.013C21.1604 14.7889 21.0961 15.6091 21.1706 16.4228L21.1721 16.4397L21.1742 16.4565C21.2248 16.8584 21.2481 17.0912 21.2474 17.2518C21.2473 17.272 21.2468 17.2889 21.2461 17.303C21.2308 17.3133 21.211 17.3259 21.1859 17.3408C21.0382 17.4284 20.8204 17.5304 20.4492 17.6981C19.1739 18.2542 18.2696 19.1529 17.7096 20.4245L17.6912 20.4664L17.6806 20.498C17.6767 20.505 17.665 20.526 17.6377 20.5712C17.6352 20.5752 17.6326 20.5796 17.6297 20.5843C17.5856 20.657 17.4952 20.8059 17.4273 20.9937C17.3457 21.1895 17.2787 21.2394 17.2728 21.2434C17.2714 21.2438 17.2683 21.2445 17.2632 21.2451C17.2479 21.247 17.2031 21.2496 17.1196 21.2312C16.7946 21.1328 16.4878 21.1304 16.3102 21.1307C15.5397 21.0607 14.8245 21.1413 14.113 21.3769L14.0852 21.3861L14.0581 21.3969C13.6846 21.5453 13.2047 21.7784 12.7788 22.1117C12.4298 22.3593 12.2244 22.5032 12.0665 22.5928C12.0398 22.608 12.018 22.6194 12.0007 22.628C11.9834 22.6194 11.9616 22.608 11.9349 22.5928C11.774 22.5014 11.5637 22.3537 11.2022 22.0971L11.2022 22.0971C10.0974 21.3132 8.93441 20.9764 7.55602 21.1375L7.55601 21.1375L7.54885 21.1384C7.14461 21.1886 6.90895 21.2119 6.7459 21.2112C6.72203 21.2111 6.70251 21.2104 6.68682 21.2095C6.67631 21.1942 6.66329 21.1742 6.64779 21.1484C6.55998 21.0022 6.45758 20.7865 6.28877 20.4177C5.72858 19.1497 4.8252 18.2532 3.5522 17.6981C3.181 17.5304 2.96321 17.4284 2.81553 17.3408C2.7904 17.3259 2.77064 17.3133 2.75535 17.303C2.75464 17.2889 2.75414 17.272 2.75405 17.2518C2.75335 17.0912 2.77663 16.8584 2.8272 16.4565L2.82722 16.4565L2.82808 16.4493C2.98935 15.0874 2.65795 13.8624 1.86285 12.7547C1.62626 12.4189 1.49071 12.2201 1.40877 12.0704C1.39219 12.0401 1.38048 12.0164 1.37232 11.9986C1.38048 11.9809 1.39219 11.9572 1.40877 11.9269C1.49071 11.7771 1.62627 11.5784 1.86288 11.2425C2.65795 10.1348 2.98935 8.90983 2.82808 7.548L2.82811 7.548L2.8272 7.54076C2.77663 7.13893 2.75335 6.90604 2.75405 6.74551C2.75414 6.7253 2.75464 6.70834 2.75534 6.69429C2.77064 6.68399 2.7904 6.67137 2.81552 6.65646C2.96319 6.56888 3.18097 6.46688 3.55214 6.29923C4.82519 5.7441 5.7286 4.8476 6.2888 3.57952C6.45758 3.21071 6.55998 2.99501 6.64778 2.84891C6.66328 2.8231 6.6763 2.80305 6.68682 2.78774C6.70251 2.78684 6.72204 2.78617 6.74592 2.78607C6.90898 2.78537 7.14463 2.80868 7.54887 2.85887ZM7.54887 2.85887L7.6721 1.8665M7.54887 2.85887L7.6721 1.8665M7.6721 1.8665C6.09809 1.67105 6.0325 1.73618 5.37662 3.16967L16.2637 1.8665C15.1488 1.99681 14.2306 1.73618 13.3124 1.08462C12.6238 0.595916 12.2795 0.351562 11.9351 0.351562C11.5908 0.351562 11.2465 0.595916 10.5578 1.08462C9.70523 1.73618 8.72146 1.99681 7.6721 1.8665Z" stroke="#EA5B21" stroke-width="2"/>
<path d="M10.1079 10.9396C10.961 10.1053 10.961 8.75778 10.1079 7.9877C9.71411 7.60269 9.18913 7.41016 8.59847 7.41016C8.00786 7.41016 7.48283 7.60269 7.08906 8.05189C6.23594 8.88611 6.23594 10.2337 7.08906 11.0038C7.48283 11.3888 8.00786 11.6455 8.59847 11.6455C9.18913 11.5171 9.71411 11.3246 10.1079 10.9396ZM8.59847 8.62944C9.05787 8.62944 9.38597 9.01445 9.38597 9.39947C9.38597 9.84867 8.99224 10.1695 8.59847 10.1695C8.13912 10.1695 7.81098 9.84867 7.81098 9.39947C7.81098 8.95026 8.20475 8.62944 8.59847 8.62944Z" fill="#EA5B21"/>
<path d="M16.5457 13.7003C16.1549 13.3153 15.6339 13.0586 15.0477 13.0586C14.4616 13.0586 13.9405 13.2511 13.5498 13.7003C13.159 14.0853 12.8984 14.5987 12.8984 15.1762C12.8984 15.7538 13.0938 16.2671 13.5498 16.6521C13.9405 17.0372 14.4616 17.2939 15.0477 17.2939C15.6339 17.2939 16.1549 17.1014 16.5457 16.6521C16.9364 16.2671 17.1969 15.7538 17.1969 15.1762C17.1318 14.6628 16.9364 14.0853 16.5457 13.7003ZM15.0477 16.0746C14.5918 16.0746 14.2662 15.6896 14.2662 15.3046C14.2662 14.8554 14.6569 14.5345 15.0477 14.5345C15.5036 14.5345 15.8293 14.9196 15.8293 15.3046C15.8944 15.6254 15.5036 16.0746 15.0477 16.0746Z" fill="#EA5B21"/>
<path d="M15.8613 8.0204C15.7279 7.89108 15.5278 7.76172 15.2609 7.76172C14.9942 7.76172 14.8607 7.89108 14.7273 8.0204L7.79021 14.8098C7.6568 14.9391 7.52344 15.1331 7.52344 15.3917C7.52344 15.5857 7.59009 15.7797 7.79021 15.9737C7.92362 16.103 8.12374 16.2323 8.39057 16.2323C8.65734 16.2323 8.79075 16.1677 8.99087 15.9737L15.928 9.1843C16.1948 8.86099 16.1948 8.34367 15.8613 8.0204Z" fill="#EA5B21"/>
</svg>
