<svg width="24" height="24" viewBox="0 0 24 24" fill="none" xmlns="http://www.w3.org/2000/svg">
<path d="M22.8879 10.6629C22.232 9.75064 21.9696 8.77328 22.1008 7.6656C22.2976 6.10181 22.232 6.03663 20.7891 5.38507C19.7398 4.92895 19.0183 4.21221 18.5592 3.16967C17.9034 1.73618 17.8378 1.67105 16.2637 1.8665C15.1488 1.99681 14.2306 1.73618 13.3124 1.08462C11.9351 0.107209 11.9351 0.107209 10.5578 1.08462C9.70523 1.73618 8.72146 1.99681 7.6721 1.8665C6.09809 1.67105 6.0325 1.73618 5.37662 3.16967C4.91756 4.21221 4.19609 4.92895 3.14673 5.38507C1.70384 6.03663 1.63825 6.10181 1.83502 7.6656C1.96619 8.77328 1.70384 9.75064 1.04801 10.6629C0.129829 11.966 0.129829 12.0312 1.04801 13.3344C1.70384 14.2466 1.96619 15.2239 1.83502 16.3317C1.63825 17.8955 1.70384 17.9606 3.14673 18.6122C4.19609 19.0683 4.91756 19.7851 5.37662 20.8276C6.0325 22.2611 6.09809 22.3262 7.6721 22.1307C8.78705 22.0004 9.70523 22.2611 10.6235 22.9127C12.0007 23.89 12.0007 23.89 13.378 22.9127C13.706 22.652 14.0994 22.4565 14.4274 22.3262C15.0176 22.1307 15.6079 22.0656 16.2637 22.1307C16.4605 22.1307 16.6573 22.1307 16.854 22.1959C17.641 22.3914 18.1002 22.0004 18.3625 21.3489C18.428 21.1534 18.5593 21.0231 18.6248 20.8276C19.0839 19.7851 19.8053 19.0683 20.8547 18.6122C22.2976 17.9606 22.3632 17.8955 22.1664 16.3317C22.1008 15.6149 22.1664 14.9633 22.4288 14.3769C22.5599 13.986 22.7567 13.6602 23.019 13.3344C23.8716 12.0312 23.8716 11.966 22.8879 10.6629Z" fill="#06C270"/>
<path d="M10.1079 10.9396C10.961 10.1053 10.961 8.75778 10.1079 7.9877C9.71411 7.60269 9.18913 7.41016 8.59847 7.41016C8.00786 7.41016 7.48283 7.60269 7.08906 8.05189C6.23594 8.88611 6.23594 10.2337 7.08906 11.0038C7.48283 11.3888 8.00786 11.6455 8.59847 11.6455C9.18913 11.5171 9.71411 11.3246 10.1079 10.9396ZM8.59847 8.62944C9.05787 8.62944 9.38597 9.01445 9.38597 9.39947C9.38597 9.84867 8.99224 10.1695 8.59847 10.1695C8.13912 10.1695 7.81098 9.84867 7.81098 9.39947C7.81098 8.95026 8.20475 8.62944 8.59847 8.62944Z" fill="white"/>
<path d="M16.5457 13.7003C16.1549 13.3153 15.6339 13.0586 15.0477 13.0586C14.4616 13.0586 13.9405 13.2511 13.5498 13.7003C13.159 14.0853 12.8984 14.5987 12.8984 15.1762C12.8984 15.7538 13.0938 16.2671 13.5498 16.6522C13.9405 17.0372 14.4616 17.2939 15.0477 17.2939C15.6339 17.2939 16.1549 17.1014 16.5457 16.6522C16.9364 16.2671 17.1969 15.7538 17.1969 15.1762C17.1318 14.6628 16.9364 14.0853 16.5457 13.7003ZM15.0477 16.0746C14.5918 16.0746 14.2662 15.6896 14.2662 15.3046C14.2662 14.8554 14.6569 14.5345 15.0477 14.5345C15.5036 14.5345 15.8293 14.9196 15.8293 15.3046C15.8944 15.6254 15.5036 16.0746 15.0477 16.0746Z" fill="white"/>
<path d="M15.8613 8.0204C15.7279 7.89108 15.5278 7.76172 15.2609 7.76172C14.9942 7.76172 14.8607 7.89108 14.7273 8.0204L7.79021 14.8098C7.6568 14.9391 7.52344 15.1331 7.52344 15.3917C7.52344 15.5857 7.59009 15.7797 7.79021 15.9737C7.92362 16.103 8.12374 16.2323 8.39057 16.2323C8.65734 16.2323 8.79075 16.1677 8.99087 15.9737L15.928 9.1843C16.1948 8.86099 16.1948 8.34367 15.8613 8.0204Z" fill="white"/>
</svg>
