<svg width="14" height="14" viewBox="0 0 14 14" fill="none" xmlns="http://www.w3.org/2000/svg">
<path fill-rule="evenodd" clip-rule="evenodd" d="M5.84079 0C6.14029 0 6.43097 0.0953994 6.70275 0.298171L6.80286 0.384761L13.6057 6.95304C14.0922 7.42278 14.1375 8.16712 13.6912 8.71927L13.6057 8.81083L9.1255 13.1366C8.63899 13.6063 7.86806 13.65 7.2962 13.2191L7.20136 13.1366L0.398502 6.56828C0.186722 6.3638 0.0510506 6.09789 0.0073756 5.76896L0 5.63939V1.31366C0 0.645039 0.519634 0.085412 1.24206 0.0055092L1.36057 0H5.84079ZM5.84133 1.31232L1.4003 1.31124L1.36027 1.31237L1.35964 5.59482L1.36112 5.63807L8.13323 12.1784L8.16461 12.2069L12.6153 7.9103L12.6448 7.88L5.84133 1.31232ZM3.74238 1.96686C4.68166 1.96686 5.4431 2.70204 5.4431 3.60893C5.4431 4.51582 4.68166 5.251 3.74238 5.251C2.8031 5.251 2.04167 4.51582 2.04167 3.60893C2.04167 2.70204 2.8031 1.96686 3.74238 1.96686ZM3.74145 3.28251C3.5536 3.28251 3.40131 3.42954 3.40131 3.61092C3.40131 3.7923 3.5536 3.93934 3.74145 3.93934C3.92931 3.93934 4.0816 3.7923 4.0816 3.61092C4.0816 3.42954 3.92931 3.28251 3.74145 3.28251Z" fill="white"/>
</svg>
