<svg width="180" height="144" viewBox="0 0 180 144" fill="none" xmlns="http://www.w3.org/2000/svg">
<g clip-path="url(#clip0)">
<path d="M94.9652 87.8691C95.7166 84.2282 94.5042 77.4288 101.636 70.9541C107.638 65.4997 131.115 56.5807 125.312 30.9091C119.508 5.23279 94.7209 1.29972 70.5378 12.8299C48.6551 23.2609 33.4889 41.6787 32.6268 64.9292C31.8708 85.2903 38.2784 101.95 54.5925 109.167C68.8968 115.489 90.5029 109.515 94.9652 87.8691Z" fill="url(#paint0_linear)"/>
<path d="M128.479 128.229C129.037 127.455 129.12 125.029 129.004 123.002C128.889 120.975 130.562 119.649 130.562 119.649H130.567C130.572 119.64 130.608 119.575 130.682 119.463L127.054 120.289C127.054 120.298 127.05 120.312 127.05 120.321C126.533 124.106 126.598 130.479 126.603 130.734C126.653 130.187 126.681 129.816 126.681 129.816C126.681 129.816 127.769 129.217 128.479 128.229Z" fill="#EF6744"/>
<path d="M126.395 136.485C127.271 135.873 128.787 134.732 129.539 132.77C130.696 129.755 131.323 128.132 131.323 128.132C131.323 128.132 130.94 126.768 131.253 126.374C131.355 126.244 131.47 126.226 131.571 126.207C131.949 126.147 132.148 126.012 132.244 125.739L133.392 122.747C133.498 122.441 133.328 122.051 133.166 121.769C132.959 121.407 132.613 120.915 132.111 120.526C131.226 119.834 130.58 119.654 130.562 119.649H130.557C130.557 119.649 128.879 120.975 128.999 123.002C129.114 125.029 129.036 127.455 128.474 128.229C127.764 129.217 126.671 129.811 126.671 129.811C126.671 129.811 126.648 130.187 126.593 130.729C126.514 131.55 126.367 132.77 126.127 133.711C125.915 134.546 125.772 135.418 125.68 136.049C125.634 136.448 126.072 136.712 126.395 136.485Z" fill="#151E27"/>
<path d="M170.825 82.0853C169.875 82.0714 167.856 83.4072 166.279 84.6687C164.703 85.9349 162.656 85.3227 162.656 85.3227V85.318C162.647 85.318 162.573 85.3273 162.439 85.3319L165.201 87.8365C165.21 87.8319 165.219 87.8272 165.233 87.8226C168.603 86.0648 173.738 82.3358 173.946 82.1827C173.471 82.4564 173.153 82.6511 173.153 82.6511C173.153 82.6511 172.037 82.0992 170.825 82.0853Z" fill="#EF6744"/>
<path d="M178.73 79.0381C177.73 78.6717 175.927 78.0826 173.899 78.5975C170.783 79.3859 169.105 79.808 169.105 79.808C169.105 79.808 168.22 80.9072 167.717 80.8794C167.556 80.8701 167.473 80.7866 167.399 80.7124C167.132 80.4388 166.906 80.3506 166.629 80.4295L163.536 81.2087C163.223 81.2968 163.006 81.6632 162.872 81.96C162.702 82.3404 162.499 82.9062 162.471 83.5416C162.425 84.6687 162.646 85.2994 162.656 85.3226V85.3273C162.656 85.3273 164.702 85.9395 166.279 84.6733C167.855 83.4071 169.875 82.076 170.824 82.0899C172.037 82.1038 173.147 82.6557 173.147 82.6557C173.147 82.6557 173.466 82.4609 173.94 82.1873C174.655 81.7792 175.729 81.1994 176.628 80.8515C177.425 80.5454 178.218 80.1605 178.785 79.8683C179.136 79.6828 179.103 79.1726 178.73 79.0381Z" fill="#151E27"/>
<path d="M162.434 85.332L162.421 85.3228C162.421 85.3228 162.416 85.3228 161.706 85.3367C162.033 85.3459 162.278 85.3413 162.434 85.332Z" fill="#2755A3"/>
<path d="M165.2 87.8365L162.439 85.332C162.282 85.3412 162.038 85.3459 161.711 85.3366C161.494 85.3412 161.213 85.3459 160.84 85.3552C160.06 85.3691 158.548 85.216 156.29 84.7986C153.957 84.3673 150.832 83.6483 146.872 82.5352C139.081 80.3414 133.07 84.6223 133.07 84.6223C133.07 84.6223 134.596 82.6883 136.421 78.143C138.247 73.5977 141.944 69.3168 138.731 62.0768C135.942 55.7875 130.198 55.3655 130.198 55.3655C130.198 55.3655 124.634 59.8412 122.463 72.248C121.062 80.2672 122.182 92.1453 124.058 93.8706C125.934 95.596 131.982 96.788 144.184 95.2296C156.386 93.6712 165.219 87.8597 165.219 87.8597L165.2 87.8365Z" fill="#2755A3"/>
<path d="M126.137 92.5859C126.035 91.1528 125.994 89.65 125.971 88.625C125.694 84.6131 125.791 79.9982 126.445 76.2368C128.598 63.8253 129.073 62.5823 129.073 62.5823C129.073 62.5823 138.906 56.358 138.933 56.3256C143.714 50.9964 145.286 55.4397 146.069 57.615C149.052 65.8707 142.229 77.5679 140.408 82.1178C138.892 85.9071 139.837 97.1776 135.799 111.106C134.111 116.926 131.023 120.321 130.857 120.419C129.792 121.026 127.026 120.173 127.026 120.173C127.026 120.173 126.533 98.3186 126.137 92.5859Z" fill="url(#paint1_linear)"/>
<path d="M129.732 120.915C128.538 120.915 127.155 120.502 126.943 120.437L126.749 120.377L126.745 120.173C126.74 119.955 126.242 98.2629 125.85 92.6045C125.749 91.1574 125.703 89.6408 125.684 88.6297C125.38 84.2235 125.555 79.6875 126.164 76.1904C128.298 63.8949 128.782 62.5359 128.805 62.4849L128.838 62.3968L128.916 62.3458C132.166 60.2865 138.297 56.4044 138.744 56.1122C140.514 54.1457 142.003 53.3109 143.298 53.566C145.027 53.9045 145.834 56.1447 146.318 57.4851C148.839 64.4747 144.534 73.774 141.957 79.3304C141.431 80.4667 140.975 81.4499 140.666 82.2199C140.085 83.6669 139.869 86.357 139.588 89.7613C139.14 95.2203 138.527 102.692 136.066 111.185C134.36 117.066 131.216 120.535 130.99 120.66C130.668 120.85 130.216 120.915 129.732 120.915ZM127.302 119.955C128.16 120.196 129.995 120.586 130.718 120.168C131.05 119.895 133.945 116.495 135.531 111.022C137.974 102.586 138.587 95.1415 139.03 89.7103C139.325 86.1251 139.537 83.5324 140.145 82.0065C140.459 81.2227 140.915 80.2348 141.45 79.0892C143.99 73.6116 148.236 64.4422 145.802 57.7077C145.345 56.4508 144.608 54.3962 143.188 54.1179C142.118 53.9092 140.749 54.7115 139.136 56.5111C139.099 56.5482 139.08 56.5761 129.303 62.7632C129.179 63.1899 128.584 65.5414 126.717 76.2831C126.118 79.7385 125.947 84.2281 126.247 88.6018C126.265 89.6222 126.311 91.1249 126.413 92.5627C126.786 97.9429 127.252 117.71 127.302 119.955Z" fill="white"/>
<path d="M101.926 45.9318C101.926 45.9318 102.789 46.6553 102.83 48.1673C102.871 49.6794 102.309 50.542 102.309 50.542C102.309 50.542 100.474 50.7647 98.2663 50.3658C96.0582 49.9623 94.9057 49.0439 94.7075 48.7703C94.1175 47.9633 94.6245 47.7453 94.6245 47.7453C94.6245 47.7453 94.3341 47.0913 94.6706 46.6971C94.9149 46.4095 95.4313 46.6461 95.4313 46.6461C95.4313 46.6461 95.3483 46.173 95.7171 46.006C96.0858 45.839 97.2245 46.8223 97.9436 46.9429C98.6627 47.0635 99.1929 47.0449 99.1929 47.0449C99.1929 47.0449 98.3539 46.3075 98.7319 46.0107C99.1053 45.7138 99.7737 46.1452 100.525 46.122C101.276 46.0988 101.926 45.9318 101.926 45.9318Z" fill="#EF6744"/>
<path d="M7.01058 111.226L1.99512 114.051L6.1255 136.661L11.3023 136.392C11.5097 135.711 13.1785 131.128 14.082 124.635C14.5753 121.087 14.2895 118.675 14.2895 118.675L7.01058 111.226Z" fill="black"/>
<path d="M13.3257 120.465H13.321C13.2842 120.465 12.353 120.428 10.7903 119.324C9.0708 118.109 8.74351 116.908 8.72968 116.857C8.68819 116.708 8.78039 116.551 8.93251 116.514C9.08463 116.472 9.23676 116.565 9.27364 116.713C9.27824 116.732 9.58249 117.78 11.1129 118.865C12.5189 119.858 13.3303 119.904 13.3395 119.904C13.4916 119.909 13.6161 120.039 13.6115 120.196C13.6022 120.345 13.4778 120.465 13.3257 120.465Z" fill="white"/>
<path d="M12.8051 122.617H12.8005C12.7637 122.617 11.8325 122.58 10.2698 121.476C8.5503 120.261 8.223 119.06 8.20917 119.009C8.16768 118.861 8.25988 118.703 8.412 118.666C8.55952 118.624 8.71164 118.717 8.75313 118.865C8.75774 118.879 9.06198 119.932 10.5924 121.017C11.9984 122.01 12.8098 122.056 12.819 122.056C12.9711 122.061 13.0956 122.191 13.091 122.348C13.0817 122.497 12.9573 122.617 12.8051 122.617Z" fill="white"/>
<path d="M12.312 124.774H12.3074C12.2705 124.774 11.3393 124.737 9.77659 123.633C8.05713 122.418 7.72984 121.217 7.71601 121.166C7.67452 121.017 7.76671 120.86 7.91884 120.823C8.06635 120.781 8.21847 120.874 8.25996 121.022C8.26457 121.036 8.56882 122.089 10.0993 123.174C11.5053 124.167 12.3166 124.213 12.3258 124.213C12.4779 124.218 12.6024 124.347 12.5978 124.505C12.584 124.654 12.4595 124.774 12.312 124.774Z" fill="white"/>
<path d="M11.9106 126.921H11.906C11.8691 126.921 10.9379 126.884 9.37522 125.78C7.65576 124.565 7.32847 123.364 7.31464 123.313C7.27315 123.165 7.36535 123.007 7.51747 122.97C7.66498 122.928 7.81711 123.021 7.8586 123.169C7.86321 123.183 8.16745 124.236 9.69791 125.321C11.1039 126.314 11.9152 126.36 11.9244 126.36C12.0766 126.365 12.201 126.495 12.1964 126.652C12.1872 126.801 12.0627 126.921 11.9106 126.921Z" fill="white"/>
<path d="M2.98158 113.49L6.77544 133.675C6.88608 134.273 7.38394 134.727 7.98782 134.778L11.731 135.112L11.2838 136.508C11.1409 136.949 10.7307 137.251 10.2697 137.246L6.59105 137.227C6.09319 137.223 5.66909 136.875 5.55846 136.388L0.976313 115.484C0.874897 115.025 1.08695 114.552 1.49261 114.325L2.98158 113.49Z" fill="#EF6744"/>
<path d="M39.3386 75.3231C39.3386 75.3231 36.7617 78.4816 32.7604 86.7512C30.2342 91.9644 28.229 96.9689 28.229 96.9689L7.01465 111.226L14.2981 118.675L37.4624 105.559C40.007 104.158 42.0768 102.024 43.4044 99.427L58.5707 72.0068L39.3386 75.3231Z" fill="url(#paint2_linear)"/>
<path d="M17.3727 116.05C17.2989 116.05 17.2252 116.022 17.1699 115.962L11.6519 110.127C11.5459 110.016 11.5505 109.835 11.6611 109.728C11.7718 109.621 11.9516 109.626 12.0576 109.737L17.5755 115.572C17.6815 115.683 17.6769 115.864 17.5663 115.971C17.511 116.022 17.4418 116.05 17.3727 116.05Z" fill="white"/>
<path d="M42.4777 107.803L37.4023 110.911L51.5406 129.384L55.9015 126.564C55.7447 125.868 54.9288 121.059 52.5133 114.969C51.1903 111.644 49.7566 109.691 49.7566 109.691L42.4777 107.803Z" fill="black"/>
<path d="M48.8711 113.624C48.6083 113.624 48.3133 113.61 47.9906 113.582C45.8977 113.383 45.0219 112.506 44.985 112.469C44.8744 112.358 44.879 112.177 44.9896 112.07C45.1002 111.963 45.2754 111.963 45.3861 112.075C45.3999 112.089 46.1836 112.845 48.0459 113.021C49.7561 113.183 50.4845 112.817 50.4891 112.812C50.6228 112.743 50.7934 112.794 50.8671 112.933C50.9409 113.067 50.8902 113.239 50.7565 113.313C50.7242 113.322 50.1526 113.624 48.8711 113.624Z" fill="white"/>
<path d="M49.4843 115.757C49.2216 115.757 48.9266 115.744 48.6039 115.716C46.511 115.516 45.6352 114.64 45.5983 114.603C45.4876 114.491 45.4923 114.31 45.6029 114.204C45.7135 114.097 45.8887 114.097 45.9993 114.208C46.0224 114.232 46.8061 114.978 48.6592 115.154C50.3648 115.317 51.0978 114.95 51.1024 114.946C51.2361 114.876 51.4066 114.927 51.4804 115.066C51.5541 115.201 51.5034 115.372 51.3697 115.447C51.3329 115.456 50.7613 115.757 49.4843 115.757Z" fill="white"/>
<path d="M50.1162 117.872C49.8534 117.872 49.5584 117.859 49.2357 117.831C47.1429 117.631 46.267 116.755 46.2301 116.718C46.1195 116.606 46.1241 116.425 46.2347 116.319C46.3454 116.212 46.5205 116.212 46.6312 116.323C46.6496 116.342 47.4333 117.093 49.291 117.27C51.0013 117.432 51.7296 117.065 51.7342 117.061C51.8679 116.991 52.0385 117.042 52.1122 117.181C52.186 117.316 52.1353 117.487 52.0016 117.562C51.9647 117.571 51.3931 117.872 50.1162 117.872Z" fill="white"/>
<path d="M50.8261 119.936C50.5634 119.936 50.2684 119.923 49.9457 119.895C47.8528 119.695 46.977 118.819 46.9401 118.782C46.8294 118.67 46.8341 118.489 46.9447 118.383C47.0553 118.276 47.2305 118.276 47.3411 118.387C47.355 118.401 48.1386 119.157 50.001 119.333C51.7112 119.496 52.4396 119.129 52.4442 119.125C52.5779 119.055 52.7484 119.106 52.8222 119.245C52.8959 119.38 52.8452 119.551 52.7115 119.626C52.6793 119.635 52.1077 119.936 50.8261 119.936Z" fill="white"/>
<path d="M37.4346 110.906L50.6278 126.471C51.0196 126.935 51.6742 127.079 52.2274 126.824L55.6433 125.242L55.9429 126.68C56.0397 127.135 55.8277 127.598 55.4266 127.826L52.2228 129.648C51.7895 129.894 51.2501 129.806 50.9136 129.435L36.2544 113.026C35.941 112.678 35.586 112.2 36.13 111.759L37.4346 110.906Z" fill="#EF6744"/>
<path d="M56.4318 73.1292C56.4318 73.1292 75.0968 79.5251 77.4663 86.8161C79.8311 94.1118 49.7614 109.691 49.7614 109.691L42.4825 107.803C42.4825 107.803 45.0179 103.518 50.2039 98.1608C54.0761 94.1628 58.1835 91.0831 58.1835 91.0831C58.1835 91.0831 49.978 90.5683 42.9711 87.4469C36.9139 84.7476 35.8628 77.0809 38.6564 73.1942C41.4499 69.3075 43.9668 68.1804 43.9668 68.1804L56.4318 73.1292Z" fill="url(#paint3_linear)"/>
<path d="M49.7895 109.988L42.0451 107.98L42.2387 107.655C42.2663 107.613 44.8524 103.281 50.0016 97.9613C52.9934 94.8678 56.1649 92.2983 57.4372 91.3011C55.266 91.0924 48.6187 90.2715 42.8564 87.7066C40.0813 86.4682 38.0991 84.1167 37.2831 81.0742C36.5041 78.18 36.942 75.0957 38.4264 73.0318C41.2291 69.1312 43.7461 67.9763 43.8521 67.9253L43.9581 67.8789L56.5245 72.8648C57.3819 73.157 75.3509 79.4091 77.7296 86.7326C80.1405 94.1721 51.1218 109.306 49.8864 109.946L49.7895 109.988ZM42.9209 107.622L49.725 109.385C50.6193 108.916 57.6539 105.201 64.3473 100.749C73.6775 94.5385 78.1214 89.752 77.1994 86.9042C74.9038 79.8265 56.5291 73.4585 56.3447 73.3936L56.3309 73.3889L43.9812 68.4911C43.4879 68.7462 41.2798 70.0263 38.8827 73.3611C37.4952 75.2905 37.0941 78.1893 37.8271 80.9258C38.5969 83.7967 40.4685 86.023 43.0869 87.1871C49.9693 90.2529 58.1241 90.7909 58.207 90.8002L58.9723 90.8466L58.3592 91.3057C58.3177 91.3382 54.2196 94.4179 50.4119 98.3556C46.1063 102.799 43.6124 106.532 42.9209 107.622Z" fill="white"/>
<path d="M60.3728 90.7493C60.2483 90.7493 60.1331 90.6659 60.1008 90.5406C60.0593 90.3922 60.1515 90.2345 60.299 90.1974L63.6135 89.3208C63.7656 89.2791 63.9177 89.3718 63.9546 89.5203C63.9961 89.6687 63.9039 89.8264 63.7564 89.8635L60.4419 90.7401C60.4235 90.7493 60.3958 90.7493 60.3728 90.7493Z" fill="white"/>
<path d="M62.1299 92.7158C62.1115 92.7158 62.0884 92.7158 62.07 92.7111L60.0002 92.2566C59.8481 92.2241 59.7512 92.0711 59.7881 91.9227C59.8204 91.7696 59.9679 91.6769 60.12 91.7093L62.1898 92.1639C62.342 92.1963 62.4388 92.3494 62.4019 92.4978C62.3742 92.623 62.259 92.7158 62.1299 92.7158Z" fill="white"/>
<path d="M60.1056 74.0477C60.1056 74.0477 62.4658 56.7663 62.9729 51.414C63.48 46.0617 61.1751 41.5999 58.4553 41.1082C55.7355 40.6166 50.7154 40.1992 50.7154 40.1992C50.7154 40.1992 44.8702 38.3579 42.344 46.4976C39.8179 54.6374 37.2041 72.8464 37.2041 72.8464C37.2041 72.8464 42.6621 77.401 50.2222 75.1376C55.482 73.57 60.1056 74.0477 60.1056 74.0477Z" fill="white"/>
<path d="M129.695 33.214C123.537 25.1577 116.313 32.2632 116.313 32.2632C116.313 32.2632 114.658 32.9357 113.93 33.0934C111.491 33.6175 109.882 36.5209 109.578 39.9253C103.447 46.1495 100.847 46.1078 100.847 46.1078L102.179 50.5511C102.179 50.5511 105.936 51.2421 112.561 49.3127C112.607 49.3637 112.653 49.4147 112.699 49.4611C113.045 49.8182 113.409 50.2542 113.787 50.7459C112.657 51.423 111.445 52.0352 110.191 52.513C103.322 55.1335 97.0439 55.2587 97.0439 55.2587L97.8829 59.7993C97.8829 59.7993 100.308 60.8846 108.329 60.7548C111.934 60.6991 115.483 60.2214 118.77 59.1268C120.66 62.7955 122.08 65.9958 122.08 65.9958C122.08 65.9958 126.215 63.8113 131.687 63.4356C145.193 62.5126 149.831 45.0782 149.831 45.0782C149.831 45.0782 136.504 42.1191 129.695 33.214Z" fill="#F1C4D9"/>
<path d="M98.2607 55.194C98.2607 55.194 99.0167 56.0335 98.8507 57.5362C98.6848 59.0389 98.0072 59.8135 98.0072 59.8135C98.0072 59.8135 96.1632 59.781 94.0289 59.0761C91.8946 58.3711 90.8804 57.2997 90.7191 57.0028C90.2443 56.1216 90.7744 55.9778 90.7744 55.9778C90.7744 55.9778 90.5762 55.2914 90.9634 54.9435C91.2446 54.6931 91.724 54.9992 91.724 54.9992C91.724 54.9992 91.7056 54.5215 92.0928 54.4055C92.48 54.2896 93.4711 55.4213 94.1672 55.6393C94.8633 55.8572 95.3934 55.9129 95.3934 55.9129C95.3934 55.9129 94.6651 55.0688 95.0753 54.823C95.4856 54.5818 96.0895 55.1012 96.8363 55.1801C97.5831 55.2589 98.2607 55.194 98.2607 55.194Z" fill="#EF6744"/>
<path d="M112.667 25.1069C110.366 24.555 110.339 28.5808 110.339 28.5808L110.334 28.5762C110.352 28.7014 110.375 28.8313 110.408 28.9519C110.735 30.2598 111.634 31.2523 112.192 31.7393C112.436 31.9527 112.773 32.0176 113.081 31.9248L113.565 31.7764C113.565 31.7764 113.722 32.3423 113.801 32.7504C113.957 33.5853 114.792 33.6177 115.571 33.2374C116.064 32.9962 116.557 32.3005 116.557 32.3005L116.553 32.2773C116.184 32.1336 115.806 31.9063 115.409 31.5816C113.967 30.4036 114.884 25.6356 112.667 25.1069Z" fill="#EF6744"/>
<path d="M142.866 4.24023C135.301 -2.58699 125.238 0.919381 121.518 4.64374C118.18 7.98778 119.655 11.8652 118.807 13.9755C117.954 16.0858 117.3 17.4587 114.031 17.4262C110.758 17.3938 108.61 18.762 107.868 21.9019C106.863 26.1643 110.265 28.5251 110.334 28.5715L110.339 28.5761C110.339 28.5761 110.367 24.5503 112.667 25.1022C114.884 25.6356 113.962 30.4035 115.405 31.5816C115.802 31.9062 116.184 32.1335 116.548 32.2773C119.088 33.2791 121.006 30.3803 123.657 29.2162C125.058 28.6039 126.635 29.7866 128.949 28.3257C133.001 25.7654 133.01 19.4484 137.546 20.8584C143.553 22.7275 152.993 13.3865 142.866 4.24023Z" fill="#151E27"/>
<path d="M111.326 29.2254C111.294 29.2254 111.257 29.2115 111.234 29.1883C111.201 29.1604 111.188 29.1233 111.188 29.0816L111.201 27.8154C111.201 27.7366 111.252 27.6855 111.344 27.6763C111.423 27.6763 111.483 27.7412 111.483 27.82L111.469 28.9239L111.907 28.8636C111.98 28.8497 112.054 28.9054 112.063 28.9842C112.073 29.063 112.022 29.1326 111.944 29.1419L111.344 29.23C111.34 29.2254 111.33 29.2254 111.326 29.2254Z" fill="black"/>
<path d="M112.077 30.3386C112.04 30.3386 112.003 30.3386 111.961 30.334C111.883 30.3294 111.828 30.2598 111.832 30.181C111.837 30.1021 111.906 30.0418 111.984 30.0511C112.39 30.0789 112.455 29.9119 112.459 29.9073C112.487 29.8377 112.565 29.796 112.634 29.8192C112.704 29.8424 112.745 29.9166 112.727 29.9862C112.722 30.0093 112.621 30.3386 112.077 30.3386Z" fill="black"/>
<path d="M112.575 27.7784C112.335 27.7784 112.156 27.6485 112.146 27.6439C112.082 27.5975 112.068 27.5094 112.114 27.4444C112.16 27.3795 112.248 27.3702 112.308 27.412C112.308 27.412 112.46 27.5186 112.64 27.4862C112.769 27.463 112.888 27.3702 112.995 27.2125C113.036 27.1476 113.124 27.129 113.188 27.1754C113.253 27.2172 113.271 27.3053 113.225 27.3702C113.073 27.5975 112.893 27.7274 112.681 27.7645C112.653 27.7737 112.612 27.7784 112.575 27.7784Z" fill="black"/>
<path d="M131.147 60.7505L131.82 59.1829" stroke="#2755A3" stroke-miterlimit="10" stroke-linecap="round" stroke-linejoin="round"/>
<path d="M117.139 56.1263L117.816 54.5586" stroke="#2755A3" stroke-miterlimit="10" stroke-linecap="round" stroke-linejoin="round"/>
<path d="M142.806 54.2246L141.114 54.0715" stroke="#2755A3" stroke-miterlimit="10" stroke-linecap="round" stroke-linejoin="round"/>
<path d="M122.038 52.0865L123.393 51.0615" stroke="#2755A3" stroke-miterlimit="10" stroke-linecap="round" stroke-linejoin="round"/>
<path d="M125.173 33.5667L123.924 32.4119" stroke="#2755A3" stroke-miterlimit="10" stroke-linecap="round" stroke-linejoin="round"/>
<path d="M127.437 38.0146L129.133 37.9033" stroke="#2755A3" stroke-miterlimit="10" stroke-linecap="round" stroke-linejoin="round"/>
<path d="M120.849 35.7606L122.209 34.7356" stroke="#2755A3" stroke-miterlimit="10" stroke-linecap="round" stroke-linejoin="round"/>
<path d="M125.791 56.2841L124.744 55.6301" stroke="#2755A3" stroke-miterlimit="10" stroke-linecap="round" stroke-linejoin="round"/>
<path d="M140.261 57.4526L140.611 58.6446" stroke="#2755A3" stroke-miterlimit="10" stroke-linecap="round" stroke-linejoin="round"/>
<path d="M121.886 57.5269L120.554 57.5222" stroke="#2755A3" stroke-miterlimit="10" stroke-linecap="round" stroke-linejoin="round"/>
<path d="M126.289 62.1141L126.284 60.7783" stroke="#2755A3" stroke-miterlimit="10" stroke-linecap="round" stroke-linejoin="round"/>
<path d="M134.232 56.4972L133.738 55.3608" stroke="#2755A3" stroke-miterlimit="10" stroke-linecap="round" stroke-linejoin="round"/>
<path d="M130.534 55.2034L129.262 55.6022" stroke="#2755A3" stroke-miterlimit="10" stroke-linecap="round" stroke-linejoin="round"/>
<path d="M136.951 59.3218L136.209 60.4349" stroke="#2755A3" stroke-miterlimit="10" stroke-linecap="round" stroke-linejoin="round"/>
<path d="M144.465 50.4911L143.387 49.8975" stroke="#2755A3" stroke-miterlimit="10" stroke-linecap="round" stroke-linejoin="round"/>
<path d="M140.026 50.5327L139.266 51.6319" stroke="#2755A3" stroke-miterlimit="10" stroke-linecap="round" stroke-linejoin="round"/>
<path d="M147.872 46.0339L147.964 47.3697" stroke="#2755A3" stroke-miterlimit="10" stroke-linecap="round" stroke-linejoin="round"/>
<path d="M124.315 45.9132L122.863 45.301" stroke="#2755A3" stroke-miterlimit="10" stroke-linecap="round" stroke-linejoin="round"/>
<path d="M144.571 47.0449L143.055 47.4531" stroke="#2755A3" stroke-miterlimit="10" stroke-linecap="round" stroke-linejoin="round"/>
<path d="M119.291 47.9492L118.392 49.3685" stroke="#2755A3" stroke-miterlimit="10" stroke-linecap="round" stroke-linejoin="round"/>
<path d="M136.969 46.0061L136.07 47.4253" stroke="#2755A3" stroke-miterlimit="10" stroke-linecap="round" stroke-linejoin="round"/>
<path d="M127.801 50.2312L127.681 48.6543" stroke="#2755A3" stroke-miterlimit="10" stroke-linecap="round" stroke-linejoin="round"/>
<path d="M132.06 50.0227L130.396 49.8696" stroke="#2755A3" stroke-miterlimit="10" stroke-linecap="round" stroke-linejoin="round"/>
<path d="M123.279 62.3877L122.56 60.8711" stroke="#2755A3" stroke-miterlimit="10" stroke-linecap="round" stroke-linejoin="round"/>
<path d="M118.12 37.8615L116.673 37.2493" stroke="#2755A3" stroke-miterlimit="10" stroke-linecap="round" stroke-linejoin="round"/>
<path d="M138.532 43.2326L137.085 42.6204" stroke="#2755A3" stroke-miterlimit="10" stroke-linecap="round" stroke-linejoin="round"/>
<path d="M132.724 46.5441L131.276 45.9319" stroke="#2755A3" stroke-miterlimit="10" stroke-linecap="round" stroke-linejoin="round"/>
<path d="M107.453 55.6902L106.024 56.5621" stroke="#2755A3" stroke-miterlimit="10" stroke-linecap="round" stroke-linejoin="round"/>
<path d="M118.959 42.147L119.526 40.7742" stroke="#2755A3" stroke-miterlimit="10" stroke-linecap="round" stroke-linejoin="round"/>
<path d="M131.797 41.6788L132.364 40.3059" stroke="#2755A3" stroke-miterlimit="10" stroke-linecap="round" stroke-linejoin="round"/>
<path d="M115.796 42.4903L114.962 41.2473" stroke="#2755A3" stroke-miterlimit="10" stroke-linecap="round" stroke-linejoin="round"/>
<path d="M118.94 32.7644L117.571 33.3534" stroke="#2755A3" stroke-miterlimit="10" stroke-linecap="round" stroke-linejoin="round"/>
<path d="M113.515 54.2525L112.686 53.0142" stroke="#2755A3" stroke-miterlimit="10" stroke-linecap="round" stroke-linejoin="round"/>
<path d="M111.648 43.6036L110.813 42.3652" stroke="#2755A3" stroke-miterlimit="10" stroke-linecap="round" stroke-linejoin="round"/>
<path d="M128.999 43.3067L128.165 42.0684" stroke="#2755A3" stroke-miterlimit="10" stroke-linecap="round" stroke-linejoin="round"/>
<path d="M137.679 55.0921L137.287 53.6589" stroke="#2755A3" stroke-miterlimit="10" stroke-linecap="round" stroke-linejoin="round"/>
<path d="M125.131 39.4339L124.297 38.1956" stroke="#2755A3" stroke-miterlimit="10" stroke-linecap="round" stroke-linejoin="round"/>
<path d="M102.631 57.1421L102.156 58.5613" stroke="#2755A3" stroke-miterlimit="10" stroke-linecap="round" stroke-linejoin="round"/>
<path d="M112.768 57.156L113.934 58.0836" stroke="#2755A3" stroke-miterlimit="10" stroke-linecap="round" stroke-linejoin="round"/>
<path d="M108.896 57.3599L108.421 58.7791" stroke="#2755A3" stroke-miterlimit="10" stroke-linecap="round" stroke-linejoin="round"/>
<path d="M109.052 45.7278L107.762 46.7945" stroke="#2755A3" stroke-miterlimit="10" stroke-linecap="round" stroke-linejoin="round"/>
<path d="M113.589 37.6018L112.298 38.6686" stroke="#2755A3" stroke-miterlimit="10" stroke-linecap="round" stroke-linejoin="round"/>
<path d="M104.479 47.8521L104.212 49.3223" stroke="#2755A3" stroke-miterlimit="10" stroke-linecap="round" stroke-linejoin="round"/>
<path d="M110.712 47.1748L110.444 48.6497" stroke="#2755A3" stroke-miterlimit="10" stroke-linecap="round" stroke-linejoin="round"/>
<path d="M114.593 47.8101L113.764 46.5718" stroke="#2755A3" stroke-miterlimit="10" stroke-linecap="round" stroke-linejoin="round"/>
<path d="M82.8427 37.1125L58.375 41.6975L62.413 63.511L86.8807 58.926L82.8427 37.1125Z" fill="white"/>
<path d="M62.4107 63.7927C62.277 63.7927 62.1618 63.6999 62.1341 63.5608L58.0959 41.748C58.0821 41.6738 58.0959 41.5996 58.142 41.5346C58.1881 41.4697 58.2481 41.4326 58.3218 41.4187L82.7906 36.8316C82.9382 36.8038 83.0903 36.9012 83.1179 37.0589L87.1561 58.8717C87.17 58.9459 87.1561 59.0201 87.11 59.085C87.0685 59.1453 87.004 59.1871 86.9303 59.201L62.4614 63.788C62.4476 63.788 62.4292 63.7927 62.4107 63.7927ZM58.6998 41.9196L62.6366 63.1758L86.5522 58.6908L82.6155 37.4346L58.6998 41.9196Z" fill="#2755A3"/>
<path d="M82.8418 37.11L88.7147 30.4683L92.2273 49.4379L86.88 58.9227L82.8418 37.11Z" fill="white"/>
<path d="M86.8841 59.2056C86.8703 59.2056 86.8519 59.2057 86.838 59.201C86.7228 59.1825 86.6306 59.0897 86.6075 58.9737L82.5694 37.161C82.5555 37.0728 82.5786 36.9847 82.6339 36.9198L88.5068 30.2781C88.5759 30.1992 88.6912 30.1621 88.7926 30.1946C88.894 30.2224 88.9724 30.3106 88.9954 30.4126L92.5081 49.3822C92.5219 49.4472 92.5081 49.5168 92.4758 49.5724L87.1331 59.0572C87.0777 59.15 86.9809 59.2056 86.8841 59.2056ZM83.1456 37.1934L87.0178 58.1111L91.9318 49.3915L88.5437 31.0898L83.1456 37.1934Z" fill="#2755A3"/>
<path d="M58.377 41.697L64.886 34.8559L88.6818 30.3987L82.8412 37.11L58.377 41.697Z" fill="white"/>
<path d="M58.3727 41.9799C58.2713 41.9799 58.1745 41.9243 58.1238 41.8315C58.0638 41.7249 58.0823 41.5904 58.1699 41.5022L64.6789 34.6657C64.7204 34.624 64.7711 34.5962 64.831 34.5823L88.6268 30.1204C88.7467 30.0973 88.8619 30.1529 88.9219 30.2596C88.9818 30.3663 88.968 30.4961 88.8896 30.5842L83.0536 37.2955C83.0121 37.3419 82.9568 37.3744 82.8922 37.3883L58.4234 41.9753C58.4096 41.9753 58.3911 41.9799 58.3727 41.9799ZM65.0246 35.1203L59.1794 41.2611L82.694 36.8549L87.9354 30.8301L65.0246 35.1203Z" fill="#2755A3"/>
<path d="M88.1479 44.7489C88.0603 44.7489 87.9727 44.7072 87.922 44.633L82.6161 37.277C82.5239 37.1518 82.5516 36.9755 82.676 36.8828C82.8005 36.79 82.9757 36.8178 83.0679 36.9431L87.8943 43.6404L88.3968 30.3895C88.4014 30.2364 88.512 30.1112 88.6872 30.1158C88.8439 30.1205 88.9638 30.255 88.9592 30.408L88.4245 44.4753C88.4198 44.5959 88.3415 44.6979 88.2262 44.735C88.2032 44.7443 88.1755 44.7489 88.1479 44.7489Z" fill="#2755A3"/>
<path d="M86.8848 59.2057C86.7327 59.2057 86.6082 59.0805 86.6036 58.9274L86.2902 42.2675C86.2856 42.1098 86.41 41.9846 86.5667 41.98C86.7419 41.98 86.848 42.1006 86.8526 42.2583L87.166 58.9182C87.1706 59.0759 87.0462 59.2011 86.8894 59.2057C86.8848 59.2057 86.8848 59.2057 86.8848 59.2057Z" fill="#2755A3"/>
<path d="M92.227 49.7208C92.121 49.7208 92.0196 49.6606 91.9735 49.5539L88.0505 40.8761C87.986 40.7323 88.0505 40.5653 88.1888 40.5004C88.3317 40.4355 88.4977 40.5004 88.5622 40.6395L92.4852 49.3173C92.5497 49.4611 92.4852 49.6281 92.3469 49.693C92.3054 49.7116 92.2639 49.7208 92.227 49.7208Z" fill="#2755A3"/>
<path d="M70.4272 37.5414L68.1914 39.7723L68.9198 43.724L71.6534 43.2138L70.9204 39.2621L73.3313 36.9988L70.4272 37.5414Z" fill="#EF6744"/>
<path d="M45.9764 40.751C42.1042 42.3882 37.7664 51.6504 43.7822 58.9275C49.9824 66.4273 58.8793 67.712 67.7808 66.7705C73.1743 66.2 75.0643 64.8735 75.0643 64.8735L74.2069 60.3375C74.2069 60.3375 71.9942 60.9636 64.8305 59.3449C59.4186 58.1251 54.3571 54.0668 53.0801 52.643C50.743 50.041 53.389 41.7899 53.389 41.7899C53.389 41.7899 51.0518 38.5989 45.9764 40.751Z" fill="white"/>
<path d="M72.3167 60.6528C55.1221 60.6528 50.7567 48.7284 50.7152 48.6078C50.6645 48.4594 50.7382 48.3017 50.8857 48.246C51.0332 48.195 51.19 48.2739 51.2453 48.4176C51.2868 48.5336 55.5416 60.0823 72.3167 60.0823C72.3766 60.0823 72.432 60.0823 72.4919 60.0823C72.6486 60.0823 72.7731 60.2076 72.7731 60.3653C72.7731 60.5229 72.6486 60.6482 72.4919 60.6482C72.4366 60.6528 72.3766 60.6528 72.3167 60.6528Z" fill="#2755A3"/>
<path d="M74.1702 60.3515C74.1702 60.3515 73.5386 61.2884 73.912 62.754C74.2854 64.2196 75.0645 64.8875 75.0645 64.8875C75.0645 64.8875 76.8853 64.5953 78.8998 63.5935C80.9143 62.5917 81.7671 61.3904 81.8824 61.0704C82.2281 60.1335 81.6842 60.0639 81.6842 60.0639C81.6842 60.0639 81.781 59.3543 81.3522 59.0667C81.0388 58.858 80.6055 59.2291 80.6055 59.2291C80.6055 59.2291 80.5594 58.7514 80.1583 58.6957C79.7573 58.6354 78.9367 59.897 78.2775 60.2123C77.6183 60.5277 77.102 60.6576 77.102 60.6576C77.102 60.6576 77.7059 59.7161 77.2634 59.5352C76.8208 59.3543 76.2999 59.9526 75.5716 60.1428C74.8432 60.3329 74.1702 60.3515 74.1702 60.3515Z" fill="#EF6744"/>
<path d="M98.3344 55.5139C98.1869 55.5139 98.0625 55.398 98.0532 55.2449C98.044 55.0872 98.1639 54.9574 98.3206 54.9481C117.511 53.937 122.084 40.3429 122.13 40.2084C122.176 40.0599 122.338 39.9765 122.485 40.0275C122.633 40.0739 122.716 40.2316 122.665 40.38C122.619 40.5191 117.945 54.4843 98.3483 55.5139C98.3436 55.5139 98.339 55.5139 98.3344 55.5139Z" fill="#2755A3"/>
<path d="M57.1376 34.6565L57.0869 33.4274C57.0869 33.4274 56.2157 33.5341 55.9022 33.0517C55.8792 33.0146 55.8515 32.9682 55.8238 32.9172C55.5104 32.3885 54.2888 30.5565 53.3392 32.1566C52.7629 33.1259 52.4126 34.1556 52.5232 35.1342C52.6108 35.9273 52.9473 36.2288 52.7814 36.957C52.7768 36.9709 52.7675 36.9848 52.7675 37.0034C52.6292 37.4857 52.0853 37.8197 51.8271 37.9913L51.7672 38.1907L51.085 40.2454C51.085 40.2454 51.3892 41.0338 52.6523 41.1405C53.6941 41.2286 54.2196 40.5376 54.2196 40.5376L54.8097 38.2788C55.7224 38.0423 57.2391 37.379 57.6401 36.8225C58.1011 36.1778 57.1376 34.6565 57.1376 34.6565Z" fill="#EF6744"/>
<path d="M51.8774 37.8149L51.8359 37.9541C51.8728 37.8891 51.9051 37.8428 51.8774 37.8149Z" fill="black"/>
<path d="M51.8372 37.9541C51.8277 37.9684 51.8182 37.9874 51.8135 38.0017C51.8182 37.997 51.823 37.997 51.8277 37.9922L51.8372 37.9541Z" fill="black"/>
<path d="M55.9252 30.3431C55.077 29.4016 54.4593 30.1762 54.4593 30.1762C54.4593 30.1762 54.0306 28.372 52.8827 28.256C51.7349 28.1401 51.0941 29.6753 51.0941 29.6753C51.0941 29.6753 49.4484 29.0677 48.236 30.2689C47.0237 31.4655 47.9963 33.9191 47.9963 33.9191C47.9963 33.9191 46.7655 34.3411 47.1066 36.0016C47.6229 38.4876 50.9189 38.636 51.7579 38.0377C51.7717 38.0284 51.8271 37.9913 51.8271 37.9913C52.0852 37.8197 52.6292 37.4857 52.7675 37.0034C52.7721 36.9895 52.7813 36.9756 52.7813 36.957C52.9472 36.2288 52.6107 35.9274 52.5231 35.1342C52.4125 34.1603 52.7629 33.1306 53.3391 32.1566C54.2887 30.5565 55.5103 32.3885 55.8238 32.9173C55.8745 33.0007 55.9021 33.0518 55.9021 33.0518C55.9021 33.0518 56.7734 31.2847 55.9252 30.3431Z" fill="black"/>
<path d="M56.2389 35.6908C56.0592 35.6908 55.9485 35.6119 55.9393 35.6073C55.8748 35.5609 55.8609 35.4728 55.907 35.4125C55.9531 35.3476 56.0361 35.3337 56.1006 35.3754C56.1145 35.3847 56.3265 35.5099 56.64 35.2084C56.6953 35.1528 56.7875 35.1574 56.8382 35.2131C56.8935 35.2687 56.8889 35.3615 56.8336 35.4125C56.6031 35.6305 56.3957 35.6908 56.2389 35.6908Z" fill="black"/>
<path d="M53.795 34.4016C53.7259 34.4016 53.6659 34.3506 53.6567 34.2764C53.6521 34.2578 53.6014 33.7801 53.6936 33.2838C53.8642 32.4072 54.2929 32.3794 54.339 32.3794C54.4173 32.3794 54.4773 32.4443 54.4773 32.5185C54.4773 32.5927 54.4173 32.6577 54.3436 32.6623C54.3297 32.6623 54.0854 32.7133 53.9656 33.3395C53.878 33.794 53.9287 34.2393 53.9287 34.2439C53.9379 34.3227 53.8826 34.3923 53.8042 34.4016C53.8042 34.4016 53.7996 34.4016 53.795 34.4016Z" fill="black"/>
<path d="M54.6897 34.1788C54.6159 34.1788 54.5514 34.1185 54.5514 34.0443C54.5422 33.8402 54.6344 33.4506 55.0308 33.4228C55.1046 33.3996 55.1737 33.4738 55.1783 33.5526C55.1829 33.6315 55.1276 33.6964 55.0492 33.7011C54.828 33.715 54.828 33.9979 54.8326 34.0304C54.8326 34.1138 54.7727 34.1788 54.6897 34.1788C54.6943 34.1788 54.6897 34.1788 54.6897 34.1788Z" fill="black"/>
<path d="M106.706 113.23C106.711 113.271 106.711 113.318 106.715 113.364L106.706 113.23Z" fill="#EF6744"/>
<path d="M124.205 136.267C124.233 135.961 124.247 135.641 124.242 135.284C124.058 124.843 113.469 114.621 112.865 113.666C112.833 113.619 112.805 113.564 112.778 113.508C112.768 113.508 112.759 113.508 112.75 113.513L112.943 114.139C112.943 114.139 111.939 114.816 109.883 114.779C108.135 114.751 106.771 113.833 106.743 113.814C107.006 117.766 107.771 129.519 107.578 130.91C107.347 132.589 107.02 134.662 106.656 135.029C104.438 137.26 104.812 138.739 104.812 138.739L109.537 138.637C109.537 138.637 108.624 139.24 109.145 140.367C109.15 140.372 117.968 140.182 119.277 140.182C120.213 140.182 121.301 140.144 122.218 139.704C122.172 139.848 122.122 139.991 122.057 140.14C121.449 141.596 119.005 141.796 117.641 141.791C117.378 141.791 117.286 142.139 117.516 142.264C118.743 142.918 121.26 143.883 123.26 141.861C124.961 140.154 124.602 137.668 124.205 136.267Z" fill="#EF6744"/>
<path d="M106.743 113.805C106.743 113.805 106.748 113.81 106.743 113.805C106.734 113.643 106.725 113.494 106.716 113.36L106.743 113.805Z" fill="#2755A3"/>
<path d="M112.75 113.508L112.478 112.627C112.478 112.627 112.243 112.641 111.893 112.655C110.256 113.643 107.827 113.536 106.638 111.769C106.633 111.769 106.619 111.76 106.619 111.76L106.711 113.23L106.721 113.364C106.73 113.499 106.739 113.647 106.753 113.81C106.78 113.828 108.145 114.746 109.892 114.774C111.948 114.807 112.953 114.134 112.953 114.134L112.75 113.508Z" fill="#2755A3"/>
<path d="M112.298 106.449C111.099 104.311 111.593 102.043 111.593 102.043L110.021 101.018C110.021 101.018 107.739 101.537 107.578 104.107C107.522 104.979 107.356 105.679 107.154 106.277C106.439 106.806 106.37 103.963 106.319 103.434C106.268 102.892 106.066 103.017 105.913 103.124C105.766 103.23 105.78 104.543 105.849 105.623C106.089 109.366 105.678 109.362 106.102 110.586C106.227 111.045 106.411 111.435 106.637 111.773C107.831 113.541 110.256 113.652 111.892 112.659C112.773 112.126 113.423 111.277 113.529 110.201C113.672 108.74 113.317 108.272 112.298 106.449Z" fill="#EF6744"/>
<path d="M115.216 123.656C116.382 125.97 117.369 126.801 118.263 127.427C119.037 127.969 120.941 127.742 120.347 126.119C119.752 124.496 118.678 123.767 117.917 121.745C117.429 120.447 116.622 119.204 116.027 119.38C115.428 119.556 114.05 121.342 115.216 123.656Z" fill="#151E27"/>
<path d="M122.315 127.274C122.315 127.274 120.996 127.654 121.964 130.493C122.932 133.331 124.149 133.888 124.149 133.888C124.149 133.888 124.117 132.571 123.504 130.47C123.034 128.851 122.315 127.274 122.315 127.274Z" fill="#151E27"/>
<path d="M109.592 101.171C109.592 101.171 110.943 100.517 111.487 101.12C112.031 101.723 111.243 102.79 110.786 102.989C110.487 103.119 109.841 103.012 109.629 102.381C109.417 101.751 109.592 101.171 109.592 101.171Z" fill="#151E27"/>
<path d="M110.458 107.632C110.399 107.632 110.348 107.595 110.325 107.539C110.127 106.968 110.122 106.542 110.32 106.282C110.518 106.018 110.832 106.027 110.846 106.027C110.924 106.032 110.984 106.096 110.979 106.175C110.975 106.25 110.915 106.31 110.841 106.31C110.841 106.31 110.836 106.31 110.832 106.31C110.804 106.31 110.643 106.314 110.541 106.454C110.449 106.579 110.385 106.857 110.588 107.446C110.611 107.52 110.574 107.599 110.5 107.627C110.486 107.632 110.472 107.632 110.458 107.632Z" fill="black"/>
<path d="M111.381 109.037C111.358 108.916 111.436 108.796 111.561 108.787C112.04 108.745 113.128 108.814 113.686 110.173C114.29 111.634 114.884 113.638 115.078 114.306C115.133 114.496 115.152 114.691 115.119 114.886C115.046 115.382 114.741 116.244 113.543 116.439C112.713 116.574 111.127 116.059 110.971 114.64C110.809 113.22 111.206 110.934 111.349 110.229C111.468 109.668 111.427 109.264 111.381 109.037Z" fill="#151E27"/>
<path d="M100.917 109.501H88.5029V139.852H100.917V109.501Z" fill="#F1C4D9"/>
<path d="M93.3844 107.043C93.1816 105.067 92.8773 103.703 92.55 102.757C92.7805 102.437 92.9327 102.015 92.988 101.514C93.0848 100.601 92.3979 98.9448 91.6189 97.4374C92.1628 97.5951 92.5869 97.609 92.8866 97.5765C93.177 98.6665 93.4628 100.234 93.6426 102.479C93.8638 105.202 93.85 107.609 93.767 109.501H95.3805C95.6524 106.7 96.2655 102.419 97.5839 99.339C98.8148 96.4727 99.4279 94.3067 99.6952 92.688C99.9534 92.5999 100.212 92.4654 100.474 92.2706C102.913 90.4247 102.659 87.1966 102.475 86.051C102.433 85.8005 102.235 85.6104 101.986 85.5825C101.488 85.5222 101.313 84.8868 101.705 84.5714L102.171 84.205C102.341 84.0705 102.42 83.8479 102.374 83.6345C102.212 82.9203 101.765 81.1856 100.797 79.1078C99.7367 76.8259 98.2524 74.377 97.7822 73.621C97.69 73.4726 97.5332 73.3752 97.3581 73.3566L96.6666 73.287L97.0861 72.211C97.1414 72.0672 97.1368 71.9095 97.0723 71.7658C96.9524 71.5014 96.7173 71.0051 96.3623 70.3187C96.0258 69.6647 95.3574 68.4588 94.8964 67.624C94.6706 67.2158 94.0851 67.239 93.8915 67.6657C93.661 68.1713 93.4121 68.8345 93.2738 69.5534C92.9834 71.0979 93.1032 71.673 92.7575 75.1794C92.4947 77.837 92.4717 79.7571 92.4763 80.5317C92.4763 80.7636 92.6192 80.9677 92.8312 81.0511L93.5826 81.3526L93.1355 81.6912C92.9557 81.8257 92.8727 82.0483 92.9234 82.2663C93.0894 83.0038 93.4951 84.7709 94.0113 86.5797C94.5323 88.3932 96.284 92.0851 98.4183 92.7066C98.1509 94.1676 97.5747 96.1573 96.4269 98.8335C95.8092 100.271 95.3436 101.932 94.9886 103.583C94.9656 103.189 94.9379 102.785 94.9057 102.377C94.6982 99.8306 94.3617 98.0728 94.0021 96.8576C94.7397 95.995 95.8783 94.2186 95.279 91.8903C94.4216 88.5648 90.1391 83.0873 87.6314 81.3016C85.1236 79.516 84.5106 78.7785 84.5106 78.7785C84.5106 78.7785 84.0219 79.7618 83.5932 79.5159C83.1645 79.2701 82.9801 78.041 82.5514 77.9158C82.1227 77.7906 79.4305 75.8241 78.9419 76.4363C78.4533 77.0531 79.0018 80.0076 82.0627 83.2681C85.1237 86.5287 86.1609 86.96 86.9584 90.2252C87.1105 90.8421 87.2856 91.445 87.4839 92.0248C85.368 90.9673 83.0861 89.0425 81.8184 88.1335C81.1085 87.6233 80.2142 87.1687 79.5504 86.8673C79.1309 86.6725 78.6653 87.0342 78.7529 87.4888C78.9235 88.3746 79.3384 89.8356 80.3479 91.83C82.1227 95.3364 83.3443 95.5219 85.179 97.6786C87.0137 99.8306 87.5668 101.496 89.5214 102.785C90.2544 103.272 90.8997 103.453 91.4299 103.402C91.6834 104.209 91.9415 105.406 92.1213 107.168C92.2135 108.04 92.2827 108.81 92.3426 109.496H93.6103C93.555 108.782 93.4812 107.975 93.3844 107.043Z" fill="#2755A3"/>
<path d="M112.612 86.8627C111.381 87.2105 109.256 88.0732 107.343 90.1464C105.725 91.9042 103.153 93.2493 102.245 93.6899C102.051 93.7873 101.945 94.0006 101.991 94.214L102.258 95.4755L101.447 95.0256C101.254 94.919 101.018 94.9561 100.871 95.123C100.207 95.8651 98.4139 97.994 97.7086 100.012C97.22 101.412 97.3398 102.354 97.6994 102.998C97.2246 103.977 96.7452 105.146 96.3441 106.468C96.026 107.516 95.7633 108.541 95.542 109.496H96.842C97.0448 108.643 97.2799 107.743 97.5565 106.834C97.8838 105.758 98.2664 104.793 98.6536 103.954C98.7043 103.986 98.7596 104.019 98.8103 104.047C99.6355 104.501 101.516 103.977 102.489 103.652C102.793 103.55 102.908 103.179 102.719 102.92L101.406 101.111L103.18 102.507C103.383 102.665 103.674 102.637 103.835 102.437C104.78 101.264 107.813 97.4142 109.574 94.1119C111.036 91.3801 112.428 88.8524 113.151 87.5537C113.354 87.1873 113.018 86.7513 112.612 86.8627Z" fill="#2755A3"/>
<path d="M99.1834 92.4053C99.1788 92.4053 99.1788 92.4053 99.1742 92.4053C99.1051 92.4006 99.0544 92.3403 99.059 92.2708C99.437 87.7162 98.6072 85.2951 96.6941 80.2582C94.8456 75.3975 94.2048 68.1668 94.1956 68.0926C94.191 68.023 94.2417 67.9627 94.3108 67.9581C94.38 67.9534 94.4399 68.0044 94.4445 68.074C94.4491 68.1482 95.0899 75.3418 96.9246 80.1701C98.8515 85.2441 99.6905 87.6837 99.3033 92.294C99.3033 92.3543 99.248 92.4053 99.1834 92.4053Z" fill="white"/>
<path d="M93.1539 96.6908C93.1032 96.6908 93.0571 96.6629 93.0387 96.6119C93.0202 96.5702 91.3238 92.2429 90.0654 88.8617C88.8115 85.4899 87.069 83.9408 84.4875 82.4056C81.8922 80.8611 79.2185 77.0625 79.1908 77.0254C79.1494 76.9698 79.1632 76.8909 79.2231 76.8492C79.2784 76.8074 79.3568 76.8214 79.3983 76.8817C79.4259 76.9188 82.0674 80.6709 84.6166 82.1922C87.2442 83.7599 89.0189 85.3368 90.3005 88.7783C91.5589 92.1594 93.2553 96.4821 93.2738 96.5238C93.3014 96.5887 93.2692 96.6629 93.2046 96.6861C93.1816 96.6861 93.1677 96.6908 93.1539 96.6908Z" fill="white"/>
<path d="M91.665 102.73C91.6282 102.73 91.5959 102.716 91.5682 102.688C91.5544 102.674 90.2222 101.111 89.2679 99.4087C88.7102 98.4115 86.6818 94.9886 84.0404 92.8736C81.7171 91.0138 79.2601 87.6976 79.237 87.6651C79.1955 87.6095 79.2094 87.5306 79.2647 87.4889C79.32 87.4471 79.3984 87.461 79.4398 87.5167C79.4629 87.5492 81.9015 90.8375 84.1972 92.6789C86.8755 94.8216 88.9222 98.2816 89.4892 99.2881C90.4296 100.967 91.748 102.512 91.7572 102.525C91.8033 102.576 91.7941 102.655 91.7434 102.702C91.725 102.72 91.6927 102.73 91.665 102.73Z" fill="white"/>
<path d="M98.3033 103.425C98.2895 103.425 98.2757 103.425 98.2664 103.421C98.2019 103.397 98.165 103.328 98.1835 103.263C98.2203 103.152 99.0824 100.522 102.415 97.6462C105.638 94.868 107.892 91.9135 108.975 90.4943L109.09 90.3412C110.151 88.9544 112.469 87.2337 112.566 87.1642C112.621 87.1224 112.7 87.1363 112.741 87.192C112.783 87.2476 112.769 87.3265 112.714 87.3682C112.691 87.3868 110.326 89.14 109.288 90.4989L109.173 90.652C108.085 92.0805 105.817 95.0489 102.577 97.841C99.299 100.666 98.4278 103.314 98.4186 103.342C98.4093 103.388 98.3586 103.425 98.3033 103.425Z" fill="white"/>
<path d="M100.917 111.018H88.498V111.518H100.917V111.018Z" fill="#2755A3"/>
<path d="M100.917 112.701H88.498V113.202H100.917V112.701Z" fill="#2755A3"/>
</g>
<defs>
<linearGradient id="paint0_linear" x1="79.3955" y1="6.66465" x2="79.3942" y2="111.542" gradientUnits="userSpaceOnUse">
<stop stop-color="#EF6744"/>
<stop offset="0.0596" stop-color="#F07456"/>
<stop offset="0.1763" stop-color="#F18874"/>
<stop offset="0.2976" stop-color="#F19990"/>
<stop offset="0.4221" stop-color="#F1A8A8"/>
<stop offset="0.5508" stop-color="#F1B4BC"/>
<stop offset="0.6852" stop-color="#F1BDCB"/>
<stop offset="0.8293" stop-color="#F1C2D5"/>
<stop offset="1" stop-color="#F1C4D9"/>
</linearGradient>
<linearGradient id="paint1_linear" x1="154.735" y1="80.0186" x2="117.266" y2="94.3205" gradientUnits="userSpaceOnUse">
<stop offset="0.2808" stop-color="#151E27"/>
<stop offset="0.3581" stop-color="#1D2838"/>
<stop offset="0.5192" stop-color="#283A5B"/>
<stop offset="0.6694" stop-color="#2C4678"/>
<stop offset="0.8044" stop-color="#2B4E8E"/>
<stop offset="0.9191" stop-color="#28529C"/>
<stop offset="1" stop-color="#2755A3"/>
</linearGradient>
<linearGradient id="paint2_linear" x1="47.2142" y1="65.5923" x2="16.6517" y2="119.967" gradientUnits="userSpaceOnUse">
<stop offset="0.2808" stop-color="#151E27"/>
<stop offset="0.3581" stop-color="#1D2838"/>
<stop offset="0.5192" stop-color="#283A5B"/>
<stop offset="0.6694" stop-color="#2C4678"/>
<stop offset="0.8044" stop-color="#2B4E8E"/>
<stop offset="0.9191" stop-color="#28529C"/>
<stop offset="1" stop-color="#2755A3"/>
</linearGradient>
<linearGradient id="paint3_linear" x1="33.9613" y1="83.0561" x2="72.03" y2="100.582" gradientUnits="userSpaceOnUse">
<stop offset="0.2808" stop-color="#151E27"/>
<stop offset="0.3581" stop-color="#1D2838"/>
<stop offset="0.5192" stop-color="#283A5B"/>
<stop offset="0.6694" stop-color="#2C4678"/>
<stop offset="0.8044" stop-color="#2B4E8E"/>
<stop offset="0.9191" stop-color="#28529C"/>
<stop offset="1" stop-color="#2755A3"/>
</linearGradient>
<clipPath id="clip0">
<rect width="178.081" height="142.718" fill="white" transform="translate(0.948242 0.358154)"/>
</clipPath>
</defs>
</svg>
