<svg width="130" height="130" viewBox="0 0 130 130" fill="none" xmlns="http://www.w3.org/2000/svg">
<mask id="mask0" mask-type="alpha" maskUnits="userSpaceOnUse" x="0" y="0" width="130" height="130">
<rect x="0.5" y="0.5" width="129" height="129" fill="#C4C4C4" stroke="#EA5B21"/>
</mask>
<g mask="url(#mask0)">
</g>
<g clip-path="url(#clip0)">
<path d="M1 129.278L26.8259 110.592L50.433 104.684L55.9993 99.1192L79.6259 106.758L109.468 129.598L1 129.278Z" fill="#F1C4D9"/>
<path d="M81.0598 129.462L57.9856 113.365L50.6656 104.499C50.559 104.373 50.3749 104.354 50.249 104.461C50.123 104.562 50.1036 104.752 50.2102 104.878L57.2686 113.423L20.0872 113.951C19.9225 113.951 19.7917 114.087 19.7966 114.252C19.7966 114.412 19.9322 114.543 20.0921 114.543H20.0969L57.7918 114.009C57.816 114.009 57.8354 114 57.8548 113.995L80.7304 129.952C80.7837 129.985 80.8418 130.005 80.9 130.005C80.992 130.005 81.0841 129.961 81.1422 129.879C81.2245 129.738 81.1955 129.554 81.0598 129.462Z" fill="white"/>
<path d="M40.2645 33.6787C43.8784 33.4606 46.4605 37.9539 48.8537 42.2726C51.2517 46.5914 53.8193 49.8195 57.0651 49.0634C60.3109 48.3072 61.677 44.2745 65.1312 45.685C68.5804 47.0955 75.7938 45.0306 80.5221 47.5123C85.2503 49.994 88.6026 55.607 92.3862 54.2982C96.1697 52.9895 96.7947 50.2073 102.056 51.4191C107.312 52.6308 106.823 49.0392 115.029 48.1279C115.354 48.094 115.659 48.0697 115.955 48.0552C120.116 43.7995 124.084 40.2223 126.08 32.2198C118.726 32.9129 105.442 32.8208 105.205 31.8562C104.895 30.5863 109.061 30.2034 109.061 30.2034C109.061 30.2034 108.746 28.6765 111.125 28.1434C113.503 27.6102 113.808 28.1143 113.808 28.1143C113.808 28.1143 114.748 26.3063 119.011 26.6989C122.291 27.0043 123.803 28.9431 123.803 28.9431C124.36 28.9383 125.498 28.9916 126.714 29.1225C127.906 21.5029 125.576 13.4906 114.743 8.40118C107.99 5.22634 92.9627 1.80914 77.2859 5.82738C53.4511 11.9347 44.2612 16.9127 31.0551 29.5878C30.0039 30.596 29.0059 31.6866 28.0612 32.8256C29.7083 34.1004 31.1956 35.4091 32.3244 35.3946C34.4947 35.3704 36.6505 33.9017 40.2645 33.6787ZM95.0894 14.3922C95.0894 14.3922 94.7648 13.0398 97.2258 12.56C99.682 12.0801 99.9969 12.5309 99.9969 12.5309C99.9969 12.5309 100.971 10.9265 105.369 11.2707C108.756 11.5372 110.316 13.2531 110.316 13.2531C112.161 13.2337 120.116 13.7378 117.418 15.3616C115.126 16.743 91.427 16.9951 91.1072 15.8657C90.7827 14.7412 95.0894 14.3922 95.0894 14.3922Z" fill="#F1C4D9"/>
<path d="M81.9318 58.7527L17.2726 59.441C16.7155 65.7325 17.4664 71.9659 19.7481 77.4237C20.5959 79.4546 21.6472 81.3789 22.9358 83.153C33.3757 97.5827 52.4871 99.3762 67.2482 96.7975C87.8566 93.1961 99.6869 78.6403 106.929 61.1811C107.327 60.2214 107.743 59.3198 108.17 58.4764L81.9318 58.7527Z" fill="url(#paint0_linear)"/>
<path d="M115.034 48.1279C106.828 49.0392 107.317 52.626 102.061 51.4191C96.8044 50.2073 96.1746 52.9895 92.3911 54.2982C88.6075 55.607 85.2551 49.994 80.5269 47.5123C75.7987 45.0306 68.5853 47.0955 65.136 45.685C61.6868 44.2745 60.3206 48.3072 57.07 49.0634C53.8242 49.8195 51.2566 46.5914 48.8586 42.2726C46.4606 37.9539 43.8833 33.4606 40.2693 33.6787C36.6553 33.8969 34.4996 35.3704 32.3292 35.3898C31.2005 35.3995 29.7132 34.0956 28.0661 32.8208C22.0929 40.0042 18.2366 49.5723 17.321 59.0629C17.3114 59.1889 17.292 59.3101 17.2823 59.4362L81.9415 58.7479L108.179 58.4716C108.242 58.3456 108.31 58.2244 108.378 58.0984C110.5 54.022 112.922 51.2155 115.31 48.7289C115.528 48.5011 115.751 48.2733 115.969 48.0503C115.659 48.0697 115.354 48.094 115.034 48.1279Z" fill="#151E27"/>
<path d="M119.016 26.6989C114.758 26.3015 113.813 28.1143 113.813 28.1143C113.813 28.1143 113.508 27.6102 111.129 28.1434C108.751 28.6765 109.066 30.2034 109.066 30.2034C109.066 30.2034 104.895 30.5863 105.21 31.8562C105.447 32.8208 118.73 32.9129 126.084 32.2198C126.293 31.3764 126.486 30.4893 126.651 29.5442C126.675 29.4036 126.695 29.263 126.719 29.1176C125.503 28.9868 124.365 28.9334 123.807 28.9383C123.807 28.9431 122.296 27.0043 119.016 26.6989Z" fill="white"/>
<path d="M117.418 15.3616C120.116 13.7378 112.161 13.2337 110.316 13.2531C110.316 13.2531 108.761 11.5373 105.369 11.2707C100.971 10.9265 99.9969 12.5309 99.9969 12.5309C99.9969 12.5309 99.682 12.0801 97.2258 12.56C94.7697 13.0399 95.0894 14.3922 95.0894 14.3922C95.0894 14.3922 90.7827 14.7412 91.1024 15.8657C91.4221 16.9902 115.121 16.7382 117.418 15.3616Z" fill="white"/>
<path d="M80.1394 40.6246L77.3199 36.7469C77.3199 36.7469 76.0506 36.7566 74.2775 36.5337C76.0894 31.4927 75.4547 27.5423 75.4547 27.5423L70.5279 28.4972C70.5279 28.4972 69.0213 31.4248 66.5797 33.9647C66.3374 33.7999 66.1049 33.6254 65.8869 33.4412C64.1477 31.9823 61.3186 23.1266 55.3066 26.1512C53.4075 26.064 51.6344 26.0349 51.6344 26.0349C51.6344 26.0349 51.6296 26.0349 51.6248 26.0349C51.6296 26.0155 51.6344 26.001 51.6344 26.001C51.6344 26.001 47.1339 23.2139 43.2341 26.4808C38.4672 30.4797 37.227 37.5564 43.2487 44.3084C42.8611 49.8001 42.7545 54.6036 42.7545 54.6036L59.3759 54.4679C59.3759 54.4679 59.8022 52.5194 60.3545 49.8147C63.0916 49.2427 65.6544 48.0261 67.7181 46.1551C68.4351 45.5056 69.0794 44.8464 69.6704 44.1824C75.9876 43.5619 80.1394 40.6246 80.1394 40.6246Z" fill="white"/>
<path d="M16.0227 112.546L13.6198 118.309L36.9847 125.182L38.9613 120.097C38.3993 119.608 34.7563 116.045 28.9574 112.391C25.7891 110.394 23.3717 109.637 23.3717 109.637L16.0227 112.546Z" fill="black"/>
<path d="M21.3274 114.96C21.1385 114.96 21.0319 114.945 21.0173 114.94C20.8575 114.911 20.7461 114.761 20.7751 114.601C20.8042 114.441 20.9544 114.329 21.1142 114.358C21.1385 114.363 22.2672 114.518 23.9579 113.515C25.5082 112.594 25.9054 111.833 25.9054 111.828C25.9781 111.683 26.1525 111.625 26.2978 111.693C26.4432 111.765 26.5061 111.94 26.4335 112.085C26.4141 112.124 25.9829 112.996 24.2535 114.024C22.8776 114.843 21.8215 114.96 21.3274 114.96Z" fill="white"/>
<path d="M23.1538 116.385C22.9649 116.385 22.8583 116.37 22.8438 116.365C22.6839 116.336 22.5725 116.186 22.6015 116.026C22.6258 115.866 22.7856 115.759 22.9407 115.784C22.9649 115.788 24.0936 115.943 25.7844 114.94C27.3346 114.019 27.7318 113.258 27.7318 113.253C27.8045 113.108 27.9789 113.045 28.1243 113.118C28.2696 113.19 28.3326 113.365 28.2599 113.51C28.2405 113.549 27.8094 114.421 26.0799 115.449C24.704 116.263 23.6528 116.385 23.1538 116.385Z" fill="white"/>
<path d="M24.9898 117.781C24.8058 117.781 24.6943 117.766 24.6846 117.761C24.5248 117.732 24.4134 117.582 24.4424 117.422C24.4666 117.262 24.6217 117.15 24.7815 117.179C24.7912 117.179 25.9248 117.344 27.6252 116.336C29.1755 115.415 29.5727 114.654 29.5727 114.649C29.6454 114.504 29.8198 114.446 29.9651 114.514C30.1105 114.586 30.1734 114.761 30.1008 114.906C30.0814 114.945 29.6502 115.817 27.9208 116.845C26.5449 117.664 25.4888 117.781 24.9898 117.781Z" fill="white"/>
<path d="M26.8695 119.084C26.6854 119.084 26.574 119.07 26.5643 119.065C26.4044 119.036 26.293 118.886 26.3221 118.726C26.3463 118.566 26.5013 118.454 26.6612 118.483C26.6709 118.483 27.8045 118.648 29.5049 117.64C31.0551 116.719 31.4524 115.958 31.4524 115.953C31.525 115.808 31.6994 115.75 31.8448 115.817C31.9901 115.89 32.0531 116.065 31.9804 116.21C31.961 116.249 31.5299 117.121 29.8004 118.149C28.4197 118.968 27.3636 119.084 26.8695 119.084Z" fill="white"/>
<path d="M13.6441 118.285L34.4172 123.282C35.0373 123.432 35.6816 123.151 35.9916 122.594L37.9246 119.147L39.063 120.175C39.4215 120.5 39.5281 121.023 39.3295 121.464L37.726 124.988C37.508 125.463 36.9944 125.725 36.4858 125.618L13.9493 120.81C13.4697 120.708 12.8738 120.524 13.0676 119.816L13.6441 118.285Z" fill="#EF6744"/>
<path d="M16.1729 112.206L42.9483 54.3951L58.0825 66.5419L26.6515 110.815L16.1729 112.206Z" fill="url(#paint1_linear)"/>
<path d="M15.6788 112.57L15.9016 112.085L42.8369 53.9347L58.4797 66.4886L58.3199 66.7165L26.8211 111.092L26.6951 111.111L15.6788 112.57ZM43.0598 54.8653L16.667 111.843L26.4868 110.539L57.6804 66.6001L43.0598 54.8653Z" fill="white"/>
<path d="M33.8455 85.9836C33.8165 85.9836 33.7826 85.9788 33.7535 85.9691L31.3361 85.1693C31.1811 85.116 31.0987 84.9512 31.1472 84.7961C31.1956 84.641 31.3603 84.5538 31.5202 84.6071L33.9376 85.4068C34.0926 85.4602 34.175 85.625 34.1265 85.7801C34.0829 85.9061 33.9666 85.9836 33.8455 85.9836Z" fill="white"/>
<path d="M31.7769 88.252C31.6849 88.252 31.5929 88.2084 31.5396 88.1308L30.0959 86.1193C29.999 85.9884 30.0329 85.8042 30.1637 85.7073C30.2945 85.6103 30.4786 85.6394 30.5755 85.7751L32.0192 87.7867C32.1161 87.9176 32.0821 88.1017 31.9513 88.1987C31.8932 88.2326 31.8351 88.252 31.7769 88.252Z" fill="white"/>
<path d="M59.1725 92.4448L55.699 97.636L77.2909 108.91L80.2121 104.306C79.7567 103.714 76.8694 99.5118 71.8893 94.8053C69.1715 92.2363 66.9431 91.0197 66.9431 91.0197L59.1725 92.4448Z" fill="black"/>
<path d="M64.7098 95.9152C64.0219 95.9152 63.6392 95.7747 63.6101 95.765C63.4551 95.7068 63.3824 95.5371 63.4405 95.3869C63.4987 95.2366 63.6634 95.1542 63.8184 95.2124C63.8378 95.2221 64.9181 95.5905 66.7687 94.9361C68.4691 94.3351 69.002 93.6662 69.0068 93.6565C69.1037 93.5256 69.2927 93.5014 69.4186 93.6032C69.5446 93.705 69.5736 93.8843 69.4768 94.0152C69.4525 94.0491 68.8567 94.8246 66.9625 95.4935C66.0323 95.8231 65.2717 95.9152 64.7098 95.9152Z" fill="white"/>
<path d="M66.2261 97.665C65.5382 97.665 65.1555 97.5245 65.1264 97.5148C64.9714 97.4566 64.8987 97.287 64.9568 97.1367C65.015 96.9864 65.1797 96.9089 65.3347 96.9622C65.3444 96.9671 66.4296 97.3451 68.285 96.6859C69.9854 96.0849 70.5183 95.416 70.5231 95.4063C70.62 95.2754 70.809 95.2512 70.9349 95.353C71.0657 95.4499 71.0899 95.6341 70.993 95.765C70.9688 95.7989 70.373 96.5744 68.4788 97.2433C67.5486 97.5729 66.788 97.665 66.2261 97.665Z" fill="white"/>
<path d="M67.7569 99.3954C67.069 99.3954 66.6863 99.2549 66.6572 99.2452C66.5022 99.187 66.4295 99.0174 66.4877 98.8671C66.5458 98.7169 66.7105 98.6393 66.8655 98.6926C66.8849 98.7023 67.9652 99.0707 69.8158 98.4163C71.5162 97.8153 72.0491 97.1464 72.054 97.1367C72.1557 97.0107 72.3398 96.9816 72.4657 97.0834C72.5965 97.1803 72.6208 97.3645 72.5239 97.4954C72.4996 97.5293 71.9038 98.3049 70.0096 98.9738C69.0795 99.3034 68.3189 99.3954 67.7569 99.3954Z" fill="white"/>
<path d="M69.3459 101.039C68.658 101.039 68.2753 100.898 68.2462 100.888C68.0912 100.83 68.0185 100.661 68.0766 100.51C68.1348 100.36 68.2995 100.278 68.4545 100.336C68.4739 100.345 69.5542 100.714 71.4048 100.06C73.1052 99.4585 73.6381 98.7896 73.643 98.7799C73.7398 98.649 73.9288 98.6248 74.0547 98.7266C74.1855 98.8235 74.2098 99.0077 74.1129 99.1386C74.0886 99.1725 73.4928 99.948 71.5986 100.617C70.6684 100.942 69.9079 101.039 69.3459 101.039Z" fill="white"/>
<path d="M55.7281 97.6166L75.1399 106.545C75.7213 106.811 76.4043 106.661 76.821 106.177L79.3837 103.171L80.2993 104.402C80.59 104.79 80.5948 105.323 80.309 105.721L78.0515 108.867C77.7463 109.288 77.1891 109.448 76.7095 109.245L55.5295 100.161C55.079 99.9674 54.5267 99.6717 54.8561 99.0174L55.7281 97.6166Z" fill="#EF6744"/>
<path d="M57.2589 53.4015C57.2589 53.4015 77.8673 51.2155 83.327 57.0902C88.7868 62.9648 66.9479 91.0246 66.9479 91.0246L59.1773 92.4496C59.1773 92.4496 59.7151 87.2681 62.3117 79.8909C64.2447 74.3894 66.8171 69.649 66.8171 69.649C66.8171 69.649 58.7656 72.7899 50.714 72.9256C43.7525 73.0419 39.3876 66.2366 40.342 61.3217C41.2964 56.4067 43.2099 54.2207 43.2099 54.2207L57.2589 53.4015Z" fill="url(#paint2_linear)"/>
<path d="M58.8383 92.8083L58.877 92.4157C58.8819 92.3624 59.4487 87.113 62.0259 79.7939C63.5229 75.5381 65.4171 71.6993 66.1922 70.1918C64.0267 70.9528 57.3316 73.1146 50.7092 73.2261C47.5361 73.3036 44.5955 71.9222 42.4833 69.4017C40.468 66.9976 39.533 63.8809 40.0417 61.2683C41.0009 56.334 42.8951 54.1237 42.9774 54.0316L43.0598 53.9395L43.1809 53.9347L57.2299 53.1155C58.1746 53.0137 78.0563 50.9973 83.5354 56.8963C89.1017 62.8824 68.0718 90.06 67.1708 91.2136L67.1029 91.3009L66.9915 91.3203L58.8383 92.8083ZM67.4517 69.0818L67.069 69.7895C67.0448 69.838 64.4869 74.5736 62.583 79.9878C60.4321 86.0999 59.6957 90.7435 59.5165 92.0813L66.7784 90.7483C67.4275 89.9098 72.5045 83.2741 76.9324 76.0956C83.1042 66.0815 85.2407 59.5815 83.1091 57.284C77.8141 51.5887 57.4963 53.6681 57.288 53.6875H57.2735L43.3456 54.4969C42.9871 54.9574 41.4417 57.1483 40.623 61.3653C40.1483 63.8082 41.0348 66.7358 42.9387 69.0043C44.9346 71.3842 47.7153 72.6881 50.6995 72.6202C58.6057 72.4845 66.6233 69.3969 66.7008 69.363L67.4517 69.0818Z" fill="white"/>
<path d="M68.629 68.3935C68.5466 68.3935 68.4594 68.3596 68.4013 68.2869C68.2995 68.1609 68.3141 67.9767 68.44 67.87L71.2159 65.5725C71.3419 65.4659 71.526 65.4853 71.6325 65.6113C71.7343 65.7373 71.7197 65.9215 71.5938 66.0281L68.8179 68.3257C68.7646 68.3741 68.6968 68.3935 68.629 68.3935Z" fill="white"/>
<path d="M68.9923 69.964C68.8566 69.964 68.7355 69.8719 68.7065 69.7313C68.6725 69.5713 68.7694 69.4162 68.9293 69.3775L71.1045 68.8928C71.2644 68.8588 71.4194 68.9606 71.4581 69.1157C71.492 69.2757 71.3952 69.4308 71.2353 69.4696L69.0601 69.9543C69.0359 69.964 69.0117 69.964 68.9923 69.964Z" fill="white"/>
<path d="M58.3586 38.109C51.9203 38.109 49.5368 32.4621 49.5126 32.404C49.4496 32.2537 49.5223 32.0792 49.6725 32.021C49.8226 31.9629 49.9922 32.0307 50.0552 32.181C50.0794 32.2343 52.3224 37.5176 58.3586 37.5176C58.3634 37.5176 58.3634 37.5176 58.3683 37.5176C66.8849 37.5079 70.1452 28.5893 70.1791 28.4972C70.2324 28.3421 70.402 28.2645 70.557 28.3179C70.712 28.3712 70.7895 28.5408 70.7362 28.6959C70.7023 28.788 67.2967 38.0993 58.3683 38.109C58.3634 38.109 58.3634 38.109 58.3586 38.109Z" fill="#2755A3"/>
<path d="M81.9076 23.0199L80.0038 17.7124L75.2126 20.2619L75.4112 20.8145L72.7564 21.7694L71.8457 18.6818L74.452 17.7463L74.6651 18.3376L79.9698 17.218L78.066 11.9104L73.2748 14.46L73.4734 15.0125L63.5568 18.5751C63.5568 18.5751 63.4308 19.1083 63.7215 20.0632C63.9443 20.7854 64.5353 21.3089 64.5353 21.3089L65.4752 20.9696L66.3859 24.0572L65.4945 24.3771C65.4945 24.3771 65.3686 24.9103 65.6593 25.8652C65.8821 26.5874 66.4731 27.1109 66.4731 27.1109L76.3898 23.5483L76.6029 24.1396L81.9076 23.0199Z" fill="black"/>
<path d="M79.9685 17.2062C80.2128 17.1184 79.9848 15.8607 79.4594 14.397C78.934 12.9333 78.3101 11.8178 78.0658 11.9056C77.8216 11.9934 78.0495 13.2511 78.5749 14.7148C79.1004 16.1785 79.7243 17.2939 79.9685 17.2062Z" fill="#EF6744"/>
<path d="M81.9062 23.0129C82.1505 22.9251 81.9225 21.6674 81.3971 20.2037C80.8717 18.74 80.2478 17.6245 80.0035 17.7123C79.7593 17.8001 79.9872 19.0578 80.5126 20.5215C81.038 21.9852 81.662 23.1006 81.9062 23.0129Z" fill="#EF6744"/>
<path d="M70.7363 28.6377C70.7363 28.6377 71.7342 29.2679 73.2505 28.8268C74.7669 28.3857 75.4402 27.5423 75.4402 27.5423C75.4402 27.5423 75.0914 25.6277 73.9627 23.5532C73.1343 22.0312 72.0879 21.8227 71.7487 21.7258C70.775 21.4495 69.6269 21.7985 69.6269 21.7985C69.6269 21.7985 68.8614 21.8664 68.8372 22.5643C68.8227 22.9909 70.1065 23.6404 70.4553 24.319C70.8041 24.9976 70.9591 25.5356 70.9591 25.5356C70.9591 25.5356 69.9563 24.9346 69.7819 25.4047C69.6075 25.8749 70.2518 26.4032 70.4698 27.1642C70.6927 27.9301 70.7363 28.6377 70.7363 28.6377Z" fill="#EF6744"/>
<path d="M76.787 30.6638L87.1784 46.349L100.656 36.8487L92.7205 29.4472L87.4497 21.6967L76.787 30.6638Z" fill="white"/>
<path d="M77.2812 36.7663C77.2812 36.7663 76.9954 37.915 77.8867 39.2141C78.783 40.5179 79.7906 40.896 79.7906 40.896C79.7906 40.896 81.8205 40.1447 82.3001 39.0396C82.3243 38.9862 80.3138 35.9956 80.3138 35.9956C80.3138 35.9956 80.7547 34.493 80.2557 34.4736C79.7567 34.4542 79.2723 35.4333 78.6231 35.8793C77.9739 36.3252 77.2812 36.7663 77.2812 36.7663Z" fill="#EF6744"/>
<path d="M52.9473 23.5338C52.9086 23.5871 52.8746 23.6453 52.8601 23.718L52.9618 23.5289C52.957 23.5289 52.9522 23.5289 52.9473 23.5338Z" fill="#EF6744"/>
<path d="M59.0853 21.1248L59.2694 19.8549C59.2694 19.8549 58.3489 19.7967 58.1164 19.2441C58.097 19.2005 58.0825 19.1472 58.0631 19.089C57.8402 18.4831 56.9295 16.3698 55.6408 17.8288C54.8609 18.7158 54.3038 19.7046 54.2311 20.7273C54.173 21.561 54.4588 21.9294 54.1487 22.6516C54.1439 22.6662 54.1294 22.6807 54.1245 22.6952C53.892 23.1654 53.2622 23.4029 52.9667 23.5289L52.865 23.718L51.6345 26.0252C51.6345 26.0252 52.0995 27.1643 53.3058 27.2273C54.4055 27.2806 55.2824 26.1851 55.2824 26.1851L55.9945 24.3966C56.9828 24.3336 58.6735 23.9409 59.1967 23.4417C59.7926 22.8746 59.0853 21.1248 59.0853 21.1248ZM56.0672 19.1569C55.8879 19.6077 55.8588 20.0778 55.854 20.0827C55.8492 20.1602 55.7862 20.2184 55.7087 20.2184C55.7038 20.2184 55.7038 20.2184 55.699 20.2184C55.6166 20.2135 55.5585 20.1408 55.5633 20.0633C55.5633 20.0439 55.5972 19.5446 55.7959 19.0502C56.1398 18.1826 56.5904 18.2359 56.6388 18.2456C56.7212 18.2602 56.7696 18.3377 56.7551 18.4153C56.7405 18.4928 56.6679 18.551 56.5904 18.5364C56.5855 18.5461 56.3142 18.5413 56.0672 19.1569ZM57.1136 19.7434C56.8665 19.7094 56.8277 20.0051 56.8229 20.039C56.8132 20.1118 56.7502 20.1651 56.6776 20.1651C56.6679 20.1651 56.663 20.1651 56.6533 20.1651C56.571 20.1554 56.5177 20.0778 56.5322 20.0003C56.5613 19.7918 56.7454 19.4089 57.1475 19.4574C57.2298 19.4671 57.288 19.5398 57.2783 19.6222C57.2686 19.6949 57.1959 19.7579 57.1136 19.7434ZM58.6299 21.8422C58.4167 21.9779 58.2326 22.0264 58.0873 22.0264C57.8257 22.0264 57.6755 21.8809 57.6707 21.8712C57.6125 21.8131 57.6125 21.721 57.6707 21.6628C57.7288 21.6047 57.8209 21.6095 57.879 21.6628C57.8887 21.6725 58.0825 21.8422 58.47 21.595C58.5378 21.5513 58.6299 21.5707 58.6735 21.6386C58.7171 21.7064 58.6977 21.7985 58.6299 21.8422Z" fill="#EF6744"/>
<path d="M58.47 21.5949C58.0825 21.8421 57.8887 21.6724 57.879 21.6627C57.8209 21.6046 57.7288 21.6046 57.6707 21.6627C57.6125 21.7209 57.6125 21.813 57.6707 21.8712C57.6804 21.8809 57.8257 22.0263 58.0873 22.0263C58.2326 22.0263 58.4167 21.9827 58.6299 21.8421C58.6977 21.7985 58.7171 21.7064 58.6735 21.6385C58.6299 21.5707 58.5378 21.5513 58.47 21.5949Z" fill="black"/>
<path d="M56.7551 18.4152C56.7696 18.3328 56.7164 18.2601 56.6388 18.2456C56.5904 18.2359 56.1399 18.1826 55.7959 19.0502C55.6021 19.5446 55.5682 20.0438 55.5634 20.0632C55.5585 20.1456 55.6215 20.2135 55.699 20.2183C55.7039 20.2183 55.7039 20.2183 55.7087 20.2183C55.7862 20.2183 55.8492 20.1602 55.854 20.0826C55.854 20.0778 55.888 19.6076 56.0672 19.1568C56.3094 18.5412 56.5856 18.5461 56.5856 18.5364C56.6679 18.5509 56.7406 18.4976 56.7551 18.4152Z" fill="black"/>
<path d="M57.1475 19.4525C56.7454 19.404 56.5661 19.787 56.5322 19.9954C56.5225 20.0778 56.5758 20.1505 56.6533 20.1602C56.663 20.1602 56.6679 20.1602 56.6775 20.1602C56.7502 20.1602 56.8132 20.1069 56.8229 20.0342C56.8277 20.0002 56.8616 19.7046 57.1135 19.7385C57.1959 19.7482 57.2686 19.69 57.2783 19.6076C57.2831 19.5349 57.225 19.4622 57.1475 19.4525Z" fill="black"/>
<path d="M53.0539 23.3544L52.9812 23.4902C53.0345 23.432 53.0732 23.3884 53.0539 23.3544Z" fill="black"/>
<path d="M52.9815 23.4901C52.9717 23.5048 52.9571 23.5194 52.9473 23.5341C52.9522 23.5341 52.9571 23.5292 52.962 23.5292L52.9815 23.4901Z" fill="black"/>
<path d="M58.6638 16.457C57.9662 15.3276 57.1814 16.0062 57.1814 16.0062C57.1814 16.0062 57.0845 14.0674 55.917 13.7281C54.7494 13.3888 53.7999 14.8429 53.7999 14.8429C53.7999 14.8429 52.2158 13.9026 50.7334 14.9011C49.2509 15.8996 49.7838 18.6091 49.7838 18.6091C49.7838 18.6091 48.4322 18.8078 48.4661 20.577C48.5243 23.2332 51.9009 24.0184 52.8795 23.5628C52.8988 23.5531 52.9231 23.5434 52.9473 23.5337C52.957 23.5192 52.9715 23.5047 52.9812 23.4901L53.0539 23.3544C53.0732 23.3835 53.0345 23.4271 52.9812 23.4901L52.9618 23.5289C53.2573 23.4029 53.8871 23.1654 54.1196 22.6952C54.1293 22.6806 54.139 22.6661 54.1439 22.6516C54.4539 21.9342 54.1632 21.561 54.2262 20.7273C54.2989 19.7045 54.856 18.7109 55.636 17.8287C56.9198 16.3697 57.8354 18.4831 58.0582 19.089C58.0921 19.1859 58.1115 19.2441 58.1115 19.2441C58.1115 19.2441 59.3565 17.5912 58.6638 16.457Z" fill="black"/>
<path d="M88.0601 43.5134C89.1625 43.5134 90.0561 42.6193 90.0561 41.5164C90.0561 40.4135 89.1625 39.5194 88.0601 39.5194C86.9578 39.5194 86.0642 40.4135 86.0642 41.5164C86.0642 42.6193 86.9578 43.5134 88.0601 43.5134Z" fill="#2755A3"/>
<path d="M87.0864 42.5974L88.0117 42.1514L88.9757 42.5974L87.9777 40.295L87.0864 42.5974Z" fill="white"/>
<path d="M78.4002 30.7608L86.9798 23.5435L91.7855 29.9707L82.6827 37.125L78.4002 30.7608Z" fill="#F1C4D9"/>
<path d="M79.03 31.2115C79.0106 31.2115 78.9912 31.2115 78.9718 31.2067C78.6327 31.1388 78.4147 31.1049 78.4099 31.1049C78.25 31.0807 78.1386 30.9304 78.1579 30.7705C78.1822 30.6105 78.3275 30.5039 78.4922 30.5184C78.4922 30.5184 78.7248 30.5523 79.0881 30.6251C79.248 30.659 79.3497 30.8141 79.3206 30.974C79.2867 31.1146 79.1656 31.2115 79.03 31.2115Z" fill="#2755A3"/>
<path d="M90.5404 37.314C90.366 37.314 90.1965 37.3092 90.0318 37.3043C89.8671 37.2946 89.7411 37.1589 89.7508 36.9941C89.7556 36.8293 89.901 36.6887 90.0608 36.713C90.2159 36.7178 90.3757 36.7227 90.5404 36.7227H90.7245C90.8892 36.7178 91.054 36.713 91.209 36.7081C91.3737 36.6936 91.5093 36.8293 91.5142 36.9893C91.519 37.1492 91.3931 37.2898 91.2332 37.2946C91.0733 37.2995 90.9038 37.3043 90.7342 37.3092L90.5404 37.314ZM92.4007 37.2025C92.2554 37.2025 92.1246 37.091 92.1101 36.9408C92.0907 36.7808 92.2069 36.6306 92.3668 36.6112C92.7689 36.5627 93.1516 36.4997 93.5053 36.427C93.6603 36.3979 93.8202 36.4949 93.8541 36.6548C93.888 36.8148 93.7862 36.9699 93.6264 37.0038C93.2533 37.0813 92.8513 37.1492 92.4346 37.1977C92.4249 37.2025 92.4104 37.2025 92.4007 37.2025ZM88.8739 37.1686C88.8546 37.1686 88.84 37.1686 88.8206 37.1638C88.4089 37.0862 88.0116 36.9796 87.6386 36.8438C87.4836 36.7857 87.4061 36.616 87.4642 36.4658C87.5223 36.3107 87.6919 36.2331 87.8421 36.2913C88.186 36.4173 88.5494 36.5142 88.9321 36.5869C89.0919 36.616 89.1985 36.7711 89.1694 36.9311C89.1404 37.0717 89.0144 37.1686 88.8739 37.1686ZM86.6745 36.3591C86.6261 36.3591 86.5728 36.3446 86.5292 36.3204C86.1901 36.1265 85.8607 35.8987 85.5216 35.6321C85.3956 35.5303 85.3714 35.3461 85.4731 35.2152C85.5748 35.0892 85.7589 35.065 85.8897 35.1668C86.2095 35.4188 86.5147 35.6272 86.8247 35.8066C86.9652 35.889 87.0137 36.0683 86.9313 36.2089C86.8732 36.3058 86.7763 36.3591 86.6745 36.3591ZM84.8191 34.9147C84.7464 34.9147 84.6689 34.8856 84.6156 34.8323C84.3395 34.5657 84.0634 34.2797 83.7824 33.9695C83.671 33.8483 83.6807 33.6642 83.8018 33.5527C83.9229 33.446 84.107 33.4509 84.2184 33.5721C84.4897 33.8726 84.7561 34.1489 85.0226 34.4058C85.1388 34.5172 85.1437 34.7063 85.0274 34.8226C84.9741 34.8856 84.8966 34.9147 84.8191 34.9147ZM83.2253 33.1794C83.1429 33.1794 83.0606 33.1455 83.0024 33.0777L82.8958 32.9565C82.7214 32.7529 82.4841 32.5493 82.1837 32.3603C82.0481 32.273 82.0045 32.0889 82.0917 31.9531C82.1789 31.8174 82.363 31.7738 82.4986 31.861C82.8474 32.084 83.1332 32.3215 83.3464 32.5736L83.4481 32.6947C83.5547 32.8208 83.5402 33.005 83.4142 33.1116C83.3609 33.1552 83.2931 33.1794 83.2253 33.1794ZM81.2875 31.8707C81.2487 31.8707 81.2148 31.8659 81.1761 31.8465C80.8466 31.7108 80.4784 31.5848 80.0909 31.4733C79.9359 31.4297 79.8438 31.2648 79.8874 31.1097C79.931 30.9546 80.0957 30.8625 80.2508 30.9062C80.6625 31.0225 81.0453 31.1582 81.3941 31.2988C81.5442 31.3618 81.6169 31.5314 81.5539 31.6817C81.5152 31.8029 81.4037 31.8707 81.2875 31.8707Z" fill="#2755A3"/>
<path d="M94.7212 36.6936C94.6001 36.6936 94.4838 36.616 94.445 36.4949C94.3918 36.3397 94.4693 36.1749 94.6243 36.1168C94.9537 36.0004 95.1233 35.9132 95.1233 35.9084C95.2638 35.8308 95.443 35.8841 95.5205 36.0295C95.598 36.1701 95.5447 36.3494 95.4043 36.427C95.3946 36.4318 95.2008 36.5385 94.8181 36.6693C94.7842 36.6887 94.7503 36.6936 94.7212 36.6936Z" fill="#2755A3"/>
<path d="M96.7366 35.9132C96.7366 35.9132 92.0229 28.9092 96.5137 28.9092C100.84 28.9092 96.7366 35.9132 96.7366 35.9132Z" fill="#EF6744"/>
<path d="M96.4556 32.2101C97.0575 32.2101 97.5456 31.7218 97.5456 31.1195C97.5456 30.5171 97.0575 30.0289 96.4556 30.0289C95.8536 30.0289 95.3655 30.5171 95.3655 31.1195C95.3655 31.7218 95.8536 32.2101 96.4556 32.2101Z" fill="white"/>
<path d="M90.2643 32.084L83.8212 25.618C83.7049 25.5017 83.5208 25.5017 83.4045 25.618C83.2883 25.7343 83.2883 25.9185 83.4045 26.0349L85.042 27.678L82.455 30.3439L79.7712 28.9916C79.6259 28.9189 79.4466 28.977 79.3739 29.1225C79.3013 29.2679 79.3594 29.4472 79.5047 29.5199L85.5894 32.5833L87.7113 34.0665C87.7646 34.1004 87.8227 34.1198 87.8808 34.1198C87.9729 34.1198 88.0649 34.0762 88.1231 33.9938C88.2151 33.8581 88.1812 33.6739 88.0504 33.5818L86.0206 32.1664L87.0331 29.675L89.8477 32.496C89.9058 32.5542 89.9785 32.5833 90.056 32.5833C90.1335 32.5833 90.2062 32.5542 90.2643 32.496C90.3806 32.3845 90.3806 32.2004 90.2643 32.084ZM85.4974 31.8804L83.0025 30.6251L85.4538 28.0997L86.5777 29.2291L85.4974 31.8804Z" fill="white"/>
</g>
<defs>
<linearGradient id="paint0_linear" x1="17.099" y1="78.1281" x2="108.169" y2="78.1281" gradientUnits="userSpaceOnUse">
<stop stop-color="#18222D"/>
<stop offset="0.1195" stop-color="#24334C"/>
<stop offset="0.2422" stop-color="#2B4069"/>
<stop offset="0.3614" stop-color="#2C4980"/>
<stop offset="0.4743" stop-color="#2A4F92"/>
<stop offset="0.5783" stop-color="#28539E"/>
<stop offset="0.6652" stop-color="#2755A3"/>
</linearGradient>
<linearGradient id="paint1_linear" x1="16.1739" y1="83.3028" x2="58.0836" y2="83.3028" gradientUnits="userSpaceOnUse">
<stop offset="0.2808" stop-color="#151E27"/>
<stop offset="0.3581" stop-color="#1D2838"/>
<stop offset="0.5192" stop-color="#283A5B"/>
<stop offset="0.6694" stop-color="#2C4678"/>
<stop offset="0.8044" stop-color="#2B4E8E"/>
<stop offset="0.9191" stop-color="#28529C"/>
<stop offset="1" stop-color="#2755A3"/>
</linearGradient>
<linearGradient id="paint2_linear" x1="40.2038" y1="72.7238" x2="84.1985" y2="72.7238" gradientUnits="userSpaceOnUse">
<stop offset="0.2808" stop-color="#151E27"/>
<stop offset="0.3581" stop-color="#1D2838"/>
<stop offset="0.5192" stop-color="#283A5B"/>
<stop offset="0.6694" stop-color="#2C4678"/>
<stop offset="0.8044" stop-color="#2B4E8E"/>
<stop offset="0.9191" stop-color="#28529C"/>
<stop offset="1" stop-color="#2755A3"/>
</linearGradient>
<clipPath id="clip0">
<rect width="126" height="126" fill="white" transform="translate(1 4)"/>
</clipPath>
</defs>
</svg>
