<svg width="206" height="124" viewBox="0 0 206 124" fill="none" xmlns="http://www.w3.org/2000/svg">
<g clip-path="url(#clip0)">
<path d="M205.105 78.3334L141.906 2.61653C141.906 2.61653 115.219 -6.31481 96.8377 13.3865C80.1001 31.3211 85.5706 54.8436 85.5706 54.8436L167.238 98.7675L205.105 78.3334Z" fill="url(#paint0_linear)"/>
<path d="M135.326 60.9614C138.914 61.8709 140.068 64.9461 140.671 69.0617C140.878 70.462 141.016 71.98 141.166 73.5765C142.791 73.4914 144.203 73.2951 145.244 73.1185C145.758 73.0269 146.191 72.9418 146.499 72.8764C146.863 72.7979 147.151 72.5165 147.251 72.1435C147.822 70.0628 149.773 62.9439 151.141 57.5197C152.76 51.0944 152.44 47.7116 147.571 45.343C142.71 42.9744 134.761 50.9242 128.601 51.0944C125.338 51.186 123.525 50.9897 122.553 50.7868C121.957 50.6625 121.399 51.114 121.367 51.7487C121.217 54.451 121.198 60.7258 123.663 65.5612C126.775 62.5971 130.759 59.7967 135.326 60.9614Z" fill="#151E27"/>
<path d="M25.5348 81.3235C25.5348 81.3235 25.5474 81.2842 25.5662 81.2319C25.6478 80.9505 25.8924 79.9952 25.8297 78.4576C25.792 77.4303 25.4784 76.5208 25.2149 75.9123C25.0079 75.4347 24.6691 74.8458 24.186 74.7018L19.3931 73.4325C18.9603 73.3016 18.6152 73.4456 18.1949 73.8839C18.082 74.0017 17.9565 74.1326 17.6993 74.1457C16.9214 74.1915 15.5538 72.4183 15.5538 72.4183C15.5538 72.4183 12.9503 71.7313 8.11977 70.4488C4.9705 69.6178 2.17882 70.5535 0.623004 71.1424C0.0458477 71.3583 -0.0106133 72.1827 0.535176 72.4772C1.41346 72.9483 2.63678 73.5699 3.87892 74.0671C6.20637 75.0028 9.27408 76.9854 9.27408 76.9854C9.27408 76.9854 9.29917 76.9723 9.30545 76.9723C9.47483 76.8872 11.0996 76.1021 12.8813 76.0824C14.3556 76.0693 17.4797 78.222 19.9264 80.2635C22.3542 82.2984 25.5348 81.3235 25.5348 81.3235Z" fill="#151E27"/>
<path d="M31.4498 81.6112C28.978 81.9056 25.6155 81.2644 25.6155 81.2644L25.5653 81.2317C25.5465 81.2841 25.5339 81.3233 25.5339 81.3233C25.5339 81.3233 22.3596 82.2982 19.9129 80.2568C17.4663 78.2153 14.3421 76.0627 12.8679 76.0757C11.0862 76.0954 9.46138 76.8805 9.29199 76.9656C12.8365 79.0594 22.5603 84.8042 23.7334 85.4324C25.0885 86.1587 26.3432 86.9438 27.4724 87.5654C27.9868 86.7933 31.2867 82.0038 31.4498 81.6112Z" fill="#EF6744"/>
<path d="M36.2614 62.8524C36.2614 62.8524 36.2803 62.8197 36.3054 62.7673C36.4371 62.5121 36.8574 61.6223 37.0895 60.1043C37.2464 59.0901 37.1146 58.1283 36.9703 57.4805C36.8574 56.9701 36.6378 56.3224 36.1924 56.0803L31.732 53.8491C31.3305 53.6331 30.9667 53.6986 30.4711 54.0454C30.3393 54.137 30.1888 54.2416 29.9378 54.2024C29.1662 54.0912 28.1624 52.0693 28.1624 52.0693C28.1624 52.0693 25.7409 50.8589 21.2428 48.608C18.3131 47.1424 15.396 47.4892 13.7586 47.7443C13.1501 47.8359 12.9368 48.6342 13.4199 49.0333C14.1915 49.6746 15.2768 50.5382 16.3935 51.2776C18.4951 52.6713 21.1299 55.2493 21.1299 55.2493C21.1299 55.2493 21.155 55.2427 21.1675 55.2427C21.3495 55.1969 23.0935 54.7585 24.8375 55.1119C26.2867 55.3998 28.9403 58.1544 30.9541 60.6604C32.9616 63.1534 36.2614 62.8524 36.2614 62.8524Z" fill="#151E27"/>
<path d="M42.0083 64.3573C39.5303 64.1414 36.3497 62.8132 36.3497 62.8132L36.3058 62.7674C36.2807 62.8197 36.2619 62.8524 36.2619 62.8524C36.2619 62.8524 32.962 63.1534 30.9545 60.6474C28.947 58.1414 26.2871 55.3933 24.8379 55.0988C23.0876 54.752 21.3499 55.1839 21.168 55.2297C24.2482 58.0171 32.6923 65.6463 33.7274 66.5035C34.9193 67.498 36.0047 68.5187 36.9833 69.3628C37.6295 68.7216 41.7762 64.6976 42.0083 64.3573Z" fill="#EF6744"/>
<path d="M189.284 98.9507L205.005 78.1371L192.822 68.5056L182.39 84.5755L189.284 98.9507Z" fill="#F1C4D9"/>
<path d="M189.284 99.3498C189.271 99.3498 189.259 99.3498 189.246 99.3498C189.114 99.3367 189.001 99.2517 188.945 99.1339L182.057 84.7587C181.994 84.6278 182.007 84.4774 182.082 84.3596L192.515 68.2897C192.571 68.1981 192.665 68.1392 192.772 68.1196C192.872 68.1 192.979 68.1261 193.067 68.1981L205.243 77.8296C205.325 77.895 205.381 77.9931 205.394 78.0978C205.407 78.2025 205.381 78.3137 205.312 78.3923L189.591 99.2059C189.51 99.2975 189.397 99.3498 189.284 99.3498ZM182.828 84.6082L189.353 98.2179L204.459 78.2156L192.91 69.0814L182.828 84.6082Z" fill="white"/>
<path d="M163.863 84.6411L182.389 84.5757L189.283 98.9509L167.094 98.7873L163.863 84.6411Z" fill="#F1C4D9"/>
<path d="M189.283 99.35C189.277 99.35 189.277 99.35 189.283 99.35L167.094 99.1864C166.918 99.1864 166.768 99.0555 166.724 98.8789L163.493 84.7327C163.468 84.6149 163.493 84.4906 163.562 84.3924C163.631 84.2943 163.744 84.2419 163.863 84.2419L182.389 84.1765C182.533 84.1765 182.665 84.2616 182.727 84.399L189.616 98.7742C189.678 98.8985 189.666 99.049 189.597 99.1602C189.534 99.278 189.415 99.35 189.283 99.35ZM167.395 98.3947L188.662 98.5517L182.156 84.9748L164.346 85.0402L167.395 98.3947Z" fill="white"/>
<path d="M170.469 84.4971C170.162 84.0979 168.43 82.7762 165.187 82.2986C161.943 81.8275 159.283 82.2789 159.283 82.2789C159.283 82.2789 158.706 83.4894 158.813 85.7468C158.895 87.4676 160.105 89.2212 160.112 89.2212C160.112 89.2212 161.053 88.9268 162.15 88.8482C163.242 88.7697 164.246 89.3782 164.773 88.9071C165.3 88.436 164.039 87.376 164.039 87.376C164.039 87.376 164.81 87.3171 165.871 87.4546C166.925 87.592 168.643 89.0118 169.17 88.7305C169.697 88.4556 169.547 87.749 169.547 87.749C169.547 87.749 170.312 88.0761 170.651 87.6247C171.115 87.0031 170.657 86.0347 170.657 86.0347C170.657 86.0347 171.372 85.6748 170.469 84.4971Z" fill="#EF6744"/>
<path d="M160.112 89.2212C160.112 89.2212 158.901 87.4677 158.813 85.7469C158.7 83.4895 159.284 82.279 159.284 82.279C159.284 82.279 152.113 81.6509 148.619 77.882C147.283 76.4426 146.141 74.7086 145.244 73.1187C144.202 73.2953 142.791 73.4916 141.166 73.5767C141.436 76.4229 141.731 79.5113 142.471 82.6062C143.362 86.3357 146.392 88.6716 149.83 90.1307C155.608 90.3205 160.112 89.2212 160.112 89.2212Z" fill="#2755A3"/>
<path d="M149.485 54.4445C149.485 54.4445 149.002 58.0236 147.396 60.0258C146.197 61.5242 144.466 62.2505 143.469 62.5318C143.036 62.6561 142.571 62.5318 142.239 62.2112L141.718 61.7139C141.718 61.7139 140.821 63.8143 140.388 65.0771C139.955 66.3399 136.612 65.9539 135.482 64.8742C134.36 63.7881 135.169 62.787 135.169 62.787L143.305 54.3268C144.215 53.306 145.62 52.9592 146.869 53.4434L149.485 54.4445Z" fill="#EF6744"/>
<path d="M146.963 57.4543L146.229 59.0312L145.709 58.6648C145.621 58.6059 145.502 58.6256 145.445 58.7172C145.389 58.8088 145.408 58.9331 145.495 58.992L146.198 59.4827C146.229 59.5023 146.267 59.5154 146.305 59.5154C146.323 59.5154 146.336 59.5154 146.355 59.5089C146.411 59.4958 146.455 59.4565 146.474 59.4042L147.308 57.6179C147.352 57.5198 147.315 57.402 147.221 57.3496C147.12 57.3104 147.007 57.3497 146.963 57.4543Z" fill="#151E27"/>
<path d="M144.887 60.1437C144.366 59.9278 144.373 59.6726 144.373 59.6529C144.385 59.5482 144.316 59.4501 144.216 59.4305C144.115 59.4108 144.015 59.4828 143.996 59.594C143.99 59.6202 143.908 60.1764 144.749 60.5232C144.774 60.5297 144.793 60.5363 144.818 60.5363C144.893 60.5363 144.968 60.4905 144.994 60.4119C145.031 60.3007 144.981 60.1829 144.887 60.1437Z" fill="#151E27"/>
<path d="M148.87 56.4663C148.638 56.4663 148.425 56.5383 148.249 56.6626C148.205 56.4402 148.08 56.1392 147.747 55.9429C147.415 55.7466 147.076 55.8251 146.85 55.9232C146.718 55.426 146.285 55.0596 145.765 55.0596C145.376 55.0596 145.031 55.2624 144.83 55.5765L141.273 52.8087C141.191 52.7433 141.066 52.7629 141.003 52.848C140.94 52.933 140.959 53.0639 141.041 53.1293L144.661 55.9429C144.661 55.9429 144.667 55.9429 144.673 55.9494C144.648 56.041 144.635 56.1392 144.635 56.2373C144.635 56.8851 145.144 57.4151 145.765 57.4151C146.348 57.4151 146.825 56.9505 146.881 56.3551C147.007 56.2766 147.295 56.1392 147.553 56.2897C147.898 56.4925 147.885 56.8982 147.885 56.9113C147.885 56.944 147.904 56.9701 147.916 57.0029C147.804 57.1861 147.735 57.4085 147.735 57.6441C147.735 58.2919 148.243 58.8218 148.864 58.8218C149.485 58.8218 149.993 58.2919 149.993 57.6441C149.993 56.9963 149.491 56.4663 148.87 56.4663ZM145.771 57.0159C145.357 57.0159 145.024 56.6692 145.024 56.2373C145.024 55.8055 145.357 55.4587 145.771 55.4587C146.185 55.4587 146.518 55.8055 146.518 56.2373C146.518 56.6626 146.179 57.0159 145.771 57.0159ZM148.87 58.4227C148.456 58.4227 148.124 58.0759 148.124 57.6441C148.124 57.2122 148.456 56.8655 148.87 56.8655C149.284 56.8655 149.617 57.2122 149.617 57.6441C149.617 58.0759 149.278 58.4227 148.87 58.4227Z" fill="#151E27"/>
<path d="M69.5425 92.5844C74.0406 90.2746 81.1233 86.7937 88.1495 84.026C99.586 79.5178 106.838 80.6105 107.064 80.6497C90.2072 72.0521 69.9315 83.2081 67.2715 80.9965L44.386 61.9888L34.2168 72.3596L46.6131 85.7468L59.8626 92.5844C62.9115 94.1547 66.4874 94.1612 69.5425 92.5844Z" fill="url(#paint1_linear)"/>
<path d="M64.7114 94.1546C62.9863 94.1546 61.2611 93.749 59.6927 92.9376L46.3366 86.015L33.6768 72.3465L44.3604 61.4587L67.5094 80.6889C68.2183 81.2778 71.1354 80.545 74.5106 79.7009C82.4276 77.7184 95.6709 74.3945 107.239 80.2898L109.491 81.4348L107.02 81.0423C106.725 80.9965 99.6231 79.9299 88.2996 84.3989C81.3486 87.1404 74.3663 90.5559 69.7239 92.9442C68.143 93.749 66.4304 94.1546 64.7114 94.1546ZM46.8384 85.4131L60.0315 92.2244C62.9549 93.7359 66.4492 93.7359 69.3726 92.231C74.0275 89.8362 81.0349 86.4076 88.0173 83.653C95.9971 80.5057 101.951 80.0542 104.956 80.1066C94.1151 75.6049 82.0575 78.6213 74.6925 80.473C70.5457 81.5134 68.0426 82.1415 67.0389 81.3105L44.4106 62.5187L34.7558 72.3661L46.8384 85.4131Z" fill="white"/>
<path d="M128.055 94.3772C128.111 94.3117 128.155 94.2528 128.199 94.2005C128.186 94.1678 128.18 94.1416 128.18 94.1416C128.18 94.1416 128.143 94.2201 128.055 94.3772Z" fill="#2755A3"/>
<path d="M114.165 104.63C114.121 104.656 114.077 104.676 114.033 104.702C114.077 104.676 114.121 104.656 114.165 104.63Z" fill="#2755A3"/>
<path d="M111.186 106.148C111.186 106.148 112.359 105.572 114.034 104.702C113.137 105.173 112.189 105.651 111.186 106.129C111.192 106.135 111.186 106.148 111.186 106.148Z" fill="#2755A3"/>
<path d="M184.716 96.7785C184.572 96.7785 184.434 96.6934 184.371 96.5495L180.099 86.8853C180.011 86.6825 180.092 86.4469 180.287 86.3553C180.475 86.2637 180.707 86.3488 180.795 86.5516L185.067 96.2158C185.155 96.4186 185.074 96.6542 184.879 96.7458C184.823 96.7654 184.772 96.7785 184.716 96.7785Z" fill="white"/>
<path d="M181.492 96.5888C181.341 96.5888 181.203 96.4972 181.141 96.3467L177.326 87.062C177.245 86.8591 177.333 86.6236 177.527 86.5385C177.722 86.4535 177.947 86.5451 178.029 86.7479L181.843 96.0326C181.925 96.2354 181.837 96.471 181.642 96.5561C181.592 96.5822 181.542 96.5888 181.492 96.5888Z" fill="white"/>
<path d="M178.355 96.5887C178.204 96.5887 178.06 96.4906 177.997 96.3401L174.453 87.0554C174.377 86.8526 174.471 86.617 174.666 86.5385C174.86 86.46 175.086 86.5581 175.162 86.761L178.706 96.0457C178.781 96.2485 178.687 96.484 178.493 96.5626C178.449 96.5822 178.405 96.5887 178.355 96.5887Z" fill="white"/>
<path d="M175.269 96.7784C175.112 96.7784 174.967 96.6802 174.911 96.5167L171.548 87.1338C171.473 86.9245 171.574 86.6955 171.774 86.6235C171.969 86.545 172.195 86.6497 172.264 86.859L175.626 96.2418C175.701 96.4512 175.601 96.6802 175.4 96.7522C175.356 96.7718 175.312 96.7784 175.269 96.7784Z" fill="white"/>
<path d="M173.267 92.1132C173.267 92.1132 173.405 91.0401 172.771 90.6083C172.313 90.2942 171.686 90.8635 171.686 90.8635C171.686 90.8635 171.611 90.1437 171.027 90.0587C170.444 89.9736 169.252 91.8907 168.298 92.3749C167.339 92.8591 166.592 93.0619 166.592 93.0619C166.592 93.0619 167.464 91.6355 166.818 91.3607C166.172 91.0925 165.413 92.002 164.352 92.2964C163.48 92.5385 162.665 92.6039 162.401 92.617L163.769 99.4545C164.296 99.3499 166.661 98.833 169.239 97.4785C172.163 95.9475 173.399 94.1154 173.568 93.6312C174.064 92.2113 173.267 92.1132 173.267 92.1132Z" fill="#EF6744"/>
<path d="M163.764 99.4612L162.396 92.6236L162.39 92.5844C162.39 92.5844 155.545 92.5647 149.824 90.1307C146.392 88.665 143.362 86.3291 142.465 82.6061C141.725 79.5112 141.424 76.4229 141.16 73.5766C141.01 71.9801 140.872 70.4621 140.665 69.0619C140.063 64.9463 138.908 61.871 135.32 60.9615C130.753 59.7968 126.769 62.5973 123.651 65.5613C122.014 67.1251 120.615 68.7282 119.498 69.834C116.267 73.027 107.083 80.6563 107.083 80.6563C107.083 80.6563 111.167 88.6389 111.506 95.0249C111.838 101.28 111.211 105.939 111.186 106.129C112.183 105.651 113.137 105.173 114.034 104.702C114.078 104.683 114.122 104.656 114.166 104.63C117.215 103.034 121.819 100.488 124.128 98.5451C126.769 96.3205 127.748 94.9006 128.055 94.3706C128.143 94.2136 128.181 94.1351 128.181 94.1351C128.181 94.1351 128.187 94.1547 128.199 94.194C128.425 94.7959 130.721 100.207 140.514 102.379C150.89 104.683 163.77 99.4873 163.77 99.4873L163.764 99.4612Z" fill="url(#paint2_linear)"/>
<path d="M127.371 91.0924C127.201 91.0924 127.045 90.9746 127.001 90.7914C126.825 90.0586 126.674 89.293 126.561 88.5078C125.087 78.2941 128.218 67.282 128.249 67.1708C128.312 66.9614 128.525 66.8371 128.726 66.9025C128.927 66.9679 129.039 67.1904 128.983 67.3998C128.952 67.511 125.871 78.3529 127.321 88.3835C127.427 89.1425 127.571 89.8819 127.741 90.5885C127.791 90.8045 127.666 91.0204 127.465 91.0727C127.433 91.0924 127.402 91.0924 127.371 91.0924Z" fill="white"/>
<path d="M111.511 95.025C111.173 88.6389 107.089 80.6563 107.089 80.6563H107.07C106.838 80.617 99.5919 79.5243 88.1554 84.0325C81.1292 86.8068 74.0464 90.2812 69.5484 92.5909C66.4932 94.1613 62.9174 94.1613 59.8685 92.5844L46.619 85.7468L33.6455 79.0532L25.8037 91.4197L56.8008 113.051C61.669 116.447 67.6224 117.716 73.3752 116.578C83.3123 114.608 98.4501 111.33 103.036 109.603C106.079 108.458 108.789 107.287 111.198 106.135C111.217 105.932 111.844 101.274 111.511 95.025Z" fill="url(#paint3_linear)"/>
<path d="M69.1716 117.389C64.7175 117.389 60.3637 116.022 56.5871 113.385L25.2764 91.5309L33.5071 78.5298L60.0312 92.2245C62.9546 93.736 66.4489 93.736 69.3724 92.2311C74.0272 89.8363 81.0347 86.4077 88.017 83.653C99.5225 79.1121 106.819 80.2048 107.126 80.2572L107.314 80.2899L107.427 80.4665C107.596 80.7937 111.555 88.6258 111.894 94.9988C112.226 101.254 111.599 105.985 111.568 106.181L111.536 106.397L111.348 106.488C108.795 107.712 106.041 108.883 103.161 109.969C98.2741 111.808 82.1827 115.23 73.4438 116.964C72.0198 117.245 70.5894 117.389 69.1716 117.389ZM26.3303 91.3085L57.0137 112.718C61.8317 116.081 67.6158 117.304 73.3058 116.185C84.6105 113.948 98.6944 110.813 102.904 109.224C105.696 108.17 108.362 107.038 110.84 105.86C110.959 104.859 111.423 100.56 111.128 95.0446C110.821 89.2867 107.452 82.2594 106.837 81.0227C105.62 80.8722 98.7571 80.2703 88.2805 84.399C81.3295 87.1405 74.3472 90.556 69.7048 92.9443C66.5681 94.5604 62.8229 94.5539 59.6862 92.9377L33.7706 79.5571L26.3303 91.3085Z" fill="white"/>
<path d="M163.726 59.849L173.594 46.7824L164.667 39.3232L158.117 49.4127L163.726 59.849Z" fill="white"/>
<path d="M163.726 60.2482C163.713 60.2482 163.707 60.2482 163.694 60.2482C163.569 60.2351 163.456 60.1631 163.393 60.0453L157.785 49.6091C157.716 49.4782 157.722 49.3146 157.804 49.1903L164.353 39.1009C164.416 39.0092 164.504 38.9438 164.61 38.9307C164.723 38.9176 164.824 38.9438 164.905 39.0158L173.832 46.4749C173.995 46.6123 174.02 46.861 173.895 47.0311L164.027 60.0977C163.952 60.1893 163.839 60.2482 163.726 60.2482ZM158.569 49.4324L163.782 59.1359L173.067 46.8479L164.761 39.9057L158.569 49.4324Z" fill="#F1C4D9"/>
<path d="M85.4448 37.1903L83.1488 39.042C82.672 39.428 82.5904 40.1478 82.9731 40.6385L92.8412 53.3648C93.2051 53.8359 93.8575 53.9145 94.3155 53.548C95.6078 52.5077 98.2489 50.4597 100.808 48.9286C103.017 47.6069 106.982 46.174 107.747 45.9057C107.816 45.8795 107.897 45.8926 107.954 45.9515C108.155 46.1543 108.826 46.4553 109.924 46.0366C110.852 45.6832 111.097 45.0485 111.16 44.8915C111.241 44.8588 115.683 43.0464 118.211 42.6407C119.566 42.4248 120.959 42.1369 121.963 41.9144C122.671 41.7574 123.004 40.9002 122.596 40.2721L117.941 33.0681L85.4448 37.1903Z" fill="#2755A3"/>
<path d="M116.129 27.6504L123.607 39.4934C123.607 39.4934 118.651 39.1663 116.129 40.0234C111.349 41.6461 109.109 43.8773 109.109 43.8773C109.109 43.8773 109.599 37.4978 110.803 34.2589C112.008 31.0201 116.129 27.6504 116.129 27.6504Z" fill="white"/>
<path d="M109.103 44.2699C109.046 44.2699 108.99 44.2569 108.939 44.2307C108.795 44.1587 108.707 44.0017 108.726 43.8381C108.745 43.5764 109.234 37.367 110.445 34.1085C111.668 30.7977 115.721 27.4738 115.897 27.3364C115.978 27.2709 116.091 27.2382 116.192 27.2579C116.298 27.2775 116.392 27.3364 116.449 27.4345L123.927 39.2775C124.008 39.4019 124.008 39.5654 123.939 39.6963C123.864 39.8272 123.732 39.9057 123.582 39.8926C123.531 39.8861 118.663 39.5785 116.248 40.403C111.618 41.9733 109.397 44.1456 109.372 44.1653C109.297 44.2372 109.203 44.2699 109.103 44.2699ZM116.041 28.2393C115.062 29.0965 112.114 31.8119 111.154 34.3964C110.257 36.8108 109.761 41.0769 109.573 42.9613C110.596 42.1696 112.697 40.7694 116.003 39.644C117.992 38.97 121.361 39.0027 122.866 39.0616L116.041 28.2393Z" fill="#F1C4D9"/>
<path d="M93.9203 51.4608C93.9203 51.4608 97.4648 48.2089 100.376 46.6713C104.196 44.6625 109.071 43.8905 109.071 43.8905L100.965 32.7541C100.965 32.7541 95.4949 31.5763 91.0471 32.9307C86.5992 34.2917 82.8916 37.6614 82.8916 37.6614L93.9203 51.4608Z" fill="white"/>
<path d="M93.9204 51.8599C93.9079 51.8599 93.9016 51.8599 93.8891 51.8599C93.7887 51.8534 93.6883 51.801 93.6256 51.716L82.6032 37.9166C82.4714 37.753 82.4902 37.5043 82.6471 37.3604C82.8039 37.223 86.4739 33.9187 90.9468 32.5512C95.4323 31.1771 100.821 32.3156 101.047 32.3614C101.135 32.3811 101.216 32.4334 101.273 32.5119L109.378 43.6483C109.46 43.7595 109.479 43.91 109.428 44.0409C109.378 44.1718 109.265 44.2634 109.134 44.283C109.083 44.2895 104.272 45.0682 100.551 47.0246C97.7159 48.5164 94.209 51.7225 94.1714 51.7552C94.1024 51.8272 94.0145 51.8599 93.9204 51.8599ZM83.4375 37.7203L93.9644 50.8981C94.8866 50.0802 97.741 47.62 100.206 46.3179C103.268 44.7018 106.938 43.8904 108.393 43.6091L100.758 33.1139C99.8865 32.9438 95.081 32.1128 91.1664 33.3102C87.5466 34.4291 84.3848 36.922 83.4375 37.7203Z" fill="#F1C4D9"/>
<path d="M120.105 30.7061C120.105 30.7061 116.147 33.3888 113.945 35.9014C111.059 39.1926 109.033 43.884 109.033 43.884L100.934 32.7411C100.934 32.7411 101.197 28.0366 103.65 23.934C106.103 19.8315 110.08 17.5938 110.08 17.5938L120.105 30.7061Z" fill="white"/>
<path d="M109.033 44.2831C108.914 44.2831 108.801 44.2242 108.726 44.1261L100.633 32.9831C100.576 32.9046 100.551 32.813 100.558 32.7214C100.57 32.5251 100.852 27.8664 103.33 23.7312C105.808 19.5894 109.736 17.3451 109.899 17.2535C110.062 17.1619 110.263 17.2012 110.382 17.3582L120.407 30.464C120.476 30.5491 120.501 30.6669 120.488 30.7781C120.469 30.8893 120.407 30.9875 120.319 31.0464C120.281 31.0726 116.373 33.7356 114.234 36.1762C111.423 39.3823 109.409 44.0083 109.391 44.0541C109.334 44.1849 109.221 44.27 109.083 44.2896C109.064 44.2831 109.052 44.2831 109.033 44.2831ZM101.329 32.6233L108.958 43.1184C109.604 41.7378 111.348 38.27 113.663 35.6266C115.513 33.5197 118.518 31.3277 119.547 30.608L109.987 18.1107C109.058 18.693 105.978 20.7999 103.977 24.1434C101.837 27.7225 101.398 31.8119 101.329 32.6233Z" fill="#F1C4D9"/>
<path d="M143.933 36.6408L126.267 32.3551L135.275 5.9209L153.06 9.87948L143.933 36.6408Z" fill="#2755A3"/>
<path d="M143.933 37.0399C143.901 37.0399 143.876 37.0399 143.845 37.0268L126.179 32.741C126.072 32.7149 125.984 32.6429 125.928 32.5448C125.878 32.4466 125.865 32.3288 125.903 32.2176L134.911 5.78998C134.974 5.60023 135.162 5.49554 135.351 5.5348L153.136 9.49338C153.242 9.51955 153.337 9.59153 153.387 9.68967C153.443 9.78782 153.449 9.91214 153.412 10.0168L144.284 36.7781C144.24 36.9352 144.089 37.0399 143.933 37.0399ZM126.775 32.0671L143.688 36.1762L152.559 10.1804L135.526 6.3854L126.775 32.0671Z" fill="white"/>
<path d="M138.77 9.13347C138.707 9.29705 135.106 5.90771 135.106 5.90771L126.129 32.2176L129.642 35.8882L138.77 9.13347Z" fill="#2755A3"/>
<path d="M129.642 36.2939C129.542 36.2939 129.441 36.2547 129.372 36.1762L125.859 32.5055C125.753 32.3942 125.721 32.2372 125.771 32.0933L134.749 5.78342C134.793 5.6591 134.893 5.56096 135.012 5.52824C135.138 5.49553 135.269 5.52824 135.364 5.61985C136.831 7.00044 138.488 8.50536 138.852 8.74745C138.87 8.75399 138.889 8.76054 138.908 8.76708C139.102 8.8456 139.203 9.06806 139.128 9.2709L130 36.0322C129.956 36.1631 129.849 36.2547 129.724 36.2874C129.699 36.2874 129.667 36.2939 129.642 36.2939ZM126.568 32.1194L129.479 35.1685L138.299 9.31016C137.867 8.98955 137.026 8.25672 135.269 6.60785L126.568 32.1194Z" fill="white"/>
<path d="M147.119 39.3494L129.642 35.8946L138.769 9.1333L156.247 12.5881L147.119 39.3494Z" fill="#2755A3"/>
<path d="M147.12 39.7486C147.095 39.7486 147.069 39.7486 147.051 39.7421L129.573 36.2873C129.466 36.2677 129.366 36.1957 129.316 36.0976C129.259 35.9994 129.247 35.8751 129.284 35.7639L138.412 9.00255C138.475 8.81934 138.663 8.70811 138.845 8.74737L156.323 12.2021C156.429 12.2218 156.53 12.2937 156.58 12.3919C156.636 12.49 156.649 12.6143 156.611 12.7256L147.483 39.4869C147.427 39.6439 147.276 39.7486 147.12 39.7486ZM130.15 35.5872L146.869 38.8915L155.739 12.8892L139.021 9.58488L130.15 35.5872Z" fill="white"/>
<path d="M149.648 22.2656L138.362 19.7727L139.554 16.2917L150.834 18.7847L149.648 22.2656Z" fill="#F1C4D9"/>
<path d="M163.449 54.6146L166.078 50.7934L162.389 46.5601L160.419 49.8185L163.449 54.6146Z" fill="#2755A3"/>
<path d="M166.561 50.0933L169.309 45.945L164.974 42.1565L162.791 45.9319L166.561 50.0933Z" fill="#2755A3"/>
<path d="M167.427 80.8329L183.148 60.0193L168.933 48.1436L158.5 64.2134L167.427 80.8329Z" fill="white"/>
<path d="M167.427 81.2321C167.415 81.2321 167.408 81.2321 167.396 81.2321C167.27 81.219 167.157 81.147 167.095 81.0292L158.168 64.4097C158.099 64.2789 158.105 64.1153 158.186 63.991L168.619 47.9211C168.682 47.8295 168.77 47.7641 168.876 47.751C168.983 47.7313 169.09 47.7641 169.171 47.836L183.387 59.7118C183.55 59.8492 183.575 60.0978 183.45 60.2679L167.728 81.0816C167.653 81.1732 167.546 81.2321 167.427 81.2321ZM158.945 64.2331L167.477 80.1197L182.609 60.0847L169.014 48.7259L158.945 64.2331Z" fill="#F1C4D9"/>
<path d="M167.546 75.5789L172.389 69.3433L166.636 61.9365L162.841 67.0925L167.546 75.5789Z" fill="white"/>
<path d="M167.546 75.978C167.534 75.978 167.527 75.978 167.515 75.978C167.389 75.9649 167.276 75.8929 167.214 75.7817L162.509 67.2887C162.433 67.1513 162.44 66.9747 162.534 66.8438L166.329 61.6944C166.398 61.5962 166.511 61.5374 166.624 61.5374H166.63C166.743 61.5374 166.856 61.5897 166.925 61.6878L172.678 69.0946C172.791 69.2386 172.791 69.448 172.678 69.5985L167.835 75.8406C167.772 75.9256 167.659 75.978 167.546 75.978ZM163.299 67.1186L167.596 74.8787L171.894 69.3433L166.643 62.5842L163.299 67.1186Z" fill="#F1C4D9"/>
<path d="M170.859 63.919L175.783 57.6114L172.132 54.3137L167.835 60.2679L170.859 63.919Z" fill="white"/>
<path d="M170.853 64.318C170.74 64.318 170.639 64.2657 170.564 64.1806L167.547 60.5296C167.427 60.3856 167.421 60.1828 167.534 60.0323L171.831 54.0781C171.894 53.993 171.988 53.9341 172.095 53.921C172.201 53.9079 172.302 53.9406 172.383 54.0192L176.035 57.3103C176.191 57.4543 176.21 57.6964 176.078 57.86L171.154 64.1675C171.079 64.2591 170.972 64.318 170.853 64.318C170.859 64.318 170.859 64.318 170.853 64.318ZM168.324 60.2482L170.846 63.2973L175.25 57.6571L172.189 54.8959L168.324 60.2482Z" fill="#F1C4D9"/>
<path d="M167.622 75.5135C167.428 75.5135 167.258 75.3565 167.239 75.1471L166.254 61.9693C166.236 61.7468 166.392 61.5571 166.606 61.544C166.813 61.5309 167.001 61.6879 167.014 61.9104L167.998 75.0882C168.017 75.3107 167.86 75.5004 167.647 75.5135C167.641 75.5135 167.635 75.5135 167.622 75.5135Z" fill="#F1C4D9"/>
<path d="M172.39 69.7424C172.365 69.7424 172.333 69.7424 172.308 69.7293L162.76 67.4785C162.553 67.4327 162.428 67.2168 162.472 67.0008C162.516 66.7849 162.723 66.6475 162.93 66.6999L172.478 68.9507C172.685 68.9965 172.81 69.2124 172.766 69.4284C172.722 69.6181 172.566 69.7424 172.39 69.7424Z" fill="#F1C4D9"/>
<path d="M179.391 61.4914C179.303 61.4914 179.209 61.4587 179.14 61.3933L176.656 59.1032C176.499 58.9592 176.48 58.704 176.624 58.5405C176.762 58.3769 177.007 58.3573 177.164 58.5078L179.648 60.7978C179.805 60.9418 179.824 61.197 179.68 61.3606C179.598 61.4456 179.491 61.4914 179.391 61.4914Z" fill="#F1C4D9"/>
<path d="M178.211 62.8459C178.117 62.8459 178.029 62.8132 177.954 62.7477L175.695 60.6474C175.538 60.5035 175.526 60.2483 175.664 60.0847C175.802 59.9211 176.047 59.908 176.203 60.052L178.462 62.1523C178.619 62.2963 178.631 62.5515 178.493 62.715C178.418 62.8001 178.318 62.8459 178.211 62.8459Z" fill="#F1C4D9"/>
<path d="M177.038 64.305C176.944 64.305 176.85 64.2723 176.775 64.2003L174.51 61.9887C174.359 61.8382 174.347 61.5896 174.491 61.426C174.635 61.269 174.874 61.2559 175.031 61.4064L177.295 63.6179C177.446 63.7684 177.458 64.0171 177.314 64.1806C177.245 64.2657 177.139 64.305 177.038 64.305Z" fill="#F1C4D9"/>
<path d="M111.499 112.115C110.966 111.383 110.056 110.728 107.999 111.664C105.941 112.6 104.191 115.95 104.937 117.193C105.684 118.443 107.566 119.012 108.557 117.782C109.548 116.552 110.201 115.59 111.299 114.752C112.39 113.921 111.882 112.639 111.499 112.115Z" fill="#151E27"/>
<path d="M145.55 122.336C149.289 120.431 151.574 117.294 150.654 115.329C149.734 113.365 145.957 113.317 142.218 115.222C138.479 117.128 136.194 120.265 137.114 122.229C138.035 124.193 141.812 124.241 145.55 122.336Z" fill="#2755A3"/>
<path d="M146.336 118.142C145.571 119.601 142.974 120.818 141.506 120.19C136.537 118.05 135.163 111.854 135.163 111.854L144.605 107.529C144.611 107.522 148.118 114.759 146.336 118.142Z" fill="#F1C4D9"/>
<path d="M140.469 111.081C143.077 109.887 144.934 108.308 144.617 107.554C144.299 106.799 141.928 107.155 139.32 108.349C136.712 109.543 134.855 111.122 135.173 111.877C135.49 112.631 137.862 112.275 140.469 111.081Z" fill="#2755A3"/>
<path d="M146.442 115.112L145.953 114.504C145.978 114.484 148.393 112.358 148.462 110.382C148.481 109.76 148.268 109.237 147.803 108.765C147.552 108.51 147.295 108.406 147.019 108.445C146.285 108.543 145.526 109.577 145.294 109.969L144.642 109.551C144.748 109.374 145.689 107.817 146.919 107.653C147.427 107.581 147.916 107.771 148.33 108.19C148.951 108.811 149.253 109.557 149.221 110.408C149.146 112.737 146.555 115.014 146.442 115.112Z" fill="#F1C4D9"/>
<path d="M140.658 110.316C140.658 110.316 135.897 102.805 128.08 102.163C120.263 101.529 120.088 108.706 119.046 110.696C116.97 114.641 112.327 115.662 113.061 119.228C113.795 122.794 116.6 123.815 119.655 123.304C122.71 122.794 127.591 119.359 130.031 115.407C132.471 111.455 133.331 109.164 135.282 109.164C137.239 109.171 140.658 110.316 140.658 110.316Z" fill="#151E27"/>
</g>
<defs>
<linearGradient id="paint0_linear" x1="144.909" y1="98.7627" x2="144.909" y2="0.594712" gradientUnits="userSpaceOnUse">
<stop stop-color="#EF6744"/>
<stop offset="0.0596" stop-color="#F07456"/>
<stop offset="0.1763" stop-color="#F18874"/>
<stop offset="0.2976" stop-color="#F19990"/>
<stop offset="0.4221" stop-color="#F1A8A8"/>
<stop offset="0.5508" stop-color="#F1B4BC"/>
<stop offset="0.6852" stop-color="#F1BDCB"/>
<stop offset="0.8293" stop-color="#F1C2D5"/>
<stop offset="1" stop-color="#F1C4D9"/>
</linearGradient>
<linearGradient id="paint1_linear" x1="34.2158" y1="77.8755" x2="107.067" y2="77.8755" gradientUnits="userSpaceOnUse">
<stop stop-color="#EF6744"/>
<stop offset="0.1436" stop-color="#F08169"/>
<stop offset="0.2962" stop-color="#F1978C"/>
<stop offset="0.44" stop-color="#F1AAAB"/>
<stop offset="0.5707" stop-color="#F1B8C3"/>
<stop offset="0.6837" stop-color="#F1C0D2"/>
<stop offset="0.7664" stop-color="#F1C4D9"/>
</linearGradient>
<linearGradient id="paint2_linear" x1="107.089" y1="83.411" x2="163.772" y2="83.411" gradientUnits="userSpaceOnUse">
<stop offset="0.2808" stop-color="#151E27"/>
<stop offset="0.3581" stop-color="#1D2838"/>
<stop offset="0.5192" stop-color="#283A5B"/>
<stop offset="0.6694" stop-color="#2C4678"/>
<stop offset="0.8044" stop-color="#2B4E8E"/>
<stop offset="0.9191" stop-color="#28529C"/>
<stop offset="1" stop-color="#2755A3"/>
</linearGradient>
<linearGradient id="paint3_linear" x1="25.8007" y1="98.0129" x2="111.608" y2="98.0129" gradientUnits="userSpaceOnUse">
<stop stop-color="#EF6744"/>
<stop offset="0.1436" stop-color="#F08169"/>
<stop offset="0.2962" stop-color="#F1978C"/>
<stop offset="0.44" stop-color="#F1AAAB"/>
<stop offset="0.5707" stop-color="#F1B8C3"/>
<stop offset="0.6837" stop-color="#F1C0D2"/>
<stop offset="0.7664" stop-color="#F1C4D9"/>
</linearGradient>
<clipPath id="clip0">
<rect width="205.236" height="123.141" fill="white" transform="translate(0.145508 0.594727)"/>
</clipPath>
</defs>
</svg>
