<svg xmlns="http://www.w3.org/2000/svg" fill="none" viewBox="21.88 7.81 100.78 25.78">
<path d="M21.875 20.7031C21.875 13.5838 27.6463 7.8125 34.7656 7.8125H109.766C116.885 7.8125 122.656 13.5838 122.656 20.7031C122.656 27.8224 116.885 33.5938 109.766 33.5938H34.7656C27.6463 33.5938 21.875 27.8224 21.875 20.7031Z" fill="#65D072"/>
<path d="M63.905 17.98L62.075 25H60.005L58.885 20.38L57.725 25H55.655L53.875 17.98H55.705L56.715 23.09L57.965 17.98H59.845L61.045 23.09L62.065 17.98H63.905ZM70.8426 17.98V25H69.1326V22.11H66.4726V25H64.7626V17.98H66.4726V20.73H69.1326V17.98H70.8426ZM76.447 23.76H73.827L73.407 25H71.617L74.157 17.98H76.137L78.677 25H76.867L76.447 23.76ZM76.007 22.44L75.137 19.87L74.277 22.44H76.007ZM84.5001 17.98V19.35H82.6401V25H80.9301V19.35H79.0701V17.98H84.5001ZM87.8983 25.07C87.3849 25.07 86.9249 24.9867 86.5183 24.82C86.1116 24.6533 85.7849 24.4067 85.5383 24.08C85.2983 23.7533 85.1716 23.36 85.1583 22.9H86.9783C87.0049 23.16 87.0949 23.36 87.2483 23.5C87.4016 23.6333 87.6016 23.7 87.8483 23.7C88.1016 23.7 88.3016 23.6433 88.4483 23.53C88.5949 23.41 88.6683 23.2467 88.6683 23.04C88.6683 22.8667 88.6083 22.7233 88.4883 22.61C88.3749 22.4967 88.2316 22.4033 88.0583 22.33C87.8916 22.2567 87.6516 22.1733 87.3383 22.08C86.8849 21.94 86.5149 21.8 86.2283 21.66C85.9416 21.52 85.6949 21.3133 85.4883 21.04C85.2816 20.7667 85.1783 20.41 85.1783 19.97C85.1783 19.3167 85.4149 18.8067 85.8883 18.44C86.3616 18.0667 86.9783 17.88 87.7383 17.88C88.5116 17.88 89.1349 18.0667 89.6083 18.44C90.0816 18.8067 90.3349 19.32 90.3683 19.98H88.5183C88.5049 19.7533 88.4216 19.5767 88.2683 19.45C88.1149 19.3167 87.9183 19.25 87.6783 19.25C87.4716 19.25 87.3049 19.3067 87.1783 19.42C87.0516 19.5267 86.9883 19.6833 86.9883 19.89C86.9883 20.1167 87.0949 20.2933 87.3083 20.42C87.5216 20.5467 87.8549 20.6833 88.3083 20.83C88.7616 20.9833 89.1283 21.13 89.4083 21.27C89.6949 21.41 89.9416 21.6133 90.1483 21.88C90.3549 22.1467 90.4583 22.49 90.4583 22.91C90.4583 23.31 90.3549 23.6733 90.1483 24C89.9483 24.3267 89.6549 24.5867 89.2683 24.78C88.8816 24.9733 88.4249 25.07 87.8983 25.07ZM95.8806 23.76H93.2606L92.8406 25H91.0506L93.5906 17.98H95.5706L98.1106 25H96.3006L95.8806 23.76ZM95.4406 22.44L94.5706 19.87L93.7106 22.44H95.4406ZM104.234 20.24C104.234 20.6467 104.14 21.02 103.954 21.36C103.767 21.6933 103.48 21.9633 103.094 22.17C102.707 22.3767 102.227 22.48 101.654 22.48H100.594V25H98.8837V17.98H101.654C102.214 17.98 102.687 18.0767 103.074 18.27C103.46 18.4633 103.75 18.73 103.944 19.07C104.137 19.41 104.234 19.8 104.234 20.24ZM101.524 21.12C101.85 21.12 102.094 21.0433 102.254 20.89C102.414 20.7367 102.494 20.52 102.494 20.24C102.494 19.96 102.414 19.7433 102.254 19.59C102.094 19.4367 101.85 19.36 101.524 19.36H100.594V21.12H101.524ZM110.474 20.24C110.474 20.6467 110.381 21.02 110.194 21.36C110.007 21.6933 109.721 21.9633 109.334 22.17C108.947 22.3767 108.467 22.48 107.894 22.48H106.834V25H105.124V17.98H107.894C108.454 17.98 108.927 18.0767 109.314 18.27C109.701 18.4633 109.991 18.73 110.184 19.07C110.377 19.41 110.474 19.8 110.474 20.24ZM107.764 21.12C108.091 21.12 108.334 21.0433 108.494 20.89C108.654 20.7367 108.734 20.52 108.734 20.24C108.734 19.96 108.654 19.7433 108.494 19.59C108.334 19.4367 108.091 19.36 107.764 19.36H106.834V21.12H107.764Z" fill="white"/>
<path d="M36.9396 27.2403L37.246 27.3931C38.4952 28.1343 39.9234 28.5217 41.3768 28.5137C45.8514 28.5035 49.5278 24.8273 49.5278 20.3637C49.5278 18.2065 48.669 16.1348 47.1417 14.6077C45.6165 13.0648 43.5327 12.1953 41.361 12.1953C36.9069 12.1953 33.2422 15.8516 33.2422 20.2944C33.2422 20.3296 33.2422 20.3642 33.2427 20.3993C33.2561 21.9099 33.6796 23.3885 34.4682 24.6781L34.6724 24.9837L33.8554 27.989L36.9396 27.2403V27.2403Z" fill="white"/>
<path d="M48.0487 13.6883C46.3101 11.9187 43.9249 10.9259 41.4413 10.9376H41.4255C36.3106 10.9376 32.1016 15.1364 32.1016 20.2388C32.1016 20.2628 32.1021 20.2862 32.1021 20.3102C32.1214 21.9324 32.5424 23.5248 33.3276 24.9455L32 29.7846L36.9479 28.5111C38.3148 29.2597 39.8514 29.6456 41.4107 29.6318C46.5444 29.6037 50.753 25.381 50.7499 20.2592C50.7621 17.7984 49.7894 15.4319 48.0487 13.6883ZM41.4413 28.0527C40.0592 28.0599 38.7013 27.69 37.5147 26.983L37.2083 26.8302L34.262 27.5942L35.028 24.6908L34.8237 24.3852C34.065 23.1631 33.6631 21.7542 33.6631 20.3168C33.6631 16.0778 37.1598 12.5895 41.4092 12.5895C45.6585 12.5895 49.1552 16.0778 49.1552 20.3168C49.1552 22.9859 47.7689 25.4727 45.4956 26.8811C44.2933 27.6494 42.8947 28.0561 41.4669 28.0527H41.4413ZM45.9552 22.3986L45.3935 22.1439C45.3935 22.1439 44.5765 21.7873 44.0659 21.5327C44.0148 21.5327 43.9638 21.4817 43.9127 21.4817C43.7868 21.4848 43.6638 21.5199 43.5553 21.5836C43.4465 21.6473 43.5042 21.6345 42.7894 22.4495C42.7409 22.5448 42.6413 22.6044 42.5341 22.6024H42.483C42.4062 22.5895 42.3351 22.554 42.2787 22.5005L42.0234 22.3986C41.4756 22.1672 40.974 21.8394 40.5426 21.4308C40.4405 21.3289 40.2873 21.227 40.1852 21.1251C39.8072 20.7639 39.4807 20.3526 39.215 19.9027L39.164 19.8008C39.1196 19.7385 39.0852 19.6698 39.0618 19.597C39.0485 19.5088 39.0666 19.4187 39.1129 19.3424C39.1594 19.2659 39.3172 19.0876 39.4703 18.9348C39.6235 18.782 39.6235 18.6802 39.7256 18.5783C39.7781 18.5056 39.8144 18.4225 39.832 18.3346C39.8496 18.2468 39.8482 18.1561 39.8278 18.0689C39.5898 17.4098 39.3171 16.7637 39.0108 16.1333C38.9287 16.0059 38.8008 15.9147 38.6533 15.8786H38.0917C37.9895 15.8786 37.8874 15.9295 37.7853 15.9295L37.7342 15.9804C37.6321 16.0314 37.53 16.1333 37.4279 16.1842C37.3257 16.2351 37.2747 16.388 37.1726 16.4898C36.8156 16.9398 36.6181 17.4951 36.6109 18.0689C36.6165 18.4725 36.7033 18.8709 36.8662 19.2405L36.9172 19.3933C37.3757 20.3712 38.017 21.2528 38.8065 21.9911L39.0108 22.1949C39.1594 22.3177 39.2962 22.4541 39.4193 22.6024C40.4773 23.5208 41.7339 24.1829 43.0906 24.538C43.2438 24.5889 43.4481 24.5889 43.6012 24.6399H44.1119C44.3787 24.6267 44.6398 24.5573 44.8778 24.4361C45.0029 24.3796 45.1224 24.3113 45.2352 24.2324L45.3373 24.1305C45.4395 24.0286 45.5416 23.9777 45.6437 23.8758C45.7435 23.7871 45.8296 23.6841 45.899 23.5702C45.9971 23.342 46.066 23.1026 46.1033 22.857V22.5005C46.0574 22.4593 46.0058 22.425 45.9501 22.3986" fill="#65D072"/>
</svg>