<svg width="119" height="28" viewBox="0 0 119 28" fill="none" xmlns="http://www.w3.org/2000/svg">
<path d="M7.602 8.098C7.602 8.91 7.322 9.58667 6.762 10.128C6.21133 10.66 5.36667 10.926 4.228 10.926H2.352V15H1.078V5.242H4.228C5.32933 5.242 6.16467 5.508 6.734 6.04C7.31267 6.572 7.602 7.258 7.602 8.098ZM4.228 9.876C4.93733 9.876 5.46 9.722 5.796 9.414C6.132 9.106 6.3 8.66733 6.3 8.098C6.3 6.894 5.60933 6.292 4.228 6.292H2.352V9.876H4.228ZM12.5314 15.126C11.8128 15.126 11.1594 14.9627 10.5714 14.636C9.99276 14.3093 9.53542 13.8473 9.19942 13.25C8.87276 12.6433 8.70942 11.9433 8.70942 11.15C8.70942 10.366 8.87742 9.67533 9.21342 9.078C9.55876 8.47133 10.0254 8.00933 10.6134 7.692C11.2014 7.36533 11.8594 7.202 12.5874 7.202C13.3154 7.202 13.9734 7.36533 14.5614 7.692C15.1494 8.00933 15.6114 8.46667 15.9474 9.064C16.2928 9.66133 16.4654 10.3567 16.4654 11.15C16.4654 11.9433 16.2881 12.6433 15.9334 13.25C15.5881 13.8473 15.1168 14.3093 14.5194 14.636C13.9221 14.9627 13.2594 15.126 12.5314 15.126ZM12.5314 14.006C12.9888 14.006 13.4181 13.8987 13.8194 13.684C14.2208 13.4693 14.5428 13.1473 14.7854 12.718C15.0374 12.2887 15.1634 11.766 15.1634 11.15C15.1634 10.534 15.0421 10.0113 14.7994 9.582C14.5568 9.15267 14.2394 8.83533 13.8474 8.63C13.4554 8.41533 13.0308 8.308 12.5734 8.308C12.1068 8.308 11.6774 8.41533 11.2854 8.63C10.9028 8.83533 10.5948 9.15267 10.3614 9.582C10.1281 10.0113 10.0114 10.534 10.0114 11.15C10.0114 11.7753 10.1234 12.3027 10.3474 12.732C10.5808 13.1613 10.8888 13.4833 11.2714 13.698C11.6541 13.9033 12.0741 14.006 12.5314 14.006ZM28.3605 7.328L25.9665 15H24.6505L22.8025 8.91L20.9545 15H19.6385L17.2305 7.328H18.5325L20.2965 13.768L22.2005 7.328H23.5025L25.3645 13.782L27.1005 7.328H28.3605ZM36.6249 10.87C36.6249 11.1127 36.6109 11.3693 36.5829 11.64H30.4509C30.4975 12.396 30.7542 12.9887 31.2209 13.418C31.6969 13.838 32.2709 14.048 32.9429 14.048C33.4935 14.048 33.9509 13.922 34.3149 13.67C34.6882 13.4087 34.9495 13.0633 35.0989 12.634H36.4709C36.2655 13.3713 35.8549 13.9733 35.2389 14.44C34.6229 14.8973 33.8575 15.126 32.9429 15.126C32.2149 15.126 31.5615 14.9627 30.9829 14.636C30.4135 14.3093 29.9655 13.8473 29.6389 13.25C29.3122 12.6433 29.1489 11.9433 29.1489 11.15C29.1489 10.3567 29.3075 9.66133 29.6249 9.064C29.9422 8.46667 30.3855 8.00933 30.9549 7.692C31.5335 7.36533 32.1962 7.202 32.9429 7.202C33.6709 7.202 34.3149 7.36067 34.8749 7.678C35.4349 7.99533 35.8642 8.434 36.1629 8.994C36.4709 9.54467 36.6249 10.17 36.6249 10.87ZM35.3089 10.604C35.3089 10.1187 35.2015 9.70333 34.9869 9.358C34.7722 9.00333 34.4782 8.73733 34.1049 8.56C33.7409 8.37333 33.3349 8.28 32.8869 8.28C32.2429 8.28 31.6922 8.48533 31.2349 8.896C30.7869 9.30667 30.5302 9.876 30.4649 10.604H35.3089ZM39.5805 8.574C39.8045 8.13533 40.1218 7.79467 40.5325 7.552C40.9525 7.30933 41.4612 7.188 42.0585 7.188V8.504H41.7225C40.2945 8.504 39.5805 9.27867 39.5805 10.828V15H38.3065V7.328H39.5805V8.574ZM50.5292 10.87C50.5292 11.1127 50.5152 11.3693 50.4872 11.64H44.3552C44.4018 12.396 44.6585 12.9887 45.1252 13.418C45.6012 13.838 46.1752 14.048 46.8472 14.048C47.3978 14.048 47.8552 13.922 48.2192 13.67C48.5925 13.4087 48.8538 13.0633 49.0032 12.634H50.3752C50.1698 13.3713 49.7592 13.9733 49.1432 14.44C48.5272 14.8973 47.7618 15.126 46.8472 15.126C46.1192 15.126 45.4658 14.9627 44.8872 14.636C44.3178 14.3093 43.8698 13.8473 43.5432 13.25C43.2165 12.6433 43.0532 11.9433 43.0532 11.15C43.0532 10.3567 43.2118 9.66133 43.5292 9.064C43.8465 8.46667 44.2898 8.00933 44.8592 7.692C45.4378 7.36533 46.1005 7.202 46.8472 7.202C47.5752 7.202 48.2192 7.36067 48.7792 7.678C49.3392 7.99533 49.7685 8.434 50.0672 8.994C50.3752 9.54467 50.5292 10.17 50.5292 10.87ZM49.2132 10.604C49.2132 10.1187 49.1058 9.70333 48.8912 9.358C48.6765 9.00333 48.3825 8.73733 48.0092 8.56C47.6452 8.37333 47.2392 8.28 46.7912 8.28C46.1472 8.28 45.5965 8.48533 45.1392 8.896C44.6912 9.30667 44.4345 9.876 44.3692 10.604H49.2132ZM51.7348 11.136C51.7348 10.352 51.8935 9.666 52.2108 9.078C52.5281 8.48067 52.9621 8.01867 53.5128 7.692C54.0728 7.36533 54.6981 7.202 55.3888 7.202C55.9861 7.202 56.5415 7.342 57.0548 7.622C57.5681 7.89267 57.9601 8.252 58.2308 8.7V4.64H59.5188V15H58.2308V13.558C57.9788 14.0153 57.6055 14.3933 57.1108 14.692C56.6161 14.9813 56.0375 15.126 55.3748 15.126C54.6935 15.126 54.0728 14.958 53.5128 14.622C52.9621 14.286 52.5281 13.8147 52.2108 13.208C51.8935 12.6013 51.7348 11.9107 51.7348 11.136ZM58.2308 11.15C58.2308 10.5713 58.1141 10.0673 57.8808 9.638C57.6475 9.20867 57.3301 8.882 56.9288 8.658C56.5368 8.42467 56.1028 8.308 55.6268 8.308C55.1508 8.308 54.7168 8.42 54.3248 8.644C53.9328 8.868 53.6201 9.19467 53.3868 9.624C53.1535 10.0533 53.0368 10.5573 53.0368 11.136C53.0368 11.724 53.1535 12.2373 53.3868 12.676C53.6201 13.1053 53.9328 13.4367 54.3248 13.67C54.7168 13.894 55.1508 14.006 55.6268 14.006C56.1028 14.006 56.5368 13.894 56.9288 13.67C57.3301 13.4367 57.6475 13.1053 57.8808 12.676C58.1141 12.2373 58.2308 11.7287 58.2308 11.15ZM66.6782 8.756C66.9395 8.29867 67.3222 7.92533 67.8262 7.636C68.3302 7.34667 68.9042 7.202 69.5482 7.202C70.2388 7.202 70.8595 7.36533 71.4102 7.692C71.9608 8.01867 72.3948 8.48067 72.7122 9.078C73.0295 9.666 73.1882 10.352 73.1882 11.136C73.1882 11.9107 73.0295 12.6013 72.7122 13.208C72.3948 13.8147 71.9562 14.286 71.3962 14.622C70.8455 14.958 70.2295 15.126 69.5482 15.126C68.8855 15.126 68.3022 14.9813 67.7982 14.692C67.3035 14.4027 66.9302 14.034 66.6782 13.586V15H65.4042V4.64H66.6782V8.756ZM71.8862 11.136C71.8862 10.5573 71.7695 10.0533 71.5362 9.624C71.3028 9.19467 70.9855 8.868 70.5842 8.644C70.1922 8.42 69.7582 8.308 69.2822 8.308C68.8155 8.308 68.3815 8.42467 67.9802 8.658C67.5882 8.882 67.2708 9.21333 67.0282 9.652C66.7948 10.0813 66.6782 10.5807 66.6782 11.15C66.6782 11.7287 66.7948 12.2373 67.0282 12.676C67.2708 13.1053 67.5882 13.4367 67.9802 13.67C68.3815 13.894 68.8155 14.006 69.2822 14.006C69.7582 14.006 70.1922 13.894 70.5842 13.67C70.9855 13.4367 71.3028 13.1053 71.5362 12.676C71.7695 12.2373 71.8862 11.724 71.8862 11.136ZM81.4731 7.328L76.8531 18.612H75.5371L77.0491 14.916L73.9551 7.328H75.3691L77.7771 13.544L80.1571 7.328H81.4731Z" fill="#2F84ED"/>
<path d="M105 28C112.732 28 119 21.732 119 14C119 6.26801 112.732 0 105 0C97.268 0 91 6.26801 91 14C91 21.732 97.268 28 105 28Z" fill="#2F84ED"/>
<path fill-rule="evenodd" clip-rule="evenodd" d="M97.1513 8.10352H98.8059L100.079 10.4368L101.309 8.10352H102.879L100.8 11.8368V13.8308H99.2725V11.8793L97.1513 8.10352Z" fill="white"/>
<path d="M102.412 10.9878C102.412 9.24843 103.812 8.06055 105.424 8.06055C107.036 8.06055 108.436 9.29085 108.436 10.9878C108.436 12.7272 107.036 13.9575 105.424 13.9575C103.812 13.9151 102.412 12.7272 102.412 10.9878ZM106.866 10.9878C106.866 10.0969 106.315 9.3757 105.381 9.3757C104.448 9.3757 103.896 10.0969 103.896 10.9878C103.896 11.8787 104.448 12.5999 105.381 12.5999C106.357 12.5999 106.866 11.8787 106.866 10.9878Z" fill="white"/>
<path fill-rule="evenodd" clip-rule="evenodd" d="M109.836 9.37624H108.351V8.10352H112.848V9.37624H111.363V13.8308H109.836V9.37624Z" fill="white"/>
<path d="M99.1033 20.1101H97.6184V14.3828H99.7397C101.267 14.3828 102.115 15.3586 102.115 16.6313C102.115 17.904 101.267 18.8798 99.7397 18.8798H99.1033V20.1101ZM99.6548 17.5646C100.334 17.5646 100.588 17.1828 100.588 16.6313C100.588 16.0798 100.334 15.6555 99.6548 15.6555H99.1033V17.5646H99.6548Z" fill="white"/>
<path d="M102.37 17.2671C102.37 15.5277 103.77 14.3398 105.382 14.3398C106.994 14.3398 108.394 15.5701 108.394 17.2671C108.394 19.0065 106.994 20.2368 105.382 20.2368C103.77 20.1944 102.37 19.0065 102.37 17.2671ZM106.866 17.2671C106.866 16.3762 106.315 15.655 105.382 15.655C104.448 15.655 103.897 16.3762 103.897 17.2671C103.897 18.158 104.448 18.8792 105.382 18.8792C106.315 18.8792 106.866 18.158 106.866 17.2671Z" fill="white"/>
<path fill-rule="evenodd" clip-rule="evenodd" d="M108.394 19.3875C108.394 18.8785 108.775 18.5391 109.2 18.5391C109.624 18.5391 110.006 18.8785 110.006 19.3875C110.006 19.8966 109.624 20.236 109.2 20.236C108.775 20.1936 108.394 19.8542 108.394 19.3875Z" fill="white"/>
</svg>
