<svg width="27" height="26" viewBox="0 0 27 26" fill="none" xmlns="http://www.w3.org/2000/svg">
<path fill-rule="evenodd" clip-rule="evenodd" d="M2.0038 8.53458C2.10615 8.33975 2.26427 8.19229 2.44863 8.10207L12.4417 3.10557C12.7232 2.96481 13.0546 2.96481 13.3361 3.10557L23.3285 8.10175C23.5131 8.19194 23.6715 8.33951 23.774 8.53458C23.782 8.54976 23.7896 8.56515 23.7968 8.58073C23.8625 8.72277 23.892 8.87279 23.8889 9.02009V19C23.8889 19.3787 23.6749 19.725 23.3361 19.8944L13.3536 24.8857C13.2227 24.9545 13.0747 24.9952 12.9176 24.9996C12.908 24.9999 12.8985 25 12.8889 25C12.8706 25 12.8524 24.9995 12.8341 24.9985C12.6867 24.9906 12.5478 24.9507 12.4242 24.8857L2.44168 19.8944C2.10289 19.725 1.88889 19.3787 1.88889 19V9.02011C1.8858 8.8728 1.91532 8.72277 1.98102 8.58073C1.98822 8.56515 1.99581 8.54976 2.0038 8.53458ZM17.8891 7.61815L20.6528 9.00001L12.8889 12.882L10.1252 11.5001L17.8891 7.61815ZM15.653 6.5001L12.8889 5.11802L5.12498 9.00001L7.88908 10.3821L15.653 6.5001ZM7.42044 12.3838L3.88889 10.618V18.3819L11.8889 22.3819V14.618L7.46166 12.4044C7.44777 12.3979 7.43403 12.391 7.42044 12.3838ZM13.8889 22.3819V14.618L21.8889 10.618V18.3819L13.8889 22.3819Z" fill="#EA5B21"/>
</svg>
