<svg width="18" height="13" viewBox="0 0 18 13" fill="none" xmlns="http://www.w3.org/2000/svg">
<path fill-rule="evenodd" clip-rule="evenodd" d="M2.3368 0.166668H15.6619C16.5846 0.166668 17.3327 0.912096 17.3327 1.82838V11.005C17.3327 11.9227 16.5852 12.6667 15.6619 12.6667H2.3368C1.41405 12.6667 0.666016 11.9212 0.666016 11.005V1.82838C0.666016 0.910644 1.41354 0.166668 2.3368 0.166668ZM2.33267 11.005C2.33267 10.9999 2.33312 11 2.33591 11L2.33679 11H15.6619L15.666 1.82846C15.666 1.83339 15.6655 1.83338 15.6628 1.83334L15.6619 1.83333H2.33679C2.33333 1.83333 2.33275 1.83308 2.33267 1.831V1.82838L2.33266 1.82947L2.33267 1.831V11.005ZM8.99935 7.66667L3.16602 5.16667V3.5L8.99935 6L14.8327 3.5V5.16667L8.99935 7.66667Z" fill="#00A0E3"/>
</svg>
