<svg width="23" height="23" viewBox="0 0 23 23" fill="none" xmlns="http://www.w3.org/2000/svg">
<path d="M23 11.5C23 5.14872 17.8513 0 11.5 0C5.14872 0 0 5.14872 0 11.5C0 17.2399 4.20536 21.9976 9.70312 22.8603V14.8242H6.7832V11.5H9.70312V8.96641C9.70312 6.08422 11.42 4.49219 14.0468 4.49219C15.3047 4.49219 16.6211 4.7168 16.6211 4.7168V7.54688H15.171C13.7425 7.54688 13.2969 8.43341 13.2969 9.34375V11.5H16.4863L15.9765 14.8242H13.2969V22.8603C18.7946 21.9976 23 17.2399 23 11.5Z" fill="#1877F2"/>
<path d="M15.9765 14.8242L16.4863 11.5H13.2969V9.34375C13.2969 8.43431 13.7425 7.54688 15.171 7.54688H16.6211V4.7168C16.6211 4.7168 15.3051 4.49219 14.0468 4.49219C11.42 4.49219 9.70312 6.08422 9.70312 8.96641V11.5H6.7832V14.8242H9.70312V22.8603C10.8938 23.0466 12.1062 23.0466 13.2969 22.8603V14.8242H15.9765Z" fill="white"/>
</svg>
