<svg width="29" height="29" viewBox="0 0 29 29" fill="none" xmlns="http://www.w3.org/2000/svg">
<g clip-path="url(#clip0)">
<path fill-rule="evenodd" clip-rule="evenodd" d="M14.4 6.5C9.0333 6.5 4.5 9.3854 4.5 12.8C4.5 13.0484 4.7016 13.25 4.95 13.25C5.1984 13.25 5.4 13.0484 5.4 12.8C5.4 9.9236 9.6057 7.4 14.4 7.4C14.6475 7.4 14.85 7.1984 14.85 6.95C14.85 6.7016 14.6484 6.5 14.4 6.5Z" fill="white"/>
<path fill-rule="evenodd" clip-rule="evenodd" d="M14.4 2C6.4467 2 0 6.8357 0 12.8C0 16.5143 2.5011 19.7894 6.3072 21.7334C6.3072 21.7577 6.3 21.7739 6.3 21.8C6.3 23.4137 5.0949 25.1507 4.5648 26.0624C4.5657 26.0624 4.5666 26.0624 4.5666 26.0624C4.5243 26.1614 4.5 26.2703 4.5 26.3846C4.5 26.8346 4.8645 27.2 5.3154 27.2C5.4 27.2 5.5485 27.1775 5.5449 27.1874C8.3574 26.7266 11.007 24.1427 11.6226 23.3939C12.5217 23.5262 13.4487 23.6 14.4 23.6C22.3515 23.6 28.8 18.7643 28.8 12.8C28.8 6.8357 22.3524 2 14.4 2ZM14.4 21.8C13.5747 21.8 12.7278 21.737 11.8836 21.6137C11.7963 21.5993 11.709 21.5948 11.6226 21.5948C11.088 21.5948 10.5759 21.8324 10.2312 22.2518C9.846 22.7207 8.7498 23.7674 7.4547 24.5369C7.8057 23.7314 8.0802 22.8287 8.0991 21.8981C8.1045 21.8405 8.1072 21.782 8.1072 21.7325C8.1072 21.0557 7.7283 20.4374 7.1262 20.1296C3.7908 18.4268 1.8 15.6863 1.8 12.8C1.8 7.8374 7.452 3.8 14.4 3.8C21.3462 3.8 27 7.8374 27 12.8C27 17.7626 21.3471 21.8 14.4 21.8Z" fill="white"/>
</g>
<defs>
<clipPath id="clip0">
<rect width="28.8" height="28.8" fill="white" transform="translate(0 0.199951)"/>
</clipPath>
</defs>
</svg>
