<svg width="23" height="23" viewBox="0 0 23 23" fill="none" xmlns="http://www.w3.org/2000/svg">
<g clip-path="url(#clip0)">
<path d="M22.7762 11.7649C22.7762 10.9831 22.7129 10.1972 22.5776 9.4281H11.7305V13.8565H17.9421C17.6844 15.2848 16.8561 16.5483 15.6434 17.3511V20.2245H19.3493C21.5255 18.2216 22.7762 15.2637 22.7762 11.7649Z" fill="#4285F4"/>
<path d="M11.7298 23.0008C14.8314 23.0008 17.4471 21.9824 19.3528 20.2246L15.647 17.3512C14.6159 18.0526 13.2848 18.4498 11.734 18.4498C8.73385 18.4498 6.19003 16.4258 5.2773 13.7045H1.45312V16.6666C3.40536 20.55 7.38166 23.0008 11.7298 23.0008Z" fill="#34A853"/>
<path d="M5.27373 13.7045C4.79202 12.2762 4.79202 10.7296 5.27373 9.30139V6.33923H1.45378C-0.177303 9.58873 -0.177303 13.4171 1.45378 16.6666L5.27373 13.7045Z" fill="#FBBC04"/>
<path d="M11.7298 4.55176C13.3693 4.5264 14.954 5.14334 16.1413 6.27581L19.4246 2.99251C17.3456 1.04028 14.5863 -0.0330299 11.7298 0.000774972C7.38166 0.000774972 3.40536 2.45163 1.45312 6.33919L5.27308 9.30134C6.18158 6.57583 8.72963 4.55176 11.7298 4.55176Z" fill="#EA4335"/>
</g>
<defs>
<clipPath id="clip0">
<rect width="23" height="23" fill="white"/>
</clipPath>
</defs>
</svg>
