<svg width="24" height="24" viewBox="0 0 24 24" fill="none" xmlns="http://www.w3.org/2000/svg">
<path fill-rule="evenodd" clip-rule="evenodd" d="M4 9.922C4 5.553 7.589 2 12 2C16.411 2 20 5.553 20 9.922C20 15.397 12.951 21.501 12.651 21.758C12.463 21.919 12.232 22 12 22C11.768 22 11.537 21.919 11.349 21.758C11.049 21.501 4 15.397 4 9.922ZM12 19.6461C10.325 18.0621 5.99996 13.6151 5.99996 9.92205C5.99996 6.65705 8.69096 4.00005 12 4.00005C15.309 4.00005 18 6.65705 18 9.92205C18 13.6151 13.675 18.0621 12 19.6461ZM8.5 9.49948C8.5 7.56948 10.07 5.99948 12 5.99948C13.93 5.99948 15.5 7.56948 15.5 9.49948C15.5 11.4295 13.93 12.9995 12 12.9995C10.07 12.9995 8.5 11.4295 8.5 9.49948ZM10.5 9.49946C10.5 10.3265 11.173 10.9995 12 10.9995C12.827 10.9995 13.5 10.3265 13.5 9.49946C13.5 8.67246 12.827 7.99946 12 7.99946C11.173 7.99946 10.5 8.67246 10.5 9.49946Z" fill="#333333"/>
<mask id="mask0" mask-type="alpha" maskUnits="userSpaceOnUse" x="4" y="2" width="16" height="20">
<path fill-rule="evenodd" clip-rule="evenodd" d="M4 9.922C4 5.553 7.589 2 12 2C16.411 2 20 5.553 20 9.922C20 15.397 12.951 21.501 12.651 21.758C12.463 21.919 12.232 22 12 22C11.768 22 11.537 21.919 11.349 21.758C11.049 21.501 4 15.397 4 9.922ZM12 19.6461C10.325 18.0621 5.99996 13.6151 5.99996 9.92205C5.99996 6.65705 8.69096 4.00005 12 4.00005C15.309 4.00005 18 6.65705 18 9.92205C18 13.6151 13.675 18.0621 12 19.6461ZM8.5 9.49948C8.5 7.56948 10.07 5.99948 12 5.99948C13.93 5.99948 15.5 7.56948 15.5 9.49948C15.5 11.4295 13.93 12.9995 12 12.9995C10.07 12.9995 8.5 11.4295 8.5 9.49948ZM10.5 9.49946C10.5 10.3265 11.173 10.9995 12 10.9995C12.827 10.9995 13.5 10.3265 13.5 9.49946C13.5 8.67246 12.827 7.99946 12 7.99946C11.173 7.99946 10.5 8.67246 10.5 9.49946Z" fill="white"/>
</mask>
<g mask="url(#mask0)">
</g>
</svg>
