<svg width="10" height="16" viewBox="0 0 10 16" fill="none" xmlns="http://www.w3.org/2000/svg">
<path fill-rule="evenodd" clip-rule="evenodd" d="M9.6665 2.00332V13.9967C9.6665 14.7349 9.07016 15.3334 8.33713 15.3334H1.66254C0.928349 15.3334 0.333169 14.7353 0.333169 13.9967V2.00332C0.333169 1.26512 0.929511 0.666687 1.66254 0.666687L8.33713 0.666687C9.07132 0.666687 9.6665 1.2647 9.6665 2.00332ZM1.66265 2.00002L1.66661 13.9967L8.33717 14C8.33323 14 8.33324 13.9996 8.33327 13.9974L8.33327 13.9967V2.00332C8.33327 2.00055 8.33348 2.00008 8.33515 2.00002H8.33723L8.33636 2.00001L8.33515 2.00002L1.66265 2.00002ZM4.99984 13.3334C4.63165 13.3334 4.33317 13.0349 4.33317 12.6667C4.33317 12.2985 4.63165 12 4.99984 12C5.36803 12 5.6665 12.2985 5.6665 12.6667C5.6665 13.0349 5.36803 13.3334 4.99984 13.3334Z" fill="#00A0E3"/>
</svg>
